<svg xmlns="http://www.w3.org/2000/svg" viewBox="0 0 1186.87 806.32"><title>bk</title><g style="isolation:isolate"><g id="bk"><path d="M631.39,199.91a4.17,4.17,0,0,0-.94.1,8.58,8.58,0,0,0-7.24-5.76,5.41,5.41,0,0,0-5-7.38H618a7.85,7.85,0,1,0-12.95-8.75,12.53,12.53,0,0,0-24.7,1.47,5.25,5.25,0,0,0-8.85,5.61,9,9,0,0,0-10.66,8.25,6.21,6.21,0,1,0-4.57,10.43,6.39,6.39,0,0,0,1.25-.12,8.29,8.29,0,0,0,15.86.61A12.53,12.53,0,0,0,597.79,206a12.51,12.51,0,0,0,16-2.77,8.6,8.6,0,0,0,15.16,5.06,4.57,4.57,0,1,0,2.48-8.41Z" style="fill:#dedefd"/><rect x="-3.65" y="0.6" width="1190.82" height="527" style="fill:#5a59f3"/><path d="M1102.64,126.47c-51.93,2.3-110.74,3.8-119.24,4.07-71.77,2.26-143.77,3.1-215.53.24C653.52,126.22,542.74,108,430.37,95.46,290.43,79.79,136.61,74-3.65,90.64v437H1185.06V119.22C1185.06,122,1146.28,124.53,1102.64,126.47Z" style="fill:#7b7af5"/><path d="M265.22,154.77c58.73,18.54,118.06,35.09,182.5,37.06,120.24,3.69,246.6-8.52,356.74-44.4,62.46-20.35,125.8-41.53,193.83-49.51a470.38,470.38,0,0,1,96.31-1.56c10.1.92,92.57,10.65,92.57,18.94V536.6H-3.65V97.78c25.6.33,51.41,1.89,77.9,6.2C140.87,113.06,202.71,135,265.22,154.77Z" style="fill:#9c9bf8"/><path d="M1176.35,529.6a38.52,38.52,0,0,0-6.26-.89c-1.21-18-15.21-34.39-36.61-41.25a27.87,27.87,0,0,0,6.11-9.91c5.5-15.76-5.8-32.15-25.24-36.61-.32-.08-.64-.14-1-.2,9.82-5.5,17.43-13.69,20.94-23.72,8-22.91-8.43-46.73-36.69-53.21-19.41-4.46-39.34.43-52.52,11.34,2.28-31.52-22.6-61.21-61.64-70.16-42.37-9.72-86.33,8.44-102.08,41-3.84-8.28-12.31-15-23.61-17.61-18.9-4.34-38.56,4.57-43.91,19.89a23.5,23.5,0,0,0-.51,14.1A71,71,0,0,0,803,359.12c-31.15-7.14-63.49,6.6-74.27,30.92-5.14-8.19-14.31-14.68-26.08-17.38-22.38-5.13-45.65,5.41-52,23.55s6.67,37,29,42.14a51.49,51.49,0,0,0,8.37,1.21c-.49,20.2,15.77,38.92,40.88,44.68,23.64,5.43,48-2.28,61.34-17.74-4.86,33,20.46,64.94,61.19,74.28,36.86,8.46,74.93-4.2,94.58-29.06a89.87,89.87,0,0,0,38.19,18.61c25.2,5.78,51,1.7,71-9.4-6.78,24.28,11,48.88,40.91,55.74a69.58,69.58,0,0,0,48.53-6.36,32.41,32.41,0,0,0,14.82,7.58c16.45,3.77,33.55-4,38.21-17.31S1192.8,533.38,1176.35,529.6Z" style="fill:#d0d0fc"/><path d="M20.7,474.84a36.46,36.46,0,0,1,6.08-.11c4.37-16.9,20.52-30.73,42-34.71a24.67,24.67,0,0,1-4-10.08c-2.39-15.55,11.22-29.72,30.4-31.66l.94-.07c-8.3-6.34-14-15-15.56-24.88-3.47-22.59,16.31-43.19,44.19-46,19.14-1.94,37.11,5,47.62,16.88,3.47-30.07,32.29-55.22,70.79-59.1,41.79-4.22,80.11,18.11,89.2,50.72,5.1-7.37,14.31-12.75,25.46-13.88,18.65-1.88,35.64,8.85,38,24a22.7,22.7,0,0,1-2.05,13.39,70.94,70.94,0,0,1,10.43-1.84c30.72-3.1,58.84,13.68,64.7,38,6.32-7.14,16.14-12.21,27.75-13.38,22.07-2.23,42.19,10.47,44.94,28.36s-12.91,34.2-35,36.43a50.38,50.38,0,0,1-8.13.16c-3.14,19.16-21.86,34.95-46.63,37.45-23.31,2.35-45-7.79-54.83-24-1.29,31.8-30.92,59-71.1,63.05-36.36,3.67-70.09-12.75-84.22-38.57a92,92,0,0,1-39.44,13.12c-24.85,2.51-48.46-4.37-65.45-17.22,2.08,23.75-19.13,44.93-48.62,47.9-17,1.72-33.11-3-44.74-11.71A33.16,33.16,0,0,1,28,522.46C11.8,524.1-3,514.77-5,501.62S4.48,476.48,20.7,474.84Z" style="fill:#d0d0fc"/><path d="M799.77,530a38.5,38.5,0,0,0-6.32.53c-7.23-17.08-26.19-29.73-49.09-31.62A24.75,24.75,0,0,0,746.91,488c0-16.38-16.38-29.66-36.58-29.66l-1,0c7.6-7.45,12.17-17,12.17-27.44,0-23.81-23.81-43.1-53.18-43.1-20.16,0-37.7,9.1-46.72,22.5-8.39-30.83-42.3-53.9-82.87-53.9-44,0-80.23,27.18-84.46,62-6.47-7.11-16.89-11.73-28.64-11.73-19.64,0-35.56,12.9-35.56,28.83a24.54,24.54,0,0,0,4.25,13.68,76.34,76.34,0,0,0-11.11-.82c-32.37,0-58.87,20.36-61.08,46.15-7.69-6.75-18.7-11-30.93-11-23.26,0-42.11,15.28-42.11,34.13s18.85,34.14,42.11,34.14a52,52,0,0,0,8.46-.69c6.31,19.55,28.25,34,54.35,34,24.57,0,45.44-12.79,53.07-30.61,6.4,32.85,41.49,58,83.82,58,38.31,0,70.69-20.58,81.24-48.84a100,100,0,0,0,43,9.48c26.18,0,49.59-9.61,65.16-24.72,1.64,24.86,27,44.61,58.09,44.61,17.89,0,33.88-6.55,44.55-16.84a36.26,36.26,0,0,0,16.81,4c17.1,0,31-11.24,31-25.1S816.87,530,799.77,530Z" style="fill:#d0d0fc"/><path d="M1149.7,540.33a34,34,0,0,0-6.77,1.55A63.47,63.47,0,0,0,1084.45,507a38.67,38.67,0,0,0,1-14.64c-2.71-21.52-22.67-36.73-44.59-34-.36,0-.71.1-1.07.15a56.13,56.13,0,0,0,8.67-37.71c-3.93-31.28-32.94-53.39-64.81-49.38a58.3,58.3,0,0,0-47,35.94c-14.2-39.37-54.8-65.06-98.81-59.53-47.77,6-82.55,46.66-81.39,92.95a39.06,39.06,0,0,0-33-11.51C702.13,432,687,451.14,689.62,472.06a37.43,37.43,0,0,0,6.87,17.4,67.59,67.59,0,0,0-12.19.44c-35.12,4.41-60.5,34.78-58.64,69a46.33,46.33,0,0,0-35.37-10.21c-25.23,3.18-43.16,25.83-40,50.6s26.1,42.28,51.33,39.1a47.17,47.17,0,0,0,9.06-2.05c10.08,24.82,36.26,40.78,64.57,37.22a61.36,61.36,0,0,0,52.52-47.45c12.38,42.29,54.59,70.5,100.51,64.73,41.57-5.22,73.3-36.68,80.07-75.25a94.08,94.08,0,0,0,114.84-34.77c5.89,32.43,36.68,54.92,70.39,50.68a64,64,0,0,0,45.56-28.2,34.18,34.18,0,0,0,18.9,3c18.54-2.33,31.72-19,29.43-37.19S1168.24,538,1149.7,540.33Z" style="fill:#ebebff"/><path d="M582.78,555.43a35.4,35.4,0,0,0-6.73.86c-8.34-21-29-36.21-53.53-37.82a35.1,35.1,0,0,0,2.31-13.64c-.61-20.41-18.58-36.43-40.13-35.78l-1.05.06a51.83,51.83,0,0,0,12-34.59c-.89-29.66-27-52.94-58.32-52-21.51.65-39.87,12.55-49,29.55-10.11-38.16-47.14-65.82-90.4-64.51C251,349,213.37,384,210.17,427.5a38.64,38.64,0,0,0-31-13.71c-20.95.63-37.44,17.23-36.85,37.07a34.37,34.37,0,0,0,5,16.91,69.57,69.57,0,0,0-11.88-.66c-34.52,1-62,27.27-63.4,59.47A45.93,45.93,0,0,0,38.72,513.9c-24.8.74-44.33,20.39-43.62,43.88S16.48,599.71,41.29,599a48.27,48.27,0,0,0,9-1.13c7.46,24.15,31.4,41.42,59.22,40.58,26.21-.79,48-17.4,55.45-39.84,8.07,40.73,46.42,70.9,91.56,69.54,40.86-1.23,74.61-27.92,84.8-63.47a94,94,0,0,0,46.22,10.43,92.42,92.42,0,0,0,68.56-32.9c2.68,30.93,30.48,54.71,63.62,53.72a63.4,63.4,0,0,0,46.88-22.42A34.09,34.09,0,0,0,584.66,618c18.23-.55,32.59-15,32.07-32.26S601,554.88,582.78,555.43Z" style="fill:#ebebff"/><rect x="14.65" y="16.93" width="1150.88" height="682.67" style="fill:none"/><path d="M374.56,446.31v0Zm2.19-.74v0Zm-2.23-.93a1.36,1.36,0,0,0,0,.2A1.36,1.36,0,0,1,374.52,444.64Zm-.67-1.8a2.7,2.7,0,0,0-.25-.34A2.7,2.7,0,0,1,373.85,442.84Zm.56,1.29c0-.08-.05-.16-.08-.24C374.36,444,374.38,444.05,374.41,444.13Zm-.22-.67-.15-.29ZM364,465.07l0,0Zm.76-.9,0,0Z" style="fill:#c4c2c3;mix-blend-mode:multiply"/></g></g></svg>