<svg xmlns="http://www.w3.org/2000/svg" viewBox="0 0 1440 900"><title>bannervf</title><g style="isolation:isolate"><g id="Layer_1" data-name="Layer 1"><path d="M773.64,167.86a5.93,5.93,0,0,0-1.13.11,10.48,10.48,0,0,0-8.84-7,6.51,6.51,0,0,0,.46-2.42,6.58,6.58,0,0,0-6.58-6.58h-.18a9.57,9.57,0,1,0-15.79-10.66,15.27,15.27,0,0,0-30.11,1.79,6.4,6.4,0,0,0-11.55,3.79,6.46,6.46,0,0,0,.76,3,10.83,10.83,0,0,0-2-.18,11,11,0,0,0-11,10.24,7.58,7.58,0,1,0-5.56,12.72,7.61,7.61,0,0,0,1.52-.15,10.11,10.11,0,0,0,19.33.75,15.28,15.28,0,0,0,29.7,2,15.27,15.27,0,0,0,19.47-3.38,10.47,10.47,0,0,0,18.47,6.16,5.5,5.5,0,0,0,3,.9,5.57,5.57,0,1,0,0-11.14Z" style="fill:#dedefd"/><rect x="-0.46" width="1440.46" height="780.76" style="fill:#5a59f3"/><path d="M1340.12,160.75c-62.93,3.55-134.19,5.86-144.49,6.27-87,3.49-174.22,4.77-261.18.36-138.57-7-272.8-35-409-54.36C355.9,88.9,169.5,79.91-.46,105.59V778.28H1440V149.6C1440,153.92,1393,157.77,1340.12,160.75Z" style="fill:#7b7af5"/><path d="M324.77,196c71.05,27.73,142.81,52.49,220.76,55.45C691,256.92,843.83,238.64,977.06,185c75.56-30.44,152.17-62.14,234.46-74.07a460.75,460.75,0,0,1,116.5-2.33c12.22,1.37,112,15.93,112,28.33V767.24H-.46V110.68c31,.48,62.18,2.81,94.23,9.26C174.36,133.53,249.16,166.42,324.77,196Z" style="fill:#9c9bf8"/><path d="M1409.32,716.17a49.81,49.81,0,0,0-7.42-1c-1.44-19.84-18-37.85-43.35-45.41a30.41,30.41,0,0,0,7.23-10.9c6.52-17.35-6.86-35.39-29.89-40.3l-1.13-.21c11.63-6,20.64-15.07,24.79-26.11,9.47-25.21-10-51.43-43.45-58.57-23-4.9-46.59.48-62.19,12.49,2.7-34.7-26.76-67.37-73-77.23-50.17-10.7-102.23,9.3-120.88,45.12-4.55-9.11-14.58-16.53-28-19.39-22.39-4.77-45.66,5-52,21.9a24.1,24.1,0,0,0-.6,15.52,88.81,88.81,0,0,0-12.33-3.56c-36.89-7.87-75.18,7.26-87.95,34-6.09-9-16.94-16.16-30.88-19.13-26.5-5.65-54.06,5.95-61.56,25.92s7.9,40.73,34.4,46.38a65.06,65.06,0,0,0,9.91,1.32c-.58,22.24,18.68,42.85,48.41,49.19,28,6,56.88-2.51,72.65-19.53-5.77,36.35,24.22,71.47,72.45,81.76,43.65,9.3,88.73-4.62,112-32,12,9.44,27.35,16.67,45.23,20.49,29.84,6.36,60.33,1.86,84.08-10.35-8,26.72,13,53.8,48.45,61.35,20.38,4.35,41.21,1.3,57.46-7a39.52,39.52,0,0,0,17.56,8.35c19.47,4.15,39.73-4.38,45.25-19.05S1428.8,720.33,1409.32,716.17Z" style="fill:#d0d0fc"/><path d="M33.82,676.9a45.72,45.72,0,0,1,7.2-.12c5.17-18.6,24.29-33.82,49.71-38.2A26.1,26.1,0,0,1,86,627.48c-2.83-17.11,13.29-32.71,36-34.84.37,0,.74-.06,1.11-.08-9.83-7-16.62-16.49-18.42-27.38C100.56,540.31,124,517.64,157,514.54c22.66-2.13,43.95,5.53,56.4,18.58,4.1-33.09,38.23-60.77,83.83-65.05,49.48-4.64,94.86,19.93,105.62,55.83,6.05-8.11,17-14,30.15-15.27,22.08-2.07,42.21,9.73,45,26.36a23.48,23.48,0,0,1-2.42,14.74,89.64,89.64,0,0,1,12.35-2c36.38-3.42,69.68,15.06,76.61,41.76,7.48-7.86,19.12-13.44,32.87-14.73,26.13-2.45,50,11.53,53.22,31.22s-15.3,37.65-41.43,40.1a63.45,63.45,0,0,1-9.63.17c-3.72,21.09-25.88,38.47-55.21,41.22-27.62,2.59-53.29-8.57-64.93-26.37-1.53,35-36.63,64.92-84.2,69.39-43.06,4-83-14-99.73-42.45a114.39,114.39,0,0,1-46.7,14.43c-29.43,2.77-57.4-4.81-77.51-18.94,2.46,26.14-22.66,49.44-57.58,52.72-20.1,1.88-39.21-3.27-53-12.89a41.27,41.27,0,0,1-18.2,6c-19.21,1.8-36.72-8.48-39.12-23S14.61,678.7,33.82,676.9Z" style="fill:#d0d0fc"/><path d="M963.38,716.62a49.52,49.52,0,0,0-7.49.57c-8.56-18.79-31-32.72-58.13-34.8a25.67,25.67,0,0,0,3-12c0-18-19.39-32.64-43.33-32.64l-1.16,0c9-8.21,14.41-18.73,14.41-30.21,0-26.2-28.19-47.44-63-47.44-23.88,0-44.65,10-55.33,24.77-9.94-33.94-50.1-59.33-98.14-59.33-52.14,0-95,29.92-100,68.21-7.66-7.83-20-12.91-33.91-12.91-23.26,0-42.12,14.2-42.12,31.73a25.71,25.71,0,0,0,5,15.06,96.19,96.19,0,0,0-13.16-.9c-38.33,0-69.71,22.41-72.33,50.79-9.11-7.43-22.14-12.08-36.62-12.08-27.54,0-49.87,16.82-49.87,37.57s22.33,37.57,49.87,37.57a66.78,66.78,0,0,0,10-.75c7.48,21.51,33.46,37.39,64.36,37.39,29.1,0,53.82-14.08,62.84-33.69,7.59,36.16,49.14,63.8,99.27,63.8,45.36,0,83.71-22.65,96.2-53.76a125.84,125.84,0,0,0,50.93,10.44c31,0,58.73-10.58,77.16-27.21,1.94,27.36,32,49.1,68.8,49.1,21.18,0,40.11-7.21,52.75-18.53a45.68,45.68,0,0,0,19.91,4.43c20.24,0,36.65-12.37,36.65-27.62S983.62,716.62,963.38,716.62Z" style="fill:#d0d0fc"/><path d="M1400.19,736.57a43.76,43.76,0,0,0-8,1.55c-12.17-23.84-38.7-39.82-68.5-39.68a39.35,39.35,0,0,0,1.46-16.09c-2.74-23.74-26.06-40.94-52.07-38.41l-1.27.16a58.44,58.44,0,0,0,11.07-41.31c-4-34.51-37.87-59.5-75.68-55.82-26,2.52-47,17.91-56.38,38.48-16-43.65-63.5-72.85-115.72-67.76-56.69,5.51-98.74,49.45-98.34,100.42a48.32,48.32,0,0,0-38.83-13.42c-25.29,2.46-43.63,23.16-41,46.25a39.65,39.65,0,0,0,7.77,19.3,87.28,87.28,0,0,0-14.44.2c-41.68,4.06-72.38,36.9-70.9,74.55a57.75,57.75,0,0,0-41.65-12c-29.94,2.91-51.65,27.43-48.49,54.76s30,47.12,59.94,44.2a59,59,0,0,0,10.77-2.06c11.4,27.55,42.06,45.71,75.65,42.44,31.64-3.08,56.37-24.24,63.2-51,13.75,46.81,63.13,78.83,117.62,73.52,49.33-4.8,87.56-38.68,96.4-81a118.71,118.71,0,0,0,57,8.36c33.71-3.28,62.23-20.15,79.74-44,6.28,35.83,42.26,61.27,82.27,57.38,23-2.24,42.51-13.73,54.53-30a43.11,43.11,0,0,0,22.31,3.73c22-2.14,38-20.16,35.64-40.25S1422.2,734.43,1400.19,736.57Z" style="fill:#ebebff"/><path d="M692.3,734.11a44,44,0,0,0-7.9,1.36c-11.1-22.61-36.45-38-65.51-38.22a36.11,36.11,0,0,0,2-15.14c-1.92-22.39-24.09-38.87-49.54-36.81l-1.23.12c8.7-11,13.33-24.5,12.12-38.76-2.78-32.55-35-56.5-72-53.51-25.39,2.06-46.41,16.29-56.2,35.54-14.17-41.3-59.56-69.39-110.64-65.25-55.45,4.49-97.85,45.34-99.11,93.34-9-9.06-22.63-14.32-37.43-13.12-24.73,2-43.27,21.28-41.41,43.05A35.77,35.77,0,0,0,172.35,665a88.38,88.38,0,0,0-14.09,0c-40.76,3.31-71.75,33.85-71.51,69.32-10.48-8.44-24.83-13.09-40.23-11.85-29.28,2.38-51.24,25.19-49,51s27.73,44.75,57,42.37A59.68,59.68,0,0,0,65.07,814c10.23,26.08,39.53,43.57,72.39,40.91,30.94-2.51,55.73-22.13,63.25-47.26,11.9,44.26,59,75,112.32,70.7,48.24-3.9,86.6-35.34,96.58-75.06a118.3,118.3,0,0,0,55.27,8.58c33-2.67,61.32-18.2,79.16-40.44,5,33.82,39.23,58.23,78.35,55.06,22.52-1.83,41.9-12.41,54.13-27.57a42.93,42.93,0,0,0,21.64,3.8c21.52-1.75,37.66-18.52,36-37.47S713.82,732.36,692.3,734.11Z" style="fill:#ebebff"/><rect x="21.85" y="14.1" width="1402.91" height="773.46" style="fill:none"/><path d="M460.58,468.21v0Zm2.67-.9v0Zm-2.73-1.13,0,.24Zm-.81-2.19c-.09-.15-.2-.28-.3-.42C459.51,463.71,459.62,463.84,459.71,464Zm.68,1.57c0-.1-.06-.19-.09-.3C460.33,465.37,460.36,465.46,460.39,465.56Zm-.27-.81-.18-.36Zm-12.47,26.33,0,.06Zm.93-1.1,0,0Z" style="fill:#c4c2c3;mix-blend-mode:multiply"/><path d="M558.82,574.78c7,76.77,6.44,138,2.71,199.22h.08s14-77.21,6.26-145.07-17.34-142.39,4.38-272.72l-2.74-.76C559.85,406.6,550.59,484.84,558.82,574.78Z" style="fill:#afafaf"/><path d="M552.61,559.7c5,86.55,13.18,151.23,9,214.3h-.08c3.73-61.27,4.32-122.45-2.71-199.22-8.23-89.94,1-168.21,10.69-219.35l-2.28-.64C557.47,405.36,548,478.84,552.61,559.7Z" style="fill:#8e8e8e"/><path d="M802.62,609.6c7,88.93,6.44,159.78,2.71,230.76h.07s14-89.44,6.27-168S794.33,507.39,816,356.44l-2.73-.88A1075.74,1075.74,0,0,0,802.62,609.6Z" style="fill:#afafaf"/><path d="M796.41,592.13c5,100.26,13.17,175.17,9,248.23h-.07c3.73-71,4.32-141.83-2.71-230.76-8.23-104.18,1-194.83,10.69-254.07l-2.28-.74C801.27,413.37,791.77,498.48,796.41,592.13Z" style="fill:#8e8e8e"/><path d="M264.54,637.89c4,90.51,10,158.15,6.61,224.11h.62c3-64.08,3.51-128-2.19-208.34a1079.46,1079.46,0,0,1,8.67-229.4l-1.85-.66C268.48,476.49,260.77,553.33,264.54,637.89Z" style="fill:#8e8e8e"/><path d="M269.58,653.66c5.7,80.29,5.22,144.26,2.19,208.34h.6s10.81-80.75,4.55-151.71-14.07-148.91,3.55-285.21l-2.22-.79A1079.16,1079.16,0,0,0,269.58,653.66Z" style="fill:#afafaf"/><path d="M628.5,543.22c.84-.86,1.74-1.94,2.73-3.18,2.26,1.28,6.39,3.16,7.5.37,1.06-2.61-1.43-4.75-3.11-5.86l2.12-2.54c6.54-7.57,13-11.89,16.6-9.55a4,4,0,0,1,1.85,2.84c-4.29,9.33-16.21,33.58-28.72,42.91-1.15-.79-3.34-2.65-6.24-5.16,2.88-3.47,9.6-11.63,11-14.63C633.44,545.67,630.35,544,628.5,543.22Z" style="fill:#f4cdd4"/><path d="M638.73,540.41c-1.11,2.79-5.24.91-7.5-.37,1.31-1.61,2.76-3.5,4.39-5.49C637.3,535.66,639.79,537.8,638.73,540.41Z" style="fill:#f4cdd4"/><path d="M656.19,525.3c.61,3.34-1.57,9.21-7.35,19.27-7.94,13.89-16.05,26.76-20.89,23.95l-.48-.31C640,558.88,651.9,534.63,656.19,525.3Z" style="fill:#f4cdd4"/><path d="M624.3,545.13c1.17.62,2.54-.21,4.2-1.91,1.85.74,4.94,2.45,3.69,5.2-1.36,3-8.08,11.16-11,14.63-4-3.49-9.26-8.24-14.85-13.33,2.64-4.89,6-10.17,8-13.17C619,540.64,622.61,543.84,624.3,545.13Z" style="fill:#f4cdd4"/><path d="M579.82,505.7c6.67,5.55,23.34,20.85,34.56,30.85-2,3-5.36,8.28-8,13.17-14.88-13.58-31.87-29.45-31.87-29.45s-7.7,5.71-12.09,8.86-4.84-24.65-4.84-24.65S570.44,497.89,579.82,505.7Z" style="fill:#f4cdd4"/><path d="M635,535.37l.65-.82c1.68,1.11,4.17,3.25,3.11,5.86-.7,1.75-2.59,1.65-4.46,1A4.29,4.29,0,0,0,635,535.37Z" style="fill:#f4cdd4"/><path d="M632.19,548.42c1.25-2.75-1.84-4.46-3.69-5.2.84-.86,1.74-1.94,2.73-3.18,2.26,1.28,6.39,3.16,7.5.37,1.06-2.61-1.43-4.75-3.11-5.86.6-.73,1.24-1.5,1.9-2.26,4.34,4.5,9.71-.79,13.4-7.3.88-1.54,1.07-2.53.84-3.15a4.23,4.23,0,0,1,2.58.62,4,4,0,0,1,1.85,2.84c-4.29,9.33-16.21,33.58-28.72,42.91-1.15-.79-3.34-2.65-6.24-5.16C624.11,559.58,630.83,551.42,632.19,548.42Z" style="fill:#e36386"/><path d="M642.11,524.26c.62-1,1.28-2.26,2-3.68,2.47.76,6.92,1.73,7.41-1.23.47-2.77-2.4-4.35-4.29-5.06.5-.95,1-1.93,1.56-2.93C653.57,502.58,659,497,663,498.51a4.08,4.08,0,0,1,2.4,2.38c-2.21,10-8.74,36.26-19,48-1.28-.54-3.82-1.87-7.19-3.73,2.09-4,6.93-13.39,7.62-16.6C647.43,525.61,644.06,524.59,642.11,524.26Z" style="fill:#f4cdd4"/><path d="M651.51,519.35c-.49,3-4.94,2-7.41,1.23.95-1.85,2-4,3.12-6.29C649.11,515,652,516.58,651.51,519.35Z" style="fill:#f4cdd4"/><path d="M665.37,500.89c1.31,3.14.41,9.33-3.11,20.39-4.82,15.25-10,29.53-15.35,27.84-.14-.07-.32-.14-.54-.23C656.63,537.15,663.16,510.92,665.37,500.89Z" style="fill:#f4cdd4"/><path d="M638.4,527c1.26.36,2.42-.75,3.71-2.75,1.95.33,5.32,1.35,4.69,4.3-.69,3.21-5.53,12.62-7.62,16.6-4.63-2.55-10.8-6.09-17.33-9.88,1.54-5.34,3.73-11.21,5-14.54C632.22,523.76,636.48,526.1,638.4,527Z" style="fill:#f4cdd4"/><path d="M586.6,497.86c7.68,4,27.22,15.46,40.28,22.88-1.3,3.33-3.49,9.2-5,14.54-17.4-10.13-37.37-22-37.37-22s-6.33,7.21-10,11.22-9.94-23.07-9.94-23.07S575.76,492.22,586.6,497.86Z" style="fill:#f4cdd4"/><path d="M646.75,515.2c.17-.28.32-.6.47-.91,1.89.71,4.76,2.29,4.29,5.06-.3,1.87-2.19,2.17-4.15,1.95A4.31,4.31,0,0,0,646.75,515.2Z" style="fill:#f4cdd4"/><path d="M646.8,528.56c.63-2.95-2.74-4-4.69-4.3.62-1,1.28-2.26,2-3.68,2.47.76,6.92,1.73,7.41-1.23.47-2.77-2.4-4.35-4.29-5.06l1.38-2.62c5.18,3.5,9.33-2.82,11.56-10,.52-1.7.51-2.7.17-3.27a4.09,4.09,0,0,1,5,2.45c-2.21,10-8.74,36.26-19,48-1.28-.54-3.82-1.87-7.19-3.73C641.27,541.18,646.11,531.77,646.8,528.56Z" style="fill:#e36386"/><path d="M545.6,510.62,565,499.41s10.6,13.14,17.2,34.3c-30.57,23.2-56.71,34.21-74,8.93-2.85-5.87-1.18-9.39-1.18-9.39Z" style="fill:#fa7598"/><path d="M524.94,463.35s8,4.43,15.3-3.85,9.41-19.84,9.41-19.84-5.33-5.34-4.06-7.23,6.74,2,6.74,2-6.25-15.74-2.56-17.09S555,431.09,555,431.09s3.69-13.42,6.57-12.71-1.68,13.54-1.68,13.54,8.7-7.71,10.39-6.22-8.22,9.39-8.22,9.39,10.79-2.42,11.78-.48S564,439,564,439s2.48,9.52-6.66,10.89c-3.81,9.11-11.84,21.66-17.74,23.53s-15.46.4-15.46.4Z" style="fill:#fad8bf"/><g style="opacity:0.30000000000000004;mix-blend-mode:multiply"><path d="M524.94,463.35s8,4.43,15.3-3.85,9.41-19.84,9.41-19.84-4.73-4.73-4.21-6.87c.91,2.76,2.45,5.16,5.56,6.24-.06,6.13-4.18,15.05-9.93,22s-4.8,11.59.87,7.91,13.77-19.27,13.77-19.27a2.09,2.09,0,0,1-.78-2c6.67,1.93,9-6.27,8.09-10.08,5.86-.61,9-1.95,10.58-3.24a.86.86,0,0,1,.25.26c1,2-9.81,4.4-9.81,4.4s2.48,9.52-6.66,10.89c-3.81,9.11-11.84,21.66-17.74,23.53s-15.46.4-15.46.4Z" style="fill:#dfa679"/></g><path d="M523.43,477.2l3.9-16.57s-17.59-3.4-26.61-2.55l-.34,5.11Z" style="fill:#fa7598"/><path d="M488.2,457.6c13.57,5-2.53,41.39-2.53,41.39-14.6-6.92-19.73-8.81-19.73-8.81S477.92,458.89,488.2,457.6Z" style="fill:#fa7598"/><path d="M493.4,465.21c-.55-3.63-2.08-6.45-5.2-7.61l.66-7,11.36,2.74s.25,2.72.63,7.35C500.85,460.73,502.12,470,493.4,465.21Z" style="fill:#e5ba9c"/><path d="M493.4,465.21c8.72,4.75,7.45-4.48,7.45-4.48,11.32,6.52,29.64,19.24,49.64,49L508.1,543.09A155,155,0,0,1,485.67,499S495.21,477.43,493.4,465.21Z" style="fill:#fa7598"/><path d="M487.52,386.35s-14.46-14-34.5-1.91-21.25,40.05-17.13,62.72c2.83,15.46-6,15.85-8.8,13.67,1.86,7.33,7.45,9.76,12.16,7.33-4.95,8.21,3.32,19.93,8,22.08-3.11-4.25,2.5-12.93,2.5-12.93s2.51,19.9,34.81,16.25c-11.32-3.49-12.22-17.9-12.22-17.9s6.61,7.86,10.44,7-.88-4.9-8.15-15S453.72,422.12,487.52,386.35Z" style="fill:#5e3503"/><path d="M468.09,436.65c-3.88.77-10.15-9.75-5.31-12.23s8,3.58,8,3.58.92-14.73,2.16-22.78c3,6.09,6.76,12.87,6.76,12.87s3.17-8.23,3.14-14.49a25.75,25.75,0,0,0,9.5,5.67s-.2-1.91-3.11-6.44c8.25,5.66,22.78,6.46,22.78,6.46s-1.63-5.61-5.74-7.46c2.83-.1,10.8,4.56,14.21,10.19a40.79,40.79,0,0,1-.16,9.33c-.87,8.12.1,9.63,1.43,13s1.27,10.52-14.25,18.06-30.45-.3-34.91-4.55C472.59,447.86,468.87,441.78,468.09,436.65Z" style="fill:#fad8bf"/><path d="M450.69,426.5c-2.53-15.54,1.88-23.78,10.4-27.67,0,0,10.28-20.67,36.8-15.49,16.42,4.91,26.19,13.34,26.83,28.53-2.58-5.86-5.67-7.29-5.67-7.29a11,11,0,0,1,2.63,8.52l-1.2-1.08c-3.41-5.63-11.38-10.29-14.21-10.19,4.11,1.85,5.74,7.46,5.74,7.46s-14.53-.8-22.78-6.46c2.91,4.53,3.11,6.44,3.11,6.44a25.75,25.75,0,0,1-9.5-5.67c0,6.26-3.14,14.49-3.14,14.49s-3.75-6.78-6.76-12.87c-1.24,8-2.16,22.78-2.16,22.78s-3.18-6-8-3.58,1.43,13,5.31,12.23c.78,5.13,4.5,11.21,4.5,11.21C469.84,448.82,453.22,442,450.69,426.5Z" style="fill:#7d4902"/><path d="M464.1,429a1,1,0,0,1,.31-.12.78.78,0,0,1,.37-.08H465l.24,0a1.72,1.72,0,0,1,.51.21,3.38,3.38,0,0,1,.52.35c.16.16.33.29.49.47s.32.36.45.56.29.38.41.6l.39.59c.23.4.45.78.64,1.09a12.59,12.59,0,0,0,.64,1.1,10.27,10.27,0,0,0-.35-1.22,3.79,3.79,0,0,0-.22-.58c-.09-.2-.17-.43-.27-.63s-.23-.42-.36-.65-.3-.43-.43-.64-.34-.39-.5-.59a5.31,5.31,0,0,0-.58-.5,2.7,2.7,0,0,0-.65-.34,2.17,2.17,0,0,0-.64-.14H465l-.25.07a1.57,1.57,0,0,0-.39.17A1,1,0,0,0,464.1,429Z" style="fill:#c48053"/><path d="M466.56,433.41a3.9,3.9,0,0,0,.24-.43c.06-.13.12-.28.2-.44s.12-.32.2-.47a6,6,0,0,1,.39-.87l.1-.15c0-.05.07-.09.09-.13l.09-.1-.13,0a.29.29,0,0,0-.18,0,1.18,1.18,0,0,0-.19.1,1.29,1.29,0,0,0-.4.35,2.73,2.73,0,0,0-.29.53,2.39,2.39,0,0,0-.19,1.06A1.66,1.66,0,0,0,466.56,433.41Z" style="fill:#c48053"/><path d="M515.13,427.78c-.07,1.62.3,3,.84,3s1-1.26,1.09-2.87-.29-3-.83-3S515.21,426.16,515.13,427.78Z" style="fill:#292524"/><path d="M516,426.06c0,.53.26.92.49.9s.41-.44.36-1-.25-.9-.49-.9S515.94,425.55,516,426.06Z" style="fill:#fff"/><path d="M492.07,427.46c-.06,1.62.31,3,.84,3s1-1.27,1.1-2.9-.3-2.94-.83-2.95S492.15,425.85,492.07,427.46Z" style="fill:#292524"/><path d="M492.93,425.74c0,.52.25.91.49.89s.4-.44.36-1-.25-.9-.5-.88S492.88,425.23,492.93,425.74Z" style="fill:#fff"/><path d="M507.05,430.46l.95,1.09c.29.33.61.71.95,1.12a13.89,13.89,0,0,1,1,1.32,1.65,1.65,0,0,1,.28.69s0,.11,0,.11l-.06.21a2.09,2.09,0,0,1-.18.27,4.34,4.34,0,0,1-1.09.87,13.79,13.79,0,0,1-1.24.69,5.49,5.49,0,0,0,1.36-.46,3.72,3.72,0,0,0,1.28-.83,1.8,1.8,0,0,0,.29-.39l.08-.2c0-.13,0-.2,0-.31a2.43,2.43,0,0,0-.34-.89,11.19,11.19,0,0,0-2.13-2.37A13.3,13.3,0,0,0,507.05,430.46Z" style="fill:#c48053"/><path d="M500.8,418.08a10.48,10.48,0,0,0-1.11-2.55,10,10,0,0,0-.79-1.11,5.44,5.44,0,0,0-1.16-1.07,3.61,3.61,0,0,0-1.65-.65l-.46,0a3.55,3.55,0,0,0-.47.06l-.24.05h-.06l-.06,0h0l-.09,0-.39.12c-.26.11-.54.3-.81.44s-.48.34-.7.52a9,9,0,0,0-1.14,1.18,13.46,13.46,0,0,0-1.57,2.41,14.91,14.91,0,0,0-1.05,2.55l.4-.63c.25-.4.65-1,1.11-1.64a22.55,22.55,0,0,1,1.73-2.13,10.83,10.83,0,0,1,1.11-1,6.85,6.85,0,0,1,.61-.45,4.79,4.79,0,0,1,.64-.33l.37-.15.11-.05h0c-.07,0,0,0,0,0h0l.17,0,.34-.05.34,0a5.57,5.57,0,0,1,.66.14,4.43,4.43,0,0,1,.62.3,5.07,5.07,0,0,1,1.09.85,9.35,9.35,0,0,1,.86,1,14.45,14.45,0,0,1,1.15,1.59Z" style="fill:#7d4902"/><path d="M520.69,417.22a1.51,1.51,0,0,0-.07-.38,2.63,2.63,0,0,0-.48-.92,1.6,1.6,0,0,0-.57-.48,1.2,1.2,0,0,0-.42-.17,1.5,1.5,0,0,0-.47,0,2.18,2.18,0,0,0-.9.23,6.93,6.93,0,0,0-.74.52,6.81,6.81,0,0,0-.59.62c-.18.21-.32.45-.48.66a10.47,10.47,0,0,0-.63,1.25,8.49,8.49,0,0,0-.42,1.3,10.81,10.81,0,0,0,.89-1c.25-.31.55-.66.84-1,.16-.18.34-.35.49-.54a5,5,0,0,1,.53-.51,5.25,5.25,0,0,1,.53-.43,1.89,1.89,0,0,1,.56-.2.8.8,0,0,1,.26,0,.47.47,0,0,1,.26,0,1.67,1.67,0,0,1,.49.22,3.27,3.27,0,0,1,.68.63A2.07,2.07,0,0,1,520.69,417.22Z" style="fill:#7d4902"/><path d="M510.35,442.49s-10.45,2.28-17.49-2.59c1.29,6.85,4.39,10.24,7.17,10.36S507.81,443.35,510.35,442.49Z" style="fill:#510012"/><path d="M493.72,443.26a24.88,24.88,0,0,1-.86-3.36c3.93,2.72,8.93,3.21,12.59,3.11C504.29,444.62,500.84,448,493.72,443.26Z" style="fill:#fff"/><path d="M501,450.06a2.31,2.31,0,0,1-1,.2c-2-.09-4.13-1.84-5.66-5.34A8.44,8.44,0,0,1,501,450.06Z" style="fill:#fd7072"/><path d="M500,450.55c-2.52-.12-6-3-7.44-10.61l-.12-.69.57.41a19.69,19.69,0,0,0,10.87,3.06,30,30,0,0,0,6.4-.51l.15.56c-1,.35-2.54,1.83-4.15,3.4-2.23,2.17-4.52,4.41-6.23,4.38Zm3.86-7.24a20.94,20.94,0,0,1-10.6-2.78c1,4.69,3.46,9.29,6.77,9.44l0,.29V450c1.46,0,3.78-2.22,5.81-4.21a38.17,38.17,0,0,1,3-2.74A31.6,31.6,0,0,1,503.87,443.31Z" style="fill:#c48053"/><path d="M495.41,445.13c1.86,3.53,3.73,3.84,4.87,3.58a8.22,8.22,0,0,1,.74,1.35,2.31,2.31,0,0,1-1,.2c-2-.09-4.13-1.84-5.66-5.34A8,8,0,0,1,495.41,445.13Z" style="fill:#d9494d"/><g style="opacity:0.30000000000000004;mix-blend-mode:multiply"><path d="M462.78,424.42c4.82-2.46,8,3.58,8,3.58s.92-14.73,2.16-22.78c3,6.09,6.76,12.87,6.76,12.87s3.17-8.23,3.14-14.49a25.75,25.75,0,0,0,9.5,5.67s-.2-1.91-3.11-6.44c8.25,5.66,22.78,6.46,22.78,6.46s-1.63-5.61-5.74-7.46c2.83-.1,10.8,4.56,14.21,10.19,0,0,0,.19,0,.57a38.51,38.51,0,0,0-8.38-6.79s.69.74.06,4.51c-8.94.87-19.35-3.28-19.35-3.28l.33,3.8s-4.46,1.28-8.94-2.87c-.71,4.57-4.77,13.69-4.77,13.69s-.76.07-2-2.69c-.79,6.94.63,19.94,3.62,28.11s15.3,10.85,29.25,2,11-13.18,9.92-18a12.16,12.16,0,0,1-.21-3.35,17.25,17.25,0,0,0,1.72,6.64c1.34,3.36,1.27,10.52-14.25,18.06s-30.45-.3-34.91-4.55c0,0-3.72-6.08-4.5-11.21C464.21,437.42,457.94,426.9,462.78,424.42Z" style="fill:#dfa679"/></g><path d="M493.4,465.21a12.7,12.7,0,0,0,2.9,1.19A106.29,106.29,0,0,0,500,490.75c4.41,15.18,20.15,29.49,33.61,20.76,11.49-7.48-4.12-27.3-8.85-32.85a183.61,183.61,0,0,1,25.76,31.11L508.1,543.09A155,155,0,0,1,485.67,499S495.21,477.43,493.4,465.21Z" style="fill:#fa7598"/><path d="M477.31,495.23l-3.75,9.83s11.66,4.1,18.74,9.23c3.61-5.35,4.28-6.19,10.26-6.15,6.77.05,8.9,0,11.78,3.5s3.12,5.83,1.18,6.54c2.16,3.53,2.62,7.12-1,6,3,2.86,1.29,4.93-1.34,4.27,1.5,2.72-1.21,4.21-4.36,2.26s-4.81-3.19-7.62-2.54-7.8-.16-9.87-4.3c-14.34-6.47-26.92-11.73-27.67-14.82s4.94-17.65,4.94-17.65Z" style="fill:#fad8bf"/><path d="M507.25,511.37a5.94,5.94,0,0,1,.24.58c.17.34.35.88.61,1.49.13.32.24.66.35,1l.36,1.13c.09.41.2.84.29,1.26a5.31,5.31,0,0,1,.25,1.26c.08.46.14.88.2,1.3a7,7,0,0,1,.12,1.27c0,.41.06.82.08,1.2a4,4,0,0,1,0,1c-.08,1.33-.08,2.24-.08,2.24s.22-.85.48-2.19a4.73,4.73,0,0,0,.12-1.09c0-.39,0-.81,0-1.23a7.2,7.2,0,0,0,0-1.31c-.07-.45-.14-.91-.19-1.35a7.21,7.21,0,0,0-.29-1.32c-.13-.45-.25-.85-.38-1.27a8.73,8.73,0,0,0-.46-1.12,7.15,7.15,0,0,0-.47-1A11.29,11.29,0,0,0,507.25,511.37Z" style="fill:#c48053"/><path d="M515.52,518.18a4.48,4.48,0,0,0-.76-.93,9.23,9.23,0,0,0-1-.8,8.61,8.61,0,0,0-1.21-.73,7.11,7.11,0,0,0-1.28-.54,6.67,6.67,0,0,0-1.19-.28,7.48,7.48,0,0,0-1.2-.13s.44.22,1.08.5a7.75,7.75,0,0,1,1.09.5,8.66,8.66,0,0,1,1.2.57c.42.18.8.44,1.19.61s.72.43,1,.6C515.11,517.91,515.52,518.18,515.52,518.18Z" style="fill:#c48053"/><path d="M513.9,523.53a4.22,4.22,0,0,0-.5-.45,6,6,0,0,0-1.24-.7,7.41,7.41,0,0,0-1.36-.42,3.75,3.75,0,0,0-.68-.08l.52.45a9.81,9.81,0,0,0,1.25.7,8.82,8.82,0,0,0,1.34.42C513.62,523.51,513.9,523.53,513.9,523.53Z" style="fill:#c48053"/><path d="M512.5,528.07a2.54,2.54,0,0,0-.39-.4,4.63,4.63,0,0,0-1-.68,6,6,0,0,0-1.12-.41,2.75,2.75,0,0,0-.55-.05,2.27,2.27,0,0,0,.36.41,4.07,4.07,0,0,0,1,.67,5.23,5.23,0,0,0,1.11.41A2.07,2.07,0,0,0,512.5,528.07Z" style="fill:#c48053"/><g style="opacity:0.30000000000000004;mix-blend-mode:multiply"><path d="M464.14,504.9c.65,2.79,2.7,3.27,6,5.18,6.5,4.36,20.94,8.26,22.19,10.51s3.69,4.39,9.44,4.74,6.54-1.08,6-7.19-1.44-9.85-5.18-10c6.77.05,8.9,0,11.78,3.5s3.12,5.83,1.18,6.54c2.16,3.53,2.62,7.12-1,6,3,2.86,1.29,4.93-1.34,4.27,1.5,2.72-1.21,4.21-4.36,2.26s-4.81-3.19-7.62-2.54-7.8-.16-9.87-4.3c-14.34-6.47-26.92-11.73-27.67-14.82A11.53,11.53,0,0,1,464.14,504.9Z" style="fill:#dfa679"/></g><g style="opacity:0.30000000000000004;mix-blend-mode:multiply"><path d="M474.14,493.84l3.17,1.39-3.57,9.33c-1-.12-2.09-.26-3.25-.48C471.25,502.28,472.86,497.65,474.14,493.84Z" style="fill:#dfa679"/></g><path d="M797.75,767.07c-2.07-8.84-10.31-12.47-18.45-13.89a34.62,34.62,0,0,0-13.41.47,26.16,26.16,0,0,0-1.13-5.34c-2-6.11-7.44-10-13.2-12.23a29.27,29.27,0,0,0-18-1.06,22.63,22.63,0,0,0-6.8,3.11c-.62-4.77-2.36-9.31-6.46-12.3C715,722,709.24,721.32,703,723a23.62,23.62,0,0,0-13.63,9.85A31.69,31.69,0,0,0,687,737a35.86,35.86,0,0,0-8.87-3.31c-7.54-1.87-15,.06-21.41,4.16a33.05,33.05,0,0,0-12.9,15.74,16.15,16.15,0,0,0-.76,2.79l-1.45-.62a35.37,35.37,0,0,0-14.47-2.93A30.31,30.31,0,0,0,608,760.74c-4.12-2-9-2.61-13.5-2.59a21.07,21.07,0,0,0-21.24,15.45c-2.46,8.34,2,16.52,9.83,19.86,6.16,2.62,13.15,1.95,19.54.17a1.08,1.08,0,0,1,.08.19,20.18,20.18,0,0,0,7.75,8.64A21.68,21.68,0,0,0,610,806a19,19,0,0,0,10.31,17.47c7.29,3.79,15.68,4.66,23.75,3.94A33.29,33.29,0,0,0,661.43,821a32.88,32.88,0,0,0,7.31,7.6c7.39,5.55,17.36,6.76,26.33,6.13a52.68,52.68,0,0,0,27.36-10.18A34.15,34.15,0,0,0,733,812.42c.52.25,1,.51,1.59.73,5.8,2.44,12.6,1.67,18.44-.31s11.35-6.49,15.15-11.4a30.39,30.39,0,0,0,4.39-7.66,9.54,9.54,0,0,0,.59-2.58A26.93,26.93,0,0,0,786.11,788C793.73,783.78,799.92,776.24,797.75,767.07Z" style="fill:#fff"/><path d="M788.17,787a22.71,22.71,0,0,1-9.68,2.72c-1.91.23-3.86.34-5.79.4a41.35,41.35,0,0,1-4.47,0,33.49,33.49,0,0,0,5.5,1,9,9,0,0,1-.36,1.37,23,23,0,0,1-3.86,6.5,34.63,34.63,0,0,1-12.78,9.94,30.11,30.11,0,0,1-16,2.38,19.46,19.46,0,0,1-3.39-.82,19.39,19.39,0,0,0,1.25-7.11.36.36,0,0,0,0-.15c-.1,2.79-1.73,5.59-3.12,7.86a26.85,26.85,0,0,1-3.32,4.47,39.68,39.68,0,0,1-8,7,54.81,54.81,0,0,1-25.37,9.06,42.62,42.62,0,0,1-23.39-4,30.37,30.37,0,0,1-8.62-6.69,15.53,15.53,0,0,1-3.24-3.84c-1.73-2.94-2.19-6.17-2.71-9.45A20,20,0,0,0,663.62,819a43.71,43.71,0,0,1-33.15,3.28c-6.32-1.94-11.43-5.47-13.83-11.84a16.12,16.12,0,0,1-1-4.91,9.73,9.73,0,0,1,.72-7.11c1.56-2.92,4-4.38,6.76-5.7-2.71-.1-5,2.11-6.62,4.11a11.17,11.17,0,0,0-1.42,2.29,20.3,20.3,0,0,1-3.35-2.81,19.21,19.21,0,0,1-5.7-7,33.83,33.83,0,0,1-2.37-5.9c-.18-.56-.33-1.14-.47-1.71a32.79,32.79,0,0,0,2.27,10.49,41.58,41.58,0,0,1-14.25.07c-7.28-1.4-13.23-7.36-12.87-15,.41-8.82,8.36-16,16.86-16.7a42,42,0,0,1,13,.92,15.63,15.63,0,0,1,2,.59,25.3,25.3,0,0,0-3.3,4.28c-.29.66-.55,1.31-.8,2a21.42,21.42,0,0,1,7.07-7.22,30.77,30.77,0,0,1,19.62-7.24,35.55,35.55,0,0,1,13.61,3.17,15.19,15.19,0,0,0,.35,5.76,15.26,15.26,0,0,1,2.4-9.36c.31-.68.65-1.35,1-2a34.46,34.46,0,0,1,14.69-13.88,27.73,27.73,0,0,1,21.31-.9,39.57,39.57,0,0,1,3.81,1.48.13.13,0,0,0,0,.05,5.73,5.73,0,0,1,.64.26v0l.11.06c.3.12.6.26.91.41,1.25.6,2.55,1.18,3.75,1.91a15.6,15.6,0,0,0-3.66-3c-.2-.14-.4-.24-.59-.37.63-1.18,1.34-2.33,2-3.39A21.16,21.16,0,0,1,706,725a24.06,24.06,0,0,1,8.1-.76c2.66.23,4.77,1.43,7,2.7,3.79,2.1,6,5.69,7.19,9.66a8.76,8.76,0,0,1,.58,1.51,18.19,18.19,0,0,1,1.28,4,.62.62,0,0,0,.28-.47c0-.69-.06-1.36-.13-2a30.58,30.58,0,0,1,3.85-1.69c5.68-2.12,12-1.72,17.69,0,5.29,1.57,10.59,4.81,13.36,9.69a19,19,0,0,1,2.3,6.54c-2.77.84-5.94,2.34-7.53,4.66a18.16,18.16,0,0,1,12.56-4,38.23,38.23,0,0,1,9.41,1c7.2,1.63,14.12,4.72,16.36,12.4C800.67,776.07,794.64,783.26,788.17,787Z" style="fill:#fff"/><path d="M751.88,776.15c3.42,4.77,3.42,11.59,10.24,13.64-3.41,5.45-12.28,7.51-17.07,4.1-4.11-2.58-5.51-6.7-8-10.32.32,11-5.1,22.86-15.2,26-18.42,6.83-41.63,7.51-56.65-5.45-3.22-3.24-3.33-8.33-2.44-13.38-3.54,4.92-5.46,10.85-4.38,16.79-6.14.68-11.6,2-17.74,1.36-7.51-1.36-18.44-5.46-16.38-15a16.39,16.39,0,0,1,6.61-8.39c-6.54.75-13.62,2.31-16.85,7.7-6.47-5.18-10.48-12.8-9.73-21.72-3.7,4.1-6.33,9.85-4.61,15.58-9.69,2-19.75-3.54-21.09-11.9a13.18,13.18,0,0,0-.23,2c-.36,7.68,5.59,13.64,12.87,15a41.58,41.58,0,0,0,14.25-.07,32.79,32.79,0,0,1-2.27-10.49c.14.57.29,1.15.47,1.71a33.83,33.83,0,0,0,2.37,5.9,19.21,19.21,0,0,0,5.7,7,20.3,20.3,0,0,0,3.35,2.81,11.17,11.17,0,0,1,1.42-2.29c1.57-2,3.91-4.21,6.62-4.11-2.72,1.32-5.2,2.78-6.76,5.7a9.73,9.73,0,0,0-.72,7.11,16.12,16.12,0,0,0,1,4.91c2.4,6.37,7.51,9.9,13.83,11.84A43.71,43.71,0,0,0,663.62,819a20,20,0,0,1-2.79-11.32c.52,3.28,1,6.51,2.71,9.45a15.53,15.53,0,0,0,3.24,3.84,30.37,30.37,0,0,0,8.62,6.69,42.62,42.62,0,0,0,23.39,4,54.81,54.81,0,0,0,25.37-9.06,39.68,39.68,0,0,0,8-7,26.85,26.85,0,0,0,3.32-4.47c1.39-2.27,3-5.07,3.12-7.86a.36.36,0,0,1,0,.15,19.39,19.39,0,0,1-1.25,7.11,19.46,19.46,0,0,0,3.39.82,30.11,30.11,0,0,0,16-2.38A34.63,34.63,0,0,0,769.51,799a23,23,0,0,0,3.86-6.5,9,9,0,0,0,.36-1.37,33.49,33.49,0,0,1-5.5-1,41.35,41.35,0,0,0,4.47,0c1.93-.06,3.88-.17,5.79-.4a22.71,22.71,0,0,0,9.68-2.72c5-2.88,9.78-7.87,10.57-13.67C788,787.24,764.48,790.06,751.88,776.15Z" style="fill:#fff;opacity:0.4"/><path d="M661.42,775.42c1.46,3.31,8,2.59,12.72.33,0-.84.05-1.75.05-2.74,0-4.52.24-13.85.62-24.36a61.57,61.57,0,0,0-12-.11c-.48,7.18-.79,14.06-.77,19.69-1.41.24-2.9.48-4.45.77A17.94,17.94,0,0,1,661.42,775.42Z" style="fill:#f4cdd4"/><path d="M644.56,778.92c2.94.92,10.7,1,10.05-1.87-.44-1.95-2.38-4.93-3.58-6.64a55.29,55.29,0,0,0-5.56,1.73C643.22,775.15,642.32,778.23,644.56,778.92Z" style="fill:#f4cdd4"/><path d="M661.42,775.42a17.94,17.94,0,0,0-3.85-6.42c-2.13.38-4.34.84-6.54,1.41,1.2,1.71,3.14,4.69,3.58,6.64.65,2.86-7.11,2.79-10.05,1.87-2.24-.69-1.34-3.77.91-6.78-7,2.67-12.52,7-12.35,14.7.38,4.54,21.58,3.1,33.43,1.2,5-.87,7.29-2.41,7.59-12.29C669.45,778,662.88,778.73,661.42,775.42Z" style="fill:#e36386"/><path d="M674.81,748.65c.67-18.29,1.74-40.1,2.57-45.82l-9.89-1.35s-3.21,25-4.7,47.06A61.57,61.57,0,0,1,674.81,748.65Z" style="fill:#f4cdd4"/><path d="M676.61,711.56c.27-4,.53-7,.77-8.73l-9.89-1.35s-.4,3.22-1,8.39C669.87,710.33,673.25,710.91,676.61,711.56Z" style="fill:#f4cdd4"/><path d="M633.74,782.41c0-.14.1-.31.15-.46C633.84,782.1,633.79,782.24,633.74,782.41Z" style="fill:#f4cdd4"/><path d="M634.3,781c-.15.29-.28.62-.41.93a5,5,0,0,1,.55-1Z" style="fill:#f4cdd4"/><path d="M633.74,782.41a13,13,0,0,0-.62,4.43c.38,4.54,21.58,3.1,33.43,1.2,3.28-.56,5.36-1.42,6.53-4.67-4.14,2.34-12.33,4.19-25.41,4.52C634.06,788.25,633.17,784.55,633.74,782.41Z" style="fill:#f4cdd4;mix-blend-mode:multiply"/><path d="M734.87,774.4c-1.26,3.39-7.86,3.13-12.7,1.21-.08-.87-.15-1.76-.22-2.74-.28-4.5-1.17-13.8-2.28-24.26a61.78,61.78,0,0,1,12-1c1,7.14,1.75,14,2.11,19.61,1.41.15,2.94.29,4.5.46A17.65,17.65,0,0,0,734.87,774.4Z" style="fill:#f4cdd4"/><path d="M751.91,776.74c-2.88,1.1-10.6,1.73-10.15-1.18.3-2,2-5.1,3.11-6.88a54.48,54.48,0,0,1,5.67,1.35C753,772.89,754.1,775.87,751.91,776.74Z" style="fill:#f4cdd4"/><path d="M734.87,774.4a17.65,17.65,0,0,1,3.39-6.68c2.14.24,4.4.55,6.61,1-1.07,1.78-2.81,4.88-3.11,6.88-.45,2.91,7.27,2.28,10.15,1.18,2.19-.87,1.09-3.85-1.37-6.71,7.13,2.19,13,6.13,13.32,13.82-.08,4.55-21.32,4.55-33.27,3.49-5.07-.53-7.44-1.9-8.42-11.73C727,777.53,733.61,777.79,734.87,774.4Z" style="fill:#e36386"/><path d="M719.67,748.61c-1.92-18.2-4.48-39.89-5.71-45.54l9.78-2s4.9,24.67,7.91,46.6A61.78,61.78,0,0,0,719.67,748.61Z" style="fill:#f4cdd4"/><path d="M715.35,711.7c-.56-3.92-1-7-1.39-8.63l9.78-2s.65,3.2,1.58,8.3C722,710,718.64,710.84,715.35,711.7Z" style="fill:#f4cdd4"/><path d="M763,779.48c-.06-.15-.13-.29-.2-.46C762.83,779.19,762.89,779.33,763,779.48Z" style="fill:#f4cdd4"/><path d="M762.3,778.13a9.27,9.27,0,0,1,.45.89,6.17,6.17,0,0,0-.59-.94Z" style="fill:#f4cdd4"/><path d="M763,779.48a13.52,13.52,0,0,1,.91,4.37c-.08,4.55-21.32,4.55-33.27,3.49-3.31-.34-5.46-1.08-6.82-4.23,4.27,2.07,12.59,3.36,25.67,2.81C763,785.32,763.67,781.57,763,779.48Z" style="fill:#f4cdd4;mix-blend-mode:multiply"/><path d="M697.41,612.81c11.72,1.9,15.24-9.57,13.58-22.21a79.67,79.67,0,0,1-23,0C687.24,597.07,686.93,611.13,697.41,612.81Z" style="fill:#f4d9bf"/><path d="M711.35,597.57a40.58,40.58,0,0,0-.36-7,79.67,79.67,0,0,1-23,0,47.31,47.31,0,0,0-.23,7.6C692.88,599.52,700.92,600.36,711.35,597.57Z" style="fill:#efcaa6"/><path d="M718.16,593.22s44.27,4.06,68,8.08c3.86-5.24,6.83-11.21,9.3-10.87s-1.36,5.15-1.49,8.05c11.3-5.33,14.94-5.84,15.31-4.47s-10.43,6.3-10.43,6.3,14.67-.24,15.46,2.72-14.11,2.07-14.11,2.07,12.3,2.81,12.4,5.53-13.51-.85-13.51-.85,9.19,6.28,8,8.28-11.52-4.84-11.52-4.84S788.7,615,786,609.64c-22.93-1.95-65.09-2.74-65.09-2.74Z" style="fill:#f4d9bf"/><path d="M794,597.6a4.69,4.69,0,0,1,.54,1.37,6.08,6.08,0,0,1,.16,1.49,6.65,6.65,0,0,1-.21,1.73,5.78,5.78,0,0,1-.74,1.61,4.06,4.06,0,0,1-1,1.13,2.91,2.91,0,0,1-1,.53l-.4.14.23-.34c.07-.12.15-.21.25-.36a5.58,5.58,0,0,1,.29-.48c.09-.16.18-.36.29-.55s.19-.43.29-.63.14-.48.24-.69a5.46,5.46,0,0,0,.21-.72,22.94,22.94,0,0,0,.59-2.84C793.89,598.17,794,597.6,794,597.6Z" style="fill:#c39368"/><path d="M683.25,591.63s-44.46,0-68.45,1.83c-3.37-5.55-5.79-11.78-8.28-11.66s.89,5.24.75,8.17c-10.77-6.37-14.33-7.21-14.84-5.89s9.82,7.24,9.82,7.24-14.59-1.59-15.63,1.3S600.46,596,600.46,596s-12.49,1.68-12.83,4.38,13.51.4,13.51.4-9.72,5.41-8.69,7.51,11.91-3.75,11.91-3.75,6.66,2.33,9.81-2.72c23,.17,65.09,3.22,65.09,3.22Z" style="fill:#f4d9bf"/><path d="M607.32,589.06a4.53,4.53,0,0,0-.65,1.32,6.1,6.1,0,0,0-.31,1.47,6.39,6.39,0,0,0,.07,1.73,5.55,5.55,0,0,0,.57,1.68,3.94,3.94,0,0,0,1,1.23,2.77,2.77,0,0,0,.89.62l.36.15-.18-.34c-.06-.12-.15-.24-.23-.38s-.15-.34-.22-.51a3.38,3.38,0,0,1-.25-.58c-.08-.21-.14-.43-.23-.64s-.11-.49-.19-.73a7.43,7.43,0,0,1-.15-.74,22.79,22.79,0,0,1-.31-2.86C607.38,589.66,607.32,589.06,607.32,589.06Z" style="fill:#c39368"/><path d="M718.34,589.16A64.09,64.09,0,0,1,711,590.6c1.66,12.64-1.86,24.11-13.58,22.21-10.48-1.68-10.17-15.74-9.47-22.21a55.8,55.8,0,0,1-6.16-1.28s-25.43,82.76-27.15,110.22c0,0,41.87,12.28,81.08,3.24C735.71,702.78,726.9,609.42,718.34,589.16Z" style="fill:#fa7598"/><path d="M671.43,558.36s-6.71-.09-5.89,8c.74,5.07,5.12,6.16,8,5.56C672.52,568.36,672.42,561.18,671.43,558.36Z" style="fill:#f4d9bf"/><path d="M728.38,560.26s-.11,6.94-1.75,11.48c4.38.41,10.34-2.5,9.9-8.46S731,557.1,728.38,560.26Z" style="fill:#f4d9bf"/><path d="M675.27,509.73a3,3,0,0,1,1-.06,4.16,4.16,0,0,1,1,.16,4.53,4.53,0,0,1,1,.46,4.58,4.58,0,0,1,.91.72,3.8,3.8,0,0,1,.58.83,3.13,3.13,0,0,1,.25.95l-.21-.18a4.16,4.16,0,0,0-.47-.46l-.33-.26a3.76,3.76,0,0,0-.36-.28c-.12-.1-.27-.18-.4-.28s-.29-.16-.43-.26c-.58-.34-1.21-.65-1.68-.9S675.27,509.73,675.27,509.73Z" style="fill:#c39368"/><path d="M758.62,507s-.26.26-.64.57-.87.7-1.31,1.11a10.81,10.81,0,0,0-1.17,1.19c-.15.18-.28.35-.36.46l-.17.2a3.11,3.11,0,0,1,0-.9,3,3,0,0,1,.36-.84,4.59,4.59,0,0,1,.67-.8,4.71,4.71,0,0,1,.87-.58,3.39,3.39,0,0,1,.83-.31A2.87,2.87,0,0,1,758.62,507Z" style="fill:#c39368"/><ellipse cx="700.96" cy="560.56" rx="29.67" ry="36.59" style="fill:#f4d9bf"/><path d="M711.17,563.16c-.08,2,.76,3.6,1.89,3.62s2.11-1.54,2.19-3.52-.76-3.58-1.88-3.61S711.25,561.2,711.17,563.16Z" style="fill:#673121"/><path d="M713.57,561.73c0,.6.35,1.08.7,1s.57-.5.55-1.09-.37-1.06-.71-1.06S713.53,561.14,713.57,561.73Z" style="fill:#fff"/><path d="M692.42,563.16c.08,2-.76,3.6-1.89,3.62s-2.11-1.54-2.2-3.52.76-3.58,1.89-3.61S692.33,561.2,692.42,563.16Z" style="fill:#673121"/><path d="M690,561.73c0,.6-.35,1.08-.7,1s-.58-.5-.56-1.09.37-1.06.71-1.06S690.06,561.14,690,561.73Z" style="fill:#fff"/><path d="M693.37,579.18a109.6,109.6,0,0,0,16.23.21,8.06,8.06,0,0,1-8.93,8.58C695.31,587.67,693.15,582.38,693.37,579.18Z" style="fill:#96172d"/><path d="M699.24,587.75a6.57,6.57,0,0,0,1.43.22,8.84,8.84,0,0,0,4.93-1.06C703.22,585.08,700.52,586.72,699.24,587.75Z" style="fill:#ed776f"/><path d="M700.13,583.53a13.79,13.79,0,0,0,9.4-2.71,11.23,11.23,0,0,0,.07-1.43,108.09,108.09,0,0,1-14.62-.08C695.22,580.83,696.21,583.34,700.13,583.53Z" style="fill:#fff"/><path d="M691.28,578.61s.32.06.89.13q.44.07,1,.12l1.33.15,1.56.13c.56,0,1.15.06,1.76.09s1.24.07,1.87.09l1.94,0c.65,0,1.3,0,1.94,0l1.88,0,1.76,0c.56,0,1.08-.05,1.58-.07,1-.06,1.78-.07,2.36-.09l.89,0-.88.13-2.35.29c-.49,0-1,.12-1.58.17l-1.76.08-1.9.09c-.64,0-1.29,0-2,0l-1.95,0-1.88-.14c-.61,0-1.21-.1-1.77-.19l-1.57-.21c-.48-.07-.92-.16-1.31-.24l-1-.23A7.7,7.7,0,0,1,691.28,578.61Z" style="fill:#c39368"/><path d="M685.78,557.88c.49-1.23,2.83-1.68,4.52-1.35a8,8,0,0,1,4.7,3c.08.15,0,.26-.23.29a.23.23,0,0,1-.27.1,19.79,19.79,0,0,0-4.7-1.3,4.51,4.51,0,0,0-2.71.78,1.54,1.54,0,0,1-1.43.34.68.68,0,0,1-.57-.68A1.68,1.68,0,0,1,685.78,557.88Z" style="fill:#873300"/><path d="M718.07,557.88c-.5-1.23-2.84-1.68-4.53-1.35a7.92,7.92,0,0,0-4.69,3c-.09.15,0,.26.22.29a.23.23,0,0,0,.27.1,19.79,19.79,0,0,1,4.7-1.3,4.47,4.47,0,0,1,2.71.78,1.56,1.56,0,0,0,1.44.34.69.69,0,0,0,.57-.68A1.76,1.76,0,0,0,718.07,557.88Z" style="fill:#873300"/><circle cx="680.19" cy="568.47" r="2.97" style="fill:#f9cbc0"/><circle cx="721.72" cy="568.47" r="2.97" style="fill:#f9cbc0"/><path d="M681.18,539.8c-3,5.75-2.93,13.91-2.93,13.91l11.91.87s1.06-9.33,4.87-12.81c-3.51,7.8-2.34,12.6-2.34,12.6l17.57,1.29a31.11,31.11,0,0,0,2.56-11.91c2.38,6-.22,12.81-.22,12.81l13-1a28.64,28.64,0,0,0,1.06-11.8c2,8.21.87,10.78.87,10.78l1.54-.4s-.35,24.64-10.32,39.06c6,1.78,24.15-16.31,25.64-40.21S731,505.17,712.67,512.33c-6.28-9.53-25.86-8.92-38.81,6.22,0,0-19.86,19.57-14.5,53.52,4.63,19.94,16.38,22.22,22.37,20.74,0,0-10.14-4.84-8.46-19.39s2-19.78,2-19.78A132.6,132.6,0,0,1,681.18,539.8Z" style="fill:#9b552b"/><path d="M556.34,277.82c-4.86-20.68-24.14-29.18-43.19-32.51a81.15,81.15,0,0,0-31.39,1.13,60.05,60.05,0,0,0-2.64-12.54c-4.7-14.28-17.4-23.39-30.9-28.6A68.54,68.54,0,0,0,406,202.81a53.5,53.5,0,0,0-15.9,7.27c-1.48-11.15-5.52-21.77-15.13-28.77-12.32-9-25.77-10.57-40.31-6.64-13.52,3.67-24,11.52-31.91,23.05a77.6,77.6,0,0,0-5.59,9.65,86.31,86.31,0,0,0-20.78-7.74c-17.64-4.37-35.06.15-50.1,9.75-13.35,8.55-24.65,22-30.2,36.86a37.82,37.82,0,0,0-1.77,6.51c-1.13-.52-2.25-1-3.39-1.48-10.87-4.42-22.1-7.2-33.88-6.82A70.77,70.77,0,0,0,112.23,263c-9.65-4.79-21-6.07-31.6-6.07-12.32,0-22.93,2.93-32.7,10.56a50.53,50.53,0,0,0-17,25.62c-5.75,19.49,4.7,38.68,23,46.48,14.41,6.14,30.79,4.57,45.74.39a2.25,2.25,0,0,1,.19.45A47.49,47.49,0,0,0,118,360.67a48.89,48.89,0,0,0-1.07,8.16c-.93,17,9.23,33.11,24.1,40.87,17.06,8.86,36.68,10.91,55.6,9.25,14.42-1.25,29.14-5.93,40.67-14.83a76.36,76.36,0,0,0,17.09,17.81c17.31,13,40.65,15.8,61.64,14.33a123.26,123.26,0,0,0,64-23.79c10.07-7.54,19.41-17.17,24.82-28.51,1.2.61,2.42,1.19,3.7,1.73,13.6,5.69,29.51,3.88,43.16-.73,13.92-4.69,26.58-15.19,35.48-26.7a72.26,72.26,0,0,0,10.27-17.93,21.78,21.78,0,0,0,1.37-6,63.14,63.14,0,0,0,30.23-7.44C546.92,317,561.39,299.28,556.34,277.82Z" style="fill:#fff"/><path d="M533.91,324.37a52.28,52.28,0,0,1-22.67,6.39c-4.47.56-9,.81-13.56,1a103.32,103.32,0,0,1-10.46.08,77.85,77.85,0,0,0,12.9,2.25,21.28,21.28,0,0,1-.85,3.2c-1.94,5.58-5.42,10.62-9,15.22a80.77,80.77,0,0,1-29.91,23.29,70.29,70.29,0,0,1-37.44,5.55A44.23,44.23,0,0,1,415,379.4a46,46,0,0,0,2.93-16.62.91.91,0,0,0-.07-.35c-.23,6.5-4.05,13.07-7.3,18.39a65.74,65.74,0,0,1-7.76,10.44,94.68,94.68,0,0,1-18.65,16.39c-17.38,11.92-38.5,19.1-59.38,21.17-18.62,1.84-38-.81-54.75-9.31a71.17,71.17,0,0,1-20.18-15.65,36.36,36.36,0,0,1-7.58-9c-4.07-6.9-5.12-14.47-6.33-22.14-.73,9.22,1.92,18.3,6.53,26.5a102.18,102.18,0,0,1-77.6,7.67c-14.78-4.51-26.76-12.8-32.36-27.71a36.56,36.56,0,0,1-2.28-11.47,22.79,22.79,0,0,1,1.66-16.64c3.66-6.84,9.44-10.26,15.83-13.35-6.34-.23-11.84,4.95-15.51,9.61a28.18,28.18,0,0,0-3.32,5.37,48.62,48.62,0,0,1-7.83-6.57c-5.82-4.1-10-10.15-13.35-16.46a80.1,80.1,0,0,1-5.55-13.77c-.39-1.34-.76-2.67-1.08-4a77.12,77.12,0,0,0,5.3,24.55c-11,1.77-22.35,2.27-33.32.17-17.06-3.26-31-17.2-30.15-35.19,1-20.63,19.59-37.42,39.46-39.08a98.44,98.44,0,0,1,30.52,2.13,42.24,42.24,0,0,1,4.66,1.39,60.18,60.18,0,0,0-7.73,10q-1,2.31-1.87,4.67a49.89,49.89,0,0,1,16.57-16.93c12.4-11,29.9-16.83,45.9-17,10.78-.07,22,3.26,31.86,7.41a35.1,35.1,0,0,0,.81,13.51,35.63,35.63,0,0,1,5.62-21.89c.73-1.63,1.52-3.19,2.33-4.64a80.33,80.33,0,0,1,34.39-32.5c15.73-7.7,33.46-7.7,49.85-2.12,3.07,1.05,6,2.15,8.91,3.46a.52.52,0,0,0-.07.12c.5.18,1,.38,1.51.58h0c.1,0,.17.09.26.12.7.3,1.42.62,2.13,1,2.91,1.39,6,2.78,8.78,4.48a36.54,36.54,0,0,0-8.59-7.08c-.45-.29-.92-.55-1.37-.84,1.5-2.77,3.13-5.46,4.79-8a49.74,49.74,0,0,1,30.09-21,57.13,57.13,0,0,1,18.95-1.78c6.21.55,11.17,3.36,16.47,6.31,8.84,4.92,14,13.35,16.81,22.63a21.23,21.23,0,0,1,1.38,3.53,43.93,43.93,0,0,1,3,9.48,1.41,1.41,0,0,0,.64-1.11c-.06-1.59-.15-3.17-.29-4.76a79.11,79.11,0,0,1,9-4c13.29-4.94,28-4,41.39-.06,12.38,3.67,24.77,11.26,31.27,22.71a45.05,45.05,0,0,1,5.38,15.26c-6.49,2-13.91,5.52-17.6,10.92A42.39,42.39,0,0,1,497.44,249a88.76,88.76,0,0,1,22,2.3c16.84,3.82,33,11.06,38.28,29C563.15,298.89,549.05,315.73,533.91,324.37Z" style="fill:#fff"/><path d="M449,299.05c8,11.18,8,27.15,24,31.95-8,12.77-28.76,17.56-39.94,9.59-9.63-6-12.91-15.68-18.73-24.16.75,25.64-11.95,53.51-35.58,60.9-43.13,16-97.43,17.57-132.57-12.79-7.55-7.54-7.83-19.46-5.74-31.31-8.29,11.52-12.77,25.4-10.24,39.3-14.39,1.6-27.16,4.8-41.53,3.2-17.58-3.2-43.14-12.77-38.34-35.14,2.87-8.61,8.6-14.92,15.48-19.63-15.3,1.75-31.88,5.39-39.44,18-15.14-12.12-24.53-30-22.74-50.84-8.68,9.62-14.83,23-10.81,36.47-22.67,4.77-46.22-8.29-49.37-27.86a36.33,36.33,0,0,0-.54,4.66C42,319.41,56,333.35,73,336.61c11,2.1,22.28,1.6,33.32-.17a77.12,77.12,0,0,1-5.3-24.55c.32,1.36.69,2.69,1.08,4a80.1,80.1,0,0,0,5.55,13.77C111,336,115.19,342.05,121,346.15a48.62,48.62,0,0,0,7.83,6.57,28.18,28.18,0,0,1,3.32-5.37c3.67-4.66,9.17-9.84,15.51-9.61-6.39,3.09-12.17,6.51-15.83,13.35a22.79,22.79,0,0,0-1.66,16.64,36.56,36.56,0,0,0,2.28,11.47c5.6,14.91,17.58,23.2,32.36,27.71a102.18,102.18,0,0,0,77.6-7.67c-4.61-8.2-7.26-17.28-6.53-26.5,1.21,7.67,2.26,15.24,6.33,22.14a36.36,36.36,0,0,0,7.58,9A71.17,71.17,0,0,0,270,419.51c16.73,8.5,36.13,11.15,54.75,9.31,20.88-2.07,42-9.25,59.38-21.17a94.68,94.68,0,0,0,18.65-16.39,65.74,65.74,0,0,0,7.76-10.44c3.25-5.32,7.07-11.89,7.3-18.39a.91.91,0,0,1,.07.35A46,46,0,0,1,415,379.4a44.23,44.23,0,0,0,7.93,1.91,70.29,70.29,0,0,0,37.44-5.55,80.77,80.77,0,0,0,29.91-23.29c3.61-4.6,7.09-9.64,9-15.22a21.28,21.28,0,0,0,.85-3.2,77.85,77.85,0,0,1-12.9-2.25,103.32,103.32,0,0,0,10.46-.08c4.54-.15,9.09-.4,13.56-1a52.28,52.28,0,0,0,22.67-6.39c11.77-6.7,22.88-18.37,24.74-32C533.55,325,478.46,331.64,449,299.05Z" style="fill:#fff"/><path d="M377.06,174.35h-.33c-4.94-.59-46.41-3.54-48.69-3.57,0,0-4.38-.12-10.65.35,3.83,13.15-5.19,16.22-9.46,16.91l-.49,6.86,78.18,5.67-1-8.55C377.52,188.75,376.6,180.54,377.06,174.35Z" style="fill:#fa7598"/><path d="M377,176.09c0-.59,0-1.18.06-1.74h-.33c-4.94-.59-46.41-3.54-48.69-3.57,0,0-4.38-.12-10.65.35,0,.15.05.27.09.42C337.32,173.05,357.16,174.62,377,176.09Z" style="fill:#fa7598"/><path d="M318.26,177.91a9.19,9.19,0,0,1-.21,1.62c20,1.55,39.92,3.1,59.9,4.53a16.34,16.34,0,0,1-.54-2.14C357.7,180.52,338,179.29,318.26,177.91Z" style="fill:#fa7598"/><path d="M382.35,190.67q-34.29-2.55-68.6-4.79a13.88,13.88,0,0,1-2.72,1.37q36.78,2.76,73.63,5.43l-.08-.66A10.93,10.93,0,0,1,382.35,190.67Z" style="fill:#fa7598"/><g style="mix-blend-mode:multiply"><path d="M333.07,210.55c5.46-.84,9.48-4.92,3.27-5.14s-9.59,3.64-10.4,3.39c-.49-.17-11.17-7.79-19.85-14L290,193.69c10.62,7.72,29.94,21.11,29.94,21.11a6.49,6.49,0,0,0,.42,5.61s-1.48,14.62,1.25,14.2,1.88-14.38,2.94-11.82,5.44,13.47,7.29,10.91-5.68-16-2-12.61,9.45,9.83,10.9,7-11.63-11.2-5.93-9.75,14.3,2.9,10.68-1.31S327.61,211.41,333.07,210.55Z" style="fill:#c6c6c6"/></g><path d="M340.05,168.16s-5.06,18.48,4.13,20.39,13.9-14.32,13.81-19.09Z" style="fill:#efcaa6"/><path d="M317.39,171.13c-7,.52-16.44,1.77-24.82,4.77-15.9,5.67-14.3,9.53-11,12.68S318,214.65,318,214.65a6.45,6.45,0,0,0,.42,5.63s-1.48,14.6,1.24,14.18,1.88-14.37,2.93-11.79,5.44,13.44,7.29,10.88-5.69-16-2-12.58,9.44,9.81,10.89,7-11.62-11.21-5.92-9.76,14.3,2.9,10.66-1.3-17.84-5.63-12.38-6.49,9.48-4.92,3.27-5.16-9.59,3.66-10.4,3.39-31-21.95-31-21.95,10.24-3.81,15.28-4.69l-.43,6C312.2,187.35,321.22,184.28,317.39,171.13Z" style="fill:#efcaa6"/><path d="M315.74,180.05a7.58,7.58,0,0,1-1.08.57,14.82,14.82,0,0,1-2.48.86,19.19,19.19,0,0,1-2.61.49,9.7,9.7,0,0,1-1.21.05,10.16,10.16,0,0,1,1.09-.57,19.13,19.13,0,0,1,2.48-.86,15.61,15.61,0,0,1,2.61-.47C315.26,180.05,315.74,180.05,315.74,180.05Z" style="fill:#c39368"/><path d="M476.4,115.24c.75-1.82,9.56-11.75,7.62-13.57s-8.38,9.76-9.95,8.63,3.14-17.82-1.13-15.85-3.05,16-5,14.5-2.21-18.14-5.52-15.48,3.26,17.86.21,17-7.19-3-10.47-1.38,8,3.49,8.86,6.44.53,4.2.53,4.2-14.53,23-35.27,36c-20.33,12.76-43.67,18.9-49.23,18.61-.46,6.19.46,14.4,7.52,17.67l-1.05-8.68s46.85.08,87.55-63.53a3.37,3.37,0,0,0,3.6-1s12.47-.34,12.66-2.82S475.64,117,476.4,115.24Z" style="fill:#efcaa6"/><path d="M382.35,176.83s.22.47.49,1.23a21.35,21.35,0,0,1,.65,2.78,18.7,18.7,0,0,1,.28,2.85,9.81,9.81,0,0,1,0,1.32,9.91,9.91,0,0,1-.48-1.25,20.87,20.87,0,0,1-.69-2.78,23.13,23.13,0,0,1-.26-2.85C382.3,177.35,382.35,176.83,382.35,176.83Z" style="fill:#c39368"/><path d="M309.29,121.18s-8.9-.12-7.81,10.62c1,6.73,6.8,8.17,10.64,7.38C310.74,134.47,310.6,124.92,309.29,121.18Z" style="fill:#f4d9bf"/><ellipse cx="348.5" cy="124.11" rx="39.39" ry="48.58" style="fill:#f4d9bf"/><path d="M362.06,127.56c-.1,2.63,1,4.78,2.51,4.8s2.8-2,2.91-4.67-1-4.75-2.5-4.79S362.17,125,362.06,127.56Z" style="fill:#673121"/><path d="M365.25,125.66c.05.8.46,1.43.93,1.38s.76-.67.73-1.45-.49-1.41-.94-1.41S365.2,124.87,365.25,125.66Z" style="fill:#fff"/><path d="M337.16,127.56c.11,2.63-1,4.78-2.51,4.8s-2.8-2-2.91-4.67,1-4.75,2.5-4.79S337.05,125,337.16,127.56Z" style="fill:#673121"/><path d="M334,125.66c-.05.8-.46,1.43-.92,1.38s-.77-.67-.74-1.45.49-1.41.94-1.41S334,124.87,334,125.66Z" style="fill:#fff"/><path d="M336.4,152.88a145.81,145.81,0,0,0,21.56.27c.23,6.72-4.71,11.82-11.86,11.4S336.12,157.12,336.4,152.88Z" style="fill:#96172d"/><path d="M344.19,164.25a9,9,0,0,0,1.91.3,11.75,11.75,0,0,0,6.54-1.42C349.48,160.7,345.9,162.89,344.19,164.25Z" style="fill:#ed776f"/><path d="M345.38,158.64a18.22,18.22,0,0,0,12.48-3.59,13.29,13.29,0,0,0,.1-1.9,141.61,141.61,0,0,1-19.42-.1C338.87,155.07,340.17,158.4,345.38,158.64Z" style="fill:#fff"/><path d="M333.63,152.12s.43.08,1.18.17a13.25,13.25,0,0,0,1.35.16l1.77.2,2.07.16c.75.07,1.54.09,2.34.13s1.64.09,2.48.12l2.58,0c.87,0,1.73.06,2.58,0l2.49,0,2.33,0c.75,0,1.45-.06,2.1-.09,1.29-.08,2.38-.09,3.13-.11l1.2,0-1.18.17c-.76.09-1.83.24-3.12.38-.65.07-1.35.16-2.09.22l-2.35.12-2.51.11c-.85,0-1.71,0-2.59,0l-2.59-.06-2.5-.2c-.82,0-1.6-.13-2.35-.24l-2.08-.28c-.64-.09-1.22-.22-1.75-.33s-1-.2-1.34-.29C334.05,152.26,333.63,152.12,333.63,152.12Z" style="fill:#c39368"/><path d="M328.35,120.55c.65-1.64,3.76-2.23,6-1.8a10.59,10.59,0,0,1,6.24,3.94c.11.2-.06.34-.3.38a.3.3,0,0,1-.36.13,25.94,25.94,0,0,0-6.24-1.72,5.87,5.87,0,0,0-3.6,1,2.07,2.07,0,0,1-1.91.44.9.9,0,0,1-.75-.91A2.18,2.18,0,0,1,328.35,120.55Z" style="fill:#873300"/><path d="M371.22,120.55c-.66-1.64-3.76-2.23-6-1.8a10.56,10.56,0,0,0-6.23,3.94c-.12.2.06.34.29.38a.31.31,0,0,0,.36.13,25.94,25.94,0,0,1,6.24-1.72,5.87,5.87,0,0,1,3.6,1,2.07,2.07,0,0,0,1.91.44.92.92,0,0,0,.76-.91A2.25,2.25,0,0,0,371.22,120.55Z" style="fill:#873300"/><circle cx="320.93" cy="134.61" r="3.94" style="fill:#f9cbc0"/><circle cx="376.08" cy="134.61" r="3.94" style="fill:#f9cbc0"/><path d="M322.24,96.53c-4,7.64-3.89,18.48-3.89,18.48l15.82,1.16s1.4-12.39,6.45-17c-4.65,10.35-3.09,16.72-3.09,16.72l23.32,1.71a41.2,41.2,0,0,0,3.41-15.81c3.15,8-.29,17-.29,17l17.26-1.33s2.31-6.13,1.41-15.68c2.68,10.91,1.17,14.32,1.17,14.32l2-.53s-.46,32.72-13.7,51.87c8,2.36,32.07-21.67,34.05-53.4s-17.83-63.48-42.13-54c-8.34-12.65-34.34-11.85-51.54,8.25,0,0-26.37,26-19.25,71.07,6.14,26.49,21.74,29.51,29.7,27.55,0,0-13.46-6.43-11.23-25.75s2.62-26.26,2.62-26.26A175.88,175.88,0,0,1,322.24,96.53Z" style="fill:#ca8342"/><path d="M822.24,320.93a33,33,0,0,0-8.92-.83l.29-.78c1.57-4.65,2.17-10.61.59-15.3a40.75,40.75,0,0,0-7.35-13.41c-6.22-7.27-15.63-11.31-25-12.59a48.85,48.85,0,0,0-14.68.5,47.73,47.73,0,0,0-1.45-11.1c-2.43-9.61-10-18-18-23.56-8.39-5.9-18.68-6.77-28.45-4.64-1,.23-2,.52-3.05.84-3.52-7.95-12.54-12.6-20.79-14.29a34.91,34.91,0,0,0-30.44,8.49,40.45,40.45,0,0,0-9.42,12.64c-2.57,5.06-3,11-2.82,16.58a24.55,24.55,0,0,0,4,12.42,16.46,16.46,0,0,0-3.27,2.23,22.2,22.2,0,0,0-6.84,10.56,32.69,32.69,0,0,0-3.92-1.43,45.29,45.29,0,0,0-15.55-1.59c-5.08.29-10.06,2.24-14.59,4.53-9.19,4.63-18,10-22.74,19.61a29.07,29.07,0,0,0-2.54,8.15c-.86-.24-1.73-.46-2.59-.62a34.28,34.28,0,0,0-19.65,1.72c-11.27,4.49-18.62,17.13-19.26,28.94-.73,13.67,9.19,25.67,22,29,6.52,1.71,13.88.92,20.2-1.29a52.26,52.26,0,0,0,11.61-5.49,37.3,37.3,0,0,0,6.67,6.94c8.09,6.47,18.53,9.38,28.7,10.22a39.57,39.57,0,0,0,14.2-1.4c2.35-.64,4.72-1,7.06-1.77a61.27,61.27,0,0,0,7.14-3.05,45,45,0,0,0,10.9-7.05,42.15,42.15,0,0,0,3.82,3.26,43.31,43.31,0,0,0,25.32,8.78,64.81,64.81,0,0,0,27.52-5.95,51.71,51.71,0,0,0,16.3-12.1,64,64,0,0,0,26.44,11.22,81.08,81.08,0,0,0,22,1.48,60.75,60.75,0,0,0,20.76-5.31c11.07-5.07,23.13-14.75,24.89-27.5S834.54,323.91,822.24,320.93Z" style="fill:#fff"/><path d="M835.6,354.35c-2.83,5.88-8.83,10.4-14.15,13.95-12.3,8.19-27.78,9.82-42.11,7.84a76.75,76.75,0,0,1-22.52-6.47,53,53,0,0,1-7.13-4.07c.62-.72,1.22-1.46,1.8-2.2-.77.66-1.6,1.27-2.36,1.82-3,2.16-6.07,4.31-9.19,6.26l-1.12.7a53.57,53.57,0,0,1-7.16,4.25,61.07,61.07,0,0,1-12.14,4.16,67.85,67.85,0,0,1-13.42,2.2,44,44,0,0,1-11.3-1.07,40.47,40.47,0,0,1-15-5.06,27.69,27.69,0,0,1-7.53-6.22c-1.36-1.7-2.41-4-4.16-5.42a32.67,32.67,0,0,0,1.48,3,27.36,27.36,0,0,0,3.45,4.67c-3.29,2.5-7.37,4.24-11.09,5.92-8.37,3.71-17.67,6-26.85,5.3a61.89,61.89,0,0,1-27-8.64,32.08,32.08,0,0,1-7.1-5.79l0,0a35.34,35.34,0,0,1-6.07-8,38.63,38.63,0,0,0,3.8,7.34,72.29,72.29,0,0,1-10.14,3.9,36.43,36.43,0,0,1-18.95,1c-12-2.75-20-13.34-20.71-25.46-.67-11.32,6.37-23.34,16.62-28a32.68,32.68,0,0,1,19.16-2.08,26.33,26.33,0,0,1,2.65.61,32.39,32.39,0,0,0-.28,3.81,22.77,22.77,0,0,0,.5,4,36.77,36.77,0,0,0,1.85,5.22A32.64,32.64,0,0,1,590.72,317a21,21,0,0,1,1-2.44A37.89,37.89,0,0,1,593.2,311c4.24-8.59,12.44-13.18,20.41-17.66a41.05,41.05,0,0,1,27.81-4.51,33.33,33.33,0,0,1,5,1.39,16,16,0,0,0,2.34,11.9c-1.54-5.17-1.31-11,1.37-15.5a26.68,26.68,0,0,1,5.85-7.76,12.61,12.61,0,0,1,1.92-1.43,1.1,1.1,0,0,0,.09.14.18.18,0,0,1,.09-.06c.47-.28.95-.53,1.44-.78,0,0,0-.09-.08-.14a38.69,38.69,0,0,1,8.82-2.59,22.88,22.88,0,0,1,6.49-.55,13.69,13.69,0,0,1,1.45.23h.43a15,15,0,0,0-4.82-.8,50.44,50.44,0,0,0-7.17.53,30.49,30.49,0,0,0-6.07,1.69A28.17,28.17,0,0,1,655.31,263c-.25-5.19.21-10.58,2.46-15.3a39,39,0,0,1,9-12.15,34.83,34.83,0,0,1,27.66-9c8.37.94,17.85,5.73,21.64,13.56a41.39,41.39,0,0,0-7.57,3.37,23,23,0,0,0-4.3,3.76,30.53,30.53,0,0,1,21-6.62,34.72,34.72,0,0,1,22.06,6.53c7.21,5.26,14.1,12.38,17.07,20.89a34.55,34.55,0,0,1,1.7,7.76,37.34,37.34,0,0,1,.58,8.41c0,.72,0,1.44-.07,2.14a47.19,47.19,0,0,0,.59-6.81l.61-.08a46.61,46.61,0,0,1,13.65.38c8.66,1.51,17.35,5.82,23.17,12.5,2.86,3.27,4.68,7.22,6.34,11.2,1.95,4.67,1.71,10.05.41,14.9-.17.61-.35,1.2-.56,1.8h-.13a39.06,39.06,0,0,0-6.76,1.5,3.86,3.86,0,0,0-2.32,1.31l.18,0A1,1,0,0,1,802,323c1.72-1.28,4.47-1.34,6.45-1.43a38.71,38.71,0,0,1,4.31-.06s0,0,0,0a31.35,31.35,0,0,1,8.44,1.54,24.1,24.1,0,0,1,14.81,13.18A21.9,21.9,0,0,1,835.6,354.35Z" style="fill:#fff"/><path d="M694,260.25a9.85,9.85,0,0,0,.64,4.16c-.12-5.1,3-11.09,6.28-14.57a27.8,27.8,0,0,1,4.59-3.9,24,24,0,0,1,3-2.45,41.39,41.39,0,0,1,7.57-3.37,20,20,0,0,0-3.39-4.84C704.05,236.69,694.69,247.76,694,260.25Z" style="fill:#fff;opacity:0.30000000000000004"/><path d="M658.56,275.11a30.49,30.49,0,0,1,6.07-1.69,50.44,50.44,0,0,1,7.17-.53,14.75,14.75,0,0,1,3.94.53,46.56,46.56,0,0,1,12.72,3.18,49.2,49.2,0,0,1,12.78,7.15c-8.26-12.54-25.88-19.84-39.78-13.81a.91.91,0,0,1-1.25-.32,40,40,0,0,1-2.76-21.18c-2,4.54-2.36,9.65-2.14,14.56A28.17,28.17,0,0,0,658.56,275.11Z" style="fill:#fff;opacity:0.30000000000000004"/><path d="M836.05,336.17A24.1,24.1,0,0,0,821.24,323a31.35,31.35,0,0,0-8.44-1.54s0,0,0,0a38.71,38.71,0,0,0-4.31.06c-2,.09-4.73.15-6.45,1.43a1,1,0,0,0-.23.08l-.18,0a3.86,3.86,0,0,1,2.32-1.31,39.06,39.06,0,0,1,6.76-1.5h.13c.21-.6.39-1.19.56-1.8,1.3-4.85,1.54-10.23-.41-14.9-1.66-4-3.48-7.93-6.34-11.2a39.36,39.36,0,0,0-19.06-11.57c7.95,5.07,14.46,11.81,14.75,22.22.18,7.22-1.34,16.26-5.37,23.25,1.47-.24,2.94-.46,4.41-.62,6.24-.73,12.9-1.74,19,.53,4.81,1.81,6.66,6.46,5.21,11.28-2.17,7.17-7.54,12.63-14.28,15.78-13.34,6.24-29.16,5.49-42.94,1-9.3-3-18.53-8-24.67-15.53-6.61,13.7-19.26,23.59-35.8,23.94-18.86.4-40.11-11.38-46.24-29.79a40.93,40.93,0,0,0,4.4,17,1,1,0,0,1-.34,1.25c-13.48,8.58-41.25,17.64-57.42,10.89-8.82-3.68-13-11.49-16.61-21-.73,6.65.81,13.95,3.33,21,.21.61-2.05,1-2.58,1-11.35,1.36-25.09.14-33.46-8.66a24.79,24.79,0,0,1-6.74-16.12,27.62,27.62,0,0,0-1.29,9.92c.73,12.12,8.71,22.71,20.71,25.46a36.43,36.43,0,0,0,18.95-1,72.29,72.29,0,0,0,10.14-3.9,38.63,38.63,0,0,1-3.8-7.34,35.34,35.34,0,0,0,6.07,8l0,0a32.08,32.08,0,0,0,7.1,5.79,61.89,61.89,0,0,0,27,8.64c9.18.73,18.48-1.59,26.85-5.3,3.72-1.68,7.8-3.42,11.09-5.92a27.36,27.36,0,0,1-3.45-4.67,32.67,32.67,0,0,1-1.48-3c1.75,1.4,2.8,3.72,4.16,5.42a27.69,27.69,0,0,0,7.53,6.22,40.47,40.47,0,0,0,15,5.06,44,44,0,0,0,11.3,1.07,67.85,67.85,0,0,0,13.42-2.2,61.07,61.07,0,0,0,12.14-4.16,53.57,53.57,0,0,0,7.16-4.25l1.12-.7c3.12-2,6.2-4.1,9.19-6.26.76-.55,1.59-1.16,2.36-1.82-.58.74-1.18,1.48-1.8,2.2a53,53,0,0,0,7.13,4.07,76.75,76.75,0,0,0,22.52,6.47c14.33,2,29.81.35,42.11-7.84,5.32-3.55,11.32-8.07,14.15-13.95A21.9,21.9,0,0,0,836.05,336.17Z" style="fill:#fff;opacity:0.5"/><path d="M657.89,277.44a1.13,1.13,0,0,0-.21.15,1.34,1.34,0,0,1,.24-.09A.33.33,0,0,1,657.89,277.44Z" style="fill:#fff"/><path d="M699.39,217.94c-.11-.05-10.28-5.78-25,11.57l10.46,6.75S688.79,224.47,699.39,217.94Z" style="fill:#95e1bf"/><path d="M680.94,233.73l3.95,2.53s3.82-11.51,14.11-18.07C691.81,221.7,686,227.28,680.94,233.73Z" style="fill:#95e1bf"/><path d="M746.84,221.66c-16.19-2.59-47.45-3.72-47.45-3.72h0c-10.6,6.53-14.5,18.32-14.5,18.32l.73,11.86,67.28-4.19-.47-7.82.59.82h0C750.26,233.09,746.84,221.66,746.84,221.66Z" style="fill:#95e1bf"/><path d="M685.52,246.45l.1,1.67,67.28-4.19-.1-1.82C730.36,243.52,708,245,685.52,246.45Z" style="fill:#95e1bf"/><path d="M769.35,234s-4.17-7.67-16.51-11.12a55.86,55.86,0,0,0-6-1.22s3.42,11.43,6.18,15.27h0l3.63,5.07S765.29,239.34,769.35,234Z" style="fill:#95e1bf"/><path d="M747.67,224.3c1.19,3.63,3.42,10,5.35,12.63h0l3.63,5.07s1.45-.46,3.42-1.33C756.27,234.93,752.87,228.79,747.67,224.3Z" style="fill:#95e1bf"/><path d="M723.1,258.94c-2.79-.22-8-.43-8-.43s7.66-3,8.29-4.46-1.07-1.27-3.39-.34-6.44,2.39-6.44,2.39,2.19-2.77,1.83-4.6-5.55,4.31-5.92,4.59-2.69-.62-4.25-.26c0,0-17.34-4.23-24.47-7.41-4.46.25-9.77.72-14.23,1,4.62,5.24,38.38,11.82,38.38,11.82a6.43,6.43,0,0,0,4.87,3.93s3.18,2.56,4.23,4.46,3.8,1.62,3.15-.18-3.17-4.42-3.17-4.42a31.1,31.1,0,0,1,6.64,2.75c2.47,1.57,4.26.65,2.92-1.91s-8.23-3.84-8.23-3.84,6.65-.26,8.56-.26S725.88,259.15,723.1,258.94Z" style="fill:#c6c6c6;mix-blend-mode:multiply"/><path d="M762.12,243.09l1.46,2.91L741.65,254l-3.38-1.35s-1.53-3.34-3.36-3.24,0,2.13.89,3.92,1.54,3.45,1.54,3.45-7-4.05-9.11-4.44-1.36,1.53.14,2.24,6.28,3.44,6.28,3.44-7.43-.6-8.15.5,6.13,1.08,7.32,1.11-8.05,4.07-6.4,5,9.63-4,8.83-2.14-4.82,7.43-2.48,6.75,5.16-6.13,5.16-6.13,3.52-.73,4.17-3c0,0,27.31-7.07,27.8-12.55a12.2,12.2,0,0,0-.74-5C767.46,242.73,764.79,242.86,762.12,243.09Z" style="fill:#c6c6c6;mix-blend-mode:multiply"/><path d="M713,227.13s-2.61,11.76,7.2,11,9.44-10.42,9.44-10.42Z" style="fill:#efcaa6"/><path d="M793.17,139.2c4.07-2.64-11-2.76-11-2.76a15.47,15.47,0,0,0-.52-8.41c-1.6-4.39-4.12,6.07-4.12,6.07-13-30.86-67.66-31.42-87.46-6.17s-7.6,55.88-7.6,55.88,6.61-20.82,23.09-35.92c0,0-6.41,10-3.75,10.32s9.27-3.8,38.57-10.54c0,0-5.51,7.67-1.6,8.25s18.34-4.9,18.34-4.9-2.51,19,3.44,15.62,7.63-8.11,7.63-8.11a73.26,73.26,0,0,1,6.09,42C813.48,160.09,784.66,142,784.66,142A18.85,18.85,0,0,0,793.17,139.2Z" style="fill:#decc62"/><path d="M768.22,158.53s-1.68,4.74-7.63,8.11S757.15,151,757.15,151s-14.43,5.47-18.34,4.9,1.6-8.25,1.6-8.25c-29.3,6.74-35.93,10.85-38.57,10.54s3.75-10.32,3.75-10.32c-16.48,15.1-23.09,35.92-23.09,35.92A29.79,29.79,0,0,0,684,211.62c10.87,18.13,31.93,21.66,51.64,20.42,25.51-1.58,38.69-31.51,38.69-31.51A73.26,73.26,0,0,0,768.22,158.53Z" style="fill:#f4d9bf"/><path d="M686.44,174.34s.55-7.43-6.06-6.23S674,183.72,682,184.84C682,184.84,684.38,178.35,686.44,174.34Z" style="fill:#efcaa6"/><path d="M774.4,199.87s2.68-7.68,9.43-5.34,1.48,13.23-6,15.55-7.56-2.2-7.56-2.2Z" style="fill:#efcaa6"/><path d="M707.59,166.63a3.58,3.58,0,0,1,.93-1.06,5.48,5.48,0,0,1,2.76-1.18,5,5,0,0,1,1.69.06,4.4,4.4,0,0,1,1.38.62,4.83,4.83,0,0,1,.45.4,2.61,2.61,0,0,1,.28.38,1.32,1.32,0,0,1,.17.38h-.4a6.5,6.5,0,0,0-.9,0l-1.14.1c-.41.06-.82.09-1.26.16a22.45,22.45,0,0,1-2.59.22A8.23,8.23,0,0,1,707.59,166.63Z" style="fill:#a95a16"/><path d="M744.61,171.24a6.16,6.16,0,0,1,1.73-1,9.42,9.42,0,0,1,4.32-.66,7.41,7.41,0,0,1,2.38.57,10.83,10.83,0,0,1,1,.55,9.23,9.23,0,0,1,.77.7,5.14,5.14,0,0,1,.51.72,2.07,2.07,0,0,1,.25.62,3.78,3.78,0,0,1,.14.54l-.48-.29a4,4,0,0,0-.5-.31l-.64-.3c-.25-.07-.51-.17-.77-.26s-.58-.14-.87-.19-.63-.13-1-.15-.67-.09-1-.11c-.69-.07-1.4-.09-2.07-.13s-1.33-.06-1.88-.11C745.42,171.38,744.61,171.24,744.61,171.24Z" style="fill:#a95a16"/><path d="M719.87,197.89s-3.86,5.08-1,6.09,6.18-.38,6.18-.38-5,1.19-5.57-1.52A5.87,5.87,0,0,1,719.87,197.89Z" style="fill:#c39368"/><path d="M678.1,176.63a3,3,0,0,1,1-.49,4.69,4.69,0,0,1,1.2-.17,3.51,3.51,0,0,1,1.41.3,3.46,3.46,0,0,1,.63.39,2.22,2.22,0,0,1,.52.49,3,3,0,0,1,.37.58,1.62,1.62,0,0,1,.18.55,2.65,2.65,0,0,1,.12.85c0,.2,0,.31,0,.31s-.08-.1-.19-.27a2.1,2.1,0,0,1-.19-.27,2.26,2.26,0,0,0-.27-.36,1.79,1.79,0,0,0-.31-.37,4.21,4.21,0,0,0-.36-.37,3.94,3.94,0,0,0-.92-.57,2.41,2.41,0,0,0-.53-.2,4.75,4.75,0,0,0-.54-.14c-.37-.08-.72-.11-1-.15Z" style="fill:#c39368"/><path d="M781.14,202.84a1.87,1.87,0,0,0-.33-.15,3.71,3.71,0,0,0-.84-.28c-.17,0-.36,0-.55-.1a2.57,2.57,0,0,0-.63,0,4.51,4.51,0,0,0-.65,0l-.67.1a2.3,2.3,0,0,0-.68.11c-.22.08-.45.11-.67.17a3.23,3.23,0,0,0-.63.16c-.19.07-.38.14-.56.19a7.06,7.06,0,0,1-1.23.31,6.58,6.58,0,0,1,1-.85c.15-.13.33-.25.52-.39a4.24,4.24,0,0,1,.64-.29,6.15,6.15,0,0,1,.71-.28,2.44,2.44,0,0,1,.8-.17c.27,0,.54,0,.81-.08a3.6,3.6,0,0,1,.79.12,2.58,2.58,0,0,1,.7.19l.61.31a4.17,4.17,0,0,1,.7.67A1.39,1.39,0,0,1,781.14,202.84Z" style="fill:#c39368"/><path d="M746.71,188c-.84,2.72-2.5,4.65-3.69,4.27s-1.49-2.88-.65-5.6,2.48-4.66,3.69-4.3S747.54,185.26,746.71,188Z" style="fill:#3d1a0b"/><path d="M744.86,185.16c-.32.81-.86,1.35-1.23,1.2s-.37-.9,0-1.7.87-1.35,1.22-1.2S745.19,184.36,744.86,185.16Z" style="fill:#fff"/><path d="M712.43,180.71c-.84,2.72-2.49,4.65-3.69,4.29s-1.47-2.89-.65-5.62,2.48-4.66,3.69-4.28S713.27,178,712.43,180.71Z" style="fill:#3d1a0b"/><path d="M710.59,177.87c-.32.8-.87,1.34-1.24,1.21s-.36-.92,0-1.72.86-1.35,1.22-1.2S710.91,177.06,710.59,177.87Z" style="fill:#fff"/><path d="M757.43,203.14c-.23,1.82-4,2.85-8.43,2.25s-7.8-2.54-7.56-4.36,4-2.87,8.44-2.28S757.67,201.29,757.43,203.14Z" style="fill:#f9cbc0"/><path d="M707,191.23c-.24,1.82-4,2.85-8.43,2.26s-7.79-2.54-7.56-4.37,4-2.86,8.44-2.27S707.24,189.39,707,191.23Z" style="fill:#f9cbc0"/><path d="M675.08,229.93s-12.59,14.2-9,19.46,38.11,12.37,38.11,12.37a6.37,6.37,0,0,0,4.85,3.91s3.2,2.58,4.24,4.49,3.79,1.62,3.15-.2-3.17-4.42-3.17-4.42a32.25,32.25,0,0,1,6.63,2.74c2.47,1.57,4.25.68,2.92-1.88s-8.22-3.83-8.22-3.83,6.64-.3,8.57-.28,2-2.63-.78-2.85-8-.43-8-.43,7.66-3,8.3-4.48-1.08-1.26-3.39-.31-6.45,2.38-6.45,2.38,2.2-2.78,1.83-4.6-5.54,4.29-5.92,4.59-2.68-.64-4.23-.27c0,0-26-6.42-27.64-9.35s5.42-12.33,5.42-12.33Z" style="fill:#f4d9bf"/><path d="M760,240.7l2.92,5.79-21.94,8-3.38-1.38s-1.53-3.33-3.37-3.22,0,2.11.91,3.91,1.53,3.46,1.53,3.46-7-4.05-9.11-4.45-1.36,1.54.13,2.24,6.29,3.43,6.29,3.43-7.42-.59-8.17.51,6.15,1.07,7.34,1.13-8.06,4.06-6.42,5,9.65-4,8.85-2.13-4.83,7.43-2.49,6.75,5.16-6.13,5.16-6.13,3.52-.73,4.16-3c0,0,27.32-7.09,27.81-12.55s-4-11-4-11A40.59,40.59,0,0,1,760,240.7Z" style="fill:#f4d9bf"/><g style="opacity:0.4;mix-blend-mode:multiply"><path d="M686.44,174.34h0c3.58-7.4,9.76-17.85,19.15-26.45l5.3-5.27C691.3,152.83,686.44,174.34,686.44,174.34Z" style="fill:#d7711f"/><path d="M701.84,158.21c2.64.31,9.27-3.8,38.57-10.54l-.19.25a54.3,54.3,0,0,1,8-6.37C727.8,144.58,701.84,158.21,701.84,158.21Z" style="fill:#d7711f"/><path d="M737.72,155.34a1.63,1.63,0,0,0,1.09.58c3.91.57,18.34-4.9,18.34-4.9s0,.15,0,.44c1.89-3.67,4.16-7.74,4.16-7.74C748.8,153.76,737.86,155.32,737.72,155.34Z" style="fill:#d7711f"/><path d="M765.9,150.3A17.08,17.08,0,0,1,759.22,167a2.4,2.4,0,0,0,1.37-.38c5.95-3.37,7.63-8.11,7.63-8.11a73.21,73.21,0,0,1,6.17,41.35h0C784.82,175.78,765.9,150.3,765.9,150.3Z" style="fill:#d7711f"/></g><path d="M711.12,214.41a133.34,133.34,0,0,0,19.64.3c.2,6.12-4.32,10.76-10.83,10.36S710.85,218.28,711.12,214.41Z" style="fill:#96172d"/><path d="M718.19,224.8a8.79,8.79,0,0,0,1.74.27,10.71,10.71,0,0,0,6-1.27C723,221.57,719.75,223.56,718.19,224.8Z" style="fill:#ed776f"/><path d="M719.29,219.69a16.67,16.67,0,0,0,11.38-3.25,11,11,0,0,0,.09-1.73,129.78,129.78,0,0,1-17.69-.14C713.36,216.41,714.54,219.45,719.29,219.69Z" style="fill:#fff"/><path d="M708.6,213.71s.39.07,1.07.16a11.4,11.4,0,0,0,1.24.15l1.6.18,1.9.16c.68.06,1.39.09,2.12.12s1.5.09,2.27.11l2.35,0c.78,0,1.57.06,2.34,0l2.28,0,2.12,0c.68,0,1.31,0,1.91-.08,1.17-.06,2.17-.07,2.86-.09l1.08,0-1.07.14c-.69.09-1.67.22-2.85.35-.58.06-1.23.14-1.9.19l-2.14.1-2.29.1c-.77,0-1.56,0-2.36,0l-2.36-.06-2.28-.18c-.74-.05-1.45-.12-2.13-.23l-1.9-.26c-.59-.09-1.12-.21-1.59-.3s-.88-.19-1.23-.28C709,213.84,708.6,213.71,708.6,213.71Z" style="fill:#c39368"/><path d="M300.48,507.52c.6-1.48,7.74-9.52,6.17-11s-6.79,7.91-8.07,7,2.55-14.44-.91-12.84-2.47,13-4.05,11.75-1.79-14.7-4.47-12.55,2.64,14.48.17,13.8-5.82-2.47-8.48-1.11,6.51,2.83,7.18,5.22a8,8,0,0,1,.43,3.4s-11.78,18.62-28.59,29.16c-16.47,10.34-35.39,15.32-39.89,15.08-.38,5,.37,11.67,6.09,14.32l-.85-7s38,.06,71-51.49a2.73,2.73,0,0,0,2.92-.78s10.11-.28,10.26-2.29S299.86,509,300.48,507.52Z" style="fill:#efcaa6"/><path d="M224.25,557.43s.18.38.4,1a16.73,16.73,0,0,1,.53,2.25,14.87,14.87,0,0,1,.23,2.31,8.18,8.18,0,0,1,0,1.07,9.47,9.47,0,0,1-.39-1,18.92,18.92,0,0,1-.56-2.25,19.73,19.73,0,0,1-.21-2.31C224.21,557.85,224.25,557.43,224.25,557.43Z" style="fill:#c39368"/><path d="M204.84,554.65a.83.83,0,0,0-.66,0c-3.12,1.16-6,2.95-9.14,4.07a.41.41,0,0,0-.13.66,41.62,41.62,0,0,1,.91,4.39,22.1,22.1,0,0,0,2.11,5.19c1.18,2.18,3.18,3.73,5.74,3.27s3.92-3.72,4-6.09a36.6,36.6,0,0,0-1.9-10.89A.81.81,0,0,0,204.84,554.65Z" style="fill:#f4c3a7"/><path d="M179.92,597.77s-4.94,14.05-5.22,26.69,1.94,21.16.9,22.93-3.26,2-5,7.14S170,665.9,171,665s.35-6.63,2.39-9.67c0,0-1.37,4.85-.77,8.66s1.7,3.63,2.39-1.9,1.18-8.27,1.4-7-.23,11.66,1.65,12.11.24-9.85,2.12-12a22.36,22.36,0,0,0,.88,7.88c1.24,3.51,2.49,4,2.36-.54s.14-11.32,2.48-9.19,3.31,5.17,5.49,4.14-1.73-6.14-3.64-8-4.95-3-5.35-4.48-2.64-14.83-1.82-22.82c.93-9.3,3.71-19.67,5.23-22.26Z" style="fill:#f4d9bf"/><path d="M208.19,635.44s-2.1,10.14,7.17,34.87c0,0,20.52-3.46,29.61-9.13l-5.5-17.65,13,14.6s19-10.72,24.32-20.73c0,0-14.4-15.14-15.56-17.35a26.58,26.58,0,0,1-1.84-5.58Z" style="fill:#95e1bf"/><path d="M211,556.31s33.15-8.1,37.38-18.08c0,0,9.3,8.95,10.46,20.19,0,0-9.95,10.24-19.22,10.48,0,0,11.9,15.41,21.31,47,0,0-23.53,23.87-56.38,22.86,0,0-8.07-41-8.06-41.55s-2.06,7.56-2.06,7.56-13.9-3.86-18-6.93c0,0,3.51-24.59,25.46-36.71Z" style="fill:#95e1bf"/><path d="M172.44,550.61c-3.82,2.83-16-5.39-12-10.56s10.52-.21,10.52-.21-6.55-16.49-9.33-25.86c6.4,5.07,14,10.52,14,10.52s-.78-10.58-4-17.36c6.14,2.29,13.23,1.29,13.23,1.29s-1.2-2-6.68-5.41c11.87,1.93,28.07-4.65,28.07-4.65s-4.65-5.26-10.06-5.16c3-1.57,14.07-.59,20.66,3.79a49.06,49.06,0,0,1,4.62,10.22c3.21,9.26,5,10.41,8.21,13.39s6.77,10.79-6.23,26.93-33.25,15.29-40.27,13C183.08,560.49,175.92,555.79,172.44,550.61Z" style="fill:#fad8bf"/><path d="M148.32,548.51c-10.7-15.59-10.14-26.81-2.87-35.41,0,0,.57-27.73,32.05-35.69,20.37-3.08,35.3,1.07,43.78,17.25-5.81-5.05-9.9-5-9.9-5a13.22,13.22,0,0,1,7.23,7.91l-1.86-.56c-6.59-4.38-17.64-5.36-20.66-3.79,5.41-.1,10.06,5.16,10.06,5.16S190,505,178.08,503c5.48,3.43,6.68,5.41,6.68,5.41s-7.09,1-13.23-1.29c3.24,6.78,4,17.36,4,17.36s-7.55-5.45-14-10.52c2.78,9.37,9.33,25.86,9.33,25.86s-6.56-4.94-10.52.21,8.21,13.39,12,10.56c3.48,5.18,10.64,9.88,10.64,9.88C180.59,563,159,564.07,148.32,548.51Z" style="fill:#7d4902"/><path d="M164.2,544.4a1.2,1.2,0,0,1,.28-.3,1,1,0,0,1,.37-.28l.23-.1.28-.1a2.4,2.4,0,0,1,.66,0,4.9,4.9,0,0,1,.74.11c.26.1.51.15.78.27a6.88,6.88,0,0,1,.77.38c.25.14.51.26.76.43l.73.45,1.24.85c.74.55,1.26.87,1.26.87a12.37,12.37,0,0,0-1-1.15,5.2,5.2,0,0,0-.53-.51c-.21-.17-.41-.38-.62-.55l-.73-.52c-.25-.18-.54-.32-.8-.48a9,9,0,0,0-.84-.38,5.08,5.08,0,0,0-.88-.25,3.34,3.34,0,0,0-.88,0,3.57,3.57,0,0,0-.78.18l-.31.17-.24.19a1.88,1.88,0,0,0-.33.4A1.18,1.18,0,0,0,164.2,544.4Z" style="fill:#c48053"/><path d="M169.12,547.88a4.14,4.14,0,0,0,0-.59c0-.18,0-.37,0-.58s0-.41,0-.62a9,9,0,0,1,0-1.14c0-.08,0-.15,0-.21a1.08,1.08,0,0,1,0-.19l.05-.15-.14.08a.41.41,0,0,0-.18.12c0,.06-.11.13-.16.22a1.39,1.39,0,0,0-.24.58,3.5,3.5,0,0,0-.06.72,3.08,3.08,0,0,0,.34,1.25A2.3,2.3,0,0,0,169.12,547.88Z" style="fill:#c48053"/><path d="M219,516.87c.74,1.79,1.84,3,2.43,2.8s.46-1.91-.28-3.69-1.84-3.06-2.43-2.82S218.27,515.07,219,516.87Z" style="fill:#292524"/><path d="M219.06,514.56c.31.55.75.87,1,.73s.21-.69-.11-1.23-.74-.85-1-.73S218.76,514,219.06,514.56Z" style="fill:#fff"/><path d="M193.79,528.33c.76,1.8,1.85,3.06,2.44,2.8s.45-1.9-.29-3.71-1.83-3-2.42-2.78S193.05,526.54,193.79,528.33Z" style="fill:#292524"/><path d="M193.85,526c.3.55.73.86,1,.71s.2-.68-.1-1.22-.75-.85-1-.71S193.53,525.49,193.85,526Z" style="fill:#fff"/><path d="M211.62,523.92l1.58.7c.49.2,1,.46,1.6.73a16,16,0,0,1,1.73.94,2.43,2.43,0,0,1,.66.6,1.2,1.2,0,0,1,.06.12l0,.26a2.24,2.24,0,0,1-.06.38,5.3,5.3,0,0,1-.73,1.51,15.75,15.75,0,0,1-1,1.39,7.1,7.1,0,0,0,1.25-1.2,4.79,4.79,0,0,0,1-1.56,2.85,2.85,0,0,0,.11-.58l0-.25a3.08,3.08,0,0,0-.13-.34,2.86,2.86,0,0,0-.83-.8,13.5,13.5,0,0,0-3.53-1.48A16.64,16.64,0,0,0,211.62,523.92Z" style="fill:#c48053"/><path d="M198.47,513.67a12.78,12.78,0,0,0-2.51-2.21,12.58,12.58,0,0,0-1.43-.79,6.09,6.09,0,0,0-1.81-.57,4.18,4.18,0,0,0-2.12.14l-.52.21a5.4,5.4,0,0,0-.47.3l-.24.18-.06,0s0,0-.06.06h0l-.08.1-.36.33c-.22.25-.43.6-.65.9s-.35.61-.49.92a9.85,9.85,0,0,0-.64,1.87,15.36,15.36,0,0,0-.47,3.42,18.67,18.67,0,0,0,.16,3.31s0-.33.12-.89.2-1.4.37-2.35a25.56,25.56,0,0,1,.78-3.21,14.78,14.78,0,0,1,.68-1.68,8.94,8.94,0,0,1,.44-.8,6.08,6.08,0,0,1,.53-.69l.32-.35.09-.1,0,0h0l.05,0,.16-.13c.12-.07.22-.16.34-.23l.39-.15a4.45,4.45,0,0,1,.78-.19,4.71,4.71,0,0,1,.84,0,6.27,6.27,0,0,1,1.61.36,11,11,0,0,1,1.43.6,17.48,17.48,0,0,1,2.06,1.13Z" style="fill:#7d4902"/><path d="M219.65,502.54a1.73,1.73,0,0,0-.28-.37,3,3,0,0,0-1-.77,2.19,2.19,0,0,0-.87-.22,1.3,1.3,0,0,0-.55,0,1.36,1.36,0,0,0-.52.19,2.5,2.5,0,0,0-.87.71,6,6,0,0,0-.53.95,6.17,6.17,0,0,0-.33,1c-.08.32-.11.66-.18,1a14,14,0,0,0,0,1.68,9.84,9.84,0,0,0,.22,1.62,14.9,14.9,0,0,0,.44-1.56c.11-.47.25-1,.38-1.57.08-.27.18-.55.25-.83a8,8,0,0,1,.31-.83,5.68,5.68,0,0,1,.37-.74c.17-.17.29-.4.49-.5a1,1,0,0,1,.28-.16.66.66,0,0,1,.31-.09,2.28,2.28,0,0,1,.64,0,4.6,4.6,0,0,1,1.06.33A2.89,2.89,0,0,1,219.65,502.54Z" style="fill:#7d4902"/><path d="M221.37,535.31s-10.2,7.82-20.35,6.14c4.92,6.79,10,8.88,13.11,7.58S219.05,537.54,221.37,535.31Z" style="fill:#510012"/><path d="M203.68,544.66a30.25,30.25,0,0,1-2.66-3.21c5.67.94,11.36-1.09,15.29-3.07C215.87,540.73,213.82,546.11,203.68,544.66Z" style="fill:#fff"/><path d="M215.1,548.32a2.75,2.75,0,0,1-1,.71c-2.2.92-5.43.12-8.88-2.89A10.09,10.09,0,0,1,215.1,548.32Z" style="fill:#fd7072"/><path d="M214.26,549.36c-2.8,1.16-8-.15-13.53-7.71l-.48-.69.82.15c4,.65,8.53-.09,13.39-2.25a36.69,36.69,0,0,0,6.7-3.83l.44.53c-.93.9-1.82,3.29-2.76,5.82-1.31,3.51-2.66,7.12-4.53,8Zm.48-9.85a25,25,0,0,1-13,2.41c3.53,4.57,8.52,8.33,12.2,6.8l.18.3-.13-.32c1.61-.71,3-4.36,4.15-7.56a45.35,45.35,0,0,1,1.84-4.51A37,37,0,0,1,214.74,539.51Z" style="fill:#c48053"/><path d="M206.47,545.83c3.84,2.88,6,2.26,7.14,1.39a9.29,9.29,0,0,1,1.49,1.1,2.75,2.75,0,0,1-1,.71c-2.2.92-5.43.12-8.88-2.89A7.54,7.54,0,0,1,206.47,545.83Z" style="fill:#d9494d"/><g style="opacity:0.30000000000000004;mix-blend-mode:multiply"><path d="M160.41,540.05c4-5.15,10.52-.21,10.52-.21s-6.55-16.49-9.33-25.86c6.4,5.07,14,10.52,14,10.52s-.78-10.58-4-17.36c6.14,2.29,13.23,1.29,13.23,1.29s-1.2-2-6.68-5.41c11.87,1.93,28.07-4.65,28.07-4.65s-4.65-5.26-10.06-5.16c3-1.57,14.07-.59,20.66,3.79,0,0,.13.19.35.59a46.45,46.45,0,0,0-12.59-3.09s1.13.46,2.38,4.88c-9.28,5.53-22.71,6.35-22.71,6.35l2.3,4s-4.19,3.68-11.18,1.47c1.57,5.33,1.84,17.32,1.84,17.32s-.8.46-3.59-1.89c2.7,8,10.9,21.35,18.34,28.69s22.19,4,32.81-12.83,5.2-20,1.56-24.64a14.22,14.22,0,0,1-2-3.53c1.69,3.2,3.2,4.37,5.28,6.33,3.18,3,6.77,10.79-6.23,26.93s-33.25,15.29-40.27,13c0,0-7.16-4.7-10.64-9.88C168.62,553.44,156.41,545.22,160.41,540.05Z" style="fill:#dfa679"/></g><path d="M374,669.13a25.29,25.29,0,0,0-6.67-.62l.22-.57c1.17-3.47,1.62-7.92.45-11.43a30.7,30.7,0,0,0-5.49-10c-4.66-5.44-11.67-8.44-18.65-9.4a37,37,0,0,0-11,.36,35.84,35.84,0,0,0-1.08-8.29c-1.81-7.16-7.48-13.42-13.4-17.58-6.27-4.42-13.95-5.06-21.25-3.46a23.39,23.39,0,0,0-2.28.63c-2.62-6-9.35-9.42-15.52-10.69a27.58,27.58,0,0,0-12.61.6,27,27,0,0,0-10.12,5.76,30.27,30.27,0,0,0-7,9.43c-1.91,3.78-2.23,8.21-2.1,12.39a18.32,18.32,0,0,0,3,9.26,12.07,12.07,0,0,0-2.45,1.67,16.49,16.49,0,0,0-5.1,7.89A20.88,20.88,0,0,0,240,644a33.62,33.62,0,0,0-11.6-1.19,28.62,28.62,0,0,0-10.9,3.37c-6.87,3.46-13.44,7.5-17,14.65a21.78,21.78,0,0,0-1.89,6.09c-.64-.18-1.29-.33-1.93-.47a25.58,25.58,0,0,0-14.68,1.29c-8.41,3.36-13.9,12.79-14.38,21.61-.54,10.21,6.87,19.17,16.45,21.69a26.58,26.58,0,0,0,15.08-1,39.76,39.76,0,0,0,8.67-4.1,27.91,27.91,0,0,0,5,5.16c6,4.85,13.83,7,21.42,7.64a29.67,29.67,0,0,0,10.61-1c1.76-.48,3.53-.73,5.26-1.32a47.26,47.26,0,0,0,5.34-2.27,32.81,32.81,0,0,0,8.13-5.28,30.09,30.09,0,0,0,2.87,2.44,32.31,32.31,0,0,0,18.9,6.55,48.1,48.1,0,0,0,20.54-4.43,38.6,38.6,0,0,0,12.18-9,47.93,47.93,0,0,0,19.74,8.39,60.28,60.28,0,0,0,16.46,1.09,45.11,45.11,0,0,0,15.5-4c8.26-3.79,17.26-11,18.58-20.54S383.19,671.36,374,669.13Z" style="fill:#fff"/><path d="M384,694.09c-2.13,4.39-6.61,7.77-10.57,10.41-9.19,6.14-20.74,7.35-31.46,5.87a57.57,57.57,0,0,1-16.81-4.83,41.09,41.09,0,0,1-5.33-3c.47-.53.91-1.08,1.36-1.63-.58.49-1.21.94-1.76,1.34-2.24,1.63-4.54,3.23-6.87,4.69l-.84.52a37.66,37.66,0,0,1-5.35,3.17,46.39,46.39,0,0,1-9.06,3.11,50.13,50.13,0,0,1-10,1.63,32.28,32.28,0,0,1-8.45-.79,30.52,30.52,0,0,1-11.24-3.77,20.79,20.79,0,0,1-5.61-4.64c-1-1.28-1.81-3-3.11-4.07a21.79,21.79,0,0,0,1.1,2.22,20.67,20.67,0,0,0,2.57,3.49,42.1,42.1,0,0,1-8.27,4.41c-6.26,2.78-13.2,4.51-20.06,4a46.07,46.07,0,0,1-20.16-6.45,23.76,23.76,0,0,1-5.31-4.33h0a26.16,26.16,0,0,1-4.54-6,28.82,28.82,0,0,0,2.84,5.49,52.76,52.76,0,0,1-7.59,2.91,27.17,27.17,0,0,1-14.14.76c-9-2-14.92-10-15.46-19-.51-8.45,4.75-17.44,12.42-20.94A24.3,24.3,0,0,1,196.59,667a17,17,0,0,1,2,.46,20.73,20.73,0,0,0-.21,2.83,15.21,15.21,0,0,0,.37,3,27.76,27.76,0,0,0,1.38,3.9,24.13,24.13,0,0,1,1-11,12.21,12.21,0,0,1,.72-1.83,28.07,28.07,0,0,1,1.13-2.67c3.16-6.42,9.28-9.84,15.23-13.2A30.65,30.65,0,0,1,239,645.18a24.65,24.65,0,0,1,3.73,1,11.92,11.92,0,0,0,1.75,8.89c-1.15-3.86-1-8.23,1-11.57a19.84,19.84,0,0,1,4.36-5.79,9.61,9.61,0,0,1,1.44-1.07l.07.09.06,0c.35-.2.72-.4,1.09-.58a.3.3,0,0,1-.07-.11A30.19,30.19,0,0,1,259,634.1a17.14,17.14,0,0,1,4.84-.4,6.52,6.52,0,0,1,1.09.17h.32a11.2,11.2,0,0,0-3.6-.61,39.64,39.64,0,0,0-5.35.41,20.57,20.57,0,0,0-4.53,1.27,21,21,0,0,1-2.43-9.07,23.85,23.85,0,0,1,1.82-11.42,29.25,29.25,0,0,1,6.76-9.06,26,26,0,0,1,20.64-6.72c6.26.7,13.34,4.28,16.17,10.13a29.87,29.87,0,0,0-5.66,2.52,16.38,16.38,0,0,0-3.21,2.8,22.73,22.73,0,0,1,15.72-4.94,25.91,25.91,0,0,1,16.48,4.88c5.37,3.91,10.52,9.23,12.74,15.59a25.65,25.65,0,0,1,1.28,5.8,27.75,27.75,0,0,1,.43,6.28c0,.54,0,1.07-.06,1.59a33.4,33.4,0,0,0,.44-5.08l.46-.06a35.16,35.16,0,0,1,10.19.28,26.61,26.61,0,0,1,22,17.7,17.51,17.51,0,0,1,.3,11.13c-.12.45-.26.9-.41,1.34h-.11a28.21,28.21,0,0,0-5,1.12,2.9,2.9,0,0,0-1.74,1h.14l.17-.07c1.29-1,3.34-1,4.81-1.06a24.9,24.9,0,0,1,3.23-.05h0a24.05,24.05,0,0,1,6.31,1.14,18.07,18.07,0,0,1,11.06,9.86A16.34,16.34,0,0,1,384,694.09Z" style="fill:#fff"/><path d="M278.23,623.83a7.14,7.14,0,0,0,.47,3.1c-.08-3.8,2.28-8.27,4.7-10.88a21.06,21.06,0,0,1,3.42-2.91,18.94,18.94,0,0,1,2.26-1.82,29.87,29.87,0,0,1,5.66-2.52,14.33,14.33,0,0,0-2.53-3.61C285.74,606.24,278.76,614.5,278.23,623.83Z" style="fill:#fff;opacity:0.30000000000000004"/><path d="M251.78,634.94a20.57,20.57,0,0,1,4.53-1.27,39.64,39.64,0,0,1,5.35-.41,10.71,10.71,0,0,1,2.94.41,34.14,34.14,0,0,1,9.49,2.36,36.78,36.78,0,0,1,9.56,5.35c-6.17-9.36-19.34-14.83-29.72-10.32a.68.68,0,0,1-.93-.24A29.93,29.93,0,0,1,250.94,615a24.68,24.68,0,0,0-1.59,10.87A21,21,0,0,0,251.78,634.94Z" style="fill:#fff;opacity:0.30000000000000004"/><path d="M384.31,680.53a18.07,18.07,0,0,0-11.06-9.86,24.05,24.05,0,0,0-6.31-1.14h0a24.9,24.9,0,0,0-3.23.05c-1.47.07-3.52.1-4.81,1.06l-.17.07h-.14a2.9,2.9,0,0,1,1.74-1,28.21,28.21,0,0,1,5-1.12h.11c.15-.44.29-.89.41-1.34a17.51,17.51,0,0,0-.3-11.13,29.92,29.92,0,0,0-4.74-8.36,29.42,29.42,0,0,0-14.23-8.64c5.94,3.78,10.8,8.82,11,16.58.14,5.41-1,12.16-4,17.37,1.09-.18,2.18-.34,3.29-.46,4.66-.55,9.63-1.29,14.15.4,3.59,1.34,5,4.81,3.89,8.41a19.33,19.33,0,0,1-10.67,11.79c-10,4.67-21.77,4.1-32.06.75-7-2.25-13.84-6-18.42-11.6-4.94,10.23-14.38,17.64-26.73,17.88-14.08.3-29.95-8.49-34.53-22.23a30.55,30.55,0,0,0,3.29,12.72.7.7,0,0,1-.26.91c-10.07,6.42-30.8,13.2-42.87,8.16-6.6-2.76-9.67-8.6-12.4-15.71-.56,5,.6,10.4,2.48,15.71.15.44-1.53.71-1.93.76-8.48,1-18.73.11-25-6.46a18.44,18.44,0,0,1-5-12,20.43,20.43,0,0,0-1,7.41c.54,9,6.5,17,15.46,19a27.17,27.17,0,0,0,14.14-.76,52.76,52.76,0,0,0,7.59-2.91,28.82,28.82,0,0,1-2.84-5.49,26.16,26.16,0,0,0,4.54,6h0a23.76,23.76,0,0,0,5.31,4.33,46.07,46.07,0,0,0,20.16,6.45c6.86.55,13.8-1.18,20.06-4a42.1,42.1,0,0,0,8.27-4.41,20.67,20.67,0,0,1-2.57-3.49,21.79,21.79,0,0,1-1.1-2.22c1.3,1.05,2.09,2.79,3.11,4.07a20.79,20.79,0,0,0,5.61,4.64,30.52,30.52,0,0,0,11.24,3.77,32.28,32.28,0,0,0,8.45.79,50.13,50.13,0,0,0,10-1.63,46.39,46.39,0,0,0,9.06-3.11,37.66,37.66,0,0,0,5.35-3.17l.84-.52c2.33-1.46,4.63-3.06,6.87-4.69.55-.4,1.18-.85,1.76-1.34-.45.55-.89,1.1-1.36,1.63a41.09,41.09,0,0,0,5.33,3A57.57,57.57,0,0,0,342,710.37c10.72,1.48,22.27.27,31.46-5.87,4-2.64,8.44-6,10.57-10.41A16.34,16.34,0,0,0,384.31,680.53Z" style="fill:#fff;opacity:0.5"/><path d="M251.27,636.67a.57.57,0,0,0-.16.11l.19-.08S251.28,636.67,251.27,636.67Z" style="fill:#fff"/></g></g></svg>