<svg xmlns="http://www.w3.org/2000/svg" viewBox="0 0 1186.87 806.32"><defs><style>.cls-1{isolation:isolate;}.cls-2{fill:#dedefd;}.cls-3{fill:#5a59f3;}.cls-4{fill:#7b7af5;}.cls-5{fill:#9c9bf8;}.cls-6{fill:#d0d0fc;}.cls-7{fill:#ebebff;}.cls-8{fill:none;}.cls-9{fill:#c4c2c3;}.cls-18,.cls-28,.cls-38,.cls-44,.cls-48,.cls-9{mix-blend-mode:multiply;}.cls-10{fill:#afafaf;}.cls-11{fill:#8e8e8e;}.cls-12,.cls-13,.cls-41,.cls-42{fill:#fff;}.cls-13,.cls-48{opacity:0.4;}.cls-14,.cls-28{fill:#f4cdd4;}.cls-15{fill:#e36386;}.cls-16{fill:#fa7598;}.cls-17{fill:#fad8bf;}.cls-18,.cls-41{opacity:0.3;}.cls-19{fill:#dfa679;}.cls-20{fill:#e5ba9c;}.cls-21{fill:#5e3503;}.cls-22{fill:#7d4902;}.cls-23{fill:#c48053;}.cls-24{fill:#292524;}.cls-25{fill:#510012;}.cls-26{fill:#fd7072;}.cls-27{fill:#d9494d;}.cls-29{fill:#f4d9bf;}.cls-30{fill:#efcaa6;}.cls-31{fill:#c39368;}.cls-32{fill:#673121;}.cls-33{fill:#96172d;}.cls-34{fill:#ed776f;}.cls-35{fill:#873300;}.cls-36{fill:#f9cbc0;}.cls-37{fill:#9b552b;}.cls-39,.cls-44{fill:#c6c6c6;}.cls-40{fill:#ca8342;}.cls-42{opacity:0.5;}.cls-43{fill:#95e1bf;}.cls-45{fill:#decc62;}.cls-46{fill:#a95a16;}.cls-47{fill:#3d1a0b;}.cls-49{fill:#d7711f;}.cls-50{fill:#f4c3a7;}</style></defs><title>BANNER [Recovered]-01</title><g class="cls-1"><g id="Layer_1" data-name="Layer 1"><path class="cls-2" d="M633.39,197.91a4.17,4.17,0,0,0-.94.1,8.58,8.58,0,0,0-7.24-5.76,5.41,5.41,0,0,0-5-7.38H620a7.85,7.85,0,1,0-12.95-8.75,12.53,12.53,0,0,0-24.7,1.47,5.25,5.25,0,0,0-8.85,5.61,9,9,0,0,0-10.66,8.25,6.21,6.21,0,1,0-4.57,10.43,6.39,6.39,0,0,0,1.25-.12,8.29,8.29,0,0,0,15.86.61A12.53,12.53,0,0,0,599.79,204a12.51,12.51,0,0,0,16-2.77,8.6,8.6,0,0,0,15.16,5.06,4.57,4.57,0,1,0,2.48-8.41Z"/><rect class="cls-3" x="-1.65" y="-1.4" width="1188.72" height="693"/><path class="cls-4" d="M1104.64,141.28c-51.93,3.15-110.74,5.2-119.24,5.56-71.77,3.1-143.77,4.23-215.53.32-114.35-6.22-225.13-31.06-337.5-48.25C292.43,77.5,138.61,69.52-1.65,92.32V689.4H1187.06v-558C1187.06,135.22,1148.28,138.64,1104.64,141.28Z"/><path class="cls-5" d="M266.74,172.52c58.63,24.61,117.85,46.59,182.18,49.21,120,4.9,246.16-11.32,356.11-59,62.35-27,125.57-55.16,193.49-65.75a353.84,353.84,0,0,1,96.14-2.07c10.08,1.22,92.4,14.14,92.4,25.15V679.6H-1.65V96.83c25.55.43,51.32,2.5,77.76,8.23C142.61,117.11,204.34,146.31,266.74,172.52Z"/><path class="cls-6" d="M1171.35,644.6a38.52,38.52,0,0,0-6.26-.89c-1.21-18-15.21-34.39-36.61-41.25a27.87,27.87,0,0,0,6.11-9.91c5.5-15.76-5.8-32.15-25.24-36.61-.32-.08-.64-.14-1-.2,9.82-5.5,17.43-13.69,20.94-23.72,8-22.91-8.43-46.73-36.69-53.21-19.41-4.46-39.34.43-52.52,11.34,2.28-31.52-22.6-61.21-61.64-70.16-42.37-9.72-86.33,8.44-102.08,41-3.84-8.28-12.31-15-23.61-17.61-18.9-4.34-38.56,4.57-43.91,19.89a23.5,23.5,0,0,0-.51,14.1A71,71,0,0,0,798,474.12c-31.15-7.14-63.49,6.6-74.27,30.92-5.14-8.19-14.31-14.68-26.08-17.38-22.38-5.13-45.65,5.41-52,23.55s6.67,37,29,42.14a51.49,51.49,0,0,0,8.37,1.21c-.49,20.2,15.77,38.92,40.88,44.68,23.64,5.43,48-2.28,61.34-17.74-4.86,33,20.46,64.94,61.19,74.28,36.86,8.46,74.93-4.2,94.58-29.06a89.87,89.87,0,0,0,38.19,18.61c25.2,5.78,51,1.7,71-9.4-6.78,24.28,11,48.88,40.91,55.74a69.58,69.58,0,0,0,48.53-6.36,32.41,32.41,0,0,0,14.82,7.58c16.45,3.77,33.55-4,38.21-17.31S1187.8,648.38,1171.35,644.6Z"/><path class="cls-6" d="M15.7,589.84a36.46,36.46,0,0,1,6.08-.11c4.37-16.9,20.52-30.73,42-34.71a24.67,24.67,0,0,1-4-10.08c-2.39-15.55,11.22-29.72,30.4-31.66l.94-.07c-8.3-6.34-14-15-15.56-24.88-3.47-22.59,16.31-43.19,44.19-46,19.14-1.94,37.11,5,47.62,16.88,3.47-30.07,32.29-55.22,70.79-59.1,41.79-4.22,80.11,18.11,89.2,50.72,5.1-7.37,14.31-12.75,25.46-13.88,18.65-1.88,35.64,8.85,38,24a22.7,22.7,0,0,1-2.05,13.39,70.94,70.94,0,0,1,10.43-1.84c30.72-3.1,58.84,13.68,64.7,38,6.32-7.14,16.14-12.21,27.75-13.38,22.07-2.23,42.19,10.47,44.94,28.36s-12.91,34.2-35,36.43a50.38,50.38,0,0,1-8.13.16c-3.14,19.16-21.86,34.95-46.63,37.45-23.31,2.35-45-7.79-54.83-24-1.29,31.8-30.92,59-71.1,63-36.36,3.67-70.09-12.75-84.22-38.57a92,92,0,0,1-39.44,13.12c-24.85,2.51-48.46-4.37-65.45-17.22,2.08,23.75-19.13,44.93-48.62,47.9-17,1.72-33.11-3-44.74-11.71A33.16,33.16,0,0,1,23,637.46C6.8,639.1-8,629.77-10,616.62S-.52,591.48,15.7,589.84Z"/><path class="cls-6" d="M794.77,645a38.5,38.5,0,0,0-6.32.53c-7.23-17.08-26.19-29.73-49.09-31.62A24.75,24.75,0,0,0,741.91,603c0-16.38-16.38-29.66-36.58-29.66l-1,0c7.6-7.45,12.17-17,12.17-27.44,0-23.81-23.81-43.1-53.18-43.1-20.16,0-37.7,9.1-46.72,22.5-8.39-30.83-42.3-53.9-82.87-53.9-44,0-80.23,27.18-84.46,62-6.47-7.11-16.89-11.73-28.64-11.73-19.64,0-35.56,12.9-35.56,28.83a24.54,24.54,0,0,0,4.25,13.68,76.34,76.34,0,0,0-11.11-.82c-32.37,0-58.87,20.36-61.08,46.15-7.69-6.75-18.7-11-30.93-11-23.26,0-42.11,15.28-42.11,34.13s18.85,34.14,42.11,34.14a52,52,0,0,0,8.46-.69c6.31,19.55,28.25,34,54.35,34,24.57,0,45.44-12.79,53.07-30.61,6.4,32.85,41.49,58,83.82,58,38.31,0,70.69-20.58,81.24-48.84a100,100,0,0,0,43,9.48c26.18,0,49.59-9.61,65.16-24.72,1.64,24.86,27,44.61,58.09,44.61,17.89,0,33.88-6.55,44.55-16.84a36.26,36.26,0,0,0,16.81,4c17.1,0,31-11.24,31-25.1S811.87,645,794.77,645Z"/><path class="cls-7" d="M1155.7,655.33a34,34,0,0,0-6.77,1.55A63.47,63.47,0,0,0,1090.45,622a38.67,38.67,0,0,0,1-14.64c-2.71-21.52-22.67-36.73-44.59-34-.36,0-.71.1-1.07.15a56.13,56.13,0,0,0,8.67-37.71c-3.93-31.28-32.94-53.39-64.81-49.38a58.3,58.3,0,0,0-47,35.94c-14.2-39.37-54.8-65.06-98.81-59.53-47.77,6-82.55,46.66-81.39,93a39.06,39.06,0,0,0-33-11.51C708.13,547,693,566.14,695.62,587.06a37.43,37.43,0,0,0,6.87,17.4,67.59,67.59,0,0,0-12.19.44c-35.12,4.41-60.5,34.78-58.64,69a46.33,46.33,0,0,0-35.37-10.21c-25.23,3.18-43.16,25.83-40,50.6s26.1,42.28,51.33,39.1a47.17,47.17,0,0,0,9.06-2.05c10.08,24.82,36.26,40.78,64.57,37.22a61.36,61.36,0,0,0,52.52-47.45c12.38,42.29,54.59,70.5,100.51,64.73,41.57-5.22,73.3-36.68,80.07-75.25a94.08,94.08,0,0,0,114.84-34.77c5.89,32.43,36.68,54.92,70.39,50.68a64,64,0,0,0,45.56-28.2,34.18,34.18,0,0,0,18.9,3c18.54-2.33,31.72-19,29.43-37.19S1174.24,653,1155.7,655.33Z"/><path class="cls-7" d="M569.78,670.43a35.4,35.4,0,0,0-6.73.86c-8.34-21-29-36.21-53.53-37.82a35.1,35.1,0,0,0,2.31-13.64c-.61-20.41-18.58-36.43-40.13-35.78l-1.05.06a51.83,51.83,0,0,0,12-34.59c-.89-29.66-27-52.94-58.32-52-21.51.65-39.87,12.55-49,29.55-10.11-38.16-47.14-65.82-90.4-64.51C238,464,200.37,499,197.17,542.5a38.64,38.64,0,0,0-31-13.71c-20.95.63-37.44,17.23-36.85,37.07a34.37,34.37,0,0,0,5,16.91,69.57,69.57,0,0,0-11.88-.66c-34.52,1-62,27.27-63.4,59.47A45.93,45.93,0,0,0,25.72,628.9c-24.8.74-44.33,20.39-43.62,43.88S3.48,714.71,28.29,714a48.27,48.27,0,0,0,9-1.13c7.46,24.15,31.4,41.42,59.22,40.58,26.21-.79,48-17.4,55.45-39.84,8.07,40.73,46.42,70.9,91.56,69.54,40.86-1.23,74.61-27.92,84.8-63.47a94,94,0,0,0,46.22,10.43,92.42,92.42,0,0,0,68.56-32.9c2.68,30.93,30.48,54.71,63.62,53.72a63.4,63.4,0,0,0,46.88-22.42A34.09,34.09,0,0,0,571.66,733c18.23-.55,32.59-15,32.07-32.26S588,669.88,569.78,670.43Z"/><rect class="cls-8" x="16.65" y="14.93" width="1150.88" height="682.67"/><path class="cls-9" d="M376.56,444.31v0Zm2.19-.74v0Zm-2.23-.93a1.36,1.36,0,0,0,0,.2A1.36,1.36,0,0,1,376.52,442.64Zm-.67-1.8a2.7,2.7,0,0,0-.25-.34A2.7,2.7,0,0,1,375.85,440.84Zm.56,1.29c0-.08-.05-.16-.08-.24C376.36,442,376.38,442.05,376.41,442.13Zm-.22-.67-.15-.29ZM366,463.07l0,0Zm.76-.9,0,0Z"/><path class="cls-10" d="M457.16,560.3c5.77,73,5.28,131.07,2.22,189.3h.06s11.47-73.37,5.14-137.85-14.22-135.3,3.59-259.14l-2.25-.72A882.42,882.42,0,0,0,457.16,560.3Z"/><path class="cls-11" d="M452.06,546c4.08,82.24,10.81,143.69,7.38,203.63h-.06c3.06-58.23,3.55-116.35-2.22-189.3a882.6,882.6,0,0,1,8.76-208.43l-1.86-.61C456.05,399.32,448.26,469.13,452.06,546Z"/><path class="cls-10" d="M657.16,560.3c5.77,73,5.28,131.07,2.22,189.3h.06s11.47-73.37,5.14-137.85-14.22-135.3,3.59-259.14l-2.25-.72A882.42,882.42,0,0,0,657.16,560.3Z"/><path class="cls-11" d="M652.06,546c4.08,82.24,10.81,143.69,7.38,203.63h-.06c3.06-58.23,3.55-116.35-2.22-189.3a882.6,882.6,0,0,1,8.76-208.43l-1.86-.61C656.05,399.32,648.26,469.13,652.06,546Z"/><path class="cls-11" d="M215.74,592.42c3.31,78,8.21,136.32,5.43,193.18h.51A1527.57,1527.57,0,0,0,219.88,606,976.6,976.6,0,0,1,227,408.28l-1.52-.57C219,453.3,212.65,519.53,215.74,592.42Z"/><path class="cls-10" d="M219.88,606a1527.57,1527.57,0,0,1,1.8,179.58h.49S231,716,225.9,654.82,214.36,526.47,228.81,409L227,408.3A976.39,976.39,0,0,0,219.88,606Z"/><path class="cls-12" d="M653.16,689.47c-1.7-7.25-8.45-10.22-15.13-11.39a28.36,28.36,0,0,0-11,.39,21.16,21.16,0,0,0-.92-4.39c-1.65-5-6.1-8.2-10.83-10a24,24,0,0,0-14.8-.88,18.55,18.55,0,0,0-5.58,2.55c-.51-3.91-1.94-7.64-5.31-10.09-4.31-3.15-9-3.7-14.12-2.32a19.43,19.43,0,0,0-11.19,8.07,28.37,28.37,0,0,0-2,3.39,29.75,29.75,0,0,0-7.28-2.71c-6.18-1.54-12.29,0-17.56,3.41a27.1,27.1,0,0,0-10.59,12.92,14.35,14.35,0,0,0-.62,2.28c-.4-.17-.78-.35-1.18-.51a29.15,29.15,0,0,0-11.88-2.4,24.92,24.92,0,0,0-15.7,6.51,25.07,25.07,0,0,0-11.08-2.12A17.3,17.3,0,0,0,469,694.83c-2,6.84,1.65,13.56,8.07,16.29,5.05,2.15,10.78,1.6,16,.14a.76.76,0,0,1,.06.16,16.63,16.63,0,0,0,6.36,7.09,17.24,17.24,0,0,0-.38,2.86,15.55,15.55,0,0,0,8.45,14.33c6,3.11,12.86,3.83,19.49,3.24a27.39,27.39,0,0,0,14.25-5.19,27,27,0,0,0,6,6.24c6.06,4.55,14.24,5.54,21.6,5a43.17,43.17,0,0,0,22.44-8.35,27.9,27.9,0,0,0,8.7-10c.43.21.85.42,1.3.59,4.76,2,10.34,1.38,15.13-.25a27.8,27.8,0,0,0,12.43-9.35,25,25,0,0,0,3.6-6.28,7.23,7.23,0,0,0,.48-2.12,21.93,21.93,0,0,0,10.6-2.61C649.86,703.18,654.94,697,653.16,689.47Z"/><path class="cls-12" d="M645.31,705.8a18.75,18.75,0,0,1-7.95,2.24c-1.57.18-3.16.27-4.75.32-1.12,0-2.41.11-3.67,0a28.31,28.31,0,0,0,4.52.8,6.64,6.64,0,0,1-.3,1.12,19,19,0,0,1-3.16,5.34,28.4,28.4,0,0,1-10.49,8.15,24.63,24.63,0,0,1-13.12,2,15,15,0,0,1-2.78-.68,15.68,15.68,0,0,0,1-5.82.53.53,0,0,0,0-.13c-.09,2.29-1.42,4.59-2.56,6.45a22.7,22.7,0,0,1-2.73,3.67A32.81,32.81,0,0,1,592.8,735,45,45,0,0,1,572,742.4a35,35,0,0,1-19.19-3.26,24.88,24.88,0,0,1-7.07-5.49,12.55,12.55,0,0,1-2.65-3.15c-1.43-2.41-1.8-5.06-2.23-7.75a16.44,16.44,0,0,0,2.29,9.29,35.9,35.9,0,0,1-27.2,2.69c-5.18-1.59-9.37-4.49-11.34-9.72a12.89,12.89,0,0,1-.8-4,8,8,0,0,1,.58-5.84c1.29-2.39,3.32-3.59,5.55-4.68-2.22-.07-4.14,1.74-5.43,3.38a9.37,9.37,0,0,0-1.16,1.87,16.28,16.28,0,0,1-2.76-2.3,15.82,15.82,0,0,1-4.67-5.76,27.79,27.79,0,0,1-1.94-4.84c-.15-.46-.27-.94-.39-1.4a26.92,26.92,0,0,0,1.86,8.6,33.94,33.94,0,0,1-11.68.07c-6-1.15-10.86-6-10.57-12.34.34-7.24,6.87-13.13,13.84-13.7a34.3,34.3,0,0,1,10.69.75,11.83,11.83,0,0,1,1.64.48,20.49,20.49,0,0,0-2.71,3.52c-.24.53-.45,1.07-.66,1.62a17.5,17.5,0,0,1,5.81-5.92,25.2,25.2,0,0,1,16.09-5.94,29.1,29.1,0,0,1,11.17,2.6,12.22,12.22,0,0,0,.28,4.72,12.49,12.49,0,0,1,2-7.67c.25-.56.53-1.11.81-1.63a28.33,28.33,0,0,1,12.06-11.39,22.68,22.68,0,0,1,17.47-.73,31.69,31.69,0,0,1,3.13,1.21l0,0a4.87,4.87,0,0,1,.53.21h0a.16.16,0,0,1,.09.05q.38.15.75.33a34.14,34.14,0,0,1,3.07,1.57,12.56,12.56,0,0,0-3-2.48l-.48-.3c.52-1,1.09-1.91,1.68-2.79a17.38,17.38,0,0,1,10.54-7.36,19.59,19.59,0,0,1,6.64-.62,13.94,13.94,0,0,1,5.77,2.21,12.89,12.89,0,0,1,5.9,7.92,8,8,0,0,1,.48,1.24,15.19,15.19,0,0,1,1,3.33.51.51,0,0,0,.22-.39c0-.56-.05-1.11-.1-1.66a24.83,24.83,0,0,1,3.16-1.39c4.66-1.74,9.82-1.41,14.51,0,4.34,1.29,8.69,4,11,8a15.57,15.57,0,0,1,1.89,5.36c-2.28.69-4.88,1.92-6.18,3.82a14.88,14.88,0,0,1,10.3-3.31,31,31,0,0,1,7.72.8c5.91,1.34,11.59,3.88,13.42,10.18C655.56,696.86,650.61,702.76,645.31,705.8Z"/><path class="cls-13" d="M615.54,696.92c2.8,3.91,2.8,9.52,8.4,11.19-2.8,4.48-10.08,6.16-14,3.36-3.37-2.11-4.52-5.48-6.56-8.46.26,9-4.19,18.75-12.47,21.34-15.11,5.6-34.15,6.16-46.47-4.48-2.65-2.65-2.74-6.82-2-11-2.9,4-4.48,8.9-3.59,13.77-5,.57-9.52,1.68-14.55,1.12-6.17-1.12-15.13-4.48-13.44-12.32a13.46,13.46,0,0,1,5.42-6.87c-5.36.61-11.17,1.89-13.82,6.31a20.3,20.3,0,0,1-8-17.81c-3,3.36-5.19,8.07-3.78,12.77-7.95,1.68-16.2-2.9-17.31-9.76a12.87,12.87,0,0,0-.19,1.64c-.29,6.3,4.59,11.19,10.57,12.34a33.94,33.94,0,0,0,11.68-.07,26.92,26.92,0,0,1-1.86-8.6c.12.46.24.94.39,1.4a27.79,27.79,0,0,0,1.94,4.84,15.82,15.82,0,0,0,4.67,5.76,16.28,16.28,0,0,0,2.76,2.3,9.37,9.37,0,0,1,1.16-1.87c1.29-1.64,3.21-3.45,5.43-3.38-2.23,1.09-4.26,2.29-5.55,4.68a8,8,0,0,0-.58,5.84,12.89,12.89,0,0,0,.8,4c2,5.23,6.16,8.13,11.34,9.72a35.9,35.9,0,0,0,27.2-2.69,16.44,16.44,0,0,1-2.29-9.29c.43,2.69.8,5.34,2.23,7.75a12.55,12.55,0,0,0,2.65,3.15,24.88,24.88,0,0,0,7.07,5.49A35,35,0,0,0,572,742.4,45,45,0,0,0,592.8,735a32.81,32.81,0,0,0,6.53-5.74,22.7,22.7,0,0,0,2.73-3.67c1.14-1.86,2.47-4.16,2.56-6.45a.53.53,0,0,1,0,.13,15.68,15.68,0,0,1-1,5.82,15,15,0,0,0,2.78.68,24.63,24.63,0,0,0,13.12-2A28.4,28.4,0,0,0,630,715.65a19,19,0,0,0,3.16-5.34,6.64,6.64,0,0,0,.3-1.12,28.31,28.31,0,0,1-4.52-.8c1.26.08,2.55,0,3.67,0,1.59-.05,3.18-.14,4.75-.32a18.75,18.75,0,0,0,7.95-2.24c4.12-2.36,8-6.45,8.67-11.22C645.19,706,625.87,708.34,615.54,696.92Z"/><path class="cls-14" d="M514.32,505.84c.69-.7,1.42-1.59,2.24-2.61,1.85,1,5.24,2.59,6.15.3.87-2.14-1.18-3.89-2.55-4.8l1.74-2.09c5.36-6.21,10.67-9.75,13.62-7.83a3.34,3.34,0,0,1,1.51,2.33c-3.52,7.65-13.29,27.54-23.56,35.2-.94-.65-2.74-2.17-5.11-4.23,2.36-2.85,7.87-9.54,9-12C518.37,507.85,515.83,506.45,514.32,505.84Z"/><path class="cls-14" d="M522.71,503.53c-.91,2.29-4.3.75-6.15-.3,1.08-1.32,2.26-2.87,3.6-4.5C521.53,499.64,523.58,501.39,522.71,503.53Z"/><path class="cls-14" d="M537,491.14c.51,2.74-1.29,7.55-6,15.81-6.51,11.39-13.17,21.95-17.14,19.65-.09-.06-.24-.17-.39-.26C523.74,518.68,533.51,498.79,537,491.14Z"/><path class="cls-14" d="M510.88,507.41c.95.51,2.08-.18,3.44-1.57,1.51.61,4,2,3,4.27-1.11,2.46-6.62,9.15-9,12-3.27-2.87-7.61-6.76-12.19-10.94,2.17-4,4.94-8.34,6.56-10.8C506.48,503.72,509.49,506.34,510.88,507.41Z"/><path class="cls-14" d="M474.38,475.06c5.48,4.55,19.16,17.1,28.35,25.31-1.62,2.46-4.39,6.79-6.56,10.8C484,500,470,487,470,487s-6.32,4.69-9.92,7.27-4-20.22-4-20.22S466.69,468.65,474.38,475.06Z"/><path class="cls-14" d="M519.63,499.4c.18-.23.34-.44.53-.67,1.37.91,3.42,2.66,2.55,4.8-.57,1.44-2.12,1.36-3.66.85A3.52,3.52,0,0,0,519.63,499.4Z"/><path class="cls-15" d="M517.34,510.11c1-2.26-1.51-3.66-3-4.27.69-.7,1.42-1.59,2.24-2.61,1.85,1,5.24,2.59,6.15.3.87-2.14-1.18-3.89-2.55-4.8.49-.6,1-1.24,1.56-1.86,3.56,3.69,8-.65,11-6,.72-1.26.88-2.07.69-2.58a3.44,3.44,0,0,1,2.12.51,3.34,3.34,0,0,1,1.51,2.33c-3.52,7.65-13.29,27.54-23.56,35.2-.94-.65-2.74-2.17-5.11-4.23C510.72,519.26,516.23,512.57,517.34,510.11Z"/><path class="cls-14" d="M525.48,490.29c.51-.84,1-1.86,1.64-3,2,.62,5.67,1.42,6.08-1,.38-2.28-2-3.57-3.52-4.15.41-.78.83-1.59,1.28-2.4,3.92-7.21,8.35-11.8,11.64-10.55a3.34,3.34,0,0,1,2,1.95c-1.81,8.23-7.17,29.75-15.58,39.38-1.05-.45-3.14-1.53-5.9-3.06,1.71-3.26,5.68-11,6.25-13.61C529.85,491.39,527.08,490.56,525.48,490.29Z"/><path class="cls-14" d="M533.2,486.26c-.41,2.43-4.06,1.63-6.08,1,.77-1.52,1.61-3.29,2.56-5.16C531.23,482.69,533.58,484,533.2,486.26Z"/><path class="cls-14" d="M544.56,471.11c1.08,2.58.34,7.66-2.55,16.73-4,12.52-8.24,24.22-12.59,22.84l-.44-.19C537.39,500.86,542.75,479.34,544.56,471.11Z"/><path class="cls-14" d="M522.44,492.54c1,.3,2-.61,3-2.25,1.6.27,4.37,1.1,3.85,3.53-.57,2.62-4.54,10.35-6.25,13.61-3.8-2.09-8.86-5-14.21-8.1,1.26-4.39,3.05-9.2,4.12-11.93C517.37,489.88,520.87,491.8,522.44,492.54Z"/><path class="cls-14" d="M479.94,468.63c6.31,3.3,22.34,12.68,33.05,18.77-1.07,2.73-2.86,7.54-4.12,11.93-14.28-8.31-30.66-18.09-30.66-18.09s-5.19,5.91-8.17,9.2-8.15-18.92-8.15-18.92S471.05,464,479.94,468.63Z"/><path class="cls-14" d="M529.29,482.85c.14-.23.26-.49.39-.74,1.55.58,3.9,1.87,3.52,4.15-.25,1.53-1.8,1.78-3.41,1.59A3.53,3.53,0,0,0,529.29,482.85Z"/><path class="cls-15" d="M529.33,493.82c.52-2.43-2.25-3.26-3.85-3.53.51-.84,1-1.86,1.64-3,2,.62,5.67,1.42,6.08-1,.38-2.28-2-3.57-3.52-4.15.36-.7.74-1.42,1.13-2.15,4.25,2.87,7.66-2.31,9.48-8.17.43-1.4.42-2.22.14-2.68a3.33,3.33,0,0,1,4.13,2c-1.81,8.23-7.17,29.75-15.58,39.38-1.05-.45-3.14-1.53-5.9-3.06C524.79,504.17,528.76,496.44,529.33,493.82Z"/><path class="cls-16" d="M446.31,479.09l15.94-9.19S471,480.68,476.36,498c-25.08,19-46.52,28.06-60.68,7.32-2.33-4.81-1-7.7-1-7.7Z"/><path class="cls-17" d="M429.36,440.32s6.57,3.63,12.56-3.16,7.71-16.27,7.71-16.27-4.37-4.38-3.32-5.94,5.52,1.62,5.52,1.62-5.12-12.91-2.1-14,4.3,11.31,4.3,11.31,3-11,5.39-10.44-1.37,11.12-1.37,11.12,7.13-6.33,8.52-5.11-6.75,7.7-6.75,7.7,8.86-2,9.67-.39-8.06,3.61-8.06,3.61,2,7.81-5.45,8.94c-3.13,7.47-9.71,17.76-14.56,19.29s-12.68.33-12.68.33Z"/><g class="cls-18"><path class="cls-19" d="M429.36,440.32s6.57,3.63,12.56-3.16,7.71-16.27,7.71-16.27-3.87-3.89-3.45-5.64c.75,2.26,2,4.23,4.56,5.11-.05,5-3.43,12.35-8.15,18.07s-3.93,9.51.72,6.49,11.3-15.81,11.3-15.81a1.7,1.7,0,0,1-.64-1.65c5.46,1.58,7.37-5.15,6.63-8.28,4.81-.5,7.35-1.59,8.68-2.65a.6.6,0,0,1,.21.21c.82,1.62-8.06,3.61-8.06,3.61s2,7.81-5.45,8.94c-3.13,7.47-9.71,17.76-14.56,19.29s-12.68.33-12.68.33Z"/></g><path class="cls-16" d="M428.13,451.68l3.19-13.59s-14.43-2.79-21.83-2.09l-.28,4.19Z"/><path class="cls-16" d="M399.22,435.6c11.13,4.13-2.07,33.95-2.07,33.95-12-5.67-16.19-7.22-16.19-7.22S390.79,436.66,399.22,435.6Z"/><path class="cls-20" d="M403.49,441.84c-.45-3-1.71-5.29-4.27-6.24l.55-5.71,9.32,2.25s.2,2.23.51,6C409.6,438.17,410.64,445.74,403.49,441.84Z"/><path class="cls-16" d="M403.49,441.84c7.15,3.9,6.11-3.67,6.11-3.67,9.29,5.35,24.32,15.78,40.73,40.23l-34.78,27.33a127.18,127.18,0,0,1-18.4-36.18S405,451.86,403.49,441.84Z"/><path class="cls-21" d="M398.66,377.15s-11.86-11.45-28.3-1.56S352.93,408.44,356.31,427c2.32,12.69-4.92,13-7.22,11.22,1.52,6,6.12,8,10,6-4.06,6.74,2.73,16.35,6.58,18.12-2.56-3.49,2.05-10.61,2.05-10.61s2.05,16.33,28.56,13.33c-9.29-2.86-10-14.68-10-14.68s5.43,6.45,8.57,5.77-.73-4-6.69-12.32S370.94,406.5,398.66,377.15Z"/><path class="cls-17" d="M382.73,418.41c-3.19.63-8.33-8-4.36-10s6.56,2.94,6.56,2.94.76-12.09,1.77-18.68c2.48,5,5.55,10.55,5.55,10.55s2.6-6.76,2.57-11.89a21.2,21.2,0,0,0,7.8,4.65s-.16-1.57-2.55-5.28c6.77,4.64,18.68,5.3,18.68,5.3s-1.33-4.6-4.7-6.12c2.32-.09,8.86,3.74,11.65,8.36a33.94,33.94,0,0,1-.12,7.66c-.72,6.65.07,7.89,1.17,10.66s1,8.63-11.69,14.81-25-.24-28.64-3.73C386.42,427.61,383.37,422.62,382.73,418.41Z"/><path class="cls-22" d="M368.45,410.09c-2.07-12.75,1.54-19.51,8.53-22.7,0,0,8.44-17,30.19-12.71,13.47,4,21.49,10.95,22,23.41-2.12-4.81-4.65-6-4.65-6a9,9,0,0,1,2.16,7l-1-.89c-2.79-4.62-9.33-8.45-11.65-8.36,3.37,1.52,4.7,6.12,4.7,6.12s-11.91-.66-18.68-5.3c2.39,3.71,2.55,5.28,2.55,5.28a21.2,21.2,0,0,1-7.8-4.65c0,5.13-2.57,11.89-2.57,11.89s-3.07-5.56-5.55-10.55c-1,6.59-1.77,18.68-1.77,18.68s-2.61-5-6.56-2.94,1.17,10.66,4.36,10c.64,4.21,3.69,9.2,3.69,9.2C384.17,428.4,370.53,422.82,368.45,410.09Z"/><path class="cls-23" d="M379.45,412.17a.86.86,0,0,1,.26-.1.64.64,0,0,1,.3-.06h.18l.2,0a2.47,2.47,0,0,1,.42.17,3.93,3.93,0,0,1,.42.29c.13.14.27.24.4.39a3.92,3.92,0,0,1,.37.46c.11.16.24.31.34.49l.32.49.52.89c.3.55.53.9.53.9a8.57,8.57,0,0,0-.28-1,3.56,3.56,0,0,0-.19-.47c-.07-.17-.14-.36-.22-.52l-.3-.54c-.1-.18-.24-.35-.35-.52a4.72,4.72,0,0,0-.41-.48,3.63,3.63,0,0,0-.47-.42,2.27,2.27,0,0,0-.54-.27,1.7,1.7,0,0,0-.52-.12h-.25l-.2.05a1.6,1.6,0,0,0-.32.15A.78.78,0,0,0,379.45,412.17Z"/><path class="cls-23" d="M381.47,415.76a3.19,3.19,0,0,0,.2-.36,3.7,3.7,0,0,1,.17-.35c.05-.13.09-.27.15-.39a4.92,4.92,0,0,1,.33-.72.83.83,0,0,0,.08-.12.86.86,0,0,1,.07-.1l.08-.08h-.11a.26.26,0,0,0-.15,0,.89.89,0,0,0-.16.09.86.86,0,0,0-.32.29,1.76,1.76,0,0,0-.24.42,2.12,2.12,0,0,0-.16.87A1.91,1.91,0,0,0,381.47,415.76Z"/><path class="cls-24" d="M421.32,411.14c-.07,1.32.25,2.42.68,2.44s.84-1,.9-2.36-.24-2.43-.68-2.45S421.38,409.81,421.32,411.14Z"/><path class="cls-12" d="M422,409.73c0,.43.21.75.41.74s.33-.37.29-.79-.21-.74-.4-.74S422,409.31,422,409.73Z"/><path class="cls-24" d="M402.4,410.87c0,1.34.25,2.42.69,2.44s.83-1,.9-2.38-.24-2.41-.68-2.42S402.46,409.55,402.4,410.87Z"/><path class="cls-12" d="M403.11,409.47c0,.42.2.74.4.73s.32-.36.29-.79-.21-.74-.41-.73S403.07,409,403.11,409.47Z"/><path class="cls-23" d="M414.69,413.34l.77.89c.25.27.51.59.78.92a10.91,10.91,0,0,1,.8,1.09,1.75,1.75,0,0,1,.23.56v.09l0,.17a1.08,1.08,0,0,1-.15.22,3.71,3.71,0,0,1-.89.72c-.59.36-1,.57-1,.57a5,5,0,0,0,1.12-.38,3,3,0,0,0,1.05-.69,1.77,1.77,0,0,0,.24-.32l.06-.16a2.5,2.5,0,0,0,0-.25,1.83,1.83,0,0,0-.28-.73,11.88,11.88,0,0,0-2.68-2.7Z"/><path class="cls-22" d="M409.56,403.18a8.5,8.5,0,0,0-.91-2.09,7,7,0,0,0-.65-.91,4.24,4.24,0,0,0-.95-.88,2.85,2.85,0,0,0-1.35-.53l-.38,0a2.6,2.6,0,0,0-.39.05l-.19,0h-.05l-.05,0h0l-.08,0-.32.1c-.2.09-.44.24-.66.36s-.39.28-.57.43a7.71,7.71,0,0,0-.94,1,10.14,10.14,0,0,0-1.28,2,12.07,12.07,0,0,0-.87,2.09l.33-.51c.21-.34.54-.8.92-1.35a17.74,17.74,0,0,1,1.41-1.75,10.41,10.41,0,0,1,.91-.84,5.74,5.74,0,0,1,.5-.36,3.78,3.78,0,0,1,.53-.28l.31-.12.08,0h0c-.06,0,0,0,0,0h0l.14,0,.28,0,.28,0a2.73,2.73,0,0,1,.54.11,3,3,0,0,1,.51.25,4.32,4.32,0,0,1,.89.69,7.17,7.17,0,0,1,.71.78,13.44,13.44,0,0,1,1,1.3Z"/><path class="cls-22" d="M425.88,402.47a1.11,1.11,0,0,0-.06-.3,2,2,0,0,0-.39-.76A1.3,1.3,0,0,0,425,401a.83.83,0,0,0-.35-.14,1,1,0,0,0-.38,0,1.87,1.87,0,0,0-.74.18,4.72,4.72,0,0,0-.61.43,4.61,4.61,0,0,0-.48.51c-.15.17-.26.37-.39.54a9.17,9.17,0,0,0-.53,1,7.64,7.64,0,0,0-.33,1.07,9.26,9.26,0,0,0,.72-.84l.7-.85.4-.44a3.41,3.41,0,0,1,.43-.42,3.55,3.55,0,0,1,.44-.35,1.38,1.38,0,0,1,.45-.17.86.86,0,0,1,.22,0,.39.39,0,0,1,.21,0,1.12,1.12,0,0,1,.4.18,3.24,3.24,0,0,1,.56.51Z"/><path class="cls-25" d="M417.4,423.21s-8.58,1.86-14.36-2.13c1.06,5.62,3.61,8.4,5.89,8.5S415.31,423.91,417.4,423.21Z"/><path class="cls-12" d="M403.75,423.84a22.12,22.12,0,0,1-.71-2.76c3.23,2.23,7.34,2.63,10.34,2.55C412.42,425,409.59,427.68,403.75,423.84Z"/><path class="cls-26" d="M409.74,429.42a2.08,2.08,0,0,1-.81.16c-1.62-.07-3.39-1.51-4.64-4.38A6.9,6.9,0,0,1,409.74,429.42Z"/><path class="cls-23" d="M408.91,429.82c-2.06-.1-4.91-2.44-6.1-8.7l-.1-.57.46.33a16.21,16.21,0,0,0,8.92,2.52,25.66,25.66,0,0,0,5.26-.42l.12.45a13.5,13.5,0,0,0-3.4,2.79c-1.83,1.79-3.72,3.63-5.12,3.6Zm3.17-5.94a17.18,17.18,0,0,1-8.7-2.29c.85,3.85,2.84,7.63,5.56,7.75l0,.24v-.23c1.2,0,3.1-1.83,4.77-3.46a29.26,29.26,0,0,1,2.44-2.25A26.14,26.14,0,0,1,412.08,423.88Z"/><path class="cls-27" d="M405.14,425.37c1.53,2.89,3.06,3.15,4,2.94a6.38,6.38,0,0,1,.61,1.11,2.08,2.08,0,0,1-.81.16c-1.62-.07-3.39-1.51-4.64-4.38A7.1,7.1,0,0,1,405.14,425.37Z"/><g class="cls-18"><path class="cls-19" d="M378.37,408.38c3.95-2,6.56,2.94,6.56,2.94s.76-12.09,1.77-18.68c2.48,5,5.55,10.55,5.55,10.55s2.6-6.76,2.57-11.89a21.2,21.2,0,0,0,7.8,4.65s-.16-1.57-2.55-5.28c6.77,4.64,18.68,5.3,18.68,5.3s-1.33-4.6-4.7-6.12c2.32-.09,8.86,3.74,11.65,8.36a4.37,4.37,0,0,1,.05.47,31.32,31.32,0,0,0-6.88-5.57s.56.6.05,3.7c-7.34.71-15.87-2.69-15.87-2.69l.26,3.11s-3.65,1-7.33-2.35c-.58,3.75-3.91,11.23-3.91,11.23s-.62.06-1.66-2.21c-.66,5.7.51,16.36,3,23.06s12.54,8.91,24,1.63,9-10.8,8.14-14.76a10.22,10.22,0,0,1-.18-2.75,14.11,14.11,0,0,0,1.42,5.45c1.09,2.76,1,8.63-11.69,14.81s-25-.24-28.64-3.73c0,0-3.05-5-3.69-9.2C379.54,419,374.4,410.41,378.37,408.38Z"/></g><path class="cls-16" d="M403.49,441.84a9.84,9.84,0,0,0,2.38,1,87.12,87.12,0,0,0,3,20c3.62,12.46,16.53,24.2,27.57,17,9.43-6.14-3.38-22.4-7.26-26.95a150.52,150.52,0,0,1,21.14,25.52l-34.78,27.33a127.18,127.18,0,0,1-18.4-36.18S405,451.86,403.49,441.84Z"/><path class="cls-17" d="M390.29,466.47l-3.08,8.07s9.57,3.36,15.38,7.56c3-4.38,3.51-5.07,8.42-5,5.55,0,7.3,0,9.66,2.87s2.55,4.78,1,5.37c1.78,2.89,2.16,5.84-.81,4.93,2.46,2.35,1.05,4-1.1,3.51,1.23,2.23-1,3.45-3.58,1.85s-3.95-2.62-6.25-2.08-6.4-.13-8.1-3.53c-11.76-5.31-22.08-9.62-22.7-12.15s4.05-14.48,4.05-14.48Z"/><path class="cls-23" d="M414.85,479.72a4.18,4.18,0,0,1,.2.47c.14.28.29.72.5,1.22.1.26.19.54.29.84l.29.92c.07.34.17.69.24,1a5.18,5.18,0,0,1,.21,1c.06.38.11.72.16,1.07a6.2,6.2,0,0,1,.1,1c0,.34.05.68.06,1a3.56,3.56,0,0,1,0,.87c-.07,1.09-.07,1.83-.07,1.83s.18-.69.39-1.8a3.15,3.15,0,0,0,.1-.89c0-.32,0-.66,0-1a6.42,6.42,0,0,0,0-1.07c-.05-.37-.11-.75-.15-1.11a6.28,6.28,0,0,0-.24-1.08c-.1-.37-.21-.7-.31-1a7.69,7.69,0,0,0-.38-.92,7.12,7.12,0,0,0-.39-.83A8.77,8.77,0,0,0,414.85,479.72Z"/><path class="cls-23" d="M421.63,485.3a3.64,3.64,0,0,0-.62-.77,8.11,8.11,0,0,0-.78-.65,6.18,6.18,0,0,0-1-.6,6,6,0,0,0-1.05-.45,6.33,6.33,0,0,0-1-.22,5.19,5.19,0,0,0-1-.1l.89.4a6.71,6.71,0,0,1,.89.41,8.78,8.78,0,0,1,1,.47c.34.15.65.36,1,.5l.84.49C421.3,485.08,421.63,485.3,421.63,485.3Z"/><path class="cls-23" d="M420.31,489.69a3.16,3.16,0,0,0-.41-.37,6,6,0,0,0-1-.58,6.93,6.93,0,0,0-1.12-.34,2.36,2.36,0,0,0-.55-.06l.42.36a8.42,8.42,0,0,0,1,.58,6.2,6.2,0,0,0,1.1.34Z"/><path class="cls-23" d="M419.16,493.42a1.77,1.77,0,0,0-.32-.33,3.93,3.93,0,0,0-.79-.57,5.44,5.44,0,0,0-.92-.33,2.09,2.09,0,0,0-.45,0,2.17,2.17,0,0,0,.29.33,3.27,3.27,0,0,0,.82.56,4.2,4.2,0,0,0,.91.33A1.82,1.82,0,0,0,419.16,493.42Z"/><g class="cls-18"><path class="cls-19" d="M379.48,474.41c.54,2.28,2.22,2.68,4.91,4.25,5.33,3.57,17.18,6.77,18.21,8.62s3,3.6,7.74,3.88,5.37-.88,4.91-5.9-1.18-8.08-4.24-8.2c5.55,0,7.3,0,9.66,2.87s2.55,4.78,1,5.37c1.78,2.89,2.16,5.84-.81,4.93,2.46,2.35,1.05,4-1.1,3.51,1.23,2.23-1,3.45-3.58,1.85s-3.95-2.62-6.25-2.08-6.4-.13-8.1-3.53c-11.76-5.31-22.08-9.62-22.7-12.15A9.6,9.6,0,0,1,379.48,474.41Z"/></g><g class="cls-18"><path class="cls-19" d="M387.69,465.33l2.6,1.14-2.93,7.66c-.83-.1-1.72-.22-2.66-.4C385.32,472.25,386.64,468.46,387.69,465.33Z"/></g><path class="cls-14" d="M541.32,696.32c1.21,2.72,6.59,2.13,10.44.28,0-.69,0-1.44,0-2.25,0-3.71.19-11.36.51-20a50.41,50.41,0,0,0-9.86-.1c-.4,5.9-.65,11.54-.63,16.15-1.16.2-2.38.4-3.65.64A14.91,14.91,0,0,1,541.32,696.32Z"/><path class="cls-14" d="M527.5,699.2c2.4.75,8.77.81,8.24-1.54a19.89,19.89,0,0,0-2.94-5.44,42.39,42.39,0,0,0-4.56,1.42C526.39,696.1,525.65,698.63,527.5,699.2Z"/><path class="cls-15" d="M541.32,696.32a14.91,14.91,0,0,0-3.15-5.26c-1.75.31-3.56.69-5.37,1.16a19.89,19.89,0,0,1,2.94,5.44c.53,2.35-5.84,2.29-8.24,1.54-1.85-.57-1.11-3.1.74-5.56-5.71,2.19-10.27,5.74-10.13,12.05.31,3.73,17.7,2.54,27.42,1,4.14-.71,6-2,6.23-10.08C547.91,698.45,542.53,699,541.32,696.32Z"/><path class="cls-14" d="M552.31,674.37c.55-15,1.43-32.9,2.11-37.59l-8.12-1.11s-2.63,20.48-3.85,38.6A50.41,50.41,0,0,1,552.31,674.37Z"/><path class="cls-14" d="M553.79,643.94c.22-3.26.43-5.78.63-7.16l-8.12-1.11s-.32,2.64-.83,6.88C548.26,642.93,551,643.4,553.79,643.94Z"/><path class="cls-14" d="M518.62,702.06c0-.12.08-.26.12-.37C518.7,701.8,518.66,701.92,518.62,702.06Z"/><path class="cls-14" d="M519.08,700.92c-.12.23-.23.51-.34.77a4.07,4.07,0,0,1,.45-.81Z"/><path class="cls-28" d="M518.62,702.06a10.78,10.78,0,0,0-.51,3.63c.31,3.73,17.7,2.54,27.42,1,2.7-.46,4.4-1.17,5.36-3.83-3.39,1.91-10.12,3.43-20.85,3.71C518.88,706.85,518.15,703.82,518.62,702.06Z"/><path class="cls-14" d="M601.58,695.49c-1,2.78-6.45,2.57-10.42,1-.06-.71-.12-1.44-.18-2.25-.23-3.69-1-11.32-1.87-19.9a51.33,51.33,0,0,1,9.83-.79c.8,5.86,1.43,11.48,1.73,16.1,1.16.11,2.41.23,3.69.37A14.41,14.41,0,0,0,601.58,695.49Z"/><path class="cls-14" d="M615.56,697.41c-2.36.9-8.7,1.42-8.33-1,.25-1.64,1.68-4.18,2.55-5.64a43.92,43.92,0,0,1,4.66,1.1C616.45,694.25,617.36,696.7,615.56,697.41Z"/><path class="cls-15" d="M601.58,695.49a14.41,14.41,0,0,1,2.78-5.48c1.75.2,3.61.45,5.42.79-.87,1.46-2.3,4-2.55,5.64-.37,2.39,6,1.87,8.33,1,1.8-.71.89-3.16-1.12-5.51,5.85,1.8,10.63,5,10.92,11.34-.06,3.73-17.49,3.73-27.29,2.86-4.16-.43-6.11-1.55-6.91-9.62C595.13,698.06,600.54,698.27,601.58,695.49Z"/><path class="cls-14" d="M589.11,674.33c-1.58-14.93-3.68-32.72-4.68-37.36l8-1.65s4,20.23,6.49,38.22A51.33,51.33,0,0,0,589.11,674.33Z"/><path class="cls-14" d="M585.56,644.05c-.45-3.21-.84-5.72-1.13-7.08l8-1.65s.53,2.62,1.3,6.8C591,642.69,588.26,643.34,585.56,644.05Z"/><path class="cls-14" d="M624.62,699.65l-.17-.37C624.52,699.42,624.57,699.54,624.62,699.65Z"/><path class="cls-14" d="M624.08,698.55a6.24,6.24,0,0,1,.37.73,4.85,4.85,0,0,0-.49-.77Z"/><path class="cls-28" d="M624.62,699.65a11.17,11.17,0,0,1,.74,3.59c-.06,3.73-17.49,3.73-27.29,2.86-2.71-.27-4.48-.88-5.59-3.47,3.5,1.7,10.32,2.76,21,2.31C624.67,704.45,625.21,701.37,624.62,699.65Z"/><path class="cls-29" d="M570.85,562.93c9.61,1.56,12.5-7.85,11.14-18.22a65.47,65.47,0,0,1-18.91,0C562.51,550,562.25,561.55,570.85,562.93Z"/><path class="cls-30" d="M582.29,550.43a33.93,33.93,0,0,0-.3-5.72,65.47,65.47,0,0,1-18.91,0,38.89,38.89,0,0,0-.19,6.23A38.09,38.09,0,0,0,582.29,550.43Z"/><path class="cls-29" d="M587.87,546.86s36.32,3.33,55.79,6.62c3.16-4.3,5.6-9.19,7.62-8.91s-1.11,4.22-1.22,6.61c9.27-4.38,12.26-4.8,12.56-3.67s-8.56,5.17-8.56,5.17,12-.2,12.68,2.22-11.56,1.7-11.56,1.7,10.09,2.31,10.16,4.54-11.08-.69-11.08-.69,7.54,5.14,6.55,6.78-9.45-4-9.45-4-5.62,1.42-7.83-2.94c-18.81-1.6-53.39-2.25-53.39-2.25Z"/><path class="cls-31" d="M650.09,550.45a3.82,3.82,0,0,1,.44,1.12,5.07,5.07,0,0,1,.13,1.22,5.45,5.45,0,0,1-.17,1.42,4.76,4.76,0,0,1-.61,1.33,3.17,3.17,0,0,1-.85.92,2.26,2.26,0,0,1-.78.44l-.32.11.19-.27a3.11,3.11,0,0,1,.2-.3c.07-.12.14-.25.24-.39s.15-.3.24-.46.15-.35.23-.51.12-.39.2-.57a4,4,0,0,0,.18-.59,21.09,21.09,0,0,0,.48-2.33C650,550.92,650.09,550.45,650.09,550.45Z"/><path class="cls-29" d="M559.23,545.56s-36.47,0-56.15,1.49c-2.76-4.55-4.75-9.66-6.8-9.56s.73,4.3.63,6.7c-8.84-5.22-11.76-5.91-12.18-4.83s8,5.94,8,5.94-12-1.3-12.82,1.06,11.35,2.74,11.35,2.74-10.24,1.39-10.52,3.59,11.09.34,11.09.34-8,4.44-7.13,6.15,9.77-3.07,9.77-3.07,5.46,1.91,8.05-2.23c18.87.14,53.39,2.64,53.39,2.64Z"/><path class="cls-31" d="M496.94,543.44a3.82,3.82,0,0,0-.53,1.09,4.68,4.68,0,0,0-.25,1.2,4.91,4.91,0,0,0,.06,1.42,4.24,4.24,0,0,0,.46,1.38,3.3,3.3,0,0,0,.78,1,2.21,2.21,0,0,0,.73.51l.29.12-.14-.28-.19-.31c0-.14-.12-.28-.18-.42a2.9,2.9,0,0,1-.21-.47c-.06-.18-.11-.35-.18-.53s-.09-.4-.16-.59a6,6,0,0,1-.12-.61,17.92,17.92,0,0,1-.26-2.35C497,543.94,496.94,543.44,496.94,543.44Z"/><path class="cls-16" d="M588,543.52a52.91,52.91,0,0,1-6,1.19c1.36,10.37-1.53,19.78-11.14,18.22-8.6-1.38-8.34-12.92-7.77-18.22a46.28,46.28,0,0,1-5.05-1.05s-20.87,67.89-22.28,90.41c0,0,34.35,10.08,66.52,2.67C602.27,636.74,595,560.15,588,543.52Z"/><path class="cls-29" d="M549.53,518.26s-5.5-.07-4.82,6.56a5.29,5.29,0,0,0,6.58,4.56C550.43,526.47,550.35,520.57,549.53,518.26Z"/><path class="cls-29" d="M596.26,519.82a36.22,36.22,0,0,1-1.44,9.42c3.59.33,8.49-2,8.12-6.94S598.4,517.23,596.26,519.82Z"/><path class="cls-31" d="M552.69,478.37a2.14,2.14,0,0,1,.79-.05,3.59,3.59,0,0,1,.8.13,3.72,3.72,0,0,1,.85.37,4.44,4.44,0,0,1,.75.59,3.13,3.13,0,0,1,.47.69,2.69,2.69,0,0,1,.21.77,1.08,1.08,0,0,1-.17-.14,4.84,4.84,0,0,0-.39-.38l-.27-.21a3.67,3.67,0,0,0-.29-.23c-.1-.08-.23-.15-.34-.23s-.23-.13-.35-.21c-.47-.28-1-.54-1.38-.74S552.69,478.37,552.69,478.37Z"/><path class="cls-31" d="M621.06,476.12s-.21.21-.52.47-.71.57-1.07.91a7.3,7.3,0,0,0-1,1,3.25,3.25,0,0,0-.3.37l-.14.16a2.06,2.06,0,0,1,.34-1.42,3.78,3.78,0,0,1,.55-.66,3.69,3.69,0,0,1,.71-.48,2.82,2.82,0,0,1,.68-.25A2.17,2.17,0,0,1,621.06,476.12Z"/><ellipse class="cls-29" cx="573.76" cy="520.07" rx="24.34" ry="30.01"/><path class="cls-32" d="M582.14,522.2c-.07,1.62.62,2.95,1.55,3s1.73-1.26,1.8-2.88-.63-2.93-1.55-3S582.21,520.59,582.14,522.2Z"/><path class="cls-12" d="M584.11,521c0,.5.28.89.57.86s.47-.42.45-.9-.3-.87-.58-.87S584.07,520.54,584.11,521Z"/><path class="cls-32" d="M566.75,522.2c.07,1.62-.62,2.95-1.55,3s-1.73-1.26-1.8-2.88.63-2.93,1.55-3S566.68,520.59,566.75,522.2Z"/><path class="cls-12" d="M564.78,521c0,.5-.28.89-.57.86s-.47-.42-.45-.9.3-.87.58-.87S564.82,520.54,564.78,521Z"/><path class="cls-33" d="M567.53,535.34a90.52,90.52,0,0,0,13.32.17,6.61,6.61,0,0,1-7.32,7C569.12,542.31,567.36,538,567.53,535.34Z"/><path class="cls-34" d="M572.35,542.37a4.94,4.94,0,0,0,1.18.18,7.19,7.19,0,0,0,4-.87C575.61,540.18,573.4,541.53,572.35,542.37Z"/><path class="cls-12" d="M573.08,538.9a11.29,11.29,0,0,0,7.71-2.21,9.14,9.14,0,0,0,.06-1.18,88.23,88.23,0,0,1-12-.06C569.06,536.69,569.86,538.75,573.08,538.9Z"/><path class="cls-31" d="M565.82,534.87l.73.11a7.78,7.78,0,0,0,.84.1l1.09.12,1.28.1c.46,0,1,.06,1.44.08s1,.06,1.54.07l1.59,0c.53,0,1.07,0,1.59,0l1.54,0,1.44,0,1.3-.05c.79,0,1.46-.06,1.93-.08h.74l-.72.1-1.94.24-1.29.14-1.45.07-1.55.07c-.52,0-1.06,0-1.6,0l-1.6,0-1.55-.12q-.75,0-1.44-.15l-1.29-.17c-.4-.06-.76-.14-1.08-.2l-.83-.19A7.12,7.12,0,0,1,565.82,534.87Z"/><path class="cls-35" d="M561.31,517.87c.4-1,2.32-1.38,3.71-1.11a6.52,6.52,0,0,1,3.85,2.43c.07.12,0,.21-.18.24a.2.2,0,0,1-.23.07,16.34,16.34,0,0,0-3.85-1.06,3.66,3.66,0,0,0-2.22.64,1.31,1.31,0,0,1-1.18.28.58.58,0,0,1-.47-.56A1.36,1.36,0,0,1,561.31,517.87Z"/><path class="cls-35" d="M587.79,517.87c-.4-1-2.32-1.38-3.71-1.11a6.52,6.52,0,0,0-3.85,2.43c-.07.12,0,.21.18.24a.2.2,0,0,0,.23.07,16.48,16.48,0,0,1,3.85-1.06,3.66,3.66,0,0,1,2.22.64,1.31,1.31,0,0,0,1.18.28.57.57,0,0,0,.47-.56A1.36,1.36,0,0,0,587.79,517.87Z"/><circle class="cls-36" cx="556.72" cy="526.56" r="2.43"/><circle class="cls-36" cx="590.8" cy="526.56" r="2.43"/><path class="cls-37" d="M557.54,503c-2.5,4.72-2.41,11.41-2.41,11.41l9.78.72s.86-7.65,4-10.51C566,511.05,567,515,567,515L581.39,516a25.38,25.38,0,0,0,2.1-9.76c2,4.92-.18,10.5-.18,10.5L594,516a23.44,23.44,0,0,0,.87-9.68c1.65,6.73.72,8.84.72,8.84l1.26-.33s-.29,20.22-8.47,32.05c5,1.45,19.82-13.39,21-33s-11-39.21-26-33.34c-5.15-7.82-21.22-7.32-31.84,5.1,0,0-16.29,16-11.89,43.9,3.79,16.37,13.43,18.23,18.35,17,0,0-8.32-4-6.94-15.91s1.62-16.22,1.62-16.22A107.14,107.14,0,0,1,557.54,503Z"/><path class="cls-12" d="M455.12,288.12c-4-17-19.8-23.94-35.43-26.67a66.48,66.48,0,0,0-25.75.93,48.7,48.7,0,0,0-2.17-10.29c-3.85-11.71-14.27-19.19-25.35-23.47a56.18,56.18,0,0,0-34.64-2,43.57,43.57,0,0,0-13,6c-1.21-9.15-4.53-17.86-12.41-23.6-10.11-7.38-21.14-8.68-33.07-5.45-11.09,3-19.7,9.45-26.18,18.91a63,63,0,0,0-4.58,7.91A71.32,71.32,0,0,0,225.44,224c-14.47-3.58-28.76.13-41.1,8a63.22,63.22,0,0,0-24.77,30.24,30.24,30.24,0,0,0-1.45,5.33c-.93-.42-1.85-.83-2.79-1.21-8.92-3.62-18.13-5.91-27.79-5.6A58.08,58.08,0,0,0,90.8,276c-7.92-3.93-17.24-5-25.93-5-10.1,0-18.81,2.4-26.82,8.67a41.43,41.43,0,0,0-13.95,21C19.38,316.66,28,332.4,43,338.8c11.82,5,25.26,3.75,37.53.32a2.39,2.39,0,0,1,.15.37,39.05,39.05,0,0,0,14.87,16.6,40.86,40.86,0,0,0-.88,6.69c-.76,14,7.58,27.16,19.77,33.52,14,7.28,30.1,8.95,45.61,7.59,11.83-1,23.91-4.86,33.37-12.16a62.59,62.59,0,0,0,14,14.61c14.2,10.65,33.34,13,50.56,11.75a101,101,0,0,0,52.52-19.51c8.27-6.19,15.93-14.09,20.37-23.39,1,.5,2,1,3,1.42,11.16,4.67,24.21,3.18,35.41-.6,11.42-3.85,21.81-12.46,29.1-21.9a59.41,59.41,0,0,0,8.43-14.71,18.1,18.1,0,0,0,1.12-4.94,51.86,51.86,0,0,0,24.8-6.1C447.39,320.22,459.27,305.72,455.12,288.12Z"/><path class="cls-12" d="M436.72,326.31a43,43,0,0,1-18.59,5.24c-3.67.46-7.4.66-11.13.78a83.86,83.86,0,0,1-8.58.07A64.13,64.13,0,0,0,409,334.25a17.44,17.44,0,0,1-.69,2.62,44.5,44.5,0,0,1-7.42,12.49,66.26,66.26,0,0,1-24.53,19.1A57.57,57.57,0,0,1,345.64,373a35.53,35.53,0,0,1-6.5-1.56,37.77,37.77,0,0,0,2.4-13.64.88.88,0,0,0-.05-.29c-.2,5.34-3.33,10.73-6,15.09a53.06,53.06,0,0,1-6.37,8.57,77.93,77.93,0,0,1-15.3,13.45A105.63,105.63,0,0,1,265.12,412c-15.28,1.51-31.19-.66-44.91-7.64a58.21,58.21,0,0,1-16.56-12.83,30.19,30.19,0,0,1-6.22-7.37c-3.34-5.66-4.2-11.87-5.19-18.16-.6,7.56,1.57,15,5.35,21.74A83.82,83.82,0,0,1,133.94,394c-12.13-3.71-22-10.51-26.55-22.73a30.28,30.28,0,0,1-1.87-9.41,18.66,18.66,0,0,1,1.37-13.66c3-5.61,7.74-8.41,13-11-5.2-.18-9.72,4.07-12.72,7.89a22.86,22.86,0,0,0-2.73,4.4A39.29,39.29,0,0,1,98,344.17c-4.78-3.36-8.24-8.32-11-13.5a65.43,65.43,0,0,1-4.55-11.3c-.33-1.1-.63-2.19-.89-3.3A62.77,62.77,0,0,0,86,336.21c-9.06,1.45-18.34,1.86-27.34.14-14-2.68-25.42-14.12-24.73-28.87.79-16.92,16.07-30.7,32.37-32.06a81.05,81.05,0,0,1,25,1.75,33.5,33.5,0,0,1,3.82,1.13,48.78,48.78,0,0,0-6.34,8.23c-.56,1.26-1.07,2.54-1.53,3.83a40.93,40.93,0,0,1,13.58-13.89c10.18-9,24.53-13.8,37.66-13.9,8.84-.07,18,2.67,26.14,6.07a28.77,28.77,0,0,0,.66,11.09,29.25,29.25,0,0,1,4.61-18c.6-1.34,1.25-2.62,1.92-3.8A65.85,65.85,0,0,1,200,231.3c12.9-6.31,27.44-6.31,40.89-1.74,2.52.87,5,1.77,7.31,2.84l-.06.1c.42.15.83.31,1.24.48v0a1.31,1.31,0,0,0,.21.1c.58.25,1.17.52,1.75.8,2.39,1.14,4.89,2.28,7.2,3.68a29.42,29.42,0,0,0-7-5.81c-.36-.24-.75-.45-1.11-.69,1.22-2.28,2.56-4.48,3.93-6.54A40.82,40.82,0,0,1,279,207.27a46.91,46.91,0,0,1,15.55-1.46c5.1.45,9.17,2.76,13.51,5.18,7.26,4,11.49,10.95,13.8,18.56a18.56,18.56,0,0,1,1.12,2.9,35.75,35.75,0,0,1,2.45,7.78,1.18,1.18,0,0,0,.53-.92c-.05-1.3-.13-2.6-.25-3.9a66.23,66.23,0,0,1,7.41-3.25c10.9-4,23-3.28,33.95,0,10.16,3,20.33,9.24,25.66,18.63a37.07,37.07,0,0,1,4.41,12.53c-5.33,1.61-11.41,4.52-14.44,9a34.75,34.75,0,0,1,24.09-7.75,73.5,73.5,0,0,1,18.08,1.88c13.81,3.14,27.1,9.08,31.4,23.81C460.71,305.41,449.14,319.22,436.72,326.31Z"/><path class="cls-12" d="M367.06,305.53c6.54,9.18,6.54,22.28,19.65,26.22-6.55,10.47-23.59,14.4-32.76,7.86-7.91-4.94-10.59-12.86-15.37-19.81.61,21-9.8,43.89-29.19,49.95-35.38,13.1-79.92,14.41-108.75-10.49-6.2-6.19-6.42-16-4.71-25.69-6.8,9.45-10.47,20.84-8.4,32.24-11.8,1.32-22.28,3.94-34.07,2.63C139,365.81,118.07,358,122,339.61c2.35-7.06,7-12.24,12.7-16.1-12.55,1.44-26.15,4.42-32.36,14.79-12.42-9.94-20.12-24.59-18.65-41.71-7.12,7.89-12.17,18.89-8.87,29.92-18.6,3.91-37.91-6.8-40.5-22.85a28.83,28.83,0,0,0-.44,3.82c-.69,14.75,10.74,26.19,24.73,28.87,9,1.72,18.28,1.31,27.34-.14a62.77,62.77,0,0,1-4.35-20.14c.26,1.11.56,2.2.89,3.3a65.43,65.43,0,0,0,4.55,11.3c2.71,5.18,6.17,10.14,11,13.5a39.29,39.29,0,0,0,6.42,5.39,22.86,22.86,0,0,1,2.73-4.4c3-3.82,7.52-8.07,12.72-7.89-5.24,2.54-10,5.34-13,11a18.66,18.66,0,0,0-1.37,13.66,30.28,30.28,0,0,0,1.87,9.41c4.6,12.22,14.42,19,26.55,22.73a83.82,83.82,0,0,0,63.65-6.29c-3.78-6.73-6-14.18-5.35-21.74,1,6.29,1.85,12.5,5.19,18.16a30.19,30.19,0,0,0,6.22,7.37,58.21,58.21,0,0,0,16.56,12.83c13.72,7,29.63,9.15,44.91,7.64a105.63,105.63,0,0,0,48.71-17.36,77.93,77.93,0,0,0,15.3-13.45,53.06,53.06,0,0,0,6.37-8.57c2.66-4.36,5.79-9.75,6-15.09a.88.88,0,0,1,.05.29,37.77,37.77,0,0,1-2.4,13.64,35.53,35.53,0,0,0,6.5,1.56,57.57,57.57,0,0,0,30.72-4.55,66.26,66.26,0,0,0,24.53-19.1,44.5,44.5,0,0,0,7.42-12.49,17.44,17.44,0,0,0,.69-2.62,64.13,64.13,0,0,1-10.58-1.85,83.86,83.86,0,0,0,8.58-.07c3.73-.12,7.46-.32,11.13-.78a43,43,0,0,0,18.59-5.24c9.66-5.5,18.77-15.08,20.3-26.23C436.43,326.85,391.23,332.27,367.06,305.53Z"/><path class="cls-16" d="M308.05,203.24h-.27c-4-.49-38.08-2.91-39.94-2.93,0,0-3.6-.1-8.74.28,3.14,10.79-4.25,13.31-7.76,13.88l-.41,5.62,64.14,4.66-.85-7C308.42,215.05,307.67,208.32,308.05,203.24Z"/><path class="cls-16" d="M308,204.67c0-.49,0-1,.05-1.43h-.27c-4-.49-38.08-2.91-39.94-2.93,0,0-3.6-.1-8.74.28,0,.13,0,.23.07.35C275.45,202.17,291.72,203.46,308,204.67Z"/><path class="cls-16" d="M259.82,206.16a9.27,9.27,0,0,1-.18,1.33c16.38,1.27,32.75,2.54,49.14,3.71a14.47,14.47,0,0,1-.45-1.75C292.16,208.3,276,207.29,259.82,206.16Z"/><path class="cls-16" d="M312.39,216.62q-28.12-2.09-56.27-3.93a11,11,0,0,1-2.24,1.13q30.18,2.27,60.4,4.46l-.06-.55A8.34,8.34,0,0,1,312.39,216.62Z"/><g class="cls-38"><path class="cls-39" d="M272,232.93c4.48-.68,7.78-4,2.68-4.21s-7.86,3-8.52,2.78c-.41-.14-9.17-6.39-16.29-11.49l-13.23-.91c8.71,6.33,24.56,17.32,24.56,17.32a5.34,5.34,0,0,0,.34,4.6s-1.21,12,1,11.65,1.54-11.79,2.41-9.7,4.46,11.05,6,9-4.66-13.11-1.63-10.35,7.75,8.07,8.94,5.77-9.54-9.19-4.87-8,11.74,2.37,8.76-1.07S267.49,233.64,272,232.93Z"/></g><path class="cls-30" d="M277.69,198.16s-4.15,15.16,3.39,16.73,11.4-11.75,11.33-15.67Z"/><path class="cls-30" d="M259.1,200.59a80.37,80.37,0,0,0-20.36,3.92c-13.05,4.65-11.74,7.82-9,10.4s29.92,21.39,29.92,21.39a5.32,5.32,0,0,0,.35,4.62s-1.21,12,1,11.63,1.55-11.79,2.41-9.68,4.46,11,6,8.93-4.67-13.1-1.62-10.32,7.74,8.05,8.93,5.75-9.54-9.2-4.86-8,11.74,2.38,8.75-1.06-14.64-4.62-10.16-5.33,7.78-4,2.68-4.23-7.86,3-8.53,2.78-25.4-18-25.4-18,8.4-3.13,12.53-3.85l-.35,4.94C254.85,213.9,262.24,211.38,259.1,200.59Z"/><path class="cls-31" d="M257.75,207.91a6.63,6.63,0,0,1-.89.47,11.94,11.94,0,0,1-2,.7,16.48,16.48,0,0,1-2.14.41,7.38,7.38,0,0,1-1,0,6.62,6.62,0,0,1,.9-.47,14.42,14.42,0,0,1,2-.7,12.56,12.56,0,0,1,2.14-.39C257.36,207.91,257.75,207.91,257.75,207.91Z"/><path class="cls-30" d="M389.54,154.75c.62-1.5,7.85-9.64,6.25-11.13s-6.87,8-8.16,7.07,2.58-14.61-.93-13-2.5,13.17-4.09,11.9-1.82-14.88-4.53-12.71,2.67,14.66.17,14-5.89-2.5-8.58-1.13,6.59,2.86,7.26,5.28a7.93,7.93,0,0,1,.44,3.45S365.45,177.31,348.43,188c-16.67,10.47-35.82,15.51-40.38,15.27-.38,5.08.37,11.81,6.17,14.49l-.87-7.11s38.44,0,71.83-52.12a2.78,2.78,0,0,0,2.95-.79s10.23-.28,10.39-2.32S388.92,156.22,389.54,154.75Z"/><path class="cls-31" d="M312.39,205.27s.18.38.4,1a17.65,17.65,0,0,1,.53,2.28,14.28,14.28,0,0,1,.24,2.34,8.51,8.51,0,0,1,0,1.09,8.63,8.63,0,0,1-.4-1,19,19,0,0,1-.56-2.28,20,20,0,0,1-.21-2.34C312.35,205.7,312.39,205.27,312.39,205.27Z"/><path class="cls-29" d="M252.45,159.62s-7.3-.1-6.41,8.71c.81,5.52,5.58,6.7,8.74,6C253.65,170.52,253.53,162.69,252.45,159.62Z"/><path class="cls-31" d="M256.64,106.65a3.34,3.34,0,0,1,1.06-.07,4.92,4.92,0,0,1,1.05.18,4.2,4.2,0,0,1,1.13.5,4.87,4.87,0,0,1,1,.78,3.59,3.59,0,0,1,.62.91,3.25,3.25,0,0,1,.28,1,1.53,1.53,0,0,1-.22-.2,6.65,6.65,0,0,0-.52-.49c-.1-.09-.23-.18-.35-.29a4.17,4.17,0,0,0-.4-.3c-.13-.11-.3-.2-.44-.3s-.31-.18-.46-.29c-.64-.37-1.32-.71-1.84-1Z"/><path class="cls-31" d="M347.43,103.66a8.24,8.24,0,0,1-.69.62c-.41.34-.95.77-1.43,1.21a11,11,0,0,0-1.27,1.3c-.17.2-.31.38-.4.5l-.18.21a3,3,0,0,1,.06-1,2.84,2.84,0,0,1,.39-.91,4,4,0,0,1,.73-.87,4.74,4.74,0,0,1,.94-.64,3.9,3.9,0,0,1,.91-.34A3.16,3.16,0,0,1,347.43,103.66Z"/><ellipse class="cls-29" cx="284.62" cy="162.02" rx="32.32" ry="39.86"/><path class="cls-32" d="M295.75,164.86c-.09,2.15.82,3.91,2.05,3.93s2.3-1.67,2.39-3.83-.82-3.9-2.05-3.93S295.84,162.72,295.75,164.86Z"/><path class="cls-12" d="M298.36,163.29c.05.66.38,1.17.76,1.14s.63-.55.6-1.19-.4-1.16-.77-1.16S298.32,162.65,298.36,163.29Z"/><path class="cls-32" d="M275.32,164.86c.09,2.15-.83,3.91-2.06,3.93s-2.3-1.67-2.39-3.83.83-3.9,2.06-3.93S275.23,162.72,275.32,164.86Z"/><path class="cls-12" d="M272.7,163.29c0,.66-.38,1.17-.76,1.14s-.62-.55-.6-1.19.4-1.16.77-1.16S272.75,162.65,272.7,163.29Z"/><path class="cls-33" d="M274.7,185.62a119.05,119.05,0,0,0,17.68.22,8.79,8.79,0,0,1-9.72,9.36C276.81,194.87,274.46,189.11,274.7,185.62Z"/><path class="cls-34" d="M281.09,195a7.06,7.06,0,0,0,1.57.25A9.72,9.72,0,0,0,288,194C285.43,192,282.49,193.84,281.09,195Z"/><path class="cls-12" d="M282.06,190.35a15,15,0,0,0,10.24-2.94,11.63,11.63,0,0,0,.08-1.57,115.77,115.77,0,0,1-15.93-.08C276.72,187.42,277.79,190.15,282.06,190.35Z"/><path class="cls-31" d="M272.43,185s.34.06,1,.14c.31.05.68.1,1.11.13s.91.1,1.45.16l1.7.14c.61.05,1.26.07,1.92.11s1.34.07,2,.09l2.11,0c.71,0,1.42.06,2.11,0l2.05,0,1.91,0c.61,0,1.18-.05,1.72-.07,1.06-.07,1.95-.08,2.57-.1l1,0-1,.14c-.62.07-1.51.2-2.57.31-.52.06-1.1.13-1.71.18l-1.92.1-2.07.09c-.69,0-1.4,0-2.12,0l-2.13-.05-2.05-.16a19.16,19.16,0,0,1-1.92-.2l-1.71-.23c-.53-.07-1-.18-1.43-.26s-.8-.17-1.1-.25A7.8,7.8,0,0,1,272.43,185Z"/><path class="cls-35" d="M268.09,159.1c.54-1.34,3.08-1.83,4.92-1.47a8.68,8.68,0,0,1,5.12,3.23c.09.16-.05.28-.24.31a.25.25,0,0,1-.3.1,21.77,21.77,0,0,0-5.12-1.41,4.87,4.87,0,0,0-3,.85,1.71,1.71,0,0,1-1.57.37.74.74,0,0,1-.61-.74A1.81,1.81,0,0,1,268.09,159.1Z"/><path class="cls-35" d="M303.26,159.1c-.54-1.34-3.09-1.83-4.93-1.47a8.66,8.66,0,0,0-5.11,3.23c-.1.16,0,.28.24.31a.23.23,0,0,0,.29.1,21.77,21.77,0,0,1,5.12-1.41,4.83,4.83,0,0,1,2.95.85,1.71,1.71,0,0,0,1.57.37.75.75,0,0,0,.62-.74A1.85,1.85,0,0,0,303.26,159.1Z"/><circle class="cls-36" cx="262" cy="170.64" r="3.23"/><circle class="cls-36" cx="307.24" cy="170.64" r="3.23"/><path class="cls-40" d="M263.08,139.4c-3.31,6.27-3.2,15.15-3.2,15.15l13,1s1.15-10.17,5.3-14c-3.82,8.49-2.54,13.72-2.54,13.72l19.13,1.41a33.76,33.76,0,0,0,2.8-13c2.58,6.54-.24,13.95-.24,13.95l14.16-1.09a31.21,31.21,0,0,0,1.16-12.86c2.19,8.94.95,11.74.95,11.74l1.67-.44s-.38,26.85-11.24,42.56c6.58,1.93,26.31-17.78,27.94-43.81s-14.63-52.07-34.56-44.28c-6.85-10.38-28.18-9.72-42.28,6.77,0,0-21.63,21.32-15.8,58.3,5,21.73,17.84,24.21,24.37,22.6,0,0-11-5.27-9.22-21.13s2.16-21.54,2.16-21.54A143,143,0,0,1,263.08,139.4Z"/><path class="cls-12" d="M673.25,323.49a26.77,26.77,0,0,0-7.31-.69c.07-.21.15-.43.23-.64,1.29-3.81,1.78-8.7.49-12.55a33.39,33.39,0,0,0-6-11c-5.1-6-12.82-9.28-20.48-10.33a39.54,39.54,0,0,0-12,.42,39.46,39.46,0,0,0-1.19-9.12c-2-7.87-8.22-14.75-14.72-19.32-6.88-4.84-15.33-5.55-23.34-3.8-.84.18-1.68.42-2.51.68-2.88-6.52-10.28-10.34-17.05-11.72a28.66,28.66,0,0,0-25,7,33.24,33.24,0,0,0-7.73,10.38c-2.11,4.15-2.46,9-2.32,13.6a20.31,20.31,0,0,0,3.32,10.19,13.2,13.2,0,0,0-2.68,1.82,18.22,18.22,0,0,0-5.61,8.66,27.45,27.45,0,0,0-3.22-1.17,37.06,37.06,0,0,0-12.75-1.3,31.28,31.28,0,0,0-12,3.71c-7.54,3.8-14.75,8.23-18.65,16.09a23.45,23.45,0,0,0-2.08,6.69c-.71-.2-1.42-.38-2.13-.51A28.11,28.11,0,0,0,462.38,322c-9.24,3.69-15.27,14.05-15.8,23.74-.6,11.21,7.54,21.06,18.07,23.83a29.11,29.11,0,0,0,16.57-1.07,42.81,42.81,0,0,0,9.53-4.5,30.26,30.26,0,0,0,5.47,5.69c6.64,5.31,15.2,7.7,23.54,8.39a32.46,32.46,0,0,0,11.65-1.15c1.94-.53,3.88-.8,5.79-1.45a53,53,0,0,0,5.87-2.5,36.67,36.67,0,0,0,8.93-5.79,34.71,34.71,0,0,0,3.14,2.68,35.57,35.57,0,0,0,20.77,7.2,53.17,53.17,0,0,0,22.57-4.88,42.71,42.71,0,0,0,13.38-9.92,52.69,52.69,0,0,0,21.69,9.2,66.45,66.45,0,0,0,18.07,1.21,50,50,0,0,0,17-4.35c9.08-4.16,19-12.1,20.42-22.57S683.35,325.92,673.25,323.49Z"/><path class="cls-12" d="M684.22,350.9c-2.33,4.83-7.25,8.53-11.61,11.44-10.1,6.73-22.79,8.06-34.55,6.44a62.74,62.74,0,0,1-18.47-5.31,43,43,0,0,1-5.85-3.34c.5-.59,1-1.2,1.48-1.8-.64.54-1.32,1-1.94,1.49-2.46,1.77-5,3.53-7.55,5.13l-.91.58A45.4,45.4,0,0,1,599,369a51.23,51.23,0,0,1-10,3.41,55.5,55.5,0,0,1-11,1.8,35.89,35.89,0,0,1-9.27-.88,33.21,33.21,0,0,1-12.35-4.15,22.48,22.48,0,0,1-6.17-5.1c-1.12-1.4-2-3.3-3.42-4.45a25.08,25.08,0,0,0,1.22,2.43,22.25,22.25,0,0,0,2.83,3.84,47,47,0,0,1-9.1,4.85c-6.87,3.05-14.49,5-22,4.35A50.86,50.86,0,0,1,497.54,368a26.2,26.2,0,0,1-5.83-4.75,0,0,0,0,0,0,0,28.41,28.41,0,0,1-5-6.56,32.41,32.41,0,0,0,3.11,6,61.64,61.64,0,0,1-8.31,3.2,30,30,0,0,1-15.55.83c-9.84-2.26-16.39-10.95-17-20.89-.55-9.28,5.22-19.15,13.64-23a26.68,26.68,0,0,1,15.71-1.7,18.72,18.72,0,0,1,2.18.5,27.13,27.13,0,0,0-.24,3.12,19.46,19.46,0,0,0,.42,3.31,29,29,0,0,0,1.52,4.28,26.66,26.66,0,0,1,1.08-12.07,17,17,0,0,1,.8-2,31.12,31.12,0,0,1,1.24-2.94c3.48-7.05,10.2-10.81,16.74-14.49a33.63,33.63,0,0,1,22.81-3.7,25.5,25.5,0,0,1,4.1,1.14,13.07,13.07,0,0,0,1.92,9.76c-1.26-4.24-1.08-9,1.12-12.71a22.13,22.13,0,0,1,4.8-6.37,10.43,10.43,0,0,1,1.58-1.17l.07.11s0,0,.08-.05c.39-.22.77-.44,1.18-.64a1.05,1.05,0,0,1-.07-.11,31.42,31.42,0,0,1,7.24-2.12,18.32,18.32,0,0,1,5.32-.45,9.49,9.49,0,0,1,1.19.18h.35a12.44,12.44,0,0,0-3.95-.66,42.62,42.62,0,0,0-5.88.44,24.84,24.84,0,0,0-5,1.39,22.94,22.94,0,0,1-2.66-9.94,26,26,0,0,1,2-12.55,32,32,0,0,1,7.41-10,28.54,28.54,0,0,1,22.69-7.37c6.86.77,14.64,4.7,17.75,11.12A33.52,33.52,0,0,0,580,260a18.81,18.81,0,0,0-3.53,3.08,25.05,25.05,0,0,1,17.27-5.43,28.52,28.52,0,0,1,18.1,5.36c5.91,4.31,11.56,10.15,14,17.14a27.76,27.76,0,0,1,1.4,6.36,30.37,30.37,0,0,1,.47,6.9c0,.59,0,1.18-.06,1.75a37.33,37.33,0,0,0,.49-5.59,4.26,4.26,0,0,0,.5-.06,38.23,38.23,0,0,1,11.2.31c7.1,1.24,14.23,4.78,19,10.25a32.75,32.75,0,0,1,5.2,9.19c1.6,3.84,1.41,8.25.34,12.23q-.21.75-.45,1.47a.22.22,0,0,1-.11,0,31.77,31.77,0,0,0-5.55,1.22,3.21,3.21,0,0,0-1.9,1.08.4.4,0,0,0,.15,0,.76.76,0,0,1,.18-.06c1.42-1,3.67-1.1,5.29-1.18,1.18,0,2.36-.13,3.54-.05h0a25.38,25.38,0,0,1,6.92,1.26A19.81,19.81,0,0,1,684.58,336,18,18,0,0,1,684.22,350.9Z"/><path class="cls-41" d="M568,273.71a8,8,0,0,0,.53,3.41c-.1-4.19,2.5-9.1,5.15-11.95a22.29,22.29,0,0,1,3.76-3.2,19.37,19.37,0,0,1,2.49-2,33.52,33.52,0,0,1,6.21-2.77,16.24,16.24,0,0,0-2.78-4C576.29,254.38,568.62,263.46,568,273.71Z"/><path class="cls-41" d="M539,285.9a24.84,24.84,0,0,1,5-1.39,42.62,42.62,0,0,1,5.88-.44,12,12,0,0,1,3.23.44,38.09,38.09,0,0,1,10.44,2.61A40.55,40.55,0,0,1,574,293c-6.77-10.28-21.23-16.27-32.64-11.32a.75.75,0,0,1-1-.26A32.91,32.91,0,0,1,538.07,264,27.07,27.07,0,0,0,536.32,276,22.94,22.94,0,0,0,539,285.9Z"/><path class="cls-42" d="M684.58,336a19.81,19.81,0,0,0-12.15-10.82,25.38,25.38,0,0,0-6.92-1.26h0c-1.18-.08-2.36,0-3.54.05-1.62.08-3.87.13-5.29,1.18a.76.76,0,0,0-.18.06.4.4,0,0,1-.15,0,3.21,3.21,0,0,1,1.9-1.08,31.77,31.77,0,0,1,5.55-1.22.22.22,0,0,0,.11,0q.24-.72.45-1.47c1.07-4,1.26-8.39-.34-12.23a32.75,32.75,0,0,0-5.2-9.19,32.29,32.29,0,0,0-15.63-9.48c6.52,4.16,11.87,9.69,12.1,18.22.15,5.93-1.1,13.34-4.4,19.08,1.2-.2,2.4-.38,3.61-.51,5.12-.6,10.58-1.43,15.55.44,3.94,1.48,5.46,5.3,4.27,9.25a21.31,21.31,0,0,1-11.71,13c-11,5.11-23.93,4.5-35.23.82-7.63-2.49-15.2-6.56-20.24-12.74-5.42,11.24-15.8,19.35-29.37,19.64-15.47.33-32.9-9.34-37.93-24.44a33.44,33.44,0,0,0,3.61,14,.78.78,0,0,1-.27,1c-11.07,7-33.84,14.48-47.11,8.94-7.24-3-10.62-9.42-13.62-17.25-.6,5.45.66,11.44,2.73,17.25.17.5-1.68.8-2.12.85-9.32,1.12-20.59.12-27.45-7.1a20.28,20.28,0,0,1-5.53-13.22,22.42,22.42,0,0,0-1.06,8.13c.6,9.94,7.15,18.63,17,20.89a30,30,0,0,0,15.55-.83,61.64,61.64,0,0,0,8.31-3.2,32.41,32.41,0,0,1-3.11-6,28.41,28.41,0,0,0,5,6.56,0,0,0,0,1,0,0,26.2,26.2,0,0,0,5.83,4.75,50.86,50.86,0,0,0,22.15,7.09c7.54.6,15.16-1.3,22-4.35a47,47,0,0,0,9.1-4.85,22.25,22.25,0,0,1-2.83-3.84,25.08,25.08,0,0,1-1.22-2.43c1.44,1.15,2.3,3.05,3.42,4.45a22.48,22.48,0,0,0,6.17,5.1,33.21,33.21,0,0,0,12.35,4.15,35.89,35.89,0,0,0,9.27.88,55.5,55.5,0,0,0,11-1.8A51.23,51.23,0,0,0,599,369a45.4,45.4,0,0,0,5.87-3.49l.91-.58c2.57-1.6,5.09-3.36,7.55-5.13.62-.45,1.3-.95,1.94-1.49-.48.6-1,1.21-1.48,1.8a43,43,0,0,0,5.85,3.34,62.74,62.74,0,0,0,18.47,5.31c11.76,1.62,24.45.29,34.55-6.44,4.36-2.91,9.28-6.61,11.61-11.44A18,18,0,0,0,684.58,336Z"/><path class="cls-12" d="M538.43,287.81a1.13,1.13,0,0,0-.18.12l.2-.07S538.44,287.82,538.43,287.81Z"/><path class="cls-43" d="M572.48,239c-.09-.05-8.44-4.75-20.48,9.49l8.58,5.54S563.78,244.35,572.48,239Z"/><path class="cls-43" d="M557.33,252l3.25,2.08s3.14-9.44,11.58-14.83C566.25,242.08,561.45,246.66,557.33,252Z"/><path class="cls-43" d="M611.4,242.05c-13.28-2.12-38.92-3.05-38.92-3.05h0c-8.7,5.35-11.9,15-11.9,15l.6,9.72,55.19-3.44L616,253.9l.48.68h0C614.2,251.42,611.4,242.05,611.4,242.05Z"/><path class="cls-43" d="M561.09,262.39l.09,1.36,55.19-3.44-.08-1.49Q588.67,260.56,561.09,262.39Z"/><path class="cls-43" d="M629.87,252.17s-3.42-6.29-13.55-9.12a44.76,44.76,0,0,0-4.92-1s2.8,9.37,5.07,12.53h0l3,4.15S626.53,256.55,629.87,252.17Z"/><path class="cls-43" d="M612.08,244.21c1,3,2.8,8.19,4.39,10.37h0l3,4.15a28,28,0,0,0,2.8-1.09C619.13,252.93,616.35,247.9,612.08,244.21Z"/><path class="cls-44" d="M591.92,272.63c-2.29-.18-6.56-.35-6.56-.35s6.29-2.45,6.8-3.66-.87-1-2.78-.28-5.28,2-5.28,2,1.8-2.27,1.49-3.77-4.55,3.53-4.85,3.77-2.2-.52-3.48-.22c0,0-14.23-3.47-20.08-6.08-3.66.21-8,.59-11.67.85,3.79,4.3,31.48,9.7,31.48,9.7a5.26,5.26,0,0,0,4,3.21,17.73,17.73,0,0,1,3.47,3.66c.86,1.58,3.11,1.33,2.58-.15a14.34,14.34,0,0,0-2.6-3.62,25.89,25.89,0,0,1,5.45,2.25c2,1.29,3.5.54,2.39-1.56s-6.75-3.15-6.75-3.15,5.46-.22,7-.21S594.21,272.81,591.92,272.63Z"/><path class="cls-44" d="M623.93,259.63l1.2,2.39-18,6.52-2.77-1.11s-1.25-2.74-2.76-2.66,0,1.75.74,3.22,1.26,2.83,1.26,2.83-5.73-3.32-7.48-3.64-1.11,1.25.12,1.83,5.15,2.82,5.15,2.82-6.1-.49-6.69.41,5,.89,6,.92-6.6,3.34-5.25,4.12,7.9-3.31,7.24-1.75-4,6.09-2,5.54,4.23-5,4.23-5,2.89-.61,3.42-2.48c0,0,22.4-5.8,22.8-10.29a9.83,9.83,0,0,0-.6-4.08C628.32,259.33,626.13,259.44,623.93,259.63Z"/><path class="cls-30" d="M583.62,246.54s-2.14,9.65,5.91,9,7.74-8.55,7.74-8.55Z"/><path class="cls-45" d="M649.41,174.4c3.34-2.17-9-2.27-9-2.27a12.72,12.72,0,0,0-.43-6.89c-1.31-3.6-3.38,5-3.38,5-10.66-25.32-55.5-25.78-71.75-5.06S558.61,211,558.61,211s5.43-17.08,18.95-29.47c0,0-5.26,8.22-3.08,8.47s7.6-3.12,31.64-8.65c0,0-4.52,6.29-1.31,6.77s15.05-4,15.05-4-2.07,15.58,2.82,12.82a14,14,0,0,0,6.26-6.66,60,60,0,0,1,5,34.45c32.14-33.17,8.5-48,8.5-48A15.47,15.47,0,0,0,649.41,174.4Z"/><path class="cls-29" d="M628.94,190.26a14,14,0,0,1-6.26,6.66c-4.89,2.76-2.82-12.82-2.82-12.82s-11.84,4.48-15.05,4,1.31-6.77,1.31-6.77c-24,5.53-29.47,8.9-31.64,8.65s3.08-8.47,3.08-8.47C564,193.92,558.61,211,558.61,211a24.46,24.46,0,0,0,1.22,22.81c8.92,14.87,26.2,17.77,42.37,16.76,20.92-1.3,31.73-25.86,31.73-25.86A60,60,0,0,0,628.94,190.26Z"/><path class="cls-30" d="M561.85,203.23s.45-6.1-5-5.11-5.23,12.81,1.35,13.72C558.23,211.84,560.16,206.52,561.85,203.23Z"/><path class="cls-30" d="M634,224.17s2.2-6.3,7.73-4.38,1.22,10.85-4.94,12.76-6.2-1.81-6.2-1.81Z"/><path class="cls-46" d="M579.2,196.91A3.08,3.08,0,0,1,580,196a4.6,4.6,0,0,1,2.27-1,4,4,0,0,1,1.38.06,3.37,3.37,0,0,1,1.13.51,2.08,2.08,0,0,1,.37.32,2,2,0,0,1,.24.32.94.94,0,0,1,.13.3h-.32a5.81,5.81,0,0,0-.74,0l-.94.08-1,.13a18.57,18.57,0,0,1-2.12.18A8.34,8.34,0,0,1,579.2,196.91Z"/><path class="cls-46" d="M609.57,200.69a5.21,5.21,0,0,1,1.42-.81,7.87,7.87,0,0,1,3.54-.54,6.24,6.24,0,0,1,2,.47,7.34,7.34,0,0,1,.84.45c.24.19.45.4.63.57a4.15,4.15,0,0,1,.42.59,1.9,1.9,0,0,1,.21.51,2.65,2.65,0,0,1,.11.45l-.39-.24a2.94,2.94,0,0,0-.41-.25l-.53-.25c-.21-.06-.41-.14-.62-.22s-.48-.11-.73-.15-.51-.11-.78-.13-.55-.07-.83-.09c-.56-.06-1.14-.07-1.7-.1s-1.09,0-1.54-.09C610.24,200.8,609.57,200.69,609.57,200.69Z"/><path class="cls-31" d="M589.28,222.55s-3.17,4.17-.85,5a8,8,0,0,0,5.07-.31s-4.1,1-4.57-1.24A4.79,4.79,0,0,1,589.28,222.55Z"/><path class="cls-31" d="M555,205.11a2.4,2.4,0,0,1,.84-.41,3.65,3.65,0,0,1,1-.13,2.86,2.86,0,0,1,1.15.24,2.8,2.8,0,0,1,.52.32,1.87,1.87,0,0,1,.43.41,2.66,2.66,0,0,1,.3.47,1.26,1.26,0,0,1,.15.45,1.89,1.89,0,0,1,.09.7v.25a2,2,0,0,1-.16-.22l-.16-.22a1.17,1.17,0,0,0-.22-.29,1.43,1.43,0,0,0-.24-.31c-.11-.1-.19-.21-.31-.31a2.85,2.85,0,0,0-.75-.46,2.26,2.26,0,0,0-.43-.17,3.28,3.28,0,0,0-.45-.11,7.22,7.22,0,0,0-.85-.12Z"/><path class="cls-31" d="M639.53,226.61a1.74,1.74,0,0,0-.26-.12,2.64,2.64,0,0,0-.69-.23l-.46-.09a2.09,2.09,0,0,0-.51,0,3.18,3.18,0,0,0-.54,0l-.55.08a1.76,1.76,0,0,0-.55.09,5.47,5.47,0,0,1-.55.13,4.39,4.39,0,0,0-.52.13c-.16.06-.31.12-.46.16a5.14,5.14,0,0,1-1,.25,5.92,5.92,0,0,1,.79-.69,5.34,5.34,0,0,1,.43-.32,3.13,3.13,0,0,1,.52-.24,6,6,0,0,1,.59-.23,2,2,0,0,1,.65-.14c.22,0,.45,0,.67-.06a2.84,2.84,0,0,1,.64.1,1.77,1.77,0,0,1,.58.16c.18.08.34.18.5.25a3.14,3.14,0,0,1,.58.55A1.17,1.17,0,0,1,639.53,226.61Z"/><path class="cls-47" d="M611.29,214.44c-.69,2.24-2,3.82-3,3.51s-1.22-2.37-.53-4.6,2-3.82,3-3.52S612,212.19,611.29,214.44Z"/><path class="cls-12" d="M609.77,212.11c-.25.66-.7,1.1-1,1s-.31-.74,0-1.4.71-1.1,1-1S610,211.45,609.77,212.11Z"/><path class="cls-47" d="M583.17,208.45c-.69,2.24-2,3.82-3,3.53s-1.21-2.38-.53-4.62,2-3.82,3-3.5S583.86,206.2,583.17,208.45Z"/><path class="cls-12" d="M581.66,206.12c-.27.66-.72,1.1-1,1s-.3-.76,0-1.42.71-1.1,1-1S581.92,205.46,581.66,206.12Z"/><path class="cls-36" d="M620.08,226.85c-.19,1.5-3.28,2.34-6.91,1.85s-6.4-2.09-6.2-3.58,3.3-2.35,6.92-1.86S620.28,225.34,620.08,226.85Z"/><path class="cls-36" d="M578.71,217.09c-.2,1.49-3.3,2.33-6.92,1.85s-6.39-2.09-6.2-3.58,3.3-2.35,6.92-1.87S578.91,215.58,578.71,217.09Z"/><path class="cls-29" d="M552.53,248.83s-10.33,11.65-7.34,16,31.26,10.15,31.26,10.15a5.23,5.23,0,0,0,4,3.21,17.31,17.31,0,0,1,3.48,3.69c.85,1.55,3.11,1.32,2.58-.17A14.31,14.31,0,0,0,583.9,278a26.8,26.8,0,0,1,5.43,2.26c2,1.28,3.49.55,2.4-1.55s-6.75-3.14-6.75-3.14,5.45-.24,7-.23,1.65-2.16-.64-2.34-6.57-.35-6.57-.35,6.29-2.45,6.81-3.68-.89-1-2.78-.25-5.29,1.95-5.29,1.95,1.81-2.28,1.5-3.77-4.55,3.52-4.86,3.77-2.19-.53-3.46-.23c0,0-21.34-5.27-22.68-7.67s4.45-10.12,4.45-10.12Z"/><path class="cls-29" d="M622.19,257.67l2.4,4.75-18,6.53-2.77-1.13s-1.25-2.73-2.76-2.64,0,1.74.74,3.21,1.25,2.84,1.25,2.84-5.72-3.32-7.47-3.66-1.12,1.27.11,1.85,5.16,2.81,5.16,2.81-6.09-.49-6.7.42,5,.87,6,.92-6.62,3.33-5.27,4.12,7.91-3.31,7.26-1.75-4,6.09-2,5.54,4.23-5,4.23-5,2.89-.61,3.42-2.49c0,0,22.41-5.81,22.81-10.28s-3.26-9-3.26-9A32.67,32.67,0,0,1,622.19,257.67Z"/><g class="cls-48"><path class="cls-49" d="M561.85,203.23h0a72.93,72.93,0,0,1,15.71-21.7l4.35-4.32C565.84,185.58,561.85,203.23,561.85,203.23Z"/><path class="cls-49" d="M574.48,190c2.17.25,7.6-3.12,31.64-8.65l-.15.21a44.62,44.62,0,0,1,6.59-5.23C595.78,178.81,574.48,190,574.48,190Z"/><path class="cls-49" d="M603.92,187.65a1.37,1.37,0,0,0,.89.47c3.21.46,15.05-4,15.05-4s0,.12,0,.36c1.55-3,3.42-6.35,3.42-6.35C613,186.35,604,187.63,603.92,187.65Z"/><path class="cls-49" d="M627,183.51a14,14,0,0,1-5.47,13.72,2.07,2.07,0,0,0,1.12-.31,14,14,0,0,0,6.26-6.66A60.06,60.06,0,0,1,634,224.18s0,0,0,0C642.56,204.41,627,183.51,627,183.51Z"/></g><path class="cls-33" d="M582.1,236.1a109.73,109.73,0,0,0,16.11.25,8,8,0,0,1-8.88,8.49C584,244.53,581.88,239.27,582.1,236.1Z"/><path class="cls-34" d="M587.9,244.62a6.48,6.48,0,0,0,1.43.22,8.67,8.67,0,0,0,4.89-1C591.86,242,589.18,243.6,587.9,244.62Z"/><path class="cls-12" d="M588.8,240.43a13.68,13.68,0,0,0,9.33-2.66,9.51,9.51,0,0,0,.08-1.42,106.8,106.8,0,0,1-14.51-.12C583.94,237.74,584.9,240.23,588.8,240.43Z"/><path class="cls-31" d="M580,235.53s.32.06.88.12a10.15,10.15,0,0,0,1,.13l1.32.15,1.55.13c.56.05,1.15.07,1.75.1s1.22.07,1.85.09l1.93,0c.65,0,1.29.05,1.93,0l1.86,0,1.74,0c.56,0,1.08,0,1.57-.06,1-.06,1.78-.06,2.34-.08l.89,0-.87.12c-.57.07-1.37.18-2.34.29l-1.56.16-1.75.08-1.89.08c-.63,0-1.27,0-1.93,0l-1.94-.05-1.87-.15c-.6,0-1.19-.1-1.75-.19l-1.56-.21c-.48-.07-.91-.17-1.3-.25s-.72-.15-1-.22C580.34,235.63,580,235.53,580,235.53Z"/><path class="cls-30" d="M245.22,476.55c.5-1.21,6.36-7.81,5.07-9s-5.57,6.49-6.62,5.74,2.09-11.85-.75-10.54-2,10.67-3.32,9.64-1.47-12.06-3.67-10.3,2.17,11.88.14,11.33-4.78-2-7-.92,5.35,2.32,5.89,4.28a6.52,6.52,0,0,1,.36,2.8s-9.66,15.27-23.45,23.92c-13.51,8.48-29,12.56-32.73,12.37-.31,4.11.3,9.57,5,11.74l-.7-5.76s31.15,0,58.21-42.24a2.24,2.24,0,0,0,2.39-.64s8.29-.23,8.41-1.88S244.72,477.74,245.22,476.55Z"/><path class="cls-31" d="M182.69,517.5s.15.31.33.81a12.75,12.75,0,0,1,.43,1.85,11.71,11.71,0,0,1,.19,1.9,6.54,6.54,0,0,1,0,.88,6.75,6.75,0,0,1-.32-.84,14.07,14.07,0,0,1-.46-1.84,16,16,0,0,1-.17-1.9C182.66,517.84,182.69,517.5,182.69,517.5Z"/><path class="cls-50" d="M166.77,515.22a.71.71,0,0,0-.54,0c-2.56,1-5,2.42-7.5,3.34a.34.34,0,0,0-.11.55,34.23,34.23,0,0,1,.75,3.6,18.07,18.07,0,0,0,1.73,4.25c1,1.79,2.61,3.06,4.71,2.69s3.22-3.06,3.25-5a30,30,0,0,0-1.56-8.93A.65.65,0,0,0,166.77,515.22Z"/><path class="cls-29" d="M146.32,550.59s-4,11.53-4.28,21.9,1.59,17.35.74,18.8-2.67,1.66-4.13,5.87-.49,9.32.34,8.61.28-5.44,2-7.93a19.94,19.94,0,0,0-.64,7.1c.5,3.11,1.4,3,2-1.55s1-6.78,1.15-5.74-.19,9.57,1.36,9.94.19-8.09,1.74-9.83a18.42,18.42,0,0,0,.71,6.46c1,2.88,2.05,3.3,2-.44s.11-9.29,2-7.54,2.72,4.24,4.5,3.39-1.42-5-3-6.59-4.06-2.44-4.38-3.67-2.17-12.17-1.5-18.72c.76-7.63,3-16.14,4.3-18.26Z"/><path class="cls-43" d="M169.52,581.49s-1.72,8.32,5.88,28.61c0,0,16.83-2.84,24.29-7.49l-4.51-14.48,10.63,12s15.56-8.79,19.95-17c0,0-11.81-12.42-12.76-14.23a21.44,21.44,0,0,1-1.51-4.58Z"/><path class="cls-43" d="M171.81,516.58s27.19-6.64,30.66-14.84c0,0,7.63,7.35,8.58,16.57,0,0-8.16,8.4-15.77,8.6,0,0,9.77,12.64,17.49,38.58,0,0-19.31,19.59-46.25,18.76,0,0-6.63-33.68-6.62-34.09s-1.69,6.2-1.69,6.2-11.4-3.16-14.81-5.68c0,0,2.89-20.17,20.89-30.11Z"/><path class="cls-17" d="M140.19,511.9c-3.14,2.32-13.15-4.42-9.87-8.66s8.63-.17,8.63-.17-5.37-13.53-7.65-21.22c5.25,4.16,11.44,8.63,11.44,8.63s-.64-8.67-3.3-14.24a25.35,25.35,0,0,0,10.85,1.06s-1-1.62-5.48-4.44c9.74,1.58,23-3.81,23-3.81s-3.81-4.32-8.25-4.24c2.48-1.28,11.54-.48,16.95,3.11a40.53,40.53,0,0,1,3.79,8.39c2.63,7.6,4.13,8.54,6.73,11s5.56,8.85-5.11,22.09-27.27,12.55-33,10.63C148.92,520,143,516.15,140.19,511.9Z"/><path class="cls-22" d="M120.41,510.18c-8.79-12.79-8.33-22-2.36-29.05,0,0,.47-22.75,26.29-29.28,16.71-2.52,29,.88,35.92,14.15-4.77-4.14-8.13-4.11-8.13-4.11a10.82,10.82,0,0,1,5.93,6.49l-1.52-.46c-5.41-3.59-14.47-4.39-16.95-3.11,4.44-.08,8.25,4.24,8.25,4.24s-13.29,5.39-23,3.81c4.5,2.82,5.48,4.44,5.48,4.44a25.35,25.35,0,0,1-10.85-1.06c2.66,5.57,3.3,14.24,3.3,14.24s-6.19-4.47-11.44-8.63c2.28,7.69,7.65,21.22,7.65,21.22s-5.38-4.05-8.63.17,6.73,11,9.87,8.66c2.85,4.25,8.73,8.11,8.73,8.11C146.87,522,129.19,523,120.41,510.18Z"/><path class="cls-23" d="M133.43,506.8a.88.88,0,0,1,.23-.24.94.94,0,0,1,.3-.23l.19-.08.23-.08a1.94,1.94,0,0,1,.54,0c.2,0,.4.07.61.09s.42.13.64.22a5.27,5.27,0,0,1,.63.31c.21.13.42.22.62.36s.41.24.6.37l1,.7c.6.45,1,.71,1,.71a12.2,12.2,0,0,0-.82-.95l-.44-.41c-.17-.14-.34-.32-.51-.45l-.6-.43c-.2-.14-.44-.26-.65-.39a7,7,0,0,0-.69-.31,3.51,3.51,0,0,0-.73-.21,2.94,2.94,0,0,0-.72,0,2,2,0,0,0-.63.15L134,506l-.19.16a1.57,1.57,0,0,0-.27.33A1,1,0,0,0,133.43,506.8Z"/><path class="cls-23" d="M137.47,509.66a3.77,3.77,0,0,0,0-.48c0-.15,0-.31,0-.48s0-.34,0-.5a7.71,7.71,0,0,1,0-.94c0-.07,0-.13,0-.17l0-.16,0-.12-.12.06a.61.61,0,0,0-.14.1,1.4,1.4,0,0,0-.13.18,1.32,1.32,0,0,0-.21.48,2.93,2.93,0,0,0,0,.59,2.41,2.41,0,0,0,.28,1A1.66,1.66,0,0,0,137.47,509.66Z"/><path class="cls-24" d="M178.4,484.22c.61,1.47,1.51,2.51,2,2.3s.38-1.56-.24-3-1.5-2.51-2-2.31S177.78,482.74,178.4,484.22Z"/><path class="cls-12" d="M178.43,482.33c.26.45.62.71.82.59s.18-.56-.08-1-.61-.7-.82-.6S178.19,481.89,178.43,482.33Z"/><path class="cls-24" d="M157.71,493.63c.62,1.47,1.51,2.5,2,2.29s.38-1.55-.23-3-1.5-2.5-2-2.29S157.1,492.16,157.71,493.63Z"/><path class="cls-12" d="M157.75,491.74c.25.45.6.7.81.58s.17-.55-.08-1-.61-.7-.82-.58S157.49,491.3,157.75,491.74Z"/><path class="cls-23" d="M172.33,490l1.3.57c.4.17.84.38,1.31.6a13,13,0,0,1,1.42.77,1.88,1.88,0,0,1,.54.5l0,.09,0,.21a2.31,2.31,0,0,1,0,.32,4.55,4.55,0,0,1-.6,1.23c-.46.7-.82,1.15-.82,1.15a6,6,0,0,0,1-1,3.78,3.78,0,0,0,.79-1.28,2.56,2.56,0,0,0,.1-.47l0-.21a2.74,2.74,0,0,0-.11-.28,2.45,2.45,0,0,0-.68-.65,10.89,10.89,0,0,0-2.9-1.22A11.37,11.37,0,0,0,172.33,490Z"/><path class="cls-22" d="M161.54,481.6a10.51,10.51,0,0,0-2.06-1.81,9,9,0,0,0-1.17-.66,5.57,5.57,0,0,0-1.48-.46,3.47,3.47,0,0,0-1.74.11l-.43.17c-.14.08-.26.18-.39.26l-.19.14-.05,0s0,0-.05,0l0,0-.06.08-.3.27c-.18.2-.35.49-.53.73s-.29.5-.41.76a9.53,9.53,0,0,0-.52,1.53,13.07,13.07,0,0,0-.38,2.81,14.13,14.13,0,0,0,.13,2.71s0-.26.1-.73.16-1.14.3-1.93a20.32,20.32,0,0,1,.64-2.63,11.28,11.28,0,0,1,.56-1.37,6.88,6.88,0,0,1,.35-.66,6.76,6.76,0,0,1,.44-.57l.27-.28.07-.09h0l0,0,.13-.11c.1-.05.18-.13.28-.18l.32-.13a4,4,0,0,1,.64-.16,3.85,3.85,0,0,1,.68,0,5.18,5.18,0,0,1,1.32.3,8.54,8.54,0,0,1,1.18.49,12.65,12.65,0,0,1,1.69.93Z"/><path class="cls-22" d="M178.92,472.47a1.84,1.84,0,0,0-.23-.31,2.46,2.46,0,0,0-.81-.62,1.59,1.59,0,0,0-.71-.19,1.39,1.39,0,0,0-.45,0,1.31,1.31,0,0,0-.43.16,2.24,2.24,0,0,0-.71.59,6.61,6.61,0,0,0-.44.77,6.28,6.28,0,0,0-.27.8c-.07.26-.09.54-.14.79a11.19,11.19,0,0,0,0,1.38,9.72,9.72,0,0,0,.18,1.33,9.23,9.23,0,0,0,.36-1.28c.1-.38.22-.82.32-1.28.06-.23.15-.45.21-.69a5,5,0,0,1,.25-.68,4.8,4.8,0,0,1,.3-.6c.14-.15.24-.34.41-.41a.68.68,0,0,1,.22-.14.55.55,0,0,1,.25-.07,1.57,1.57,0,0,1,.53,0,3.91,3.91,0,0,1,.87.27A2.22,2.22,0,0,1,178.92,472.47Z"/><path class="cls-25" d="M180.33,499.35s-8.37,6.42-16.69,5c4,5.57,8.22,7.28,10.75,6.22S178.42,501.18,180.33,499.35Z"/><path class="cls-12" d="M165.82,507a24.17,24.17,0,0,1-2.18-2.63c4.65.77,9.31-.89,12.54-2.52C175.82,503.8,174.14,508.21,165.82,507Z"/><path class="cls-26" d="M175.18,510a2.15,2.15,0,0,1-.79.59c-1.8.75-4.45.09-7.29-2.38A8.28,8.28,0,0,1,175.18,510Z"/><path class="cls-23" d="M174.5,510.88c-2.3.95-6.6-.13-11.1-6.33L163,504l.68.12a19.57,19.57,0,0,0,11-1.84,29.67,29.67,0,0,0,5.49-3.15l.37.43c-.76.75-1.49,2.71-2.27,4.78-1.07,2.88-2.18,5.84-3.71,6.53Zm.39-8.08a20.63,20.63,0,0,1-10.62,2c2.89,3.75,7,6.83,10,5.57l.15.25-.12-.26c1.32-.59,2.44-3.58,3.41-6.2a36.94,36.94,0,0,1,1.51-3.7A31.72,31.72,0,0,1,174.89,502.8Z"/><path class="cls-27" d="M168.11,508c3.15,2.36,4.94,1.85,5.85,1.14a7.28,7.28,0,0,1,1.22.9,2.15,2.15,0,0,1-.79.59c-1.8.75-4.45.09-7.29-2.38A6.76,6.76,0,0,1,168.11,508Z"/><g class="cls-18"><path class="cls-19" d="M130.32,503.24c3.25-4.22,8.63-.17,8.63-.17s-5.37-13.53-7.65-21.22c5.25,4.16,11.44,8.63,11.44,8.63s-.64-8.67-3.3-14.24a25.35,25.35,0,0,0,10.85,1.06s-1-1.62-5.48-4.44c9.74,1.58,23-3.81,23-3.81s-3.81-4.32-8.25-4.24c2.48-1.28,11.54-.48,16.95,3.11l.29.49a37.72,37.72,0,0,0-10.33-2.53s.92.37,1.95,4c-7.61,4.53-18.63,5.21-18.63,5.21l1.89,3.25s-3.44,3-9.18,1.2c1.29,4.37,1.51,14.21,1.51,14.21s-.65.38-2.94-1.55c2.21,6.53,8.94,17.51,15.05,23.53s18.2,3.25,26.91-10.52,4.27-16.37,1.28-20.21a11.68,11.68,0,0,1-1.6-2.9,17.14,17.14,0,0,0,4.32,5.19c2.61,2.44,5.56,8.85-5.11,22.09s-27.27,12.55-33,10.63c0,0-5.88-3.86-8.73-8.11C137.05,514.22,127,507.48,130.32,503.24Z"/></g><path class="cls-12" d="M305.54,609.13a21.38,21.38,0,0,0-5.47-.51l.18-.46a15.58,15.58,0,0,0,.36-9.38,24.94,24.94,0,0,0-4.5-8.21c-3.82-4.47-9.57-6.93-15.29-7.72a30.52,30.52,0,0,0-9,.3,29,29,0,0,0-.88-6.8c-1.49-5.87-6.14-11-11-14.42-5.14-3.63-11.44-4.15-17.43-2.84-.62.14-1.25.31-1.86.51-2.16-4.87-7.68-7.72-12.74-8.76a21.41,21.41,0,0,0-18.65,5.21,24.74,24.74,0,0,0-5.77,7.74c-1.57,3.1-1.83,6.74-1.72,10.16a14.94,14.94,0,0,0,2.47,7.6,10,10,0,0,0-2,1.37,13.49,13.49,0,0,0-4.19,6.47,16.45,16.45,0,0,0-2.41-.87,27.23,27.23,0,0,0-9.51-1,23.63,23.63,0,0,0-8.95,2.76c-5.63,2.84-11,6.16-13.93,12a18,18,0,0,0-1.55,5c-.52-.15-1.06-.28-1.59-.39a21,21,0,0,0-12,1.06c-6.9,2.75-11.4,10.49-11.8,17.73-.44,8.38,5.64,15.73,13.5,17.79a21.76,21.76,0,0,0,12.37-.79,32.34,32.34,0,0,0,7.11-3.36,23.09,23.09,0,0,0,4.1,4.24c5,4,11.34,5.76,17.57,6.26a24.3,24.3,0,0,0,8.7-.85c1.45-.4,2.9-.6,4.32-1.09a37.36,37.36,0,0,0,4.38-1.86,26.53,26.53,0,0,0,6.67-4.33,24.6,24.6,0,0,0,2.35,2,26.52,26.52,0,0,0,15.5,5.38,39.58,39.58,0,0,0,16.86-3.64,31.71,31.71,0,0,0,10-7.41,39.26,39.26,0,0,0,16.2,6.87,49,49,0,0,0,13.5.9,36.91,36.91,0,0,0,12.71-3.25c6.78-3.11,14.17-9,15.24-16.85S313.08,611,305.54,609.13Z"/><path class="cls-12" d="M313.73,629.61c-1.75,3.6-5.42,6.37-8.67,8.54-7.55,5-17,6-25.81,4.81a47.31,47.31,0,0,1-13.79-4,34.22,34.22,0,0,1-4.38-2.5c.39-.44.76-.89,1.12-1.34-.48.4-1,.77-1.45,1.1-1.83,1.34-3.72,2.65-5.63,3.85-.23.14-.45.29-.69.42a31,31,0,0,1-4.38,2.6,37.57,37.57,0,0,1-7.44,2.55A40.3,40.3,0,0,1,234.4,647a26.3,26.3,0,0,1-6.93-.65,25,25,0,0,1-9.23-3.09,17.08,17.08,0,0,1-4.6-3.81c-.83-1.05-1.48-2.47-2.55-3.34A18.24,18.24,0,0,0,212,638a16.18,16.18,0,0,0,2.12,2.86,34.3,34.3,0,0,1-6.79,3.61,34.32,34.32,0,0,1-16.45,3.26,37.86,37.86,0,0,1-16.54-5.29,19.28,19.28,0,0,1-4.36-3.55s0,0,0,0a21.64,21.64,0,0,1-3.72-4.9,23.63,23.63,0,0,0,2.32,4.5,43.07,43.07,0,0,1-6.21,2.39,22.34,22.34,0,0,1-11.61.63c-7.35-1.69-12.23-8.18-12.68-15.6a18.44,18.44,0,0,1,10.18-17.18A20,20,0,0,1,160,607.39a13,13,0,0,1,1.63.38,18.1,18.1,0,0,0-.17,2.32,12.84,12.84,0,0,0,.3,2.48,22.55,22.55,0,0,0,1.14,3.2,19.73,19.73,0,0,1,.81-9,11.17,11.17,0,0,1,.6-1.5,23.09,23.09,0,0,1,.92-2.19c2.6-5.26,7.62-8.08,12.5-10.83a25.21,25.21,0,0,1,17-2.76,21.54,21.54,0,0,1,3.06.85,9.76,9.76,0,0,0,1.43,7.29,12,12,0,0,1,.84-9.49,16.2,16.2,0,0,1,3.58-4.75,8.52,8.52,0,0,1,1.17-.88l.07.08a.11.11,0,0,1,.05,0c.28-.16.58-.32.88-.47l0-.09a24.78,24.78,0,0,1,5.41-1.59,13.94,13.94,0,0,1,4-.32,5.31,5.31,0,0,1,.89.13h.26a9.71,9.71,0,0,0-3-.5A32.08,32.08,0,0,0,209,580a17.38,17.38,0,0,0-3.72,1,17.26,17.26,0,0,1-2-7.44,19.47,19.47,0,0,1,1.5-9.36,23.78,23.78,0,0,1,5.54-7.44,21.32,21.32,0,0,1,16.94-5.51c5.13.57,10.94,3.51,13.26,8.31a24.38,24.38,0,0,0-4.64,2.06,13.42,13.42,0,0,0-2.64,2.3,18.64,18.64,0,0,1,12.9-4,21.27,21.27,0,0,1,13.52,4c4.41,3.21,8.63,7.58,10.44,12.79a20.41,20.41,0,0,1,1,4.76,22.42,22.42,0,0,1,.36,5.15c0,.44,0,.88-.05,1.3a26.35,26.35,0,0,0,.36-4.16l.38,0a28.93,28.93,0,0,1,8.36.23,21.83,21.83,0,0,1,18.08,14.52,14.4,14.4,0,0,1,.25,9.13c-.1.37-.21.74-.34,1.1h-.09a24.37,24.37,0,0,0-4.13.91,2.45,2.45,0,0,0-1.43.8H293l.14,0c1.06-.79,2.74-.81,4-.87a19.41,19.41,0,0,1,2.64,0h0a19.86,19.86,0,0,1,5.18.93,14.87,14.87,0,0,1,9.07,8.09A13.47,13.47,0,0,1,313.73,629.61Z"/><path class="cls-41" d="M227,572a6,6,0,0,0,.38,2.55c-.07-3.13,1.87-6.79,3.85-8.93A17.69,17.69,0,0,1,234,563.2a15.06,15.06,0,0,1,1.86-1.5,24.38,24.38,0,0,1,4.64-2.06,11.72,11.72,0,0,0-2.08-3C233.13,557.54,227.41,564.31,227,572Z"/><path class="cls-41" d="M205.27,581.08a17.38,17.38,0,0,1,3.72-1,32.08,32.08,0,0,1,4.39-.34,8.82,8.82,0,0,1,2.41.34,28.35,28.35,0,0,1,7.79,1.94,30.06,30.06,0,0,1,7.84,4.39c-5.06-7.68-15.86-12.17-24.38-8.47a.55.55,0,0,1-.76-.2,24.45,24.45,0,0,1-1.69-13,20.17,20.17,0,0,0-1.31,8.91A17.26,17.26,0,0,0,205.27,581.08Z"/><path class="cls-42" d="M314,618.48a14.87,14.87,0,0,0-9.07-8.09,19.86,19.86,0,0,0-5.18-.93h0a19.41,19.41,0,0,0-2.64,0c-1.21.06-2.89.08-4,.87l-.14,0h-.11a2.45,2.45,0,0,1,1.43-.8,24.37,24.37,0,0,1,4.13-.91h.09c.13-.36.24-.73.34-1.1a14.4,14.4,0,0,0-.25-9.13,24.63,24.63,0,0,0-3.89-6.86,24.14,24.14,0,0,0-11.68-7.09c4.88,3.1,8.87,7.24,9,13.6a28.39,28.39,0,0,1-3.28,14.25c.9-.15,1.79-.27,2.7-.37,3.82-.45,7.9-1.06,11.61.32,2.94,1.1,4.07,3.95,3.19,6.9a15.85,15.85,0,0,1-8.75,9.68c-8.17,3.83-17.87,3.36-26.31.61-5.7-1.85-11.35-4.9-15.11-9.51-4.05,8.39-11.8,14.46-21.93,14.66-11.55.25-24.57-7-28.33-18.24a25,25,0,0,0,2.71,10.44.58.58,0,0,1-.22.75c-8.25,5.27-25.26,10.83-35.16,6.69-5.42-2.26-7.94-7.05-10.18-12.89-.46,4.08.49,8.54,2,12.89.12.36-1.26.59-1.59.63-6.95.83-15.36.08-20.49-5.3a15.25,15.25,0,0,1-4.14-9.88,16.86,16.86,0,0,0-.78,6.08c.45,7.42,5.33,13.91,12.68,15.6a22.34,22.34,0,0,0,11.61-.63,43.07,43.07,0,0,0,6.21-2.39,23.63,23.63,0,0,1-2.32-4.5,21.64,21.64,0,0,0,3.72,4.9s0,0,0,0a19.28,19.28,0,0,0,4.36,3.55,37.86,37.86,0,0,0,16.54,5.29,34.32,34.32,0,0,0,16.45-3.26,34.3,34.3,0,0,0,6.79-3.61A16.18,16.18,0,0,1,212,638a18.24,18.24,0,0,1-.9-1.83c1.07.87,1.72,2.29,2.55,3.34a17.08,17.08,0,0,0,4.6,3.81,25,25,0,0,0,9.23,3.09,26.3,26.3,0,0,0,6.93.65,40.3,40.3,0,0,0,8.21-1.34,37.57,37.57,0,0,0,7.44-2.55,31,31,0,0,0,4.38-2.6c.24-.13.46-.28.69-.42,1.91-1.2,3.8-2.51,5.63-3.85.46-.33,1-.7,1.45-1.1-.36.45-.73.9-1.12,1.34a34.22,34.22,0,0,0,4.38,2.5,47.31,47.31,0,0,0,13.79,4c8.79,1.21,18.26.22,25.81-4.81,3.25-2.17,6.92-4.94,8.67-8.54A13.47,13.47,0,0,0,314,618.48Z"/><path class="cls-12" d="M204.85,582.5l-.13.09.16-.06S204.87,582.5,204.85,582.5Z"/></g></g></svg>