<svg xmlns="http://www.w3.org/2000/svg" viewBox="0 0 1186.87 806.32"><title>bannerblog</title><g style="isolation:isolate"><g id="bk"><path d="M631.39,199.91a4.17,4.17,0,0,0-.94.1,8.58,8.58,0,0,0-7.24-5.76,5.41,5.41,0,0,0-5-7.38H618a7.85,7.85,0,1,0-12.95-8.75,12.53,12.53,0,0,0-24.7,1.47,5.25,5.25,0,0,0-8.85,5.61,9,9,0,0,0-10.66,8.25,6.21,6.21,0,1,0-4.57,10.43,6.39,6.39,0,0,0,1.25-.12,8.29,8.29,0,0,0,15.86.61A12.53,12.53,0,0,0,597.79,206a12.51,12.51,0,0,0,16-2.77,8.6,8.6,0,0,0,15.16,5.06,4.57,4.57,0,1,0,2.48-8.41Z" style="fill:#dedefd"/><rect x="-3.65" y="0.6" width="1190.82" height="356" style="fill:#5a59f3"/><path d="M1102.64,108.92c-51.93,1.42-110.74,2.35-119.24,2.51-71.77,1.4-143.77,1.92-215.53.15-114.35-2.81-225.13-14-337.5-21.8-139.94-9.68-293.76-13.28-434-3V356.6H1185.06V104.45C1185.06,106.18,1146.28,107.73,1102.64,108.92Z" style="fill:#7b7af5"/><path d="M265.22,130.54c58.73,11.07,118.06,21,182.5,22.14,120.24,2.2,246.6-5.1,356.74-26.53,62.46-12.15,125.8-24.8,193.83-29.57a787.21,787.21,0,0,1,96.31-.93c10.1.55,92.57,6.36,92.57,11.31V358.6H-3.65V96.5c25.6.19,51.41,1.12,77.9,3.7C140.87,105.62,202.71,118.75,265.22,130.54Z" style="fill:#9c9bf8"/><path d="M922.3,425.66c-58.73-12-118.06-22.7-182.5-24-120.24-2.39-246.6,5.51-356.75,28.73-62.46,13.17-125.79,26.87-193.82,32a723,723,0,0,1-96.31,1C82.82,462.86.35,456.56.35,451.2V178.6H1191.17V462.53c-25.6-.21-51.41-1.22-77.9-4C1046.65,452.65,984.81,438.42,922.3,425.66Z" style="fill:#9c9bf8"/><rect x="14.65" y="16.93" width="1150.88" height="682.67" style="fill:none"/><path d="M374.56,446.31v0Zm2.19-.74v0Zm-2.23-.93a1.36,1.36,0,0,0,0,.2A1.36,1.36,0,0,1,374.52,444.64Zm-.67-1.8a2.7,2.7,0,0,0-.25-.34A2.7,2.7,0,0,1,373.85,442.84Zm.56,1.29c0-.08-.05-.16-.08-.24C374.36,444,374.38,444.05,374.41,444.13Zm-.22-.67-.15-.29ZM364,465.07l0,0Zm.76-.9,0,0Z" style="fill:#c4c2c3;mix-blend-mode:multiply"/></g></g></svg>