<svg xmlns="http://www.w3.org/2000/svg" viewBox="0 0 1440 900"><title>bk</title><g style="isolation:isolate"><g id="Layer_1" data-name="Layer 1"><path d="M773.64,167.86a5.93,5.93,0,0,0-1.13.11,10.48,10.48,0,0,0-8.84-7,6.51,6.51,0,0,0,.46-2.42,6.58,6.58,0,0,0-6.58-6.58h-.18a9.57,9.57,0,1,0-15.79-10.66,15.27,15.27,0,0,0-30.11,1.79,6.4,6.4,0,0,0-11.55,3.79,6.46,6.46,0,0,0,.76,3,10.83,10.83,0,0,0-2-.18,11,11,0,0,0-11,10.24,7.58,7.58,0,1,0-5.56,12.72,7.61,7.61,0,0,0,1.52-.15,10.11,10.11,0,0,0,19.33.75,15.28,15.28,0,0,0,29.7,2,15.27,15.27,0,0,0,19.47-3.38,10.47,10.47,0,0,0,18.47,6.16,5.5,5.5,0,0,0,3,.9,5.57,5.57,0,1,0,0-11.14Z" style="fill:#dedefd"/><rect x="-0.46" width="1440.46" height="780.76" style="fill:#5a59f3"/><path d="M1340.12,160.75c-62.93,3.55-134.19,5.86-144.49,6.27-87,3.49-174.22,4.77-261.18.36-138.57-7-272.8-35-409-54.36C355.9,88.9,169.5,79.91-.46,105.59V778.28H1440V149.6C1440,153.92,1393,157.77,1340.12,160.75Z" style="fill:#7b7af5"/><path d="M324.77,196c71.05,27.73,142.81,52.49,220.76,55.45C691,256.92,843.83,238.64,977.06,185c75.56-30.44,152.17-62.14,234.46-74.07a460.75,460.75,0,0,1,116.5-2.33c12.22,1.37,112,15.93,112,28.33V767.24H-.46V110.68c31,.48,62.18,2.81,94.23,9.26C174.36,133.53,249.16,166.42,324.77,196Z" style="fill:#9c9bf8"/><path d="M1409.32,716.17a49.81,49.81,0,0,0-7.42-1c-1.44-19.84-18-37.85-43.35-45.41a30.41,30.41,0,0,0,7.23-10.9c6.52-17.35-6.86-35.39-29.89-40.3l-1.13-.21c11.63-6,20.64-15.07,24.79-26.11,9.47-25.21-10-51.43-43.45-58.57-23-4.9-46.59.48-62.19,12.49,2.7-34.7-26.76-67.37-73-77.23-50.17-10.7-102.23,9.3-120.88,45.12-4.55-9.11-14.58-16.53-28-19.39-22.39-4.77-45.66,5-52,21.9a24.1,24.1,0,0,0-.6,15.52,88.81,88.81,0,0,0-12.33-3.56c-36.89-7.87-75.18,7.26-87.95,34-6.09-9-16.94-16.16-30.88-19.13-26.5-5.65-54.06,5.95-61.56,25.92s7.9,40.73,34.4,46.38a65.06,65.06,0,0,0,9.91,1.32c-.58,22.24,18.68,42.85,48.41,49.19,28,6,56.88-2.51,72.65-19.53-5.77,36.35,24.22,71.47,72.45,81.76,43.65,9.3,88.73-4.62,112-32,12,9.44,27.35,16.67,45.23,20.49,29.84,6.36,60.33,1.86,84.08-10.35-8,26.72,13,53.8,48.45,61.35,20.38,4.35,41.21,1.3,57.46-7a39.52,39.52,0,0,0,17.56,8.35c19.47,4.15,39.73-4.38,45.25-19.05S1428.8,720.33,1409.32,716.17Z" style="fill:#d0d0fc"/><path d="M33.82,676.9a45.72,45.72,0,0,1,7.2-.12c5.17-18.6,24.29-33.82,49.71-38.2A26.1,26.1,0,0,1,86,627.48c-2.83-17.11,13.29-32.71,36-34.84.37,0,.74-.06,1.11-.08-9.83-7-16.62-16.49-18.42-27.38C100.56,540.31,124,517.64,157,514.54c22.66-2.13,43.95,5.53,56.4,18.58,4.1-33.09,38.23-60.77,83.83-65.05,49.48-4.64,94.86,19.93,105.62,55.83,6.05-8.11,17-14,30.15-15.27,22.08-2.07,42.21,9.73,45,26.36a23.48,23.48,0,0,1-2.42,14.74,89.64,89.64,0,0,1,12.35-2c36.38-3.42,69.68,15.06,76.61,41.76,7.48-7.86,19.12-13.44,32.87-14.73,26.13-2.45,50,11.53,53.22,31.22s-15.3,37.65-41.43,40.1a63.45,63.45,0,0,1-9.63.17c-3.72,21.09-25.88,38.47-55.21,41.22-27.62,2.59-53.29-8.57-64.93-26.37-1.53,35-36.63,64.92-84.2,69.39-43.06,4-83-14-99.73-42.45a114.39,114.39,0,0,1-46.7,14.43c-29.43,2.77-57.4-4.81-77.51-18.94,2.46,26.14-22.66,49.44-57.58,52.72-20.1,1.88-39.21-3.27-53-12.89a41.27,41.27,0,0,1-18.2,6c-19.21,1.8-36.72-8.48-39.12-23S14.61,678.7,33.82,676.9Z" style="fill:#d0d0fc"/><path d="M963.38,716.62a49.52,49.52,0,0,0-7.49.57c-8.56-18.79-31-32.72-58.13-34.8a25.67,25.67,0,0,0,3-12c0-18-19.39-32.64-43.33-32.64l-1.16,0c9-8.21,14.41-18.73,14.41-30.21,0-26.2-28.19-47.44-63-47.44-23.88,0-44.65,10-55.33,24.77-9.94-33.94-50.1-59.33-98.14-59.33-52.14,0-95,29.92-100,68.21-7.66-7.83-20-12.91-33.91-12.91-23.26,0-42.12,14.2-42.12,31.73a25.71,25.71,0,0,0,5,15.06,96.19,96.19,0,0,0-13.16-.9c-38.33,0-69.71,22.41-72.33,50.79-9.11-7.43-22.14-12.08-36.62-12.08-27.54,0-49.87,16.82-49.87,37.57s22.33,37.57,49.87,37.57a66.78,66.78,0,0,0,10-.75c7.48,21.51,33.46,37.39,64.36,37.39,29.1,0,53.82-14.08,62.84-33.69,7.59,36.16,49.14,63.8,99.27,63.8,45.36,0,83.71-22.65,96.2-53.76a125.84,125.84,0,0,0,50.93,10.44c31,0,58.73-10.58,77.16-27.21,1.94,27.36,32,49.1,68.8,49.1,21.18,0,40.11-7.21,52.75-18.53a45.68,45.68,0,0,0,19.91,4.43c20.24,0,36.65-12.37,36.65-27.62S983.62,716.62,963.38,716.62Z" style="fill:#d0d0fc"/><path d="M1400.19,739.57a43.76,43.76,0,0,0-8,1.55c-12.17-23.84-38.7-39.82-68.5-39.68a39.35,39.35,0,0,0,1.46-16.09c-2.74-23.74-26.06-40.94-52.07-38.41l-1.27.16a58.44,58.44,0,0,0,11.07-41.31c-4-34.51-37.87-59.5-75.68-55.82-26,2.52-47,17.91-56.38,38.48-16-43.65-63.5-72.85-115.72-67.76-56.69,5.51-98.74,49.45-98.34,100.42a48.32,48.32,0,0,0-38.83-13.42c-25.29,2.46-43.63,23.16-41,46.25a39.65,39.65,0,0,0,7.77,19.3,87.28,87.28,0,0,0-14.44.2c-41.68,4.06-72.38,36.9-70.9,74.55a57.75,57.75,0,0,0-41.65-12c-29.94,2.91-51.65,27.43-48.49,54.76s30,47.12,59.94,44.2a59,59,0,0,0,10.77-2.06c11.4,27.55,42.06,45.71,75.65,42.44,31.64-3.08,56.37-24.24,63.2-51,13.75,46.81,63.13,78.83,117.62,73.52,49.33-4.8,87.56-38.68,96.4-81a118.71,118.71,0,0,0,57,8.36c33.71-3.28,62.23-20.15,79.74-44,6.28,35.83,42.26,61.27,82.27,57.38,23-2.24,42.51-13.73,54.53-30a43.11,43.11,0,0,0,22.31,3.73c22-2.14,38-20.16,35.64-40.25S1422.2,737.43,1400.19,739.57Z" style="fill:#ebebff"/><path d="M692.3,734.11a44,44,0,0,0-7.9,1.36c-11.1-22.61-36.45-38-65.51-38.22a36.11,36.11,0,0,0,2-15.14c-1.92-22.39-24.09-38.87-49.54-36.81l-1.23.12c8.7-11,13.33-24.5,12.12-38.76-2.78-32.55-35-56.5-72-53.51-25.39,2.06-46.41,16.29-56.2,35.54-14.17-41.3-59.56-69.39-110.64-65.25-55.45,4.49-97.85,45.34-99.11,93.34-9-9.06-22.63-14.32-37.43-13.12-24.73,2-43.27,21.28-41.41,43.05A35.77,35.77,0,0,0,172.35,665a88.38,88.38,0,0,0-14.09,0c-40.76,3.31-71.75,33.85-71.51,69.32-10.48-8.44-24.83-13.09-40.23-11.85-29.28,2.38-51.24,25.19-49,51s27.73,44.75,57,42.37A59.68,59.68,0,0,0,65.07,814c10.23,26.08,39.53,43.57,72.39,40.91,30.94-2.51,55.73-22.13,63.25-47.26,11.9,44.26,59,75,112.32,70.7,48.24-3.9,86.6-35.34,96.58-75.06a118.3,118.3,0,0,0,55.27,8.58c33-2.67,61.32-18.2,79.16-40.44,5,33.82,39.23,58.23,78.35,55.06,22.52-1.83,41.9-12.41,54.13-27.57a42.93,42.93,0,0,0,21.64,3.8c21.52-1.75,37.66-18.52,36-37.47S713.82,732.36,692.3,734.11Z" style="fill:#ebebff"/><rect x="21.85" y="14.1" width="1402.91" height="773.46" style="fill:none"/><path d="M460.58,468.21v0Zm2.67-.9v0Zm-2.73-1.13,0,.24Zm-.81-2.19c-.09-.15-.2-.28-.3-.42C459.51,463.71,459.62,463.84,459.71,464Zm.68,1.57c0-.1-.06-.19-.09-.3C460.33,465.37,460.36,465.46,460.39,465.56Zm-.27-.81-.18-.36Zm-12.47,26.33,0,.06Zm.93-1.1,0,0Z" style="fill:#c4c2c3;mix-blend-mode:multiply"/><path d="M448,506.33c5.49,60,5,107.76,2.11,155.63h.06s10.93-60.32,4.9-113.33-13.55-111.24,3.41-213l-2.13-.59A627.71,627.71,0,0,0,448,506.33Z" style="fill:#afafaf"/><path d="M443.13,494.55c3.88,67.61,10.29,118.14,7,167.41h-.06c2.92-47.87,3.38-95.66-2.11-155.63A627.86,627.86,0,0,1,456.33,335l-1.78-.5C446.93,374,439.5,431.38,443.13,494.55Z" style="fill:#8e8e8e"/><path d="M638.44,533.53c5.49,69.47,5,124.83,2.11,180.27h.06s10.93-69.87,4.9-131.27S632,453.69,648.92,335.76l-2.14-.69A840.29,840.29,0,0,0,638.44,533.53Z" style="fill:#afafaf"/><path d="M633.59,519.89c3.87,78.31,10.29,136.84,7,193.91h-.06c2.92-55.44,3.38-110.8-2.11-180.27a840.47,840.47,0,0,1,8.34-198.48l-1.77-.58C637.38,380.23,630,446.72,633.59,519.89Z" style="fill:#8e8e8e"/><path d="M218.08,555.63c3.15,70.71,7.82,123.55,5.17,175.08h.48A1317.45,1317.45,0,0,0,222,568a843.55,843.55,0,0,1,6.77-179.21l-1.44-.52C221.16,429.54,215.14,489.57,218.08,555.63Z" style="fill:#8e8e8e"/><path d="M222,568a1317.45,1317.45,0,0,1,1.71,162.76h.47s8.45-63.08,3.55-118.52-11-116.33,2.78-222.81l-1.74-.62A843.35,843.35,0,0,0,222,568Z" style="fill:#afafaf"/><path d="M502.41,481.67c.66-.67,1.36-1.51,2.14-2.48,1.76,1,5,2.46,5.85.28s-1.12-3.7-2.43-4.57c.54-.64,1.09-1.29,1.66-2,5.11-5.92,10.16-9.29,13-7.47a3.16,3.16,0,0,1,1.44,2.23c-3.35,7.28-12.66,26.22-22.43,33.52-.91-.62-2.61-2.07-4.87-4,2.24-2.72,7.49-9.09,8.55-11.43C506.27,483.59,503.85,482.25,502.41,481.67Z" style="fill:#f4cdd4"/><path d="M510.4,479.47c-.86,2.18-4.09.72-5.85-.28,1-1.26,2.15-2.73,3.42-4.29C509.28,475.77,511.23,477.44,510.4,479.47Z" style="fill:#f4cdd4"/><path d="M524,467.68c.48,2.6-1.23,7.19-5.74,15.05-6.2,10.85-12.54,20.9-16.32,18.71-.09-.05-.23-.16-.37-.24C511.38,493.9,520.69,475,524,467.68Z" style="fill:#f4cdd4"/><path d="M499.13,483.17c.91.48,2-.17,3.28-1.5,1.44.58,3.86,1.92,2.88,4.07-1.06,2.34-6.31,8.71-8.55,11.43-3.12-2.73-7.25-6.44-11.61-10.42,2.06-3.82,4.71-7.94,6.25-10.29C495,479.66,497.81,482.15,499.13,483.17Z" style="fill:#f4cdd4"/><path d="M464.38,452.36c5.21,4.34,18.24,16.29,27,24.1-1.54,2.35-4.19,6.47-6.25,10.29-11.62-10.61-24.89-23-24.89-23s-6,4.46-9.45,6.93S447,451.41,447,451.41,457.06,446.26,464.38,452.36Z" style="fill:#f4cdd4"/><path d="M507.47,475.54l.5-.64c1.31.87,3.26,2.54,2.43,4.57-.54,1.38-2,1.3-3.48.81A3.36,3.36,0,0,0,507.47,475.54Z" style="fill:#f4cdd4"/><path d="M505.29,485.74c1-2.15-1.44-3.49-2.88-4.07.66-.67,1.36-1.51,2.14-2.48,1.76,1,5,2.46,5.85.28s-1.12-3.7-2.43-4.57c.47-.57,1-1.17,1.49-1.77,3.39,3.52,7.58-.62,10.46-5.7.69-1.2.84-2,.66-2.46a3.34,3.34,0,0,1,2,.48,3.16,3.16,0,0,1,1.44,2.23c-3.35,7.28-12.66,26.22-22.43,33.52-.91-.62-2.61-2.07-4.87-4C499,494.45,504.23,488.08,505.29,485.74Z" style="fill:#e36386"/><path d="M513,466.86c.49-.79,1-1.76,1.56-2.87,1.93.59,5.4,1.35,5.79-1s-1.88-3.4-3.35-3.95c.39-.75.79-1.52,1.21-2.29,3.74-6.87,8-11.24,11.09-10a3.13,3.13,0,0,1,1.87,1.85c-1.72,7.84-6.82,28.33-14.84,37.5-1-.42-3-1.45-5.61-2.91,1.63-3.11,5.41-10.46,6-13C517.2,467.91,514.57,467.12,513,466.86Z" style="fill:#f4cdd4"/><path d="M520.39,463c-.39,2.31-3.86,1.55-5.79,1,.74-1.45,1.54-3.13,2.44-4.91C518.51,459.63,520.76,460.86,520.39,463Z" style="fill:#f4cdd4"/><path d="M531.21,448.6c1,2.45.33,7.29-2.42,15.93-3.77,11.92-7.85,23.07-12,21.75l-.42-.18C524.39,476.93,529.49,456.44,531.21,448.6Z" style="fill:#f4cdd4"/><path d="M510.15,469c1,.28,1.89-.58,2.89-2.15,1.53.26,4.16,1.05,3.67,3.36-.54,2.51-4.32,9.86-6,13-3.62-2-8.44-4.76-13.54-7.72,1.2-4.17,2.91-8.75,3.93-11.36C505.32,466.47,508.65,468.3,510.15,469Z" style="fill:#f4cdd4"/><path d="M469.68,446.24c6,3.14,21.27,12.07,31.47,17.87-1,2.61-2.73,7.19-3.93,11.36-13.6-7.91-29.2-17.23-29.2-17.23s-4.94,5.64-7.77,8.77-7.76-18-7.76-18S461.21,441.83,469.68,446.24Z" style="fill:#f4cdd4"/><path d="M516.67,459.78c.13-.22.25-.47.37-.7,1.47.55,3.72,1.78,3.35,3.95-.24,1.45-1.72,1.69-3.24,1.52A3.38,3.38,0,0,0,516.67,459.78Z" style="fill:#f4cdd4"/><path d="M516.71,470.22c.49-2.31-2.14-3.1-3.67-3.36.49-.79,1-1.76,1.56-2.87,1.93.59,5.4,1.35,5.79-1s-1.88-3.4-3.35-3.95c.35-.67.7-1.36,1.08-2.05,4,2.73,7.29-2.21,9-7.78.41-1.33.4-2.12.13-2.56a3.24,3.24,0,0,1,2.07.06,3.13,3.13,0,0,1,1.87,1.85c-1.72,7.84-6.82,28.33-14.84,37.5-1-.42-3-1.45-5.61-2.91C512.39,480.08,516.17,472.73,516.71,470.22Z" style="fill:#e36386"/><path d="M437.65,456.2l15.17-8.75a88,88,0,0,1,13.44,26.79c-23.88,18.13-44.29,26.73-57.78,7-2.22-4.59-.92-7.33-.92-7.33Z" style="fill:#fa7598"/><path d="M421.51,419.28s6.25,3.46,11.95-3,7.35-15.5,7.35-15.5-4.16-4.17-3.17-5.65,5.26,1.54,5.26,1.54-4.87-12.29-2-13.35S445,394.08,445,394.08s2.88-10.49,5.13-9.94-1.31,10.59-1.31,10.59,6.8-6,8.12-4.87-6.42,7.34-6.42,7.34,8.43-1.89,9.2-.38-7.67,3.44-7.67,3.44,1.94,7.44-5.2,8.51c-3,7.12-9.24,16.92-13.86,18.38s-12.08.31-12.08.31Z" style="fill:#fad8bf"/><g style="opacity:0.30000000000000004;mix-blend-mode:multiply"><path d="M421.51,419.28s6.25,3.46,11.95-3,7.35-15.5,7.35-15.5-3.69-3.69-3.29-5.36a7,7,0,0,0,4.35,4.87c-.05,4.79-3.27,11.76-7.76,17.2s-3.75,9,.68,6.18,10.76-15.05,10.76-15.05a1.64,1.64,0,0,1-.61-1.58c5.21,1.51,7-4.9,6.32-7.88,4.58-.48,7-1.52,8.27-2.53a.88.88,0,0,1,.19.2c.78,1.55-7.67,3.44-7.67,3.44s1.94,7.44-5.2,8.51c-3,7.12-9.24,16.92-13.86,18.38s-12.08.31-12.08.31Z" style="fill:#dfa679"/></g><path d="M420.33,430.09l3.05-12.93s-13.75-2.66-20.79-2l-.27,4Z" style="fill:#fa7598"/><path d="M392.81,414.78c10.6,3.94-2,32.34-2,32.34-11.4-5.4-15.42-6.88-15.42-6.88S384.78,415.79,392.81,414.78Z" style="fill:#fa7598"/><path d="M396.87,420.73c-.43-2.84-1.62-5-4.06-6l.52-5.43,8.87,2.14s.19,2.12.49,5.74C402.69,417.23,403.68,424.45,396.87,420.73Z" style="fill:#e5ba9c"/><path d="M396.87,420.73c6.81,3.72,5.82-3.5,5.82-3.5,8.85,5.1,23.16,15,38.78,38.31l-33.11,26a121.1,121.1,0,0,1-17.53-34.45S398.28,430.27,396.87,420.73Z" style="fill:#fa7598"/><path d="M392.28,359.12s-11.3-10.9-26.95-1.48-16.61,31.28-13.39,49c2.22,12.08-4.69,12.38-6.87,10.68,1.45,5.73,5.82,7.62,9.49,5.73-3.86,6.41,2.6,15.56,6.26,17.24-2.43-3.32,2-10.1,2-10.1s2,15.55,27.19,12.7c-8.84-2.73-9.54-14-9.54-14s5.16,6.14,8.15,5.49-.69-3.83-6.36-11.73S365.87,387.07,392.28,359.12Z" style="fill:#5e3503"/><path d="M377.1,398.42c-3,.6-7.93-7.62-4.15-9.55s6.25,2.8,6.25,2.8.72-11.52,1.68-17.8c2.36,4.75,5.29,10.05,5.29,10.05s2.47-6.43,2.45-11.32A20.08,20.08,0,0,0,396,377s-.15-1.5-2.43-5c6.45,4.42,17.8,5.05,17.8,5.05s-1.27-4.38-4.48-5.83c2.21-.08,8.43,3.56,11.1,8a31.93,31.93,0,0,1-.13,7.29c-.68,6.34.08,7.52,1.12,10.15s1,8.22-11.13,14.11-23.79-.23-27.28-3.56C380.61,407.17,377.71,402.43,377.1,398.42Z" style="fill:#fad8bf"/><path d="M363.5,390.49c-2-12.14,1.47-18.58,8.13-21.62,0,0,8-16.14,28.75-12.1,12.83,3.84,20.46,10.43,21,22.29-2-4.58-4.44-5.69-4.44-5.69A8.58,8.58,0,0,1,419,380l-.93-.84c-2.67-4.4-8.89-8-11.1-8,3.21,1.45,4.48,5.83,4.48,5.83s-11.35-.63-17.8-5.05c2.28,3.53,2.43,5,2.43,5a20.08,20.08,0,0,1-7.42-4.43c0,4.89-2.45,11.32-2.45,11.32s-2.93-5.3-5.29-10.05c-1,6.28-1.68,17.8-1.68,17.8s-2.49-4.73-6.25-2.8,1.12,10.15,4.15,9.55c.61,4,3.51,8.75,3.51,8.75C378.47,407.93,365.48,402.61,363.5,390.49Z" style="fill:#7d4902"/><path d="M374,392.48a.72.72,0,0,1,.24-.1.64.64,0,0,1,.3-.06h.16l.19,0a1.52,1.52,0,0,1,.4.16,3.71,3.71,0,0,1,.41.28c.12.13.25.23.38.37a4.82,4.82,0,0,1,.35.44c.1.15.22.29.32.46l.31.47c.18.31.34.6.49.85.28.52.5.85.5.85a7.29,7.29,0,0,0-.26-1q-.07-.21-.18-.45c-.07-.15-.13-.34-.21-.49s-.18-.33-.29-.51-.22-.33-.33-.5a5.9,5.9,0,0,0-.39-.46,3.22,3.22,0,0,0-.45-.39,2.52,2.52,0,0,0-.51-.27,2,2,0,0,0-.5-.11h-.23l-.2,0a1.4,1.4,0,0,0-.3.14A.64.64,0,0,0,374,392.48Z" style="fill:#c48053"/><path d="M375.91,395.89a2.88,2.88,0,0,0,.18-.34l.16-.34c.05-.12.09-.25.15-.37a4.39,4.39,0,0,1,.31-.68,1,1,0,0,1,.08-.11.86.86,0,0,1,.07-.1l.07-.08h-.11a.24.24,0,0,0-.14,0,1.15,1.15,0,0,0-.15.08,1.14,1.14,0,0,0-.31.28,2.71,2.71,0,0,0-.23.41,1.86,1.86,0,0,0-.14.83A1.22,1.22,0,0,0,375.91,395.89Z" style="fill:#c48053"/><path d="M413.85,391.49c-.06,1.26.23,2.31.65,2.32s.8-1,.86-2.25-.24-2.3-.65-2.33S413.9,390.22,413.85,391.49Z" style="fill:#292524"/><path d="M414.51,390.14c0,.42.2.72.39.71s.31-.35.27-.75-.19-.71-.38-.7S414.48,389.75,414.51,390.14Z" style="fill:#fff"/><path d="M395.83,391.24c-.05,1.27.24,2.3.66,2.32s.79-1,.86-2.26-.23-2.3-.65-2.31S395.89,390,395.83,391.24Z" style="fill:#292524"/><path d="M396.51,389.9c0,.4.19.71.38.69s.31-.34.28-.75-.2-.7-.39-.69S396.47,389.5,396.51,389.9Z" style="fill:#fff"/><path d="M407.54,393.59l.73.85c.24.25.48.55.74.87a9.9,9.9,0,0,1,.76,1,1.39,1.39,0,0,1,.22.53s0,.09,0,.09l-.05.16a1.52,1.52,0,0,1-.14.21,3.48,3.48,0,0,1-.85.68,9.86,9.86,0,0,1-1,.54,4.27,4.27,0,0,0,1.06-.36,2.94,2.94,0,0,0,1-.65,1.48,1.48,0,0,0,.23-.3l.06-.16c0-.1,0-.16,0-.24a1.85,1.85,0,0,0-.27-.69,8.87,8.87,0,0,0-1.67-1.86A9.43,9.43,0,0,0,407.54,393.59Z" style="fill:#c48053"/><path d="M402.65,383.91a8,8,0,0,0-.87-2,7.1,7.1,0,0,0-.62-.87,3.8,3.8,0,0,0-.9-.83,2.74,2.74,0,0,0-1.29-.51l-.36,0-.36.05-.19,0H398l-.05,0h0l-.08,0-.3.1c-.2.09-.42.23-.63.34l-.55.41a7,7,0,0,0-.89.92,10.44,10.44,0,0,0-1.22,1.88,11.4,11.4,0,0,0-.83,2l.32-.49c.19-.32.51-.77.87-1.28A15.23,15.23,0,0,1,396,382a6.66,6.66,0,0,1,.87-.8,5.2,5.2,0,0,1,.47-.35,3.93,3.93,0,0,1,.5-.26l.29-.11.09,0h0c-.05,0,0,0,0,0h0l.13,0a2.34,2.34,0,0,1,.26,0h.27a4.64,4.64,0,0,1,.51.11,2.78,2.78,0,0,1,.49.24,4,4,0,0,1,.85.66,6.49,6.49,0,0,1,.67.74,10.16,10.16,0,0,1,.9,1.24Z" style="fill:#7d4902"/><path d="M418.19,383.24a1,1,0,0,0-.06-.29,1.92,1.92,0,0,0-.37-.73,1.24,1.24,0,0,0-.44-.37.93.93,0,0,0-.34-.13.87.87,0,0,0-.36,0,1.62,1.62,0,0,0-.71.18,4.82,4.82,0,0,0-.57.4,4.19,4.19,0,0,0-.46.49c-.14.16-.25.35-.38.52a7.37,7.37,0,0,0-.49,1,6.15,6.15,0,0,0-.32,1s.31-.32.69-.8c.19-.25.43-.52.66-.82.12-.14.26-.27.38-.42a5.14,5.14,0,0,1,.41-.4,2.65,2.65,0,0,1,.42-.33,1.26,1.26,0,0,1,.43-.16.71.71,0,0,1,.2,0,.38.38,0,0,1,.21,0,1.08,1.08,0,0,1,.38.17,2.88,2.88,0,0,1,.53.49A1.63,1.63,0,0,1,418.19,383.24Z" style="fill:#7d4902"/><path d="M410.11,403s-8.16,1.77-13.67-2c1,5.35,3.44,8,5.61,8.09S408.13,403.66,410.11,403Z" style="fill:#510012"/><path d="M397.12,403.58a22.09,22.09,0,0,1-.68-2.62c3.08,2.12,7,2.51,9.85,2.43C405.38,404.65,402.68,407.24,397.12,403.58Z" style="fill:#fff"/><path d="M402.82,408.9a1.7,1.7,0,0,1-.77.15c-1.55-.07-3.22-1.44-4.42-4.17A6.57,6.57,0,0,1,402.82,408.9Z" style="fill:#fd7072"/><path d="M402,409.28c-2-.09-4.68-2.32-5.81-8.29l-.1-.54.45.32a15.43,15.43,0,0,0,8.49,2.39,23.81,23.81,0,0,0,5-.39l.11.43a12.85,12.85,0,0,0-3.24,2.65c-1.74,1.71-3.53,3.46-4.87,3.43Zm3-5.66a16.29,16.29,0,0,1-8.28-2.17c.8,3.66,2.7,7.26,5.29,7.38l0,.22v-.22c1.14,0,3-1.74,4.54-3.29A26.59,26.59,0,0,1,409,403.4,24.22,24.22,0,0,1,405.05,403.62Z" style="fill:#c48053"/><path d="M398.44,405c1.46,2.76,2.91,3,3.8,2.8a5.78,5.78,0,0,1,.58,1.06,1.7,1.7,0,0,1-.77.15c-1.55-.07-3.22-1.44-4.42-4.17C397.92,404.92,398.18,405,398.44,405Z" style="fill:#d9494d"/><g style="opacity:0.30000000000000004;mix-blend-mode:multiply"><path d="M373,388.87c3.76-1.93,6.25,2.8,6.25,2.8s.72-11.52,1.68-17.8c2.36,4.75,5.29,10.05,5.29,10.05s2.47-6.43,2.45-11.32A20.08,20.08,0,0,0,396,377s-.15-1.5-2.43-5c6.45,4.42,17.8,5.05,17.8,5.05s-1.27-4.38-4.48-5.83c2.21-.08,8.43,3.56,11.1,8,0,0,0,.15,0,.45a30.18,30.18,0,0,0-6.55-5.31s.53.58.05,3.53c-7,.67-15.12-2.57-15.12-2.57l.25,3s-3.48,1-7-2.24c-.55,3.57-3.72,10.69-3.72,10.69s-.6.06-1.59-2.1c-.62,5.43.49,15.58,2.83,22s11.95,8.48,22.85,1.55,8.59-10.29,7.75-14.06a9.62,9.62,0,0,1-.17-2.61,13.62,13.62,0,0,0,1.35,5.18c1,2.63,1,8.22-11.13,14.11s-23.79-.23-27.28-3.56c0,0-2.9-4.74-3.51-8.75C374.07,399,369.17,390.8,373,388.87Z" style="fill:#dfa679"/></g><path d="M396.87,420.73a9.54,9.54,0,0,0,2.27.93,82.39,82.39,0,0,0,2.87,19c3.44,11.86,15.73,23,26.25,16.22,9-5.84-3.22-21.32-6.92-25.66a143.2,143.2,0,0,1,20.13,24.3l-33.11,26a121.1,121.1,0,0,1-17.53-34.45S398.28,430.27,396.87,420.73Z" style="fill:#fa7598"/><path d="M384.3,444.19l-2.93,7.67s9.11,3.21,14.64,7.21c2.82-4.18,3.34-4.83,8-4.8,5.29,0,7,0,9.2,2.73s2.43,4.55.92,5.11c1.69,2.76,2.05,5.57-.78,4.7,2.34,2.24,1,3.86-1.05,3.34,1.18,2.13-.95,3.29-3.41,1.77s-3.75-2.5-6-2-6.09-.12-7.7-3.36c-11.21-5.05-21-9.16-21.62-11.57s3.86-13.79,3.86-13.79Z" style="fill:#fad8bf"/><path d="M407.69,456.8s.08.16.19.44.27.69.47,1.17c.1.25.19.51.28.8l.28.88c.07.32.16.66.22,1a4,4,0,0,1,.2,1c.07.36.11.69.16,1a5.61,5.61,0,0,1,.09,1c0,.32.05.64.07.93a3.74,3.74,0,0,1,0,.83c-.06,1-.07,1.74-.07,1.74s.18-.66.38-1.71A3.26,3.26,0,0,0,410,465c0-.3,0-.63,0-1a6,6,0,0,0,0-1c0-.34-.1-.7-.14-1a5.91,5.91,0,0,0-.23-1c-.1-.35-.2-.66-.29-1a7.86,7.86,0,0,0-.36-.87,7.34,7.34,0,0,0-.37-.79A8.19,8.19,0,0,0,407.69,456.8Z" style="fill:#c48053"/><path d="M414.15,462.11a3.79,3.79,0,0,0-.6-.73,7.09,7.09,0,0,0-.73-.62,7.7,7.7,0,0,0-.95-.57,5.44,5.44,0,0,0-1-.42,5.1,5.1,0,0,0-.93-.22,5.92,5.92,0,0,0-.94-.1s.34.17.85.39a5.54,5.54,0,0,1,.84.39,7.28,7.28,0,0,1,.95.44c.32.15.62.35.92.48s.57.33.81.47Z" style="fill:#c48053"/><path d="M412.89,466.29a3.92,3.92,0,0,0-.39-.35,5.78,5.78,0,0,0-1-.55,6.27,6.27,0,0,0-1.07-.32,2.2,2.2,0,0,0-.53-.06l.41.34a6.59,6.59,0,0,0,1,.55,6.28,6.28,0,0,0,1.05.33A4.85,4.85,0,0,0,412.89,466.29Z" style="fill:#c48053"/><path d="M411.79,469.84a1.55,1.55,0,0,0-.3-.31,4,4,0,0,0-.76-.54,4.85,4.85,0,0,0-.87-.31,2.52,2.52,0,0,0-.43-.05,2.08,2.08,0,0,0,.28.32,3.13,3.13,0,0,0,.78.53,3.8,3.8,0,0,0,.86.32A2,2,0,0,0,411.79,469.84Z" style="fill:#c48053"/><g style="opacity:0.30000000000000004;mix-blend-mode:multiply"><path d="M374,451.74c.51,2.17,2.11,2.55,4.67,4.05,5.08,3.4,16.36,6.44,17.34,8.21s2.88,3.42,7.37,3.7,5.12-.85,4.68-5.62-1.12-7.7-4-7.81c5.29,0,7,0,9.2,2.73s2.43,4.55.92,5.11c1.69,2.76,2.05,5.57-.78,4.7,2.34,2.24,1,3.86-1.05,3.34,1.18,2.13-.95,3.29-3.41,1.77s-3.75-2.5-6-2-6.09-.12-7.7-3.36c-11.21-5.05-21-9.16-21.62-11.57A8.85,8.85,0,0,1,374,451.74Z" style="fill:#dfa679"/></g><g style="opacity:0.30000000000000004;mix-blend-mode:multiply"><path d="M381.82,443.1l2.48,1.09-2.79,7.28c-.79-.09-1.63-.2-2.54-.38C379.57,449.69,380.82,446.07,381.82,443.1Z" style="fill:#dfa679"/></g><path d="M634.63,656.54c-1.62-6.9-8-9.73-14.41-10.84a27,27,0,0,0-10.48.37,19.68,19.68,0,0,0-.88-4.18c-1.57-4.78-5.81-7.81-10.31-9.55a22.84,22.84,0,0,0-14.1-.83,17.51,17.51,0,0,0-5.31,2.43c-.49-3.73-1.85-7.28-5.06-9.61-4.1-3-8.59-3.52-13.45-2.22A18.52,18.52,0,0,0,550,629.8a26.5,26.5,0,0,0-1.87,3.23,28.13,28.13,0,0,0-6.93-2.58c-5.89-1.47-11.7,0-16.72,3.25A25.75,25.75,0,0,0,514.38,646a11.33,11.33,0,0,0-.59,2.17c-.38-.16-.75-.33-1.13-.48a27.57,27.57,0,0,0-11.31-2.29,23.75,23.75,0,0,0-15,6.2,23.83,23.83,0,0,0-10.54-2,16.45,16.45,0,0,0-16.59,12.07c-1.92,6.51,1.56,12.9,7.68,15.51,4.81,2.05,10.27,1.53,15.26.13a.44.44,0,0,1,.06.16,15.93,15.93,0,0,0,6.06,6.75,16.63,16.63,0,0,0-.37,2.72A14.84,14.84,0,0,0,496,700.57c5.7,3,12.25,3.64,18.56,3.08a26.15,26.15,0,0,0,13.58-4.94,25.65,25.65,0,0,0,5.71,5.94c5.77,4.33,13.56,5.27,20.57,4.79a41.17,41.17,0,0,0,21.37-8,26.56,26.56,0,0,0,8.28-9.51c.41.2.81.41,1.24.57,4.54,1.91,9.85,1.31,14.41-.24a26.52,26.52,0,0,0,11.83-8.9,23.79,23.79,0,0,0,3.43-6,7.14,7.14,0,0,0,.46-2,21,21,0,0,0,10.1-2.49C631.49,669.6,636.32,663.71,634.63,656.54Z" style="fill:#fff"/><path d="M627.15,672.09a17.78,17.78,0,0,1-7.57,2.13c-1.49.18-3,.26-4.52.31a31.07,31.07,0,0,1-3.49,0,25.64,25.64,0,0,0,4.3.77,6.32,6.32,0,0,1-.29,1.07,18,18,0,0,1-3,5.08,27,27,0,0,1-10,7.76,23.39,23.39,0,0,1-12.49,1.86,14.61,14.61,0,0,1-2.65-.64,15.12,15.12,0,0,0,1-5.55.23.23,0,0,0,0-.12c-.08,2.18-1.35,4.37-2.43,6.14a21.1,21.1,0,0,1-2.6,3.49,31.24,31.24,0,0,1-6.23,5.47A42.85,42.85,0,0,1,557.32,707a33.32,33.32,0,0,1-18.27-3.11,23.52,23.52,0,0,1-6.73-5.23,11.6,11.6,0,0,1-2.53-3c-1.36-2.29-1.72-4.82-2.12-7.38a15.58,15.58,0,0,0,2.18,8.85,34.18,34.18,0,0,1-25.9,2.56c-4.94-1.51-8.93-4.28-10.81-9.25a12.9,12.9,0,0,1-.76-3.84,7.6,7.6,0,0,1,.56-5.55c1.22-2.28,3.16-3.42,5.28-4.46-2.11-.07-3.94,1.66-5.17,3.22a9,9,0,0,0-1.11,1.78,15.54,15.54,0,0,1-2.62-2.19,15.09,15.09,0,0,1-4.45-5.49,27,27,0,0,1-1.85-4.6c-.14-.44-.26-.9-.36-1.34a25.49,25.49,0,0,0,1.76,8.19,32,32,0,0,1-11.12.06c-5.69-1.09-10.34-5.75-10.06-11.75.32-6.89,6.54-12.5,13.17-13a32.9,32.9,0,0,1,10.19.71,11.15,11.15,0,0,1,1.56.47,19.91,19.91,0,0,0-2.59,3.34c-.22.51-.43,1-.62,1.55a16.7,16.7,0,0,1,5.53-5.65,24,24,0,0,1,15.33-5.65,27.73,27.73,0,0,1,10.63,2.48,11.69,11.69,0,0,0,.27,4.5,11.84,11.84,0,0,1,1.88-7.31,17.2,17.2,0,0,1,.77-1.55,27,27,0,0,1,11.47-10.85,21.66,21.66,0,0,1,16.65-.7,31,31,0,0,1,3,1.16l0,0,.5.2h0a.26.26,0,0,1,.09,0c.23.1.47.2.71.32,1,.47,2,.92,2.93,1.49a12.45,12.45,0,0,0-2.86-2.36l-.46-.28a30.21,30.21,0,0,1,1.6-2.66,16.56,16.56,0,0,1,10-7,18.75,18.75,0,0,1,6.32-.59,13.29,13.29,0,0,1,5.5,2.1,12.32,12.32,0,0,1,5.62,7.55,7.21,7.21,0,0,1,.45,1.18,14.81,14.81,0,0,1,1,3.17.48.48,0,0,0,.21-.37c0-.54,0-1.06-.09-1.59a25.59,25.59,0,0,1,3-1.32,22,22,0,0,1,13.82,0c4.13,1.22,8.26,3.76,10.43,7.57a14.75,14.75,0,0,1,1.8,5.11c-2.17.65-4.64,1.83-5.88,3.64a14.14,14.14,0,0,1,9.81-3.16,29.52,29.52,0,0,1,7.35.77c5.62,1.27,11,3.69,12.78,9.69C636.91,663.58,632.2,669.2,627.15,672.09Z" style="fill:#fff"/><path d="M598.8,663.64c2.67,3.72,2.67,9.06,8,10.65-2.67,4.26-9.6,5.87-13.33,3.21-3.22-2-4.31-5.23-6.25-8.06.25,8.56-4,17.85-11.88,20.32-14.39,5.33-32.52,5.87-44.26-4.26-2.51-2.53-2.6-6.5-1.91-10.46a17.33,17.33,0,0,0-3.42,13.12c-4.8.54-9.06,1.6-13.86,1.06-5.86-1.06-14.4-4.26-12.79-11.72a12.88,12.88,0,0,1,5.16-6.55c-5.1.58-10.64,1.8-13.16,6a19.33,19.33,0,0,1-7.6-17c-2.89,3.2-4.94,7.69-3.6,12.16-7.57,1.6-15.43-2.76-16.48-9.3a10.36,10.36,0,0,0-.18,1.56c-.28,6,4.37,10.66,10.06,11.75a32,32,0,0,0,11.12-.06,25.49,25.49,0,0,1-1.76-8.19c.1.44.22.9.36,1.34a27,27,0,0,0,1.85,4.6,15.09,15.09,0,0,0,4.45,5.49,15.54,15.54,0,0,0,2.62,2.19,9,9,0,0,1,1.11-1.78c1.23-1.56,3.06-3.29,5.17-3.22-2.12,1-4.06,2.18-5.28,4.46a7.6,7.6,0,0,0-.56,5.55,12.9,12.9,0,0,0,.76,3.84c1.88,5,5.87,7.74,10.81,9.25a34.18,34.18,0,0,0,25.9-2.56,15.58,15.58,0,0,1-2.18-8.85c.4,2.56.76,5.09,2.12,7.38a11.6,11.6,0,0,0,2.53,3,23.52,23.52,0,0,0,6.73,5.23A33.32,33.32,0,0,0,557.32,707a42.85,42.85,0,0,0,19.82-7.07,31.24,31.24,0,0,0,6.23-5.47,21.1,21.1,0,0,0,2.6-3.49c1.08-1.77,2.35-4,2.43-6.14a.23.23,0,0,1,0,.12,15.12,15.12,0,0,1-1,5.55,14.61,14.61,0,0,0,2.65.64,23.39,23.39,0,0,0,12.49-1.86,27,27,0,0,0,10-7.76,18,18,0,0,0,3-5.08,6.32,6.32,0,0,0,.29-1.07,25.64,25.64,0,0,1-4.3-.77,31.07,31.07,0,0,0,3.49,0c1.51,0,3-.13,4.52-.31a17.78,17.78,0,0,0,7.57-2.13c3.93-2.25,7.64-6.14,8.26-10.68C627,672.3,608.64,674.51,598.8,663.64Z" style="fill:#fff;opacity:0.4"/><path d="M528.13,663.07c1.14,2.59,6.27,2,9.93.26,0-.66,0-1.37,0-2.14,0-3.53.19-10.82.49-19a47.9,47.9,0,0,0-9.39-.09c-.38,5.61-.62,11-.6,15.38-1.1.19-2.27.38-3.48.6A14.2,14.2,0,0,1,528.13,663.07Z" style="fill:#f4cdd4"/><path d="M515,665.81c2.29.71,8.36.77,7.85-1.47a19.08,19.08,0,0,0-2.8-5.18,43.76,43.76,0,0,0-4.34,1.35C513.91,662.86,513.2,665.26,515,665.81Z" style="fill:#f4cdd4"/><path d="M528.13,663.07a14.2,14.2,0,0,0-3-5c-1.66.3-3.39.66-5.11,1.11a19.08,19.08,0,0,1,2.8,5.18c.51,2.24-5.56,2.18-7.85,1.47-1.76-.55-1.05-2.95.71-5.3C510.23,662.6,505.89,666,506,672c.3,3.55,16.86,2.42,26.12.94,3.93-.68,5.69-1.88,5.92-9.6C534.4,665.09,529.27,665.66,528.13,663.07Z" style="fill:#e36386"/><path d="M538.59,642.16c.53-14.29,1.36-31.33,2-35.8l-7.73-1.05s-2.51,19.5-3.67,36.76A47.9,47.9,0,0,1,538.59,642.16Z" style="fill:#f4cdd4"/><path d="M540,613.18c.2-3.1.41-5.5.6-6.82l-7.73-1.05s-.31,2.52-.79,6.56C534.73,612.22,537.37,612.67,540,613.18Z" style="fill:#f4cdd4"/><path d="M506.51,668.53c0-.11.07-.24.11-.36C506.58,668.29,506.55,668.4,506.51,668.53Z" style="fill:#f4cdd4"/><path d="M506.94,667.44c-.11.23-.21.49-.32.73a4,4,0,0,1,.43-.77Z" style="fill:#f4cdd4"/><path d="M506.51,668.53A10,10,0,0,0,506,672c.3,3.55,16.86,2.42,26.12.94,2.56-.44,4.19-1.11,5.1-3.65-3.23,1.83-9.64,3.27-19.86,3.53C506.75,673.1,506.06,670.2,506.51,668.53Z" style="fill:#f4cdd4;mix-blend-mode:multiply"/><path d="M585.51,662.28c-1,2.65-6.14,2.44-9.92.94-.06-.68-.12-1.37-.18-2.14-.21-3.52-.91-10.79-1.77-19a49.36,49.36,0,0,1,9.35-.75c.77,5.58,1.37,10.93,1.65,15.33,1.1.11,2.3.22,3.52.36A13.72,13.72,0,0,0,585.51,662.28Z" style="fill:#f4cdd4"/><path d="M598.82,664.1c-2.25.86-8.28,1.35-7.93-.92a18.89,18.89,0,0,1,2.43-5.37,42.05,42.05,0,0,1,4.43,1.05C599.67,661.09,600.53,663.42,598.82,664.1Z" style="fill:#f4cdd4"/><path d="M585.51,662.28a13.72,13.72,0,0,1,2.65-5.22c1.67.18,3.43.43,5.16.75a18.89,18.89,0,0,0-2.43,5.37c-.35,2.27,5.68,1.78,7.93.92,1.71-.68.85-3-1.07-5.24,5.57,1.71,10.13,4.79,10.41,10.8-.07,3.55-16.66,3.55-26,2.72-4-.41-5.81-1.48-6.57-9.16C579.37,664.72,584.52,664.93,585.51,662.28Z" style="fill:#e36386"/><path d="M573.64,642.12c-1.51-14.21-3.51-31.16-4.46-35.57l7.63-1.58s3.83,19.27,6.18,36.4A49.36,49.36,0,0,0,573.64,642.12Z" style="fill:#f4cdd4"/><path d="M570.26,613.29c-.44-3.06-.8-5.44-1.08-6.74l7.63-1.58s.51,2.5,1.24,6.48C575.43,612,572.83,612.62,570.26,613.29Z" style="fill:#f4cdd4"/><path d="M607.45,666.24c-.05-.11-.11-.22-.16-.36Z" style="fill:#f4cdd4"/><path d="M606.94,665.19a7.43,7.43,0,0,1,.35.69,4.76,4.76,0,0,0-.46-.73Z" style="fill:#f4cdd4"/><path d="M607.45,666.24a10.93,10.93,0,0,1,.71,3.42c-.07,3.55-16.66,3.55-26,2.72-2.58-.26-4.26-.84-5.32-3.3,3.33,1.61,9.83,2.63,20,2.19C607.5,670.81,608,667.87,607.45,666.24Z" style="fill:#f4cdd4;mix-blend-mode:multiply"/><path d="M556.24,536c9.16,1.48,11.91-7.47,10.62-17.35a62.56,62.56,0,0,1-18,0C548.3,523.74,548.06,534.73,556.24,536Z" style="fill:#f4d9bf"/><path d="M567.14,524.13a32.7,32.7,0,0,0-.28-5.44,62.56,62.56,0,0,1-18,0,37.79,37.79,0,0,0-.17,5.93A36.26,36.26,0,0,0,567.14,524.13Z" style="fill:#efcaa6"/><path d="M572.45,520.73S607,523.91,625.58,527c3-4.09,5.33-8.75,7.26-8.49s-1.06,4-1.16,6.3c8.82-4.17,11.67-4.57,12-3.5s-8.15,4.92-8.15,4.92,11.46-.18,12.07,2.13-11,1.61-11,1.61,9.61,2.2,9.68,4.32-10.55-.66-10.55-.66,7.18,4.91,6.23,6.47-9-3.78-9-3.78-5.36,1.35-7.46-2.8c-17.91-1.52-50.85-2.14-50.85-2.14Z" style="fill:#f4d9bf"/><path d="M631.7,524.15a3.88,3.88,0,0,1,.43,1.07,5.2,5.2,0,0,1,.12,1.17,5.4,5.4,0,0,1-.16,1.35,4.69,4.69,0,0,1-.58,1.26,3.3,3.3,0,0,1-.81.88,2.07,2.07,0,0,1-.74.41,3.08,3.08,0,0,1-.31.12s.07-.12.18-.27.12-.17.19-.28a4.23,4.23,0,0,1,.23-.37l.22-.44c.08-.15.15-.33.23-.48s.11-.38.19-.55a5.18,5.18,0,0,0,.17-.56,21,21,0,0,0,.46-2.22C631.62,524.6,631.7,524.15,631.7,524.15Z" style="fill:#c39368"/><path d="M545.18,519.49s-34.73,0-53.47,1.43c-2.63-4.34-4.53-9.2-6.47-9.11s.69,4.1.59,6.39c-8.42-5-11.19-5.64-11.6-4.6s7.67,5.65,7.67,5.65-11.4-1.24-12.2,1,10.8,2.61,10.8,2.61-9.75,1.32-10,3.42,10.56.32,10.56.32-7.6,4.23-6.79,5.86,9.31-2.93,9.31-2.93,5.2,1.82,7.66-2.12c18,.13,50.84,2.52,50.84,2.52Z" style="fill:#f4d9bf"/><path d="M485.87,517.48a3.55,3.55,0,0,0-.51,1,4.3,4.3,0,0,0-.24,1.14,4.84,4.84,0,0,0,.05,1.36,4.93,4.93,0,0,0,.44,1.31,3.24,3.24,0,0,0,.75,1,2.34,2.34,0,0,0,.69.49l.28.11a1.84,1.84,0,0,0-.14-.26,3.4,3.4,0,0,0-.18-.3,2.83,2.83,0,0,0-.17-.4,3,3,0,0,1-.19-.45c-.07-.17-.12-.34-.18-.51a4.58,4.58,0,0,1-.15-.56,3.5,3.5,0,0,1-.11-.58,17.82,17.82,0,0,1-.25-2.24C485.91,518,485.87,517.48,485.87,517.48Z" style="fill:#c39368"/><path d="M572.6,517.56a49.81,49.81,0,0,1-5.74,1.13c1.29,9.88-1.46,18.83-10.62,17.35-8.18-1.31-7.94-12.3-7.4-17.35a47.14,47.14,0,0,1-4.8-1s-19.88,64.65-21.22,86.1c0,0,32.71,9.6,63.35,2.53C586.17,606.32,579.28,533.39,572.6,517.56Z" style="fill:#fa7598"/><path d="M536,493.5s-5.24-.07-4.6,6.25a5,5,0,0,0,6.27,4.34C536.8,501.32,536.72,495.7,536,493.5Z" style="fill:#f4d9bf"/><path d="M580.44,495a34.32,34.32,0,0,1-1.37,9c3.42.31,8.08-2,7.74-6.62S582.48,492.52,580.44,495Z" style="fill:#f4d9bf"/><path d="M539,455.51a2.27,2.27,0,0,1,.76-.05,3.36,3.36,0,0,1,.76.13,3.59,3.59,0,0,1,.81.36,3.25,3.25,0,0,1,.71.56,3.17,3.17,0,0,1,.45.65,2,2,0,0,1,.19.74l-.15-.14a4.72,4.72,0,0,0-.38-.36,3.11,3.11,0,0,0-.25-.2,3.42,3.42,0,0,0-.28-.22c-.1-.08-.22-.14-.32-.22s-.22-.12-.33-.2c-.45-.27-.95-.51-1.32-.7S539,455.51,539,455.51Z" style="fill:#c39368"/><path d="M604.06,453.37s-.2.2-.5.44-.67.55-1,.87a7.85,7.85,0,0,0-.91.93l-.29.36-.13.16a2.42,2.42,0,0,1,0-.71,2.24,2.24,0,0,1,.28-.65,3.48,3.48,0,0,1,.53-.62,3.2,3.2,0,0,1,.67-.46,2.73,2.73,0,0,1,.65-.24A2,2,0,0,1,604.06,453.37Z" style="fill:#c39368"/><ellipse cx="559.02" cy="495.22" rx="23.18" ry="28.58" style="fill:#f4d9bf"/><path d="M567,497.25c-.07,1.55.59,2.81,1.47,2.83s1.65-1.2,1.71-2.75-.59-2.79-1.47-2.82S567.06,495.72,567,497.25Z" style="fill:#673121"/><path d="M568.87,496.13c0,.47.27.84.54.82s.45-.4.44-.86-.29-.83-.56-.83S568.84,495.67,568.87,496.13Z" style="fill:#fff"/><path d="M552.34,497.25c.07,1.55-.59,2.81-1.47,2.83s-1.65-1.2-1.72-2.75.6-2.79,1.48-2.82S552.28,495.72,552.34,497.25Z" style="fill:#673121"/><path d="M550.47,496.13c0,.47-.27.84-.55.82s-.44-.4-.43-.86.29-.83.55-.83S550.5,495.67,550.47,496.13Z" style="fill:#fff"/><path d="M553.09,509.77a85.72,85.72,0,0,0,12.68.16,6.3,6.3,0,0,1-7,6.71C554.6,516.4,552.92,512.27,553.09,509.77Z" style="fill:#96172d"/><path d="M557.67,516.46a5.68,5.68,0,0,0,1.13.18,6.86,6.86,0,0,0,3.84-.84C560.78,514.37,558.67,515.66,557.67,516.46Z" style="fill:#ed776f"/><path d="M558.37,513.16a10.73,10.73,0,0,0,7.34-2.11,8.32,8.32,0,0,0,.06-1.12,83.19,83.19,0,0,1-11.42-.06C554.54,511.06,555.31,513,558.37,513.16Z" style="fill:#fff"/><path d="M551.46,509.32s.25.05.69.1a7.25,7.25,0,0,0,.8.1l1,.11,1.23.1c.44,0,.9,0,1.37.08s1,.05,1.46.06l1.52,0c.51,0,1,0,1.51,0l1.47,0,1.37,0,1.24-.05c.75-.05,1.39-.05,1.84-.07h.7l-.69.09c-.44.06-1.08.15-1.84.23l-1.23.13-1.38.07-1.48.07c-.5,0-1,0-1.52,0l-1.52,0-1.48-.11c-.47,0-.93-.08-1.37-.15l-1.23-.16c-.38-.06-.72-.13-1-.19l-.79-.18A5.05,5.05,0,0,1,551.46,509.32Z" style="fill:#c39368"/><path d="M547.16,493.13c.38-1,2.21-1.31,3.53-1.06a6.2,6.2,0,0,1,3.67,2.32c.07.11,0,.2-.17.22a.19.19,0,0,1-.22.08,15.32,15.32,0,0,0-3.67-1,3.48,3.48,0,0,0-2.11.61,1.23,1.23,0,0,1-1.13.27.53.53,0,0,1-.44-.54A1.31,1.31,0,0,1,547.16,493.13Z" style="fill:#873300"/><path d="M572.38,493.13c-.39-1-2.21-1.31-3.53-1.06a6.2,6.2,0,0,0-3.67,2.32c-.07.11,0,.2.17.22a.19.19,0,0,0,.22.08,15.32,15.32,0,0,1,3.67-1,3.48,3.48,0,0,1,2.11.61,1.23,1.23,0,0,0,1.13.27.54.54,0,0,0,.44-.54A1.31,1.31,0,0,0,572.38,493.13Z" style="fill:#873300"/><circle cx="542.79" cy="501.4" r="2.32" style="fill:#f9cbc0"/><circle cx="575.24" cy="501.4" r="2.32" style="fill:#f9cbc0"/><path d="M543.57,479c-2.38,4.49-2.29,10.87-2.29,10.87l9.3.68s.83-7.29,3.8-10c-2.74,6.09-1.82,9.84-1.82,9.84l13.72,1a24.2,24.2,0,0,0,2-9.3c1.85,4.69-.18,10-.18,10l10.16-.78a22.38,22.38,0,0,0,.83-9.22c1.58,6.41.69,8.42.69,8.42l1.19-.31s-.27,19.25-8.06,30.51c4.72,1.39,18.87-12.74,20-31.41S582.47,452,568.17,457.54c-4.91-7.44-20.2-7-30.32,4.86,0,0-15.51,15.29-11.33,41.81,3.62,15.58,12.79,17.36,17.47,16.21,0,0-7.91-3.79-6.6-15.16s1.54-15.45,1.54-15.45A103.82,103.82,0,0,1,543.57,479Z" style="fill:#9b552b"/><path d="M446,274.34c-3.8-16.16-18.86-22.8-33.74-25.39a63.15,63.15,0,0,0-24.53.88,45.94,45.94,0,0,0-2.06-9.8c-3.67-11.15-13.59-18.27-24.14-22.34a53.38,53.38,0,0,0-33-1.94,41.56,41.56,0,0,0-12.42,5.67c-1.16-8.71-4.32-17-11.83-22.47-9.62-7-20.13-8.26-31.48-5.19a43.16,43.16,0,0,0-24.93,18,61.6,61.6,0,0,0-4.37,7.53,67.36,67.36,0,0,0-16.23-6c-13.78-3.42-27.39.12-39.14,7.62a60.24,60.24,0,0,0-23.6,28.79,30.15,30.15,0,0,0-1.38,5.09c-.88-.41-1.76-.8-2.65-1.16-8.49-3.45-17.26-5.63-26.47-5.33a55.25,55.25,0,0,0-35,14.5C91.56,259,82.68,258,74.41,258c-9.62,0-17.91,2.29-25.55,8.25a39.39,39.39,0,0,0-13.27,20c-4.5,15.23,3.67,30.22,18,36.31,11.26,4.8,24,3.57,35.74.31a3.68,3.68,0,0,1,.15.35,37.12,37.12,0,0,0,14.16,15.81,38,38,0,0,0-.84,6.36c-.73,13.31,7.21,25.87,18.82,31.93,13.34,6.93,28.67,8.53,43.44,7.23,11.27-1,22.77-4.63,31.77-11.58a60,60,0,0,0,13.35,13.91c13.53,10.15,31.76,12.35,48.16,11.19a96.23,96.23,0,0,0,50-18.58c7.87-5.89,15.17-13.42,19.39-22.27.94.47,1.9.92,2.9,1.35,10.62,4.44,23,3,33.71-.57,10.87-3.66,20.77-11.87,27.71-20.86a56.53,56.53,0,0,0,8-14,16.74,16.74,0,0,0,1.07-4.7,49.37,49.37,0,0,0,23.62-5.81C438.68,304.91,450,291.1,446,274.34Z" style="fill:#fff"/><path d="M428.52,310.71a41,41,0,0,1-17.71,5c-3.49.44-7.05.63-10.6.75-2.5.08-5.36.25-8.17.06a61.41,61.41,0,0,0,10.08,1.76,17.06,17.06,0,0,1-.66,2.5,42.47,42.47,0,0,1-7.06,11.89A63.09,63.09,0,0,1,371,350.85a54.85,54.85,0,0,1-29.25,4.33,33.39,33.39,0,0,1-6.19-1.48,36,36,0,0,0,2.28-13,.82.82,0,0,0-.05-.28c-.19,5.09-3.17,10.22-5.7,14.37a51.27,51.27,0,0,1-6.07,8.16,74.53,74.53,0,0,1-14.57,12.81A100.52,100.52,0,0,1,265.1,392.3c-14.55,1.44-29.69-.63-42.77-7.27a55.69,55.69,0,0,1-15.76-12.23,28.57,28.57,0,0,1-5.93-7c-3.17-5.39-4-11.31-4.94-17.3-.57,7.21,1.5,14.3,5.1,20.71a79.83,79.83,0,0,1-60.62,6c-11.55-3.52-20.9-10-25.28-21.64a28.61,28.61,0,0,1-1.78-9,17.76,17.76,0,0,1,1.3-13c2.86-5.35,7.37-8,12.36-10.43-5-.18-9.25,3.87-12.11,7.51a22.82,22.82,0,0,0-2.6,4.19,37.93,37.93,0,0,1-6.12-5.13c-4.54-3.2-7.84-7.93-10.42-12.86a62.73,62.73,0,0,1-4.34-10.76c-.31-1.05-.59-2.08-.84-3.14a60.14,60.14,0,0,0,4.14,19.18c-8.63,1.38-17.46,1.77-26,.13-13.32-2.55-24.2-13.44-23.54-27.49.75-16.12,15.29-29.24,30.82-30.54a77.32,77.32,0,0,1,23.84,1.67,35.54,35.54,0,0,1,3.65,1.08,46.6,46.6,0,0,0-6,7.84c-.53,1.2-1,2.41-1.45,3.64a39.09,39.09,0,0,1,12.94-13.23c9.69-8.58,23.35-13.14,35.86-13.23,8.42-.06,17.15,2.54,24.89,5.78a27.43,27.43,0,0,0,.63,10.56,27.86,27.86,0,0,1,4.39-17.11c.57-1.27,1.18-2.48,1.82-3.61a62.78,62.78,0,0,1,26.86-25.4c12.3-6,26.14-6,38.95-1.65,2.39.82,4.71,1.68,7,2.7l-.06.1c.4.14.79.29,1.18.45h0a1.89,1.89,0,0,0,.21.09c.54.24,1.1.49,1.66.76,2.28,1.09,4.66,2.17,6.86,3.5a28.77,28.77,0,0,0-6.71-5.53c-.35-.23-.72-.43-1.07-.66,1.17-2.16,2.45-4.26,3.74-6.22a38.89,38.89,0,0,1,23.5-16.41A44.85,44.85,0,0,1,293.14,196c4.85.43,8.73,2.63,12.87,4.93,6.91,3.84,10.93,10.43,13.13,17.68a15.66,15.66,0,0,1,1.07,2.76,34.1,34.1,0,0,1,2.34,7.4,1.12,1.12,0,0,0,.5-.87c-.05-1.23-.12-2.47-.23-3.71a62.66,62.66,0,0,1,7-3.1c10.39-3.85,21.88-3.13,32.34,0,9.67,2.87,19.35,8.79,24.43,17.73a35.2,35.2,0,0,1,4.2,11.93c-5.07,1.54-10.87,4.31-13.75,8.53A33.14,33.14,0,0,1,400,251.82a70,70,0,0,1,17.22,1.79c13.15,3,25.81,8.65,29.9,22.67C451.36,290.8,440.35,304,428.52,310.71Z" style="fill:#fff"/><path d="M362.18,290.92c6.22,8.74,6.22,21.22,18.71,25-6.24,10-22.46,13.71-31.2,7.49-7.52-4.71-10.08-12.25-14.63-18.87.58,20-9.33,41.79-27.8,47.57-33.69,12.47-76.11,13.72-103.56-10-5.9-5.89-6.12-15.2-4.48-24.46-6.48,9-10,19.84-8,30.7-11.24,1.25-21.22,3.75-32.44,2.5-13.74-2.5-33.71-10-30-27.45,2.24-6.73,6.72-11.66,12.1-15.34C129,309.41,116,312.26,110.1,322.13c-11.82-9.47-19.16-23.42-17.76-39.72-6.78,7.51-11.59,18-8.45,28.49-17.71,3.73-36.1-6.48-38.57-21.76a29.37,29.37,0,0,0-.41,3.64c-.66,14.05,10.22,24.94,23.54,27.49,8.58,1.64,17.41,1.25,26-.13A60.14,60.14,0,0,1,90.35,301c.25,1.06.53,2.09.84,3.14a62.73,62.73,0,0,0,4.34,10.76c2.58,4.93,5.88,9.66,10.42,12.86a37.93,37.93,0,0,0,6.12,5.13,22.82,22.82,0,0,1,2.6-4.19c2.86-3.64,7.16-7.69,12.11-7.51-5,2.42-9.5,5.08-12.36,10.43a17.76,17.76,0,0,0-1.3,13,28.61,28.61,0,0,0,1.78,9c4.38,11.64,13.73,18.12,25.28,21.64a79.83,79.83,0,0,0,60.62-6c-3.6-6.41-5.67-13.5-5.1-20.71.94,6,1.77,11.91,4.94,17.3a28.57,28.57,0,0,0,5.93,7A55.69,55.69,0,0,0,222.33,385c13.08,6.64,28.22,8.71,42.77,7.27a100.52,100.52,0,0,0,46.39-16.53A74.53,74.53,0,0,0,326.06,363a51.27,51.27,0,0,0,6.07-8.16c2.53-4.15,5.51-9.28,5.7-14.37a.82.82,0,0,1,.05.28,36,36,0,0,1-2.28,13,33.39,33.39,0,0,0,6.19,1.48A54.85,54.85,0,0,0,371,350.85a63.09,63.09,0,0,0,23.36-18.19,42.47,42.47,0,0,0,7.06-11.89,17.06,17.06,0,0,0,.66-2.5A61.41,61.41,0,0,1,392,316.51c2.81.19,5.67,0,8.17-.06,3.55-.12,7.11-.31,10.6-.75a41,41,0,0,0,17.71-5c9.19-5.24,17.87-14.36,19.32-25C428.24,311.22,385.2,316.39,362.18,290.92Z" style="fill:#fff"/><path d="M306,193.51h-.26c-3.86-.46-36.26-2.77-38-2.79,0,0-3.42-.09-8.32.27,3,10.27-4.05,12.67-7.39,13.21l-.39,5.36L312.67,214l-.81-6.68C306.34,204.76,305.62,198.35,306,193.51Z" style="fill:#fa7598"/><path d="M305.94,194.87c0-.46,0-.92.05-1.36h-.26c-3.86-.46-36.26-2.77-38-2.79,0,0-3.42-.09-8.32.27,0,.12,0,.21.07.33C274.94,192.49,290.43,193.72,305.94,194.87Z" style="fill:#fa7598"/><path d="M260.05,196.29a8.47,8.47,0,0,1-.16,1.27c15.59,1.21,31.18,2.42,46.79,3.53a12.74,12.74,0,0,1-.42-1.67C290.86,198.33,275.45,197.37,260.05,196.29Z" style="fill:#fa7598"/><path d="M310.11,206.26q-26.78-2-53.58-3.75a10.68,10.68,0,0,1-2.13,1.08q28.74,2.16,57.52,4.24l-.06-.52A8.64,8.64,0,0,1,310.11,206.26Z" style="fill:#fa7598"/><g style="mix-blend-mode:multiply"><path d="M271.62,221.79c4.26-.65,7.4-3.84,2.55-4s-7.48,2.84-8.12,2.64c-.38-.13-8.73-6.08-15.51-10.94l-12.6-.86c8.3,6,23.39,16.49,23.39,16.49a5.08,5.08,0,0,0,.33,4.38s-1.16,11.42,1,11.09,1.47-11.23,2.3-9.23,4.25,10.52,5.7,8.52-4.44-12.48-1.56-9.84,7.39,7.67,8.52,5.49-9.09-8.76-4.64-7.63,11.18,2.27,8.35-1S267.36,222.46,271.62,221.79Z" style="fill:#c6c6c6"/></g><path d="M277.07,188.67s-3.95,14.44,3.23,15.93,10.85-11.19,10.79-14.91Z" style="fill:#efcaa6"/><path d="M259.37,191A76.33,76.33,0,0,0,240,194.72c-12.42,4.43-11.18,7.45-8.6,9.9S259.87,225,259.87,225a5,5,0,0,0,.33,4.39s-1.16,11.41,1,11.08,1.47-11.23,2.3-9.22,4.24,10.51,5.69,8.51-4.44-12.48-1.54-9.83,7.37,7.66,8.5,5.47-9.08-8.75-4.62-7.62,11.17,2.26,8.33-1-13.94-4.4-9.68-5.07,7.41-3.84,2.55-4-7.48,2.86-8.12,2.65-24.19-17.14-24.19-17.14,8-3,11.93-3.67l-.33,4.7C255.32,203.66,262.36,201.26,259.37,191Z" style="fill:#efcaa6"/><path d="M258.08,198a5.64,5.64,0,0,1-.84.44,11.19,11.19,0,0,1-1.94.67,13.12,13.12,0,0,1-2,.39,6.65,6.65,0,0,1-.95,0,7.82,7.82,0,0,1,.86-.44,14.87,14.87,0,0,1,1.94-.68,12,12,0,0,1,2-.36C257.71,198,258.08,198,258.08,198Z" style="fill:#c39368"/><path d="M383.59,147.33c.59-1.42,7.47-9.17,6-10.6s-6.54,7.63-7.77,6.74,2.45-13.92-.89-12.38-2.38,12.54-3.89,11.33-1.73-14.17-4.31-12.1,2.54,14,.16,13.31-5.62-2.38-8.18-1.08,6.28,2.73,6.92,5a7.54,7.54,0,0,1,.41,3.28s-11.34,18-27.55,28.11c-15.87,10-34.11,14.77-38.45,14.54-.37,4.84.35,11.25,5.87,13.8l-.82-6.78s36.6.06,68.39-49.63a2.65,2.65,0,0,0,2.82-.74s9.74-.27,9.88-2.21S383,148.73,383.59,147.33Z" style="fill:#efcaa6"/><path d="M310.11,195.45a9,9,0,0,1,.39,1,17.57,17.57,0,0,1,.51,2.17,15,15,0,0,1,.22,2.22,7.64,7.64,0,0,1,0,1,9.65,9.65,0,0,1-.38-1,14.91,14.91,0,0,1-.73-4.4C310.08,195.85,310.11,195.45,310.11,195.45Z" style="fill:#c39368"/><path d="M253,152s-6.95-.09-6.1,8.3c.76,5.26,5.31,6.38,8.32,5.76C254.18,162.35,254.07,154.9,253,152Z" style="fill:#f4d9bf"/><ellipse cx="283.67" cy="154.26" rx="30.77" ry="37.95" style="fill:#f4d9bf"/><path d="M294.27,157c-.09,2,.79,3.73,2,3.74s2.19-1.59,2.27-3.64-.78-3.71-1.95-3.75S294.35,154.93,294.27,157Z" style="fill:#673121"/><path d="M296.76,155.47c0,.62.36,1.12.72,1.08s.6-.52.58-1.13-.39-1.1-.74-1.1S296.72,154.86,296.76,155.47Z" style="fill:#fff"/><path d="M274.81,157c.09,2-.78,3.73-1.95,3.74s-2.2-1.59-2.28-3.64.79-3.71,2-3.75S274.73,154.93,274.81,157Z" style="fill:#673121"/><path d="M272.32,155.47c0,.62-.36,1.12-.72,1.08s-.59-.52-.57-1.13.38-1.1.73-1.1S272.37,154.86,272.32,155.47Z" style="fill:#fff"/><path d="M274.22,176.73a114,114,0,0,0,16.84.22,8.37,8.37,0,0,1-9.26,8.9C276.23,185.54,274,180.05,274.22,176.73Z" style="fill:#96172d"/><path d="M280.31,185.62a7,7,0,0,0,1.49.23,9.2,9.2,0,0,0,5.11-1.1C284.44,182.85,281.64,184.56,280.31,185.62Z" style="fill:#ed776f"/><path d="M281.24,181.24a14.3,14.3,0,0,0,9.75-2.81,10.34,10.34,0,0,0,.07-1.48,111.05,111.05,0,0,1-15.16-.08C276.15,178.44,277.17,181.05,281.24,181.24Z" style="fill:#fff"/><path d="M272.06,176.14s.33.06.92.13c.3,0,.65.1,1.06.13l1.37.15,1.63.13c.58,0,1.19.07,1.82.11s1.28.07,1.94.09l2,0c.67,0,1.34.05,2,0l1.95,0,1.82,0c.58,0,1.12,0,1.64-.08,1-.06,1.85-.07,2.44-.09l.93,0-.91.14c-.59.07-1.43.19-2.44.3-.51.05-1.06.12-1.64.17l-1.83.09-2,.09c-.67,0-1.34,0-2,0l-2,0-1.95-.15c-.64,0-1.25-.1-1.83-.19l-1.63-.22c-.51-.08-1-.18-1.36-.26l-1.06-.23C272.38,176.25,272.06,176.14,272.06,176.14Z" style="fill:#c39368"/><path d="M267.93,151.48c.51-1.28,2.94-1.74,4.69-1.41a8.26,8.26,0,0,1,4.87,3.08c.09.16-.05.27-.23.3a.23.23,0,0,1-.28.1,20.37,20.37,0,0,0-4.88-1.35,4.6,4.6,0,0,0-2.81.82,1.6,1.6,0,0,1-1.49.34.71.71,0,0,1-.59-.71A1.75,1.75,0,0,1,267.93,151.48Z" style="fill:#873300"/><path d="M301.42,151.48c-.51-1.28-2.94-1.74-4.69-1.41a8.26,8.26,0,0,0-4.87,3.08c-.09.16.05.27.23.3a.23.23,0,0,0,.28.1,20.24,20.24,0,0,1,4.88-1.35,4.6,4.6,0,0,1,2.81.82,1.6,1.6,0,0,0,1.49.34.71.71,0,0,0,.59-.71A1.78,1.78,0,0,0,301.42,151.48Z" style="fill:#873300"/><circle cx="262.13" cy="162.46" r="3.08" style="fill:#f9cbc0"/><circle cx="305.22" cy="162.46" r="3.08" style="fill:#f9cbc0"/><path d="M263.16,132.72c-3.15,6-3,14.43-3,14.43l12.36.9s1.09-9.67,5-13.28c-3.64,8.08-2.42,13.06-2.42,13.06l18.22,1.34A32,32,0,0,0,296,136.82c2.46,6.23-.22,13.29-.22,13.29l13.48-1.05a29.69,29.69,0,0,0,1.11-12.24c2.08,8.52.9,11.18.9,11.18l1.6-.41s-.37,25.56-10.71,40.52c6.27,1.84,25.06-16.93,26.6-41.72s-13.93-49.59-32.91-42.17c-6.52-9.88-26.83-9.25-40.26,6.45,0,0-20.6,20.31-15,55.52,4.8,20.69,17,23.05,23.2,21.52,0,0-10.52-5-8.78-20.12S257,147.08,257,147.08A137.49,137.49,0,0,1,263.16,132.72Z" style="fill:#ca8342"/><path d="M653.76,308a25.42,25.42,0,0,0-7-.65c.07-.21.14-.41.22-.61,1.22-3.63,1.7-8.29.46-11.95a31.74,31.74,0,0,0-5.74-10.48c-4.86-5.68-12.21-8.83-19.5-9.83a37.65,37.65,0,0,0-11.46.39,37.92,37.92,0,0,0-1.14-8.68c-1.89-7.5-7.83-14-14-18.4-6.55-4.61-14.59-5.29-22.23-3.62-.79.18-1.59.4-2.38.65-2.75-6.21-9.79-9.84-16.24-11.16A27.3,27.3,0,0,0,531,240.31a31.42,31.42,0,0,0-7.36,9.88c-2,3.95-2.34,8.59-2.21,12.95a19.33,19.33,0,0,0,3.16,9.7,12.79,12.79,0,0,0-2.55,1.74,17.3,17.3,0,0,0-5.34,8.25,26.73,26.73,0,0,0-3.07-1.12,35.77,35.77,0,0,0-12.14-1.24A29.72,29.72,0,0,0,490.07,284c-7.18,3.62-14,7.83-17.76,15.32a22.36,22.36,0,0,0-2,6.37c-.67-.19-1.35-.36-2-.49A26.71,26.71,0,0,0,453,306.56c-8.8,3.51-14.54,13.38-15,22.6-.57,10.68,7.18,20.06,17.21,22.69a27.65,27.65,0,0,0,15.77-1,40.74,40.74,0,0,0,9.08-4.28,29.2,29.2,0,0,0,5.21,5.41c6.32,5.06,14.47,7.34,22.42,8a31,31,0,0,0,11.09-1.09c1.84-.5,3.69-.77,5.51-1.38a48.16,48.16,0,0,0,5.59-2.39,34.67,34.67,0,0,0,8.51-5.51,31.46,31.46,0,0,0,3,2.55A33.78,33.78,0,0,0,561.06,359a50.54,50.54,0,0,0,21.5-4.65,40.48,40.48,0,0,0,12.74-9.45A50,50,0,0,0,616,353.66a63.39,63.39,0,0,0,17.21,1.16,47.68,47.68,0,0,0,16.22-4.14c8.64-4,18.07-11.53,19.44-21.49S663.38,310.34,653.76,308Z" style="fill:#fff"/><path d="M664.2,334.13c-2.21,4.59-6.9,8.12-11.05,10.89-9.61,6.41-21.7,7.68-32.9,6.13a59.78,59.78,0,0,1-17.59-5.06,40.23,40.23,0,0,1-5.58-3.18c.49-.56,1-1.14,1.42-1.71-.61.51-1.26,1-1.85,1.42-2.34,1.69-4.74,3.37-7.18,4.89l-.87.55a43,43,0,0,1-5.6,3.32,48.55,48.55,0,0,1-9.49,3.25A52.47,52.47,0,0,1,563,356.34a34.41,34.41,0,0,1-8.84-.83,31.75,31.75,0,0,1-11.75-3.95,21.69,21.69,0,0,1-5.88-4.86c-1.07-1.33-1.88-3.14-3.25-4.24a24.82,24.82,0,0,0,1.15,2.31,21.61,21.61,0,0,0,2.7,3.66,44.16,44.16,0,0,1-8.66,4.61c-6.54,2.91-13.81,4.72-21,4.15a48.54,48.54,0,0,1-21.1-6.75,25,25,0,0,1-5.55-4.53l0,0a27.49,27.49,0,0,1-4.74-6.25,30.23,30.23,0,0,0,3,5.74,58,58,0,0,1-7.92,3.05,28.65,28.65,0,0,1-14.81.79c-9.36-2.15-15.6-10.43-16.17-19.89-.53-8.84,5-18.24,13-21.92a25.52,25.52,0,0,1,15-1.62,19,19,0,0,1,2.07.48,27,27,0,0,0-.22,3,17.51,17.51,0,0,0,.39,3.14,29.08,29.08,0,0,0,1.45,4.08,25.3,25.3,0,0,1,1-11.5,15.05,15.05,0,0,1,.76-1.9,26.9,26.9,0,0,1,1.18-2.8c3.3-6.71,9.71-10.3,15.94-13.8A32,32,0,0,1,512.5,283a26.18,26.18,0,0,1,3.91,1.08,12.42,12.42,0,0,0,1.82,9.3c-1.2-4-1-8.61,1.07-12.11a21,21,0,0,1,4.57-6.06,10.1,10.1,0,0,1,1.5-1.12l.07.11.07,0c.37-.21.74-.41,1.13-.6l-.07-.11a29.81,29.81,0,0,1,6.9-2,17.3,17.3,0,0,1,5.07-.43,7.19,7.19,0,0,1,1.13.18H540a11.59,11.59,0,0,0-3.76-.63,38.76,38.76,0,0,0-5.6.41,24.75,24.75,0,0,0-4.75,1.32,21.94,21.94,0,0,1-2.53-9.46,24.88,24.88,0,0,1,1.92-11.95,30.35,30.35,0,0,1,7.05-9.49,27.19,27.19,0,0,1,21.61-7c6.54.73,13.94,4.47,16.91,10.59a32.34,32.34,0,0,0-5.92,2.63,17.77,17.77,0,0,0-3.36,2.94A23.84,23.84,0,0,1,578,245.28a27.25,27.25,0,0,1,17.24,5.11c5.63,4.11,11,9.67,13.33,16.32a26.75,26.75,0,0,1,1.34,6.06,29.14,29.14,0,0,1,.44,6.57c0,.56,0,1.12-.05,1.67a36.51,36.51,0,0,0,.47-5.32l.47-.06a36.29,36.29,0,0,1,10.66.3A27.81,27.81,0,0,1,645,294.44a18.32,18.32,0,0,1,.32,11.64c-.13.48-.28.94-.44,1.41h-.1a31.46,31.46,0,0,0-5.28,1.16,3,3,0,0,0-1.81,1l.14,0,.17-.06c1.35-1,3.5-1,5-1.11a29.15,29.15,0,0,1,3.37-.05h0a24.18,24.18,0,0,1,6.59,1.2,18.85,18.85,0,0,1,11.57,10.3A17.09,17.09,0,0,1,664.2,334.13Z" style="fill:#fff"/><path d="M553.57,260.62a7.73,7.73,0,0,0,.5,3.25c-.09-4,2.38-8.67,4.91-11.38a21.5,21.5,0,0,1,3.58-3.05,18.4,18.4,0,0,1,2.37-1.92,32.34,32.34,0,0,1,5.92-2.63,15.71,15.71,0,0,0-2.65-3.78C561.43,242.21,554.12,250.86,553.57,260.62Z" style="fill:#fff;opacity:0.30000000000000004"/><path d="M525.89,272.22a24.75,24.75,0,0,1,4.75-1.32,38.76,38.76,0,0,1,5.6-.41,11.73,11.73,0,0,1,3.08.41,36.28,36.28,0,0,1,9.93,2.49,38.55,38.55,0,0,1,10,5.58c-6.45-9.79-20.22-15.5-31.08-10.78a.73.73,0,0,1-1-.25A31.24,31.24,0,0,1,525,251.39a25.88,25.88,0,0,0-1.67,11.37A21.94,21.94,0,0,0,525.89,272.22Z" style="fill:#fff;opacity:0.30000000000000004"/><path d="M664.55,319.93A18.85,18.85,0,0,0,653,309.63a24.18,24.18,0,0,0-6.59-1.2h0a29.15,29.15,0,0,0-3.37.05c-1.54.07-3.69.11-5,1.11l-.17.06-.14,0a3,3,0,0,1,1.81-1,31.46,31.46,0,0,1,5.28-1.16h.1c.16-.47.31-.93.44-1.41a18.32,18.32,0,0,0-.32-11.64,31.17,31.17,0,0,0-5-8.75,30.78,30.78,0,0,0-14.89-9c6.21,4,11.3,9.23,11.52,17.36.15,5.64-1,12.7-4.19,18.17,1.15-.19,2.3-.36,3.44-.49,4.88-.57,10.08-1.36,14.81.41,3.76,1.42,5.21,5,4.07,8.81a20.27,20.27,0,0,1-11.16,12.34c-10.42,4.87-22.78,4.28-33.54.78-7.27-2.37-14.47-6.25-19.27-12.13-5.17,10.7-15,18.43-28,18.7-14.73.31-31.33-8.89-36.13-23.27a32,32,0,0,0,3.44,13.31.75.75,0,0,1-.26,1c-10.53,6.7-32.22,13.78-44.85,8.51-6.9-2.88-10.12-9-13-16.43-.57,5.19.63,10.89,2.6,16.43.16.47-1.6.76-2,.81-8.87,1.06-19.6.1-26.13-6.76a19.35,19.35,0,0,1-5.27-12.6,21.45,21.45,0,0,0-1,7.75c.57,9.46,6.81,17.74,16.17,19.89a28.65,28.65,0,0,0,14.81-.79,58,58,0,0,0,7.92-3.05,30.23,30.23,0,0,1-3-5.74,27.49,27.49,0,0,0,4.74,6.25l0,0a25,25,0,0,0,5.55,4.53,48.54,48.54,0,0,0,21.1,6.75c7.17.57,14.44-1.24,21-4.15a44.16,44.16,0,0,0,8.66-4.61,21.61,21.61,0,0,1-2.7-3.66,24.82,24.82,0,0,1-1.15-2.31c1.37,1.1,2.18,2.91,3.25,4.24a21.69,21.69,0,0,0,5.88,4.86,31.75,31.75,0,0,0,11.75,3.95,34.41,34.41,0,0,0,8.84.83,52.47,52.47,0,0,0,10.47-1.71,48.55,48.55,0,0,0,9.49-3.25,43,43,0,0,0,5.6-3.32l.87-.55c2.44-1.52,4.84-3.2,7.18-4.89.59-.43,1.24-.91,1.85-1.42-.46.57-.93,1.15-1.42,1.71a40.23,40.23,0,0,0,5.58,3.18,59.78,59.78,0,0,0,17.59,5.06c11.2,1.55,23.29.28,32.9-6.13,4.15-2.77,8.84-6.3,11.05-10.89A17.09,17.09,0,0,0,664.55,319.93Z" style="fill:#fff;opacity:0.5"/><path d="M525.37,274l-.17.12c.06,0,.14,0,.19-.07Z" style="fill:#fff"/><path d="M557.79,227.56c-.08,0-8-4.52-19.5,9l8.17,5.27S549.51,232.66,557.79,227.56Z" style="fill:#95e1bf"/><path d="M543.38,239.89l3.08,2s3-9,11-14.11C551.87,230.5,547.29,234.86,543.38,239.89Z" style="fill:#95e1bf"/><path d="M594.86,230.47c-12.64-2-37.07-2.91-37.07-2.91h0c-8.28,5.1-11.33,14.31-11.33,14.31l.58,9.27,52.56-3.28-.37-6.1.46.64h0C597.53,239.4,594.86,230.47,594.86,230.47Z" style="fill:#95e1bf"/><path d="M547,249.83l.09,1.31,52.56-3.28-.08-1.42C582,247.54,564.48,248.71,547,249.83Z" style="fill:#95e1bf"/><path d="M612.45,240.1s-3.26-6-12.91-8.68a44.28,44.28,0,0,0-4.68-.95s2.67,8.93,4.83,11.93h0l2.83,4S609.27,244.28,612.45,240.1Z" style="fill:#95e1bf"/><path d="M595.51,232.53c.92,2.83,2.67,7.79,4.18,9.87h0l2.83,4a28.27,28.27,0,0,0,2.67-1C602.23,240.84,599.57,236,595.51,232.53Z" style="fill:#95e1bf"/><path d="M576.31,259.59c-2.18-.17-6.25-.34-6.25-.34s6-2.32,6.48-3.48-.83-1-2.65-.26-5,1.86-5,1.86,1.71-2.16,1.43-3.59-4.34,3.37-4.63,3.59-2.09-.49-3.31-.21c0,0-13.55-3.3-19.12-5.79-3.48.2-7.63.56-11.12.81,3.62,4.09,30,9.23,30,9.23a5,5,0,0,0,3.8,3.07,16.74,16.74,0,0,1,3.3,3.48c.82,1.51,3,1.27,2.47-.14a13.85,13.85,0,0,0-2.48-3.45,24.15,24.15,0,0,1,5.19,2.15c1.93,1.22,3.33.51,2.28-1.49s-6.43-3-6.43-3,5.19-.21,6.68-.2S578.49,259.76,576.31,259.59Z" style="fill:#c6c6c6;mix-blend-mode:multiply"/><path d="M606.8,247.21l1.14,2.28-17.13,6.21-2.64-1.07s-1.2-2.6-2.63-2.52,0,1.66.7,3.06,1.2,2.7,1.2,2.7-5.45-3.17-7.12-3.47-1.06,1.19.11,1.74,4.91,2.69,4.91,2.69-5.81-.46-6.37.39,4.79.85,5.72.87-6.29,3.18-5,3.93,7.52-3.15,6.9-1.67-3.77,5.8-1.94,5.27,4-4.78,4-4.78,2.75-.58,3.26-2.37c0,0,21.33-5.52,21.71-9.8a9.26,9.26,0,0,0-.58-3.88C611,246.93,608.89,247,606.8,247.21Z" style="fill:#c6c6c6;mix-blend-mode:multiply"/><path d="M568.41,234.74s-2,9.19,5.62,8.57,7.38-8.14,7.38-8.14Z" style="fill:#efcaa6"/><path d="M631.06,166.05c3.18-2.07-8.58-2.16-8.58-2.16a12.07,12.07,0,0,0-.4-6.57c-1.25-3.43-3.22,4.75-3.22,4.75C608.71,138,566,137.52,550.53,157.25s-5.94,43.65-5.94,43.65,5.17-16.26,18-28.06c0,0-5,7.83-2.92,8.06s7.23-3,30.13-8.23c0,0-4.31,6-1.25,6.44s14.33-3.83,14.33-3.83-2,14.84,2.68,12.21a13.31,13.31,0,0,0,6-6.34A57.2,57.2,0,0,1,616.32,214c30.6-31.59,8.09-45.72,8.09-45.72A14.73,14.73,0,0,0,631.06,166.05Z" style="fill:#decc62"/><path d="M611.56,181.15a13.31,13.31,0,0,1-6,6.34c-4.65,2.63-2.68-12.21-2.68-12.21s-11.28,4.27-14.33,3.83,1.25-6.44,1.25-6.44c-22.9,5.26-28.07,8.47-30.13,8.23s2.92-8.06,2.92-8.06c-12.87,11.8-18,28.06-18,28.06a23.28,23.28,0,0,0,1.17,21.72c8.49,14.17,24.94,16.93,40.34,16C606,237.34,616.32,214,616.32,214A57.2,57.2,0,0,0,611.56,181.15Z" style="fill:#f4d9bf"/><path d="M547.68,193.5s.43-5.8-4.74-4.87-5,12.2,1.29,13.08A85.93,85.93,0,0,1,547.68,193.5Z" style="fill:#efcaa6"/><path d="M616.39,213.44s2.1-6,7.37-4.16,1.15,10.33-4.71,12.14-5.9-1.72-5.9-1.72Z" style="fill:#efcaa6"/><path d="M564.2,187.48a2.69,2.69,0,0,1,.72-.83,4.16,4.16,0,0,1,2.16-.92,3.65,3.65,0,0,1,1.32.05,3.16,3.16,0,0,1,1.08.48,4,4,0,0,1,.35.31,3.72,3.72,0,0,1,.22.3.86.86,0,0,1,.13.29h-.31a5.21,5.21,0,0,0-.7,0l-.89.08-1,.12a16.67,16.67,0,0,1-2,.17A6,6,0,0,1,564.2,187.48Z" style="fill:#a95a16"/><path d="M593.12,191.08a4.79,4.79,0,0,1,1.35-.77,7.29,7.29,0,0,1,3.37-.51,4.46,4.46,0,0,1,1,.15,4.31,4.31,0,0,1,.9.29c.29.12.55.3.8.43a6.65,6.65,0,0,1,.6.55,4,4,0,0,1,.4.56,1.64,1.64,0,0,1,.19.48,3.64,3.64,0,0,1,.12.43l-.38-.23a3.93,3.93,0,0,0-.39-.24l-.5-.23q-.3-.09-.6-.21c-.23,0-.45-.11-.69-.15s-.48-.1-.74-.11l-.79-.09c-.54-.06-1.09-.07-1.62-.1s-1-.05-1.47-.09A14.5,14.5,0,0,1,593.12,191.08Z" style="fill:#a95a16"/><path d="M573.79,211.9s-3,4-.81,4.75a7.64,7.64,0,0,0,4.83-.29s-3.9.93-4.34-1.19A4.52,4.52,0,0,1,573.79,211.9Z" style="fill:#c39368"/><path d="M541.16,195.29a2.19,2.19,0,0,1,.8-.38,3,3,0,0,1,.94-.13,2.47,2.47,0,0,1,1.1.23,2.88,2.88,0,0,1,.5.3,2.11,2.11,0,0,1,.4.39,1.82,1.82,0,0,1,.29.45,1.14,1.14,0,0,1,.14.43,1.91,1.91,0,0,1,.09.66v.24l-.15-.21a1.27,1.27,0,0,1-.15-.21,1.78,1.78,0,0,0-.21-.27,1.37,1.37,0,0,0-.24-.29,2.76,2.76,0,0,0-.29-.3,2.83,2.83,0,0,0-.71-.44,2.14,2.14,0,0,0-.42-.16,4.26,4.26,0,0,0-.42-.11,6.5,6.5,0,0,0-.81-.11Z" style="fill:#c39368"/><path d="M621.65,215.77a.85.85,0,0,0-.25-.12,2.81,2.81,0,0,0-.66-.22c-.13,0-.28,0-.43-.08a1.93,1.93,0,0,0-.49,0,2.84,2.84,0,0,0-.51,0l-.52.07a1.9,1.9,0,0,0-.53.09,4.56,4.56,0,0,1-.53.13,3.89,3.89,0,0,0-.49.12,3.81,3.81,0,0,1-.44.15,5,5,0,0,1-1,.24,5.68,5.68,0,0,1,.75-.66,4.85,4.85,0,0,1,.41-.3,2.9,2.9,0,0,1,.5-.23,3.43,3.43,0,0,1,.56-.22,2.14,2.14,0,0,1,.62-.13c.21,0,.42,0,.63-.06a2.65,2.65,0,0,1,.62.09,1.94,1.94,0,0,1,.55.15,5.26,5.26,0,0,0,.47.24,2.81,2.81,0,0,1,.55.53A1,1,0,0,1,621.65,215.77Z" style="fill:#c39368"/><path d="M594.75,204.18c-.65,2.13-2,3.63-2.88,3.34s-1.16-2.25-.5-4.38,1.94-3.64,2.88-3.35S595.41,202,594.75,204.18Z" style="fill:#3d1a0b"/><path d="M593.31,202c-.24.63-.67,1-.95.93s-.3-.7-.05-1.33.68-1.05,1-.94S593.57,201.33,593.31,202Z" style="fill:#fff"/><path d="M568,198.47c-.66,2.13-2,3.64-2.89,3.36s-1.15-2.26-.5-4.39,1.94-3.64,2.88-3.34S568.63,196.33,568,198.47Z" style="fill:#3d1a0b"/><path d="M566.54,196.25c-.25.63-.68,1.05-1,1s-.29-.72,0-1.35.67-1.05,1-.94S566.79,195.63,566.54,196.25Z" style="fill:#fff"/><path d="M603.13,216c-.18,1.42-3.13,2.22-6.58,1.76s-6.1-2-5.91-3.41,3.15-2.24,6.59-1.78S603.32,214.56,603.13,216Z" style="fill:#f9cbc0"/><path d="M563.73,206.7c-.19,1.42-3.14,2.22-6.59,1.76s-6.08-2-5.9-3.41,3.14-2.24,6.59-1.78S563.92,205.26,563.73,206.7Z" style="fill:#f9cbc0"/><path d="M538.8,236.93s-9.84,11.09-7,15.2,29.77,9.66,29.77,9.66a5,5,0,0,0,3.79,3.06,16.58,16.58,0,0,1,3.31,3.51c.81,1.48,3,1.26,2.46-.16a13.64,13.64,0,0,0-2.47-3.45,25.29,25.29,0,0,1,5.18,2.14c1.93,1.23,3.32.53,2.28-1.47s-6.43-3-6.43-3,5.19-.23,6.7-.22,1.57-2.06-.61-2.22-6.26-.34-6.26-.34,6-2.33,6.49-3.5-.85-1-2.65-.25-5,1.86-5,1.86,1.72-2.17,1.43-3.59-4.33,3.35-4.63,3.59-2.09-.5-3.3-.22c0,0-20.31-5-21.59-7.3s4.23-9.64,4.23-9.64Z" style="fill:#f4d9bf"/><path d="M605.14,245.35l2.28,4.52-17.14,6.22L587.64,255s-1.19-2.6-2.63-2.51,0,1.65.71,3.05,1.19,2.71,1.19,2.71-5.45-3.17-7.12-3.48-1.06,1.2.11,1.75,4.91,2.68,4.91,2.68-5.79-.46-6.38.4,4.8.83,5.74.88-6.3,3.17-5,3.92,7.53-3.15,6.91-1.67-3.77,5.8-1.94,5.27,4-4.78,4-4.78,2.75-.58,3.25-2.37c0,0,21.34-5.53,21.72-9.8s-3.1-8.56-3.1-8.56A32.28,32.28,0,0,1,605.14,245.35Z" style="fill:#f4d9bf"/><g style="opacity:0.4;mix-blend-mode:multiply"><path d="M547.68,193.5h0a69.22,69.22,0,0,1,15-20.66l4.15-4.12C551.47,176.7,547.68,193.5,547.68,193.5Z" style="fill:#d7711f"/><path d="M559.71,180.9c2.06.24,7.23-3,30.13-8.23l-.15.19a42.87,42.87,0,0,1,6.27-5C580,170.25,559.71,180.9,559.71,180.9Z" style="fill:#d7711f"/><path d="M587.73,178.66a1.26,1.26,0,0,0,.86.45c3,.44,14.33-3.83,14.33-3.83s0,.12,0,.34c1.48-2.86,3.26-6,3.26-6C596.39,177.43,587.85,178.64,587.73,178.66Z" style="fill:#d7711f"/><path d="M609.75,174.72a13.36,13.36,0,0,1-5.22,13.07,2,2,0,0,0,1.07-.3,13.31,13.31,0,0,0,6-6.34,57.19,57.19,0,0,1,4.82,32.31s0,0,0,0C624.53,194.63,609.75,174.72,609.75,174.72Z" style="fill:#d7711f"/></g><path d="M567,224.8a103.16,103.16,0,0,0,15.34.24,7.62,7.62,0,0,1-8.46,8.09C568.77,232.83,566.75,227.83,567,224.8Z" style="fill:#96172d"/><path d="M572.48,232.92a6.55,6.55,0,0,0,1.36.21,8.3,8.3,0,0,0,4.66-1C576.25,230.4,573.7,232,572.48,232.92Z" style="fill:#ed776f"/><path d="M573.34,228.92a13,13,0,0,0,8.89-2.53,10.09,10.09,0,0,0,.07-1.35,100.32,100.32,0,0,1-13.82-.11C568.71,226.37,569.63,228.74,573.34,228.92Z" style="fill:#fff"/><path d="M565,224.26l.84.12a9.63,9.63,0,0,0,1,.12l1.25.14,1.48.12c.53.05,1.09.07,1.66.1s1.17.07,1.77.09l1.84,0c.61,0,1.23.05,1.83,0l1.78,0h1.66c.53,0,1,0,1.49-.06.92-.06,1.69-.06,2.23-.08l.85,0-.84.12c-.54.06-1.3.17-2.22.27-.46,0-1,.11-1.49.15l-1.67.08-1.79.08c-.61,0-1.22,0-1.84,0l-1.85-.05-1.78-.14c-.58,0-1.13-.1-1.67-.18l-1.48-.2c-.46-.07-.87-.16-1.24-.24s-.69-.15-1-.21C565.28,224.36,565,224.26,565,224.26Z" style="fill:#c39368"/><path d="M246.16,453.78c.47-1.15,6.05-7.44,4.82-8.59s-5.31,6.18-6.3,5.46,2-11.28-.72-10-1.93,10.16-3.16,9.18-1.4-11.48-3.49-9.8,2.06,11.31.13,10.78-4.55-1.93-6.63-.87,5.09,2.21,5.61,4.07a6.22,6.22,0,0,1,.34,2.66s-9.2,14.55-22.33,22.78c-12.87,8.08-27.65,12-31.17,11.78-.29,3.92.29,9.12,4.76,11.19l-.66-5.49s29.66,0,55.43-40.22a2.16,2.16,0,0,0,2.28-.61s7.89-.22,8-1.79S245.67,454.92,246.16,453.78Z" style="fill:#efcaa6"/><path d="M186.61,492.77s.14.3.31.78a13.59,13.59,0,0,1,.41,1.76,11.62,11.62,0,0,1,.18,1.81,6,6,0,0,1,0,.84,8.15,8.15,0,0,1-.31-.8,12,12,0,0,1-.59-3.56C186.58,493.1,186.61,492.77,186.61,492.77Z" style="fill:#c39368"/><path d="M171.44,490.6a.68.68,0,0,0-.51,0c-2.44.91-4.72,2.3-7.14,3.18a.32.32,0,0,0-.1.52,28.92,28.92,0,0,1,.7,3.43,18.32,18.32,0,0,0,1.65,4.05c.93,1.7,2.49,2.91,4.49,2.56s3.06-2.91,3.1-4.76a28.51,28.51,0,0,0-1.49-8.51A.63.63,0,0,0,171.44,490.6Z" style="fill:#f4c3a7"/><path d="M152,524.29s-3.85,11-4.07,20.85,1.51,16.53.7,17.91-2.54,1.58-3.93,5.58-.47,8.88.32,8.21.27-5.18,1.86-7.55a19,19,0,0,0-.6,6.76c.47,3,1.33,2.84,1.87-1.48s.92-6.46,1.09-5.47-.18,9.12,1.29,9.47.19-7.7,1.66-9.37a17.44,17.44,0,0,0,.68,6.16c1,2.74,1.95,3.14,1.85-.42s.11-8.85,1.93-7.18,2.59,4,4.29,3.23-1.35-4.8-2.84-6.28-3.87-2.32-4.18-3.49-2.06-11.59-1.42-17.83c.72-7.26,2.89-15.37,4.09-17.39Z" style="fill:#f4d9bf"/><path d="M174.06,553.72s-1.64,7.92,5.6,27.24c0,0,16-2.71,23.13-7.13L198.5,560l10.12,11.4s14.82-8.37,19-16.19c0,0-11.25-11.83-12.15-13.56a20.73,20.73,0,0,1-1.44-4.35Z" style="fill:#95e1bf"/><path d="M176.24,491.9s25.9-6.33,29.2-14.13c0,0,7.27,7,8.18,15.78,0,0-7.78,8-15,8.19,0,0,9.3,12,16.65,36.74,0,0-18.38,18.65-44.05,17.86,0,0-6.3-32.07-6.29-32.46s-1.62,5.91-1.62,5.91-10.85-3-14.1-5.42c0,0,2.75-19.2,19.9-28.67Z" style="fill:#95e1bf"/><path d="M146.14,487.45c-3,2.21-12.53-4.22-9.41-8.25S145,479,145,479s-5.11-12.89-7.28-20.21c5,4,10.89,8.22,10.89,8.22s-.61-8.26-3.14-13.56a24.14,24.14,0,0,0,10.33,1s-.93-1.55-5.21-4.23c9.27,1.5,21.92-3.63,21.92-3.63s-3.62-4.11-7.85-4c2.36-1.22,11-.45,16.14,3a38.84,38.84,0,0,1,3.61,8c2.5,7.24,3.93,8.13,6.41,10.46s5.29,8.43-4.86,21-26,11.94-31.47,10.11C154.44,495.16,148.85,491.49,146.14,487.45Z" style="fill:#fad8bf"/><path d="M127.29,485.8c-8.36-12.18-7.92-20.94-2.24-27.66,0,0,.45-21.66,25-27.88,15.91-2.4,27.58.84,34.2,13.48-4.54-3.95-7.74-3.92-7.74-3.92A10.34,10.34,0,0,1,182.2,446l-1.45-.44c-5.15-3.41-13.78-4.18-16.14-3,4.23-.07,7.85,4,7.85,4s-12.65,5.13-21.92,3.63c4.28,2.68,5.21,4.23,5.21,4.23a24.14,24.14,0,0,1-10.33-1c2.53,5.3,3.14,13.56,3.14,13.56s-5.9-4.26-10.89-8.22C139.84,466.15,145,479,145,479s-5.12-3.86-8.22.16,6.42,10.46,9.41,8.25c2.71,4,8.3,7.71,8.3,7.71C152.5,497.08,135.66,498,127.29,485.8Z" style="fill:#7d4902"/><path d="M139.7,482.59a1.09,1.09,0,0,1,.21-.23,1.21,1.21,0,0,1,.29-.22l.18-.08a2,2,0,0,0,.22-.08,2.22,2.22,0,0,1,.52,0,4.09,4.09,0,0,1,.58.09c.2.07.4.12.6.21a5.71,5.71,0,0,1,.61.29c.19.12.4.21.59.34l.57.35c.35.25.68.48,1,.67.57.43,1,.68,1,.68a10.47,10.47,0,0,0-.78-.9,5.33,5.33,0,0,0-.42-.4c-.16-.13-.32-.3-.49-.43l-.57-.41c-.19-.13-.42-.24-.62-.37a4.88,4.88,0,0,0-.66-.29,3.59,3.59,0,0,0-.69-.2,2.7,2.7,0,0,0-.69,0,2.29,2.29,0,0,0-.6.14l-.25.13-.18.15a1.71,1.71,0,0,0-.26.31A.77.77,0,0,0,139.7,482.59Z" style="fill:#c48053"/><path d="M143.54,485.31a3.26,3.26,0,0,0,0-.46c0-.14,0-.29,0-.45s0-.32,0-.48a5.37,5.37,0,0,1,0-.89c0-.07,0-.13,0-.17a.52.52,0,0,1,0-.14.93.93,0,0,0,0-.13l-.11.07a.31.31,0,0,0-.14.09,1.25,1.25,0,0,0-.12.17,1.15,1.15,0,0,0-.2.46,3.52,3.52,0,0,0,0,.56,2.22,2.22,0,0,0,.27,1A1.49,1.49,0,0,0,143.54,485.31Z" style="fill:#c48053"/><path d="M182.52,461.09c.58,1.4,1.44,2.38,1.9,2.18s.36-1.48-.22-2.88-1.44-2.39-1.9-2.2S181.93,459.68,182.52,461.09Z" style="fill:#292524"/><path d="M182.55,459.28c.25.44.59.68.78.57s.17-.54-.08-1-.58-.67-.77-.58S182.32,458.87,182.55,459.28Z" style="fill:#fff"/><path d="M162.82,470c.59,1.41,1.43,2.39,1.89,2.19s.36-1.48-.22-2.9-1.43-2.37-1.89-2.18S162.24,468.64,162.82,470Z" style="fill:#292524"/><path d="M162.86,468.24c.23.43.57.68.77.56s.16-.53-.08-1-.58-.66-.78-.55S162.61,467.83,162.86,468.24Z" style="fill:#fff"/><path d="M176.74,466.6l1.24.54,1.25.57a14.79,14.79,0,0,1,1.35.74,2,2,0,0,1,.51.47l0,.09,0,.2a2.08,2.08,0,0,1,0,.3,4.31,4.31,0,0,1-.57,1.18c-.44.66-.78,1.09-.78,1.09a5.86,5.86,0,0,0,1-.94,3.52,3.52,0,0,0,.75-1.22,1.89,1.89,0,0,0,.09-.45V469c0-.12-.07-.18-.1-.27a2.15,2.15,0,0,0-.66-.62,10.65,10.65,0,0,0-2.75-1.16A12.82,12.82,0,0,0,176.74,466.6Z" style="fill:#c48053"/><path d="M166.47,458.59a10.13,10.13,0,0,0-2-1.73,9.36,9.36,0,0,0-1.11-.62,4.75,4.75,0,0,0-1.41-.44,3.16,3.16,0,0,0-1.66.11l-.41.16c-.13.07-.25.16-.37.24l-.18.14-.05,0-.05,0h0l-.06.07-.28.27c-.17.19-.34.46-.51.69s-.27.48-.39.72a8.7,8.7,0,0,0-.5,1.46,12.47,12.47,0,0,0-.36,2.67,13.89,13.89,0,0,0,.13,2.59s0-.25.09-.69.16-1.09.29-1.84a17.7,17.7,0,0,1,.61-2.5,9.83,9.83,0,0,1,.53-1.32c.1-.21.22-.42.34-.62a3.85,3.85,0,0,1,.41-.54l.26-.27.07-.09h0l0,0,.13-.1.27-.18.29-.12a4,4,0,0,1,.62-.14,3.53,3.53,0,0,1,.65,0,5.37,5.37,0,0,1,1.26.29,8.73,8.73,0,0,1,1.12.46,14.26,14.26,0,0,1,1.61.88Z" style="fill:#7d4902"/><path d="M183,449.89a1.53,1.53,0,0,0-.21-.29A2.44,2.44,0,0,0,182,449a1.53,1.53,0,0,0-.68-.18,1,1,0,0,0-.43,0,1.27,1.27,0,0,0-.41.15,2,2,0,0,0-.68.56,5.88,5.88,0,0,0-.41.73,6.22,6.22,0,0,0-.26.76c-.06.26-.08.52-.14.76a10,10,0,0,0,0,1.31,8.31,8.31,0,0,0,.17,1.27,9.74,9.74,0,0,0,.35-1.22c.09-.36.2-.78.3-1.22.06-.22.14-.43.19-.65a4.18,4.18,0,0,1,.25-.65,3.88,3.88,0,0,1,.28-.58,1.6,1.6,0,0,1,.39-.39.8.8,0,0,1,.21-.13.5.5,0,0,1,.24-.06,1.4,1.4,0,0,1,.5,0,3.13,3.13,0,0,1,.83.26A1.58,1.58,0,0,1,183,449.89Z" style="fill:#7d4902"/><path d="M184.36,475.49s-8,6.11-15.9,4.8c3.84,5.31,7.83,6.94,10.24,5.93S182.54,477.24,184.36,475.49Z" style="fill:#510012"/><path d="M170.54,482.8a24.12,24.12,0,0,1-2.08-2.51c4.43.74,8.88-.85,11.94-2.4C180.06,479.73,178.46,483.93,170.54,482.8Z" style="fill:#fff"/><path d="M179.46,485.66a2.3,2.3,0,0,1-.76.56c-1.71.71-4.24.08-6.94-2.27A7.9,7.9,0,0,1,179.46,485.66Z" style="fill:#fd7072"/><path d="M178.8,486.47c-2.18.91-6.28-.12-10.56-6l-.39-.54.65.12A18.66,18.66,0,0,0,179,478.27a29.45,29.45,0,0,0,5.23-3l.35.41c-.73.7-1.42,2.57-2.16,4.54-1,2.75-2.07,5.57-3.54,6.22Zm.38-7.69a19.68,19.68,0,0,1-10.12,1.88c2.76,3.57,6.66,6.5,9.54,5.31l.14.23-.11-.25c1.26-.55,2.32-3.4,3.25-5.9a33.13,33.13,0,0,1,1.43-3.52A31,31,0,0,1,179.18,478.78Z" style="fill:#c48053"/><path d="M172.72,483.71c3,2.25,4.71,1.77,5.57,1.09a8.09,8.09,0,0,1,1.17.86,2.3,2.3,0,0,1-.76.56c-1.71.71-4.24.08-6.94-2.27A7.48,7.48,0,0,1,172.72,483.71Z" style="fill:#d9494d"/><g style="opacity:0.30000000000000004;mix-blend-mode:multiply"><path d="M136.73,479.2c3.1-4,8.22-.16,8.22-.16s-5.11-12.89-7.28-20.21c5,4,10.89,8.22,10.89,8.22s-.61-8.26-3.14-13.56a24.14,24.14,0,0,0,10.33,1s-.93-1.55-5.21-4.23c9.27,1.5,21.92-3.63,21.92-3.63s-3.62-4.11-7.85-4c2.36-1.22,11-.45,16.14,3,0,0,.1.16.27.47a36,36,0,0,0-9.83-2.41s.88.35,1.86,3.81c-7.25,4.31-17.75,5-17.75,5l1.8,3.09s-3.27,2.87-8.74,1.14c1.23,4.17,1.44,13.54,1.44,13.54s-.62.36-2.8-1.48c2.11,6.22,8.52,16.68,14.33,22.42s17.33,3.09,25.63-10,4.06-15.58,1.21-19.25a11,11,0,0,1-1.52-2.76,16.34,16.34,0,0,0,4.12,4.95c2.48,2.32,5.29,8.43-4.86,21s-26,11.94-31.47,10.11c0,0-5.59-3.67-8.3-7.71C143.15,489.66,133.61,483.23,136.73,479.2Z" style="fill:#dfa679"/></g><path d="M303.59,580a19.74,19.74,0,0,0-5.2-.49l.16-.44a14.82,14.82,0,0,0,.35-8.93,23.78,23.78,0,0,0-4.28-7.82c-3.64-4.25-9.12-6.6-14.57-7.35a28.58,28.58,0,0,0-8.56.29,27.82,27.82,0,0,0-.85-6.48c-1.41-5.59-5.84-10.49-10.47-13.74-4.89-3.45-10.9-4-16.59-2.7a18,18,0,0,0-1.78.49c-2.06-4.64-7.31-7.36-12.13-8.35a21.58,21.58,0,0,0-9.85.47,21.22,21.22,0,0,0-7.91,4.5,23.46,23.46,0,0,0-5.49,7.37c-1.5,2.95-1.75,6.41-1.65,9.68a14.28,14.28,0,0,0,2.36,7.23,9.76,9.76,0,0,0-1.91,1.3,13,13,0,0,0-4,6.17,16,16,0,0,0-2.29-.83,25.88,25.88,0,0,0-9.06-.93,22.15,22.15,0,0,0-8.52,2.63c-5.36,2.7-10.49,5.86-13.27,11.44a17.18,17.18,0,0,0-1.47,4.76c-.5-.14-1-.26-1.51-.37a20.08,20.08,0,0,0-11.47,1c-6.57,2.62-10.86,10-11.24,16.88-.42,8,5.37,15,12.86,16.94A20.64,20.64,0,0,0,167,612a30.91,30.91,0,0,0,6.78-3.2,22.17,22.17,0,0,0,3.9,4c4.72,3.78,10.8,5.49,16.74,6a23.12,23.12,0,0,0,8.28-.81c1.38-.38,2.76-.57,4.11-1A35.54,35.54,0,0,0,211,615.2a25.41,25.41,0,0,0,6.36-4.12,22.59,22.59,0,0,0,2.24,1.91,25.31,25.31,0,0,0,14.76,5.12,37.71,37.71,0,0,0,16-3.47,30.08,30.08,0,0,0,9.51-7.06,37.51,37.51,0,0,0,15.43,6.55,47,47,0,0,0,12.85.86,35.14,35.14,0,0,0,12.11-3.1c6.45-3,13.49-8.6,14.51-16S310.77,581.77,303.59,580Z" style="fill:#fff"/><path d="M311.39,599.54c-1.67,3.43-5.16,6.07-8.25,8.13-7.19,4.79-16.21,5.73-24.58,4.58a44.75,44.75,0,0,1-13.13-3.77,31,31,0,0,1-4.17-2.38c.37-.42.71-.85,1.06-1.28-.45.38-.94.74-1.38,1-1.75,1.27-3.54,2.52-5.36,3.67l-.65.4a30.67,30.67,0,0,1-4.18,2.48,36.78,36.78,0,0,1-7.08,2.43,39.23,39.23,0,0,1-7.83,1.27,25.08,25.08,0,0,1-6.59-.62,23.75,23.75,0,0,1-8.79-2.94,16.33,16.33,0,0,1-4.38-3.63c-.8-1-1.41-2.36-2.43-3.18a16.53,16.53,0,0,0,.86,1.74,15.94,15.94,0,0,0,2,2.72,32.33,32.33,0,0,1-6.46,3.45,32.68,32.68,0,0,1-15.67,3.09,35.81,35.81,0,0,1-15.75-5,18.59,18.59,0,0,1-4.15-3.38h0a20.56,20.56,0,0,1-3.54-4.66,22.79,22.79,0,0,0,2.21,4.28,40.18,40.18,0,0,1-5.92,2.27,21.27,21.27,0,0,1-11,.6c-7-1.61-11.65-7.79-12.08-14.86a17.55,17.55,0,0,1,9.7-16.35A19,19,0,0,1,165,578.38a12.11,12.11,0,0,1,1.55.36,16.43,16.43,0,0,0-.16,2.21,12.38,12.38,0,0,0,.29,2.36,20.46,20.46,0,0,0,1.08,3.05,18.88,18.88,0,0,1,.77-8.59,10.52,10.52,0,0,1,.57-1.42c.26-.71.55-1.4.88-2.09,2.47-5,7.26-7.69,11.9-10.31a24,24,0,0,1,16.23-2.63,20.76,20.76,0,0,1,2.91.81,9.32,9.32,0,0,0,1.37,6.94,11.48,11.48,0,0,1,.79-9,15.7,15.7,0,0,1,3.41-4.53,7.73,7.73,0,0,1,1.12-.83l.06.07,0,0,.85-.45a.11.11,0,0,1,0-.08,23.42,23.42,0,0,1,5.14-1.51,13.41,13.41,0,0,1,3.79-.31,5,5,0,0,1,.85.13h.24a8.82,8.82,0,0,0-2.81-.48,30.59,30.59,0,0,0-4.18.32,17,17,0,0,0-3.54,1,16.39,16.39,0,0,1-1.9-7.08,18.64,18.64,0,0,1,1.43-8.92,22.71,22.71,0,0,1,5.28-7.08A20.34,20.34,0,0,1,229.05,525c4.88.55,10.41,3.34,12.63,7.92a23.69,23.69,0,0,0-4.43,2,13,13,0,0,0-2.5,2.19A17.75,17.75,0,0,1,247,533.2,20.26,20.26,0,0,1,259.9,537c4.2,3.06,8.22,7.22,10,12.18a20.07,20.07,0,0,1,1,4.54,21.9,21.9,0,0,1,.34,4.9c0,.42,0,.83-.05,1.24a26.36,26.36,0,0,0,.35-4l.35,0a27.65,27.65,0,0,1,8,.21,23.51,23.51,0,0,1,13.51,7.3,23.08,23.08,0,0,1,3.7,6.54,13.6,13.6,0,0,1,.24,8.69c-.1.35-.2.7-.32,1a.12.12,0,0,1-.08,0,23.08,23.08,0,0,0-3.94.86,2.35,2.35,0,0,0-1.36.77.23.23,0,0,0,.11,0l.13,0c1-.75,2.61-.78,3.76-.84a21.19,21.19,0,0,1,2.52,0h0a18.32,18.32,0,0,1,4.93.89,14.12,14.12,0,0,1,8.64,7.7A12.82,12.82,0,0,1,311.39,599.54Z" style="fill:#fff"/><path d="M228.78,544.64a5.42,5.42,0,0,0,.37,2.43c-.07-3,1.78-6.46,3.66-8.5a16.52,16.52,0,0,1,2.68-2.27,14.27,14.27,0,0,1,1.76-1.43,23.69,23.69,0,0,1,4.43-2,11.82,11.82,0,0,0-2-2.83C234.64,530.91,229.19,537.36,228.78,544.64Z" style="fill:#fff;opacity:0.30000000000000004"/><path d="M208.11,553.32a17,17,0,0,1,3.54-1,30.59,30.59,0,0,1,4.18-.32,8.4,8.4,0,0,1,2.3.32,26.93,26.93,0,0,1,7.42,1.85,28.64,28.64,0,0,1,7.46,4.18c-4.82-7.31-15.11-11.59-23.21-8.06a.54.54,0,0,1-.73-.19,23.41,23.41,0,0,1-1.61-12.36,19.34,19.34,0,0,0-1.25,8.49A16.39,16.39,0,0,0,208.11,553.32Z" style="fill:#fff;opacity:0.30000000000000004"/><path d="M311.65,588.94a14.12,14.12,0,0,0-8.64-7.7,18.32,18.32,0,0,0-4.93-.89h0a21.19,21.19,0,0,0-2.52,0c-1.15.06-2.75.09-3.76.84l-.13,0a.23.23,0,0,1-.11,0,2.35,2.35,0,0,1,1.36-.77,23.08,23.08,0,0,1,3.94-.86.12.12,0,0,0,.08,0c.12-.34.22-.69.32-1a13.6,13.6,0,0,0-.24-8.69,20.37,20.37,0,0,0-14.82-13.29c4.64,3,8.44,6.89,8.61,13a27.12,27.12,0,0,1-3.13,13.57c.85-.14,1.7-.26,2.57-.35,3.64-.43,7.52-1,11.06.31a5.06,5.06,0,0,1,3,6.57,15.09,15.09,0,0,1-8.33,9.21c-7.78,3.64-17,3.2-25.05.58-5.43-1.76-10.81-4.66-14.39-9.05-3.86,8-11.23,13.77-20.88,14-11,.24-23.4-6.63-27-17.37a24,24,0,0,0,2.57,9.94.56.56,0,0,1-.2.72c-7.86,5-24.06,10.3-33.49,6.36-5.15-2.15-7.56-6.71-9.69-12.27-.43,3.88.47,8.13,1.94,12.27.12.35-1.19.56-1.51.6-6.62.8-14.63.08-19.51-5a14.44,14.44,0,0,1-3.94-9.4,16.1,16.1,0,0,0-.75,5.78c.43,7.07,5.08,13.25,12.08,14.86a21.27,21.27,0,0,0,11-.6,40.18,40.18,0,0,0,5.92-2.27,22.79,22.79,0,0,1-2.21-4.28,20.56,20.56,0,0,0,3.54,4.66h0a18.59,18.59,0,0,0,4.15,3.38,35.81,35.81,0,0,0,15.75,5,32.68,32.68,0,0,0,15.67-3.09,32.33,32.33,0,0,0,6.46-3.45,15.94,15.94,0,0,1-2-2.72,16.53,16.53,0,0,1-.86-1.74c1,.82,1.63,2.18,2.43,3.18a16.33,16.33,0,0,0,4.38,3.63,23.75,23.75,0,0,0,8.79,2.94,25.08,25.08,0,0,0,6.59.62,39.23,39.23,0,0,0,7.83-1.27,36.78,36.78,0,0,0,7.08-2.43,30.67,30.67,0,0,0,4.18-2.48l.65-.4c1.82-1.15,3.61-2.4,5.36-3.67.44-.31.93-.67,1.38-1-.35.43-.69.86-1.06,1.28a31,31,0,0,0,4.17,2.38,44.75,44.75,0,0,0,13.13,3.77c8.37,1.15,17.39.21,24.58-4.58,3.09-2.06,6.58-4.7,8.25-8.13A12.82,12.82,0,0,0,311.65,588.94Z" style="fill:#fff;opacity:0.5"/><path d="M207.71,554.68l-.12.08.15-.06S207.73,554.68,207.71,554.68Z" style="fill:#fff"/></g></g></svg>