<svg xmlns="http://www.w3.org/2000/svg" viewBox="0 0 663.87 667.32"><title>bkchildren-01</title><g style="isolation:isolate"><g id="children"><path d="M302.84,341.26v0Zm1.7-.58v0ZM302.8,340a.89.89,0,0,0,0,.15A.89.89,0,0,1,302.8,340Zm-.52-1.4a1.65,1.65,0,0,0-.19-.27A1.65,1.65,0,0,1,302.28,338.57Zm.43,1,0-.19Zm-.17-.52-.11-.23Zm-8,16.79,0,0Zm.59-.7a0,0,0,0,0,0,0A0,0,0,0,1,295.18,355.14Z" style="fill:#c4c2c3;mix-blend-mode:multiply"/><path d="M365.49,431.44a1069.68,1069.68,0,0,1,1.73,147.17h0s8.92-57,4-107.17S360.21,366.25,374.06,270l-1.75-.56A686.11,686.11,0,0,0,365.49,431.44Z" style="fill:#afafaf"/><path d="M361.53,420.3c3.17,63.94,8.41,111.71,5.74,158.31h0a1069.68,1069.68,0,0,0-1.73-147.17,686.32,686.32,0,0,1,6.82-162l-1.45-.47C364.63,306.28,358.57,360.56,361.53,420.3Z" style="fill:#8e8e8e"/><path d="M521,431.44a1071.14,1071.14,0,0,1,1.72,147.17h0s8.92-57,4-107.17S515.7,366.25,529.55,270l-1.75-.56A685.66,685.66,0,0,0,521,431.44Z" style="fill:#afafaf"/><path d="M517,420.3c3.17,63.94,8.41,111.71,5.74,158.31h0A1071.14,1071.14,0,0,0,521,431.44a685.87,685.87,0,0,1,6.81-162l-1.45-.47C520.13,306.28,514.07,360.56,517,420.3Z" style="fill:#8e8e8e"/><path d="M177.8,456.41c2.57,60.66,6.39,106,4.22,150.19h.4A1187,1187,0,0,0,181,467a759.76,759.76,0,0,1,5.53-153.73l-1.18-.44C180.32,348.25,175.4,399.74,177.8,456.41Z" style="fill:#8e8e8e"/><path d="M181,467a1187,1187,0,0,1,1.4,139.62h.38s6.9-54.12,2.9-101.67-9-99.79,2.26-191.13l-1.41-.53A759.51,759.51,0,0,0,181,467Z" style="fill:#afafaf"/><g id="girl3"><path d="M409.93,389.1c.54-.55,1.11-1.24,1.75-2,1.44.82,4.07,2,4.78.23s-.92-3-2-3.73l1.36-1.62c4.17-4.83,8.29-7.58,10.59-6.09a2.58,2.58,0,0,1,1.17,1.81c-2.73,5.95-10.34,21.41-18.31,27.37-.74-.51-2.13-1.69-4-3.29,1.83-2.22,6.12-7.42,7-9.33S411.11,389.57,409.93,389.1Z" style="fill:#f4cdd4"/><path d="M416.46,387.3c-.71,1.78-3.34.59-4.78-.23.83-1,1.75-2.23,2.79-3.5C415.54,384.28,417.13,385.64,416.46,387.3Z" style="fill:#f4cdd4"/><path d="M427.59,377.67c.39,2.13-1,5.87-4.69,12.29-5.06,8.86-10.23,17.07-13.32,15.28l-.3-.2C417.25,399.08,424.86,383.62,427.59,377.67Z" style="fill:#f4cdd4"/><path d="M407.26,390.32c.74.39,1.62-.14,2.67-1.22,1.18.47,3.16,1.56,2.36,3.32s-5.16,7.11-7,9.33c-2.54-2.23-5.91-5.26-9.47-8.51,1.68-3.12,3.84-6.48,5.1-8.39C403.84,387.45,406.18,389.49,407.26,390.32Z" style="fill:#f4cdd4"/><path d="M378.88,365.17c4.26,3.54,14.9,13.3,22.05,19.68-1.26,1.91-3.42,5.27-5.1,8.39-9.49-8.66-20.33-18.78-20.33-18.78s-4.91,3.64-7.71,5.65-3.09-15.72-3.09-15.72S372.91,360.19,378.88,365.17Z" style="fill:#f4cdd4"/><path d="M414.06,384.09l.41-.52c1.07.71,2.66,2.07,2,3.73-.45,1.12-1.65,1.06-2.85.66A2.73,2.73,0,0,0,414.06,384.09Z" style="fill:#f4cdd4"/><path d="M412.29,392.42c.8-1.76-1.18-2.85-2.36-3.32.54-.55,1.11-1.24,1.75-2,1.44.82,4.07,2,4.78.23s-.92-3-2-3.73c.39-.47.79-1,1.22-1.44,2.76,2.87,6.19-.51,8.54-4.66.56-1,.69-1.61.54-2a2.71,2.71,0,0,1,1.65.4,2.58,2.58,0,0,1,1.17,1.81c-2.73,5.95-10.34,21.41-18.31,27.37-.74-.51-2.13-1.69-4-3.29C407.13,399.53,411.42,394.33,412.29,392.42Z" style="fill:#e36386"/><path d="M418.61,377c.4-.65.82-1.44,1.27-2.35,1.58.48,4.41,1.1,4.73-.78s-1.53-2.78-2.73-3.23c.31-.61.64-1.24,1-1.87,3.05-5.6,6.49-9.17,9.05-8.2a2.63,2.63,0,0,1,1.53,1.52c-1.41,6.4-5.58,23.13-12.12,30.61-.82-.34-2.44-1.18-4.58-2.37,1.33-2.54,4.41-8.55,4.85-10.59C422,377.87,419.86,377.22,418.61,377Z" style="fill:#f4cdd4"/><path d="M424.61,373.88c-.32,1.88-3.15,1.26-4.73.78.61-1.18,1.26-2.56,2-4C423.08,371.1,424.91,372.11,424.61,373.88Z" style="fill:#f4cdd4"/><path d="M433.45,362.1c.84,2,.26,5.95-2,13-3.08,9.73-6.41,18.83-9.8,17.75l-.34-.15C427.87,385.23,432,368.5,433.45,362.1Z" style="fill:#f4cdd4"/><path d="M416.25,378.76c.8.23,1.54-.48,2.36-1.75,1.25.21,3.4.86,3,2.74-.44,2-3.52,8.05-4.85,10.59-3-1.63-6.89-3.89-11.05-6.3,1-3.41,2.37-7.15,3.2-9.28C412.31,376.69,415,378.18,416.25,378.76Z" style="fill:#f4cdd4"/><path d="M383.21,360.17c4.9,2.57,17.36,9.86,25.69,14.59-.83,2.13-2.22,5.87-3.2,9.28C394.59,377.58,381.86,370,381.86,370s-4,4.6-6.35,7.16-6.33-14.72-6.33-14.72S376.3,356.57,383.21,360.17Z" style="fill:#f4cdd4"/><path d="M421.57,371.23c.11-.18.21-.39.31-.58,1.2.45,3,1.46,2.73,3.23-.19,1.19-1.4,1.38-2.65,1.24A2.74,2.74,0,0,0,421.57,371.23Z" style="fill:#f4cdd4"/><path d="M421.6,379.75c.41-1.88-1.74-2.53-3-2.74.4-.65.82-1.44,1.27-2.35,1.58.48,4.41,1.1,4.73-.78s-1.53-2.78-2.73-3.23c.28-.54.57-1.11.88-1.67,3.3,2.23,5.95-1.8,7.37-6.35.33-1.09.32-1.73.1-2.09a2.6,2.6,0,0,1,3.22,1.56c-1.41,6.4-5.58,23.13-12.12,30.61-.82-.34-2.44-1.18-4.58-2.37C418.08,387.8,421.16,381.79,421.6,379.75Z" style="fill:#e36386"/><path d="M357.06,368.31l12.39-7.15a72,72,0,0,1,11,21.87c-19.49,14.8-36.16,21.82-47.17,5.7-1.81-3.75-.75-6-.75-6Z" style="fill:#fa7598"/><path d="M343.88,338.16s5.11,2.82,9.76-2.46,6-12.65,6-12.65-3.4-3.4-2.58-4.61,4.29,1.26,4.29,1.26-4-10-1.63-10.9,3.35,8.79,3.35,8.79,2.35-8.57,4.18-8.11-1.07,8.64-1.07,8.64,5.55-4.92,6.63-4-5.24,6-5.24,6,6.88-1.54,7.51-.3-6.26,2.81-6.26,2.81,1.58,6.07-4.25,6.94c-2.43,5.81-7.54,13.81-11.31,15s-9.86.26-9.86.26Z" style="fill:#fad8bf"/><g style="opacity:0.30000000000000004;mix-blend-mode:multiply"><path d="M343.88,338.16s5.11,2.82,9.76-2.46,6-12.65,6-12.65-3-3-2.68-4.38a5.7,5.7,0,0,0,3.55,4c0,3.91-2.67,9.6-6.34,14s-3.06,7.39.55,5,8.79-12.28,8.79-12.28a1.34,1.34,0,0,1-.5-1.29c4.25,1.23,5.73-4,5.16-6.43,3.74-.39,5.71-1.24,6.75-2.07a.62.62,0,0,1,.16.17c.64,1.26-6.26,2.81-6.26,2.81s1.58,6.07-4.25,6.94c-2.43,5.81-7.54,13.81-11.31,15s-9.86.26-9.86.26Z" style="fill:#dfa679"/></g><path d="M342.92,347l2.49-10.56s-11.22-2.17-17-1.63l-.22,3.26Z" style="fill:#fa7598"/><path d="M320.45,334.49c8.66,3.21-1.61,26.4-1.61,26.4-9.31-4.41-12.59-5.62-12.59-5.62S313.9,335.31,320.45,334.49Z" style="fill:#fa7598"/><path d="M323.77,339.34c-.35-2.31-1.33-4.11-3.32-4.85l.42-4.44,7.25,1.75s.16,1.73.4,4.69C328.52,336.49,329.33,342.38,323.77,339.34Z" style="fill:#e5ba9c"/><path d="M323.77,339.34c5.56,3,4.75-2.85,4.75-2.85,7.22,4.16,18.91,12.27,31.66,31.27l-27,21.26a99,99,0,0,1-14.31-28.13S324.92,347.14,323.77,339.34Z" style="fill:#fa7598"/><path d="M320,289.05s-9.23-8.91-22-1.22-13.56,25.54-10.93,40c1.81,9.86-3.83,10.11-5.61,8.72,1.18,4.68,4.75,6.22,7.75,4.68-3.16,5.23,2.12,12.71,5.11,14.08-2-2.71,1.6-8.25,1.6-8.25s1.59,12.7,22.2,10.37c-7.22-2.23-7.79-11.42-7.79-11.42s4.21,5,6.65,4.49-.56-3.13-5.19-9.58S298.46,311.87,320,289.05Z" style="fill:#5e3503"/><path d="M307.63,321.13c-2.48.49-6.48-6.22-3.39-7.8s5.1,2.29,5.1,2.29.59-9.4,1.38-14.53c1.92,3.88,4.31,8.2,4.31,8.2s2-5.25,2-9.24a16.47,16.47,0,0,0,6.06,3.62s-.13-1.22-2-4.11c5.26,3.61,14.53,4.12,14.53,4.12s-1-3.58-3.66-4.75c1.81-.07,6.89,2.9,9.06,6.49a26.25,26.25,0,0,1-.1,5.95c-.55,5.18.06,6.14.91,8.29s.81,6.72-9.09,11.52-19.42-.19-22.26-2.9A23.55,23.55,0,0,1,307.63,321.13Z" style="fill:#fad8bf"/><path d="M296.53,314.66c-1.61-9.91,1.2-15.17,6.63-17.65,0,0,6.56-13.18,23.47-9.88,10.48,3.13,16.71,8.51,17.12,18.19-1.65-3.73-3.62-4.64-3.62-4.64a7,7,0,0,1,1.68,5.43l-.77-.69c-2.17-3.59-7.25-6.56-9.06-6.49,2.62,1.17,3.66,4.75,3.66,4.75s-9.27-.51-14.53-4.12c1.85,2.89,2,4.11,2,4.11a16.47,16.47,0,0,1-6.06-3.62c0,4-2,9.24-2,9.24s-2.39-4.32-4.31-8.2c-.79,5.13-1.38,14.53-1.38,14.53s-2-3.86-5.1-2.29.91,8.29,3.39,7.8a23.55,23.55,0,0,0,2.87,7.15C308.75,328.89,298.14,324.55,296.53,314.66Z" style="fill:#7d4902"/><path d="M305.08,316.28a.6.6,0,0,1,.2-.08.54.54,0,0,1,.24-.05h.14l.15,0a1.13,1.13,0,0,1,.33.13c.11.05.21.15.33.22s.21.19.31.31a2.26,2.26,0,0,1,.28.35c.09.13.19.25.27.39s.17.25.25.37.28.5.4.7c.23.43.41.7.41.7a6,6,0,0,0-.22-.78,3.44,3.44,0,0,0-.14-.37c-.06-.12-.11-.27-.17-.4l-.24-.42c-.08-.14-.18-.27-.27-.4a4,4,0,0,0-.32-.38,2.24,2.24,0,0,0-.37-.32,2.05,2.05,0,0,0-.41-.22,1.56,1.56,0,0,0-.41-.08h-.19l-.16,0a1.17,1.17,0,0,0-.25.12A.52.52,0,0,0,305.08,316.28Z" style="fill:#c48053"/><path d="M306.65,319.06a1.59,1.59,0,0,0,.15-.27l.13-.28c.05-.09.08-.21.13-.3a3.72,3.72,0,0,1,.25-.56l.06-.09.06-.08.06-.07h-.09s-.07,0-.11,0l-.13.07a1,1,0,0,0-.25.22,2.21,2.21,0,0,0-.18.34,1.31,1.31,0,0,0-.12.67A1.19,1.19,0,0,0,306.65,319.06Z" style="fill:#c48053"/><path d="M337.63,315.48c-.05,1,.19,1.88.53,1.89s.66-.81.7-1.84-.19-1.88-.53-1.9S337.68,314.44,337.63,315.48Z" style="fill:#292524"/><path d="M338.17,314.37c0,.34.16.59.32.58s.25-.28.22-.61-.16-.58-.31-.58S338.15,314.05,338.17,314.37Z" style="fill:#fff"/><path d="M322.92,315.27c0,1,.2,1.88.54,1.89s.65-.81.7-1.85-.19-1.87-.53-1.88S323,314.24,322.92,315.27Z" style="fill:#292524"/><path d="M323.47,314.17c0,.33.16.58.31.57s.26-.28.23-.61-.16-.58-.32-.57S323.44,313.85,323.47,314.17Z" style="fill:#fff"/><path d="M332.48,317.19l.6.69c.19.2.39.45.6.71a7.39,7.39,0,0,1,.62.85,1.2,1.2,0,0,1,.18.43v.07l0,.14a.94.94,0,0,1-.11.17,2.88,2.88,0,0,1-.69.55,8.29,8.29,0,0,1-.8.45,3.55,3.55,0,0,0,.87-.3,2.24,2.24,0,0,0,.82-.53,1.35,1.35,0,0,0,.19-.25l0-.12a1.68,1.68,0,0,0,0-.2,1.45,1.45,0,0,0-.22-.57,7.06,7.06,0,0,0-1.36-1.51A7.38,7.38,0,0,0,332.48,317.19Z" style="fill:#c48053"/><path d="M328.49,309.29a6.82,6.82,0,0,0-.71-1.63,5.63,5.63,0,0,0-.51-.71,3.18,3.18,0,0,0-.73-.68,2.17,2.17,0,0,0-1.05-.41l-.3,0c-.1,0-.2,0-.3,0l-.15,0h-.09l-.06,0-.25.08a5.25,5.25,0,0,0-.51.28c-.15.11-.31.21-.45.33a5.15,5.15,0,0,0-.73.75,8.7,8.7,0,0,0-1,1.54,9.71,9.71,0,0,0-.67,1.62l.26-.4c.16-.26.41-.62.71-1a11.32,11.32,0,0,1,1.1-1.36,5.6,5.6,0,0,1,.71-.66,3.37,3.37,0,0,1,.38-.28,3.29,3.29,0,0,1,.42-.21l.23-.1.07,0h0l.11,0,.22,0,.21,0a3.1,3.1,0,0,1,.42.08,3,3,0,0,1,.4.2,3.05,3.05,0,0,1,.69.54,5.25,5.25,0,0,1,.56.61,8.61,8.61,0,0,1,.73,1Z" style="fill:#7d4902"/><path d="M341.18,308.74a1.82,1.82,0,0,0-.05-.24,1.64,1.64,0,0,0-.3-.59,1.13,1.13,0,0,0-.37-.31.63.63,0,0,0-.27-.1.75.75,0,0,0-.3,0,1.27,1.27,0,0,0-.57.15,2.64,2.64,0,0,0-.47.33,3.48,3.48,0,0,0-.38.39c-.11.14-.2.29-.31.43a7.36,7.36,0,0,0-.4.79,5.77,5.77,0,0,0-.26.83,7.54,7.54,0,0,0,.56-.65l.54-.66.31-.35a2.54,2.54,0,0,1,.34-.32,3,3,0,0,1,.34-.28,1.66,1.66,0,0,1,.35-.13.5.5,0,0,1,.17,0,.34.34,0,0,1,.17,0,1,1,0,0,1,.31.14,2.12,2.12,0,0,1,.43.4A1.88,1.88,0,0,1,341.18,308.74Z" style="fill:#7d4902"/><path d="M334.58,324.86s-6.67,1.45-11.16-1.66c.83,4.37,2.8,6.53,4.58,6.61S333,325.41,334.58,324.86Z" style="fill:#510012"/><path d="M324,325.34a17,17,0,0,1-.55-2.14,13.68,13.68,0,0,0,8,2C330.71,326.22,328.51,328.33,324,325.34Z" style="fill:#fff"/><path d="M328.63,329.69a1.67,1.67,0,0,1-.63.12c-1.26-.06-2.63-1.17-3.61-3.4A5.37,5.37,0,0,1,328.63,329.69Z" style="fill:#fd7072"/><path d="M328,330c-1.61-.08-3.83-1.9-4.75-6.77l-.08-.44.36.26a12.62,12.62,0,0,0,6.94,1.95,19.56,19.56,0,0,0,4.08-.32l.1.35A10.76,10.76,0,0,0,332,327.2c-1.42,1.39-2.89,2.82-4,2.8Zm2.46-4.62a13.41,13.41,0,0,1-6.77-1.78c.66,3,2.21,5.93,4.33,6v0c.93,0,2.41-1.42,3.71-2.69a23.56,23.56,0,0,1,1.9-1.75A20.65,20.65,0,0,1,330.45,325.38Z" style="fill:#c48053"/><path d="M325.05,326.54c1.19,2.25,2.38,2.45,3.11,2.28a5.51,5.51,0,0,1,.47.87,1.67,1.67,0,0,1-.63.12c-1.26-.06-2.63-1.17-3.61-3.4A3.36,3.36,0,0,1,325.05,326.54Z" style="fill:#d9494d"/><g style="opacity:0.30000000000000004;mix-blend-mode:multiply"><path d="M304.24,313.33c3.07-1.57,5.1,2.29,5.1,2.29s.59-9.4,1.38-14.53c1.92,3.88,4.31,8.2,4.31,8.2s2-5.25,2-9.24a16.47,16.47,0,0,0,6.06,3.62s-.13-1.22-2-4.11c5.26,3.61,14.53,4.12,14.53,4.12s-1-3.58-3.66-4.75c1.81-.07,6.89,2.9,9.06,6.49,0,0,0,.13,0,.37a24.58,24.58,0,0,0-5.34-4.34s.43.48,0,2.88c-5.71.56-12.35-2.09-12.35-2.09l.21,2.42a6.28,6.28,0,0,1-5.7-1.83c-.45,2.92-3,8.73-3,8.73s-.48.05-1.29-1.71a47.62,47.62,0,0,0,2.31,17.92c1.9,5.22,9.75,6.93,18.65,1.27s7-8.4,6.33-11.47a7.85,7.85,0,0,1-.14-2.14,11.16,11.16,0,0,0,1.1,4.23c.85,2.15.81,6.72-9.09,11.52s-19.42-.19-22.26-2.9a23.55,23.55,0,0,1-2.87-7.15C305.15,321.62,301.15,314.91,304.24,313.33Z" style="fill:#dfa679"/></g><path d="M323.77,339.34a7.31,7.31,0,0,0,1.85.76A67.28,67.28,0,0,0,328,355.63c2.81,9.68,12.85,18.81,21.43,13.25,7.34-4.77-2.62-17.42-5.64-21a117.43,117.43,0,0,1,16.43,19.84l-27,21.26a99,99,0,0,1-14.31-28.13S324.92,347.14,323.77,339.34Z" style="fill:#fa7598"/><path d="M313.51,358.49l-2.4,6.27s7.44,2.62,12,5.89c2.3-3.41,2.73-3.95,6.54-3.92,4.32,0,5.68,0,7.52,2.22s2,3.72.74,4.18c1.38,2.25,1.68,4.54-.63,3.84,1.91,1.82.82,3.14-.86,2.72,1,1.74-.77,2.69-2.78,1.44s-3.06-2-4.86-1.61a5.76,5.76,0,0,1-6.29-2.75c-9.15-4.13-17.17-7.48-17.65-9.45S308,356.06,308,356.06Z" style="fill:#fad8bf"/><path d="M332.6,368.79s.07.14.16.36.22.56.38,1a5.49,5.49,0,0,1,.23.65l.23.72c0,.26.13.53.18.8a3.52,3.52,0,0,1,.16.81c.06.29.09.56.13.83a5.56,5.56,0,0,1,.08.8c0,.27,0,.53.05.77a2.44,2.44,0,0,1,0,.67c0,.85-.05,1.43-.05,1.43s.14-.55.31-1.4a3.13,3.13,0,0,0,.08-.7c0-.24,0-.51,0-.78a6,6,0,0,0,0-.84c0-.28-.09-.57-.12-.86a4.86,4.86,0,0,0-.19-.84c-.08-.28-.16-.54-.24-.81a6.57,6.57,0,0,0-.29-.71,5.5,5.5,0,0,0-.3-.64A7.08,7.08,0,0,0,332.6,368.79Z" style="fill:#c48053"/><path d="M337.87,373.13a3.05,3.05,0,0,0-.48-.6,5.46,5.46,0,0,0-.6-.5,4.78,4.78,0,0,0-.77-.47,5.32,5.32,0,0,0-.82-.35,4.65,4.65,0,0,0-.76-.17,3.8,3.8,0,0,0-.77-.08s.28.14.69.32a3.7,3.7,0,0,1,.69.31,6.78,6.78,0,0,1,.78.36c.26.12.5.29.75.4l.66.38C337.62,373,337.87,373.13,337.87,373.13Z" style="fill:#c48053"/><path d="M336.85,376.54s-.13-.13-.32-.29a4.22,4.22,0,0,0-.8-.44,4.63,4.63,0,0,0-.86-.27,2.58,2.58,0,0,0-.44-.05l.34.29a6.8,6.8,0,0,0,.79.44,4.94,4.94,0,0,0,.86.27C336.67,376.53,336.85,376.54,336.85,376.54Z" style="fill:#c48053"/><path d="M336,379.44a1.92,1.92,0,0,0-.25-.26,2.72,2.72,0,0,0-.61-.43,3.28,3.28,0,0,0-.71-.26,2.23,2.23,0,0,0-.36,0,1.66,1.66,0,0,0,.23.26,2.9,2.9,0,0,0,.63.44,4.14,4.14,0,0,0,.71.26A1.55,1.55,0,0,0,336,379.44Z" style="fill:#c48053"/><g style="opacity:0.30000000000000004;mix-blend-mode:multiply"><path d="M305.11,364.66c.41,1.78,1.72,2.09,3.81,3.3,4.14,2.79,13.36,5.27,14.15,6.71s2.36,2.79,6,3,4.18-.69,3.82-4.59-.91-6.28-3.3-6.37c4.32,0,5.68,0,7.52,2.22s2,3.72.74,4.18c1.38,2.25,1.68,4.54-.63,3.84,1.91,1.82.82,3.14-.86,2.72,1,1.74-.77,2.69-2.78,1.44s-3.06-2-4.86-1.61a5.76,5.76,0,0,1-6.29-2.75c-9.15-4.13-17.17-7.48-17.65-9.45A7.28,7.28,0,0,1,305.11,364.66Z" style="fill:#dfa679"/></g><g style="opacity:0.30000000000000004;mix-blend-mode:multiply"><path d="M311.48,357.6l2,.89-2.28,5.95c-.64-.07-1.34-.16-2.07-.31C309.64,363,310.67,360,311.48,357.6Z" style="fill:#dfa679"/></g></g><g id="girl2"><path d="M517.88,531.86c-1.32-5.63-6.58-8-11.77-8.85a22,22,0,0,0-8.55.3,16.42,16.42,0,0,0-.72-3.41c-1.29-3.9-4.75-6.38-8.42-7.8a18.74,18.74,0,0,0-11.51-.68,14.47,14.47,0,0,0-4.34,2c-.4-3-1.5-5.94-4.12-7.85a12.23,12.23,0,0,0-11-1.8,15.08,15.08,0,0,0-8.7,6.27,20.44,20.44,0,0,0-1.52,2.64,23.52,23.52,0,0,0-5.67-2.11c-4.8-1.2-9.55,0-13.65,2.65a21.08,21.08,0,0,0-8.23,10,10.5,10.5,0,0,0-.48,1.78l-.92-.4a22.65,22.65,0,0,0-9.24-1.86,19.29,19.29,0,0,0-12.2,5.06,19.46,19.46,0,0,0-8.61-1.65A13.42,13.42,0,0,0,374.7,536,10.5,10.5,0,0,0,381,548.7c3.93,1.67,8.39,1.24,12.47.1a.5.5,0,0,1,0,.13,12.9,12.9,0,0,0,4.95,5.51,13.9,13.9,0,0,0-.3,2.23,12.09,12.09,0,0,0,6.57,11.13,27.46,27.46,0,0,0,15.15,2.52,21.31,21.31,0,0,0,11.09-4,20.91,20.91,0,0,0,4.66,4.85c4.71,3.54,11.07,4.3,16.79,3.91a33.57,33.57,0,0,0,17.45-6.5,21.73,21.73,0,0,0,6.76-7.76c.33.16.66.33,1,.46,3.71,1.56,8,1.07,11.76-.19a21.63,21.63,0,0,0,9.67-7.27,19.81,19.81,0,0,0,2.8-4.89,6,6,0,0,0,.37-1.64,17.16,17.16,0,0,0,8.24-2C515.31,542.53,519.26,537.71,517.88,531.86Z" style="fill:#fff"/><path d="M511.77,544.56a14.59,14.59,0,0,1-6.18,1.74c-1.22.14-2.45.21-3.69.25a26.89,26.89,0,0,1-2.85,0,21.66,21.66,0,0,0,3.51.62,6,6,0,0,1-.23.88,15.17,15.17,0,0,1-2.46,4.15,22.16,22.16,0,0,1-8.15,6.33,19.23,19.23,0,0,1-10.2,1.52,11.84,11.84,0,0,1-2.17-.53,12.21,12.21,0,0,0,.8-4.53.28.28,0,0,0,0-.09,11.24,11.24,0,0,1-2,5,17.28,17.28,0,0,1-2.12,2.85,25.41,25.41,0,0,1-5.08,4.46A34.9,34.9,0,0,1,454.76,573a27.19,27.19,0,0,1-14.92-2.53,19.2,19.2,0,0,1-5.49-4.27,10,10,0,0,1-2.07-2.45,16.48,16.48,0,0,1-1.73-6,12.81,12.81,0,0,0,1.78,7.22,27.91,27.91,0,0,1-21.14,2.09c-4-1.24-7.29-3.49-8.82-7.56a10.12,10.12,0,0,1-.62-3.12,6.22,6.22,0,0,1,.45-4.54,8.77,8.77,0,0,1,4.31-3.64c-1.72-.06-3.22,1.35-4.22,2.63a7.29,7.29,0,0,0-.9,1.45,12.49,12.49,0,0,1-2.14-1.78,12.28,12.28,0,0,1-3.64-4.49,21.56,21.56,0,0,1-1.51-3.76c-.11-.36-.21-.73-.29-1.09a20.7,20.7,0,0,0,1.44,6.69,26.37,26.37,0,0,1-9.08,0c-4.65-.89-8.44-4.69-8.22-9.59.27-5.63,5.34-10.21,10.76-10.65a26.67,26.67,0,0,1,8.31.58,9.86,9.86,0,0,1,1.28.38,15.92,15.92,0,0,0-2.11,2.73c-.19.42-.35.83-.51,1.26a13.59,13.59,0,0,1,4.51-4.6,19.55,19.55,0,0,1,12.51-4.62,22.54,22.54,0,0,1,8.68,2,9.58,9.58,0,0,0,.23,3.67,9.69,9.69,0,0,1,1.53-6c.19-.44.41-.87.63-1.27a21.93,21.93,0,0,1,9.37-8.85,17.65,17.65,0,0,1,13.59-.57,25.43,25.43,0,0,1,2.43.94l0,0,.4.16h0l.08,0,.58.26c.79.38,1.62.75,2.39,1.22a10.08,10.08,0,0,0-2.34-1.93l-.37-.23a23.12,23.12,0,0,1,1.31-2.17,13.51,13.51,0,0,1,8.19-5.72,15.55,15.55,0,0,1,5.17-.49,11.15,11.15,0,0,1,4.48,1.72,10.1,10.1,0,0,1,4.59,6.17,6.83,6.83,0,0,1,.37,1,11.39,11.39,0,0,1,.81,2.58.36.36,0,0,0,.18-.3c0-.43,0-.86-.08-1.29a19,19,0,0,1,2.46-1.08,17.91,17.91,0,0,1,11.28,0c3.37,1,6.75,3.07,8.52,6.18a12.25,12.25,0,0,1,1.47,4.17,9.16,9.16,0,0,0-4.81,3,11.58,11.58,0,0,1,8-2.58,23.94,23.94,0,0,1,6,.62c4.6,1,9,3,10.44,7.91C519.74,537.61,515.9,542.19,511.77,544.56Z" style="fill:#fff"/><path d="M488.62,537.66c2.18,3,2.18,7.39,6.54,8.69-2.18,3.48-7.84,4.8-10.89,2.62-2.62-1.64-3.52-4.27-5.1-6.58.2,7-3.26,14.58-9.7,16.59-11.75,4.35-26.55,4.79-36.13-3.48-2-2.06-2.13-5.31-1.56-8.53A14.09,14.09,0,0,0,429,557.68c-3.92.43-7.4,1.3-11.31.86-4.8-.86-11.76-3.48-10.45-9.57a10.5,10.5,0,0,1,4.22-5.35c-4.17.48-8.69,1.47-10.75,4.91a15.75,15.75,0,0,1-6.2-13.85c-2.37,2.62-4,6.28-2.94,9.94-6.19,1.3-12.6-2.26-13.46-7.6a9.12,9.12,0,0,0-.15,1.28c-.22,4.9,3.57,8.7,8.22,9.59a26.37,26.37,0,0,0,9.08,0,20.7,20.7,0,0,1-1.44-6.69c.08.36.18.73.29,1.09a21.56,21.56,0,0,0,1.51,3.76,12.28,12.28,0,0,0,3.64,4.49,12.49,12.49,0,0,0,2.14,1.78,7.29,7.29,0,0,1,.9-1.45c1-1.28,2.5-2.69,4.22-2.63a8.77,8.77,0,0,0-4.31,3.64,6.22,6.22,0,0,0-.45,4.54,10.12,10.12,0,0,0,.62,3.12c1.53,4.07,4.79,6.32,8.82,7.56A27.91,27.91,0,0,0,432.33,565a12.81,12.81,0,0,1-1.78-7.22,16.48,16.48,0,0,0,1.73,6,10,10,0,0,0,2.07,2.45,19.2,19.2,0,0,0,5.49,4.27A27.19,27.19,0,0,0,454.76,573,34.9,34.9,0,0,0,471,567.24a25.41,25.41,0,0,0,5.08-4.46,17.28,17.28,0,0,0,2.12-2.85,11.24,11.24,0,0,0,2-5,.28.28,0,0,1,0,.09,12.21,12.21,0,0,1-.8,4.53,11.84,11.84,0,0,0,2.17.53,19.23,19.23,0,0,0,10.2-1.52,22.16,22.16,0,0,0,8.15-6.33,15.17,15.17,0,0,0,2.46-4.15,6,6,0,0,0,.23-.88,21.66,21.66,0,0,1-3.51-.62,26.89,26.89,0,0,0,2.85,0c1.24,0,2.47-.11,3.69-.25a14.59,14.59,0,0,0,6.18-1.74c3.21-1.84,6.24-5,6.74-8.72C511.68,544.73,496.66,546.53,488.62,537.66Z" style="fill:#fff;opacity:0.4"/><path d="M430.93,537.19c.93,2.12,5.12,1.66,8.11.21,0-.53,0-1.12,0-1.74,0-2.89.15-8.84.4-15.54a39.61,39.61,0,0,0-7.67-.07c-.3,4.58-.5,9-.49,12.55-.9.16-1.85.31-2.84.5A11.44,11.44,0,0,1,430.93,537.19Z" style="fill:#f4cdd4"/><path d="M420.18,539.43c1.87.58,6.82.63,6.41-1.2A15.72,15.72,0,0,0,424.3,534a34.8,34.8,0,0,0-3.55,1.1C419.32,537,418.75,539,420.18,539.43Z" style="fill:#f4cdd4"/><path d="M430.93,537.19a11.44,11.44,0,0,0-2.46-4.09c-1.35.24-2.76.53-4.17.9a15.72,15.72,0,0,1,2.29,4.23c.41,1.83-4.54,1.78-6.41,1.2-1.43-.45-.86-2.41.57-4.33-4.44,1.71-8,4.47-7.87,9.37.25,2.9,13.76,2,21.32.77,3.21-.55,4.65-1.53,4.84-7.84C436.05,538.85,431.86,539.31,430.93,537.19Z" style="fill:#e36386"/><path d="M439.47,520.12c.43-11.67,1.11-25.58,1.64-29.22L434.8,490s-2.05,15.91-3,30A39.61,39.61,0,0,1,439.47,520.12Z" style="fill:#f4cdd4"/><path d="M440.62,496.46c.17-2.53.34-4.49.49-5.56L434.8,490s-.25,2-.64,5.35C436.32,495.68,438.47,496.05,440.62,496.46Z" style="fill:#f4cdd4"/><path d="M413.28,541.65l.09-.29C413.34,541.45,413.31,541.54,413.28,541.65Z" style="fill:#f4cdd4"/><path d="M413.63,540.76c-.09.19-.17.4-.26.6a3,3,0,0,1,.35-.63Z" style="fill:#f4cdd4"/><path d="M413.28,541.65a8.44,8.44,0,0,0-.4,2.82c.25,2.9,13.76,2,21.32.77,2.1-.35,3.42-.91,4.16-3-2.63,1.48-7.86,2.66-16.2,2.88C413.48,545.38,412.91,543,413.28,541.65Z" style="fill:#f4cdd4;mix-blend-mode:multiply"/><path d="M477.77,536.54c-.8,2.17-5,2-8.09.77-.06-.55-.1-1.12-.15-1.75-.17-2.86-.74-8.8-1.45-15.47a39.62,39.62,0,0,1,7.64-.61c.63,4.55,1.12,8.92,1.35,12.51l2.87.29A11.37,11.37,0,0,0,477.77,536.54Z" style="fill:#f4cdd4"/><path d="M488.65,538c-1.84.71-6.77,1.11-6.48-.75a15.37,15.37,0,0,1,2-4.38,34.72,34.72,0,0,1,3.62.85C489.34,535.58,490,537.48,488.65,538Z" style="fill:#f4cdd4"/><path d="M477.77,536.54a11.37,11.37,0,0,1,2.17-4.26c1.36.16,2.8.36,4.21.62a15.37,15.37,0,0,0-2,4.38c-.29,1.86,4.64,1.46,6.48.75,1.39-.55.69-2.45-.88-4.28,4.55,1.4,8.27,3.91,8.5,8.82-.06,2.9-13.6,2.9-21.23,2.22-3.23-.33-4.74-1.21-5.36-7.48C472.76,538.54,477,538.71,477.77,536.54Z" style="fill:#e36386"/><path d="M468.08,520.09c-1.22-11.61-2.86-25.44-3.64-29l6.23-1.29s3.13,15.73,5.05,29.72A39.62,39.62,0,0,0,468.08,520.09Z" style="fill:#f4cdd4"/><path d="M465.32,496.55c-.35-2.5-.65-4.44-.88-5.5l6.23-1.29s.42,2,1,5.29C469.55,495.5,467.42,496,465.32,496.55Z" style="fill:#f4cdd4"/><path d="M495.68,539.78c0-.09-.08-.18-.13-.29A1.75,1.75,0,0,1,495.68,539.78Z" style="fill:#f4cdd4"/><path d="M495.27,538.92a4.3,4.3,0,0,1,.28.57,3.54,3.54,0,0,0-.37-.6Z" style="fill:#f4cdd4"/><path d="M495.68,539.78a8.64,8.64,0,0,1,.59,2.79c-.06,2.9-13.6,2.9-21.23,2.22-2.1-.21-3.48-.69-4.34-2.69,2.72,1.31,8,2.14,16.37,1.79C495.73,543.51,496.14,541.11,495.68,539.78Z" style="fill:#f4cdd4;mix-blend-mode:multiply"/><path d="M453.88,433.49c7.48,1.21,9.73-6.11,8.67-14.17a51.22,51.22,0,0,1-14.71,0C447.4,423.44,447.2,432.41,453.88,433.49Z" style="fill:#f4d9bf"/><path d="M462.78,423.76a28.13,28.13,0,0,0-.23-4.44,51.22,51.22,0,0,1-14.71,0,30.43,30.43,0,0,0-.14,4.84A29.5,29.5,0,0,0,462.78,423.76Z" style="fill:#efcaa6"/><path d="M467.12,421s28.23,2.59,43.37,5.15c2.46-3.34,4.35-7.15,5.93-6.93s-.87,3.28-.95,5.14c7.2-3.41,9.52-3.73,9.76-2.86s-6.65,4-6.65,4,9.36-.15,9.86,1.73-9,1.32-9,1.32,7.85,1.8,7.91,3.53-8.62-.54-8.62-.54,5.87,4,5.09,5.28-7.34-3.08-7.34-3.08-4.37,1.1-6.09-2.29c-14.62-1.24-41.51-1.75-41.51-1.75Z" style="fill:#f4d9bf"/><path d="M515.49,423.78a3,3,0,0,1,.34.87,4.69,4.69,0,0,1,0,2.06,3.67,3.67,0,0,1-.47,1,2.63,2.63,0,0,1-.66.73,1.77,1.77,0,0,1-.61.33l-.25.09.14-.21a2.92,2.92,0,0,0,.35-.54c.06-.1.11-.23.18-.35s.13-.28.19-.4.09-.3.15-.44a3.5,3.5,0,0,0,.14-.46,15,15,0,0,0,.37-1.81C515.42,424.15,515.49,423.78,515.49,423.78Z" style="fill:#c39368"/><path d="M444.85,420s-28.35,0-43.65,1.16c-2.15-3.54-3.7-7.51-5.29-7.44s.57,3.35.49,5.22c-6.87-4.07-9.14-4.6-9.47-3.76s6.26,4.62,6.26,4.62-9.31-1-10,.82,8.83,2.14,8.83,2.14-8,1.07-8.18,2.79,8.62.26,8.62.26-6.21,3.45-5.55,4.78,7.6-2.39,7.6-2.39,4.25,1.49,6.26-1.73c14.67.1,41.51,2.05,41.51,2.05Z" style="fill:#f4d9bf"/><path d="M396.43,418.33a2.8,2.8,0,0,0-.42.85,3.78,3.78,0,0,0-.2.93,4.23,4.23,0,0,0,.05,1.11,3.65,3.65,0,0,0,.36,1.07,2.47,2.47,0,0,0,.61.78,1.73,1.73,0,0,0,.56.4l.23.09-.11-.21c0-.08-.09-.15-.15-.25l-.14-.32a3.17,3.17,0,0,1-.16-.37c-.05-.13-.09-.27-.14-.41s-.07-.31-.13-.46-.06-.32-.09-.48a14.21,14.21,0,0,1-.2-1.82Z" style="fill:#c39368"/><path d="M467.23,418.4a41.87,41.87,0,0,1-4.68.92c1.06,8.06-1.19,15.38-8.67,14.17-6.68-1.08-6.48-10.05-6-14.17a35.08,35.08,0,0,1-3.92-.82s-16.23,52.78-17.32,70.29c0,0,26.7,7.84,51.71,2.08C478.31,490.87,472.69,431.32,467.23,418.4Z" style="fill:#fa7598"/><path d="M437.31,398.75s-4.27-.05-3.75,5.1a4.11,4.11,0,0,0,5.11,3.55C438,405.14,437.94,400.55,437.31,398.75Z" style="fill:#f4d9bf"/><path d="M473.64,400a28.29,28.29,0,0,1-1.12,7.33c2.79.26,6.6-1.59,6.32-5.4S475.3,398,473.64,400Z" style="fill:#f4d9bf"/><ellipse cx="456.15" cy="400.16" rx="18.92" ry="23.33" style="fill:#f4d9bf"/><path d="M462.66,401.82c-.05,1.26.48,2.29,1.2,2.3s1.35-1,1.4-2.24-.48-2.28-1.2-2.3S462.71,400.57,462.66,401.82Z" style="fill:#673121"/><path d="M464.19,400.9c0,.39.22.69.44.67s.37-.32.36-.7-.24-.68-.45-.68S464.16,400.53,464.19,400.9Z" style="fill:#fff"/><path d="M450.7,401.82c.05,1.26-.49,2.29-1.21,2.3s-1.34-1-1.4-2.24.49-2.28,1.21-2.3S450.65,400.57,450.7,401.82Z" style="fill:#673121"/><path d="M449.17,400.9c0,.39-.22.69-.45.67s-.36-.32-.35-.7.24-.68.45-.68S449.19,400.53,449.17,400.9Z" style="fill:#fff"/><path d="M451.31,412a70.57,70.57,0,0,0,10.35.13,5.14,5.14,0,0,1-5.69,5.47C452.54,417.45,451.17,414.08,451.31,412Z" style="fill:#96172d"/><path d="M455.05,417.5a4.43,4.43,0,0,0,.92.14,5.57,5.57,0,0,0,3.14-.68C457.59,415.79,455.87,416.84,455.05,417.5Z" style="fill:#ed776f"/><path d="M455.62,414.81a8.8,8.8,0,0,0,6-1.73,5.49,5.49,0,0,0,.05-.91,69.36,69.36,0,0,1-9.33-.05A3.11,3.11,0,0,0,455.62,414.81Z" style="fill:#fff"/><path d="M450,411.67s.2,0,.56.08c.18,0,.4.06.65.08l.85.09,1,.08c.35,0,.73.05,1.12.07l1.19.05,1.24,0c.41,0,.83,0,1.24,0l1.2,0h1.11l1,0c.62,0,1.14,0,1.51-.06h.57l-.56.08c-.37,0-.89.12-1.51.18l-1,.11-1.13.05-1.2.06c-.41,0-.83,0-1.25,0l-1.24,0-1.2-.09a10,10,0,0,1-1.13-.12l-1-.13-.84-.16-.64-.14A4.73,4.73,0,0,1,450,411.67Z" style="fill:#c39368"/><path d="M446.46,398.45c.32-.79,1.81-1.07,2.89-.86a5,5,0,0,1,3,1.89c.06.09,0,.16-.14.18a.14.14,0,0,1-.17.06,12.55,12.55,0,0,0-3-.82,2.82,2.82,0,0,0-1.73.49,1,1,0,0,1-.91.22.44.44,0,0,1-.37-.44A1.09,1.09,0,0,1,446.46,398.45Z" style="fill:#873300"/><path d="M467.06,398.45c-.32-.79-1.81-1.07-2.89-.86a5.09,5.09,0,0,0-3,1.89c-.06.09,0,.16.14.18a.14.14,0,0,0,.17.06,12.55,12.55,0,0,1,3-.82,2.82,2.82,0,0,1,1.73.49,1,1,0,0,0,.91.22.44.44,0,0,0,.37-.44A1.09,1.09,0,0,0,467.06,398.45Z" style="fill:#873300"/><circle cx="442.9" cy="405.2" r="1.89" style="fill:#f9cbc0"/><circle cx="469.39" cy="405.2" r="1.89" style="fill:#f9cbc0"/><path d="M443.53,386.91c-1.93,3.67-1.87,8.88-1.87,8.88l7.6.55s.67-5.95,3.1-8.16c-2.23,5-1.48,8-1.48,8l11.2.82a19.65,19.65,0,0,0,1.63-7.59c1.52,3.83-.14,8.17-.14,8.17l8.3-.64a18.26,18.26,0,0,0,.67-7.53c1.29,5.23.56,6.87.56,6.87l1-.25s-.22,15.71-6.58,24.91c3.85,1.13,15.4-10.4,16.35-25.65s-8.56-30.49-20.23-25.92c-4-6.08-16.5-5.69-24.75,4,0,0-12.67,12.48-9.25,34.14,2.95,12.72,10.44,14.17,14.26,13.23,0,0-6.46-3.09-5.39-12.37s1.26-12.62,1.26-12.62A84.49,84.49,0,0,1,443.53,386.91Z" style="fill:#9b552b"/></g><g id="girl"><path d="M363.91,219.83c-3.1-13.19-15.4-18.61-27.55-20.73a51.54,51.54,0,0,0-20,.72,37.59,37.59,0,0,0-1.68-8c-3-9.11-11.1-14.92-19.71-18.24A43.66,43.66,0,0,0,268,172a34.23,34.23,0,0,0-10.14,4.64c-.94-7.12-3.52-13.89-9.65-18.35-7.86-5.73-16.43-6.75-25.71-4.24a35.24,35.24,0,0,0-20.35,14.71,49.26,49.26,0,0,0-3.56,6.15A55.42,55.42,0,0,0,185.34,170c-11.25-2.79-22.35.1-32,6.22a49.23,49.23,0,0,0-19.26,23.51,23.55,23.55,0,0,0-1.13,4.15c-.72-.33-1.44-.65-2.16-.94-6.93-2.82-14.1-4.6-21.61-4.35a45.22,45.22,0,0,0-28.57,11.83c-6.15-3-13.4-3.86-20.15-3.86-7.86,0-14.62,1.86-20.85,6.73a32.2,32.2,0,0,0-10.85,16.34c-3.67,12.43,3,24.67,14.67,29.64,9.19,3.92,19.64,2.92,29.18.25l.12.29a30.26,30.26,0,0,0,11.56,12.9,31.53,31.53,0,0,0-.69,5.2C83.06,288.74,89.54,299,99,303.94c10.89,5.66,23.4,7,35.46,5.9,9.2-.8,18.59-3.78,25.94-9.46a49,49,0,0,0,10.9,11.36c11.05,8.28,25.93,10.08,39.32,9.14a78.59,78.59,0,0,0,40.83-15.17c6.42-4.81,12.38-11,15.83-18.19.77.39,1.55.76,2.36,1.11,8.68,3.63,18.82,2.47,27.53-.46,8.87-3,16.95-9.69,22.62-17a45.8,45.8,0,0,0,6.55-11.44,13.87,13.87,0,0,0,.88-3.84,40.37,40.37,0,0,0,19.28-4.74C357.9,244.79,367.13,233.51,363.91,219.83Z" style="fill:#fff"/><path d="M349.61,249.52a33.38,33.38,0,0,1-14.46,4.07c-2.85.36-5.75.52-8.65.62-2,.06-4.38.2-6.67,0a48.89,48.89,0,0,0,8.22,1.43,12.28,12.28,0,0,1-.54,2,34.45,34.45,0,0,1-5.76,9.71,51.63,51.63,0,0,1-19.07,14.86,44.84,44.84,0,0,1-23.88,3.53,28.21,28.21,0,0,1-5.06-1.21A29.3,29.3,0,0,0,275.61,274a.78.78,0,0,0,0-.22c-.15,4.15-2.59,8.34-4.66,11.73a41.68,41.68,0,0,1-5,6.66,60.64,60.64,0,0,1-11.9,10.46,82.17,82.17,0,0,1-37.87,13.5c-11.87,1.17-24.24-.52-34.91-5.94a45.35,45.35,0,0,1-12.88-10,23.35,23.35,0,0,1-4.83-5.73c-2.6-4.4-3.27-9.23-4-14.12a29.86,29.86,0,0,0,4.17,16.9,65.13,65.13,0,0,1-49.49,4.89c-9.43-2.88-17.07-8.16-20.64-17.67a23.47,23.47,0,0,1-1.46-7.32,14.54,14.54,0,0,1,1.06-10.61c2.34-4.36,6-6.54,10.1-8.51-4-.15-7.55,3.15-9.89,6.13a17.85,17.85,0,0,0-2.12,3.42,31.21,31.21,0,0,1-5-4.19c-3.71-2.61-6.4-6.47-8.51-10.5a51,51,0,0,1-3.54-8.78c-.25-.86-.48-1.7-.69-2.57a49,49,0,0,0,3.38,15.66,61.41,61.41,0,0,1-21.25.11c-10.88-2.08-19.76-11-19.23-22.44C37,221.73,48.91,211,61.59,210a62.68,62.68,0,0,1,19.46,1.36,26.06,26.06,0,0,1,3,.88,37.63,37.63,0,0,0-4.93,6.4c-.44,1-.83,2-1.19,3a31.81,31.81,0,0,1,10.56-10.8c7.91-7,19.07-10.73,29.28-10.81,6.87,0,14,2.08,20.32,4.73a22.4,22.4,0,0,0,.51,8.62,22.76,22.76,0,0,1,3.59-14c.46-1,1-2,1.48-3a51.23,51.23,0,0,1,21.94-20.73c10-4.91,21.33-4.91,31.79-1.35,2,.67,3.85,1.37,5.68,2.2a.3.3,0,0,0,0,.08l1,.37h0l.17.08c.44.19.9.4,1.36.62a61.37,61.37,0,0,1,5.59,2.86,22.91,22.91,0,0,0-5.48-4.52c-.28-.19-.58-.35-.87-.54,1-1.77,2-3.48,3.06-5.08A31.71,31.71,0,0,1,227,157a36.46,36.46,0,0,1,12.08-1.14c4,.35,7.13,2.15,10.51,4,5.64,3.14,8.92,8.52,10.72,14.44a14,14,0,0,1,.88,2.25,28.56,28.56,0,0,1,1.9,6,.9.9,0,0,0,.41-.71c0-1-.1-2-.19-3a49.09,49.09,0,0,1,5.75-2.53c8.48-3.15,17.86-2.56,26.41,0,7.89,2.34,15.79,7.18,19.94,14.48a28.75,28.75,0,0,1,3.43,9.74c-4.14,1.25-8.87,3.52-11.22,7a27,27,0,0,1,18.72-6,57.16,57.16,0,0,1,14.06,1.47c10.74,2.44,21.07,7.06,24.41,18.5C368.26,233.27,359.26,244,349.61,249.52Z" style="fill:#fff"/><path d="M295.45,233.37c5.08,7.13,5.08,17.32,15.28,20.38-5.1,8.14-18.34,11.2-25.48,6.11-6.14-3.84-8.23-10-11.94-15.4.47,16.35-7.62,34.12-22.7,38.84-27.5,10.18-62.14,11.2-84.55-8.16-4.81-4.81-5-12.41-3.66-20-5.28,7.35-8.14,16.2-6.53,25.06-9.17,1-17.32,3.07-26.48,2-11.21-2-27.52-8.15-24.46-22.42a24.5,24.5,0,0,1,9.88-12.51c-9.76,1.11-20.33,3.44-25.16,11.49C80,251.12,74,239.73,75.14,226.42c-5.53,6.13-9.45,14.69-6.89,23.26-14.46,3-29.47-5.29-31.49-17.77a24.48,24.48,0,0,0-.34,3c-.53,11.46,8.35,20.36,19.23,22.44a61.41,61.41,0,0,0,21.25-.11,49,49,0,0,1-3.38-15.66c.21.87.44,1.71.69,2.57a51,51,0,0,0,3.54,8.78c2.11,4,4.8,7.89,8.51,10.5a31.21,31.21,0,0,0,5,4.19,17.85,17.85,0,0,1,2.12-3.42c2.34-3,5.84-6.28,9.89-6.13-4.08,2-7.76,4.15-10.1,8.51a14.54,14.54,0,0,0-1.06,10.61,23.47,23.47,0,0,0,1.46,7.32c3.57,9.51,11.21,14.79,20.64,17.67a65.13,65.13,0,0,0,49.49-4.89,29.86,29.86,0,0,1-4.17-16.9c.77,4.89,1.44,9.72,4,14.12a23.35,23.35,0,0,0,4.83,5.73,45.35,45.35,0,0,0,12.88,10c10.67,5.42,23,7.11,34.91,5.94a82.17,82.17,0,0,0,37.87-13.5A60.64,60.64,0,0,0,266,292.18a41.68,41.68,0,0,0,5-6.66c2.07-3.39,4.51-7.58,4.66-11.73a.78.78,0,0,1,0,.22,29.3,29.3,0,0,1-1.87,10.61,28.21,28.21,0,0,0,5.06,1.21,44.84,44.84,0,0,0,23.88-3.53,51.63,51.63,0,0,0,19.07-14.86,34.45,34.45,0,0,0,5.76-9.71,12.28,12.28,0,0,0,.54-2,48.89,48.89,0,0,1-8.22-1.43c2.29.15,4.63,0,6.67,0,2.9-.1,5.8-.26,8.65-.62a33.38,33.38,0,0,0,14.46-4.07c7.5-4.27,14.59-11.72,15.77-20.39C349.38,249.94,314.24,254.16,295.45,233.37Z" style="fill:#fff"/><path d="M249.57,153.84h-.21c-3.15-.38-29.6-2.26-31.05-2.27,0,0-2.8-.08-6.8.22,2.45,8.38-3.3,10.34-6,10.78l-.32,4.37L255,170.56l-.66-5.45C249.86,163,249.27,157.79,249.57,153.84Z" style="fill:#fa7598"/><path d="M249.53,155c0-.38,0-.75,0-1.11h-.21c-3.15-.38-29.6-2.26-31.05-2.27,0,0-2.8-.08-6.8.22a2.44,2.44,0,0,0,.06.26C224.22,153,236.87,154,249.53,155Z" style="fill:#fa7598"/><path d="M212.07,156.11a6.87,6.87,0,0,1-.13,1c12.72,1,25.45,2,38.19,2.88a11.75,11.75,0,0,1-.34-1.36C237.22,157.77,224.64,157,212.07,156.11Z" style="fill:#fa7598"/><path d="M252.94,164.25q-21.87-1.63-43.75-3.06a8.37,8.37,0,0,1-1.74.88q23.48,1.76,47,3.46l0-.42A6.7,6.7,0,0,1,252.94,164.25Z" style="fill:#fa7598"/><g style="mix-blend-mode:multiply"><path d="M221.51,176.93c3.48-.54,6.05-3.14,2.09-3.28s-6.11,2.32-6.63,2.16c-.32-.11-7.13-5-12.67-8.93L194,166.17c6.77,4.93,19.09,13.47,19.09,13.47a4.13,4.13,0,0,0,.27,3.57s-.94,9.33.8,9.06,1.2-9.17,1.87-7.54,3.47,8.59,4.66,7-3.63-10.19-1.27-8,6,6.27,6.95,4.48S219,181,222.6,181.91s9.13,1.85,6.81-.83S218,177.48,221.51,176.93Z" style="fill:#c6c6c6"/></g><path d="M226,149.89s-3.22,11.79,2.64,13,8.86-9.14,8.81-12.18Z" style="fill:#efcaa6"/><path d="M211.51,151.79a61.63,61.63,0,0,0-15.83,3c-10.14,3.62-9.12,6.08-7,8.08s23.26,16.64,23.26,16.64a4.11,4.11,0,0,0,.27,3.58s-.94,9.32.79,9.05,1.2-9.17,1.87-7.53,3.47,8.58,4.65,6.95-3.63-10.19-1.26-8,6,6.26,6.94,4.47-7.41-7.15-3.78-6.22,9.13,1.85,6.81-.83-11.38-3.59-7.9-4.14,6.05-3.14,2.08-3.29-6.11,2.33-6.63,2.16-19.75-14-19.75-14a80.35,80.35,0,0,1,9.74-3l-.27,3.84C208.21,162.13,214,160.17,211.51,151.79Z" style="fill:#efcaa6"/><path d="M210.46,157.48a5.28,5.28,0,0,1-.69.36,8.78,8.78,0,0,1-1.58.54,11.39,11.39,0,0,1-1.66.32,7.33,7.33,0,0,1-.78,0,7.22,7.22,0,0,1,.7-.36,11.5,11.5,0,0,1,1.58-.55,9.18,9.18,0,0,1,1.66-.3C210.16,157.48,210.46,157.48,210.46,157.48Z" style="fill:#c39368"/><path d="M312.93,116.14c.48-1.16,6.09-7.49,4.86-8.65s-5.35,6.22-6.35,5.5,2-11.36-.72-10.11-2,10.24-3.18,9.25-1.42-11.57-3.52-9.88,2.07,11.4.13,10.87-4.59-2-6.68-.88,5.13,2.22,5.65,4.11a6,6,0,0,1,.34,2.67S294.2,133.68,281,142c-13,8.14-27.86,12.06-31.4,11.87-.3,3.95.29,9.18,4.8,11.27l-.68-5.53s29.89,0,55.84-40.52a2.17,2.17,0,0,0,2.3-.61s7.95-.22,8.07-1.81S312.44,117.29,312.93,116.14Z" style="fill:#efcaa6"/><path d="M252.94,155.42s.14.3.31.79a13.27,13.27,0,0,1,.42,1.77,11.74,11.74,0,0,1,.18,1.81,6,6,0,0,1,0,.85,7,7,0,0,1-.31-.8,14.73,14.73,0,0,1-.44-1.77,16.87,16.87,0,0,1-.16-1.82C252.91,155.75,252.94,155.42,252.94,155.42Z" style="fill:#c39368"/><path d="M206.35,119.93s-5.68-.08-5,6.77c.63,4.3,4.34,5.21,6.79,4.71C207.27,128.4,207.18,122.32,206.35,119.93Z" style="fill:#f4d9bf"/><ellipse cx="231.36" cy="121.8" rx="25.12" ry="30.99" style="fill:#f4d9bf"/><path d="M240,124c-.06,1.67.65,3,1.6,3.06s1.79-1.3,1.86-3-.64-3-1.6-3S240.07,122.34,240,124Z" style="fill:#673121"/><path d="M242,122.78c0,.51.29.92.59.89s.48-.43.47-.93-.32-.9-.6-.9S242,122.28,242,122.78Z" style="fill:#fff"/><path d="M224.12,124c.07,1.67-.64,3-1.6,3.06s-1.79-1.3-1.86-3,.65-3,1.6-3S224.05,122.34,224.12,124Z" style="fill:#673121"/><path d="M222.09,122.78c0,.51-.3.92-.59.89s-.49-.43-.47-.93.31-.9.6-.9S222.12,122.28,222.09,122.78Z" style="fill:#fff"/><path d="M223.64,140.15a93.16,93.16,0,0,0,13.75.17,6.84,6.84,0,0,1-7.56,7.27C225.28,147.33,223.46,142.85,223.64,140.15Z" style="fill:#96172d"/><path d="M228.61,147.4a5.87,5.87,0,0,0,1.22.19,7.52,7.52,0,0,0,4.17-.9C232,145.14,229.69,146.53,228.61,147.4Z" style="fill:#ed776f"/><path d="M229.37,143.82a11.61,11.61,0,0,0,7.95-2.29,8,8,0,0,0,.07-1.21,90.53,90.53,0,0,1-12.39-.07C225.21,141.54,226,143.67,229.37,143.82Z" style="fill:#fff"/><path d="M221.87,139.66s.27.05.75.11a8.44,8.44,0,0,0,.87.1c.34,0,.71.08,1.12.13l1.33.1c.47.05,1,.06,1.49.09l1.58.07,1.65,0c.55,0,1.1.05,1.64,0l1.59,0h1.48c.48,0,.92,0,1.34-.06.82-.05,1.52-.06,2-.07l.76,0-.75.11-2,.24-1.33.14-1.5.08-1.6.07c-.54,0-1.09,0-1.65,0l-1.66,0-1.59-.12a14.06,14.06,0,0,1-1.5-.16l-1.33-.18c-.41-.06-.78-.14-1.11-.2l-.86-.19C222.14,139.75,221.87,139.66,221.87,139.66Z" style="fill:#c39368"/><path d="M218.5,119.53c.42-1,2.4-1.43,3.83-1.15a6.75,6.75,0,0,1,4,2.51c.07.13,0,.22-.19.25a.19.19,0,0,1-.23.08,16.5,16.5,0,0,0-4-1.1,3.72,3.72,0,0,0-2.3.66,1.31,1.31,0,0,1-1.21.28.56.56,0,0,1-.48-.57A1.35,1.35,0,0,1,218.5,119.53Z" style="fill:#873300"/><path d="M245.84,119.53c-.42-1-2.39-1.43-3.83-1.15a6.69,6.69,0,0,0-4,2.51c-.08.13,0,.22.19.25a.18.18,0,0,0,.23.08,16.38,16.38,0,0,1,4-1.1,3.71,3.71,0,0,1,2.29.66,1.32,1.32,0,0,0,1.22.28.58.58,0,0,0,.48-.57A1.4,1.4,0,0,0,245.84,119.53Z" style="fill:#873300"/><circle cx="213.77" cy="128.5" r="2.51" style="fill:#f9cbc0"/><circle cx="248.94" cy="128.5" r="2.51" style="fill:#f9cbc0"/><path d="M214.61,104.21C212,109.08,212.12,116,212.12,116l10.09.74s.9-7.9,4.12-10.85c-3,6.6-2,10.67-2,10.67l14.87,1.09a26.13,26.13,0,0,0,2.18-10.08c2,5.08-.19,10.85-.19,10.85l11-.86a24.33,24.33,0,0,0,.9-10c1.71,7,.74,9.13.74,9.13l1.3-.34s-.3,20.87-8.74,33.08c5.12,1.51,20.46-13.82,21.72-34.06S256.78,74.89,241.28,81c-5.32-8.07-21.91-7.56-32.87,5.26,0,0-16.82,16.58-12.28,45.33,3.92,16.89,13.86,18.82,18.94,17.57,0,0-8.58-4.1-7.16-16.43s1.67-16.75,1.67-16.75A112.48,112.48,0,0,1,214.61,104.21Z" style="fill:#ca8342"/></g><g id="boy"><path d="M533.5,247.33a21.31,21.31,0,0,0-5.69-.54l.18-.49a16.2,16.2,0,0,0,.38-9.76,26.07,26.07,0,0,0-4.69-8.55c-4-4.64-10-7.21-15.92-8a30.62,30.62,0,0,0-9.36.32,30.83,30.83,0,0,0-.92-7.09c-1.55-6.12-6.4-11.46-11.45-15-5.35-3.76-11.92-4.32-18.15-3-.65.15-1.3.34-1.94.54-2.25-5.07-8-8-13.26-9.12a22.31,22.31,0,0,0-19.42,5.42,25.78,25.78,0,0,0-6,8.06c-1.64,3.23-1.92,7-1.8,10.58a15.59,15.59,0,0,0,2.58,7.92A10,10,0,0,0,426,220a14.15,14.15,0,0,0-4.36,6.73,20.78,20.78,0,0,0-2.51-.91,28.77,28.77,0,0,0-9.91-1,24.29,24.29,0,0,0-9.31,2.88c-5.86,3-11.47,6.4-14.5,12.51a18.47,18.47,0,0,0-1.62,5.2c-.55-.15-1.1-.29-1.65-.4a21.9,21.9,0,0,0-12.53,1.1c-7.19,2.87-11.88,10.93-12.29,18.46-.46,8.72,5.86,16.38,14.05,18.52a22.65,22.65,0,0,0,12.88-.82,33.48,33.48,0,0,0,7.41-3.5,23.36,23.36,0,0,0,4.26,4.42c5.16,4.13,11.81,6,18.3,6.52a25.12,25.12,0,0,0,9.05-.89c1.51-.41,3-.62,4.5-1.13a38.05,38.05,0,0,0,4.56-1.94,28.75,28.75,0,0,0,7-4.5,26.56,26.56,0,0,0,2.44,2.08,27.62,27.62,0,0,0,16.15,5.6,41.42,41.42,0,0,0,17.55-3.8,33,33,0,0,0,10.4-7.71,41,41,0,0,0,16.86,7.15,51.38,51.38,0,0,0,14,.94,38.72,38.72,0,0,0,13.24-3.38c7.06-3.23,14.75-9.41,15.87-17.54S541.35,249.22,533.5,247.33Z" style="fill:#fff"/><path d="M542,268.64c-1.81,3.75-5.64,6.63-9,8.9-7.85,5.22-17.72,6.26-26.87,5a49,49,0,0,1-14.36-4.13,32.17,32.17,0,0,1-4.54-2.6c.39-.45.77-.93,1.15-1.39-.5.41-1,.8-1.51,1.15-1.91,1.38-3.87,2.75-5.86,4l-.71.44a34.35,34.35,0,0,1-4.57,2.71,39,39,0,0,1-7.75,2.66,43.47,43.47,0,0,1-8.55,1.4,28.46,28.46,0,0,1-7.21-.68,25.93,25.93,0,0,1-9.6-3.23,17.79,17.79,0,0,1-4.8-4c-.87-1.09-1.54-2.57-2.66-3.46a19.5,19.5,0,0,0,.95,1.88,17,17,0,0,0,2.2,3,43.23,43.23,0,0,1-24.2,7.16A39.5,39.5,0,0,1,396.89,282a20.34,20.34,0,0,1-4.53-3.7v0a22.15,22.15,0,0,1-3.87-5.1,24.76,24.76,0,0,0,2.42,4.69,46.26,46.26,0,0,1-6.46,2.48,23.32,23.32,0,0,1-12.09.66c-7.65-1.76-12.75-8.52-13.21-16.24a19.23,19.23,0,0,1,10.6-17.9A20.8,20.8,0,0,1,382,245.51a14.88,14.88,0,0,1,1.69.39,19.72,19.72,0,0,0-.18,2.43,14,14,0,0,0,.32,2.57,23.11,23.11,0,0,0,1.18,3.33,20.7,20.7,0,0,1,.85-9.39,11.13,11.13,0,0,1,.62-1.55,21.4,21.4,0,0,1,1-2.29c2.7-5.48,7.93-8.41,13-11.26a26.11,26.11,0,0,1,17.74-2.88,22,22,0,0,1,3.19.88,10.12,10.12,0,0,0,1.49,7.59,12.57,12.57,0,0,1,.87-9.88,17.21,17.21,0,0,1,3.73-4.95,7.53,7.53,0,0,1,1.23-.91.47.47,0,0,0,.06.09s0,0,.05,0c.31-.18.61-.34.92-.5a.56.56,0,0,0,0-.08,24.31,24.31,0,0,1,5.63-1.66,14.78,14.78,0,0,1,4.14-.35,7.06,7.06,0,0,1,.92.15h.27a9.56,9.56,0,0,0-3.07-.52A33.11,33.11,0,0,0,433,217a20.15,20.15,0,0,0-3.87,1.08,17.77,17.77,0,0,1-2.07-7.72,20.32,20.32,0,0,1,1.56-9.76,24.83,24.83,0,0,1,5.76-7.75A22.21,22.21,0,0,1,452,187.14c5.34.6,11.38,3.65,13.8,8.65a25.77,25.77,0,0,0-4.83,2.15,14.22,14.22,0,0,0-2.74,2.4,19.46,19.46,0,0,1,13.43-4.23,22.19,22.19,0,0,1,14.07,4.17c4.6,3.35,9,7.89,10.88,13.32a21.52,21.52,0,0,1,1.09,5,23.73,23.73,0,0,1,.37,5.37c0,.45,0,.91-.05,1.36a28.81,28.81,0,0,0,.38-4.35l.39-.05a29.5,29.5,0,0,1,8.7.25,25.65,25.65,0,0,1,14.78,8,25,25,0,0,1,4,7.14,14.92,14.92,0,0,1,.27,9.5c-.11.39-.23.77-.36,1.15h-.08a25.42,25.42,0,0,0-4.32.95,2.5,2.5,0,0,0-1.47.84l.11,0a.53.53,0,0,1,.15,0c1.1-.82,2.85-.85,4.11-.91a25.2,25.2,0,0,1,2.75,0h0a20,20,0,0,1,5.38,1,15.35,15.35,0,0,1,9.44,8.41A13.92,13.92,0,0,1,542,268.64Z" style="fill:#fff"/><path d="M451.7,208.63a6.29,6.29,0,0,0,.41,2.65c-.08-3.26,1.94-7.07,4-9.29A18.14,18.14,0,0,1,459,199.5a15.31,15.31,0,0,1,1.93-1.56,25.77,25.77,0,0,1,4.83-2.15,12.46,12.46,0,0,0-2.16-3.09C458.12,193.6,452.15,200.66,451.7,208.63Z" style="fill:#fff;opacity:0.30000000000000004"/><path d="M429.11,218.1A20.15,20.15,0,0,1,433,217a33.11,33.11,0,0,1,4.57-.34,9.5,9.5,0,0,1,2.51.34,29.54,29.54,0,0,1,8.11,2,31.25,31.25,0,0,1,8.16,4.55c-5.27-8-16.51-12.65-25.38-8.8a.59.59,0,0,1-.8-.21,25.54,25.54,0,0,1-1.75-13.51,21.12,21.12,0,0,0-1.36,9.29A17.77,17.77,0,0,0,429.11,218.1Z" style="fill:#fff;opacity:0.30000000000000004"/><path d="M542.3,257.05a15.35,15.35,0,0,0-9.44-8.41,20,20,0,0,0-5.38-1h0a25.2,25.2,0,0,0-2.75,0c-1.26.06-3,.09-4.11.91a.53.53,0,0,0-.15,0l-.11,0a2.5,2.5,0,0,1,1.47-.84,25.42,25.42,0,0,1,4.32-.95h.08c.13-.38.25-.76.36-1.15a14.92,14.92,0,0,0-.27-9.5,22.27,22.27,0,0,0-16.2-14.52c5.08,3.24,9.23,7.53,9.41,14.17a29.56,29.56,0,0,1-3.42,14.83c.93-.16,1.87-.29,2.81-.4,4-.46,8.23-1.11,12.09.34,3.07,1.16,4.25,4.12,3.32,7.19a16.53,16.53,0,0,1-9.11,10.07c-8.51,4-18.6,3.5-27.39.64-5.93-1.93-11.81-5.1-15.73-9.9-4.21,8.74-12.28,15-22.83,15.27-12,.25-25.58-7.26-29.49-19a26,26,0,0,0,2.8,10.86.61.61,0,0,1-.21.8c-8.6,5.47-26.31,11.26-36.62,7-5.63-2.35-8.26-7.33-10.59-13.41-.47,4.24.51,8.89,2.12,13.41.13.39-1.31.62-1.65.66-7.24.87-16,.09-21.34-5.52A15.83,15.83,0,0,1,360,258.4a17.59,17.59,0,0,0-.82,6.33c.46,7.72,5.56,14.48,13.21,16.24a23.32,23.32,0,0,0,12.09-.66,46.26,46.26,0,0,0,6.46-2.48,24.76,24.76,0,0,1-2.42-4.69,22.15,22.15,0,0,0,3.87,5.1v0a20.34,20.34,0,0,0,4.53,3.7,39.5,39.5,0,0,0,17.22,5.51,43.23,43.23,0,0,0,24.2-7.16,17,17,0,0,1-2.2-3,19.5,19.5,0,0,1-.95-1.88c1.12.89,1.79,2.37,2.66,3.46a17.79,17.79,0,0,0,4.8,4,25.93,25.93,0,0,0,9.6,3.23,28.46,28.46,0,0,0,7.21.68,43.47,43.47,0,0,0,8.55-1.4,39,39,0,0,0,7.75-2.66A34.35,34.35,0,0,0,480.3,280l.71-.44c2-1.25,3.95-2.62,5.86-4,.48-.35,1-.74,1.51-1.15-.38.46-.76.94-1.15,1.39a32.17,32.17,0,0,0,4.54,2.6,49,49,0,0,0,14.36,4.13c9.15,1.26,19,.22,26.87-5,3.38-2.27,7.21-5.15,9-8.9A13.92,13.92,0,0,0,542.3,257.05Z" style="fill:#fff;opacity:0.5"/><path d="M428.68,219.59a.71.71,0,0,0-.14.1,1,1,0,0,1,.16-.06S428.69,219.6,428.68,219.59Z" style="fill:#fff"/><path d="M455.15,181.64c-.07,0-6.56-3.69-15.92,7.38l6.67,4.31S448.39,185.81,455.15,181.64Z" style="fill:#95e1bf"/><path d="M443.38,191.71l2.52,1.62a24.25,24.25,0,0,1,9-11.53A33.46,33.46,0,0,0,443.38,191.71Z" style="fill:#95e1bf"/><path d="M485.41,184c-10.32-1.65-30.26-2.37-30.26-2.37h0c-6.76,4.17-9.25,11.69-9.25,11.69l.47,7.56,42.91-2.68-.31-5,.38.52h0C487.59,191.3,485.41,184,485.41,184Z" style="fill:#95e1bf"/><path d="M446.3,199.82l.07,1.07,42.91-2.68-.07-1.16C474.9,198,460.6,198.91,446.3,199.82Z" style="fill:#95e1bf"/><path d="M499.77,191.88s-2.66-4.89-10.54-7.09a38.84,38.84,0,0,0-3.82-.78s2.18,7.29,3.94,9.74h0l2.32,3.24S497.17,195.29,499.77,191.88Z" style="fill:#95e1bf"/><path d="M485.94,185.7c.75,2.31,2.18,6.36,3.41,8.05h0l2.32,3.24a23,23,0,0,0,2.18-.85C491.42,192.48,489.26,188.56,485.94,185.7Z" style="fill:#95e1bf"/><path d="M470.27,207.79c-1.78-.14-5.1-.28-5.1-.28s4.88-1.89,5.28-2.84-.68-.81-2.16-.21-4.11,1.52-4.11,1.52,1.4-1.77,1.17-2.93-3.54,2.75-3.78,2.92-1.71-.39-2.7-.16c0,0-11.07-2.7-15.61-4.73-2.85.16-6.23.46-9.08.66,2.95,3.34,24.48,7.54,24.48,7.54a4.09,4.09,0,0,0,3.11,2.5,13.46,13.46,0,0,1,2.69,2.85c.67,1.22,2.43,1,2-.12a11.23,11.23,0,0,0-2-2.82,19.9,19.9,0,0,1,4.24,1.75c1.57,1,2.71.42,1.86-1.21s-5.25-2.45-5.25-2.45,4.24-.17,5.46-.16S472,207.93,470.27,207.79Z" style="fill:#c6c6c6;mix-blend-mode:multiply"/><path d="M495.15,197.68l.94,1.86-14,5.07-2.16-.87s-1-2.12-2.14-2.06,0,1.36.57,2.5,1,2.2,1,2.2-4.45-2.58-5.81-2.83-.87,1,.09,1.42,4,2.2,4,2.2-4.73-.38-5.19.32,3.91.69,4.67.71-5.14,2.6-4.09,3.2,6.15-2.57,5.64-1.36-3.08,4.74-1.59,4.31,3.29-3.91,3.29-3.91,2.25-.47,2.66-1.93c0,0,17.42-4.51,17.73-8a7.69,7.69,0,0,0-.47-3.17C498.56,197.45,496.86,197.54,495.15,197.68Z" style="fill:#c6c6c6;mix-blend-mode:multiply"/><path d="M463.81,187.5s-1.66,7.5,4.6,7,6-6.65,6-6.65Z" style="fill:#efcaa6"/><path d="M515,131.42c2.6-1.68-7-1.76-7-1.76a9.89,9.89,0,0,0-.33-5.36c-1-2.8-2.63,3.87-2.63,3.87-8.28-19.68-43.15-20-55.78-3.93s-4.85,35.64-4.85,35.64S448.59,146.6,459.1,137c0,0-4.09,6.4-2.39,6.58s5.91-2.42,24.6-6.72c0,0-3.52,4.9-1,5.27S492,139,492,139s-1.61,12.11,2.19,10a10.86,10.86,0,0,0,4.86-5.17,46.71,46.71,0,0,1,3.89,26.78c25-25.78,6.6-37.32,6.6-37.32A12.07,12.07,0,0,0,515,131.42Z" style="fill:#decc62"/><path d="M499,143.75a10.86,10.86,0,0,1-4.86,5.17c-3.8,2.15-2.19-10-2.19-10s-9.21,3.49-11.7,3.13,1-5.27,1-5.27c-18.69,4.3-22.92,6.92-24.6,6.72S459.1,137,459.1,137c-10.51,9.64-14.73,22.92-14.73,22.92a19,19,0,0,0,.95,17.73c6.93,11.56,20.37,13.82,32.93,13,16.27-1,24.68-20.11,24.68-20.11A46.71,46.71,0,0,0,499,143.75Z" style="fill:#f4d9bf"/><path d="M446.89,153.83s.35-4.74-3.87-4-4.06,10,1.05,10.67A71.94,71.94,0,0,1,446.89,153.83Z" style="fill:#efcaa6"/><path d="M503,170.11s1.71-4.89,6-3.4.95,8.44-3.84,9.92-4.82-1.41-4.82-1.41Z" style="fill:#efcaa6"/><path d="M460.37,148.92a2.33,2.33,0,0,1,.6-.68,3.35,3.35,0,0,1,1.76-.75,3,3,0,0,1,1.08,0,2.64,2.64,0,0,1,.88.39,2.44,2.44,0,0,1,.28.26,1.8,1.8,0,0,1,.19.24.89.89,0,0,1,.1.24H465a3.57,3.57,0,0,0-.58,0l-.72.06-.81.1a14.31,14.31,0,0,1-1.65.14A5.83,5.83,0,0,1,460.37,148.92Z" style="fill:#a95a16"/><path d="M484,151.86a3.93,3.93,0,0,1,1.1-.63,6.14,6.14,0,0,1,2.75-.42,4.7,4.7,0,0,1,1.52.36,6.54,6.54,0,0,1,.65.35,5.57,5.57,0,0,1,.49.45,3.4,3.4,0,0,1,.33.46,1.69,1.69,0,0,1,.16.39,2.59,2.59,0,0,1,.09.35l-.3-.19c-.11,0-.18-.14-.33-.19l-.41-.19-.48-.17c-.19,0-.37-.09-.56-.12s-.4-.08-.61-.1l-.65-.07c-.44,0-.89,0-1.32-.08l-1.2-.07C484.5,151.94,484,151.86,484,151.86Z" style="fill:#a95a16"/><path d="M468.21,168.85s-2.46,3.24-.66,3.89a6.33,6.33,0,0,0,3.94-.24s-3.18.75-3.55-1A3.74,3.74,0,0,1,468.21,168.85Z" style="fill:#c39368"/><path d="M441.57,155.3a1.82,1.82,0,0,1,.65-.32,2.57,2.57,0,0,1,.77-.1,2.29,2.29,0,0,1,.9.18,2.06,2.06,0,0,1,.4.25,1.26,1.26,0,0,1,.33.32,2.12,2.12,0,0,1,.24.37,1.06,1.06,0,0,1,.12.34,1.71,1.71,0,0,1,.07.55,1.78,1.78,0,0,1,0,.2l-.12-.18a1.25,1.25,0,0,1-.12-.17c-.05-.08-.11-.15-.17-.23a1.07,1.07,0,0,0-.2-.23,2.61,2.61,0,0,0-.23-.24,2.22,2.22,0,0,0-.59-.36,1.33,1.33,0,0,0-.33-.13,2.25,2.25,0,0,0-.35-.09c-.23-.05-.46-.07-.66-.1Z" style="fill:#c39368"/><path d="M507.28,172a1.34,1.34,0,0,0-.21-.1,2.55,2.55,0,0,0-.53-.17l-.35-.07a1.71,1.71,0,0,0-.4,0,2.94,2.94,0,0,0-.42,0l-.43.06a1.29,1.29,0,0,0-.43.07,3.34,3.34,0,0,1-.43.1,2.62,2.62,0,0,0-.4.11l-.36.12a4.21,4.21,0,0,1-.78.19,4,4,0,0,1,.61-.53,2.3,2.3,0,0,1,.34-.25,2.12,2.12,0,0,1,.4-.19,3.66,3.66,0,0,1,.46-.18,1.65,1.65,0,0,1,.51-.11c.17,0,.34,0,.51-.05a2.09,2.09,0,0,1,.5.08,1.48,1.48,0,0,1,.45.12l.39.2a2.71,2.71,0,0,1,.45.43A.71.71,0,0,1,507.28,172Z" style="fill:#c39368"/><path d="M485.32,162.55c-.53,1.74-1.59,3-2.35,2.73s-1-1.84-.41-3.58,1.58-3,2.35-2.74S485.85,160.8,485.32,162.55Z" style="fill:#3d1a0b"/><path d="M484.14,160.74c-.19.51-.54.86-.78.76s-.23-.57,0-1.09.56-.85.78-.76S484.35,160.23,484.14,160.74Z" style="fill:#fff"/><path d="M463.46,157.89c-.53,1.74-1.59,3-2.35,2.74s-.94-1.84-.41-3.58,1.58-3,2.35-2.73S464,156.14,463.46,157.89Z" style="fill:#3d1a0b"/><path d="M462.29,156.08c-.21.51-.56.86-.79.78s-.23-.59,0-1.1.55-.86.78-.77S462.49,155.57,462.29,156.08Z" style="fill:#fff"/><path d="M492.16,172.2c-.15,1.16-2.56,1.82-5.37,1.44s-5-1.63-4.82-2.79,2.56-1.82,5.37-1.45S492.31,171,492.16,172.2Z" style="fill:#f9cbc0"/><path d="M460,164.61c-.15,1.16-2.56,1.81-5.37,1.44s-5-1.63-4.82-2.79,2.56-1.83,5.38-1.45S460.15,163.43,460,164.61Z" style="fill:#f9cbc0"/><path d="M439.64,189.29s-8,9.05-5.71,12.41,24.31,7.89,24.31,7.89a4.06,4.06,0,0,0,3.09,2.49A13.39,13.39,0,0,1,464,215c.66,1.21,2.41,1,2-.13a11.23,11.23,0,0,0-2-2.82,20.52,20.52,0,0,1,4.22,1.75c1.58,1,2.72.43,1.86-1.2s-5.24-2.45-5.24-2.45,4.24-.18,5.47-.17,1.28-1.68-.5-1.82-5.11-.28-5.11-.28,4.89-1.9,5.29-2.85-.68-.8-2.16-.2-4.11,1.52-4.11,1.52,1.4-1.78,1.16-2.93-3.53,2.73-3.77,2.92-1.71-.41-2.69-.17c0,0-16.59-4.1-17.64-6s3.46-7.86,3.46-7.86Z" style="fill:#f4d9bf"/><path d="M493.8,196.16l1.87,3.69-14,5.08-2.15-.88s-1-2.12-2.15-2.05,0,1.35.58,2.49,1,2.21,1,2.21-4.45-2.58-5.81-2.84-.87,1,.08,1.43,4,2.19,4,2.19-4.74-.38-5.21.32,3.92.68,4.68.72-5.15,2.59-4.1,3.2,6.15-2.57,5.64-1.36-3.07,4.74-1.58,4.31,3.29-3.91,3.29-3.91,2.25-.47,2.66-1.93c0,0,17.42-4.52,17.73-8s-2.54-7-2.54-7A26,26,0,0,1,493.8,196.16Z" style="fill:#f4d9bf"/><g style="opacity:0.4;mix-blend-mode:multiply"><path d="M446.89,153.83h0A56.64,56.64,0,0,1,459.1,137l3.38-3.36C450,140.12,446.89,153.83,446.89,153.83Z" style="fill:#d7711f"/><path d="M456.71,143.54c1.68.2,5.91-2.42,24.6-6.72l-.12.16a35.4,35.4,0,0,1,5.12-4.06C473.27,134.85,456.71,143.54,456.71,143.54Z" style="fill:#d7711f"/><path d="M479.59,141.72a1.12,1.12,0,0,0,.7.37c2.49.36,11.7-3.13,11.7-3.13l0,.28c1.2-2.34,2.65-4.94,2.65-4.94C486.66,140.71,479.68,141.7,479.59,141.72Z" style="fill:#d7711f"/><path d="M497.56,138.5a10.91,10.91,0,0,1-4.25,10.67,1.58,1.58,0,0,0,.87-.25,10.86,10.86,0,0,0,4.86-5.17A46.74,46.74,0,0,1,503,170.12h0C509.63,154.75,497.56,138.5,497.56,138.5Z" style="fill:#d7711f"/></g><path d="M462.63,179.39a84.59,84.59,0,0,0,12.53.19,6.23,6.23,0,0,1-6.91,6.61C464.11,185.94,462.46,181.86,462.63,179.39Z" style="fill:#96172d"/><path d="M467.14,186a5.59,5.59,0,0,0,1.11.18,6.89,6.89,0,0,0,3.8-.81C470.22,184,468.13,185.22,467.14,186Z" style="fill:#ed776f"/><path d="M467.84,182.75a10.62,10.62,0,0,0,7.26-2.06,8.17,8.17,0,0,0,.06-1.11,83.62,83.62,0,0,1-11.29-.09C464.06,180.66,464.81,182.6,467.84,182.75Z" style="fill:#fff"/><path d="M461,178.94s.25.05.69.1a6.84,6.84,0,0,0,.78.1l1,.12,1.21.1c.44,0,.89,0,1.36.08l1.44.07,1.5,0c.5,0,1,0,1.5,0l1.45,0h1.35l1.22-.05c.75,0,1.38,0,1.82-.06h.7l-.69.09c-.44.05-1.06.14-1.81.22-.38,0-.79.09-1.22.12l-1.36.07-1.46.06c-.5,0-1,0-1.51,0l-1.5,0-1.46-.12c-.47,0-.92-.08-1.36-.14l-1.21-.17-1-.19q-.47-.09-.78-.18A5.05,5.05,0,0,1,461,178.94Z" style="fill:#c39368"/></g><g id="boy4"><path d="M200.72,366.33c.39-.94,4.95-6.07,3.94-7s-4.33,5-5.14,4.45,1.62-9.21-.59-8.19-1.57,8.3-2.57,7.5-1.15-9.38-2.86-8,1.69,9.24.11,8.81-3.71-1.58-5.41-.72,4.15,1.81,4.58,3.33a5,5,0,0,1,.27,2.17s-7.5,11.88-18.23,18.6c-10.5,6.6-22.57,9.77-25.44,9.62-.24,3.2.23,7.44,3.89,9.13l-.55-4.48s24.22,0,45.25-32.84a1.76,1.76,0,0,0,1.87-.49s6.44-.18,6.54-1.47S200.33,367.26,200.72,366.33Z" style="fill:#efcaa6"/><path d="M152.11,398.16s.11.24.25.64a9.75,9.75,0,0,1,.34,1.43,9.62,9.62,0,0,1,.15,1.48,5.72,5.72,0,0,1,0,.68,5.78,5.78,0,0,1-.25-.65,12.88,12.88,0,0,1-.36-1.43c-.07-.53-.12-1.07-.13-1.48A5.47,5.47,0,0,1,152.11,398.16Z" style="fill:#c39368"/><path d="M139.73,396.39a.55.55,0,0,0-.42,0c-2,.74-3.85,1.88-5.83,2.6a.26.26,0,0,0-.08.42,25.23,25.23,0,0,1,.57,2.8,14.66,14.66,0,0,0,1.35,3.31,3.49,3.49,0,0,0,3.67,2.09c1.7-.29,2.49-2.38,2.52-3.89a23.22,23.22,0,0,0-1.21-6.94A.52.52,0,0,0,139.73,396.39Z" style="fill:#f4c3a7"/><path d="M123.83,423.89s-3.15,9-3.32,17,1.23,13.5.57,14.62-2.08,1.29-3.21,4.56-.38,7.25.26,6.7.22-4.23,1.52-6.16a15.59,15.59,0,0,0-.49,5.52c.38,2.41,1.08,2.32,1.52-1.21s.76-5.27.9-4.46-.15,7.44,1,7.73.15-6.29,1.36-7.65a14.21,14.21,0,0,0,.55,5c.8,2.24,1.59,2.57,1.51-.34s.09-7.22,1.58-5.86,2.11,3.29,3.5,2.63-1.1-3.91-2.32-5.12S125.65,455,125.4,454s-1.68-9.46-1.16-14.56c.59-5.93,2.36-12.54,3.34-14.19Z" style="fill:#f4d9bf"/><path d="M141.87,447.91s-1.34,6.47,4.57,22.25c0,0,13.08-2.21,18.88-5.83l-3.5-11.25,8.26,9.31s12.1-6.84,15.51-13.23c0,0-9.18-9.65-9.92-11.06a16.75,16.75,0,0,1-1.18-3.56Z" style="fill:#95e1bf"/><path d="M143.65,397.45s21.14-5.17,23.84-11.54c0,0,5.93,5.72,6.67,12.88,0,0-6.35,6.54-12.26,6.69,0,0,7.59,9.83,13.59,30,0,0-15,15.22-36,14.58,0,0-5.14-26.19-5.14-26.5s-1.32,4.82-1.32,4.82-8.86-2.46-11.51-4.42c0,0,2.25-15.68,16.24-23.41Z" style="fill:#95e1bf"/><path d="M119.07,393.81c-2.44,1.81-10.23-3.44-7.68-6.73s6.71-.13,6.71-.13-4.17-10.52-5.95-16.5c4.08,3.23,8.9,6.71,8.9,6.71s-.5-6.75-2.57-11.07a19.72,19.72,0,0,0,8.44.82s-.76-1.26-4.26-3.45c7.57,1.23,17.9-3,17.9-3s-3-3.36-6.41-3.3c1.93-1,9-.37,13.18,2.42a31.25,31.25,0,0,1,2.94,6.52c2,5.91,3.21,6.64,5.24,8.54s4.32,6.88-4,17.17-21.21,9.76-25.69,8.26C125.85,400.11,121.29,397.12,119.07,393.81Z" style="fill:#fad8bf"/><path d="M103.68,392.47c-6.82-9.94-6.47-17.1-1.83-22.58,0,0,.37-17.69,20.45-22.77,13-2,22.51.69,27.92,11-3.71-3.22-6.32-3.2-6.32-3.2a8.44,8.44,0,0,1,4.61,5.05l-1.18-.36c-4.21-2.79-11.25-3.42-13.18-2.42,3.45-.06,6.41,3.3,6.41,3.3s-10.33,4.19-17.9,3c3.5,2.19,4.26,3.45,4.26,3.45a19.72,19.72,0,0,1-8.44-.82c2.07,4.32,2.57,11.07,2.57,11.07s-4.82-3.48-8.9-6.71c1.78,6,5.95,16.5,5.95,16.5s-4.18-3.15-6.71.13,5.24,8.54,7.68,6.73c2.22,3.31,6.78,6.3,6.78,6.3C124.26,401.68,110.51,402.4,103.68,392.47Z" style="fill:#7d4902"/><path d="M113.81,389.85a.71.71,0,0,1,.18-.19.92.92,0,0,1,.23-.18l.15-.06.18-.07a1.94,1.94,0,0,1,.42,0,2.83,2.83,0,0,1,.48.08c.16.06.32.09.49.17a3.71,3.71,0,0,1,.49.24c.16.09.33.17.49.27s.31.19.46.29l.79.54c.47.35.81.56.81.56a7.21,7.21,0,0,0-.64-.74,3.53,3.53,0,0,0-.34-.32c-.13-.11-.26-.25-.39-.35l-.47-.34c-.16-.11-.34-.19-.51-.3a4.41,4.41,0,0,0-.54-.24,3,3,0,0,0-.56-.16,1.79,1.79,0,0,0-.56,0,1.47,1.47,0,0,0-.49.11l-.21.1-.15.13a2.14,2.14,0,0,0-.21.25A.68.68,0,0,0,113.81,389.85Z" style="fill:#c48053"/><path d="M117,392.07a3.39,3.39,0,0,0,0-.38v-.37c0-.12,0-.26,0-.39a6.07,6.07,0,0,1,0-.73c0-.05,0-.1,0-.13s0-.09,0-.12l0-.1-.09,0a.38.38,0,0,0-.11.08s-.07.08-.1.14a1,1,0,0,0-.16.37,1.81,1.81,0,0,0,0,.46,1.76,1.76,0,0,0,.21.79A1.29,1.29,0,0,0,117,392.07Z" style="fill:#c48053"/><path d="M148.77,372.29c.48,1.15,1.18,1.95,1.55,1.79s.3-1.22-.18-2.36-1.17-2-1.55-1.79S148.29,371.14,148.77,372.29Z" style="fill:#292524"/><path d="M148.8,370.82c.2.35.48.55.63.46s.14-.44-.06-.78-.47-.54-.63-.46S148.61,370.48,148.8,370.82Z" style="fill:#fff"/><path d="M132.68,379.6c.49,1.15,1.18,1.95,1.56,1.79s.29-1.21-.19-2.37-1.16-1.94-1.54-1.77S132.21,378.46,132.68,379.6Z" style="fill:#292524"/><path d="M132.72,378.13c.19.36.47.55.63.46s.13-.43-.06-.78-.48-.54-.64-.45S132.52,377.79,132.72,378.13Z" style="fill:#fff"/><path d="M144.05,376.79l1,.45c.31.12.66.29,1,.46a11.88,11.88,0,0,1,1.11.6,1.44,1.44,0,0,1,.42.39s0,.07,0,.07l0,.16a1.41,1.41,0,0,1,0,.25,3.29,3.29,0,0,1-.46,1c-.36.54-.64.89-.64.89a4.76,4.76,0,0,0,.8-.77,2.94,2.94,0,0,0,.61-1,1.85,1.85,0,0,0,.08-.37l0-.16a1.77,1.77,0,0,0-.08-.22,2,2,0,0,0-.53-.51,11.66,11.66,0,0,0-3.34-1.21Z" style="fill:#c48053"/><path d="M135.67,370.25a8.23,8.23,0,0,0-1.61-1.41,7.59,7.59,0,0,0-.91-.5A3.78,3.78,0,0,0,132,368a2.72,2.72,0,0,0-1.35.08l-.33.14a3.21,3.21,0,0,0-.31.19l-.15.11,0,0,0,0h0l-.05.06-.23.22c-.14.15-.27.38-.41.56s-.22.39-.32.59a7.24,7.24,0,0,0-.4,1.19,9.63,9.63,0,0,0-.3,2.19,11.88,11.88,0,0,0,.1,2.11l.08-.57c0-.36.13-.89.23-1.5a18.21,18.21,0,0,1,.5-2,8.92,8.92,0,0,1,.44-1.07,4.11,4.11,0,0,1,.27-.51,3.32,3.32,0,0,1,.34-.45l.21-.22.06-.07h0l.11-.09c.07,0,.13-.1.21-.14l.25-.1a3.66,3.66,0,0,1,.5-.12,3.13,3.13,0,0,1,.53,0,4,4,0,0,1,1,.23,6.91,6.91,0,0,1,.91.38,10.48,10.48,0,0,1,1.32.72Z" style="fill:#7d4902"/><path d="M149.17,363.15a.78.78,0,0,0-.17-.23,1.91,1.91,0,0,0-.63-.49,1.24,1.24,0,0,0-.55-.14.7.7,0,0,0-.35,0,1.06,1.06,0,0,0-.34.12,1.63,1.63,0,0,0-.55.46,4,4,0,0,0-.34.6,5,5,0,0,0-.21.62c-.05.2-.07.42-.11.62a8,8,0,0,0,0,1.07,8.1,8.1,0,0,0,.14,1,8,8,0,0,0,.28-1c.08-.3.17-.64.25-1,0-.18.12-.35.16-.53a3.65,3.65,0,0,1,.2-.53,3.42,3.42,0,0,1,.23-.47c.11-.11.19-.26.32-.32a.62.62,0,0,1,.17-.11.42.42,0,0,1,.2-.05,1.13,1.13,0,0,1,.41,0,3.14,3.14,0,0,1,.67.21Z" style="fill:#7d4902"/><path d="M150.27,384.05s-6.5,5-13,3.92c3.14,4.33,6.4,5.66,8.37,4.84S148.79,385.48,150.27,384.05Z" style="fill:#510012"/><path d="M139,390a20.8,20.8,0,0,1-1.7-2c3.62.6,7.25-.69,9.75-2C146.76,387.51,145.46,390.94,139,390Z" style="fill:#fff"/><path d="M146.27,392.35a1.82,1.82,0,0,1-.61.46c-1.41.58-3.47.07-5.67-1.85A6.42,6.42,0,0,1,146.27,392.35Z" style="fill:#fd7072"/><path d="M145.74,393c-1.79.74-5.13-.1-8.63-4.92l-.31-.44.53.09a15.11,15.11,0,0,0,8.53-1.43,24.27,24.27,0,0,0,4.28-2.44l.28.33a12.7,12.7,0,0,0-1.76,3.71c-.84,2.24-1.7,4.55-2.89,5.08Zm.31-6.28a16.11,16.11,0,0,1-8.26,1.53c2.25,2.92,5.43,5.31,7.78,4.33l.11.2-.09-.21c1-.45,1.9-2.77,2.66-4.82a26,26,0,0,1,1.17-2.87A24.43,24.43,0,0,1,146.05,386.74Z" style="fill:#c48053"/><path d="M140.77,390.76c2.45,1.84,3.84,1.44,4.55.89a6,6,0,0,1,1,.7,1.82,1.82,0,0,1-.61.46c-1.41.58-3.47.07-5.67-1.85A6.4,6.4,0,0,1,140.77,390.76Z" style="fill:#d9494d"/><g style="opacity:0.30000000000000004;mix-blend-mode:multiply"><path d="M111.39,387.08c2.53-3.28,6.71-.13,6.71-.13s-4.17-10.52-5.95-16.5c4.08,3.23,8.9,6.71,8.9,6.71s-.5-6.75-2.57-11.07a19.72,19.72,0,0,0,8.44.82s-.76-1.26-4.26-3.45c7.57,1.23,17.9-3,17.9-3s-3-3.36-6.41-3.3c1.93-1,9-.37,13.18,2.42,0,0,.08.12.22.38a29.46,29.46,0,0,0-8-2s.72.29,1.52,3.11c-5.92,3.52-14.49,4.05-14.49,4.05l1.47,2.53s-2.67,2.34-7.13.93c1,3.4,1.17,11.05,1.17,11.05s-.51.29-2.29-1.21c1.72,5.08,7,13.62,11.7,18.3s14.15,2.53,20.92-8.18,3.32-12.73,1-15.72a9,9,0,0,1-1.25-2.25,13.3,13.3,0,0,0,3.37,4c2,1.89,4.32,6.88-4,17.17s-21.21,9.76-25.69,8.26c0,0-4.56-3-6.78-6.3C116.63,395.62,108.84,390.37,111.39,387.08Z" style="fill:#dfa679"/></g><path d="M247.62,469.4a16.84,16.84,0,0,0-4.25-.4l.13-.36a12.08,12.08,0,0,0,.29-7.28,19.63,19.63,0,0,0-3.5-6.39,19,19,0,0,0-11.89-6,23.48,23.48,0,0,0-7,.24,22.5,22.5,0,0,0-.68-5.29c-1.16-4.57-4.78-8.56-8.55-11.22-4-2.81-8.9-3.22-13.55-2.2a12,12,0,0,0-1.45.4c-1.68-3.79-6-6-9.9-6.82a17.67,17.67,0,0,0-8.05.38,17.26,17.26,0,0,0-6.45,3.68,19.25,19.25,0,0,0-4.49,6,16.42,16.42,0,0,0-1.34,7.9,11.71,11.71,0,0,0,1.92,5.91A7.67,7.67,0,0,0,167.3,449a10.54,10.54,0,0,0-3.25,5,11.9,11.9,0,0,0-1.87-.68,21.23,21.23,0,0,0-7.4-.76,18,18,0,0,0-6.95,2.15c-4.38,2.2-8.57,4.78-10.84,9.34a14,14,0,0,0-1.2,3.88l-1.23-.3a16.27,16.27,0,0,0-9.36.83c-5.37,2.14-8.87,8.15-9.18,13.78-.34,6.51,4.38,12.23,10.49,13.83a16.89,16.89,0,0,0,9.62-.61,25.23,25.23,0,0,0,5.53-2.62,18,18,0,0,0,3.18,3.3c3.86,3.09,8.82,4.48,13.67,4.87a19,19,0,0,0,6.76-.66c1.12-.31,2.25-.47,3.36-.85a28.23,28.23,0,0,0,3.4-1.45,20.71,20.71,0,0,0,5.19-3.36,22.51,22.51,0,0,0,1.83,1.56,20.6,20.6,0,0,0,12,4.17,30.82,30.82,0,0,0,13.1-2.82,24.74,24.74,0,0,0,7.77-5.77,30.68,30.68,0,0,0,12.59,5.35,38.58,38.58,0,0,0,10.5.7,28.65,28.65,0,0,0,9.88-2.53c5.27-2.42,11-7,11.85-13.1A11.75,11.75,0,0,0,247.62,469.4Z" style="fill:#fff"/><path d="M254,485.32c-1.36,2.8-4.21,5-6.74,6.64-5.86,3.92-13.23,4.69-20.06,3.74a36.41,36.41,0,0,1-10.72-3.08,24.7,24.7,0,0,1-3.4-1.94c.3-.34.58-.69.86-1-.37.31-.77.6-1.12.85-1.43,1-2.89,2.06-4.38,3-.18.1-.35.22-.53.33a24.39,24.39,0,0,1-3.42,2,29.22,29.22,0,0,1-5.78,2,31.46,31.46,0,0,1-6.38,1,20.68,20.68,0,0,1-5.39-.5,19.5,19.5,0,0,1-7.17-2.4,13.33,13.33,0,0,1-3.58-3,15.18,15.18,0,0,0-2-2.59,13.2,13.2,0,0,0,.7,1.41,13,13,0,0,0,1.64,2.23,26.48,26.48,0,0,1-5.28,2.81,26.58,26.58,0,0,1-12.79,2.53,29.29,29.29,0,0,1-12.85-4.11,15.1,15.1,0,0,1-3.39-2.76h0a17,17,0,0,1-2.89-3.81,18.32,18.32,0,0,0,1.81,3.49,32.3,32.3,0,0,1-4.84,1.86,17.35,17.35,0,0,1-9,.49,13,13,0,0,1-9.87-12.13A14.35,14.35,0,0,1,125.35,469a15.57,15.57,0,0,1,9.12-1,11.81,11.81,0,0,1,1.27.29,12.36,12.36,0,0,0-.14,1.81,9.71,9.71,0,0,0,.24,1.93,16.6,16.6,0,0,0,.88,2.48,15.43,15.43,0,0,1,.63-7,8.65,8.65,0,0,1,.47-1.17,16.63,16.63,0,0,1,.72-1.7c2-4.09,5.92-6.28,9.71-8.42a19.65,19.65,0,0,1,13.25-2.15,16.71,16.71,0,0,1,2.38.67,7.54,7.54,0,0,0,1.11,5.66,9.36,9.36,0,0,1,.65-7.37,12.67,12.67,0,0,1,2.79-3.7,6.34,6.34,0,0,1,.91-.68l0,.06,0,0c.22-.13.45-.25.69-.37a.16.16,0,0,1,0-.07,19.22,19.22,0,0,1,4.2-1.23,10.71,10.71,0,0,1,3.09-.25,4.1,4.1,0,0,1,.69.1h.2a7.34,7.34,0,0,0-2.29-.39,24.13,24.13,0,0,0-3.41.27,12.74,12.74,0,0,0-2.89.8,13.15,13.15,0,0,1-1.55-5.78,15.12,15.12,0,0,1,1.16-7.28,18.46,18.46,0,0,1,4.31-5.78,16.6,16.6,0,0,1,13.17-4.29c4,.45,8.5,2.73,10.31,6.47a18.53,18.53,0,0,0-3.61,1.6,10.26,10.26,0,0,0-2.05,1.79,14.49,14.49,0,0,1,10-3.15A16.49,16.49,0,0,1,212,434.28c3.42,2.5,6.7,5.89,8.12,9.94a16.14,16.14,0,0,1,.81,3.7,17.55,17.55,0,0,1,.28,4c0,.34,0,.68,0,1a19.6,19.6,0,0,0,.28-3.24l.3,0a22.49,22.49,0,0,1,6.5.18,19.2,19.2,0,0,1,11,6,18.74,18.74,0,0,1,3,5.33,11.2,11.2,0,0,1,.2,7.1c-.08.29-.17.57-.27.85h-.06a18.5,18.5,0,0,0-3.22.71,1.89,1.89,0,0,0-1.11.62h.09l.11,0a5.86,5.86,0,0,1,3.07-.68,17.55,17.55,0,0,1,2.05,0h0a15.23,15.23,0,0,1,4,.72,11.56,11.56,0,0,1,7.05,6.29A10.41,10.41,0,0,1,254,485.32Z" style="fill:#fff"/><path d="M186.54,440.51a4.52,4.52,0,0,0,.3,2,11.12,11.12,0,0,1,3-6.94A13.61,13.61,0,0,1,192,433.7a12.57,12.57,0,0,1,1.45-1.17,18.53,18.53,0,0,1,3.61-1.6,9.26,9.26,0,0,0-1.62-2.31C191.32,429.29,186.87,434.56,186.54,440.51Z" style="fill:#fff;opacity:0.30000000000000004"/><path d="M169.67,447.59a12.74,12.74,0,0,1,2.89-.8,24.13,24.13,0,0,1,3.41-.27,6.51,6.51,0,0,1,1.87.27,22.06,22.06,0,0,1,6.06,1.5A23.81,23.81,0,0,1,190,451.7c-3.93-6-12.33-9.45-19-6.58-.19.09-.5.08-.59-.15a19,19,0,0,1-1.32-10.09,15.73,15.73,0,0,0-1,6.93A13.15,13.15,0,0,0,169.67,447.59Z" style="fill:#fff;opacity:0.30000000000000004"/><path d="M254.19,476.67a11.56,11.56,0,0,0-7.05-6.29,15.23,15.23,0,0,0-4-.72h0a17.55,17.55,0,0,0-2.05,0,5.86,5.86,0,0,0-3.07.68l-.11,0h-.09a1.89,1.89,0,0,1,1.11-.62,18.5,18.5,0,0,1,3.22-.71h.06c.1-.28.19-.56.27-.85a11.2,11.2,0,0,0-.2-7.1,16.64,16.64,0,0,0-12.1-10.84c3.79,2.41,6.89,5.62,7,10.57a22.14,22.14,0,0,1-2.55,11.08c.69-.12,1.39-.21,2.09-.29,3-.35,6.14-.83,9,.25a4.14,4.14,0,0,1,2.48,5.37,12.34,12.34,0,0,1-6.8,7.52c-6.36,3-13.89,2.61-20.45.47-4.43-1.43-8.83-3.81-11.75-7.39-3.15,6.52-9.17,11.24-17,11.4-9,.19-19.1-5.41-22-14.18a19.28,19.28,0,0,0,2.1,8.11.47.47,0,0,1-.17.59c-6.42,4.09-19.64,8.41-27.34,5.2-4.21-1.76-6.17-5.48-7.91-10a23,23,0,0,0,1.58,10c.1.28-1,.45-1.23.48-5.4.65-12,.07-15.93-4.12a11.81,11.81,0,0,1-3.22-7.68,13.2,13.2,0,0,0-.61,4.73,13,13,0,0,0,9.87,12.13,17.35,17.35,0,0,0,9-.49,32.3,32.3,0,0,0,4.84-1.86,18.32,18.32,0,0,1-1.81-3.49,17,17,0,0,0,2.89,3.81h0a15.1,15.1,0,0,0,3.39,2.76,29.29,29.29,0,0,0,12.85,4.11,26.58,26.58,0,0,0,12.79-2.53,26.48,26.48,0,0,0,5.28-2.81,13,13,0,0,1-1.64-2.23,13.2,13.2,0,0,1-.7-1.41,15.18,15.18,0,0,1,2,2.59,13.33,13.33,0,0,0,3.58,3,19.5,19.5,0,0,0,7.17,2.4,20.68,20.68,0,0,0,5.39.5,31.46,31.46,0,0,0,6.38-1,29.22,29.22,0,0,0,5.78-2,24.39,24.39,0,0,0,3.42-2c.18-.11.35-.23.53-.33,1.49-.94,3-2,4.38-3,.35-.25.75-.54,1.12-.85-.28.35-.56.7-.86,1a24.7,24.7,0,0,0,3.4,1.94,36.41,36.41,0,0,0,10.72,3.08c6.83.95,14.2.18,20.06-3.74,2.53-1.68,5.38-3.84,6.74-6.64A10.41,10.41,0,0,0,254.19,476.67Z" style="fill:#fff;opacity:0.5"/><path d="M169.34,448.7l-.1.07.12,0Z" style="fill:#fff"/></g></g></g></svg>