<svg xmlns="http://www.w3.org/2000/svg" viewBox="0 0 1447.14 432.32"><title>Asset 1</title><g id="Layer_2" data-name="Layer 2"><g id="Layer_1-2" data-name="Layer 1"><path d="M1412,250.1a50,50,0,0,0-7.42-1c-1.44-19.84-18-37.85-43.36-45.41a30.43,30.43,0,0,0,7.24-10.9c6.51-17.35-6.87-35.39-29.89-40.3l-1.13-.22c11.63-6,20.64-15.06,24.79-26.1,9.47-25.21-10-51.44-43.45-58.57-23-4.9-46.59.48-62.19,12.49,2.7-34.7-26.76-67.37-73-77.23-50.17-10.7-102.23,9.3-120.88,45.12-4.55-9.11-14.58-16.53-28-19.39-22.38-4.77-45.66,5-52,21.9a24.1,24.1,0,0,0-.6,15.52,88.55,88.55,0,0,0-12.34-3.56c-36.88-7.87-75.17,7.26-87.95,34-6.08-9-16.94-16.16-30.87-19.14-26.5-5.65-54.06,6-61.56,25.93s7.9,40.73,34.4,46.38a64.9,64.9,0,0,0,9.91,1.32c-.58,22.24,18.67,42.85,48.41,49.19,28,6,56.87-2.51,72.65-19.53C949,217,979,252.12,1027.25,262.41c43.65,9.3,88.73-4.62,112-32,12,9.44,27.34,16.67,45.23,20.49,29.83,6.36,60.33,1.86,84.08-10.35-8,26.72,13,53.8,48.45,61.35,20.38,4.34,41.21,1.3,57.46-7a39.53,39.53,0,0,0,17.55,8.35c19.48,4.15,39.74-4.38,45.25-19.06S1431.46,254.26,1412,250.1Z" style="fill:#d0d0fc"/><path d="M36.49,210.83a45.7,45.7,0,0,1,7.2-.12c5.17-18.6,24.29-33.82,49.71-38.2a26.1,26.1,0,0,1-4.75-11.1c-2.83-17.11,13.28-32.71,36-34.84.38,0,.74-.06,1.12-.08-9.84-7-16.62-16.49-18.42-27.39-4.12-24.86,19.31-47.53,52.32-50.63,22.66-2.13,44,5.53,56.39,18.58C220.16,34,254.29,6.28,299.88,2c49.49-4.64,94.87,19.93,105.62,55.83,6.05-8.11,17-14,30.16-15.27,22.08-2.08,42.21,9.73,44.95,26.36a23.41,23.41,0,0,1-2.41,14.74,89.39,89.39,0,0,1,12.35-2c36.38-3.42,69.67,15.06,76.61,41.76,7.48-7.86,19.12-13.44,32.86-14.73,26.14-2.45,50,11.53,53.22,31.22S638,177.54,611.81,180a63.32,63.32,0,0,1-9.62.17c-3.73,21.09-25.88,38.47-55.21,41.22-27.62,2.59-53.29-8.57-64.93-26.38-1.53,35-36.63,64.93-84.2,69.4-43.06,4-83-14-99.74-42.45a114.5,114.5,0,0,1-46.7,14.43c-29.42,2.76-57.39-4.81-77.5-18.94,2.45,26.14-22.66,49.44-57.58,52.72-20.11,1.88-39.21-3.27-53-12.89a41.27,41.27,0,0,1-18.2,6C25.94,265.05,8.42,254.77,6,240.3S17.27,212.63,36.49,210.83Z" style="fill:#d0d0fc"/><path d="M966.05,250.54a49.41,49.41,0,0,0-7.49.58c-8.56-18.79-31-32.72-58.13-34.8a25.67,25.67,0,0,0,3-12c0-18-19.4-32.64-43.33-32.64l-1.16,0c9-8.21,14.41-18.73,14.41-30.21,0-26.2-28.19-47.44-63-47.44-23.88,0-44.66,10-55.33,24.77-9.94-33.94-50.1-59.33-98.14-59.33-52.14,0-95,29.92-100,68.21-7.67-7.83-20-12.91-33.91-12.91-23.26,0-42.12,14.2-42.12,31.73a25.71,25.71,0,0,0,5,15.06,96.19,96.19,0,0,0-13.16-.9c-38.34,0-69.72,22.41-72.33,50.79-9.11-7.43-22.14-12.08-36.62-12.08C336.27,199.42,314,216.24,314,237s22.32,37.57,49.87,37.57a66.78,66.78,0,0,0,10-.75c7.48,21.51,33.45,37.39,64.36,37.39,29.1,0,53.81-14.08,62.84-33.69,7.59,36.16,49.14,63.8,99.26,63.8,45.37,0,83.71-22.65,96.21-53.76A125.84,125.84,0,0,0,747.43,298c31,0,58.72-10.58,77.16-27.21,1.94,27.36,32,49.1,68.79,49.1,21.18,0,40.12-7.21,52.76-18.53a45.61,45.61,0,0,0,19.91,4.43c20.24,0,36.65-12.37,36.65-27.62S986.29,250.54,966.05,250.54Z" style="fill:#d0d0fc"/><path d="M1402.86,273.5a44,44,0,0,0-8.06,1.55c-12.16-23.84-38.69-39.82-68.49-39.68a39.52,39.52,0,0,0,1.46-16.09c-2.75-23.74-26.06-40.94-52.07-38.41-.43,0-.85.1-1.27.15a58.4,58.4,0,0,0,11.07-41.3c-4-34.51-37.88-59.5-75.69-55.82-26,2.52-47,17.91-56.37,38.48-16-43.65-63.5-72.85-115.73-67.76C981,60.13,939,104.07,939.38,155a48.37,48.37,0,0,0-38.84-13.43c-25.29,2.47-43.62,23.17-40.95,46.26a39.63,39.63,0,0,0,7.77,19.3,87.41,87.41,0,0,0-14.45.2c-41.67,4.06-72.37,36.9-70.89,74.55a57.71,57.71,0,0,0-41.65-12c-29.94,2.91-51.65,27.43-48.49,54.76s30,47.12,59.93,44.2a58.79,58.79,0,0,0,10.77-2.06c11.41,27.55,42.07,45.71,75.66,42.44,31.64-3.08,56.36-24.24,63.19-51,13.76,46.82,63.14,78.84,117.63,73.53,49.32-4.8,87.55-38.69,96.4-81a118.71,118.71,0,0,0,57,8.36c33.7-3.28,62.23-20.15,79.74-44,6.28,35.83,42.26,61.27,82.26,57.38,23-2.24,42.52-13.73,54.54-30a43.11,43.11,0,0,0,22.31,3.73c22-2.14,38-20.16,35.64-40.25S1424.86,271.36,1402.86,273.5Z" style="fill:#ebebff"/><path d="M695,268a44.16,44.16,0,0,0-7.91,1.36c-11.09-22.61-36.44-38-65.5-38.22A36.29,36.29,0,0,0,623.5,216c-1.91-22.39-24.09-38.87-49.53-36.81-.42,0-.82.08-1.24.12,8.7-11,13.34-24.5,12.12-38.76-2.78-32.55-35-56.5-72-53.51-25.39,2.06-46.42,16.29-56.2,35.54C442.49,81.32,397.09,53.23,346,57.37c-55.44,4.49-97.84,45.34-99.1,93.34-9-9.07-22.64-14.32-37.43-13.12-24.73,2-43.28,21.27-41.42,43a35.87,35.87,0,0,0,7,18.28,88.38,88.38,0,0,0-14.09,0c-40.76,3.3-71.75,33.84-71.52,69.32-10.47-8.44-24.82-13.09-40.22-11.85-29.29,2.37-51.24,25.19-49,51s27.73,44.75,57,42.37a59.37,59.37,0,0,0,10.57-1.8C78,374,107.27,391.5,140.13,388.84c30.94-2.51,55.73-22.13,63.25-47.26,11.9,44.26,59,75,112.31,70.7,48.24-3.9,86.61-35.34,96.59-75.06a118.27,118.27,0,0,0,55.26,8.58c33-2.67,61.32-18.2,79.16-40.44,5,33.82,39.24,58.23,78.36,55.06,22.52-1.83,41.89-12.41,54.13-27.57a42.8,42.8,0,0,0,21.64,3.79c21.52-1.74,37.66-18.51,36-37.46S716.49,266.29,695,268Z" style="fill:#ebebff"/></g></g></svg>