<svg id="Layer_1" data-name="Layer 1" xmlns="http://www.w3.org/2000/svg" viewBox="0 0 375 600"><title>footermob</title><path d="M349,89.3c-16.38,2-34.94,3.23-37.62,3.45-22.64,1.92-45.35,2.63-68,.2-36.08-3.86-71-19.26-106.47-29.93C92.77,49.74,44.25,44.8,0,58.93V429.26H375V83.16C375,85.54,362.77,87.66,349,89.3Z" style="fill:#d2cfe8"/><path d="M84.67,134.75c18.49,22.59,37.18,42.75,57.47,45.16C180,184.4,219.8,169.52,254.48,125.8c19.67-24.8,39.62-50.61,61-60.32,10-4.53,20.3-5.41,30.33-1.9C349,64.69,375,76.55,375,86.65V600H0V65.31a48.77,48.77,0,0,1,24.53,7.55C45.51,83.92,65,110.71,84.67,134.75Z" style="fill:#9b99cb"/></svg>