<svg xmlns="http://www.w3.org/2000/svg" viewBox="2069 9283 1932.2 714.821"><defs><style>.a{fill:#6cca98;}.b{fill:#009845;}</style></defs><g transform="translate(2069.1 9283.013)"><path class="a" d="M1798.063,73.305c-84.373,3.619-180.055,6.107-193.853,6.56-116.719,3.619-233.664,4.976-350.384.452C1067.89,73.079,887.835,43.9,705.292,23.768,477.96-1.341,228.01-10.615,0,16.077V714.808H1931.974V61.769C1931.974,66.293,1868.864,70.365,1798.063,73.305Z" transform="translate(0.126 0)"/><path class="b" d="M436.113,103.012c95.456,29.18,191.591,55.193,296.1,58.36,195.211,5.881,400.148-13.346,578.846-69.9,101.338-32.12,204.032-65.372,314.418-78.039a784.36,784.36,0,0,1,156.3-2.488c16.286,1.357,150.2,16.739,150.2,29.858V704.477H0V13.21c41.621.452,83.468,2.941,126.446,9.727C234.569,37.414,334.776,72.022,436.113,103.012Z" transform="translate(0.126 10.331)"/><path class="a" d="M1932.1,452.162V209.9c-41.621.226-83.468,1.131-126.446,3.845-108.124,5.655-208.33,19.227-309.894,31.442-95.23,11.536-191.591,21.715-296.1,22.846-194.984,2.262-400.148-5.2-578.846-27.37C519.481,228,416.786,215.1,306.4,210.128c-51.347-2.262-104.5-2.714-156.3-.9-16.286.452-150.2,6.56-150.2,11.762V452.162Z" transform="translate(0 262.647)"/></g></svg>