<svg id="Layer_1" data-name="Layer 1" xmlns="http://www.w3.org/2000/svg" viewBox="0 0 1186.87 281.99"><title>footer</title><path d="M1104.58,33.67c-51.85.93-110.57,1.55-119.06,1.65-71.66.93-143.55,1.26-215.19.1-114.18-1.86-224.78-9.25-337-14.37C293.63,14.67,140,12.3,0,19.09V196.9H1186.87V30.72C1186.87,31.86,1148.15,32.88,1104.58,33.67Z" style="fill:#d2cfe8"/><path d="M268,58.59c58.54,10.85,117.66,20.53,181.89,21.68,119.84,2.16,245.79-5,355.56-26,62.26-11.9,125.38-24.3,193.19-29a796.17,796.17,0,0,1,96-.91c10.06.53,92.26,6.22,92.26,11.07V282H0V25.25c25.52.19,51.24,1.1,77.64,3.62C144,34.18,205.68,47.05,268,58.59Z" style="fill:#9b99cb"/></svg>