<svg xmlns="http://www.w3.org/2000/svg" xmlns:xlink="http://www.w3.org/1999/xlink" viewBox="0 0 800 800"><defs><filter id="luminosity-noclip" x="658.41" y="-8632" width="3.01" height="32766" filterUnits="userSpaceOnUse" color-interpolation-filters="sRGB"><feFlood flood-color="#fff" result="bg"/><feBlend in="SourceGraphic" in2="bg"/></filter><mask id="mask" x="658.41" y="-8632" width="3.01" height="32766" maskUnits="userSpaceOnUse"><g style="filter:url(#luminosity-noclip)"/></mask><radialGradient id="radial-gradient" cx="778.85" cy="1079" r="6.53" gradientTransform="translate(-587.6 -136.4) rotate(-33.59)" gradientUnits="userSpaceOnUse"><stop offset="0" stop-color="#fff"/><stop offset="0.09" stop-color="#f4f4f4"/><stop offset="0.24" stop-color="#d8d8d8"/><stop offset="0.43" stop-color="#a9a9a9"/><stop offset="0.66" stop-color="#696969"/><stop offset="0.93" stop-color="#181818"/><stop offset="1"/></radialGradient><filter id="luminosity-noclip-2" x="89.65" y="-8632" width="3.67" height="32766" filterUnits="userSpaceOnUse" color-interpolation-filters="sRGB"><feFlood flood-color="#fff" result="bg"/><feBlend in="SourceGraphic" in2="bg"/></filter><mask id="mask-2" x="89.65" y="-8632" width="3.67" height="32766" maskUnits="userSpaceOnUse"><g style="filter:url(#luminosity-noclip-2)"/></mask><radialGradient id="radial-gradient-2" cx="-1065.83" cy="1364.91" r="9.08" gradientTransform="matrix(0.62, -0.54, 0.62, 0.59, -101.13, -1064.19)" xlink:href="#radial-gradient"/><filter id="luminosity-noclip-3" x="441.07" y="-8632" width="3.38" height="32766" filterUnits="userSpaceOnUse" color-interpolation-filters="sRGB"><feFlood flood-color="#fff" result="bg"/><feBlend in="SourceGraphic" in2="bg"/></filter><mask id="mask-3" x="441.07" y="-8632" width="3.38" height="32766" maskUnits="userSpaceOnUse"><g style="filter:url(#luminosity-noclip-3)"/></mask><radialGradient id="radial-gradient-3" cx="-1786.65" cy="372.68" r="7.33" gradientTransform="translate(2260.86 657.55) rotate(16.46)" xlink:href="#radial-gradient"/><radialGradient id="radial-gradient-4" cx="689.51" cy="319.7" r="34.07" gradientUnits="userSpaceOnUse"><stop offset="0" stop-color="#e5322f"/><stop offset="0.25" stop-color="#e1312e"/><stop offset="0.47" stop-color="#d72f2c"/><stop offset="0.69" stop-color="#c42c29"/><stop offset="0.9" stop-color="#ab2724"/><stop offset="0.93" stop-color="#a62623"/></radialGradient><radialGradient id="radial-gradient-5" cx="689.51" cy="319.7" r="34.07" gradientUnits="userSpaceOnUse"><stop offset="0" stop-color="#e5322f"/><stop offset="1" stop-color="#a62623"/></radialGradient><linearGradient id="linear-gradient" x1="676.9" y1="472.5" x2="662.9" y2="432.83" gradientUnits="userSpaceOnUse"><stop offset="0" stop-color="#f8dbc3"/><stop offset="0.3" stop-color="#eed2be"/><stop offset="0.63" stop-color="#e9cdbc"/><stop offset="1" stop-color="#daad8d"/></linearGradient><radialGradient id="radial-gradient-6" cx="673.1" cy="458.53" r="26.42" gradientUnits="userSpaceOnUse"><stop offset="0" stop-color="#f8dbc3"/><stop offset="0.3" stop-color="#eed2be"/><stop offset="0.63" stop-color="#e9cdbc"/><stop offset="0.73" stop-color="#e6c5b3"/><stop offset="0.9" stop-color="#deb19a"/><stop offset="1" stop-color="#d9a289"/></radialGradient><linearGradient id="Gold" x1="682.64" y1="470.2" x2="698.12" y2="470.2" gradientUnits="userSpaceOnUse"><stop offset="0" stop-color="#ffeaa8"/><stop offset="0.5" stop-color="#fdcb00"/><stop offset="1" stop-color="#f7ad04"/></linearGradient><linearGradient id="linear-gradient-2" x1="710.71" y1="460.57" x2="696.71" y2="420.9" xlink:href="#linear-gradient"/><radialGradient id="radial-gradient-7" cx="707.05" cy="448.49" r="25.35" xlink:href="#radial-gradient-6"/><linearGradient id="linear-gradient-3" x1="691.05" y1="465.39" x2="704.18" y2="465.39" gradientUnits="userSpaceOnUse"><stop offset="0" stop-color="#f7ad04"/><stop offset="0.5" stop-color="#fdcb00"/><stop offset="1" stop-color="#ffeaa8"/></linearGradient><radialGradient id="radial-gradient-8" cx="700.63" cy="376.41" r="56.63" gradientUnits="userSpaceOnUse"><stop offset="0" stop-color="#e5322f"/><stop offset="0.27" stop-color="#e1312e"/><stop offset="0.51" stop-color="#d72f2c"/><stop offset="0.74" stop-color="#c42c29"/><stop offset="0.97" stop-color="#ab2724"/><stop offset="1" stop-color="#a62623"/></radialGradient><radialGradient id="radial-gradient-9" cx="700.63" cy="376.41" r="56.63" xlink:href="#radial-gradient-5"/><linearGradient id="linear-gradient-4" x1="675.75" y1="361.48" x2="668.75" y2="347.15" xlink:href="#linear-gradient"/><radialGradient id="radial-gradient-10" cx="641.46" cy="368.64" r="20.25" xlink:href="#radial-gradient-8"/><radialGradient id="radial-gradient-11" cx="641.46" cy="368.64" r="20.25" xlink:href="#radial-gradient-5"/><radialGradient id="radial-gradient-12" cx="838.51" cy="759.43" r="16.31" gradientTransform="matrix(0.96, 0.26, -0.26, 0.96, -4.84, -567.92)" gradientUnits="userSpaceOnUse"><stop offset="0" stop-color="#150905"/><stop offset="1" stop-color="#573115"/></radialGradient><radialGradient id="radial-gradient-13" cx="841.12" cy="756.22" r="20.85" xlink:href="#radial-gradient-12"/><radialGradient id="radial-gradient-14" cx="844.09" cy="754.39" r="28.35" xlink:href="#radial-gradient-12"/><radialGradient id="radial-gradient-15" cx="847.11" cy="750.88" r="35.7" xlink:href="#radial-gradient-12"/><radialGradient id="radial-gradient-16" cx="840.91" cy="753.97" r="18.53" xlink:href="#radial-gradient-12"/><radialGradient id="radial-gradient-17" cx="843.95" cy="746.51" r="10.17" gradientTransform="matrix(0.96, 0.26, -0.26, 0.96, -4.84, -567.92)" xlink:href="#radial-gradient-5"/><radialGradient id="radial-gradient-18" cx="2716.84" cy="19.47" r="13.86" gradientTransform="matrix(1, 0.07, -0.07, 1, -2074.5, 170.84)" xlink:href="#radial-gradient-12"/><radialGradient id="radial-gradient-19" cx="2719.05" cy="16.74" r="17.72" gradientTransform="matrix(1, 0.07, -0.07, 1, -2074.5, 170.84)" xlink:href="#radial-gradient-12"/><radialGradient id="radial-gradient-20" cx="2721.58" cy="15.18" r="24.09" gradientTransform="matrix(1, 0.07, -0.07, 1, -2074.5, 170.84)" xlink:href="#radial-gradient-12"/><radialGradient id="radial-gradient-21" cx="2724.15" cy="12.2" r="30.33" gradientTransform="matrix(1, 0.07, -0.07, 1, -2074.5, 170.84)" xlink:href="#radial-gradient-12"/><radialGradient id="radial-gradient-22" cx="2718.88" cy="14.83" r="15.75" gradientTransform="matrix(1, 0.07, -0.07, 1, -2074.5, 170.84)" xlink:href="#radial-gradient-12"/><radialGradient id="radial-gradient-23" cx="2721.46" cy="8.49" r="8.64" gradientTransform="matrix(1, 0.07, -0.07, 1, -2074.5, 170.84)" xlink:href="#radial-gradient-5"/><radialGradient id="radial-gradient-24" cx="806.89" cy="1158.16" r="85.74" gradientTransform="translate(-621.77 -228.41) rotate(-30.92)" xlink:href="#radial-gradient-12"/><radialGradient id="radial-gradient-25" cx="806.9" cy="1158.16" r="85.75" gradientTransform="translate(-621.77 -228.41) rotate(-30.92)" xlink:href="#radial-gradient-12"/><radialGradient id="radial-gradient-26" cx="677.22" cy="1001" r="23.89" gradientTransform="translate(-491.69 131.02) rotate(-48.98)" xlink:href="#radial-gradient-6"/><radialGradient id="radial-gradient-27" cx="668.25" cy="1005.09" r="19.78" gradientTransform="translate(-491.69 131.02) rotate(-48.98)" xlink:href="#radial-gradient-6"/><radialGradient id="radial-gradient-28" cx="859.76" cy="1067.19" r="23.89" gradientTransform="matrix(-0.97, 0.22, 0.22, 0.97, 1199.93, -882.54)" xlink:href="#radial-gradient-6"/><radialGradient id="radial-gradient-29" cx="850.8" cy="1071.28" r="19.78" gradientTransform="matrix(-0.97, 0.22, 0.22, 0.97, 1199.93, -882.54)" xlink:href="#radial-gradient-6"/><radialGradient id="radial-gradient-30" cx="813.77" cy="1120.15" r="45.84" gradientTransform="translate(-621.77 -228.41) rotate(-30.92)" xlink:href="#radial-gradient-6"/><radialGradient id="radial-gradient-31" cx="754.46" cy="1153.98" r="16.35" gradientTransform="translate(-638.72 -204.89) rotate(-34.15)" xlink:href="#radial-gradient-12"/><radialGradient id="radial-gradient-32" cx="-2621.86" cy="1060.17" r="16.34" gradientTransform="matrix(-0.82, 0.57, 0.57, 0.82, -2091.23, 917.95)" xlink:href="#radial-gradient-12"/><radialGradient id="radial-gradient-33" cx="788.9" cy="1056.16" r="30.9" gradientTransform="translate(-584.37 -120.75) rotate(-34.57)" gradientUnits="userSpaceOnUse"><stop offset="0" stop-color="#fff"/><stop offset="0.21" stop-color="#f9eeea"/><stop offset="0.64" stop-color="#eac2b3"/><stop offset="0.75" stop-color="#e6b7a5"/><stop offset="0.82" stop-color="#e4b19f"/><stop offset="0.91" stop-color="#dda08e"/><stop offset="1" stop-color="#d48775"/></radialGradient><linearGradient id="linear-gradient-5" x1="790.03" y1="1077.91" x2="792.02" y2="1052.43" gradientTransform="translate(-584.37 -120.75) rotate(-34.57)" gradientUnits="userSpaceOnUse"><stop offset="0" stop-color="#fff"/><stop offset="0.78" stop-color="#ebebea"/><stop offset="1" stop-color="#e4e4e3"/></linearGradient><radialGradient id="radial-gradient-34" cx="600.04" cy="777.63" r="20.92" gradientTransform="translate(-182.32 -152.26) rotate(-23.95)" gradientUnits="userSpaceOnUse"><stop offset="0.23" stop-color="#1e274a"/><stop offset="1" stop-color="#0e5198"/></radialGradient><radialGradient id="radial-gradient-35" cx="597.89" cy="774.7" r="13.89" gradientTransform="translate(-182.32 -152.26) rotate(-23.95)" gradientUnits="userSpaceOnUse"><stop offset="0.25" stop-color="#064c57"/><stop offset="1" stop-color="#195f39"/></radialGradient><linearGradient id="linear-gradient-6" x1="583.04" y1="694.48" x2="576.99" y2="694.96" gradientTransform="matrix(0.92, -0.39, 0.39, 0.92, -135.87, -103.47)" xlink:href="#linear-gradient-5"/><radialGradient id="radial-gradient-36" cx="664.86" cy="1146.58" r="25.66" gradientTransform="matrix(0.74, -0.67, 0.67, 0.74, -627.53, -76.11)" xlink:href="#radial-gradient-33"/><linearGradient id="linear-gradient-7" x1="662.68" y1="1162" x2="665.75" y2="1136.7" gradientTransform="matrix(0.74, -0.67, 0.67, 0.74, -627.53, -76.11)" xlink:href="#linear-gradient-5"/><radialGradient id="radial-gradient-37" cx="521.56" cy="771.56" r="20.92" gradientTransform="translate(-168.26 -113.65) rotate(-27.13)" xlink:href="#radial-gradient-34"/><radialGradient id="radial-gradient-38" cx="519.42" cy="768.63" r="13.89" gradientTransform="translate(-168.26 -113.65) rotate(-27.13)" xlink:href="#radial-gradient-35"/><linearGradient id="linear-gradient-8" x1="504.1" y1="690.41" x2="498.05" y2="690.89" gradientTransform="translate(-119.21 -68.35) rotate(-26.28)" xlink:href="#linear-gradient-5"/><radialGradient id="radial-gradient-39" cx="10.08" cy="2004.4" r="12.48" gradientTransform="translate(-1266.32 -209.17) rotate(-74.16)" xlink:href="#radial-gradient-33"/><filter id="luminosity-noclip-4" x="658.41" y="330.17" width="3.01" height="3.01" filterUnits="userSpaceOnUse" color-interpolation-filters="sRGB"><feFlood flood-color="#fff" result="bg"/><feBlend in="SourceGraphic" in2="bg"/></filter><mask id="mask-4" x="658.41" y="330.17" width="3.01" height="3.01" maskUnits="userSpaceOnUse"><g style="mask:url(#mask);filter:url(#luminosity-noclip-4)"><path d="M661.17,330.85a1.5,1.5,0,1,1-2.09-.43A1.5,1.5,0,0,1,661.17,330.85Z" style="mix-blend-mode:multiply;fill:url(#radial-gradient)"/></g></mask><radialGradient id="radial-gradient-40" cx="778.85" cy="1079" r="6.53" gradientTransform="translate(-587.6 -136.4) rotate(-33.59)" gradientUnits="userSpaceOnUse"><stop offset="0" stop-color="#fff"/><stop offset="1" stop-color="#fff"/></radialGradient><radialGradient id="radial-gradient-41" cx="727.16" cy="1150.76" r="98.55" gradientTransform="translate(-608.19 -99.93) rotate(-39.29)" xlink:href="#radial-gradient-12"/><radialGradient id="radial-gradient-42" cx="811.8" cy="1143.79" r="84.83" gradientTransform="translate(-621.77 -228.41) rotate(-30.92)" xlink:href="#radial-gradient-33"/><radialGradient id="radial-gradient-43" cx="806.89" cy="1158.16" r="85.75" gradientTransform="translate(-621.77 -228.41) rotate(-30.92)" xlink:href="#radial-gradient-12"/><radialGradient id="radial-gradient-44" cx="819.05" cy="1092.57" r="39.81" gradientTransform="translate(-621.77 -228.41) rotate(-30.92)" xlink:href="#radial-gradient-12"/><linearGradient id="linear-gradient-9" x1="661.64" y1="332.29" x2="674.73" y2="347.55" gradientUnits="userSpaceOnUse"><stop offset="0.11" stop-color="#e65667"/><stop offset="1" stop-color="#3e140d"/></linearGradient><linearGradient id="linear-gradient-10" x1="661.24" y1="331.92" x2="675.15" y2="348.14" gradientTransform="matrix(1, 0, 0, 1, 0, 0)" xlink:href="#linear-gradient-5"/><linearGradient id="linear-gradient-11" x1="672.66" y1="347.56" x2="687.05" y2="359.78" gradientUnits="userSpaceOnUse"><stop offset="0.11" stop-color="#e65667"/><stop offset="1" stop-color="#ca1c19"/></linearGradient><linearGradient id="linear-gradient-12" x1="658.9" y1="1144.84" x2="659.74" y2="1147.6" gradientTransform="matrix(0.97, -0.58, 0.67, 1.12, -737.18, -541.94)" gradientUnits="userSpaceOnUse"><stop offset="0.1" stop-color="#f6baaf"/><stop offset="1" stop-color="#e84c5b"/></linearGradient><linearGradient id="linear-gradient-13" x1="697.37" y1="244.34" x2="701.24" y2="327.05" xlink:href="#linear-gradient"/><radialGradient id="radial-gradient-45" cx="703.42" cy="333.68" r="4.81" xlink:href="#radial-gradient-6"/><radialGradient id="radial-gradient-46" cx="705.32" cy="264.66" r="49.18" gradientTransform="matrix(1, 0, 0, 1, 0, 0)" xlink:href="#radial-gradient-33"/><linearGradient id="linear-gradient-14" x1="708.64" y1="409.22" x2="648.39" y2="377.04" xlink:href="#linear-gradient"/><radialGradient id="radial-gradient-47" cx="668.94" cy="388.19" r="23.73" xlink:href="#radial-gradient-6"/><radialGradient id="radial-gradient-48" cx="677.68" cy="364.33" r="61.41" gradientTransform="matrix(1, 0, 0, 1, 0, 0)" xlink:href="#radial-gradient-33"/><radialGradient id="radial-gradient-49" cx="705.41" cy="417.78" r="61.42" gradientTransform="translate(-47.91 -18.35) rotate(-2.75)" xlink:href="#radial-gradient-33"/><linearGradient id="linear-gradient-15" x1="200.99" y1="263.34" x2="215.78" y2="263.34" gradientUnits="userSpaceOnUse"><stop offset="0" stop-color="#c78066"/><stop offset="0.49" stop-color="#dba694"/><stop offset="0.59" stop-color="#dfab9a"/><stop offset="1" stop-color="#ecbcaf"/></linearGradient><radialGradient id="radial-gradient-50" cx="100.27" cy="359.15" r="9.5" gradientUnits="userSpaceOnUse"><stop offset="0" stop-color="#2565ae"/><stop offset="1" stop-color="#203c8a"/></radialGradient><radialGradient id="radial-gradient-51" cx="165.01" cy="309.31" r="10.82" xlink:href="#radial-gradient-50"/><radialGradient id="radial-gradient-52" cx="70.19" cy="356.08" r="29.33" xlink:href="#radial-gradient-6"/><radialGradient id="radial-gradient-53" cx="181.15" cy="286.26" r="30.79" xlink:href="#radial-gradient-6"/><linearGradient id="linear-gradient-16" x1="230.76" y1="252.82" x2="204.83" y2="260" gradientUnits="userSpaceOnUse"><stop offset="0" stop-color="#ecbcaf"/><stop offset="0.27" stop-color="#dda79a"/><stop offset="0.83" stop-color="#b57064"/><stop offset="1" stop-color="#a85e52"/></linearGradient><linearGradient id="linear-gradient-17" x1="231.93" y1="257.03" x2="206" y2="264.21" xlink:href="#linear-gradient-16"/><linearGradient id="linear-gradient-18" x1="232.8" y1="260.19" x2="206.87" y2="267.37" xlink:href="#linear-gradient-16"/><linearGradient id="linear-gradient-19" x1="233.45" y1="262.52" x2="207.52" y2="269.71" xlink:href="#linear-gradient-16"/><radialGradient id="radial-gradient-54" cx="131.58" cy="332.61" r="38.51" gradientUnits="userSpaceOnUse"><stop offset="0.19" stop-color="#349ad5"/><stop offset="1" stop-color="#2565ae"/></radialGradient><radialGradient id="radial-gradient-55" cx="131.58" cy="332.61" r="38.51" xlink:href="#radial-gradient-54"/><radialGradient id="radial-gradient-56" cx="157.1" cy="365.09" r="41.7" xlink:href="#radial-gradient-54"/><radialGradient id="radial-gradient-57" cx="157.1" cy="365.09" r="41.7" xlink:href="#radial-gradient-54"/><radialGradient id="radial-gradient-58" cx="160.49" cy="367.45" r="19.09" xlink:href="#radial-gradient-50"/><radialGradient id="radial-gradient-59" cx="160.69" cy="370.75" r="18.36" xlink:href="#radial-gradient-6"/><radialGradient id="radial-gradient-60" cx="191.1" cy="410.76" r="53.15" gradientUnits="userSpaceOnUse"><stop offset="0.36" stop-color="#595958"/><stop offset="1" stop-color="#14140e"/></radialGradient><radialGradient id="radial-gradient-61" cx="191.1" cy="410.76" r="53.15" xlink:href="#radial-gradient-60"/><radialGradient id="radial-gradient-62" cx="191.1" cy="410.76" r="53.15" xlink:href="#radial-gradient-60"/><radialGradient id="Super_Soft_Black_Vignette_2" cx="148.94" cy="400.79" r="9.61" gradientUnits="userSpaceOnUse"><stop offset="0.57" stop-color="#161412"/><stop offset="0.8" stop-color="#161412"/><stop offset="1" stop-color="#161412"/></radialGradient><radialGradient id="Super_Soft_Black_Vignette_2-2" cx="195.93" cy="376.76" r="9.08" xlink:href="#Super_Soft_Black_Vignette_2"/><radialGradient id="radial-gradient-63" cx="137.77" cy="420.51" r="20.08" xlink:href="#radial-gradient-6"/><radialGradient id="radial-gradient-64" cx="198" cy="401.62" r="29.18" xlink:href="#radial-gradient-6"/><radialGradient id="radial-gradient-65" cx="197.05" cy="440.49" r="39.31" gradientUnits="userSpaceOnUse"><stop offset="0" stop-color="#e41b26"/><stop offset="0.22" stop-color="#de1b26"/><stop offset="0.49" stop-color="#cf1a24"/><stop offset="0.79" stop-color="#b51a23"/><stop offset="1" stop-color="#9f1921"/></radialGradient><radialGradient id="radial-gradient-66" cx="198.55" cy="444.76" r="39.55" gradientUnits="userSpaceOnUse"><stop offset="0" stop-color="#e41b26"/><stop offset="0.01" stop-color="#e21b26"/><stop offset="0.27" stop-color="#c51a24"/><stop offset="0.52" stop-color="#b01922"/><stop offset="0.77" stop-color="#a31921"/><stop offset="1" stop-color="#9f1921"/></radialGradient><radialGradient id="radial-gradient-67" cx="101.1" cy="440.5" r="39.89" xlink:href="#radial-gradient-65"/><radialGradient id="radial-gradient-68" cx="95.52" cy="447.27" fx="79.2680882878609" r="40.35" gradientUnits="userSpaceOnUse"><stop offset="0" stop-color="#e41b26"/><stop offset="0.21" stop-color="#ce1a24"/><stop offset="0.51" stop-color="#b41a23"/><stop offset="0.78" stop-color="#a51921"/><stop offset="1" stop-color="#9f1921"/></radialGradient><linearGradient id="Skintone_2" x1="143.7" y1="340.99" x2="131.95" y2="328.24" gradientUnits="userSpaceOnUse"><stop offset="0" stop-color="#ecbcaf"/><stop offset="0.41" stop-color="#dfab9a"/><stop offset="0.51" stop-color="#dba694"/><stop offset="1" stop-color="#c78066"/></linearGradient><radialGradient id="radial-gradient-69" cx="-590.52" cy="2000.15" r="21.14" gradientTransform="matrix(0.81, -0.27, 0.33, 0.75, -125.14, -1339.4)" gradientUnits="userSpaceOnUse"><stop offset="0" stop-color="#ecbcaf"/><stop offset="0.61" stop-color="#dfab9a"/><stop offset="0.75" stop-color="#dba694"/><stop offset="0.81" stop-color="#d8a08e"/><stop offset="0.9" stop-color="#d18f7d"/><stop offset="1" stop-color="#c57261"/><stop offset="1" stop-color="#c47160"/></radialGradient><linearGradient id="linear-gradient-20" x1="-551.68" y1="2016.86" x2="-542.93" y2="2007.59" gradientTransform="matrix(0.98, -0.21, 0.21, 0.98, 163.06, -1760.04)" xlink:href="#linear-gradient-16"/><radialGradient id="radial-gradient-70" cx="-14389.8" cy="1136.41" r="58.85" gradientTransform="matrix(0.62, -0.54, 0.59, 0.55, 8325.45, -8145.58)" xlink:href="#radial-gradient-6"/><radialGradient id="radial-gradient-71" cx="-14389.8" cy="1136.32" r="58.83" gradientTransform="matrix(0.62, -0.54, 0.59, 0.55, 8325.45, -8145.58)" gradientUnits="userSpaceOnUse"><stop offset="0" stop-color="#fff"/><stop offset="0.3" stop-color="#fefdfd"/><stop offset="0.46" stop-color="#fbf6f5"/><stop offset="0.58" stop-color="#f6eae7"/><stop offset="0.69" stop-color="#efd9d4"/><stop offset="0.78" stop-color="#e6c3bc"/><stop offset="0.87" stop-color="#dba89d"/><stop offset="0.95" stop-color="#ce887a"/><stop offset="1" stop-color="#c47160"/></radialGradient><radialGradient id="radial-gradient-72" cx="-1042.53" cy="1430.62" r="166.17" gradientTransform="matrix(0.62, -0.54, 0.62, 0.59, -101.13, -1064.19)" xlink:href="#radial-gradient-12"/><radialGradient id="radial-gradient-73" cx="-1042.52" cy="1430.56" r="166.14" gradientTransform="matrix(0.62, -0.54, 0.62, 0.59, -101.13, -1064.19)" gradientUnits="userSpaceOnUse"><stop offset="0.43" stop-color="#4c0d1c"/><stop offset="0.53" stop-color="#5b0e1c"/><stop offset="0.74" stop-color="#81121c"/><stop offset="1" stop-color="#ba181d"/></radialGradient><radialGradient id="radial-gradient-74" cx="-705.78" cy="1836.15" r="27.68" gradientTransform="matrix(0.75, -0.39, 0.46, 0.7, -145.49, -1274.67)" xlink:href="#radial-gradient-69"/><linearGradient id="linear-gradient-21" x1="-1035.33" y1="1497.09" x2="-1043.38" y2="1479.16" gradientTransform="translate(221.69 -1520.21) rotate(-32.88)" xlink:href="#linear-gradient-16"/><radialGradient id="radial-gradient-75" cx="-895.24" cy="1207.63" r="38.83" gradientTransform="matrix(0.76, -0.36, 0.43, 0.71, 248.14, -919.94)" gradientUnits="userSpaceOnUse"><stop offset="0.32" stop-color="#4c0d1c"/><stop offset="0.72" stop-color="#4f0e1c"/><stop offset="1" stop-color="#57101d"/></radialGradient><radialGradient id="radial-gradient-76" cx="-901.26" cy="1289.03" r="40.39" gradientTransform="matrix(0.7, -0.45, 0.53, 0.66, 51.78, -974.71)" gradientUnits="userSpaceOnUse"><stop offset="0" stop-color="#fff"/><stop offset="0.18" stop-color="#f8edea"/><stop offset="0.55" stop-color="#e5c0b3"/><stop offset="0.75" stop-color="#dba694"/><stop offset="0.81" stop-color="#d8a08e"/><stop offset="0.9" stop-color="#d18f7d"/><stop offset="1" stop-color="#c57261"/><stop offset="1" stop-color="#c47160"/></radialGradient><linearGradient id="linear-gradient-22" x1="-1280.84" y1="1387.75" x2="-1272.92" y2="1364.01" gradientTransform="matrix(0.72, -0.69, 0.69, 0.72, 68.46, -1582.94)" gradientUnits="userSpaceOnUse"><stop offset="0" stop-color="#fff"/><stop offset="0.66" stop-color="#eaeaea"/><stop offset="1" stop-color="#ddd"/></linearGradient><radialGradient id="radial-gradient-77" cx="-986.17" cy="1261.39" r="18.87" gradientTransform="matrix(0.74, -0.4, 0.47, 0.69, 234.27, -983.36)" gradientUnits="userSpaceOnUse"><stop offset="0.27" stop-color="#1d4461"/><stop offset="1" stop-color="#0d2333"/></radialGradient><radialGradient id="radial-gradient-78" cx="-996.53" cy="1342.58" r="13.38" gradientTransform="matrix(0.64, -0.53, 0.6, 0.6, -70.83, -1044.08)" gradientUnits="userSpaceOnUse"><stop offset="0.27" stop-color="#1d4461"/><stop offset="0.48" stop-color="#1b415d"/><stop offset="0.7" stop-color="#173850"/><stop offset="0.94" stop-color="#0f283a"/><stop offset="1" stop-color="#0d2333"/></radialGradient><linearGradient id="linear-gradient-23" x1="-1211.56" y1="1328.56" x2="-1217.76" y2="1329.06" gradientTransform="matrix(0.91, -0.42, 0.42, 0.91, 639.23, -1426.75)" xlink:href="#linear-gradient-22"/><radialGradient id="radial-gradient-79" cx="-935.67" cy="1227.41" r="20.13" xlink:href="#radial-gradient-75"/><radialGradient id="radial-gradient-80" cx="-939.23" cy="1294.76" r="27.54" xlink:href="#radial-gradient-76"/><linearGradient id="linear-gradient-24" x1="-1315.77" y1="1377.36" x2="-1307.58" y2="1357.76" xlink:href="#linear-gradient-22"/><radialGradient id="radial-gradient-81" cx="-977.31" cy="1229.53" r="17.58" gradientTransform="matrix(0.77, -0.35, 0.42, 0.72, 303.08, -923.89)" xlink:href="#radial-gradient-77"/><radialGradient id="radial-gradient-82" cx="-982.82" cy="1313.29" r="12.46" gradientTransform="matrix(0.67, -0.48, 0.56, 0.64, 2.43, -1003.58)" xlink:href="#radial-gradient-78"/><linearGradient id="linear-gradient-25" x1="-1189.82" y1="1305.33" x2="-1195.64" y2="1305.79" gradientTransform="matrix(0.93, -0.36, 0.36, 0.93, 709.58, -1338.96)" xlink:href="#linear-gradient-22"/><radialGradient id="radial-gradient-83" cx="-1195.51" cy="991.74" r="43.68" gradientTransform="matrix(0.49, -0.65, 0.73, 0.47, -47.87, -920)" xlink:href="#radial-gradient-76"/><linearGradient id="linear-gradient-26" x1="-1379" y1="983.47" x2="-1357.54" y2="996.72" gradientTransform="matrix(0.77, -0.63, 0.63, 0.77, 545.71, -1308.66)" gradientUnits="userSpaceOnUse"><stop offset="0.11" stop-color="#d83d54"/><stop offset="1" stop-color="#2d110c"/></linearGradient><linearGradient id="linear-gradient-27" x1="-1369.69" y1="993.43" x2="-1368.69" y2="983.23" gradientTransform="matrix(0.77, -0.63, 0.63, 0.77, 545.71, -1308.66)" xlink:href="#linear-gradient-22"/><linearGradient id="linear-gradient-28" x1="-1366.96" y1="1000.89" x2="-1364.96" y2="992.55" gradientTransform="matrix(0.77, -0.63, 0.63, 0.77, 545.71, -1308.66)" gradientUnits="userSpaceOnUse"><stop offset="0.11" stop-color="#d83d54"/><stop offset="1" stop-color="#b61919"/></linearGradient><linearGradient id="linear-gradient-29" x1="-1373.85" y1="992.84" x2="-1370.81" y2="1001.11" gradientTransform="matrix(0.77, -0.63, 0.63, 0.77, 545.71, -1308.66)" gradientUnits="userSpaceOnUse"><stop offset="0.1" stop-color="#f0a99e"/><stop offset="1" stop-color="#da3449"/></linearGradient><radialGradient id="radial-gradient-84" cx="-1055.91" cy="1372.89" r="21.36" gradientTransform="matrix(0.62, -0.54, 0.62, 0.59, -101.13, -1064.19)" xlink:href="#radial-gradient-76"/><filter id="luminosity-noclip-5" x="89.65" y="314.91" width="3.67" height="3.35" filterUnits="userSpaceOnUse" color-interpolation-filters="sRGB"><feFlood flood-color="#fff" result="bg"/><feBlend in="SourceGraphic" in2="bg"/></filter><mask id="mask-5" x="89.65" y="314.91" width="3.67" height="3.35" maskUnits="userSpaceOnUse"><g style="mask:url(#mask-2);filter:url(#luminosity-noclip-5)"><path d="M92.78,315.44a1.58,1.58,0,0,1,0,2.37,2,2,0,0,1-2.6-.09,1.57,1.57,0,0,1,0-2.37A2,2,0,0,1,92.78,315.44Z" style="mix-blend-mode:multiply;fill:url(#radial-gradient-2)"/></g></mask><radialGradient id="radial-gradient-85" cx="-1065.83" cy="1364.91" r="9.08" gradientTransform="matrix(0.62, -0.54, 0.62, 0.59, -101.13, -1064.19)" xlink:href="#radial-gradient-40"/><radialGradient id="radial-gradient-86" cx="517.05" cy="576.65" r="38.42" gradientUnits="userSpaceOnUse"><stop offset="0" stop-color="#d27e1d"/><stop offset="0.18" stop-color="#d4821d"/><stop offset="0.38" stop-color="#d9901c"/><stop offset="0.58" stop-color="#e2a61a"/><stop offset="0.79" stop-color="#eec417"/><stop offset="1" stop-color="#fdea14"/></radialGradient><linearGradient id="linear-gradient-30" x1="370.31" y1="574.02" x2="447.98" y2="627.35" gradientUnits="userSpaceOnUse"><stop offset="0" stop-color="#4c0d1c"/><stop offset="0.19" stop-color="#5b0e1c"/><stop offset="0.55" stop-color="#81121c"/><stop offset="1" stop-color="#ba181d"/></linearGradient><linearGradient id="linear-gradient-31" x1="361.68" y1="586.76" x2="439.35" y2="640.09" xlink:href="#linear-gradient-30"/><linearGradient id="linear-gradient-32" x1="372.06" y1="571.48" x2="449.73" y2="624.81" xlink:href="#linear-gradient-30"/><radialGradient id="radial-gradient-87" cx="393.34" cy="460.25" r="67.12" xlink:href="#radial-gradient-6"/><radialGradient id="radial-gradient-88" cx="390.81" cy="463.51" r="24.03" gradientTransform="matrix(1, 0, 0, 1, 0, 0)" xlink:href="#radial-gradient-76"/><linearGradient id="linear-gradient-33" x1="430.56" y1="536.49" x2="419.81" y2="548.86" gradientUnits="userSpaceOnUse"><stop offset="0" stop-color="#652680"/><stop offset="1" stop-color="#75378a"/></linearGradient><linearGradient id="linear-gradient-34" x1="431.35" y1="537.18" x2="420.6" y2="549.55" xlink:href="#linear-gradient-33"/><linearGradient id="linear-gradient-35" x1="410.51" y1="559.82" x2="469.74" y2="587.74" gradientUnits="userSpaceOnUse"><stop offset="0" stop-color="#652680"/><stop offset="0.72" stop-color="#871f80"/></linearGradient><linearGradient id="linear-gradient-36" x1="411.49" y1="557.81" x2="470.69" y2="585.72" xlink:href="#linear-gradient-33"/><radialGradient id="radial-gradient-89" cx="435.98" cy="570.84" r="33.26" gradientUnits="userSpaceOnUse"><stop offset="0" stop-color="#f8dbc3"/><stop offset="0.17" stop-color="#eed2be"/><stop offset="0.37" stop-color="#e9cdbc"/><stop offset="0.51" stop-color="#e2baa5"/><stop offset="0.68" stop-color="#dba891"/><stop offset="0.79" stop-color="#d9a289"/></radialGradient><radialGradient id="radial-gradient-90" cx="515.77" cy="576.87" r="38.42" gradientUnits="userSpaceOnUse"><stop offset="0" stop-color="#fdea14"/><stop offset="0.21" stop-color="#eec417"/><stop offset="0.42" stop-color="#e2a61a"/><stop offset="0.62" stop-color="#d9901c"/><stop offset="0.82" stop-color="#d4821d"/><stop offset="1" stop-color="#d27e1d"/></radialGradient><radialGradient id="radial-gradient-91" cx="461.64" cy="461.27" r="109.91" gradientUnits="userSpaceOnUse"><stop offset="0" stop-color="#783120"/><stop offset="1" stop-color="#320c17"/></radialGradient><radialGradient id="radial-gradient-92" cx="467.91" cy="511.7" r="45.44" xlink:href="#radial-gradient-6"/><radialGradient id="radial-gradient-94" cx="474.22" cy="410.61" r="143.03" gradientUnits="userSpaceOnUse"><stop offset="0" stop-color="#fdea14"/><stop offset="0.17" stop-color="#fbe514"/><stop offset="0.37" stop-color="#f5d516"/><stop offset="0.6" stop-color="#ebbc18"/><stop offset="0.84" stop-color="#dd991b"/><stop offset="1" stop-color="#d27e1d"/></radialGradient><radialGradient id="radial-gradient-95" cx="461.64" cy="461.27" r="109.91" xlink:href="#radial-gradient-91"/><radialGradient id="radial-gradient-96" cx="510.64" cy="551.68" r="13.08" gradientTransform="matrix(1, 0, 0, 1, 0, 0)" xlink:href="#radial-gradient-76"/><radialGradient id="radial-gradient-97" cx="419.38" cy="704.04" r="93.4" xlink:href="#radial-gradient-6"/><radialGradient id="radial-gradient-98" cx="342.22" cy="674.56" r="92.53" xlink:href="#radial-gradient-6"/><radialGradient id="radial-gradient-99" cx="-1931.95" cy="510.97" r="31.33" gradientTransform="matrix(1.13, 0.93, -0.47, 1.06, 2902.58, 1724.94)" xlink:href="#radial-gradient-75"/><radialGradient id="radial-gradient-100" cx="-1791.21" cy="586.46" r="32.59" gradientTransform="matrix(1.09, 0.31, -0.38, 0.99, 2641.77, 476.46)" xlink:href="#radial-gradient-76"/><linearGradient id="linear-gradient-37" x1="-1679.13" y1="475.91" x2="-1670.81" y2="450.96" gradientTransform="translate(2197.97 350.15) rotate(10.21)" xlink:href="#linear-gradient-22"/><radialGradient id="radial-gradient-101" cx="-1927.26" cy="624.54" r="15.22" gradientTransform="matrix(1.05, 0.39, -0.46, 0.97, 2793.68, 642.46)" gradientUnits="userSpaceOnUse"><stop offset="0.27" stop-color="#46100d"/><stop offset="1" stop-color="#753f1e"/></radialGradient><radialGradient id="radial-gradient-102" cx="-1799.76" cy="537.58" r="10.8" gradientTransform="matrix(1.12, 0.2, -0.26, 1.02, 2630.61, 309.89)" xlink:href="#radial-gradient-78"/><linearGradient id="linear-gradient-38" x1="-1881.53" y1="593.91" x2="-1888.25" y2="594.44" gradientTransform="translate(2404.68 903.52) rotate(29.05)" xlink:href="#linear-gradient-22"/><radialGradient id="radial-gradient-103" cx="-1684.72" cy="646.57" r="16.24" gradientTransform="matrix(1.1, 0.43, -0.2, 1.05, 2432.4, 520.7)" xlink:href="#radial-gradient-75"/><radialGradient id="radial-gradient-104" cx="-1842.62" cy="410.28" r="22.22" gradientTransform="matrix(0.94, 0.4, -0.44, 0.86, 2363.1, 871.14)" xlink:href="#radial-gradient-76"/><linearGradient id="linear-gradient-39" x1="-1795.66" y1="368.03" x2="-1787.81" y2="349.23" gradientTransform="translate(2260.86 657.55) rotate(16.46)" xlink:href="#linear-gradient-22"/><radialGradient id="radial-gradient-105" cx="-1995.19" cy="480.39" r="14.18" gradientTransform="matrix(0.87, 0.52, -0.56, 0.8, 2457.57, 1133.47)" xlink:href="#radial-gradient-101"/><radialGradient id="radial-gradient-106" cx="-1839.5" cy="382.77" r="10.06" gradientTransform="matrix(0.96, 0.35, -0.39, 0.88, 2366.08, 808.6)" xlink:href="#radial-gradient-78"/><linearGradient id="linear-gradient-40" x1="-2020.73" y1="558.74" x2="-2026.37" y2="559.18" gradientTransform="translate(2364.73 1335.43) rotate(39.09)" xlink:href="#linear-gradient-22"/><radialGradient id="radial-gradient-107" cx="-1695.49" cy="-97.21" r="35.23" gradientTransform="translate(2123.56 720.39) rotate(3.85)" xlink:href="#radial-gradient-76"/><linearGradient id="linear-gradient-41" x1="-1919.73" y1="34.7" x2="-1899.62" y2="47.11" gradientTransform="matrix(0.94, 0.33, -0.33, 0.94, 2259.78, 1128.25)" xlink:href="#linear-gradient-26"/><linearGradient id="linear-gradient-42" x1="-1910.88" y1="44.44" x2="-1909.83" y2="33.76" gradientTransform="matrix(0.94, 0.33, -0.33, 0.94, 2259.78, 1128.25)" xlink:href="#linear-gradient-22"/><linearGradient id="linear-gradient-43" x1="-1908.84" y1="51.42" x2="-1906.74" y2="42.68" gradientTransform="matrix(0.94, 0.33, -0.33, 0.94, 2259.78, 1128.25)" xlink:href="#linear-gradient-28"/><linearGradient id="linear-gradient-44" x1="-1915.4" y1="43.97" x2="-1912.6" y2="51.57" gradientTransform="matrix(0.94, 0.33, -0.33, 0.94, 2259.78, 1128.25)" xlink:href="#linear-gradient-29"/><radialGradient id="radial-gradient-108" cx="-1778.65" cy="379.12" r="17.23" gradientTransform="translate(2260.86 657.55) rotate(16.46)" xlink:href="#radial-gradient-76"/><filter id="luminosity-noclip-6" x="441.07" y="508.78" width="3.38" height="3.38" filterUnits="userSpaceOnUse" color-interpolation-filters="sRGB"><feFlood flood-color="#fff" result="bg"/><feBlend in="SourceGraphic" in2="bg"/></filter><mask id="mask-6" x="441.07" y="508.78" width="3.38" height="3.38" maskUnits="userSpaceOnUse"><g style="mask:url(#mask-3);filter:url(#luminosity-noclip-6)"><path d="M444.38,511a1.69,1.69,0,1,1-1.14-2.1A1.68,1.68,0,0,1,444.38,511Z" style="mix-blend-mode:multiply;fill:url(#radial-gradient-3)"/></g></mask><radialGradient id="radial-gradient-109" cx="-1786.65" cy="372.68" r="7.33" gradientTransform="translate(2260.86 657.55) rotate(16.46)" xlink:href="#radial-gradient-40"/><radialGradient id="radial-gradient-110" cx="400.56" cy="539.4" r="50.15" xlink:href="#radial-gradient-6"/><linearGradient id="linear-gradient-45" x1="460.6" y1="576.51" x2="452.22" y2="557.63" xlink:href="#linear-gradient-33"/><linearGradient id="linear-gradient-46" x1="460.6" y1="576.51" x2="452.22" y2="557.63" xlink:href="#linear-gradient-33"/></defs><title>jungle room</title><g style="isolation:isolate"><g id="objects"><path d="M615.2,628.65a2.5,2.5,0,0,1-2.33-1.59c-.35-.9-8.46-22.53,6.46-52.88,3.71-7.54,8.69-17.43,13.95-27.9C649,515,668.65,476,673.27,462.51a2.5,2.5,0,0,1,4.73,1.63c-4.73,13.8-24.43,52.94-40.25,84.39-5.26,10.46-10.23,20.34-13.93,27.86-7.26,14.77-8.59,27.26-8.42,35.14a45.17,45.17,0,0,0,2.13,13.72,2.49,2.49,0,0,1-1.43,3.23A2.39,2.39,0,0,1,615.2,628.65Z" style="fill:#228665"/><path d="M699.33,332.11l.32-4.58s12,5.73,10.3,19.47h-4.37S698.71,343.35,699.33,332.11Z" style="fill:#751611"/><path d="M683.9,352.43c.87.82,1.68,1.68,2.47,2.56,10.46.45,23.58-8,23.58-8-7.39-6.25-10.3-19.47-10.3-19.47-6,9.83-17.61,17.82-21.89,20.54A36.89,36.89,0,0,1,683.9,352.43Z" style="fill:url(#radial-gradient-4)"/><path d="M683.9,352.43c.87.82,1.68,1.68,2.47,2.56,10.46.45,23.58-8,23.58-8a25.94,25.94,0,0,1-5.6-7.17c-3.4,3.42-7.07,6.3-12,7.66-3.39.94-7.28,1.88-10.83,1.6a9.92,9.92,0,0,1-3.75-1.06l-.06,0A36.89,36.89,0,0,1,683.9,352.43Z" style="opacity:0.5;mix-blend-mode:multiply;fill:url(#radial-gradient-5)"/><path d="M714.54,415.61c.41-.1,4.58,2.3,4.58,2.3s-.94,3.95-8.44,8.74c-6.64,4.24-15.35,10.08-17.61,7.34C688.72,428.73,714.54,415.61,714.54,415.61Z" style="fill:#295529"/><path d="M671.23,435.29l.93,4.88s-13.95,4.7-24.78-2.48c0,0,2.81-2.76,5.62-3S671.23,435.29,671.23,435.29Z" style="fill:#295529"/><path d="M650.52,430.91s-2.88,10.42-2.38,18.5,3.66,13.84,34.5,15.25a53,53,0,0,0,4.66,16.25c3.92,8.08,13,7.75,10.34-5.83s-5.25-21.58-8.34-20.92a8.71,8.71,0,0,0-4.91,3.67,159.57,159.57,0,0,1-15.5-4.09c-6-2.08-7.84-3.41-4.59-16.41l1.25-3.42S658,430,650.52,430.91Z" style="fill:url(#linear-gradient)"/><path d="M661.48,441.15l1.8.77c.25-1.35.59-2.86,1-4.59l1.25-3.42s-7.57-3.91-15-3c0,0-.92,3.32-1.63,7.67A32,32,0,0,1,661.48,441.15Z" style="opacity:0.5;mix-blend-mode:multiply;fill:url(#radial-gradient-6)"/><path d="M697.64,475.08c-2.67-13.59-5.25-21.58-8.34-20.92a8.71,8.71,0,0,0-4.91,3.67s-4.39-.93-9.08-2.17a9.64,9.64,0,0,1-1.7,6.1,8.67,8.67,0,0,1-2.15,2.08c3.25.35,6.95.63,11.18.82a53,53,0,0,0,4.66,16.25C691.22,489,700.3,488.66,697.64,475.08Z" style="fill:#edecec"/><path d="M697.64,475.08c-2.67-13.59-5.25-21.58-8.34-20.92a8.41,8.41,0,0,0-4.65,3.28,6.27,6.27,0,0,1,2.29,6,.63.63,0,0,1-.62.47,6.76,6.76,0,0,0-2.61-.07,1.9,1.9,0,0,0-1.07.87,53.05,53.05,0,0,0,4.66,16.19C691.22,489,700.3,488.66,697.64,475.08Z" style="fill:url(#Gold)"/><path d="M700.55,423.08c1.42,1.25,11.58,12.75,11.25,14.75s-12,13.08-12.83,13.08-7.92-3.75-7.92,6.17,3.42,24.17,8.92,23.46,4.5-11.14,3.17-22c0,0,16.08-10.69,19.25-18.36s-5.75-18.59-10.25-23.76Z" style="fill:url(#linear-gradient-2)"/><path d="M705.12,428.11a55,55,0,0,1,9.15-6.25c.54-.3,1.08-.6,1.62-.88-1.35-1.77-2.68-3.34-3.75-4.57l-11.59,6.67C701.11,423.57,703,425.65,705.12,428.11Z" style="opacity:0.5;mix-blend-mode:multiply;fill:url(#radial-gradient-7)"/><path d="M708,455a9.5,9.5,0,0,1-2.52-2.79,15.25,15.25,0,0,1-1.67-5.42c-2.42,2.29-4.52,4.1-4.86,4.1-.83,0-7.92-3.75-7.92,6.17s3.42,24.17,8.92,23.46,4.5-11.14,3.17-22C703.14,458.53,705.22,457.14,708,455Z" style="fill:#edecec"/><path d="M700.53,458.69c-.65.09-1.71.56-2.3,0-1.67-1.67-.37-5.26.54-7.78-1.39-.34-7.72-3.18-7.72,6.2,0,9.91,3.42,24.17,8.92,23.46s4.53-10.79,3.23-21.45A4.16,4.16,0,0,0,700.53,458.69Z" style="fill:url(#linear-gradient-3)"/><path d="M657.38,413.32l-3.33,2.51s-2.82,1.75-1,3.52c0,0-2.91.85-5.62,18.34a35.93,35.93,0,0,1,14.79,0c8.53,1.66,9.37,3.12,10.3,2.18s3.13-13.32,8.12-13.95,10.52,6.35,11.35,7.29,1.25,1.77,4.9-2.08,14.68-10.62,22.28-13.22A44.33,44.33,0,0,0,704.85,405a3.32,3.32,0,0,1-1.13-2.34c-.13-1.6-17.09.88-17.4,1.09S657.38,413.32,657.38,413.32Z" style="fill:#008b3b"/><path d="M687.54,426.23c-2.51-1.49-6.12-3-8.64-.62-2.76,2.56-3.89,6.66-5,10.38,1.3-4,3.38-9.65,6.71-10.07,5-.62,10.52,6.35,11.35,7.29.69.77,1.1,1.47,3.27-.47A34.57,34.57,0,0,0,687.54,426.23Z" style="fill:#008b3b;opacity:0.5;mix-blend-mode:multiply"/><path d="M647.38,437.69a33.46,33.46,0,0,1,10-.64c.56-1.36,1.15-2.71,1.8-4,2.21-4.47,5.61-10.84,10.84-12.28,3.55-1,7.21-1.39,10.75-2.46a82.8,82.8,0,0,0,10.81-4c5.17-2.39,9.75-5.79,12.35-10.79a3.37,3.37,0,0,1-.17-.84c-.13-1.6-17.09.88-17.4,1.09s-28.94,9.57-28.94,9.57l-3.33,2.51s-2.82,1.75-1,3.52C653,419.35,650.09,420.2,647.38,437.69Z" style="fill:#008b3b;opacity:0.5;mix-blend-mode:multiply"/><path d="M699.59,406.66a5.93,5.93,0,0,0,5.18,2.32,10,10,0,0,0,4.35-1.22,39.24,39.24,0,0,0-4.27-2.76,3.32,3.32,0,0,1-1.13-2.34c-.05-.58-2.31-.62-5.19-.43A7.65,7.65,0,0,0,699.59,406.66Z" style="fill:#5cac34"/><path d="M650.52,423.72c4.18.27,9.47-2.86,9.63-6.72a14,14,0,0,0-.54-4.41l-2.23.73-3.33,2.51s-2.82,1.75-1,3.52C653,419.35,652,419.66,650.52,423.72Z" style="fill:#5cac34"/><path d="M669.55,348.33s-10.5,4.33-13.5,22.83-2,44.67-2,44.67,13.41,7.93,32,0c14.83-6.34,17.67-13.17,17.67-13.17s-2.48-41.17-24.91-54.33C678.81,348.33,674.88,341.66,669.55,348.33Z" style="fill:url(#radial-gradient-8)"/><path d="M663.58,384.52a82.2,82.2,0,0,1,3.69-18.78c.82-2.4,2.05-5.62,4.22-7.26a12.21,12.21,0,0,1-2.56-2.93,15.3,15.3,0,0,1-2.28-5.36c-3.34,2.68-8.61,8.72-10.6,21-3,18.5-2,44.67-2,44.67a30.48,30.48,0,0,0,11.18,3.28A132.09,132.09,0,0,1,663.58,384.52Z" style="mix-blend-mode:multiply;fill:url(#radial-gradient-9)"/><path d="M664.35,350s3.23,13.52,10.83,9.78c6.35-3.12-1.57-15.35-1.57-15.35Z" style="fill:url(#linear-gradient-4)"/><path d="M652.27,379.9l4.06,7.5s-5.2,5.72-15,0C641.34,387.4,643.42,379.07,652.27,379.9Z" style="fill:#751611"/><path d="M661,356.8s-4.26,9.57-4.68,30.6c0,0-9-9.37-15,0C641.34,387.4,646.13,364,661,356.8Z" style="fill:url(#radial-gradient-10)"/><path d="M652.53,375c-.75,2.34-1.39,5.14-3,7a15.09,15.09,0,0,1-1.27,1.26c4.32.18,8.12,4.16,8.12,4.16.38-19,3.9-28.66,4.57-30.33C656.67,362.27,654.55,368.62,652.53,375Z" style="mix-blend-mode:multiply;fill:url(#radial-gradient-11)"/><path d="M609.88,378.87a8.64,8.64,0,0,0,1-3.31c.15-1.06.24-2.13.32-3.2a40.44,40.44,0,0,0-4.39,1,4.65,4.65,0,0,0-3,2.38,5.71,5.71,0,0,0,.25,4.08,7,7,0,0,0,4.15.45A3.33,3.33,0,0,0,609.88,378.87Z" style="fill:url(#radial-gradient-12)"/><path d="M615.28,374.34a10.86,10.86,0,0,0,1.29-4.23c.2-1.36.32-2.72.41-4.08a48.72,48.72,0,0,0-5.6,1.26,6,6,0,0,0-3.88,3c-.72,1.62-.23,3.62.32,5.22a9.05,9.05,0,0,0,5.31.57A4.29,4.29,0,0,0,615.28,374.34Z" style="fill:url(#radial-gradient-13)"/><path d="M622,369.84a15.06,15.06,0,0,0,1.76-5.75c.27-1.84.42-3.7.56-5.55a63.78,63.78,0,0,0-7.63,1.72,8.05,8.05,0,0,0-5.26,4.13c-1,2.2-.33,4.92.42,7.1,0,0,3.76,1.7,7.23.76A5.76,5.76,0,0,0,622,369.84Z" style="fill:url(#radial-gradient-14)"/><path d="M629.14,363.81a18.86,18.86,0,0,0,2.21-7.24c.35-2.32.54-4.65.71-7a82.27,82.27,0,0,0-9.6,2.16c-2.79.88-5.39,2.45-6.63,5.21s-.41,6.19.53,8.93c0,0,4.73,2.15,9.1,1A7.25,7.25,0,0,0,629.14,363.81Z" style="fill:url(#radial-gradient-15)"/><path d="M603.2,378.41a7.24,7.24,0,0,0-6.41,1,19,19,0,0,0-4.93,4.35c-.6.35,1.07.37,2.21,0a5.25,5.25,0,0,0-2.72,3.49l3.56-1.5c.42-.18-2.9,1.25-3.69,3.88a10.57,10.57,0,0,0,9-2.65,18.94,18.94,0,0,1-2.17,2.32c-.63.42,6.92-.72,7.29-7.93Z" style="fill:url(#radial-gradient-16)"/><path d="M606.1,381.18a1,1,0,0,1-1.34-.11l-1.94-2.32a1,1,0,0,1,.12-1.33h0a.94.94,0,0,1,1.33.11l1.94,2.32a.94.94,0,0,1-.11,1.33Z" style="fill:url(#radial-gradient-17)"/><path d="M639,376.38a7.41,7.41,0,0,0,.3-2.93c0-.91-.15-1.81-.27-2.72a32,32,0,0,0-3.49,1.56,4,4,0,0,0-2.13,2.48,5,5,0,0,0,.88,3.36,6,6,0,0,0,3.54-.32A2.74,2.74,0,0,0,639,376.38Z" style="fill:url(#radial-gradient-18)"/><path d="M642.73,371.7a9.36,9.36,0,0,0,.37-3.73c-.06-1.17-.19-2.32-.33-3.47a39.52,39.52,0,0,0-4.46,2,5,5,0,0,0-2.73,3.18c-.33,1.47.41,3,1.13,4.29a7.62,7.62,0,0,0,4.52-.41A3.62,3.62,0,0,0,642.73,371.7Z" style="fill:url(#radial-gradient-19)"/><path d="M647.58,366.84a12.77,12.77,0,0,0,.51-5.08c-.08-1.59-.26-3.15-.46-4.72a55.78,55.78,0,0,0-6.07,2.7,6.85,6.85,0,0,0-3.7,4.32c-.45,2,.55,4.15,1.53,5.84a10.47,10.47,0,0,0,6.15-.56A4.89,4.89,0,0,0,647.58,366.84Z" style="fill:url(#radial-gradient-20)"/><path d="M652.53,360.63a16.2,16.2,0,0,0,.64-6.4c-.1-2-.33-4-.58-5.94a68.59,68.59,0,0,0-7.64,3.4,8.64,8.64,0,0,0-4.66,5.44c-.57,2.51.69,5.22,1.93,7.35,0,0,4.3,1,7.75-.7A6.25,6.25,0,0,0,652.53,360.63Z" style="fill:url(#radial-gradient-21)"/><path d="M633.34,377.11a6.15,6.15,0,0,0-5.18,1.91,16.22,16.22,0,0,0-3.38,4.44c-.45.38,1,.12,1.83-.41a4.43,4.43,0,0,0-1.68,3.36l2.71-1.85c.32-.21-2.2,1.52-2.43,3.85a9,9,0,0,0,7-3.7,16.44,16.44,0,0,1-1.43,2.3c-.45.45,5.65-1.76,4.76-7.82Z" style="fill:url(#radial-gradient-22)"/><path d="M636.21,378.94a.81.81,0,0,1-1.13.12l-2-1.6a.81.81,0,0,1-.13-1.14h0a.82.82,0,0,1,1.14-.12l2,1.6a.81.81,0,0,1,.12,1.14Z" style="fill:url(#radial-gradient-23)"/><path d="M618.62,263.56s-23.18,6.49-31.29,31.16,1.41,67.12,48.46,64.61,79.17-48.39,70.6-74.8S655.36,228.44,618.62,263.56Z" style="fill:url(#radial-gradient-24)"/><g style="mix-blend-mode:multiply"><path d="M700.45,285.93l-88,62c3.1,4.73,11.35,4.79,11.35,4.79,2,2.8,5.78,5.23,8.47,6.72,1.16,0,2.35,0,3.56-.1,33.13-1.77,58.85-25,68.18-47.86a34.91,34.91,0,0,0-3.26-12.92C704.37,292.62,700.45,285.93,700.45,285.93Z" style="fill:url(#radial-gradient-25)"/></g><path d="M689.57,293.22s-5.51-9.17,1-12.57,17.63,9.64,5.64,20.5Z" style="fill:url(#radial-gradient-26)"/><path d="M693.22,286.82c-1.46,2.3,1.67,7,3.8,7.26a17.66,17.66,0,0,1-1.36-1.39,1.37,1.37,0,0,0,1.16-.27c1.5-1.07.56-2.94.56-2.94s-.25,3.18-3,1.45a3.39,3.39,0,0,1-.56-2.66c.77-2.29,2.31-2.29,3.24-2C697.05,286.24,694.68,284.53,693.22,286.82Z" style="mix-blend-mode:multiply;fill:url(#radial-gradient-27)"/><path d="M622.25,340.52s-5.48-9.19-11.57-5,.18,20.09,15.41,14.65Z" style="fill:url(#radial-gradient-28)"/><path d="M614.89,340.72c2.71-.21,5.37,4.77,4.6,6.77a15.39,15.39,0,0,0-.58-1.85,1.4,1.4,0,0,1-.79.89c-1.65.82-2.85-.89-2.85-.89s2.92,1.28,2.7-2a3.4,3.4,0,0,0-2.08-1.75c-2.39-.4-3.11,1-3.32,1.91C612.57,343.83,612.18,340.92,614.89,340.72Z" style="mix-blend-mode:multiply;fill:url(#radial-gradient-29)"/><path d="M678.79,276.65c1.68,2.65,2.69,6.82,4.6,9,3.56,4,8.88,5.57,12.1,9.7,11.62,14.88,4.63,34.38-4.91,44.6a63.65,63.65,0,0,1-43.13,20.4c-21.27,1-27.08-13.73-28.81-22.09s-12.41-17.53-12.41-17.53-8.69-8.22,1.52-29.62S663,251.83,678.79,276.65Z" style="fill:url(#radial-gradient-30)"/><path d="M625.57,321.76A8.45,8.45,0,0,1,633,318.6s-2.06-3-5.82-.86C624.38,319.37,625.57,321.76,625.57,321.76Z" style="fill:url(#radial-gradient-31)"/><path d="M667.77,294.4a8.45,8.45,0,0,0-5.66,5.8s-2.06-3,1.32-5.73C666,292.42,667.77,294.4,667.77,294.4Z" style="fill:url(#radial-gradient-32)"/><path d="M665.2,300s-3.84,4.41,1.13,12.25,8.72,6.72,8.72,6.72a7,7,0,0,0-.46,2.51s5.43-5.49,9.07-7.86l-3.22,1.49s2-4.91-2.84-10.92S668.66,296.29,665.2,300Z" style="mix-blend-mode:multiply;fill:url(#radial-gradient-33)"/><path d="M677.39,305.69c2.87,5.08,2.81,10.54-.13,12.2s-7.65-1.1-10.52-6.17-2.81-10.54.13-12.2S674.52,300.62,677.39,305.69Z" style="fill:url(#linear-gradient-5)"/><path d="M676,307.07c2.19,3.7,2.23,7.73.08,9s-5.66-.7-7.84-4.4-2.23-7.74-.09-9S673.77,303.37,676,307.07Z" style="fill:url(#radial-gradient-34)"/><path d="M674.76,307.86c1.46,2.46,1.48,5.13.06,6s-3.76-.47-5.21-2.93-1.48-5.13-.06-6S673.31,305.41,674.76,307.86Z" style="mix-blend-mode:multiply;fill:url(#radial-gradient-35)"/><path d="M671.41,307.46c.7,1.52.54,3.08-.34,3.47s-2.16-.51-2.85-2-.53-3.07.35-3.48S670.72,305.93,671.41,307.46Z" style="fill:url(#linear-gradient-6)"/><path d="M636.25,321s-4.58-2.36-6.84,2,.31,12.9,8.8,17.07a8.39,8.39,0,0,0,2,.61l-3,3.18s5.33-4.17,9.57-5.59l-1.32-.74s2.17-4.25-1.41-9.62S636.25,321,636.25,321Z" style="mix-blend-mode:multiply;fill:url(#radial-gradient-36)"/><path d="M642.29,327c3.24,4.85,3.6,10.29.79,12.17s-7.71-.52-11-5.36-3.6-10.3-.79-12.18S639.05,322.13,642.29,327Z" style="fill:url(#linear-gradient-7)"/><path d="M641.54,327.81c2.39,3.58,2.65,7.6.58,9s-5.69-.39-8.08-4-2.65-7.6-.58-9S639.15,324.24,641.54,327.81Z" style="fill:url(#radial-gradient-37)"/><path d="M640.39,328.67c1.58,2.37,1.76,5,.38,6s-3.78-.26-5.36-2.63-1.76-5-.39-6S638.8,326.3,640.39,328.67Z" style="mix-blend-mode:multiply;fill:url(#radial-gradient-38)"/><path d="M637,328.45c.78,1.48.71,3-.15,3.49s-2.18-.39-3-1.87-.7-3,.16-3.49S636.25,327,637,328.45Z" style="fill:url(#linear-gradient-8)"/><path d="M665.18,331.91c-1.85,5.13-7.45,3.59-7.38.18A3,3,0,0,1,661,329c-.22,0-.64.3-.82.4a3.72,3.72,0,0,0-1.42,1.22c-1.34,2.12.81,4.13,3,3.91a3.22,3.22,0,0,0,1.9-1A12.76,12.76,0,0,0,665.18,331.91Z" style="mix-blend-mode:multiply;fill:url(#radial-gradient-39)"/><g style="mask:url(#mask-4)"><path d="M661.17,330.85a1.5,1.5,0,1,1-2.09-.43A1.5,1.5,0,0,1,661.17,330.85Z" style="opacity:0.7000000000000001;mix-blend-mode:screen;fill:url(#radial-gradient-40)"/></g><path d="M609.12,270s-28,18.64-22,52.09c0,0,3.12,16.75,14.73,26.34C601.89,348.38,571.86,310.48,609.12,270Z" style="mix-blend-mode:screen;fill:url(#radial-gradient-41)"/><path d="M626.34,314.42a18.32,18.32,0,1,0,25.13,6.3A18.32,18.32,0,0,0,626.34,314.42Zm18,30.12a16.8,16.8,0,1,1,5.78-23A16.8,16.8,0,0,1,644.39,344.54Z" style="fill:#60260c"/><path d="M664.42,290.32a18.32,18.32,0,1,0,25.13,6.3A18.31,18.31,0,0,0,664.42,290.32Zm18.05,30.12a16.8,16.8,0,1,1,5.78-23A16.8,16.8,0,0,1,682.47,320.44Z" style="fill:#60260c"/><path d="M649.22,318.44s3.39-5.43,9.15-4.92l.47,1.59s-6,1.07-8.44,5Z" style="fill:#60260c"/><polygon points="617.89 331.37 611.16 334.86 615.01 334.65 618.26 334.46 617.89 331.37" style="fill:#60260c"/><polygon points="681.35 289.88 687.24 285.3 687.48 287.11 683.68 291.95 681.35 289.88" style="fill:#60260c"/><g style="mix-blend-mode:multiply"><path d="M633.3,286.58s25.85,12.5,50.3-.75l-.21-.22c-1.91-2.14-2.92-6.31-4.6-9-15.77-24.82-60.83-7-71,14.42s-1.52,29.62-1.52,29.62a58.69,58.69,0,0,1,8.3,9.1C621.19,322.47,636.05,303.89,633.3,286.58Z" style="fill:url(#radial-gradient-42)"/></g><path d="M607.32,333s24.84-22.83,24.59-48.63c0,0,28.41,10.61,52.19-1.4,0,0-7-22.15-30.19-25.14C629.4,254.63,576.88,299.87,607.32,333Z" style="fill:url(#radial-gradient-43)"/><path d="M631.91,284.35s-6.44-14-13.29-20.79C618.62,263.56,623.42,275.76,631.91,284.35Z" style="fill:url(#radial-gradient-44)"/><path d="M673.61,339.4c3.5-3.13,8.34-10.39,10.17-11,2.49-.83,5.5,11.86-6.92,21.24s-25.16,3.86-25,1.29S663,348.87,673.61,339.4Z" style="fill:url(#linear-gradient-9)"/><path d="M658.64,349.34a18.5,18.5,0,0,0,6.75-1.18,29.55,29.55,0,0,0,11.31-7.64,15.19,15.19,0,0,0,3.73-6.52,5.93,5.93,0,0,0,.22-2.71c-2.17,2.6-5,6.26-7,8.11-6.78,6.06-13.72,8-17.89,9.34A9,9,0,0,0,658.64,349.34Z" style="fill:url(#linear-gradient-10)"/><path d="M676.73,345.31c-3.93,1.52-8,4.67-9.2,8.89a26.19,26.19,0,0,0,9.33-4.56,25.32,25.32,0,0,0,5.17-5.11A11.7,11.7,0,0,0,676.73,345.31Z" style="fill:url(#linear-gradient-11)"/><path d="M669.67,350.86s-1.27,2.81.54,2S671.46,348.58,669.67,350.86Z" style="fill:url(#linear-gradient-12)"/><path d="M691.36,112v142.9c-1.45,3.28-7.51,19.86-7.85,68.45-.35,50.38.65,63.12,1.93,79.25l.29,3.71c1.18,15.33-4.82,37.23-10.56,49.3.87.19,1.46.36,2.21.57l2.58.69c6-13,12-34.94,10.75-50.94l-.29-3.73c-1.26-16-2.26-28.65-1.91-78.82.37-52.26,7.49-66.62,7.55-66.74a2.44,2.44,0,0,0,.3-1.18V112Z" style="fill:#228665"/><path d="M705.22,269.74s.83-11.5-8.67-18-18.83,2.42-14.33,4.5c0,0-5.5,2.84-2.5,5.84,0,0-4.84,2.58-.5,5.16,0,0-1.25,2.25,2.91,5.17s6.25,1.08,4.25-2.25c0,0,4-.83,5.25,1.75s2.5,4,6,2.83c0,0,17.48,20.08,12.48,35.67a49.18,49.18,0,0,1-10.26,17.95,36.9,36.9,0,0,0,4.31,11.11c5.13-4,14-12.77,16.39-26.39C723.88,293.83,712.22,274,705.22,269.74Z" style="fill:url(#linear-gradient-13)"/><path d="M700.28,327.89a6.27,6.27,0,0,1-.43.47,36.9,36.9,0,0,0,4.31,11.11c.85-.67,1.81-1.48,2.83-2.42A15.11,15.11,0,0,1,700.28,327.89Z" style="opacity:0.5;mix-blend-mode:multiply;fill:url(#radial-gradient-45)"/><path d="M688.66,256.81c-2.09-1.94-5.6-1.56-7.85-.23-1.59.94-2.77,3.77-1.38,5.26a5,5,0,0,0-.7.46c-.64.5-1.57,1.48-1.41,2.39a3.48,3.48,0,0,0,1.76,2.59,5.16,5.16,0,0,0,.75,3.74c.19.27.66,0,.52-.27-.79-1.72-1.35-4.47,1.08-5.19a12.17,12.17,0,0,1,5.63,0c.11,0,.15-.14.05-.19-2-.94-5.17-1.24-7,.18a2.71,2.71,0,0,0-.77,1c-2.39-1.59-.43-3.78,1.55-4.51a7.39,7.39,0,0,1,5.12.05c.1.05.19-.1.1-.16a6.18,6.18,0,0,0-5.94-.43l-.05-.07c-2.15-2.15,1.62-4.72,3.3-5.09a10.58,10.58,0,0,1,5.08.72A.13.13,0,0,0,688.66,256.81Z" style="mix-blend-mode:multiply;fill:url(#radial-gradient-46)"/><path d="M696.79,381.66c1.08-1-.07-2.83-.07-2.83a5.69,5.69,0,0,0-1-4.09c-1.84-6.91-7.42-4.5-12.47-1.58s-2.7,9.08-4.45,11.25S654,395.5,652,394.24c-1.35-.81-.73-6.27-.14-10a7,7,0,0,0-8.18.45,11.82,11.82,0,0,0-2.3,2.7h0a23.16,23.16,0,0,0,1.21,15.25c1.42,2.92,3.83,5.17,15.92,1.75s22.25-12.08,22.25-12.08c1.75,1.5,6,1.08,8-2.39s2.75-3.61,2.75-3.61c.41.75,3.33,1.5,5-.59A3.51,3.51,0,0,0,696.79,381.66Z" style="fill:url(#linear-gradient-14)"/><path d="M649.79,386.19a8,8,0,0,1,1.71.36c.11-.8.22-1.58.33-2.3a7,7,0,0,0-8.18.45,11.82,11.82,0,0,0-2.3,2.7h0a21.09,21.09,0,0,0-.48,2.17A10.82,10.82,0,0,1,649.79,386.19Z" style="opacity:0.5;mix-blend-mode:multiply;fill:url(#radial-gradient-47)"/><path d="M694.28,385.55a2,2,0,0,0-1-.49,3,3,0,0,0-1.52.38,4.08,4.08,0,0,0-2.19,2.24.19.19,0,0,0,.32.19,14.12,14.12,0,0,1,1.65-1.63,4,4,0,0,1,2.66-.58C694.29,385.67,694.34,385.59,694.28,385.55Z" style="mix-blend-mode:multiply;fill:url(#radial-gradient-48)"/><path d="M696.66,381.46a3.09,3.09,0,0,0-.4-3.25c1.47-4-4.3-6.62-7.34-4.8-.14.09,0,.34.14.31a7.23,7.23,0,0,1,4.33.38,4.12,4.12,0,0,1,2.41,3.6c-1.88-1.73-5.6-2.24-7.51-.63-.18.15,0,.48.22.36a6.3,6.3,0,0,1,5.07-.17c1.89.68,2.93,1.95,2.75,3.83a4.16,4.16,0,0,0-1.33-.9c-1.71-.73-4.89-.63-5.54,1.45a.2.2,0,0,0,.34.19c1.11-1.27,2.71-1.23,4.27-1a2.74,2.74,0,0,1,2.45,3.66c0,.18.22.37.32.18A2.86,2.86,0,0,0,696.66,381.46Z" style="mix-blend-mode:multiply;fill:url(#radial-gradient-49)"/><path d="M214.84,266.37a2.46,2.46,0,0,0,.3-.4,3.24,3.24,0,0,0,0-2.91,1.38,1.38,0,0,0-.68-.69,12,12,0,0,0,.82-1.23,2,2,0,0,0-.79-2.68c1.13-1.4,1.91-4.27.47-5.72-3.79-3.81-8.55,1.58-10.6,5.19-2.23,1.31-2.52,5.57-3,7.73-.81,3.69-.73,7.22,2.9,9.08,3,1.55,5.56-.7,6.9-3.14a6.84,6.84,0,0,0,.63-1.51,3,3,0,0,0,3.17-.77c.68-.7,1.09-2,.14-2.76Z" style="fill:url(#linear-gradient-15)"/><path d="M110,349.93l-19.53,2.15s9.72,14.21,18.85,16.29Z" style="fill:url(#radial-gradient-50)"/><path d="M161.31,318.24a22.28,22.28,0,0,0,5.69,4,30.73,30.73,0,0,0,5.77-4.41s1.37-2.37-1.21-9.58a37.43,37.43,0,0,0-7.08-12s-3.3,3.7-7.5,8.44C156.52,309.68,157.51,314.59,161.31,318.24Z" style="fill:url(#radial-gradient-51)"/><path d="M100.58,349.14c-.29-.21-3.14,1.07-3.6,1.22-1.22.37-2.45.72-3.68,1-2.41.63-4.85,1.15-7.3,1.58a156.39,156.39,0,0,1-19.08,2c-3.23.17-6.46.32-9.68.17a20,20,0,0,1-2.73-.4c-.94-1.59-2.86-3-3.91-4.13-2-2.15-2.54-4.61-3.68-7.19a1.59,1.59,0,0,0-2.25-.73c-3.5,2.94-.08,6.4,1.29,9.35a19.12,19.12,0,0,0-3.47-2.39,66,66,0,0,1-5.83-3.78c-.78-.55-2.38-1.92-3.42-1.17-2.45,1.76,2.52,5.06,3.46,6a58.94,58.94,0,0,0,5.09,4.24l.15.12a36.91,36.91,0,0,0-3.56-1.15c-1.55-.42-5.74-1.27-7,.33-1,1.19.34,2.47,1.5,2.69a30,30,0,0,1,8.68,2.47,22,22,0,0,0-6.63,0c-.88.14-3.57,1.17-2.59,2.59,1.36,2,3.74,1.4,5.76,1.18a21.75,21.75,0,0,1,4.33-.08c-2.4.55-4.8,1.77-6,3.84-2,3.49,1.24,3.18,3.65,2.06,2.68-1.25,4.69-4.14,7.91-2.47a6.17,6.17,0,0,0,5.21.52,2.6,2.6,0,0,0,1.5-1.81c1.89.33,4,.59,4.43.63,12.42,1.25,26,1.49,38.23-1.32a41.27,41.27,0,0,0,9.59-3.44,21.14,21.14,0,0,0,2.44-1.48A31.67,31.67,0,0,0,100.58,349.14Z" style="fill:url(#radial-gradient-52)"/><path d="M207.57,255.26a14.19,14.19,0,0,0-8.22,4.52,3.66,3.66,0,0,0-.39,4.39c-1.19.88-2.42,1.72-3.5,2.67q-3.47,3-7,6c-4.69,3.88-8.75,8.51-13.16,12.69a203.35,203.35,0,0,0-24.53,27.27.61.61,0,0,0,.37.94c.77,1.65,3.51,3.07,5,3.36a8.92,8.92,0,0,0,4.33,0,.39.39,0,0,0,.35,0c4.45-2,8-6.15,11.48-9.5,4-3.91,7.88-7.94,11.75-12s7.74-8.19,11.62-12.27c1.86-2,3.78-3.88,5.56-5.93a38,38,0,0,0,3.21-3.57,5.88,5.88,0,0,0,3.68-6.1,8,8,0,0,0-1.51-4.38c1-.9,2-1.81,2.89-2.77s1.93-1.92,2.12-3.09C212,255.08,209.16,255.05,207.57,255.26Z" style="fill:url(#radial-gradient-53)"/><path d="M215.5,255.31a6.84,6.84,0,0,1-2.85,3.34,3,3,0,0,1-1.84.51c-.22.28-.44.55-.68.8a5.08,5.08,0,0,0,5.66-4.57C215.8,255.23,215.57,255.14,215.5,255.31Z" style="fill:url(#linear-gradient-16)"/><path d="M215.38,260.56c-1.49,2.28-5.59,4-7.55,1.58a3.25,3.25,0,0,1-.56.28c-.12.07-.25.12-.38.18a4.07,4.07,0,0,0,3.4,1.76,5.45,5.45,0,0,0,5.25-3.7C215.57,260.57,215.44,260.47,215.38,260.56Z" style="fill:url(#linear-gradient-17)"/><path d="M215.35,264.09c-.47,2-3,2.89-4.88,2.7a5,5,0,0,1-2.7-1.28,8.16,8.16,0,0,1,.1,1.33,4.6,4.6,0,0,0,3.74.83c1.9-.48,4.15-1.26,4.07-3.57C215.68,263.9,215.39,263.92,215.35,264.09Z" style="fill:url(#linear-gradient-18)"/><path d="M215.44,268.13c-1.18,1.7-3.49,1.84-5.23,1.06a6.9,6.9,0,0,1-2.36-1.93c0,.39,0,.76-.09,1.11,2.45,2.26,6.15,3.53,8-.05A.18.18,0,0,0,215.44,268.13Z" style="fill:url(#linear-gradient-19)"/><path d="M170.19,317.26c-2.44-1.55-3.93-4.37-4.87-7-1.28-3.63-2.56-9.2-1.29-13.38-1.61,1.81-7.42,8.35-13,14.67-6.55,7.43-20.77,13-31.4,24.61s-29.13,16-29.13,16c11.49-2.55,18.85,16.29,18.85,16.29a46,46,0,0,0,25.28-37.85c24.85,0,36.81-11.32,38-12.54A5.11,5.11,0,0,1,170.19,317.26Z" style="fill:url(#radial-gradient-54)"/><path d="M168.16,315.45c-1.13.64-2.28,1.26-3.46,1.82a44.4,44.4,0,0,1-16.44,4.37,25.37,25.37,0,0,1-9.29-.78c-6,4-12.82,8.4-18.65,14.56a7.37,7.37,0,0,1,2.61,6,21.82,21.82,0,0,1-6.33,14.35,50,50,0,0,1-9.62,7.75,43,43,0,0,1,2.38,4.85,46,46,0,0,0,25.28-37.85c24.85,0,36.81-11.32,38-12.54a5.11,5.11,0,0,1-2.47-.72A9,9,0,0,1,168.16,315.45Z" style="opacity:0.2;mix-blend-mode:multiply;fill:url(#radial-gradient-55)"/><path d="M130.81,324.76S119.48,328.62,125,349s11.83,30.84,11.83,30.84,16.17,6,47.5-25.17c0,0-14.5-18.22-26.33-29.86S131.64,317.56,130.81,324.76Z" style="fill:url(#radial-gradient-56)"/><path d="M153.77,373.78a7,7,0,0,1-4.76.32,12,12,0,0,1-6.43-5.62c-4.51-7.54-7.43-16.64-9.84-25A126.24,126.24,0,0,1,129,325.8c-3,2.14-8,8.18-4,23.15,5.5,20.34,11.83,30.84,11.83,30.84s6,2.21,17.8-3.1Q154.17,375.24,153.77,373.78Z" style="opacity:0.5;mix-blend-mode:multiply;fill:url(#radial-gradient-57)"/><path d="M136.81,379.79s16.15,6,47.46-25.13c-5.26.66-15.91,5.47-27.39,10C134.2,373.5,136.81,379.79,136.81,379.79Z" style="fill:url(#radial-gradient-58)"/><path d="M179.28,355.88c-8.94,3.48-18.06,6.46-26.9,10.29-.88.38-1.76.78-2.62,1.18-3.74,2.08-7.42,3.93-10.35,7,1.9,4.64,4.57,11.25,4.57,11.25l38-23.33S180.71,359.1,179.28,355.88Z" style="fill:url(#radial-gradient-59)"/><path d="M141.64,383.12s8.67-3.29,19.84-13.4,18.07-13.23,18.07-13.23a5.78,5.78,0,0,0,4.72,3.63c3.71.5,14.21,4.34,17.37,5.5s-7.5,20.5-12,22.33-13.5-1.83-18.5,1.84-8.44,16-10.39,16.83-24.83-6.25-24-10.5,4.67-7.25,5.42-8.62S141.64,383.12,141.64,383.12Z" style="fill:url(#radial-gradient-60)"/><path d="M181.61,385a44.66,44.66,0,0,0-10.08-1.38c-4.34.11-7,2.6-8.25,6.71-1.52,5.09-1.27,10.41-1.81,15.64,2-2.82,5.24-12.88,9.67-16.13,5-3.67,14,0,18.5-1.84a3.88,3.88,0,0,0,.93-.55C187.63,386.47,184.65,385.59,181.61,385Z" style="opacity:0.5;mix-blend-mode:multiply;fill:url(#radial-gradient-61)"/><path d="M159.1,378A75.31,75.31,0,0,0,181,358.59a5.74,5.74,0,0,1-1.43-2.1s-6.91,3.13-18.07,13.23-19.84,13.4-19.84,13.4a12.11,12.11,0,0,1,.64,2.22A93.58,93.58,0,0,0,159.1,378Z" style="opacity:0.5;mix-blend-mode:multiply;fill:url(#radial-gradient-62)"/><path d="M149.52,397c-5.75-2.53-9.84-2.44-12.66-1.5-.05.2-.1.41-.14.62-.8,4.25,22.09,11.33,24,10.5a1.54,1.54,0,0,0,.44-.34C159.75,403.61,156.63,400.12,149.52,397Z" style="fill:url(#Super_Soft_Black_Vignette_2)"/><path d="M189.64,388c4.5-1.83,15.17-21.16,12-22.33l-.17-.06C194.17,367.32,189.85,383.12,189.64,388Z" style="fill:url(#Super_Soft_Black_Vignette_2-2)"/><path d="M136.86,395.5s-10.47,14.5-11.34,43.75v6.87h8.75s-2-8.5,3.19-24.62S150,397.23,150,397.23,142.84,393.46,136.86,395.5Z" style="fill:url(#radial-gradient-63)"/><path d="M192.43,376.76s9.71,5.69,10.63,6.69c0,0-15,18.17-18.75,20.25s-8.08,2.92-5.92,10.92,9.75,24.83,16.09,22.83,1.25-15.5-.17-20.41-1.92-7.17-2.92-7.42c0,0,10.17-7.46,18.17-14.73s11.75-13.6,5.5-19.6a64.06,64.06,0,0,0-13.42-9.67S196.88,365.64,192.43,376.76Z" style="fill:url(#radial-gradient-64)"/><path d="M191.39,409.62l.09-.07a5.86,5.86,0,0,0-6.28,0,.64.64,0,0,1-.87-.23c-.8-1.69-.48-3.53-.51-5.35-3.63,1.9-7.5,3-5.43,10.65,2.17,8,9.75,24.83,16.09,22.83s1.25-15.5-.17-20.41S192.39,409.87,191.39,409.62Z" style="fill:url(#radial-gradient-65)"/><path d="M184.45,426.2a64.94,64.94,0,0,1-5-13.73,13.77,13.77,0,0,1-.57-5.24c-1.12,1.47-1.53,3.64-.52,7.39,2.13,7.85,9.46,24.17,15.72,22.92C189.87,435.43,185.87,429,184.45,426.2Z" style="fill:url(#radial-gradient-66)"/><path d="M129.7,442.29a6.63,6.63,0,0,0-4.18-3c-3.63-.63-5.79,4.12-15.13,1.37s-12.58,6-9.91,9.75,15.66,6.5,23.08,6.17,10.25-2.83,10.75-3.67,2.25-8.17.92-9.67a2,2,0,0,0-2.4-.12A2.46,2.46,0,0,1,129.7,442.29Z" style="fill:url(#radial-gradient-67)"/><path d="M131.61,453c-5,2.1-10.68,2.09-16,1.06-4.45-.86-12.9-3.08-16-7.43a5.54,5.54,0,0,0,.86,3.79c2.66,3.75,15.66,6.5,23.08,6.17s10.25-2.83,10.75-3.67a8.71,8.71,0,0,0,.55-1.69A19.3,19.3,0,0,1,131.61,453Z" style="fill:url(#radial-gradient-68)"/><path d="M126.39,330.52s4.07,9.73,10.57,6.29,1.81-12.5-1-13.25S126.39,330.52,126.39,330.52Z" style="fill:url(#Skintone_2)"/><path d="M65.23,313.13s-3.83-4.52-8.61-.52.33,14.8,12,11.26C68.59,323.87,65,313.12,65.23,313.13Z" style="fill:url(#radial-gradient-69)"/><path d="M60.59,314.8a2.51,2.51,0,0,0-3,2.39c.41-.83,1.42-1.94,3.8-1a3.49,3.49,0,0,1,1.81,2.09c-.41,3.09-3.18,1.25-3.18,1.25a2.63,2.63,0,0,0,2.78,1.45,1.31,1.31,0,0,0,1-.66,14.77,14.77,0,0,1,.24,1.86C65.2,320.44,63.43,315.21,60.59,314.8Z" style="fill:url(#linear-gradient-20)"/><path d="M53.81,287.91s-1.93,12.18,6.35,22.28-.82,18.44,18.56,28.93c0,0,38.94,16.58,65-17.13,0,0,12.85-12.61,3.28-32.72s-18.77-36.94-46.9-37.12S54.47,274.21,53.81,287.91Z" style="fill:url(#radial-gradient-70)"/><path d="M59.32,301.67c-.65-5.19,1.47-15.5,1.48-15.31.07,1.33.18,3.08,1.07,4.22,1.5,1.93,3.82-1.69,4.41-2.68,1.21-2,2.07-4.26,3.08-6.4,1.19-2.52,3.8-7.76,3.83-7.57a15.16,15.16,0,0,0,.88,4c.81,1.53,2.67.21,3.59-.45,4.3-3.11,10.65-11.71,10.65-11.53,0,2.48.1,6.2,2,8a3.28,3.28,0,0,0,.9.09c2.24-.12,4-1.62,5.35-3,3.39-3.41,5.51-7.66,8.36-11.43.1-.15,1.09,4.68,2,6.83s2.12,4.67,4.45,5.65c4.05,1.69,5.13-5.1,5.21-7.41,0-.17,3.63,5.24,5.73,7.61a23.46,23.46,0,0,0,6.45,5.37c.78.41,2.58,1.63,3.47,1.07.65-.41.29-1.89,1-2.16a84.36,84.36,0,0,1,4.44,8.45c1.34,3.13,3.4,5.49,5.63,8.27.91-1.44,0-1.79.18-3.45a19.56,19.56,0,0,0,.12-4.26c-.15-1.38-.48-2.83-.61-4.26-8.49-16.4-18.66-29-43-29.15-28.13-.19-45.6,22.06-46.26,35.76,0,0-1.93,12.18,6.35,22.28A19.47,19.47,0,0,1,62,312.93c-.33-1.34-.93-2.67-1.31-4A45.89,45.89,0,0,1,59.32,301.67Z" style="mix-blend-mode:multiply;fill:url(#radial-gradient-71)"/><path d="M154.1,238.84c-4.5-2.76-8.91-5.31-14.09-6.84a28.33,28.33,0,0,0-7-1.11c.17-.19.33-.39.49-.59,1-1.28,3.2-3.66,1.9-5.39s-5.07-.66-6.81-.08a10.52,10.52,0,0,0-3.6,2.24l-1.79,1.59a28.79,28.79,0,0,0-.9-4.77c-.3-1.19-1.43-4.68-3.33-4.33-1.65.31-1.93,2.65-2.08,3.89-.1.81-.09,1.65-.13,2.47h0c-4.6-1.57-24.9-6.82-50.3,12.27-28.93,21.76-36,42.46-33.11,53.72,0,0,1.29,2.73,7-3.49-.12.35-.24.71-.34,1.06a18.45,18.45,0,0,0,.68,11.38c.28.82.8,2.78,2.12,2.78,1.51,0,2.53-2.56,3-3.48l.51-1a1.11,1.11,0,0,1,0,.17,23.15,23.15,0,0,0,.48,3.22,7.74,7.74,0,0,0,4.91,4.85c2.85,1.64,6.55,2.89,10,5.39-2.42-4-8.2-16.57.43-33.24,0,0-1.46,5.58.79,7.8s9.33-13.76,12-18.88c0,0-1,6.56,1.82,6.5S91.4,258.53,91.4,258.53s-3.6,12.72,2.29,11.58c4.2-.8,11.73-13.36,11.73-13.36s4.2,15.47,7.08,13.32c2.2-1.65,2.65-12.39,2.65-12.39s11.76,19.24,14.57,18.89,4.47-3.1,4-4.5l9.46,21.48a45.39,45.39,0,0,0,4.17-3.89,43.69,43.69,0,0,1,1.53,4.22,59.92,59.92,0,0,1,1.37,8.07,19.31,19.31,0,0,1,.15,3.72c0,.8-.31,1.93-.31,3,0,.06,6.54-5.09,7.83-6.89,2.41-3.38,4.89-5.77,5.8-11.13.69-4,1.1-7.23.35-11.24l.41.63,2,3c.36.53.87,1.46,1.64,1.62,3.54.75,3-7,2.73-8.64a25.84,25.84,0,0,0-4.41-11.65,9.42,9.42,0,0,0,1.49,1c.62.34,1-.09,1.17-.63,1.22-4.83-2-10.72-5.82-14.14-1-.88-2-1.72-3-2.51a2.25,2.25,0,0,0,1.66-.27c1.35-.91-.73-3.06-1.31-3.77A25.46,25.46,0,0,0,154.1,238.84Z" style="fill:url(#radial-gradient-72)"/><path d="M161.43,277.49c4.08,11.91-6.83,22.86-6.83,22.86s6.08-9,4.65-13.93-7.83-10.33-12.52-5.71c-4.49,4.41-2.06,10.87-1.85,11.41.7-.64,1.57-1.47,2.51-2.46a43.69,43.69,0,0,1,1.53,4.22,59.92,59.92,0,0,1,1.37,8.07,19.31,19.31,0,0,1,.15,3.72c0,.8-.31,1.93-.31,3,0,.06,6.54-5.09,7.83-6.89,2.41-3.38,4.89-5.77,5.8-11.13.68-3.95,1.09-7.19.37-11.15C162.66,277.21,161.43,277.49,161.43,277.49Z" style="opacity:0.30000000000000004;mix-blend-mode:multiply;fill:url(#radial-gradient-73)"/><path d="M145.24,293.82s-3.21-12.18,4.43-13.05,14.52,14.56-1,20.33Z" style="fill:url(#radial-gradient-74)"/><path d="M150.3,287.2c-2.21,1.57-.59,6.85,1.45,7.8a16.38,16.38,0,0,1-.91-1.71,1.56,1.56,0,0,0,1.24.14A2.12,2.12,0,0,0,153.6,291s-1.28,2.78-3.48.3a2.93,2.93,0,0,1,.3-2.58,2.73,2.73,0,0,1,3.9-.74S152.5,285.62,150.3,287.2Z" style="fill:url(#linear-gradient-21)"/><path d="M93.72,278.76c-2.06,1.79-3,6.16-1,8.66a.2.2,0,0,0,.34-.15,9.18,9.18,0,0,1,2.09-5.77c2-2.08,4.53-1.13,6.93.14.55.28.85-.68.66-1C101,277.86,96.33,276.5,93.72,278.76Z" style="fill:url(#radial-gradient-75)"/><path d="M114.13,296.52S114,289.11,105.9,285s-10.11,2.66-10.19,6.11,5.76,16.51,15,12.34l.52-.33a6.19,6.19,0,0,0,1.29,3.59s-.53-8.95,6.78-13.95A9.93,9.93,0,0,0,114.13,296.52Z" style="mix-blend-mode:multiply;fill:url(#radial-gradient-76)"/><path d="M111.14,290.88c3.12,4.89,2.85,10.28-.6,12s-8.8-.8-11.92-5.69-2.86-10.28.6-12S108,286,111.14,290.88Z" style="fill:url(#linear-gradient-22)"/><path d="M110.21,291.24c2.56,3.58,2.85,7.5.64,8.77s-6.08-.6-8.64-4.18-2.85-7.51-.64-8.78S107.65,287.66,110.21,291.24Z" style="fill:url(#radial-gradient-77)"/><path d="M108.72,292.27c1.49,2.09,1.66,4.39.37,5.13s-3.55-.36-5-2.45-1.66-4.38-.37-5.12S107.22,290.19,108.72,292.27Z" style="mix-blend-mode:multiply;fill:url(#radial-gradient-78)"/><path d="M105.39,291.68c.83,1.47.76,3-.16,3.39s-2.33-.46-3.16-1.93-.76-3,.16-3.4S104.56,290.2,105.39,291.68Z" style="fill:url(#linear-gradient-23)"/><path d="M66.16,297.39a4.07,4.07,0,0,0-1.59,3,5.93,5.93,0,0,0,.1,1.73,3,3,0,0,0,.25.76s.06.06.1.08a.09.09,0,0,0,0,.07l.16.21c.08.11.19,0,.19-.11-.06-1.34.66-4.58,2.76-4a33.78,33.78,0,0,1,4.75,2.25c.36.17.6-.44.44-.67C72,298.81,68.74,295.61,66.16,297.39Z" style="fill:url(#radial-gradient-79)"/><path d="M80.76,321.07s4-3,1.25-8.91c-2.4-5.05-9-11.67-14.63-6.81,0,0-3.76,2.42.31,10.11,0,0,3.54,6.11,8.68,6.51a16.32,16.32,0,0,0-4.47,1.92s6.28-2.4,11-1.74Z" style="mix-blend-mode:multiply;fill:url(#radial-gradient-80)"/><path d="M80.16,310c2.91,4.55,2.66,9.57-.56,11.19s-8.19-.74-11.1-5.29-2.66-9.58.55-11.21S77.25,305.46,80.16,310Z" style="fill:url(#linear-gradient-24)"/><path d="M79.55,310.52c2.15,3.46,2.15,7.12,0,8.17s-5.62-.9-7.77-4.36-2.15-7.12,0-8.17S77.4,307.06,79.55,310.52Z" style="fill:url(#radial-gradient-81)"/><path d="M78.09,311.4c1.25,2,1.25,4.15,0,4.76s-3.29-.52-4.54-2.54-1.25-4.16,0-4.77S76.83,309.38,78.09,311.4Z" style="mix-blend-mode:multiply;fill:url(#radial-gradient-82)"/><path d="M75,310.66c.68,1.41.51,2.81-.37,3.14s-2.14-.57-2.82-2-.5-2.82.38-3.14S74.35,309.24,75,310.66Z" style="fill:url(#linear-gradient-25)"/><path d="M94.78,333.82s19.78-10.24,27.11-24.94c0,0,10.45,10.95,3.75,20.23S107.41,342,94.78,333.82Z" style="mix-blend-mode:multiply;fill:url(#radial-gradient-83)"/><path d="M95.6,334.06s19.27-10.09,26.52-24c0,0,11.59,12.74-.36,22.73S95.6,334.06,95.6,334.06Z" style="fill:url(#linear-gradient-26)"/><path d="M108.13,332.66c6-2.1,10.13-7.6,13.09-12.5a49.59,49.59,0,0,0,3.38-6.61,21.72,21.72,0,0,0-2.48-3.53c-5.24,10.09-16.78,18.16-22.76,21.86A10.7,10.7,0,0,0,108.13,332.66Z" style="fill:url(#linear-gradient-27)"/><path d="M119.12,327.41c-2,1.79-5.85,6.26-3.89,9.06a20.6,20.6,0,0,0,6.53-3.72c3.76-3.14,5.19-6.56,5.38-9.76C124.05,323.54,120.91,325.76,119.12,327.41Z" style="fill:url(#linear-gradient-28)"/><path d="M116.83,331.26c-.84.62-1.71,2-1.5,2.65.66,1.92,3.4-1.39,2.65-2.71C117.74,330.79,117.29,330.9,116.83,331.26Z" style="fill:url(#linear-gradient-29)"/><path d="M98.54,320.52c-6.16,4.66-12.41-1.13-9.83-5.07,2.44-3.74,6.44-1.28,6.44-1.28a3.72,3.72,0,0,0-1.37-.13,6.08,6.08,0,0,0-2.75.42c-3.3,1.53-1.93,5.42,1,6.68a5.3,5.3,0,0,0,3.2.21A24.58,24.58,0,0,0,98.54,320.52Z" style="mix-blend-mode:multiply;fill:url(#radial-gradient-84)"/><g style="mask:url(#mask-5)"><path d="M92.78,315.44a1.58,1.58,0,0,1,0,2.37,2,2,0,0,1-2.6-.09,1.57,1.57,0,0,1,0-2.37A2,2,0,0,1,92.78,315.44Z" style="opacity:0.7000000000000001;mix-blend-mode:screen;fill:url(#radial-gradient-85)"/></g><path d="M204.56,187.26c0-19.51,0-39,0-58.55q0-3.81,0-7.62h-4v83.22c0,13.95-.48,27.39,2.43,41.11.7,3.33,1.42,6.8,2,10.54a5.54,5.54,0,0,1,.58-.17,6.39,6.39,0,0,1,2.42-.46l.91-.16c-.59-3.82-1.31-7.33-2-10.58C202.9,225.93,204.57,206.2,204.56,187.26Z" style="fill:#228665"/><path d="M208.85,268.93a5.32,5.32,0,0,1-.77-.7,8,8,0,0,1-2.06,4.68,104.51,104.51,0,0,1-2.21,17.77c-1,4.76-1.91,9.63-2.88,14.78-5.58,29.57-12.51,66.38-42,127.77-35.67,74.38-38.41,141.22-29,164.93a2,2,0,0,0,1.86,1.26,1.91,1.91,0,0,0,.74-.14,2,2,0,0,0,1.12-2.6c-5-12.62-5.78-36-2-62.52,3.21-22.57,11.17-58.1,30.88-99.21,29.66-61.86,36.65-98.95,42.27-128.75,1-5.13,1.88-10,2.86-14.7A104.2,104.2,0,0,0,210,269.63,6.19,6.19,0,0,1,208.85,268.93Z" style="fill:#228665"/><path d="M458.31,715.47c-15.91-20.05-30.93-39-39.07-53.75a97.32,97.32,0,0,1-11.53-36.19c-.28,0-.55,0-.82,0-1.41,0-2.79.32-4.19.31a102.35,102.35,0,0,0,12.16,38.32c8.34,15.12,23.49,34.22,39.53,54.44,23.86,30.09,48.54,61.2,50.15,78.91a2.49,2.49,0,0,0,2.48,2.27h.23a2.51,2.51,0,0,0,2.27-2.72C507.77,777.84,482.63,746.13,458.31,715.47Z" style="fill:#228665"/><path d="M524.36,536.53c-.42.66-.88,1.31-1.34,2a35.86,35.86,0,0,1-8.7,9.06c-6.1,4.18-13,5.88-20.05,6.55a3.16,3.16,0,0,0-.14.65c-.76,6.73,15,28.43,27.67,16.88C531.29,563,527.12,545.14,524.36,536.53Z" style="fill:url(#radial-gradient-86)"/><path d="M380.35,594.29l-8.34.85s5.94,18.24,17.12,22.25l3.19-6.39S388.67,598.8,380.35,594.29Z" style="fill:#4c1b20"/><path d="M409.1,621.1,402,626.27s11.37,13.71,26.75,10.87l-.55-4.86S420.67,622.11,409.1,621.1Z" style="fill:#4c1b20"/><path d="M403.51,588.14s-7.38-3.62-31.5,7c0,0,16.87,6.38,17.12,22.25,0,0,16.25-10.62,18.5-8.12s-5.62,17-5.62,17,17.87-.75,26.75,10.87c0,0,22.25-23.5,23.62-34.5S403.51,588.14,403.51,588.14Z" style="fill:url(#linear-gradient-30)"/><g style="mix-blend-mode:multiply"><path d="M408,611.72c1.05-3,.53-5.6-2.75-6.66-6.31-2-12.85.17-18.2,3.67a20.87,20.87,0,0,1,2.07,8.82s16.25-10.62,18.5-8.12a3.05,3.05,0,0,1,.33,2.42A.69.69,0,0,0,408,611.72Z" style="opacity:0.5;fill:url(#linear-gradient-31)"/><path d="M403.51,588.14a9.32,9.32,0,0,0-3.39-.57c3.12,8.78,10.76,14.41,19.72,17.54,2.92,1,5.88,2,8.84,2.9a24.31,24.31,0,0,1,4.92,1.86c3,1.71,3.92,4.14,2.74,7.41-.85,2.38-2.58,4.38-4,6.44-1.75,2.57-3.43,5.2-5.11,7.82l-1.5,2.39a22.48,22.48,0,0,1,3,3.21s22.25-23.5,23.62-34.5S403.51,588.14,403.51,588.14Z" style="opacity:0.5;fill:url(#linear-gradient-32)"/></g><path d="M424.47,523.66s-6.67-5.74-12.54-20.28-5.33-21.08-5.33-21.08,7.12-3.31,2.14-11.21c0,0-.36-3.73-5.88-7.18s-11.85-1.71-10.55,4c0,0-5.07,3.36-.54,7.76,0,0-2.06,2.07.94,4.09,0,0-1.66,2.87,1.4,3.54s3.05-1.12,3.05-1.12l1.1.8a79.43,79.43,0,0,0,2.56,22c3.06,11,11.94,26.12,16.19,29.25Z" style="fill:url(#radial-gradient-87)"/><path d="M405.12,469.6c-1.4-.47-4.23-4.53-5.66-2.45a3,3,0,0,0,0,3c-.34-.54-.74-1-1.16-1.58a16.56,16.56,0,0,0-2.52-2.77c-.18-.15-.39.12-.23.28a33.13,33.13,0,0,1,2.69,3.11c1.06,1.38,3,5.06-.65,4.65-1.82-.21-3-2.17-3.82-3.62a10.07,10.07,0,0,1-1.46-4.91.08.08,0,0,0-.16,0c-.63,3.72,2.31,9.24,6.45,9.19,0,.36.08.72.05,1.09-.15,1.57-2.48,1.6-3.53,1.51-2.15-.19-3.52-1.7-4.69-3.34-.06-.09-.22,0-.17.09,1.26,2.63,3.15,4.34,6.23,4.1a3.83,3.83,0,0,0,2.13-.85,2.61,2.61,0,0,1-1.37,1.9,5.13,5.13,0,0,1-4.84.2.13.13,0,0,0-.14.22c1.77,1.44,3.65,1.23,5.6.2l.2-.13a5.17,5.17,0,0,1-.34,1.73c-.18.56-.75,1.46-1.35,1.61a.12.12,0,0,0,0,.23c1.27-.17,2.75-2.7,2.15-4a2.73,2.73,0,0,0,.69-2.79,2,2,0,0,0-.09-1.81c1.28-.29,1.22-1.92.94-2.91a6.66,6.66,0,0,0-.26-.67,9.39,9.39,0,0,0,1.91,2.21c1.1.9,1.52,1.14.52,2.8a4.05,4.05,0,0,0-.73,2.08,3.5,3.5,0,0,0,1.24,2.61c.07.07.17,0,.12-.11-1.39-2.05-.24-3.14.42-5.07.1-.3.38-.91.26-1.25-.64-1.71-2.69-2.42-3.39-4.27a1.39,1.39,0,0,1,.78-2.25c.38.3.76.62,1.13.94a13.44,13.44,0,0,0,2.62,1.81,21.25,21.25,0,0,0,3,.75c1,.36,1.67,1.86,2.18,2.72.06.12.28,0,.25-.1C409.48,470.51,407.91,470.54,405.12,469.6Z" style="mix-blend-mode:multiply;fill:url(#radial-gradient-88)"/><path d="M421.38,519.18s-2.33,9.5-8.66,14.17c0,0,9.33,12.67,19.33,17.83s14.67-6.66,14.67-6.66A77.83,77.83,0,0,0,421.38,519.18Z" style="fill:url(#linear-gradient-33)"/><path d="M439.46,544.06c-3.14-.41-6.19-2.54-8.59-4.47a39.87,39.87,0,0,1-8.58-9.6c-1.07-1.68-2.05-3.43-3-5.21a22.86,22.86,0,0,1-6.58,8.57s9.33,12.67,19.33,17.83,14.67-6.66,14.67-6.66-.45-.79-1.32-2.11A7.35,7.35,0,0,1,439.46,544.06Z" style="opacity:0.30000000000000004;mix-blend-mode:multiply;fill:url(#linear-gradient-34)"/><path d="M456.55,545.35c-3.83-1.67-13.16-4.83-26.83,1.67s-29.84,34.16-30.84,39,16.17,16.16,30.17,19.33,31.67,2,31.33-4.5-1.33-11.17,3-17.5,14.34-26.33,6.34-32.83S456.55,545.35,456.55,545.35Z" style="fill:url(#linear-gradient-35)"/><path d="M469.72,550.52c-8-6.5-13.17-5.17-13.17-5.17a27.38,27.38,0,0,0-13.72-2.11c-2.16,3.1-3.61,9.18-1.46,12.57a9.48,9.48,0,0,0,2.8,2.77,11.11,11.11,0,0,0,3.69,1.72c1,.17,2.55-.48,3.25.45s.39,3.06.05,4.64c0,0,0,0,0,.05.29,1.15-.32,2.55-.53,3.65-.38,2-.61,4-1,6-.91,4.39-2.1,8.71-3.31,13-1.05,3.76-1.8,7.6-2.94,11.33-.82,2.66-1.6,5.5-3.6,7.49,10.91.72,20.87-1.15,20.61-6-.33-6.5-1.33-11.17,3-17.5S477.72,557,469.72,550.52Z" style="opacity:0.30000000000000004;mix-blend-mode:multiply;fill:url(#linear-gradient-36)"/><path d="M447.51,544.64a8.8,8.8,0,0,0-4,4.76c-1,3.24.74,6.87,6.49,7.12s7.75-8,7.75-8Z" style="fill:url(#radial-gradient-89)"/><path d="M523.08,536.74c-.42.67-.88,1.32-1.34,2a36,36,0,0,1-8.7,9.06c-6.1,4.18-13,5.88-20,6.55a4.19,4.19,0,0,0-.15.64c-.75,6.74,15,28.43,27.68,16.89C530,563.2,525.84,545.36,523.08,536.74Z" style="fill:url(#radial-gradient-90)"/><path d="M525.64,539.28c.45-5.08-1.41-10.29-2.43-15.22a89.06,89.06,0,0,1-1.82-13.62c-5.71-13.16-15.63-23.21-29.67-31.43-8.14-4.76,14.16-21.83-13-23.83-13.83-1-21.34,9.91-23.8,9.76-17.23-1.07-20,12.08-20,12.08,8.17-6.84,8.37-2,8.37-2s-1.37,18.16-6.79,33.33,32.92,37,37.09,44.14,15.67,4,15.67,4c-1.84,2-5.34,2.66-5.34,2.66,6.5,2.5,15.5-1.33,15.5-1.33l-2.16,2.5c13.5-.5,21.33-13,21.33-13-1.16,2.5-9,14.83-2.83,8.17,3.35-3.63,7.68-7.55,9.71-14.31C525.47,540.46,525.61,539.72,525.64,539.28Z" style="fill:url(#radial-gradient-91)"/><path d="M504.88,538.52l-4.83,3.66s3.33-21.16,3.67-24-6.34,7.34-6.34,7.34l4.5-14.12-5.5,6.45s5.67-25,5-28.33c0,0-3.66,4.83-5,4.66s-1-8.83-1-8.83-6.66,10.5-7.33,9.83,0-12.66,0-12.66-10,2.5-10,1.16,3.83-4.33,3.83-4.33-22,1.5-22.16.67,8.16-4.17,5.83-4.17-18.79,1.54-19.83-1.17c-.69-1.79,1-3.36,3.28-4.59l-.07-.06c-3.36,1.62-6.86,4-8.05,7.15-2.5,6.67-5.16,8.84-12.16,13.17s-14.84,13.67-5.34,35.17,45.5,38,74,20.5c0,0,1.51,10.16,13.67,3S513.72,531.68,504.88,538.52Z" style="fill:url(#radial-gradient-92)"/><path d="M504.88,538.52l-4.83,3.66s3.33-21.16,3.67-24-6.34,7.34-6.34,7.34l4.5-14.12-5.5,6.45s5.67-25,5-28.33c0,0-3.66,4.83-5,4.66s-1-8.83-1-8.83-6.66,10.5-7.33,9.83,0-12.66,0-12.66-10,2.5-10,1.16,3.83-4.33,3.83-4.33-22,1.5-22.16.67,8.16-4.17,5.83-4.17-18.79,1.54-19.83-1.17c-.69-1.79,1-3.36,3.28-4.59l-.07-.06c-3.36,1.62-6.86,4-8.05,7.15-2.5,6.67-5.16,8.84-12.16,13.17s-14.84,13.67-5.34,35.17,45.5,38,74,20.5c0,0,1.51,10.16,13.67,3S513.72,531.68,504.88,538.52Z" style="fill:url(#radial-gradient-92)"/><path d="M446.92,477.23c3.66.77,7.28-.53,11-.21.34,0,.68.41.44.75-.8,1.11-3.94,4.52-.63,4.54,1.63,0,3.25,0,4.88,0a53.17,53.17,0,0,0,6.56,0c1.94-.2,3.81-.67,5.75-.75a.51.51,0,0,1,.49.63c-.35,1.6-1.15,3-1.59,4.58,3.43.38,6.85-1.34,10.23-1.71a.47.47,0,0,1,.48.36c.5,3.53.42,7.16.57,10.74.33,2.08,1.1,4.15,3.19,2.73a19.89,19.89,0,0,0,4-4.31c.28-.35.86-.05.85.35a39.44,39.44,0,0,0,0,4.35,37.22,37.22,0,0,1,3.48-2.66.51.51,0,0,1,.75.44c.31,3.89-1,7.88-1.58,11.7s-1.55,7.95-.78,11.86a4.3,4.3,0,0,0,1.39-1,.5.5,0,0,1,.85.35c.12,3.13-.91,6.1-1.47,9.14,1-.62,1.82-1.6,2.84-2.2a.51.51,0,0,1,.75.44c.4,3,.89,6,1.05,9,.05.89.08,1.8.12,2.71.94-6,2.91-18.68,3.17-20.83.33-2.83-6.34,7.34-6.34,7.34l4.5-14.12-5.5,6.45s5.67-25,5-28.33c0,0-3.66,4.83-5,4.66s-1-8.83-1-8.83-6.66,10.5-7.33,9.83,0-12.66,0-12.66-10,2.5-10,1.16,3.83-4.33,3.83-4.33-22,1.5-22.16.67,8.16-4.17,5.83-4.17-18.79,1.54-19.83-1.17c-.69-1.79,1-3.36,3.28-4.59l-.07-.06a27,27,0,0,0-3.81,2.22C443.78,474.33,443.16,476.44,446.92,477.23Z" style="fill:#db957b;opacity:0.30000000000000004;mix-blend-mode:multiply"/><path d="M516.83,514.68c3.22,6.25,8.69,22.16,8,28.41.92-1.27,4-5.27,5.08-6.72a69.91,69.91,0,0,0,8.75-13.75c2.13-4.73,3.06-11.09,3.34-16.23a41.81,41.81,0,0,0-2.36-15.87,69.47,69.47,0,0,0-25-33.63c-11.1-7.92-24.3-13.14-38.14-11.22a42.74,42.74,0,0,0-11.59,3.15,34.42,34.42,0,0,0-9.62,6.3,48.65,48.65,0,0,0-7.91,10.38s38.17,9.52,47.78,20.27S513.23,507.73,516.83,514.68Z" style="fill:url(#radial-gradient-94)"/><path d="M477.79,458.34c-4-1.19-8.29-1.47-12.06.7-2.5,1.43-4.84,3.48-5.43,6.22,9.14.68,18.81,6.12,25.51,10.17a12.73,12.73,0,0,0,.55-7.83C485,462.91,482.63,459.76,477.79,458.34Z" style="fill:url(#radial-gradient-95)"/><path d="M508.82,540.41c-3.21.44-5.59,3.84-6.49,6.65-.08.24.26.4.36.16a10.44,10.44,0,0,1,2.32-3.44c.54,0,.91,0,1.14.59a4.3,4.3,0,0,1,.17,1.85.26.26,0,0,0,.51.09,4.14,4.14,0,0,0-.18-2.78,1.66,1.66,0,0,0-.64-.62,7.76,7.76,0,0,1,2.91-1.39c2.58-.54,1.5,2.72,1.2,3.54a.5.5,0,0,0,.84.52C512.89,543.64,511.77,540,508.82,540.41Z" style="mix-blend-mode:multiply;fill:url(#radial-gradient-96)"/><path d="M463.59,582.48C459.51,586.84,456,592,454.8,598c0,.11.14.13.17,0,1.74-5.89,5.1-10.64,8.71-15.47A.06.06,0,1,0,463.59,582.48Z" style="fill:#48245a"/><path d="M429.27,680.43a8.34,8.34,0,0,0-3.28-4,18.81,18.81,0,0,0-3.18-1.22,9.16,9.16,0,0,0-2.62-.86c-.77,0-1.19.54-1.38,1.23a52.29,52.29,0,0,1-5.65-18.93,45,45,0,0,1,1.12-16.91,59.37,59.37,0,0,1,4.24-10.27,33.32,33.32,0,0,0-11.24-2.91,62.67,62.67,0,0,0-4.2,9.1,43,43,0,0,0-2.15,19.51c.59,6.27,3.08,12.61,5.85,18.26a60,60,0,0,0,4.73,8.17c.27.39.58.76.88,1.14a4.61,4.61,0,0,0-.69.92c-1.28,2.25-1,4.86-1.69,7.29a51,51,0,0,1-3.77,8.65c-1.61,3.24-4,8.68-.46,11.44,1.44,1.13,4.11.73,5.72.35a14.59,14.59,0,0,0,6.36-3.55,39.66,39.66,0,0,0,9.52-13C429.57,690.08,431.64,685.49,429.27,680.43Z" style="fill:url(#radial-gradient-97)"/><path d="M429.27,680.43a8.34,8.34,0,0,0-3.28-4,18.81,18.81,0,0,0-3.18-1.22,9.16,9.16,0,0,0-2.62-.86,1.3,1.3,0,0,0-1.26.91c0,2.11,1.2,4.13.95,6.19-.06.49-.2,1.56-1,1.45-1.95-.26-3.28-1.48-5.47-.63-.36.15-.7.3-1,.47h0a4.61,4.61,0,0,0-.69.92c-1.28,2.25-1,4.86-1.69,7.29a51,51,0,0,1-3.77,8.65c-1.61,3.24-4,8.68-.46,11.44,1.44,1.13,4.11.73,5.72.35a14.59,14.59,0,0,0,6.36-3.55,39.66,39.66,0,0,0,9.52-13C429.57,690.08,431.64,685.49,429.27,680.43Z" style="fill:#008b3b"/><path d="M429.27,680.43c-.22-.46-.46-.93-.73-1.39,1.65,4.82-.33,10.12-3.32,14.77a48.88,48.88,0,0,1-6.28,8.31c-4,4.33-8.5,7.74-13.74,8.31a4.42,4.42,0,0,0,.58.56c1.44,1.13,4.11.73,5.72.35a14.59,14.59,0,0,0,6.36-3.55,39.66,39.66,0,0,0,9.52-13C429.57,690.08,431.64,685.49,429.27,680.43Z" style="fill:#008b3b;opacity:0.5;mix-blend-mode:multiply"/><path d="M373.86,596.18c-.53.3-1.06.62-1.58,1-2.44,1.67-4.06,4.36-5.78,6.69a30.67,30.67,0,0,0-5.88,16,90.11,90.11,0,0,0,1.12,25.89l-.16,0c-3.07,1.05-5.1-.07-7.83-1.42-3.21-1.59-5.88-2.87-9.52-3-2.79-.07-5.25,2-6.55,4.3-3.78,6.74,3.39,12.09,8.54,15.06.39.23.79.45,1.19.66a9.68,9.68,0,0,0,2,1.1l1.26.48a26.76,26.76,0,0,0,8.6,2.21c4.4.78,8.77,2.14,13.19.9,1.56-.44,3.85-1.34,4.31-3.12.61-2.35-.16-5.71-.91-8-.44-1.32-1.17-3.25-2.78-3.43-1.68-8.44-2.55-17-1.37-25.59a27.68,27.68,0,0,1,6.44-14.71,76.14,76.14,0,0,1,6.28-6.64A26.49,26.49,0,0,0,373.86,596.18Z" style="fill:url(#radial-gradient-98)"/><path d="M345.93,655.64c3.26,1.56,6,3.88,9.07,5.8a30.8,30.8,0,0,0,17.1,4.76l.4-.1c1.56-.44,3.85-1.34,4.31-3.12.61-2.35-.16-5.71-.91-8a8.66,8.66,0,0,0-1-2.17c-.33-.47-.87-1.13-1.5-1.14a.84.84,0,0,0-.4.08c-.57.25-1,.72-1.71.73a5.22,5.22,0,0,1-3.36-1,8.86,8.86,0,0,1-2-2.68,9.18,9.18,0,0,0-2.2-2.78c-.91-.69-2-.28-3,0a6.89,6.89,0,0,1-1.81.21,9.06,9.06,0,0,1-3.27-.9c-.66-.3-1.3-.62-1.94-.94-3.21-1.59-5.88-2.87-9.52-3-2.79-.07-5.25,2-6.55,4.3a7.2,7.2,0,0,0-.56,6.34C339.87,653.63,343,654.26,345.93,655.64Z" style="fill:#008b3b"/><path d="M359.83,665c.79.3,1.62.57,2.45.83,3.41.68,6.8,1.28,10.22.32,1.56-.44,3.85-1.34,4.31-3.12,0-.09,0-.18.05-.26a13.05,13.05,0,0,1-3.24.25c-4.23-.22-9.51-1.35-13-3.94-4.13-3.07-7.3-7.1-11.21-10.4-2.77-2.34-7.62-4.37-11.46-3.39-.1.15-.2.29-.29.45a7.26,7.26,0,0,0-.1,7.37A82.65,82.65,0,0,0,359.83,665Z" style="fill:#008b3b;opacity:0.5;mix-blend-mode:multiply"/><path d="M375.89,664.1a19.07,19.07,0,0,1-15.34-2.1,47.58,47.58,0,0,1-4.56-3.55c-1.67-1.36-3.37-2.67-4.94-4.15a51.16,51.16,0,0,0-5.65-5c-2-1.4-4.58-2.82-7.11-2.11a2.28,2.28,0,0,0-1.61,1.49c-.59,5.31,5,9.85,9.54,12,15.92,7.7,21.86,6.59,26.28,5.35a7.47,7.47,0,0,0,3.8-2.13Z" style="fill:#84a080"/><path d="M476.38,492.41c-3.24-1.65-8.2-.72-9.19,2.86-.05.16.19.42.39.34a9.54,9.54,0,0,1,7.15-.2c3.51,1.47,4.39,4.92,4.91,8.41.11.8,1.27.71,1.44.32C482.57,500.79,480.47,494.48,476.38,492.41Z" style="fill:url(#radial-gradient-99)"/><path d="M470.56,518s7.07-4.68,6-13.28-8.9-6-12.29-3.95-12.36,14.47-2.56,18.88l.64.19a7.24,7.24,0,0,0-2.67,3.18s8.33-5.89,17.74-3.43A11.58,11.58,0,0,0,470.56,518Z" style="mix-blend-mode:multiply;fill:url(#radial-gradient-100)"/><path d="M474.15,512.31c-2.78,5.36-8.15,8.46-12,6.92s-4.72-7.13-1.95-12.49,8.16-8.46,12-6.92S476.92,507,474.15,512.31Z" style="fill:url(#linear-gradient-37)"/><path d="M473.23,511.83c-1.86,4.13-5.48,6.75-8.09,5.86s-3.22-5-1.36-9.09,5.48-6.75,8.09-5.86S475.09,507.7,473.23,511.83Z" style="fill:url(#radial-gradient-101)"/><path d="M471.29,511.34c-1.09,2.41-3.2,3.94-4.72,3.42s-1.88-2.9-.79-5.31,3.19-3.94,4.72-3.42S472.37,508.93,471.29,511.34Z" style="mix-blend-mode:multiply;fill:url(#radial-gradient-102)"/><path d="M469.79,508.45c-.91,1.54-2.43,2.41-3.39,2s-1-2.05-.1-3.57,2.42-2.42,3.38-2S470.69,506.93,469.79,508.45Z" style="fill:url(#linear-gradient-38)"/><path d="M448.17,479.38a4.15,4.15,0,0,0-3.49.88,5.42,5.42,0,0,0-1.17,1.31,2.83,2.83,0,0,0-.34.75.23.23,0,0,0,0,.13,0,0,0,0,0-.05,0l0,.28c0,.14.18.12.23.07.93-1,3.85-2.73,5.17-.66,1.05,1.66,1.5,3.62,2.27,5.37.18.41.81.16.85-.13C451.92,485,451.56,480.17,448.17,479.38Z" style="fill:url(#radial-gradient-103)"/><path d="M435.85,503.22s4.75,1.66,8.83-3.12c3.49-4.1,6.37-12.06-.88-14.08,0,0-4.08-1.73-9.18,4.83,0,0-3.9,5.43-1.75,9.48a15.78,15.78,0,0,0-4-2.49s5.28,3.63,7,7.5Z" style="mix-blend-mode:multiply;fill:url(#radial-gradient-104)"/><path d="M445.75,497.73c-2.77,4.26-7.52,6.36-10.6,4.68s-3.33-6.49-.55-10.75,7.53-6.35,10.61-4.67S448.53,493.47,445.75,497.73Z" style="fill:url(#linear-gradient-39)"/><path d="M445,497.51c-2.14,3.18-5.51,4.85-7.53,3.71s-1.92-4.63.21-7.82,5.52-4.85,7.54-3.71S447.13,494.32,445,497.51Z" style="fill:url(#radial-gradient-105)"/><path d="M443.47,496.81c-1.25,1.86-3.22,2.83-4.4,2.17s-1.12-2.71.13-4.57,3.22-2.83,4.39-2.17S444.72,495,443.47,496.81Z" style="mix-blend-mode:multiply;fill:url(#radial-gradient-106)"/><path d="M442.65,494.17c-1,1.15-2.35,1.66-3.08,1.15s-.53-1.87.44-3,2.36-1.67,3.08-1.15S443.62,493,442.65,494.17Z" style="fill:url(#linear-gradient-40)"/><path d="M428.27,518.31s18.71,10.22,35.18,8.53c0,0-4.42,13.64-15.84,13.1S427.33,532.27,428.27,518.31Z" style="mix-blend-mode:multiply;fill:url(#radial-gradient-107)"/><path d="M428.46,519.07s18.33,9.91,34.11,8.52c0,0-5.43,15.43-20.05,11.17S428.46,519.07,428.46,519.07Z" style="fill:url(#linear-gradient-41)"/><path d="M435.87,528.11c4.78,3.59,11.64,4,17.39,3.89a56.39,56.39,0,0,0,7.45-.7,21.09,21.09,0,0,0,1.86-3.71c-11.41,1-24.16-3.91-30.34-6.7A9,9,0,0,0,435.87,528.11Z" style="fill:url(#linear-gradient-42)"/><path d="M445.88,534c-2.53-.62-8.36-1.4-9.83,1.54a19.68,19.68,0,0,0,6.47,3.21,14.84,14.84,0,0,0,11.19-.73C451.7,535.9,448.21,534.58,445.88,534Z" style="fill:url(#linear-gradient-43)"/><path d="M441.39,534.17c-1-.33-2.62-.31-3.06.17-1.35,1.48,2.89,1.94,3.67.69C442.25,534.65,441.93,534.35,441.39,534.17Z" style="fill:url(#linear-gradient-44)"/><path d="M442.59,517.94c-7-2.64-4.84-10.36-.14-10.2,4.48.14,4.18,4.48,4.18,4.48,0-.31-.39-.89-.53-1.14a5.08,5.08,0,0,0-1.66-2c-2.92-1.88-5.73,1.06-5.45,4a4.46,4.46,0,0,0,1.32,2.63A21.65,21.65,0,0,0,442.59,517.94Z" style="mix-blend-mode:multiply;fill:url(#radial-gradient-108)"/><g style="mask:url(#mask-6)"><path d="M444.38,511a1.69,1.69,0,1,1-1.14-2.1A1.68,1.68,0,0,1,444.38,511Z" style="opacity:0.7000000000000001;mix-blend-mode:screen;fill:url(#radial-gradient-109)"/></g><path d="M402.92,480.57a4.11,4.11,0,0,1-1.16-2.82,4.15,4.15,0,0,1,.95-2c0-.71,0-1.43,0-2.15-.81-1.14-2-2-2.72-3.21s-1.17-3.42.68-3.74a2.33,2.33,0,0,1,2,1.12c0-40.87.62-282.91.73-327.25h-5c-.11,44.39-.72,286.63-.73,327.32a11.8,11.8,0,0,1,1.91,3c.56,1,.89,2.36,0,3.28a1.47,1.47,0,0,1-.59.37,1.31,1.31,0,0,1,.11.12,2.12,2.12,0,0,1,.08,1.59,3,3,0,0,1-.28,1.95,3.75,3.75,0,0,1-.59.81,2.26,2.26,0,0,1,0,2.21,4.19,4.19,0,0,1-.31.5c1,16.28,4.12,29.87,7,42.07,4.16,17.87,7.76,33.31,2.79,50.72-5.06,17.71-6.67,34.69-5,50.42a82.51,82.51,0,0,0,4.34-9.74,130.09,130.09,0,0,1,5.44-39.31c5.33-18.66,1.59-34.68-2.73-53.23C407,510.35,403.84,496.78,402.92,480.57Z" style="fill:#228665"/><path d="M446.72,578.27l-4.21,3.25s-9.75-9.13-4.5-19.75C438,561.77,448.43,561.77,446.72,578.27Z" style="fill:#29265b"/><path d="M444.31,562.59l-6.3-.82s-8,4.42-12.77-2.92S418.41,548,419,546.74s2.25-7.34.71-9.41a6.69,6.69,0,0,0-3.15-2.51c-1.22-.35-1.9.57-2.37,1.55-.38.82-.27.64-1.12.43a20.42,20.42,0,0,0-4.81-.37c-1.74,0-3.86,0-5.14,1.4s-.77,3.2-.72,4.75c.07,2.75-1.47,5.58-.88,8.25a5.56,5.56,0,0,0,5.67,4.77c5.7.08,3.45-1.5,8,5.33s9.16,13.73,16.08,14.14,16.25-1.8,17.42-3.43Z" style="fill:url(#radial-gradient-110)"/><path d="M472.17,556.82c.74,1.89.71,9.95-5.41,15.07s-20.63,11.63-24.25,9.63c0,0,4-15.25-4.5-19.75,0,0,9.75-2,16.5-3.5S470.29,552.08,472.17,556.82Z" style="fill:url(#linear-gradient-45)"/><path d="M472.17,556.82a3.19,3.19,0,0,0-.54-.88,5.49,5.49,0,0,1-.89,5.27c-3.8,5.09-10.5,8.39-16.19,10.87A82.36,82.36,0,0,1,443.36,576a34.48,34.48,0,0,1-.85,5.55c3.62,2,18.12-4.5,24.25-9.63S472.91,558.71,472.17,556.82Z" style="opacity:0.30000000000000004;mix-blend-mode:multiply;fill:url(#linear-gradient-46)"/><path d="M807,64.77s-76.62,45.88-155.62,54.88-143,18-178,18-139-3-181-6-160-26-184-34-75-30-91-39-11-7-11-7S6.13,64.77,6.38,67c6,2,59,17.63,75,25.63s27,20,61,24,93,17,109,17,80,10,97,8,72.87,4.12,85.87,6.12,114.13-.12,135.13-7.12,57-9,76-12,23-4,40-8,76-22,92-30S807,75,807,75Z" style="fill:#228665"/></g></g></svg>