<svg xmlns="http://www.w3.org/2000/svg" viewBox="0 0 518.13 531"><title>kidssss</title><g style="isolation:isolate"><g id="Layer_2" data-name="Layer 2"><g id="children"><path d="M275,265.66v0Zm1.7-.57v0Zm-1.74-.72a.77.77,0,0,1,0,.15A.77.77,0,0,0,275,264.37Zm-.51-1.4a2.56,2.56,0,0,0-.2-.26A2.56,2.56,0,0,1,274.48,263Zm.43,1-.06-.19Zm-.17-.52-.12-.22Zm-8,16.8s0,0,0,0Zm.6-.7v0Z" style="fill:#c4c2c3;mix-blend-mode:multiply"/><path d="M337.69,355.84A1071.29,1071.29,0,0,1,339.42,503h0s8.92-57,4-107.17-11.06-105.19,2.79-201.47l-1.75-.56A686.26,686.26,0,0,0,337.69,355.84Z" style="fill:#afafaf"/><path d="M333.73,344.7c3.17,63.94,8.4,111.72,5.73,158.31h0a1071.29,1071.29,0,0,0-1.73-147.17,686.32,686.32,0,0,1,6.81-162l-1.45-.47C336.83,230.69,330.77,285,333.73,344.7Z" style="fill:#8e8e8e"/><path d="M493.18,355.84A1071.29,1071.29,0,0,1,494.91,503h0s8.92-57,4-107.17-11.06-105.19,2.79-201.47l-1.75-.56A686.26,686.26,0,0,0,493.18,355.84Z" style="fill:#afafaf"/><path d="M489.22,344.7c3.17,63.94,8.4,111.72,5.73,158.31h0a1071.29,1071.29,0,0,0-1.73-147.17,686.32,686.32,0,0,1,6.81-162l-1.45-.47C492.32,230.69,486.26,285,489.22,344.7Z" style="fill:#8e8e8e"/><path d="M150,380.81c2.57,60.66,6.38,106,4.22,150.19h.39a1184.82,1184.82,0,0,0-1.4-139.62,759.62,759.62,0,0,1,5.53-153.72l-1.17-.45C152.52,272.65,147.6,324.15,150,380.81Z" style="fill:#8e8e8e"/><path d="M153.21,391.38A1184.82,1184.82,0,0,1,154.61,531H155s6.89-54.11,2.9-101.67-9-99.79,2.26-191.12l-1.42-.54A759.55,759.55,0,0,0,153.21,391.38Z" style="fill:#afafaf"/><g id="girl3"><path d="M382.13,313.5a25.42,25.42,0,0,0,1.74-2c1.44.82,4.08,2,4.78.24s-.91-3-2-3.73c.44-.53.89-1.06,1.35-1.63,4.17-4.83,8.3-7.58,10.59-6.09a2.61,2.61,0,0,1,1.18,1.82c-2.74,5.94-10.34,21.41-18.32,27.36-.73-.5-2.13-1.69-4-3.29,1.84-2.21,6.12-7.42,7-9.33C385.28,315.07,383.31,314,382.13,313.5Z" style="fill:#f4cdd4"/><path d="M388.65,311.71c-.7,1.78-3.34.58-4.78-.24.84-1,1.76-2.23,2.8-3.49C387.74,308.68,389.33,310.05,388.65,311.71Z" style="fill:#f4cdd4"/><path d="M399.79,302.08c.39,2.13-1,5.87-4.69,12.29-5.06,8.85-10.24,17.06-13.32,15.27-.08,0-.19-.13-.31-.2C389.45,323.49,397.05,308,399.79,302.08Z" style="fill:#f4cdd4"/><path d="M379.45,314.72c.74.4,1.62-.13,2.68-1.22,1.18.47,3.15,1.57,2.35,3.32-.87,1.91-5.15,7.12-7,9.33-2.54-2.23-5.91-5.25-9.47-8.5,1.69-3.12,3.84-6.49,5.1-8.4C376,311.86,378.37,313.9,379.45,314.72Z" style="fill:#f4cdd4"/><path d="M351.08,289.57c4.26,3.54,14.89,13.3,22,19.68-1.26,1.91-3.41,5.28-5.1,8.4-9.49-8.66-20.32-18.79-20.32-18.79s-4.92,3.65-7.71,5.66-3.09-15.73-3.09-15.73S345.1,284.59,351.08,289.57Z" style="fill:#f4cdd4"/><path d="M386.26,308.5c.13-.18.27-.34.41-.52,1.07.7,2.66,2.07,2,3.73-.44,1.12-1.65,1.06-2.84.65A2.74,2.74,0,0,0,386.26,308.5Z" style="fill:#f4cdd4"/><path d="M384.48,316.82c.8-1.75-1.17-2.85-2.35-3.32a25.42,25.42,0,0,0,1.74-2c1.44.82,4.08,2,4.78.24s-.91-3-2-3.73c.38-.47.79-1,1.21-1.45,2.77,2.87,6.19-.5,8.55-4.65.56-1,.68-1.62.54-2a2.59,2.59,0,0,1,2.82,2.21c-2.74,5.94-10.34,21.41-18.32,27.36-.73-.5-2.13-1.69-4-3.29C379.33,323.94,383.61,318.73,384.48,316.82Z" style="fill:#e36386"/><path d="M390.81,301.41c.4-.65.82-1.44,1.27-2.35,1.57.49,4.41,1.11,4.73-.78s-1.54-2.77-2.74-3.23c.32-.6.64-1.23,1-1.86,3.05-5.61,6.49-9.18,9.06-8.2a2.57,2.57,0,0,1,1.52,1.51c-1.4,6.4-5.57,23.13-12.11,30.62-.82-.35-2.44-1.19-4.59-2.38,1.33-2.54,4.42-8.54,4.86-10.59C394.2,302.27,392.05,301.62,390.81,301.41Z" style="fill:#f4cdd4"/><path d="M396.81,298.28c-.32,1.89-3.16,1.27-4.73.78.6-1.18,1.26-2.55,2-4C395.27,295.51,397.11,296.51,396.81,298.28Z" style="fill:#f4cdd4"/><path d="M405.64,286.5c.84,2,.27,6-2,13-3.07,9.73-6.41,18.83-9.79,17.75l-.34-.14C400.07,309.63,404.24,292.9,405.64,286.5Z" style="fill:#f4cdd4"/><path d="M388.44,303.16c.81.23,1.55-.47,2.37-1.75,1.24.21,3.39.86,3,2.74-.44,2.05-3.53,8.05-4.86,10.59-2.95-1.63-6.89-3.88-11.05-6.3,1-3.41,2.38-7.15,3.21-9.27C384.5,301.09,387.22,302.58,388.44,303.16Z" style="fill:#f4cdd4"/><path d="M355.4,284.57c4.9,2.57,17.37,9.86,25.7,14.6-.83,2.12-2.23,5.86-3.21,9.27-11.1-6.46-23.84-14.07-23.84-14.07s-4,4.6-6.34,7.16-6.34-14.71-6.34-14.71S348.49,281,355.4,284.57Z" style="fill:#f4cdd4"/><path d="M393.77,295.63c.1-.18.2-.38.3-.58,1.2.46,3,1.46,2.74,3.23-.2,1.19-1.4,1.38-2.65,1.24A2.75,2.75,0,0,0,393.77,295.63Z" style="fill:#f4cdd4"/><path d="M393.8,304.15c.4-1.88-1.75-2.53-3-2.74.4-.65.82-1.44,1.27-2.35,1.57.49,4.41,1.11,4.73-.78s-1.54-2.77-2.74-3.23l.88-1.67c3.3,2.23,5.95-1.8,7.37-6.35.34-1.08.33-1.73.11-2.09a2.63,2.63,0,0,1,1.69.05,2.57,2.57,0,0,1,1.52,1.51c-1.4,6.4-5.57,23.13-12.11,30.62-.82-.35-2.44-1.19-4.59-2.38C390.27,312.2,393.36,306.2,393.8,304.15Z" style="fill:#e36386"/><path d="M329.26,292.71l12.39-7.15a72,72,0,0,1,11,21.88c-19.5,14.79-36.17,21.81-47.17,5.69-1.82-3.74-.76-6-.76-6Z" style="fill:#fa7598"/><path d="M316.08,262.56s5.1,2.83,9.76-2.45,6-12.65,6-12.65-3.4-3.41-2.59-4.62,4.3,1.26,4.3,1.26-4-10-1.64-10.9,3.35,8.79,3.35,8.79,2.35-8.56,4.19-8.11-1.07,8.64-1.07,8.64,5.55-4.92,6.63-4-5.25,6-5.25,6,6.88-1.55,7.52-.31S341,247,341,247s1.59,6.07-4.24,7c-2.43,5.81-7.55,13.81-11.32,15s-9.86.26-9.86.26Z" style="fill:#fad8bf"/><g style="opacity:0.30000000000000004;mix-blend-mode:multiply"><path d="M316.08,262.56s5.1,2.83,9.76-2.45,6-12.65,6-12.65-3-3-2.69-4.39a5.72,5.72,0,0,0,3.55,4c0,3.92-2.67,9.6-6.33,14.05s-3.06,7.39.55,5,8.79-12.29,8.79-12.29a1.32,1.32,0,0,1-.5-1.29c4.25,1.24,5.73-4,5.15-6.43,3.74-.39,5.72-1.24,6.76-2.06a.61.61,0,0,1,.16.16c.63,1.26-6.27,2.81-6.27,2.81s1.59,6.07-4.24,7c-2.43,5.81-7.55,13.81-11.32,15s-9.86.26-9.86.26Z" style="fill:#dfa679"/></g><path d="M315.12,271.39l2.48-10.56s-11.22-2.17-17-1.63l-.22,3.26Z" style="fill:#fa7598"/><path d="M292.65,258.89c8.65,3.21-1.62,26.4-1.62,26.4-9.3-4.41-12.58-5.61-12.58-5.61S286.09,259.72,292.65,258.89Z" style="fill:#fa7598"/><path d="M296,263.75c-.35-2.32-1.33-4.12-3.32-4.86l.42-4.43,7.25,1.75s.15,1.73.4,4.68C300.72,260.89,301.52,266.78,296,263.75Z" style="fill:#e5ba9c"/><path d="M296,263.75c5.55,3,4.75-2.86,4.75-2.86,7.22,4.16,18.9,12.27,31.66,31.28l-27,21.25A98.8,98.8,0,0,1,291,285.29S297.12,271.54,296,263.75Z" style="fill:#fa7598"/><path d="M292.21,213.45s-9.22-8.9-22-1.21-13.55,25.54-10.93,40c1.81,9.86-3.82,10.1-5.61,8.71,1.19,4.68,4.76,6.23,7.76,4.68-3.16,5.24,2.12,12.71,5.1,14.08-2-2.71,1.6-8.24,1.6-8.24s1.6,12.69,22.2,10.36c-7.22-2.23-7.79-11.41-7.79-11.41s4.22,5,6.66,4.48-.56-3.13-5.2-9.57S270.66,236.27,292.21,213.45Z" style="fill:#5e3503"/><path d="M279.82,245.53c-2.47.49-6.47-6.22-3.38-7.79s5.1,2.28,5.1,2.28.58-9.4,1.37-14.53c1.93,3.88,4.32,8.21,4.32,8.21s2-5.25,2-9.24a16.29,16.29,0,0,0,6.06,3.61s-.13-1.22-2-4.11c5.27,3.61,14.53,4.12,14.53,4.12s-1-3.57-3.66-4.75c1.81-.07,6.89,2.9,9.07,6.5a26.25,26.25,0,0,1-.1,5.95c-.56,5.17.06,6.14.91,8.29s.8,6.71-9.09,11.51-19.43-.18-22.27-2.9A23.7,23.7,0,0,1,279.82,245.53Z" style="fill:#fad8bf"/><path d="M268.72,239.06c-1.61-9.91,1.2-15.17,6.64-17.65,0,0,6.55-13.18,23.47-9.88,10.47,3.14,16.7,8.51,17.11,18.2-1.65-3.74-3.62-4.65-3.62-4.65a7,7,0,0,1,1.68,5.44l-.76-.69c-2.18-3.6-7.26-6.57-9.07-6.5,2.62,1.18,3.66,4.75,3.66,4.75s-9.26-.51-14.53-4.12c1.86,2.89,2,4.11,2,4.11a16.29,16.29,0,0,1-6.06-3.61c0,4-2,9.24-2,9.24s-2.39-4.33-4.32-8.21c-.79,5.13-1.37,14.53-1.37,14.53s-2-3.86-5.1-2.28.91,8.28,3.38,7.79a23.7,23.7,0,0,0,2.87,7.15C280.94,253.3,270.34,249,268.72,239.06Z" style="fill:#7d4902"/><path d="M277.27,240.68a.6.6,0,0,1,.2-.08.78.78,0,0,1,.24,0h.3a2.15,2.15,0,0,1,.32.13,2.44,2.44,0,0,1,.33.23c.1.1.21.19.31.3a4.57,4.57,0,0,1,.29.36c.08.13.18.24.26.38s.18.26.25.38.28.49.41.69a6.4,6.4,0,0,0,.41.7s-.07-.32-.22-.78a3.47,3.47,0,0,0-.15-.36c-.05-.13-.11-.28-.17-.4l-.23-.42c-.08-.14-.19-.27-.28-.41a2.76,2.76,0,0,0-.31-.37c-.11-.13-.26-.22-.37-.33a1.83,1.83,0,0,0-.42-.21,1.21,1.21,0,0,0-.41-.09h-.19l-.16,0a1.08,1.08,0,0,0-.24.11A.69.69,0,0,0,277.27,240.68Z" style="fill:#c48053"/><path d="M278.85,243.47s.07-.12.15-.28.08-.18.13-.27l.12-.31c.09-.21.17-.41.25-.55l.07-.1a.35.35,0,0,0,.05-.08l.06-.06h-.08a.17.17,0,0,0-.12,0,.45.45,0,0,0-.12.06.77.77,0,0,0-.25.23,1.35,1.35,0,0,0-.19.33,1.61,1.61,0,0,0-.12.68A1,1,0,0,0,278.85,243.47Z" style="fill:#c48053"/><path d="M309.82,239.88c0,1,.2,1.88.54,1.89s.65-.81.7-1.83-.19-1.89-.53-1.91S309.87,238.84,309.82,239.88Z" style="fill:#292524"/><path d="M310.37,238.78c0,.34.16.59.31.57s.26-.28.23-.61-.16-.57-.31-.57S310.34,238.46,310.37,238.78Z" style="fill:#fff"/><path d="M295.12,239.67c0,1,.19,1.88.53,1.89s.65-.8.71-1.84-.2-1.87-.54-1.89S295.17,238.64,295.12,239.67Z" style="fill:#292524"/><path d="M295.67,238.58c0,.33.15.58.31.56s.25-.28.23-.61-.17-.57-.32-.56S295.64,238.25,295.67,238.58Z" style="fill:#fff"/><path d="M304.67,241.59l.6.69c.19.21.39.46.61.72a8.67,8.67,0,0,1,.62.84,1.32,1.32,0,0,1,.18.44v.07l0,.13a.77.77,0,0,1-.12.17,2.58,2.58,0,0,1-.69.56,8.58,8.58,0,0,1-.79.44,3.75,3.75,0,0,0,.87-.29,2.65,2.65,0,0,0,.82-.53,1.8,1.8,0,0,0,.18-.25l0-.13a1.34,1.34,0,0,0,0-.19,1.45,1.45,0,0,0-.22-.57,6.88,6.88,0,0,0-1.36-1.52A7.38,7.38,0,0,0,304.67,241.59Z" style="fill:#c48053"/><path d="M300.68,233.69a6.67,6.67,0,0,0-.7-1.63,5.87,5.87,0,0,0-.51-.7,3,3,0,0,0-.74-.68,2.28,2.28,0,0,0-1.05-.42l-.29,0-.3,0-.16,0h-.09l-.06,0-.25.08c-.16.07-.34.19-.51.28l-.45.33a7.34,7.34,0,0,0-.73.75,8.09,8.09,0,0,0-1,1.54,9,9,0,0,0-.67,1.63l.25-.4c.16-.26.42-.63.71-1a16.46,16.46,0,0,1,1.1-1.36,8.83,8.83,0,0,1,.71-.65c.12-.1.26-.2.39-.29a3.93,3.93,0,0,1,.41-.21l.24-.09.06,0h0s0,0,0,0h0l.11,0c.07,0,.13,0,.21,0h.22a2.26,2.26,0,0,1,.42.09,2.93,2.93,0,0,1,.4.19,3.66,3.66,0,0,1,.69.54,6.06,6.06,0,0,1,.55.61,8.28,8.28,0,0,1,.73,1Z" style="fill:#7d4902"/><path d="M313.37,233.14a.84.84,0,0,0-.05-.24,1.72,1.72,0,0,0-.3-.59,1.07,1.07,0,0,0-.36-.3.81.81,0,0,0-.27-.11.76.76,0,0,0-.3,0,1.45,1.45,0,0,0-.58.14,5.59,5.59,0,0,0-.47.33,3.59,3.59,0,0,0-.38.4c-.11.13-.2.29-.3.42-.16.28-.3.55-.41.79a5.64,5.64,0,0,0-.26.84,7.67,7.67,0,0,0,.57-.66l.54-.66c.1-.11.21-.22.31-.34a2.57,2.57,0,0,1,.33-.33,2.68,2.68,0,0,1,.34-.27,1.12,1.12,0,0,1,.36-.13.47.47,0,0,1,.16,0,.32.32,0,0,1,.17,0,1.09,1.09,0,0,1,.31.14,2.56,2.56,0,0,1,.44.4Z" style="fill:#7d4902"/><path d="M306.78,249.26s-6.67,1.45-11.16-1.65c.82,4.37,2.8,6.53,4.57,6.6S305.16,249.81,306.78,249.26Z" style="fill:#510012"/><path d="M296.17,249.75a14.82,14.82,0,0,1-.55-2.14,13.73,13.73,0,0,0,8,2C302.91,250.62,300.71,252.74,296.17,249.75Z" style="fill:#fff"/><path d="M300.82,254.09a1.33,1.33,0,0,1-.63.12c-1.26-.05-2.63-1.17-3.61-3.4A5.35,5.35,0,0,1,300.82,254.09Z" style="fill:#fd7072"/><path d="M300.18,254.4c-1.61-.07-3.82-1.89-4.75-6.76l-.07-.44.36.25a12.58,12.58,0,0,0,6.93,2,19.38,19.38,0,0,0,4.09-.33l.09.36a10.49,10.49,0,0,0-2.64,2.16c-1.43,1.39-2.89,2.82-4,2.8Zm2.46-4.62a13.37,13.37,0,0,1-6.76-1.77c.66,3,2.2,5.92,4.32,6l0,.19V254c.94,0,2.42-1.42,3.71-2.68a23.41,23.41,0,0,1,1.9-1.75A19.56,19.56,0,0,1,302.64,249.78Z" style="fill:#c48053"/><path d="M297.24,250.94c1.19,2.25,2.38,2.45,3.11,2.29a4.75,4.75,0,0,1,.47.86,1.33,1.33,0,0,1-.63.12c-1.26-.05-2.63-1.17-3.61-3.4A5.51,5.51,0,0,1,297.24,250.94Z" style="fill:#d9494d"/><g style="opacity:0.30000000000000004;mix-blend-mode:multiply"><path d="M276.44,237.74c3.07-1.58,5.1,2.28,5.1,2.28s.58-9.4,1.37-14.53c1.93,3.88,4.32,8.21,4.32,8.21s2-5.25,2-9.24a16.29,16.29,0,0,0,6.06,3.61s-.13-1.22-2-4.11c5.27,3.61,14.53,4.12,14.53,4.12s-1-3.57-3.66-4.75c1.81-.07,6.89,2.9,9.07,6.5l0,.36a24.33,24.33,0,0,0-5.35-4.33s.44.47,0,2.88c-5.7.55-12.34-2.1-12.34-2.1l.21,2.43a6.31,6.31,0,0,1-5.7-1.83c-.45,2.91-3,8.73-3,8.73s-.49,0-1.3-1.72a47.9,47.9,0,0,0,2.31,17.93c1.9,5.22,9.76,6.92,18.66,1.27s7-8.4,6.32-11.48a7.46,7.46,0,0,1-.13-2.14,10.91,10.91,0,0,0,1.1,4.24c.85,2.14.8,6.71-9.09,11.51s-19.43-.18-22.27-2.9a23.7,23.7,0,0,1-2.87-7.15C277.35,246,273.35,239.31,276.44,237.74Z" style="fill:#dfa679"/></g><path d="M296,263.75a7.82,7.82,0,0,0,1.84.76A67.51,67.51,0,0,0,300.16,280c2.81,9.68,12.85,18.81,21.43,13.24,7.33-4.77-2.63-17.41-5.65-20.95a116.63,116.63,0,0,1,16.44,19.84l-27,21.25A98.8,98.8,0,0,1,291,285.29S297.12,271.54,296,263.75Z" style="fill:#fa7598"/><path d="M285.7,282.9l-2.39,6.27s7.44,2.61,11.95,5.88c2.3-3.41,2.73-3.95,6.55-3.92,4.31,0,5.67,0,7.51,2.23s2,3.72.75,4.18c1.38,2.24,1.67,4.54-.63,3.83,1.91,1.82.82,3.15-.86,2.73,1,1.73-.77,2.68-2.78,1.44s-3.07-2-4.86-1.62-5-.11-6.29-2.75c-9.15-4.12-17.17-7.48-17.66-9.45s3.16-11.25,3.16-11.25Z" style="fill:#fad8bf"/><path d="M304.79,293.19s.07.14.16.37.22.56.39.95c.08.2.15.42.22.65l.23.72c.06.27.13.54.19.8a3.63,3.63,0,0,1,.16.81c.05.29.09.56.13.83a4.51,4.51,0,0,1,.07.81c0,.26,0,.52.05.76a3,3,0,0,1,0,.68c-.05.84-.05,1.42-.05,1.42s.14-.54.3-1.4a2.51,2.51,0,0,0,.08-.69c0-.25,0-.52,0-.79a3.89,3.89,0,0,0,0-.83c0-.28-.09-.58-.12-.86a4.47,4.47,0,0,0-.18-.84c-.08-.29-.16-.54-.24-.81s-.2-.49-.29-.72a6.37,6.37,0,0,0-.31-.64A6.86,6.86,0,0,0,304.79,293.19Z" style="fill:#c48053"/><path d="M310.07,297.54a2.75,2.75,0,0,0-.48-.6,7.11,7.11,0,0,0-.61-.51,5.62,5.62,0,0,0-.77-.47,4.44,4.44,0,0,0-.82-.34,4.55,4.55,0,0,0-.76-.18,4.81,4.81,0,0,0-.76-.08s.28.14.69.32a4.12,4.12,0,0,1,.69.32,4.81,4.81,0,0,1,.77.36c.27.12.51.28.75.39l.66.38C309.81,297.36,310.07,297.54,310.07,297.54Z" style="fill:#c48053"/><path d="M309,301a2.19,2.19,0,0,0-.32-.29,4,4,0,0,0-1.66-.71,1.64,1.64,0,0,0-.43-.05l.33.28a8.84,8.84,0,0,0,.8.45,5,5,0,0,0,.85.26Z" style="fill:#c48053"/><path d="M308.14,303.84a1.27,1.27,0,0,0-.24-.25,3.54,3.54,0,0,0-.62-.44,4.14,4.14,0,0,0-.71-.26,1.5,1.5,0,0,0-.35,0,1.66,1.66,0,0,0,.23.26,2.57,2.57,0,0,0,.63.43,3.24,3.24,0,0,0,.71.26A1.47,1.47,0,0,0,308.14,303.84Z" style="fill:#c48053"/><g style="opacity:0.30000000000000004;mix-blend-mode:multiply"><path d="M277.3,289.07c.41,1.77,1.73,2.08,3.81,3.3,4.15,2.78,13.36,5.26,14.16,6.7s2.35,2.8,6,3,4.17-.69,3.82-4.58-.92-6.29-3.3-6.38c4.31,0,5.67,0,7.51,2.23s2,3.72.75,4.18c1.38,2.24,1.67,4.54-.63,3.83,1.91,1.82.82,3.15-.86,2.73,1,1.73-.77,2.68-2.78,1.44s-3.07-2-4.86-1.62-5-.11-6.29-2.75c-9.15-4.12-17.17-7.48-17.66-9.45A7.69,7.69,0,0,1,277.3,289.07Z" style="fill:#dfa679"/></g><g style="opacity:0.30000000000000004;mix-blend-mode:multiply"><path d="M283.68,282l2,.89-2.28,6c-.64-.08-1.33-.17-2.07-.31C281.84,287.39,282.86,284.44,283.68,282Z" style="fill:#dfa679"/></g></g><g id="girl2"><path d="M490.07,456.27c-1.32-5.64-6.57-7.95-11.76-8.86a22,22,0,0,0-8.56.31,16.52,16.52,0,0,0-.72-3.42c-1.28-3.89-4.74-6.37-8.41-7.79a18.69,18.69,0,0,0-11.52-.68,14.64,14.64,0,0,0-4.33,2c-.4-3-1.51-5.94-4.13-7.84a12.22,12.22,0,0,0-11-1.81,15.06,15.06,0,0,0-8.69,6.28,21.58,21.58,0,0,0-1.53,2.63,23.29,23.29,0,0,0-5.66-2.11,17.36,17.36,0,0,0-13.65,2.66,21,21,0,0,0-8.23,10,9.24,9.24,0,0,0-.48,1.78c-.32-.14-.62-.28-.93-.4a22.42,22.42,0,0,0-9.23-1.87,19.4,19.4,0,0,0-12.21,5.06,19.41,19.41,0,0,0-8.61-1.65,13.44,13.44,0,0,0-13.54,9.86,10.49,10.49,0,0,0,6.27,12.66c3.92,1.67,8.38,1.25,12.46.11a.61.61,0,0,1,.05.12,13,13,0,0,0,4.94,5.52,12.61,12.61,0,0,0-.29,2.22,12.08,12.08,0,0,0,6.57,11.14,27.54,27.54,0,0,0,15.15,2.52,21.29,21.29,0,0,0,11.08-4,20.92,20.92,0,0,0,4.66,4.85c4.72,3.54,11.07,4.31,16.8,3.91A33.61,33.61,0,0,0,442,493a21.88,21.88,0,0,0,6.77-7.77c.33.17.66.33,1,.47,3.7,1.55,8,1.07,11.76-.2a21.6,21.6,0,0,0,9.66-7.27,19.44,19.44,0,0,0,2.8-4.88,5.72,5.72,0,0,0,.38-1.65,17.16,17.16,0,0,0,8.24-2C487.51,466.93,491.45,462.12,490.07,456.27Z" style="fill:#fff"/><path d="M484,469a14.49,14.49,0,0,1-6.18,1.74c-1.22.15-2.46.21-3.69.25a27.08,27.08,0,0,1-2.86,0,20.57,20.57,0,0,0,3.52.62,5.46,5.46,0,0,1-.24.88,14.42,14.42,0,0,1-2.46,4.15,22.1,22.1,0,0,1-8.15,6.34,19.11,19.11,0,0,1-10.2,1.51,11.71,11.71,0,0,1-2.16-.52,12.45,12.45,0,0,0,.79-4.53.31.31,0,0,0,0-.1,11,11,0,0,1-2,5,16.79,16.79,0,0,1-2.12,2.84,25.5,25.5,0,0,1-5.08,4.47A35.09,35.09,0,0,1,427,497.42,27.27,27.27,0,0,1,412,494.88a19.38,19.38,0,0,1-5.5-4.27,9.68,9.68,0,0,1-2.06-2.44,16.39,16.39,0,0,1-1.73-6,12.69,12.69,0,0,0,1.78,7.22,27.89,27.89,0,0,1-21.15,2.09c-4-1.23-7.29-3.49-8.82-7.55a10.12,10.12,0,0,1-.62-3.13,6.22,6.22,0,0,1,.46-4.54,8.61,8.61,0,0,1,4.31-3.63c-1.73-.06-3.22,1.35-4.22,2.62a7,7,0,0,0-.91,1.46,13,13,0,0,1-2.14-1.79,12.3,12.3,0,0,1-3.63-4.48,22.2,22.2,0,0,1-1.51-3.76c-.12-.36-.21-.73-.3-1.09a21,21,0,0,0,1.44,6.69,26.37,26.37,0,0,1-9.08,0c-4.64-.89-8.44-4.69-8.21-9.59.26-5.63,5.33-10.2,10.75-10.65a27,27,0,0,1,8.32.58,11.55,11.55,0,0,1,1.27.38,16.32,16.32,0,0,0-2.11,2.73c-.18.42-.35.84-.51,1.27a13.56,13.56,0,0,1,4.52-4.61,19.61,19.61,0,0,1,12.51-4.62,22.8,22.8,0,0,1,8.68,2,9.63,9.63,0,0,0,.22,3.68,9.72,9.72,0,0,1,1.53-6c.2-.44.42-.86.63-1.26a22.07,22.07,0,0,1,9.37-8.86,17.65,17.65,0,0,1,13.59-.57,23.52,23.52,0,0,1,2.43.94l0,0,.41.17h0l.07,0a4.92,4.92,0,0,1,.58.26,26.76,26.76,0,0,1,2.39,1.21,10,10,0,0,0-2.33-1.92,3.85,3.85,0,0,0-.38-.23c.41-.76.86-1.49,1.31-2.17a13.51,13.51,0,0,1,8.2-5.73,15.49,15.49,0,0,1,5.16-.48,10.86,10.86,0,0,1,4.49,1.72,10,10,0,0,1,4.58,6.16,5,5,0,0,1,.37,1,12,12,0,0,1,.82,2.59.38.38,0,0,0,.17-.3c0-.44,0-.87-.07-1.3a20.29,20.29,0,0,1,2.45-1.07,17.84,17.84,0,0,1,11.28,0c3.38,1,6.75,3.07,8.52,6.18a12,12,0,0,1,1.47,4.17,9,9,0,0,0-4.8,3,11.55,11.55,0,0,1,8-2.58,24.47,24.47,0,0,1,6,.63c4.59,1,9,3,10.43,7.91C491.94,462,488.09,466.6,484,469Z" style="fill:#fff"/><path d="M460.82,462.06c2.18,3,2.18,7.4,6.53,8.7-2.18,3.48-7.83,4.79-10.88,2.61-2.63-1.64-3.52-4.26-5.11-6.58.21,7-3.25,14.58-9.69,16.59-11.75,4.36-26.55,4.8-36.13-3.48-2.06-2.06-2.13-5.3-1.56-8.53a14.1,14.1,0,0,0-2.8,10.71c-3.91.44-7.39,1.3-11.31.87-4.79-.87-11.76-3.48-10.45-9.58a10.44,10.44,0,0,1,4.22-5.34c-4.17.47-8.69,1.47-10.75,4.91a15.82,15.82,0,0,1-6.2-13.85c-2.36,2.61-4,6.27-2.94,9.93-6.18,1.3-12.6-2.26-13.46-7.59a10.72,10.72,0,0,0-.14,1.27c-.23,4.9,3.57,8.7,8.21,9.59a26.37,26.37,0,0,0,9.08,0,21,21,0,0,1-1.44-6.69c.09.36.18.73.3,1.09a22.2,22.2,0,0,0,1.51,3.76,12.3,12.3,0,0,0,3.63,4.48,13,13,0,0,0,2.14,1.79,7,7,0,0,1,.91-1.46c1-1.27,2.49-2.68,4.22-2.62a8.61,8.61,0,0,0-4.31,3.63,6.22,6.22,0,0,0-.46,4.54,10.12,10.12,0,0,0,.62,3.13c1.53,4.06,4.79,6.32,8.82,7.55a27.89,27.89,0,0,0,21.15-2.09,12.69,12.69,0,0,1-1.78-7.22,16.39,16.39,0,0,0,1.73,6,9.68,9.68,0,0,0,2.06,2.44,19.38,19.38,0,0,0,5.5,4.27A27.27,27.27,0,0,0,427,497.42a35.09,35.09,0,0,0,16.18-5.77,25.5,25.5,0,0,0,5.08-4.47,16.79,16.79,0,0,0,2.12-2.84,11,11,0,0,0,2-5,.31.31,0,0,1,0,.1,12.45,12.45,0,0,1-.79,4.53,11.71,11.71,0,0,0,2.16.52,19.11,19.11,0,0,0,10.2-1.51,22.1,22.1,0,0,0,8.15-6.34,14.42,14.42,0,0,0,2.46-4.15,5.46,5.46,0,0,0,.24-.88,20.57,20.57,0,0,1-3.52-.62,27.08,27.08,0,0,0,2.86,0c1.23,0,2.47-.1,3.69-.25A14.49,14.49,0,0,0,484,469c3.2-1.84,6.23-5,6.74-8.72C483.87,469.14,468.85,470.93,460.82,462.06Z" style="fill:#fff;opacity:0.4"/><path d="M403.12,461.59c.94,2.12,5.12,1.66,8.12.22,0-.54,0-1.12,0-1.75,0-2.88.15-8.83.39-15.53a38.79,38.79,0,0,0-7.66-.08c-.31,4.59-.51,9-.49,12.56-.9.15-1.85.3-2.84.49A11.54,11.54,0,0,1,403.12,461.59Z" style="fill:#f4cdd4"/><path d="M392.37,463.83c1.87.58,6.83.63,6.41-1.19a15.32,15.32,0,0,0-2.28-4.24,34.08,34.08,0,0,0-3.55,1.11C391.52,461.42,390.94,463.39,392.37,463.83Z" style="fill:#f4cdd4"/><path d="M403.12,461.59a11.54,11.54,0,0,0-2.45-4.09c-1.36.24-2.77.54-4.17.9a15.32,15.32,0,0,1,2.28,4.24c.42,1.82-4.54,1.77-6.41,1.19-1.43-.44-.85-2.41.58-4.32-4.44,1.7-8,4.46-7.88,9.37.25,2.89,13.77,2,21.33.76,3.21-.55,4.64-1.53,4.84-7.83C408.24,463.25,404.06,463.71,403.12,461.59Z" style="fill:#e36386"/><path d="M411.66,444.53c.43-11.67,1.12-25.58,1.65-29.23l-6.32-.86s-2,15.92-3,30A38.79,38.79,0,0,1,411.66,444.53Z" style="fill:#f4cdd4"/><path d="M412.81,420.87c.17-2.53.34-4.5.5-5.57l-6.32-.86s-.25,2.06-.64,5.35C408.51,420.08,410.67,420.45,412.81,420.87Z" style="fill:#f4cdd4"/><path d="M385.47,466.06c0-.1.06-.2.1-.3A2.64,2.64,0,0,0,385.47,466.06Z" style="fill:#f4cdd4"/><path d="M385.83,465.17a5.26,5.26,0,0,0-.26.59,3.05,3.05,0,0,1,.35-.62Z" style="fill:#f4cdd4"/><path d="M385.47,466.06a8.36,8.36,0,0,0-.4,2.82c.25,2.89,13.77,2,21.33.76,2.09-.35,3.42-.9,4.16-3-2.64,1.49-7.87,2.67-16.21,2.88C385.67,469.78,385.11,467.42,385.47,466.06Z" style="fill:#f4cdd4;mix-blend-mode:multiply"/><path d="M450,461c-.81,2.16-5,2-8.1.77-.05-.56-.1-1.12-.14-1.75-.18-2.87-.75-8.8-1.45-15.47a39.53,39.53,0,0,1,7.63-.62c.63,4.56,1.12,8.93,1.35,12.52l2.87.29A11.29,11.29,0,0,0,450,461Z" style="fill:#f4cdd4"/><path d="M460.84,462.44c-1.84.7-6.76,1.1-6.48-.75a15.33,15.33,0,0,1,2-4.39,36,36,0,0,1,3.62.86C461.53,460,462.24,461.88,460.84,462.44Z" style="fill:#f4cdd4"/><path d="M450,461a11.29,11.29,0,0,1,2.16-4.26c1.37.15,2.81.35,4.22.61a15.33,15.33,0,0,0-2,4.39c-.28,1.85,4.64,1.45,6.48.75,1.4-.56.69-2.46-.87-4.28,4.54,1.39,8.26,3.91,8.49,8.82,0,2.89-13.6,2.89-21.22,2.22-3.24-.34-4.75-1.21-5.37-7.48C445,462.94,449.16,463.11,450,461Z" style="fill:#e36386"/><path d="M440.28,444.5c-1.23-11.61-2.86-25.44-3.64-29.05l6.23-1.28s3.13,15.73,5,29.71A39.53,39.53,0,0,0,440.28,444.5Z" style="fill:#f4cdd4"/><path d="M437.52,421c-.36-2.5-.65-4.45-.88-5.51l6.23-1.28s.41,2,1,5.29C441.74,419.9,439.62,420.41,437.52,421Z" style="fill:#f4cdd4"/><path d="M467.88,464.18c0-.09-.09-.18-.13-.29Z" style="fill:#f4cdd4"/><path d="M467.47,463.33c.1.18.19.36.28.56a3.56,3.56,0,0,0-.38-.59Z" style="fill:#f4cdd4"/><path d="M467.88,464.18a8.71,8.71,0,0,1,.58,2.8c0,2.89-13.6,2.89-21.22,2.22-2.11-.22-3.48-.69-4.35-2.7,2.72,1.32,8,2.15,16.37,1.79C467.93,467.91,468.34,465.52,467.88,464.18Z" style="fill:#f4cdd4;mix-blend-mode:multiply"/><path d="M426.08,357.89c7.47,1.21,9.72-6.1,8.66-14.17a50.44,50.44,0,0,1-14.7,0C419.59,347.85,419.39,356.82,426.08,357.89Z" style="fill:#f4d9bf"/><path d="M435,348.17a26.1,26.1,0,0,0-.23-4.45,50.44,50.44,0,0,1-14.7,0,30.43,30.43,0,0,0-.15,4.85A29.62,29.62,0,0,0,435,348.17Z" style="fill:#efcaa6"/><path d="M439.31,345.39s28.24,2.59,43.37,5.15c2.46-3.34,4.36-7.14,5.93-6.93s-.87,3.28-.95,5.14c7.21-3.4,9.53-3.73,9.77-2.85s-6.66,4-6.66,4,9.36-.16,9.86,1.73-9,1.32-9,1.32,7.84,1.79,7.9,3.52-8.61-.53-8.61-.53,5.86,4,5.09,5.27-7.35-3.08-7.35-3.08-4.37,1.1-6.09-2.28c-14.62-1.25-41.5-1.75-41.5-1.75Z" style="fill:#f4d9bf"/><path d="M487.68,348.18a3.11,3.11,0,0,1,.35.88,3.9,3.9,0,0,1,.1.95,4.78,4.78,0,0,1-.13,1.1,3.75,3.75,0,0,1-.48,1,2.44,2.44,0,0,1-.66.72,2,2,0,0,1-.6.34l-.26.09.15-.22c.05-.07.1-.13.16-.23a3.4,3.4,0,0,1,.18-.3c.07-.11.12-.23.19-.36l.18-.39c.06-.14.09-.31.16-.45a3.47,3.47,0,0,0,.13-.46,13.38,13.38,0,0,0,.38-1.81C487.61,348.55,487.68,348.18,487.68,348.18Z" style="fill:#c39368"/><path d="M417.05,344.38s-28.36,0-43.66,1.17c-2.15-3.55-3.69-7.52-5.28-7.44s.57,3.34.48,5.21c-6.87-4.06-9.14-4.6-9.47-3.75s6.27,4.61,6.27,4.61-9.31-1-10,.83,8.82,2.13,8.82,2.13-8,1.07-8.18,2.79,8.62.26,8.62.26-6.2,3.45-5.54,4.79,7.6-2.4,7.6-2.4,4.24,1.49,6.25-1.73c14.68.11,41.51,2.06,41.51,2.06Z" style="fill:#f4d9bf"/><path d="M368.62,342.74a3,3,0,0,0-.41.84,4.2,4.2,0,0,0-.16,2,3.92,3.92,0,0,0,.36,1.08,2.94,2.94,0,0,0,.61.78,1.93,1.93,0,0,0,.57.4l.23.09-.12-.22-.14-.24a3.09,3.09,0,0,0-.14-.32,2.43,2.43,0,0,1-.16-.37c-.06-.14-.09-.28-.15-.42a4.36,4.36,0,0,1-.12-.46,3.26,3.26,0,0,1-.09-.47,14.55,14.55,0,0,1-.2-1.83C368.66,343.12,368.62,342.74,368.62,342.74Z" style="fill:#c39368"/><path d="M439.43,342.8a39.71,39.71,0,0,1-4.69.92c1.06,8.07-1.19,15.38-8.66,14.17-6.69-1.07-6.49-10-6-14.17a37.59,37.59,0,0,1-3.93-.81s-16.22,52.78-17.32,70.29c0,0,26.71,7.84,51.72,2.07C450.51,415.27,444.89,355.73,439.43,342.8Z" style="fill:#fa7598"/><path d="M409.51,323.16s-4.28-.06-3.76,5.1a4.12,4.12,0,0,0,5.12,3.54C410.21,329.54,410.14,325,409.51,323.16Z" style="fill:#f4d9bf"/><path d="M445.83,324.37a28,28,0,0,1-1.11,7.32c2.79.27,6.59-1.59,6.31-5.39S447.5,322.36,445.83,324.37Z" style="fill:#f4d9bf"/><ellipse cx="428.34" cy="324.56" rx="18.92" ry="23.33" style="fill:#f4d9bf"/><path d="M434.85,326.22c-.05,1.26.49,2.3,1.21,2.31s1.35-1,1.4-2.24S437,324,436.25,324,434.91,325,434.85,326.22Z" style="fill:#673121"/><path d="M436.38,325.31c0,.38.23.68.45.66s.37-.32.35-.69-.23-.68-.45-.68S436.36,324.93,436.38,325.31Z" style="fill:#fff"/><path d="M422.89,326.22c.05,1.26-.48,2.3-1.2,2.31s-1.35-1-1.4-2.24.48-2.29,1.2-2.31S422.84,325,422.89,326.22Z" style="fill:#673121"/><path d="M421.36,325.31c0,.38-.22.68-.44.66s-.37-.32-.36-.69.24-.68.46-.68S421.39,324.93,421.36,325.31Z" style="fill:#fff"/><path d="M423.5,336.44a70.64,70.64,0,0,0,10.35.13,5.15,5.15,0,0,1-5.69,5.48C424.74,341.85,423.36,338.48,423.5,336.44Z" style="fill:#96172d"/><path d="M427.24,341.9a4.53,4.53,0,0,0,.92.15,5.7,5.7,0,0,0,3.14-.68C429.78,340.2,428.06,341.25,427.24,341.9Z" style="fill:#ed776f"/><path d="M427.81,339.21a8.78,8.78,0,0,0,6-1.73,6.78,6.78,0,0,0,0-.91,67.56,67.56,0,0,1-9.32-.05A3.09,3.09,0,0,0,427.81,339.21Z" style="fill:#fff"/><path d="M422.17,336.08l.57.08c.18,0,.4.06.65.08l.84.09,1,.08c.36,0,.74,0,1.12.06l1.2.06,1.23,0c.42,0,.83,0,1.24,0h1.2l1.12,0c.36,0,.69,0,1,0,.61,0,1.14,0,1.5-.06h.57l-.56.08-1.5.19-1,.1-1.12.06-1.21,0c-.41,0-.82,0-1.24,0l-1.25,0-1.2-.1c-.39,0-.77-.06-1.12-.11l-1-.14c-.3,0-.58-.1-.83-.15l-.65-.15Z" style="fill:#c39368"/><path d="M418.66,322.86c.32-.79,1.81-1.08,2.88-.87a5.09,5.09,0,0,1,3,1.89c0,.1,0,.17-.14.19a.16.16,0,0,1-.18.06,12.36,12.36,0,0,0-3-.83,2.83,2.83,0,0,0-1.73.5,1,1,0,0,1-.92.21.44.44,0,0,1-.36-.43A1.05,1.05,0,0,1,418.66,322.86Z" style="fill:#873300"/><path d="M439.25,322.86c-.31-.79-1.8-1.08-2.88-.87a5.09,5.09,0,0,0-3,1.89c-.05.1,0,.17.14.19a.16.16,0,0,0,.18.06,12.31,12.31,0,0,1,3-.83,2.8,2.8,0,0,1,1.72.5,1,1,0,0,0,.92.21.44.44,0,0,0,.36-.43A1,1,0,0,0,439.25,322.86Z" style="fill:#873300"/><circle cx="415.1" cy="329.61" r="1.89" style="fill:#f9cbc0"/><circle cx="441.59" cy="329.61" r="1.89" style="fill:#f9cbc0"/><path d="M415.73,311.32c-1.94,3.67-1.87,8.87-1.87,8.87l7.6.56s.67-5.95,3.1-8.17c-2.24,5-1.49,8-1.49,8l11.2.82a19.76,19.76,0,0,0,1.64-7.59c1.51,3.83-.14,8.17-.14,8.17l8.29-.64a18.31,18.31,0,0,0,.68-7.53c1.28,5.24.56,6.88.56,6.88l1-.26s-.23,15.72-6.59,24.92c3.86,1.13,15.41-10.41,16.36-25.65s-8.56-30.49-20.24-25.93c-4-6.07-16.49-5.69-24.75,4,0,0-12.66,12.48-9.25,34.13,2.95,12.72,10.44,14.17,14.27,13.23,0,0-6.47-3.09-5.4-12.37s1.26-12.61,1.26-12.61A82.59,82.59,0,0,1,415.73,311.32Z" style="fill:#9b552b"/></g><g id="girl"><path d="M336.1,144.23c-3.09-13.18-15.39-18.61-27.54-20.73a51.93,51.93,0,0,0-20,.72,38.21,38.21,0,0,0-1.68-8c-3-9.1-11.1-14.91-19.71-18.24a43.73,43.73,0,0,0-26.94-1.58A33.73,33.73,0,0,0,230.07,101c-.95-7.11-3.53-13.88-9.65-18.35C212.56,77,204,75.94,194.71,78.45a35.2,35.2,0,0,0-20.35,14.7,49.5,49.5,0,0,0-3.57,6.15,54.74,54.74,0,0,0-13.25-4.93c-11.25-2.79-22.36.09-31.95,6.22a49.14,49.14,0,0,0-19.27,23.51,24.4,24.4,0,0,0-1.12,4.15c-.72-.33-1.44-.65-2.17-1-6.93-2.81-14.09-4.59-21.61-4.35a45.12,45.12,0,0,0-28.56,11.84c-6.15-3-13.4-3.87-20.16-3.87-7.85,0-14.62,1.87-20.85,6.74A32.13,32.13,0,0,0,1,154c-3.67,12.43,3,24.67,14.67,29.65,9.19,3.91,19.63,2.91,29.17.25a1.39,1.39,0,0,1,.12.28,30.35,30.35,0,0,0,11.56,12.91,32.62,32.62,0,0,0-.68,5.2c-.59,10.86,5.89,21.12,15.37,26.06,10.88,5.66,23.4,7,35.46,5.9,9.2-.79,18.59-3.78,25.94-9.45a49,49,0,0,0,10.9,11.36c11,8.28,25.93,10.08,39.31,9.13a78.55,78.55,0,0,0,40.83-15.17c6.43-4.81,12.38-11,15.84-18.18.76.39,1.54.76,2.36,1.11,8.67,3.62,18.81,2.46,27.52-.47,8.88-3,17-9.69,22.63-17a46.43,46.43,0,0,0,6.55-11.44,13.69,13.69,0,0,0,.87-3.84,40.3,40.3,0,0,0,19.29-4.74C330.1,169.19,339.33,157.92,336.1,144.23Z" style="fill:#fff"/><path d="M321.8,173.93A33.52,33.52,0,0,1,307.34,178c-2.85.36-5.75.51-8.65.61a64,64,0,0,1-6.67,0,49,49,0,0,0,8.23,1.44,14.6,14.6,0,0,1-.54,2,34.83,34.83,0,0,1-5.76,9.71,51.64,51.64,0,0,1-19.08,14.85A44.81,44.81,0,0,1,251,210.24a27.93,27.93,0,0,1-5.05-1.22,29.45,29.45,0,0,0,1.86-10.6.48.48,0,0,0,0-.22c-.15,4.15-2.58,8.33-4.65,11.73a41.66,41.66,0,0,1-5,6.65A60.22,60.22,0,0,1,226.26,227a82.06,82.06,0,0,1-37.87,13.5c-11.88,1.18-24.25-.51-34.92-5.94a45.31,45.31,0,0,1-12.87-10,23.57,23.57,0,0,1-4.84-5.72c-2.59-4.41-3.26-9.24-4-14.13a29.81,29.81,0,0,0,4.16,16.91,65.21,65.21,0,0,1-49.49,4.89C77,223.69,69.33,218.4,65.76,208.9a23.52,23.52,0,0,1-1.45-7.32A14.51,14.51,0,0,1,65.37,191c2.33-4.36,6-6.54,10.09-8.51-4-.15-7.55,3.16-9.89,6.13A18.7,18.7,0,0,0,63.45,192a30.21,30.21,0,0,1-5-4.19c-3.71-2.61-6.41-6.47-8.52-10.49a51.4,51.4,0,0,1-3.53-8.79c-.26-.85-.49-1.7-.69-2.56a48.93,48.93,0,0,0,3.38,15.65,61.47,61.47,0,0,1-21.26.11c-10.87-2.08-19.76-11-19.22-22.44.61-13.16,12.49-23.87,25.17-24.93a63,63,0,0,1,19.46,1.36,25.37,25.37,0,0,1,3,.89A38,38,0,0,0,51.29,143c-.43,1-.83,2-1.19,3a31.88,31.88,0,0,1,10.56-10.79c7.92-7,19.07-10.73,29.28-10.81,6.87-.05,14,2.08,20.32,4.72a22.39,22.39,0,0,0,.52,8.62,22.73,22.73,0,0,1,3.58-14c.46-1,1-2,1.49-3a51.26,51.26,0,0,1,21.93-20.73c10-4.91,21.34-4.91,31.8-1.35,1.95.67,3.85,1.37,5.68,2.21,0,0,0,0,0,.07l1,.37h0l.16.08c.45.2.9.4,1.36.62,1.86.89,3.8,1.77,5.6,2.86a23.35,23.35,0,0,0-5.48-4.52l-.87-.53c1-1.77,2-3.48,3.05-5.09a31.78,31.78,0,0,1,19.19-13.39,36.82,36.82,0,0,1,12.09-1.14c4,.35,7.12,2.15,10.5,4,5.64,3.14,8.93,8.51,10.73,14.43a14.13,14.13,0,0,1,.87,2.26,27.77,27.77,0,0,1,1.91,6,.9.9,0,0,0,.4-.71q0-1.52-.18-3a50,50,0,0,1,5.75-2.53c8.48-3.15,17.86-2.55,26.4,0,7.89,2.35,15.8,7.19,19.94,14.48a29,29,0,0,1,3.44,9.74c-4.14,1.26-8.88,3.52-11.23,7a27,27,0,0,1,18.73-6,56.65,56.65,0,0,1,14,1.46c10.74,2.44,21.07,7.06,24.42,18.51C340.45,157.68,331.46,168.42,321.8,173.93Z" style="fill:#fff"/><path d="M267.64,157.77c5.08,7.14,5.08,17.32,15.28,20.38-5.09,8.15-18.34,11.2-25.47,6.12-6.15-3.84-8.24-10-11.95-15.41.48,16.35-7.62,34.13-22.69,38.84-27.51,10.19-62.14,11.21-84.55-8.15-4.82-4.81-5-12.42-3.66-20-5.29,7.35-8.15,16.21-6.53,25.07-9.18,1-17.33,3.06-26.49,2-11.21-2-27.51-8.14-24.45-22.41A24.51,24.51,0,0,1,87,171.75c-9.75,1.12-20.33,3.44-25.15,11.5-9.66-7.73-15.65-19.12-14.51-32.43-5.54,6.14-9.46,14.69-6.89,23.26C26,177.12,11,168.8,9,156.32a22.69,22.69,0,0,0-.34,3c-.54,11.47,8.35,20.36,19.22,22.44a61.47,61.47,0,0,0,21.26-.11A48.93,48.93,0,0,1,45.72,166c.2.86.43,1.71.69,2.56a51.4,51.4,0,0,0,3.53,8.79c2.11,4,4.81,7.88,8.52,10.49a30.21,30.21,0,0,0,5,4.19,18.7,18.7,0,0,1,2.12-3.42c2.34-3,5.85-6.28,9.89-6.13-4.07,2-7.76,4.15-10.09,8.51a14.51,14.51,0,0,0-1.06,10.62,23.52,23.52,0,0,0,1.45,7.32c3.57,9.5,11.21,14.79,20.64,17.67a65.21,65.21,0,0,0,49.49-4.89,29.81,29.81,0,0,1-4.16-16.91c.77,4.89,1.44,9.72,4,14.13a23.57,23.57,0,0,0,4.84,5.72,45.31,45.31,0,0,0,12.87,10c10.67,5.43,23,7.12,34.92,5.94A82.06,82.06,0,0,0,226.26,227a60.22,60.22,0,0,0,11.89-10.46,41.66,41.66,0,0,0,5-6.65c2.07-3.4,4.5-7.58,4.65-11.73a.48.48,0,0,1,0,.22,29.45,29.45,0,0,1-1.86,10.6,27.93,27.93,0,0,0,5.05,1.22,44.81,44.81,0,0,0,23.88-3.54A51.64,51.64,0,0,0,294,191.85a34.83,34.83,0,0,0,5.76-9.71,14.6,14.6,0,0,0,.54-2,49,49,0,0,1-8.23-1.44,64,64,0,0,0,6.67,0c2.9-.1,5.8-.25,8.65-.61a33.52,33.52,0,0,0,14.46-4.07c7.51-4.28,14.59-11.72,15.78-20.39C321.57,174.34,286.43,178.56,267.64,157.77Z" style="fill:#fff"/><path d="M221.77,78.24h-.22C218.4,77.87,192,76,190.5,76c0,0-2.79-.08-6.79.22,2.44,8.39-3.31,10.34-6,10.78l-.31,4.38L227.22,95l-.66-5.46C222.06,87.43,221.47,82.19,221.77,78.24Z" style="fill:#fa7598"/><path d="M221.73,79.36a10.3,10.3,0,0,1,0-1.12h-.22C218.4,77.87,192,76,190.5,76c0,0-2.79-.08-6.79.22,0,.09,0,.17,0,.27C196.42,77.41,209.07,78.42,221.73,79.36Z" style="fill:#fa7598"/><path d="M184.26,80.52a6.74,6.74,0,0,1-.13,1q19.1,1.49,38.2,2.88a9.66,9.66,0,0,1-.34-1.36C209.41,82.18,196.84,81.39,184.26,80.52Z" style="fill:#fa7598"/><path d="M225.14,88.65Q203.27,87,181.39,85.59a8.63,8.63,0,0,1-1.74.88q23.46,1.77,47,3.47l-.05-.43A6.47,6.47,0,0,1,225.14,88.65Z" style="fill:#fa7598"/><g style="mix-blend-mode:multiply"><path d="M193.71,101.33c3.48-.53,6-3.13,2.08-3.27s-6.11,2.32-6.63,2.16c-.31-.11-7.12-5-12.66-8.94l-10.29-.7C173,95.5,185.31,104,185.31,104a4.16,4.16,0,0,0,.26,3.58s-.94,9.32.8,9.06,1.2-9.17,1.88-7.54,3.47,8.59,4.65,7-3.63-10.19-1.27-8,6,6.27,7,4.48-7.42-7.15-3.78-6.22,9.12,1.85,6.81-.83S190.23,101.88,193.71,101.33Z" style="fill:#c6c6c6"/></g><path d="M198.16,74.29s-3.23,11.79,2.63,13,8.87-9.14,8.81-12.18Z" style="fill:#efcaa6"/><path d="M183.71,76.19a62.34,62.34,0,0,0-15.83,3c-10.14,3.62-9.13,6.08-7,8.09S184.12,104,184.12,104a4.1,4.1,0,0,0,.26,3.59s-.94,9.31.79,9,1.2-9.17,1.88-7.52,3.46,8.57,4.64,6.94-3.62-10.19-1.26-8,6,6.25,6.95,4.47-7.42-7.15-3.78-6.23,9.12,1.85,6.8-.83-11.38-3.59-7.9-4.14,6.05-3.13,2.09-3.29-6.12,2.34-6.63,2.16-19.75-14-19.75-14a81.08,81.08,0,0,1,9.74-3L177.67,87C180.4,86.53,186.15,84.58,183.71,76.19Z" style="fill:#efcaa6"/><path d="M182.66,81.88a5.28,5.28,0,0,1-.69.36,10.3,10.3,0,0,1-1.58.55,11.36,11.36,0,0,1-1.67.31,4.93,4.93,0,0,1-.77,0,6,6,0,0,1,.7-.36,12.43,12.43,0,0,1,1.58-.55,9.85,9.85,0,0,1,1.66-.29C182.35,81.88,182.66,81.88,182.66,81.88Z" style="fill:#c39368"/><path d="M285.12,40.55c.48-1.16,6.1-7.5,4.86-8.66s-5.34,6.23-6.35,5.5,2-11.36-.72-10.11-1.94,10.24-3.18,9.25-1.41-11.56-3.52-9.87,2.08,11.39.13,10.86-4.58-1.94-6.67-.88,5.12,2.23,5.65,4.11a6.31,6.31,0,0,1,.34,2.68s-9.27,14.66-22.5,22.95c-13,8.13-27.85,12.05-31.39,11.86-.3,4,.29,9.19,4.79,11.27L225.89,84s29.88,0,55.84-40.52a2.17,2.17,0,0,0,2.3-.61s8-.22,8.07-1.8S284.64,41.69,285.12,40.55Z" style="fill:#efcaa6"/><path d="M225.14,79.83a8,8,0,0,1,.31.78,13.27,13.27,0,0,1,.42,1.77A11.73,11.73,0,0,1,226,84.2a6.12,6.12,0,0,1,0,.85,7,7,0,0,1-.3-.8,13.44,13.44,0,0,1-.44-1.77,14.85,14.85,0,0,1-.17-1.82A6.39,6.39,0,0,1,225.14,79.83Z" style="fill:#c39368"/><path d="M178.54,44.34s-5.68-.08-5,6.76c.62,4.3,4.33,5.22,6.79,4.71C179.47,52.81,179.38,46.72,178.54,44.34Z" style="fill:#f4d9bf"/><ellipse cx="203.55" cy="46.2" rx="25.12" ry="30.99" style="fill:#f4d9bf"/><path d="M212.2,48.4c-.07,1.68.64,3.05,1.6,3.06s1.79-1.3,1.86-3-.65-3-1.6-3.06S212.27,46.74,212.2,48.4Z" style="fill:#673121"/><path d="M214.23,47.19c0,.51.3.91.59.88s.49-.43.47-.92-.31-.9-.6-.9S214.2,46.69,214.23,47.19Z" style="fill:#fff"/><path d="M196.32,48.4c.06,1.68-.65,3.05-1.6,3.06s-1.79-1.3-1.86-3,.64-3,1.6-3.06S196.25,46.74,196.32,48.4Z" style="fill:#673121"/><path d="M194.28,47.19c0,.51-.29.91-.59.88s-.48-.43-.47-.92.32-.9.6-.9S194.32,46.69,194.28,47.19Z" style="fill:#fff"/><path d="M195.83,64.55a93.22,93.22,0,0,0,13.75.17A6.82,6.82,0,0,1,202,72C197.47,71.74,195.65,67.26,195.83,64.55Z" style="fill:#96172d"/><path d="M200.8,71.8A5.27,5.27,0,0,0,202,72a7.44,7.44,0,0,0,4.17-.9C204.18,69.54,201.89,70.93,200.8,71.8Z" style="fill:#ed776f"/><path d="M201.56,68.23a11.7,11.7,0,0,0,8-2.29,9.87,9.87,0,0,0,.06-1.22,90.67,90.67,0,0,1-12.38-.06C197.4,65.94,198.24,68.07,201.56,68.23Z" style="fill:#fff"/><path d="M194.07,64.07l.75.1c.24,0,.53.08.86.11l1.13.12,1.32.11c.48,0,1,.06,1.49.08s1,.06,1.58.07l1.65,0c.55,0,1.1,0,1.64,0l1.59,0,1.49,0,1.34,0c.82-.05,1.51-.06,2-.08l.76,0-.75.11c-.49.06-1.17.16-2,.25l-1.33.14-1.49.07-1.61.08c-.54,0-1.09,0-1.65,0s-1.11,0-1.65,0l-1.6-.13c-.52,0-1-.08-1.49-.15l-1.33-.18c-.41-.06-.78-.14-1.11-.21s-.62-.13-.86-.19A6.78,6.78,0,0,1,194.07,64.07Z" style="fill:#c39368"/><path d="M190.69,43.93c.42-1,2.4-1.42,3.83-1.15a6.74,6.74,0,0,1,4,2.52c.08.12,0,.22-.19.24a.18.18,0,0,1-.23.08,16.84,16.84,0,0,0-4-1.1,3.84,3.84,0,0,0-2.29.66,1.32,1.32,0,0,1-1.22.29.58.58,0,0,1-.48-.58A1.47,1.47,0,0,1,190.69,43.93Z" style="fill:#873300"/><path d="M218,43.93c-.42-1-2.4-1.42-3.83-1.15a6.81,6.81,0,0,0-4,2.52c-.07.12,0,.22.19.24a.18.18,0,0,0,.23.08,17,17,0,0,1,4-1.1,3.82,3.82,0,0,1,2.29.66,1.34,1.34,0,0,0,1.22.29.58.58,0,0,0,.48-.58A1.39,1.39,0,0,0,218,43.93Z" style="fill:#873300"/><circle cx="185.96" cy="52.9" r="2.51" style="fill:#f9cbc0"/><circle cx="221.14" cy="52.9" r="2.51" style="fill:#f9cbc0"/><path d="M186.8,28.61c-2.57,4.88-2.48,11.78-2.48,11.78l10.09.74s.89-7.9,4.12-10.84c-3,6.6-2,10.66-2,10.66L211.42,42A26.13,26.13,0,0,0,213.6,32c2,5.09-.19,10.85-.19,10.85l11-.85a24.31,24.31,0,0,0,.89-10c1.71,7,.75,9.13.75,9.13l1.3-.34s-.3,20.87-8.75,33.09c5.12,1.5,20.46-13.82,21.72-34.06S229-.71,213.47,5.35c-5.32-8.06-21.9-7.55-32.87,5.27,0,0-16.81,16.57-12.28,45.32,3.92,16.89,13.87,18.82,19,17.57,0,0-8.59-4.1-7.17-16.42s1.68-16.75,1.68-16.75A110.61,110.61,0,0,1,186.8,28.61Z" style="fill:#ca8342"/></g><g id="boy"><path d="M505.69,171.73a21.23,21.23,0,0,0-5.68-.53c.06-.17.11-.33.18-.5a16.27,16.27,0,0,0,.38-9.76,26.07,26.07,0,0,0-4.69-8.55c-4-4.63-10-7.21-15.92-8a31.26,31.26,0,0,0-9.36.32,30.69,30.69,0,0,0-.93-7.08c-1.55-6.12-6.39-11.47-11.45-15-5.35-3.76-11.91-4.31-18.14-2.95-.65.14-1.3.33-1.95.53-2.24-5.07-8-8-13.26-9.11a22.25,22.25,0,0,0-19.41,5.41,25.7,25.7,0,0,0-6,8.07c-1.64,3.22-1.91,7-1.8,10.57a15.75,15.75,0,0,0,2.58,7.92,10.71,10.71,0,0,0-2.09,1.42,14.2,14.2,0,0,0-4.36,6.74,23.27,23.27,0,0,0-2.5-.92,29.07,29.07,0,0,0-9.91-1,24.25,24.25,0,0,0-9.31,2.89c-5.87,3-11.47,6.39-14.51,12.51a18.26,18.26,0,0,0-1.61,5.2c-.55-.16-1.11-.29-1.66-.4a21.74,21.74,0,0,0-12.53,1.1c-7.19,2.86-11.88,10.92-12.28,18.45-.47,8.72,5.86,16.38,14,18.53a22.65,22.65,0,0,0,12.88-.83,33,33,0,0,0,7.4-3.5,24,24,0,0,0,4.26,4.43c5.16,4.13,11.81,6,18.3,6.52a25.18,25.18,0,0,0,9.06-.9c1.5-.41,3-.62,4.5-1.12a40.58,40.58,0,0,0,4.56-2,28.54,28.54,0,0,0,6.95-4.5,25.29,25.29,0,0,0,2.44,2.08,27.57,27.57,0,0,0,16.14,5.6,41.23,41.23,0,0,0,17.55-3.79,33,33,0,0,0,10.4-7.72A40.89,40.89,0,0,0,474.82,209a51.83,51.83,0,0,0,14.05.94,39,39,0,0,0,13.25-3.38c7.05-3.24,14.75-9.41,15.87-17.55S513.54,173.63,505.69,171.73Z" style="fill:#fff"/><path d="M514.22,193.05c-1.81,3.75-5.64,6.62-9,8.89-7.85,5.23-17.72,6.27-26.86,5A48.49,48.49,0,0,1,464,202.81a32.8,32.8,0,0,1-4.55-2.59c.39-.46.78-.93,1.15-1.4-.49.42-1,.81-1.5,1.16-1.91,1.38-3.88,2.75-5.87,4-.23.16-.48.3-.71.45a34.79,34.79,0,0,1-4.57,2.71,39.73,39.73,0,0,1-7.74,2.65,42.84,42.84,0,0,1-8.56,1.4,27.58,27.58,0,0,1-7.21-.68,25.88,25.88,0,0,1-9.6-3.23,17.61,17.61,0,0,1-4.8-4c-.87-1.09-1.53-2.57-2.65-3.46.28.63.59,1.26.94,1.89a17.92,17.92,0,0,0,2.2,3,36.63,36.63,0,0,1-7.07,3.77,35.74,35.74,0,0,1-17.13,3.38,39.41,39.41,0,0,1-17.22-5.51,20.3,20.3,0,0,1-4.53-3.69l0,0a22.63,22.63,0,0,1-3.88-5.1,25.89,25.89,0,0,0,2.42,4.68,45.86,45.86,0,0,1-6.46,2.49,23.42,23.42,0,0,1-12.09.65c-7.65-1.76-12.74-8.51-13.2-16.24A19.18,19.18,0,0,1,342,171.24a20.85,20.85,0,0,1,12.21-1.33,16.12,16.12,0,0,1,1.69.39q-.15,1.22-.18,2.43a15.84,15.84,0,0,0,.32,2.57,24,24,0,0,0,1.19,3.33,20.7,20.7,0,0,1,.84-9.39,15.17,15.17,0,0,1,.62-1.55q.42-1.16,1-2.28c2.71-5.49,7.94-8.41,13-11.27a26.22,26.22,0,0,1,17.74-2.88,21.57,21.57,0,0,1,3.18.89,10.21,10.21,0,0,0,1.49,7.59,12.57,12.57,0,0,1,.88-9.88,16.73,16.73,0,0,1,3.73-5,8.66,8.66,0,0,1,1.22-.92l.06.09a.13.13,0,0,1,.06,0c.3-.17.6-.34.92-.49l-.06-.09a24.27,24.27,0,0,1,5.63-1.65,14.42,14.42,0,0,1,4.14-.35,9.27,9.27,0,0,1,.92.14h.28a9.6,9.6,0,0,0-3.07-.51,31.77,31.77,0,0,0-4.58.34,19,19,0,0,0-3.87,1.08,18,18,0,0,1-2.07-7.73,20.35,20.35,0,0,1,1.56-9.76,25.09,25.09,0,0,1,5.77-7.74,22.17,22.17,0,0,1,17.64-5.74c5.33.61,11.38,3.66,13.8,8.65a27.13,27.13,0,0,0-4.83,2.15,14.57,14.57,0,0,0-2.74,2.4,19.47,19.47,0,0,1,13.42-4.23,22.21,22.21,0,0,1,14.07,4.17c4.6,3.36,9,7.89,10.89,13.33A22.41,22.41,0,0,1,469.9,143a23.76,23.76,0,0,1,.36,5.37c0,.46,0,.91,0,1.36a30.16,30.16,0,0,0,.38-4.34l.39-.05a29.51,29.51,0,0,1,8.7.24,22.67,22.67,0,0,1,18.82,15.11,15,15,0,0,1,.26,9.51c-.1.39-.22.77-.35,1.15h-.08a25.44,25.44,0,0,0-4.32,1,2.49,2.49,0,0,0-1.48.83l.12,0a.29.29,0,0,1,.14,0c1.1-.82,2.85-.86,4.12-.92a25.2,25.2,0,0,1,2.75,0h0a20.17,20.17,0,0,1,5.39,1,15.43,15.43,0,0,1,9.44,8.41A14,14,0,0,1,514.22,193.05Z" style="fill:#fff"/><path d="M423.9,133a6,6,0,0,0,.41,2.65c-.08-3.25,1.94-7.07,4-9.29a18.08,18.08,0,0,1,2.92-2.49,16.35,16.35,0,0,1,1.94-1.56,27.13,27.13,0,0,1,4.83-2.15,12.64,12.64,0,0,0-2.16-3.09C430.31,118,424.34,125.06,423.9,133Z" style="fill:#fff;opacity:0.30000000000000004"/><path d="M401.3,142.51a19,19,0,0,1,3.87-1.08,31.77,31.77,0,0,1,4.58-.34,9.16,9.16,0,0,1,2.51.34,29.7,29.7,0,0,1,8.11,2,31.22,31.22,0,0,1,8.15,4.56c-5.26-8-16.5-12.66-25.37-8.81a.59.59,0,0,1-.8-.2,25.54,25.54,0,0,1-1.76-13.51,21.08,21.08,0,0,0-1.36,9.28A18,18,0,0,0,401.3,142.51Z" style="fill:#fff;opacity:0.30000000000000004"/><path d="M514.5,181.45a15.43,15.43,0,0,0-9.44-8.41,20.17,20.17,0,0,0-5.39-1h0a25.2,25.2,0,0,0-2.75,0c-1.27.06-3,.1-4.12.92a.29.29,0,0,0-.14,0l-.12,0a2.49,2.49,0,0,1,1.48-.83,25.44,25.44,0,0,1,4.32-1h.08c.13-.38.25-.76.35-1.15a15,15,0,0,0-.26-9.51,25.71,25.71,0,0,0-4-7.14,25.18,25.18,0,0,0-12.16-7.38c5.07,3.24,9.23,7.54,9.41,14.17a29.78,29.78,0,0,1-3.42,14.83c.93-.15,1.87-.29,2.8-.39,4-.47,8.23-1.11,12.09.34,3.07,1.15,4.25,4.12,3.32,7.19a16.52,16.52,0,0,1-9.1,10.07c-8.51,4-18.6,3.5-27.39.64-5.93-1.94-11.81-5.1-15.73-9.91-4.22,8.74-12.29,15.05-22.84,15.27-12,.26-25.58-7.26-29.49-19a26.18,26.18,0,0,0,2.81,10.87.62.62,0,0,1-.21.8c-8.61,5.47-26.31,11.25-36.63,6.94-5.62-2.35-8.26-7.32-10.59-13.41-.47,4.24.52,8.9,2.12,13.41.14.39-1.3.63-1.64.67-7.24.86-16,.08-21.34-5.52a15.83,15.83,0,0,1-4.3-10.29,17.59,17.59,0,0,0-.82,6.33c.46,7.73,5.55,14.48,13.2,16.24a23.42,23.42,0,0,0,12.09-.65,45.86,45.86,0,0,0,6.46-2.49,25.89,25.89,0,0,1-2.42-4.68,22.63,22.63,0,0,0,3.88,5.1l0,0a20.3,20.3,0,0,0,4.53,3.69,39.41,39.41,0,0,0,17.22,5.51,35.74,35.74,0,0,0,17.13-3.38,36.63,36.63,0,0,0,7.07-3.77,17.92,17.92,0,0,1-2.2-3c-.35-.63-.66-1.26-.94-1.89,1.12.89,1.78,2.37,2.65,3.46a17.61,17.61,0,0,0,4.8,4,25.88,25.88,0,0,0,9.6,3.23,27.58,27.58,0,0,0,7.21.68,42.84,42.84,0,0,0,8.56-1.4,39.73,39.73,0,0,0,7.74-2.65,34.79,34.79,0,0,0,4.57-2.71c.23-.15.48-.29.71-.45,2-1.24,4-2.61,5.87-4,.48-.35,1-.74,1.5-1.16-.37.47-.76.94-1.15,1.4a32.8,32.8,0,0,0,4.55,2.59,48.49,48.49,0,0,0,14.36,4.13c9.14,1.27,19,.23,26.86-5,3.39-2.27,7.22-5.14,9-8.89A14,14,0,0,0,514.5,181.45Z" style="fill:#fff;opacity:0.5"/><path d="M400.87,144l-.13.1a.67.67,0,0,1,.15-.06Z" style="fill:#fff"/><path d="M427.34,106c-.07,0-6.56-3.68-15.92,7.39l6.67,4.3S420.58,110.21,427.34,106Z" style="fill:#95e1bf"/><path d="M415.57,116.11l2.52,1.62a24.25,24.25,0,0,1,9-11.53A33.55,33.55,0,0,0,415.57,116.11Z" style="fill:#95e1bf"/><path d="M457.6,108.42c-10.32-1.65-30.26-2.38-30.26-2.38h0c-6.76,4.17-9.25,11.69-9.25,11.69l.47,7.56,42.91-2.67-.3-5,.38.53h0C459.78,115.71,457.6,108.42,457.6,108.42Z" style="fill:#95e1bf"/><path d="M418.49,124.23l.07,1.06,42.91-2.67-.06-1.16C447.1,122.36,432.8,123.31,418.49,124.23Z" style="fill:#95e1bf"/><path d="M472,116.29s-2.66-4.89-10.53-7.09a34,34,0,0,0-3.83-.78s2.18,7.29,3.95,9.74h0l2.31,3.23S469.37,119.7,472,116.29Z" style="fill:#95e1bf"/><path d="M458.13,110.1c.76,2.32,2.18,6.36,3.42,8.06h0l2.31,3.23a21.81,21.81,0,0,0,2.18-.85C463.62,116.88,461.45,113,458.13,110.1Z" style="fill:#95e1bf"/><path d="M442.46,132.19c-1.78-.13-5.1-.27-5.1-.27s4.89-1.9,5.29-2.84-.68-.82-2.16-.22-4.11,1.52-4.11,1.52,1.4-1.76,1.16-2.93-3.54,2.75-3.77,2.93-1.72-.4-2.71-.17c0,0-11.06-2.69-15.61-4.72-2.84.15-6.23.45-9.07.65,2.95,3.35,24.47,7.54,24.47,7.54a4.09,4.09,0,0,0,3.11,2.5,14,14,0,0,1,2.7,2.85c.67,1.23,2.42,1,2-.12a11.11,11.11,0,0,0-2-2.81,19.91,19.91,0,0,1,4.23,1.75c1.58,1,2.72.42,1.86-1.22s-5.25-2.44-5.25-2.44,4.25-.17,5.46-.17S444.24,132.33,442.46,132.19Z" style="fill:#c6c6c6;mix-blend-mode:multiply"/><path d="M467.35,122.08l.93,1.86-14,5.07-2.15-.86s-1-2.13-2.14-2.07,0,1.36.56,2.5,1,2.21,1,2.21-4.46-2.59-5.82-2.83-.86,1,.1,1.42,4,2.19,4,2.19-4.74-.38-5.2.32,3.91.69,4.67.71-5.13,2.6-4.08,3.21,6.14-2.57,5.63-1.36-3.08,4.73-1.58,4.3,3.29-3.91,3.29-3.91,2.24-.47,2.66-1.93c0,0,17.42-4.5,17.73-8a7.68,7.68,0,0,0-.48-3.16C470.76,121.86,469.06,121.94,467.35,122.08Z" style="fill:#c6c6c6;mix-blend-mode:multiply"/><path d="M436,111.91s-1.66,7.5,4.59,7,6-6.65,6-6.65Z" style="fill:#efcaa6"/><path d="M487.16,55.82c2.59-1.68-7-1.76-7-1.76a9.83,9.83,0,0,0-.34-5.36c-1-2.8-2.62,3.87-2.62,3.87-8.29-19.68-43.15-20-55.79-3.93s-4.84,35.64-4.84,35.64S420.79,71,431.3,61.37c0,0-4.09,6.39-2.4,6.58s5.91-2.42,24.6-6.72c0,0-3.51,4.89-1,5.26s11.7-3.12,11.7-3.12-1.6,12.11,2.2,10a10.86,10.86,0,0,0,4.86-5.17,46.63,46.63,0,0,1,3.88,26.78c25-25.79,6.61-37.33,6.61-37.33A12,12,0,0,0,487.16,55.82Z" style="fill:#decc62"/><path d="M471.24,68.16a10.86,10.86,0,0,1-4.86,5.17c-3.8,2.15-2.2-10-2.2-10s-9.2,3.48-11.7,3.12,1-5.26,1-5.26c-18.69,4.3-22.91,6.91-24.6,6.72s2.4-6.58,2.4-6.58C420.79,71,416.57,84.28,416.57,84.28a19,19,0,0,0,.94,17.73c6.94,11.57,20.37,13.82,32.94,13,16.27-1,24.67-20.1,24.67-20.1A46.63,46.63,0,0,0,471.24,68.16Z" style="fill:#f4d9bf"/><path d="M419.08,78.24s.35-4.74-3.86-4-4.07,10,1,10.68C416.27,84.94,417.77,80.8,419.08,78.24Z" style="fill:#efcaa6"/><path d="M475.18,94.52s1.71-4.9,6-3.4.94,8.43-3.85,9.91-4.82-1.4-4.82-1.4Z" style="fill:#efcaa6"/><path d="M432.57,73.32a2.38,2.38,0,0,1,.59-.68,3.6,3.6,0,0,1,1.76-.75,3.25,3.25,0,0,1,1.08,0,2.65,2.65,0,0,1,.88.4,1.49,1.49,0,0,1,.29.25,2.48,2.48,0,0,1,.18.24.92.92,0,0,1,.11.24h-.26a3.42,3.42,0,0,0-.57,0l-.73.07c-.26,0-.53,0-.8.1a14.5,14.5,0,0,1-1.65.14A5.08,5.08,0,0,1,432.57,73.32Z" style="fill:#a95a16"/><path d="M456.18,76.26a4,4,0,0,1,1.11-.62,6,6,0,0,1,2.75-.43,4.1,4.1,0,0,1,.78.13,3.56,3.56,0,0,1,.74.24c.23.1.44.24.65.35a4.36,4.36,0,0,1,.49.45,3.63,3.63,0,0,1,.33.45,1.24,1.24,0,0,1,.15.4,2.75,2.75,0,0,1,.09.34l-.3-.18a3.71,3.71,0,0,0-.32-.2l-.41-.19-.49-.17c-.19,0-.37-.09-.56-.12s-.39-.08-.61-.09l-.64-.08c-.44,0-.89-.05-1.32-.08s-.85,0-1.2-.07A11.94,11.94,0,0,1,456.18,76.26Z" style="fill:#a95a16"/><path d="M440.41,93.26s-2.47,3.24-.67,3.88a6.27,6.27,0,0,0,3.95-.24s-3.19.76-3.55-1A3.72,3.72,0,0,1,440.41,93.26Z" style="fill:#c39368"/><path d="M413.76,79.7a1.82,1.82,0,0,1,.66-.32,3.33,3.33,0,0,1,.76-.1,2.11,2.11,0,0,1,.9.19,2.26,2.26,0,0,1,.74.56,1.62,1.62,0,0,1,.23.37.91.91,0,0,1,.12.35,1.66,1.66,0,0,1,.07.54v.2l-.13-.17-.12-.18a1.09,1.09,0,0,0-.17-.22,1.12,1.12,0,0,0-.19-.24c-.09-.08-.15-.17-.24-.24a2.27,2.27,0,0,0-.58-.36,2,2,0,0,0-.34-.13,3.37,3.37,0,0,0-.34-.09,5.91,5.91,0,0,0-.67-.09Z" style="fill:#c39368"/><path d="M479.48,96.42a1.34,1.34,0,0,0-.21-.1,2.48,2.48,0,0,0-.53-.18l-.36-.06a1.3,1.3,0,0,0-.4,0c-.13,0-.26,0-.42,0l-.42.06a1.68,1.68,0,0,0-.44.07c-.14,0-.28.07-.42.11a2.34,2.34,0,0,0-.4.1c-.13,0-.24.09-.36.12a4,4,0,0,1-.79.2,4.1,4.1,0,0,1,.62-.54,3.52,3.52,0,0,1,.33-.25,2,2,0,0,1,.41-.18,2.23,2.23,0,0,1,.45-.18,1.45,1.45,0,0,1,.51-.11c.17,0,.35,0,.52,0a2.15,2.15,0,0,1,.5.07,2,2,0,0,1,.45.13c.14.07.26.14.38.19a2.36,2.36,0,0,1,.45.43A.73.73,0,0,1,479.48,96.42Z" style="fill:#c39368"/><path d="M457.52,87c-.53,1.73-1.6,3-2.35,2.72s-.95-1.84-.42-3.57,1.59-3,2.36-2.74S458.05,85.2,457.52,87Z" style="fill:#3d1a0b"/><path d="M456.34,85.14c-.2.52-.55.86-.78.77s-.24-.58,0-1.09.55-.86.78-.77S456.55,84.63,456.34,85.14Z" style="fill:#fff"/><path d="M435.65,82.3c-.53,1.74-1.58,3-2.35,2.74s-.94-1.85-.41-3.59,1.58-3,2.35-2.73S436.19,80.55,435.65,82.3Z" style="fill:#3d1a0b"/><path d="M434.48,80.49c-.2.51-.55.85-.78.77s-.24-.58,0-1.1.55-.86.78-.76S434.69,80,434.48,80.49Z" style="fill:#fff"/><path d="M464.36,96.6c-.15,1.17-2.56,1.82-5.38,1.44s-5-1.62-4.82-2.78,2.57-1.83,5.38-1.45S464.51,95.43,464.36,96.6Z" style="fill:#f9cbc0"/><path d="M432.19,89c-.16,1.16-2.57,1.82-5.38,1.44s-5-1.62-4.82-2.78,2.57-1.83,5.38-1.46S432.35,87.84,432.19,89Z" style="fill:#f9cbc0"/><path d="M411.83,113.69s-8,9.06-5.7,12.41,24.3,7.89,24.3,7.89a4.07,4.07,0,0,0,3.1,2.5,13.56,13.56,0,0,1,2.7,2.86c.67,1.21,2.42,1,2-.13a11.23,11.23,0,0,0-2-2.82,21.14,21.14,0,0,1,4.23,1.75c1.57,1,2.71.43,1.86-1.2s-5.24-2.44-5.24-2.44,4.23-.19,5.46-.18,1.28-1.68-.5-1.81-5.1-.28-5.1-.28,4.88-1.9,5.29-2.86-.69-.8-2.16-.2-4.12,1.52-4.12,1.52,1.41-1.77,1.17-2.93-3.53,2.74-3.77,2.93-1.71-.41-2.7-.18c0,0-16.59-4.09-17.63-6s3.46-7.87,3.46-7.87Z" style="fill:#f4d9bf"/><path d="M466,120.56l1.86,3.69-14,5.09-2.16-.88s-1-2.13-2.15-2.06,0,1.35.58,2.49,1,2.21,1,2.21-4.46-2.58-5.82-2.84-.86,1,.09,1.43,4,2.19,4,2.19-4.73-.38-5.21.33,3.92.68,4.69.72-5.15,2.59-4.1,3.19,6.15-2.56,5.64-1.35-3.08,4.73-1.58,4.3,3.29-3.91,3.29-3.91,2.24-.47,2.65-1.93c0,0,17.42-4.52,17.73-8s-2.53-7-2.53-7A25.68,25.68,0,0,1,466,120.56Z" style="fill:#f4d9bf"/><g style="opacity:0.4;mix-blend-mode:multiply"><path d="M419.08,78.24h0A56.75,56.75,0,0,1,431.3,61.37L434.68,58C422.18,64.52,419.08,78.24,419.08,78.24Z" style="fill:#d7711f"/><path d="M428.9,68c1.69.19,5.91-2.42,24.6-6.72l-.12.16a35.06,35.06,0,0,1,5.12-4.07C445.46,59.25,428.9,68,428.9,68Z" style="fill:#d7711f"/><path d="M451.79,66.12a1,1,0,0,0,.69.37c2.5.36,11.7-3.12,11.7-3.12l0,.27c1.21-2.33,2.66-4.93,2.66-4.93C458.85,65.11,451.88,66.11,451.79,66.12Z" style="fill:#d7711f"/><path d="M469.76,62.91a10.88,10.88,0,0,1-4.26,10.66,1.56,1.56,0,0,0,.88-.24,10.86,10.86,0,0,0,4.86-5.17,46.72,46.72,0,0,1,3.94,26.37s0,0,0,0C481.83,79.16,469.76,62.91,469.76,62.91Z" style="fill:#d7711f"/></g><path d="M434.82,103.79a84.65,84.65,0,0,0,12.53.19,6.23,6.23,0,0,1-6.91,6.61C436.3,110.35,434.65,106.26,434.82,103.79Z" style="fill:#96172d"/><path d="M439.33,110.42a5,5,0,0,0,1.11.17,6.84,6.84,0,0,0,3.81-.81C442.41,108.36,440.33,109.63,439.33,110.42Z" style="fill:#ed776f"/><path d="M440,107.16a10.64,10.64,0,0,0,7.26-2.07,8.08,8.08,0,0,0,.06-1.11,80.25,80.25,0,0,1-11.28-.09C436.25,105.07,437,107,440,107.16Z" style="fill:#fff"/><path d="M433.22,103.35l.68.1.79.1,1,.11,1.21.1c.43,0,.89.06,1.35.08l1.45.07,1.5,0c.5,0,1,0,1.49,0h1.45l1.36,0c.43,0,.84,0,1.22,0,.75,0,1.38,0,1.82-.07h.69l-.68.1-1.82.21-1.21.13-1.37.06-1.46.07c-.49,0-1,0-1.5,0l-1.51,0-1.45-.11c-.47,0-.93-.08-1.36-.15l-1.21-.17c-.38,0-.71-.13-1-.19l-.78-.17C433.46,103.43,433.22,103.35,433.22,103.35Z" style="fill:#c39368"/></g><g id="boy4"><path d="M172.92,290.73c.39-.94,4.94-6.07,3.94-7s-4.33,5-5.15,4.46,1.63-9.21-.58-8.2-1.58,8.3-2.58,7.5-1.14-9.37-2.85-8,1.68,9.23.11,8.8-3.72-1.58-5.41-.71,4.15,1.8,4.57,3.33a5,5,0,0,1,.28,2.17S157.74,305,147,311.67c-10.51,6.59-22.58,9.77-25.45,9.61-.24,3.2.24,7.45,3.89,9.14l-.54-4.49s24.21,0,45.25-32.84a1.74,1.74,0,0,0,1.86-.49s6.45-.18,6.54-1.46S172.53,291.66,172.92,290.73Z" style="fill:#efcaa6"/><path d="M124.3,322.57a6.34,6.34,0,0,1,.26.63,11,11,0,0,1,.34,1.44,9.27,9.27,0,0,1,.14,1.47,5.83,5.83,0,0,1,0,.69,5.73,5.73,0,0,1-.24-.65,10.77,10.77,0,0,1-.36-1.44,10.47,10.47,0,0,1-.13-1.47C124.28,322.83,124.3,322.57,124.3,322.57Z" style="fill:#c39368"/><path d="M111.92,320.79a.55.55,0,0,0-.42,0c-2,.74-3.85,1.88-5.82,2.59a.27.27,0,0,0-.09.43,24.77,24.77,0,0,1,.58,2.8,14.22,14.22,0,0,0,1.35,3.31,3.48,3.48,0,0,0,3.66,2.08c1.7-.29,2.5-2.37,2.53-3.88a23.62,23.62,0,0,0-1.22-7A.53.53,0,0,0,111.92,320.79Z" style="fill:#f4c3a7"/><path d="M96,348.29s-3.15,9-3.33,17,1.24,13.49.58,14.62-2.08,1.29-3.22,4.56-.38,7.25.27,6.7.21-4.23,1.52-6.17a15.34,15.34,0,0,0-.49,5.52c.38,2.42,1.08,2.32,1.52-1.21s.75-5.27.89-4.46-.14,7.44,1.06,7.73.15-6.29,1.35-7.65a14.14,14.14,0,0,0,.56,5c.79,2.24,1.59,2.57,1.51-.35s.09-7.22,1.58-5.86,2.11,3.3,3.5,2.64-1.11-3.91-2.32-5.12-3.16-1.9-3.41-2.86-1.69-9.46-1.17-14.55c.6-5.93,2.37-12.55,3.34-14.2Z" style="fill:#f4d9bf"/><path d="M114.06,372.32s-1.34,6.47,4.57,22.24c0,0,13.09-2.21,18.89-5.82L134,377.48l8.27,9.31s12.09-6.84,15.51-13.22c0,0-9.18-9.65-9.93-11.07a17.09,17.09,0,0,1-1.17-3.55Z" style="fill:#95e1bf"/><path d="M115.84,321.85s21.14-5.16,23.84-11.53c0,0,5.93,5.71,6.67,12.88,0,0-6.35,6.53-12.26,6.68,0,0,7.6,9.83,13.6,30,0,0-15,15.23-36,14.58,0,0-5.15-26.18-5.14-26.5s-1.32,4.82-1.32,4.82-8.86-2.46-11.51-4.42c0,0,2.24-15.68,16.24-23.41Z" style="fill:#95e1bf"/><path d="M91.26,318.22c-2.44,1.8-10.22-3.44-7.67-6.74s6.71-.13,6.71-.13-4.18-10.52-6-16.49c4.08,3.23,8.89,6.7,8.89,6.7s-.5-6.74-2.56-11.07a19.81,19.81,0,0,0,8.44.83s-.77-1.27-4.26-3.45c7.57,1.22,17.9-3,17.9-3s-3-3.35-6.42-3.29c1.93-1,9-.38,13.18,2.41a31.87,31.87,0,0,1,3,6.52c2,5.91,3.21,6.64,5.23,8.54s4.32,6.88-4,17.18-21.2,9.75-25.68,8.26C98.05,324.52,93.48,321.52,91.26,318.22Z" style="fill:#fad8bf"/><path d="M75.88,316.87c-6.83-9.94-6.47-17.09-1.83-22.58,0,0,.36-17.68,20.44-22.76,13-2,22.51.68,27.92,11-3.71-3.22-6.31-3.2-6.31-3.2a8.47,8.47,0,0,1,4.61,5.05l-1.19-.36c-4.2-2.79-11.25-3.41-13.18-2.41,3.46-.06,6.42,3.29,6.42,3.29s-10.33,4.19-17.9,3c3.49,2.18,4.26,3.45,4.26,3.45a19.81,19.81,0,0,1-8.44-.83c2.06,4.33,2.56,11.07,2.56,11.07s-4.81-3.47-8.89-6.7c1.77,6,6,16.49,6,16.49s-4.18-3.15-6.71.13,5.23,8.54,7.67,6.74c2.22,3.3,6.79,6.3,6.79,6.3C96.46,326.09,82.71,326.8,75.88,316.87Z" style="fill:#7d4902"/><path d="M86,314.25a.7.7,0,0,1,.17-.19.78.78,0,0,1,.24-.17.52.52,0,0,1,.15-.07l.17-.06a1.55,1.55,0,0,1,.43,0,2.67,2.67,0,0,1,.47.07c.16.06.33.1.49.17a3.85,3.85,0,0,1,.5.24c.16.1.32.17.48.28l.46.28.8.55c.47.35.8.55.8.55a8.7,8.7,0,0,0-.63-.73,3.75,3.75,0,0,0-.35-.33l-.39-.35-.47-.33c-.16-.11-.34-.2-.5-.3s-.37-.16-.54-.25a4.33,4.33,0,0,0-.56-.16,2.77,2.77,0,0,0-.57,0,1.94,1.94,0,0,0-.49.11l-.2.11-.15.12a1.14,1.14,0,0,0-.21.26A.67.67,0,0,0,86,314.25Z" style="fill:#c48053"/><path d="M89.15,316.48a3.63,3.63,0,0,0,0-.38c0-.12,0-.24,0-.37a2.55,2.55,0,0,1,0-.39,4.65,4.65,0,0,1,0-.73l0-.14a.5.5,0,0,1,0-.12l0-.1-.09.06a.37.37,0,0,0-.12.07s-.07.09-.1.14a1.12,1.12,0,0,0-.16.38,3.4,3.4,0,0,0,0,.45,1.94,1.94,0,0,0,.22.8A1.29,1.29,0,0,0,89.15,316.48Z" style="fill:#c48053"/><path d="M121,296.7c.47,1.14,1.17,1.94,1.55,1.78s.29-1.21-.18-2.35-1.17-1.95-1.55-1.8S120.49,295.55,121,296.7Z" style="fill:#292524"/><path d="M121,295.22c.2.36.48.56.64.47s.13-.44-.07-.78-.47-.55-.63-.47S120.8,294.89,121,295.22Z" style="fill:#fff"/><path d="M104.88,304c.48,1.15,1.17,1.95,1.55,1.78s.29-1.21-.18-2.36-1.17-1.94-1.54-1.78S104.41,302.87,104.88,304Z" style="fill:#292524"/><path d="M104.92,302.54c.18.35.46.55.62.46s.14-.44-.06-.79-.47-.54-.63-.45S104.71,302.2,104.92,302.54Z" style="fill:#fff"/><path d="M116.25,301.2l1,.44c.31.13.65.29,1,.47a9.8,9.8,0,0,1,1.1.6,1.43,1.43,0,0,1,.42.38l0,.08,0,.16c0,.07,0,.15,0,.25a3.37,3.37,0,0,1-.47.95c-.35.54-.63.89-.63.89a4.6,4.6,0,0,0,.79-.76,3.11,3.11,0,0,0,.62-1,1.74,1.74,0,0,0,.07-.37v-.16c0-.1-.06-.14-.09-.22a1.67,1.67,0,0,0-.53-.5,8.46,8.46,0,0,0-2.25-1A9.4,9.4,0,0,0,116.25,301.2Z" style="fill:#c48053"/><path d="M107.86,294.66a8.33,8.33,0,0,0-1.6-1.41,6.41,6.41,0,0,0-.91-.51,4.18,4.18,0,0,0-1.15-.36,2.65,2.65,0,0,0-1.36.09l-.33.13-.3.2-.15.11,0,0s0,0,0,0h0l0,.06-.23.21c-.14.16-.28.38-.42.57s-.22.39-.31.59a7,7,0,0,0-.41,1.19,10.8,10.8,0,0,0-.3,2.18,11.13,11.13,0,0,0,.11,2.11s0-.2.07-.57.13-.88.24-1.49a14.79,14.79,0,0,1,.5-2.05,8,8,0,0,1,.43-1.07,5.05,5.05,0,0,1,.28-.51,3.26,3.26,0,0,1,.34-.44l.2-.22.06-.07h0s0,0,0,0l0,0,.1-.08c.08,0,.14-.1.22-.15l.24-.09a2.61,2.61,0,0,1,.5-.12,2.44,2.44,0,0,1,.54,0,4.32,4.32,0,0,1,1,.23,7.06,7.06,0,0,1,.92.38,11.66,11.66,0,0,1,1.31.72Z" style="fill:#7d4902"/><path d="M121.37,287.56a1.17,1.17,0,0,0-.18-.24,1.91,1.91,0,0,0-.63-.49,1.18,1.18,0,0,0-.55-.14,1,1,0,0,0-.35,0,1,1,0,0,0-.33.13,1.74,1.74,0,0,0-.56.45c-.11.2-.25.4-.34.6a5.67,5.67,0,0,0-.21.62c0,.21-.06.42-.11.62a8,8,0,0,0,0,1.07,6.6,6.6,0,0,0,.14,1,8.6,8.6,0,0,0,.28-1c.07-.3.16-.64.24-1,.05-.17.12-.35.16-.53s.14-.35.2-.52a3.07,3.07,0,0,1,.24-.48c.1-.11.18-.26.31-.32a.54.54,0,0,1,.18-.1.42.42,0,0,1,.19-.06,1.41,1.41,0,0,1,.41,0,2.75,2.75,0,0,1,.68.21A1.74,1.74,0,0,1,121.37,287.56Z" style="fill:#7d4902"/><path d="M122.47,308.46s-6.51,5-13,3.92c3.14,4.33,6.39,5.66,8.36,4.83S121,309.88,122.47,308.46Z" style="fill:#510012"/><path d="M111.18,314.42a20.36,20.36,0,0,1-1.69-2c3.61.59,7.24-.7,9.75-2C119,311.91,117.65,315.34,111.18,314.42Z" style="fill:#fff"/><path d="M118.47,316.75a1.85,1.85,0,0,1-.62.46c-1.4.59-3.46.07-5.67-1.85A6.47,6.47,0,0,1,118.47,316.75Z" style="fill:#fd7072"/><path d="M117.93,317.42c-1.78.74-5.12-.1-8.62-4.92l-.32-.44.53.1a15.22,15.22,0,0,0,8.54-1.43,23.59,23.59,0,0,0,4.27-2.45l.28.34a12.57,12.57,0,0,0-1.76,3.71c-.83,2.24-1.69,4.54-2.88,5.07Zm.31-6.28a16,16,0,0,1-8.26,1.54c2.25,2.91,5.43,5.31,7.78,4.33l.12.19-.09-.2c1-.45,1.89-2.78,2.65-4.82a29.41,29.41,0,0,1,1.17-2.88A23.4,23.4,0,0,1,118.24,311.14Z" style="fill:#c48053"/><path d="M113,315.17c2.45,1.83,3.84,1.44,4.55.89a6,6,0,0,1,1,.69,1.85,1.85,0,0,1-.62.46c-1.4.59-3.46.07-5.67-1.85A4.76,4.76,0,0,1,113,315.17Z" style="fill:#d9494d"/><g style="opacity:0.30000000000000004;mix-blend-mode:multiply"><path d="M83.59,311.48c2.53-3.28,6.71-.13,6.71-.13s-4.18-10.52-6-16.49c4.08,3.23,8.89,6.7,8.89,6.7s-.5-6.74-2.56-11.07a19.81,19.81,0,0,0,8.44.83s-.77-1.27-4.26-3.45c7.57,1.22,17.9-3,17.9-3s-3-3.35-6.42-3.29c1.93-1,9-.38,13.18,2.41l.22.38a29.42,29.42,0,0,0-8-2s.71.29,1.51,3.11c-5.91,3.53-14.48,4-14.48,4l1.47,2.53s-2.68,2.34-7.14.93c1,3.4,1.18,11.05,1.18,11.05s-.51.3-2.29-1.2c1.72,5.07,7,13.61,11.7,18.3s14.15,2.52,20.92-8.19,3.32-12.72,1-15.71a9.49,9.49,0,0,1-1.24-2.25,13.35,13.35,0,0,0,3.36,4c2,1.9,4.32,6.88-4,17.18s-21.2,9.75-25.68,8.26c0,0-4.57-3-6.79-6.3C88.82,320,81,314.78,83.59,311.48Z" style="fill:#dfa679"/></g><path d="M219.81,393.81a16.39,16.39,0,0,0-4.25-.4c0-.12.09-.24.14-.36a12.19,12.19,0,0,0,.28-7.29,19.37,19.37,0,0,0-3.5-6.39,18.93,18.93,0,0,0-11.89-6,23.41,23.41,0,0,0-7,.23,22.51,22.51,0,0,0-.69-5.29c-1.15-4.56-4.77-8.56-8.55-11.21-4-2.82-8.9-3.23-13.55-2.21-.48.11-1,.24-1.45.4-1.68-3.79-6-6-9.9-6.81a16.64,16.64,0,0,0-14.5,4.05,19.15,19.15,0,0,0-4.48,6,16.29,16.29,0,0,0-1.35,7.9,11.75,11.75,0,0,0,1.93,5.91,7.41,7.41,0,0,0-1.56,1.06,10.58,10.58,0,0,0-3.26,5,13,13,0,0,0-1.87-.68A21.44,21.44,0,0,0,127,377a18.27,18.27,0,0,0-7,2.15c-4.38,2.21-8.57,4.78-10.83,9.34A14.14,14.14,0,0,0,108,392.4c-.4-.12-.82-.22-1.23-.3a16.28,16.28,0,0,0-9.36.82c-5.36,2.14-8.86,8.16-9.17,13.78-.35,6.52,4.38,12.23,10.49,13.83a16.86,16.86,0,0,0,9.61-.61,25,25,0,0,0,5.53-2.61A18,18,0,0,0,117,420.6c3.85,3.09,8.82,4.48,13.66,4.87a18.85,18.85,0,0,0,6.77-.66c1.12-.31,2.25-.47,3.36-.84a30.72,30.72,0,0,0,3.4-1.45,21,21,0,0,0,5.19-3.37,19.21,19.21,0,0,0,1.82,1.56,20.71,20.71,0,0,0,12.06,4.18,30.75,30.75,0,0,0,13.1-2.83,24.67,24.67,0,0,0,7.77-5.76,30.48,30.48,0,0,0,12.59,5.34,38.56,38.56,0,0,0,10.5.7,29,29,0,0,0,9.88-2.52c5.27-2.42,11-7,11.85-13.11A11.75,11.75,0,0,0,219.81,393.81Z" style="fill:#fff"/><path d="M226.18,409.73c-1.36,2.8-4.22,4.95-6.74,6.64-5.87,3.91-13.23,4.68-20.07,3.74A36.72,36.72,0,0,1,188.65,417a26.5,26.5,0,0,1-3.4-1.95c.3-.34.58-.69.87-1-.37.31-.77.6-1.13.86-1.43,1-2.89,2.06-4.37,3l-.54.33a24.28,24.28,0,0,1-3.41,2,29.47,29.47,0,0,1-5.78,2,32.27,32.27,0,0,1-6.39,1,20.6,20.6,0,0,1-5.38-.51,19.55,19.55,0,0,1-7.18-2.4,13.43,13.43,0,0,1-3.57-3,14.81,14.81,0,0,0-2-2.6,15.57,15.57,0,0,0,.7,1.42,13.4,13.4,0,0,0,1.65,2.23,26.71,26.71,0,0,1-5.28,2.8,26.6,26.6,0,0,1-12.79,2.53,29.33,29.33,0,0,1-12.86-4.11,15.32,15.32,0,0,1-3.39-2.76s0,0,0,0a16.45,16.45,0,0,1-2.89-3.81,18.66,18.66,0,0,0,1.8,3.5,33.75,33.75,0,0,1-4.83,1.86,17.38,17.38,0,0,1-9,.48,13,13,0,0,1-9.86-12.13,14.32,14.32,0,0,1,7.92-13.35,15.46,15.46,0,0,1,9.11-1,8.4,8.4,0,0,1,1.27.29,13.65,13.65,0,0,0-.13,1.81,10.28,10.28,0,0,0,.23,1.92,18,18,0,0,0,.89,2.49,15.34,15.34,0,0,1,.63-7,8.62,8.62,0,0,1,.46-1.17c.21-.57.45-1.13.72-1.7,2-4.09,5.92-6.27,9.71-8.41a19.54,19.54,0,0,1,13.25-2.15,16,16,0,0,1,2.38.66,7.6,7.6,0,0,0,1.12,5.67,9.34,9.34,0,0,1,.65-7.38,12.42,12.42,0,0,1,2.78-3.69,5.53,5.53,0,0,1,.91-.68l.05.05,0,0,.69-.36a.16.16,0,0,1,0-.07,20,20,0,0,1,4.2-1.24,11.08,11.08,0,0,1,3.09-.25,4.08,4.08,0,0,1,.7.11h.2a7.12,7.12,0,0,0-2.3-.39,25.83,25.83,0,0,0-3.41.26,13.62,13.62,0,0,0-2.89.81,13.47,13.47,0,0,1-1.55-5.79,15.09,15.09,0,0,1,1.17-7.27,18.58,18.58,0,0,1,4.3-5.79A16.61,16.61,0,0,1,159,348.87c4,.44,8.51,2.73,10.31,6.46a19.74,19.74,0,0,0-3.61,1.6,10.53,10.53,0,0,0-2,1.79,14.49,14.49,0,0,1,10-3.15,16.59,16.59,0,0,1,10.51,3.11c3.43,2.5,6.71,5.89,8.12,9.95a15.93,15.93,0,0,1,.82,3.7,17.43,17.43,0,0,1,.28,4c0,.34,0,.68,0,1a21.89,21.89,0,0,0,.28-3.23l.29,0a22.47,22.47,0,0,1,6.5.17,17,17,0,0,1,14.06,11.3,11.1,11.1,0,0,1,.19,7.09c-.08.29-.16.57-.26.86h-.07a17.17,17.17,0,0,0-3.22.71,1.81,1.81,0,0,0-1.1.62h.08l.11,0a5.88,5.88,0,0,1,3.07-.68,15.74,15.74,0,0,1,2.06,0h0a15.39,15.39,0,0,1,4,.73,11.5,11.5,0,0,1,7,6.29A10.45,10.45,0,0,1,226.18,409.73Z" style="fill:#fff"/><path d="M158.73,364.91a4.74,4.74,0,0,0,.3,2,11.13,11.13,0,0,1,3-6.94,12.85,12.85,0,0,1,2.18-1.86,12.47,12.47,0,0,1,1.44-1.17,19.74,19.74,0,0,1,3.61-1.6,9.17,9.17,0,0,0-1.61-2.3C163.52,353.7,159.07,359,158.73,364.91Z" style="fill:#fff;opacity:0.30000000000000004"/><path d="M141.86,372a13.62,13.62,0,0,1,2.89-.81,25.83,25.83,0,0,1,3.41-.26,6.94,6.94,0,0,1,1.88.26,21.92,21.92,0,0,1,6.05,1.51,23.12,23.12,0,0,1,6.1,3.41c-3.94-6-12.34-9.46-18.95-6.58a.44.44,0,0,1-.6-.16,19,19,0,0,1-1.31-10.09,15.74,15.74,0,0,0-1,6.93A13.47,13.47,0,0,0,141.86,372Z" style="fill:#fff;opacity:0.30000000000000004"/><path d="M226.39,401.08a11.5,11.5,0,0,0-7-6.29,15.39,15.39,0,0,0-4-.73h0a15.74,15.74,0,0,0-2.06,0,5.88,5.88,0,0,0-3.07.68l-.11,0H210a1.81,1.81,0,0,1,1.1-.62,17.17,17.17,0,0,1,3.22-.71h.07c.1-.29.18-.57.26-.86a11.1,11.1,0,0,0-.19-7.09,19.06,19.06,0,0,0-3-5.34,18.73,18.73,0,0,0-9.07-5.51c3.79,2.41,6.89,5.63,7,10.57a22,22,0,0,1-2.55,11.08c.7-.11,1.39-.21,2.1-.29,3-.35,6.14-.82,9,.26a4.13,4.13,0,0,1,2.47,5.36,12.31,12.31,0,0,1-6.8,7.52c-6.35,3-13.89,2.62-20.45.48-4.43-1.44-8.82-3.81-11.75-7.4-3.15,6.52-9.17,11.25-17,11.4-9,.2-19.1-5.41-22-14.18a19.48,19.48,0,0,0,2.1,8.12.44.44,0,0,1-.16.58c-6.42,4.09-19.65,8.42-27.34,5.2-4.21-1.76-6.18-5.48-7.92-10a23.16,23.16,0,0,0,1.59,10c.1.28-1,.46-1.24.49-5.4.65-11.94.07-15.93-4.12a11.82,11.82,0,0,1-3.21-7.68,13.15,13.15,0,0,0-.61,4.72,13,13,0,0,0,9.86,12.13,17.38,17.38,0,0,0,9-.48,33.75,33.75,0,0,0,4.83-1.86,18.66,18.66,0,0,1-1.8-3.5,16.45,16.45,0,0,0,2.89,3.81s0,0,0,0a15.32,15.32,0,0,0,3.39,2.76,29.33,29.33,0,0,0,12.86,4.11,26.6,26.6,0,0,0,12.79-2.53,26.71,26.71,0,0,0,5.28-2.8,13.4,13.4,0,0,1-1.65-2.23,15.57,15.57,0,0,1-.7-1.42,14.81,14.81,0,0,1,2,2.6,13.43,13.43,0,0,0,3.57,3,19.55,19.55,0,0,0,7.18,2.4,20.6,20.6,0,0,0,5.38.51,32.27,32.27,0,0,0,6.39-1,29.47,29.47,0,0,0,5.78-2,24.28,24.28,0,0,0,3.41-2l.54-.33c1.48-.93,2.94-1.95,4.37-3,.36-.26.76-.55,1.13-.86-.29.35-.57.7-.87,1a26.5,26.5,0,0,0,3.4,1.95,36.72,36.72,0,0,0,10.72,3.08c6.84.94,14.2.17,20.07-3.74,2.52-1.69,5.38-3.84,6.74-6.64A10.45,10.45,0,0,0,226.39,401.08Z" style="fill:#fff;opacity:0.5"/><path d="M141.53,373.11l-.1.06.12,0Z" style="fill:#fff"/></g></g></g></g></svg>