<svg xmlns="http://www.w3.org/2000/svg" xmlns:xlink="http://www.w3.org/1999/xlink" viewBox="0 0 800 800"><defs><clipPath id="clip-path"><rect x="37.42" y="35.54" width="735.66" height="735.66" style="fill:none"/></clipPath><clipPath id="clip-path-2"><path d="M502.25,226.62l25-14.14a9.26,9.26,0,1,0-12.62-12.62l-14.14,24.95a1.32,1.32,0,0,0,1.8,1.81" style="fill:none"/></clipPath><clipPath id="clip-path-3"><polygon points="140.99 481.33 118.88 459.22 164.8 419.93 180.28 435.41 140.99 481.33" style="fill:none"/></clipPath></defs><title>play</title><g id="Object"><rect y="-0.55" width="800" height="800" style="fill:#ebebff"/><g style="clip-path:url(#clip-path)"><rect x="154.46" y="245.89" width="501.57" height="314.97" style="fill:#fff"/><rect x="331.14" y="226.8" width="148.21" height="19.09" style="fill:#b45d39"/><rect x="331.14" y="579.94" width="148.21" height="19.09" style="fill:#99502f"/><rect x="223.29" y="560.85" width="363.92" height="19.09" style="fill:#b45d39"/><path d="M542,521.7H526L517.64,528v27.58a5.29,5.29,0,0,0,5.29,5.29h22.12a5.3,5.3,0,0,0,5.3-5.29V528Z" style="fill:#dd0067"/><rect x="524.99" y="535.34" width="9" height="18.16" style="fill:#fff;stroke:#fff;stroke-linecap:round;stroke-linejoin:round;stroke-width:10px;opacity:0.2"/><rect x="522.29" y="510.05" width="23.4" height="11.65" style="fill:#c6c6c5"/><path d="M682.93,245.94a13.45,13.45,0,0,1,13.45-13.45h4.39a9.93,9.93,0,0,0,9.4-13.15A80.92,80.92,0,1,0,577.9,304.51,80.92,80.92,0,0,0,710.15,272.6a9.94,9.94,0,0,0-9.38-13.21h-4.39a13.45,13.45,0,0,1-13.45-13.45M679,291.19a13.45,13.45,0,1,1,0-19,13.45,13.45,0,0,1,0,19" style="fill:#f0d6a7"/><path d="M647.19,195.4A13.45,13.45,0,1,1,633.74,182a13.45,13.45,0,0,1,13.45,13.45" style="fill:#dd0067"/><path d="M607.51,200.69a13.45,13.45,0,1,1-19,0,13.44,13.44,0,0,1,19,0" style="fill:#ff8c09"/><path d="M583.2,232.49a13.45,13.45,0,1,1-13.45,13.45,13.45,13.45,0,0,1,13.45-13.45" style="fill:#7db900"/><path d="M588.49,272.17a13.45,13.45,0,1,1,0,19,13.45,13.45,0,0,1,0-19" style="fill:#00cb9c"/><g style="opacity:0.2"><path d="M593.7,286l8.61-8.61h0A6.09,6.09,0,1,0,593.7,286Z" style="fill:#fff;stroke:#fff;stroke-linecap:round;stroke-linejoin:round;stroke-width:10px"/><path d="M587.5,241.63a6.06,6.06,0,0,0-4.3-1.78h0a6.09,6.09,0,0,0-4.31,10.39Z" style="fill:#fff;stroke:#fff;stroke-linecap:round;stroke-linejoin:round;stroke-width:10px"/><path d="M602.31,205.89a6.09,6.09,0,1,0-8.61,8.62Z" style="fill:#fff;stroke:#fff;stroke-linecap:round;stroke-linejoin:round;stroke-width:10px"/><path d="M638.05,191.09a6.09,6.09,0,0,0-10.4,4.31,6,6,0,0,0,1.79,4.3Z" style="fill:#fff;stroke:#fff;stroke-linecap:round;stroke-linejoin:round;stroke-width:10px"/></g><path d="M580.42,192.62a74.94,74.94,0,0,1,53.32-22.09m0,150.71a75,75,0,0,1-52-20.73m87.77-37.8a18.8,18.8,0,0,0-13.41,5.56" style="fill:none;stroke:#fff;stroke-linecap:round;stroke-linejoin:round;stroke-width:8px;opacity:0.2"/><path d="M536.2,186.19l4.68,4.67a3.6,3.6,0,0,0,5.16-.07l82.06-86.73A3.6,3.6,0,0,0,623,99L536.28,181a3.6,3.6,0,0,0-.08,5.16" style="fill:#99502f"/><rect x="523.53" y="191.44" width="17.59" height="6.61" transform="translate(18.21 433.45) rotate(-45)" style="fill:#c6c6c5"/><path d="M502.25,226.62l25-14.14a9.26,9.26,0,1,0-12.62-12.62l-14.14,24.95a1.32,1.32,0,0,0,1.8,1.81" style="fill:#f0d6a7"/><g style="clip-path:url(#clip-path-2)"><rect x="488.45" y="215.44" width="34.82" height="13.79" style="fill:#dd0067"/></g><path d="M182.54,417.66l3.54-3.53a4.59,4.59,0,0,0,0-6.5l-3.54-3.54a4.6,4.6,0,0,1,6.51-6.5l3.53,3.53" style="fill:none;stroke:#7db900;stroke-linecap:round;stroke-linejoin:round;stroke-width:5px"/><polygon points="175.36 419 164.8 419.93 180.28 435.41 181.2 424.85 175.36 419" style="fill:#c6c6c5"/><rect x="176.91" y="415.87" width="6.6" height="8.26" transform="translate(-244.2 250.44) rotate(-45)" style="fill:#c6c6c5"/><rect x="126.88" y="455.91" width="3.58" height="31.26" transform="translate(-295.75 229.11) rotate(-45)" style="fill:#ececec"/><polygon points="140.99 481.33 118.88 459.22 164.8 419.93 180.28 435.41 140.99 481.33" style="fill:#c6c6c5"/><g style="clip-path:url(#clip-path-3)"><rect x="150.96" y="419.71" width="25.06" height="33.25" transform="translate(-260.65 243.4) rotate(-45)" style="fill:#7db900"/></g><polygon points="167.34 432.87 164.41 429.94 129.71 459.64 135.14 465.07 167.34 432.87" style="fill:#fff;stroke:#fff;stroke-linecap:round;stroke-linejoin:round;stroke-width:10px;opacity:0.2"/><line x1="178.2" y1="416.16" x2="184.04" y2="422" style="fill:none;stroke:#9c9b9b;stroke-miterlimit:10;stroke-width:1.5px"/><line x1="176.78" y1="417.58" x2="182.62" y2="423.43" style="fill:none;stroke:#9c9b9b;stroke-miterlimit:10;stroke-width:1.5px"/></g></g></svg>