<svg xmlns="http://www.w3.org/2000/svg" viewBox="0 0 800 800"><title>play</title><g style="isolation:isolate"><g id="Object"><rect width="800" height="800" style="fill:#f8f8ff"/><ellipse cx="177.61" cy="476.62" rx="88.78" ry="6.19" style="fill:#c2c1c1"/><ellipse cx="389.11" cy="476.62" rx="88.78" ry="6.19" style="fill:#c2c1c1"/><ellipse cx="619.88" cy="471.61" rx="88.78" ry="6.19" style="fill:#c2c1c1"/><path d="M259.32,421.21A176.37,176.37,0,0,1,234.85,398a204.34,204.34,0,0,1-21.8-29.75,191.7,191.7,0,0,1-18.48-40.86H166a191.7,191.7,0,0,1-18.48,40.86A204.34,204.34,0,0,1,125.75,398a176.37,176.37,0,0,1-24.47,23.22Z" style="fill:#00579f"/><polygon points="194.66 326.36 207.07 305.41 153.53 305.41 165.94 326.36 194.66 326.36" style="fill:#00579f"/><polygon points="210.62 304.38 210.62 299.34 149.98 299.34 149.98 304.38 151.73 304.38 208.87 304.38 210.62 304.38" style="fill:#00579f"/><polygon points="260.87 422.23 98.11 422.23 92.55 422.23 92.55 433.28 99.07 433.28 261.53 433.28 268.06 433.28 268.06 422.23 262.49 422.23 260.87 422.23" style="fill:#00579f"/><path d="M106.11,448.76c3.62,6.8,9.77,14.9,18.48,14.9H236c8.71,0,14.86-8.1,18.48-14.9a75.43,75.43,0,0,0,5.72-14.46H100.39A75.43,75.43,0,0,0,106.11,448.76Z" style="fill:#00579f"/><rect x="126.45" y="464.69" width="107.7" height="10.91" style="fill:#00579f"/><g style="mix-blend-mode:multiply"><path d="M259.21,439.16c1.13-3.19,1.66-5.37,1.66-5.37H99.73s.54,2.18,1.66,5.37Z" style="fill:#00579f"/></g><g style="mix-blend-mode:multiply"><polygon points="234.66 469.55 234.66 464.18 180.3 464.18 180.3 464.18 125.94 464.18 125.94 469.55 234.66 469.55" style="fill:#00579f"/></g><path d="M269.08,421.21h-8c-1.31-.94-12.38-9.1-25.44-23.92-12.74-14.45-30-38.39-40.09-70.36l12.75-21.52h3.39v-7.1H149v7.1h3.39l12.75,21.52c-10.07,32-27.35,55.91-40.09,70.36-13.06,14.82-24.13,23-25.44,23.92h-8V434.3h7.81a76.12,76.12,0,0,0,5.87,14.92c5.38,10.12,12.09,15.47,19.39,15.47h.83v11.93H235.18V464.69H236c7.3,0,14-5.35,19.4-15.47a75.84,75.84,0,0,0,5.86-14.92h7.81Zm-14.59,27.55c-3.62,6.8-9.77,14.9-18.48,14.9H124.59c-8.71,0-14.86-8.1-18.48-14.9a75.43,75.43,0,0,1-5.72-14.46H260.21A75.43,75.43,0,0,1,254.49,448.76ZM234.15,475.6H126.45V464.69h107.7Zm33.9-42.32H92.55v-11h175.5ZM150,304.39v-5.05h60.64v5.05H150Zm57.09,1-12.41,20.95H165.94l-12.41-20.95ZM125.75,398a204.34,204.34,0,0,0,21.8-29.75A191.7,191.7,0,0,0,166,327.38h28.54a191.7,191.7,0,0,0,18.48,40.86A204.34,204.34,0,0,0,234.85,398a176.37,176.37,0,0,0,24.47,23.22h-158A176.37,176.37,0,0,0,125.75,398Z" style="fill:#252e67"/><path d="M136.57,392.7l2.25-5.29h-4.35c-.46.6-.93,1.2-1.4,1.79Z" style="fill:#f6e040"/><path d="M139.16,385.07l-1-2.57-1.89,2.57Z" style="fill:#f6e040"/><path d="M226.13,387.41h-3.68l2.26,5.61,3.26-3.26C227.36,389,226.74,388.2,226.13,387.41Z" style="fill:#f6e040"/><polygon points="181.96 344.62 187.59 342.35 181.96 336.72 181.96 344.62" style="fill:#f6e040"/><path d="M222.79,385.07h1.57l-1-1.35Z" style="fill:#f6e040"/><polygon points="179.62 336.72 174.31 342.02 179.62 344.28 179.62 336.72" style="fill:#f6e040"/><polygon points="209.42 416.51 207.43 421.21 214.12 421.21 209.42 416.51" style="fill:#f6e040"/><polygon points="216.65 412.95 211.32 415.1 216.65 420.43 216.65 412.95" style="fill:#f6e040"/><polygon points="151.94 416.76 147.49 421.21 153.74 421.21 151.94 416.76" style="fill:#f6e040"/><polygon points="144.96 420.43 150.53 414.86 144.96 412.49 144.96 420.43" style="fill:#f6e040"/><polygon points="142.63 402.06 137.37 396.8 133.8 405.2 142.63 408.96 142.63 402.06" style="fill:#f6e040"/><path d="M165,348.06l5.26-5.26-8.41-3.57-.14.34q-1.68,4.28-3.58,8.49Z" style="fill:#f6e040"/><polygon points="168.3 348.06 173.4 348.06 178.12 346.15 172.57 343.79 168.3 348.06" style="fill:#42beb8"/><polygon points="220.87 386.61 221.02 386.24 220.72 386.24 220.87 386.61" style="fill:#42beb8"/><polygon points="140.59 386.24 140.9 386.24 140.75 385.87 140.59 386.24" style="fill:#42beb8"/><polygon points="138.36 394.48 142.63 398.75 142.63 393.65 140.72 388.92 138.36 394.48" style="fill:#42beb8"/><polygon points="180.81 346.02 180.81 346.33 181.18 346.18 180.81 346.02" style="fill:#42beb8"/><path d="M219,378.83l1.9,4.73.87-2.05q-1.41-2-2.77-4Z" style="fill:#42beb8"/><polygon points="144.96 409.95 150.08 412.13 148.31 407.74 144.96 404.39 144.96 409.95" style="fill:#42beb8"/><polygon points="162.65 350.4 157.1 350.4 154.92 355.51 159.31 353.74 162.65 350.4" style="fill:#42beb8"/><polygon points="206.69 416.97 202.3 418.74 199.83 421.21 204.89 421.21 206.69 416.97" style="fill:#42beb8"/><polygon points="196.53 421.21 196.76 420.98 196.18 421.21 196.53 421.21" style="fill:#f6e040"/><polygon points="144.96 401.09 146.07 402.2 144.96 399.45 144.96 401.09" style="fill:#f6e040"/><polygon points="164.85 351.51 167.6 350.4 165.96 350.4 164.85 351.51" style="fill:#f6e040"/><polygon points="223.87 397.18 218.99 402.06 218.99 409.49 227.46 406.07 223.87 397.18" style="fill:#f6e040"/><path d="M191.74,343.18l4.88,4.88h5.86q-1.75-3.9-3.33-7.87Z" style="fill:#f6e040"/><path d="M140.77,382.82l1.86-4.36V376c-.95,1.42-1.91,2.82-2.89,4.22Z" style="fill:#42beb8"/><polygon points="193.31 348.06 189.38 344.13 184.23 346.21 188.59 348.06 193.31 348.06" style="fill:#42beb8"/><polygon points="218.99 398.75 222.92 394.82 220.84 389.67 218.99 394.02 218.99 398.75" style="fill:#42beb8"/><path d="M199,350.4l3.6,3.6,3.46,1.47q-1.28-2.52-2.46-5.07Z" style="fill:#42beb8"/><polygon points="216.65 404.39 213.04 408 211.05 412.69 216.65 410.43 216.65 404.39" style="fill:#42beb8"/><polygon points="159.05 418.48 154.36 416.48 156.26 421.21 161.78 421.21 159.05 418.48" style="fill:#42beb8"/><polygon points="152.37 414.68 152.59 414.46 152.22 414.31 152.37 414.68" style="fill:#42beb8"/><polygon points="209.24 414.68 209.03 414.46 208.87 414.83 209.24 414.68" style="fill:#42beb8"/><polygon points="194.08 350.4 196.81 351.56 195.65 350.4 194.08 350.4" style="fill:#f6e040"/><path d="M145,373l.72-1.68-.72,1.14Z" style="fill:#f6e040"/><polygon points="164.8 420.92 165.08 421.21 165.47 421.21 164.8 420.92" style="fill:#f6e040"/><polygon points="216.65 399.52 215.49 402.25 216.65 401.09 216.65 399.52" style="fill:#f6e040"/><polygon points="218.99 388.05 219.26 387.41 218.99 387.41 218.99 388.05" style="fill:#42beb8"/><polygon points="142.35 385.07 142.63 385.07 142.63 384.44 142.35 385.07" style="fill:#42beb8"/><polygon points="217.82 386.24 220.72 386.24 217.82 379.06 217.82 386.24" style="fill:#42beb8"/><polygon points="182.61 348.06 181.97 347.79 181.97 348.06 182.61 348.06" style="fill:#42beb8"/><polygon points="180.81 346.33 173.62 349.23 180.81 349.23 180.81 346.33" style="fill:#42beb8"/><polygon points="143.79 386.24 140.9 386.24 143.79 393.43 143.79 386.24" style="fill:#42beb8"/><polygon points="154.63 358.42 155.08 357.97 154.44 358.23 154.63 358.42" style="fill:#42beb8"/><polygon points="152.98 412.41 152.53 411.96 152.79 412.6 152.98 412.41" style="fill:#42beb8"/><polygon points="154.63 412.41 152.59 414.46 159.71 417.49 154.63 412.41" style="fill:#42beb8"/><path d="M207,360.07l.93-.94-1.06-2L201.9,355Z" style="fill:#42beb8"/><polygon points="206.98 412.41 209.03 414.46 212.06 407.33 206.98 412.41" style="fill:#42beb8"/><polygon points="207.17 414.26 206.98 414.07 206.53 414.51 207.17 414.26" style="fill:#42beb8"/><path d="M149.55,365.15l5.08-5.08-1.59-1.6c-.94,1.8-1.92,3.58-2.92,5.35Z" style="fill:#42beb8"/><polygon points="158.99 366.08 154.63 361.72 150.54 365.82 144.96 378.94 144.96 385.07 158.99 385.07 158.99 366.08" style="fill:#f6e040"/><polygon points="205.32 360.07 201.23 355.98 188.11 350.4 181.97 350.4 181.97 364.42 200.97 364.42 205.32 360.07" style="fill:#42beb8"/><polygon points="216.65 379.29 211.31 366.06 206.98 361.72 202.62 366.08 202.62 385.07 216.65 385.07 216.65 379.29" style="fill:#42beb8"/><polygon points="216.65 387.41 202.62 387.41 202.62 406.41 206.98 410.76 211.07 406.67 216.65 393.54 216.65 387.41" style="fill:#f6e040"/><polygon points="158.99 387.41 144.96 387.41 144.96 393.2 150.3 406.42 154.63 410.76 158.99 406.41 158.99 387.41" style="fill:#42beb8"/><polygon points="200.99 416.75 205.32 412.41 200.97 408.06 181.97 408.06 181.97 421.21 189.93 421.21 200.99 416.75" style="fill:#f6e040"/><polygon points="179.64 350.4 173.85 350.4 160.62 355.73 156.29 360.07 160.64 364.42 179.64 364.42 179.64 350.4" style="fill:#f6e040"/><polygon points="179.64 408.06 160.64 408.06 156.29 412.41 160.38 416.51 171.44 421.21 179.64 421.21 179.64 408.06" style="fill:#42beb8"/><polygon points="181.97 389.06 181.97 405.72 198.63 405.72 181.97 389.06" style="fill:#f6e040"/><polygon points="200.29 387.41 183.63 387.41 200.29 404.07 200.29 387.41" style="fill:#f6e040"/><polygon points="179.64 389.06 162.98 405.72 179.64 405.72 179.64 389.06" style="fill:#42beb8"/><polygon points="200.29 368.42 183.63 385.07 200.29 385.07 200.29 368.42" style="fill:#42beb8"/><polygon points="181.97 366.76 181.97 383.42 198.63 366.76 181.97 366.76" style="fill:#42beb8"/><polygon points="179.64 366.76 162.98 366.76 179.64 383.42 179.64 366.76" style="fill:#f6e040"/><polygon points="161.33 368.41 161.33 385.07 177.99 385.07 161.33 368.41" style="fill:#f6e040"/><polygon points="161.33 404.07 177.99 387.41 161.33 387.41 161.33 404.07" style="fill:#42beb8"/><g style="mix-blend-mode:multiply"><path d="M106.48,416.35c-4.18,3.57-6.75,5.37-6.75,5.37H260.87s-2.57-1.8-6.75-5.37H106.48Z" style="fill:#00579f"/></g><path d="M471.56,421.21A176.37,176.37,0,0,1,447.09,398a204.34,204.34,0,0,1-21.8-29.75,191.7,191.7,0,0,1-18.48-40.86H378.27a191.7,191.7,0,0,1-18.48,40.86A204.34,204.34,0,0,1,338,398a176.37,176.37,0,0,1-24.47,23.22Z" style="fill:#f7b22b"/><path d="M363.24,419.16a10.83,10.83,0,0,1-1-4.79,10.14,10.14,0,0,1,1-4.23c1.42-2.76,3.15-5.28,4.32-8.18.75-1.87,1.26-4.31.24-6.07a7.41,7.41,0,0,0-.15-2.44,10.45,10.45,0,0,1,3.43-4.91c2.78-2.29,6.91-3.38,10.13-1.38,3,1.86,3.06,6.67-.61,7.78-1.3.39-3.11.22-3.37-1.35-.22-1.33,1.06-2.18,2.18-2.38a.16.16,0,0,0,0-.31c-1.49-.68-2.85.41-3.45,1.74a2.9,2.9,0,0,0,1.72,3.9,6,6,0,0,0,6.06-1.73,5.88,5.88,0,0,0,1-5.78c-1.69-4.9-7.72-5.36-11.82-3.57a13.08,13.08,0,0,0-6.18,5.66,10.48,10.48,0,0,0-.75-1.24,11,11,0,0,1,.85-4.2,17.88,17.88,0,0,1,4.48-6.34c4.06-4,9-7.94,9.93-14,.74-4.9-3.32-11.47-8.88-8.86-2.16,1-4,3.42-3.66,5.87a5,5,0,0,0,3.19,3.84,2.71,2.71,0,0,0,3.77-2,.18.18,0,0,0-.33-.11c-.55.68-1.11,1.3-2.05,1.17a3.59,3.59,0,0,1-2.23-1.15c-1.93-2,.21-4.35,2.11-5.36,2.57-1.36,4.75.56,5.77,2.84,1.2,2.74.19,5.77-1.28,8.18-2.81,4.58-8,7.15-11.16,11.47a17.28,17.28,0,0,0-2.8,6.07,14.34,14.34,0,0,0-2.71-1.88c-2.8-1.46-7.09-2.11-9.66-4.34-.64.91-1.29,1.81-1.95,2.71a15.25,15.25,0,0,0,3.46,2c3.71,1.62,8.13,2.58,10.84,5.64a4.91,4.91,0,0,0,1.52,2.4,4.22,4.22,0,0,1,.16,2.59c-4.13-2.37-7-6.3-12-6.94-2.07-.27-4.3.19-5.17,2.28a2.77,2.77,0,0,0,2,3.85c.2,0,.26-.24.12-.36-.78-.65-1.36-1.55-.8-2.53a2.72,2.72,0,0,1,2.12-1.12,10,10,0,0,1,4.79,1c3,1.4,5.24,4,8.37,5.16a6.57,6.57,0,0,1-1.11,1.27c-1.7,1.5-4.83,2.79-6.92,1.33s.19-5.15,2.45-3c.21.2.61,0,.45-.29-1-1.83-3.49-2.54-4.9-.7a4.22,4.22,0,0,0,1.33,6c2.56,1.57,6,.66,8.53-1.28-.4.64-.8,1.23-1.12,1.71a39.7,39.7,0,0,0-3.86,6.51l0,0a8.42,8.42,0,0,1-1.12.85,5.78,5.78,0,0,1-1.27.8,10.31,10.31,0,0,1-2.86.93c-2.23.4-4.33-.62-6.06-1.9-2-1.49-3.68-3.38-5.69-4.87a20.22,20.22,0,0,0-5-2.87,6.55,6.55,0,0,0-3.15-.4q-2.08,2.24-4,4.23a6.45,6.45,0,0,0-.13,1.56,6,6,0,0,0,4.15,5.31c2.25.64,4.14-1.46,5.21-3.13a.23.23,0,0,0-.37-.26,9.48,9.48,0,0,1-2.88,2.4c-1.67.78-3.32-.6-4.13-1.95a4.71,4.71,0,0,1,1.46-6.1c1.33-.77,3.11,0,4.33.62a16.84,16.84,0,0,1,3.89,2.93c2.26,2.2,3.81,5,6.22,6.75a9.12,9.12,0,0,1-2.55.89,25.92,25.92,0,0,1-6.41.23c-4.12-.15-8.49-1.11-12.58-.32a6.86,6.86,0,0,0-5.18,4.62,3.65,3.65,0,0,0-.07,1.54H323v-.11c-.08-2.12,2.49-3.43,4.28-3.61a24,24,0,0,1,4.94.21c4.85.5,14.93,2.71,18.12-2.31a8.44,8.44,0,0,0,1.5.39,9.29,9.29,0,0,0,6.37-1.25,4.82,4.82,0,0,0,.51-.38,13.09,13.09,0,0,0,2.15,7.06h3.73A11,11,0,0,1,363.24,419.16Z" style="fill:#9c6427"/><path d="M363.18,380.11a1,1,0,0,0-1,.92,1,1,0,0,0,.25.69.9.9,0,0,0,.67.31h.17a1.09,1.09,0,0,0,.68-.25.94.94,0,0,0,.31-.66,1,1,0,0,0-.9-1Z" style="fill:#9c6427"/><path d="M368,386.4a.9.9,0,1,0,.94-.85A.92.92,0,0,0,368,386.4Z" style="fill:#9c6427"/><path d="M371.32,391.48a1.36,1.36,0,1,0,1.33,1.4A1.37,1.37,0,0,0,371.32,391.48Z" style="fill:#9c6427"/><path d="M371.46,400.65a1.14,1.14,0,0,0,.73-.52,1.21,1.21,0,0,0,.15-.91,1.2,1.2,0,0,0-1.42-.87,1,1,0,0,0-1.17.65,1.26,1.26,0,0,0,.49,1.46A1.73,1.73,0,0,0,371.46,400.65Z" style="fill:#9c6427"/><path d="M370.06,405.13a1.17,1.17,0,0,0-1.08-.32,1.12,1.12,0,0,0-.34,2,1.13,1.13,0,0,0,1.36-.13l.08-.07a1,1,0,0,0,.06-1.43A.3.3,0,0,1,370.06,405.13Z" style="fill:#9c6427"/><path d="M367.93,410.54a.85.85,0,0,0-.8-.88.86.86,0,0,0-.88.8.84.84,0,1,0,1.68.08Z" style="fill:#9c6427"/><path d="M368,418.33a.75.75,0,0,0,.11-.56.76.76,0,0,0-.49-.54.64.64,0,0,0-.57,0,.73.73,0,1,0,.95,1.06Z" style="fill:#9c6427"/><path d="M344.16,403.6c.36,1.55,2.8.74,2.18-.65A1.14,1.14,0,0,0,344.16,403.6Z" style="fill:#9c6427"/><path d="M350.21,408.24l.12-.08a.84.84,0,0,0,.07-1.42l-.12-.08C348.51,405.5,348.6,409.3,350.21,408.24Z" style="fill:#9c6427"/><path d="M353.41,407.65c-1,0-1.12,1.6-.08,1.6S354.45,407.65,353.41,407.65Z" style="fill:#9c6427"/><path d="M358.1,408.19a.5.5,0,0,0,.54-.47.51.51,0,0,0-.61-.53l-.2,0a.48.48,0,0,0-.38.44.49.49,0,0,0,.45.52Z" style="fill:#9c6427"/><path d="M372.76,361.84a1,1,0,0,0,.94,1,1,1,0,0,0,1-.95,1,1,0,0,0-.94-1A1,1,0,0,0,372.76,361.84Z" style="fill:#9c6427"/><path d="M381.47,371.84l-.14-.11a.76.76,0,0,0-1.18.6.77.77,0,0,0,.34.68.78.78,0,0,0,.93-.07l.12-.09a.62.62,0,0,0,.21-.44A.64.64,0,0,0,381.47,371.84Z" style="fill:#9c6427"/><path d="M383.69,369.05a.78.78,0,1,0-.74-.82A.78.78,0,0,0,383.69,369.05Z" style="fill:#9c6427"/><path d="M385.6,363.69a.87.87,0,0,0-.05-.69.84.84,0,0,0-.28-.31l-.06,0h0l0,0a.88.88,0,0,0-.85,0,.92.92,0,0,0-.49.76.91.91,0,0,0,.86.94A.89.89,0,0,0,385.6,363.69Z" style="fill:#9c6427"/><path d="M383.3,355.27a.87.87,0,0,0-.7-.88.63.63,0,0,0-.37-.12.81.81,0,0,0-.56.19.88.88,0,0,0-.16,1.09,1.1,1.1,0,0,0,.89.53A.87.87,0,0,0,383.3,355.27Z" style="fill:#9c6427"/><path d="M463.71,421.21a3.65,3.65,0,0,0-.07-1.54,6.86,6.86,0,0,0-5.18-4.62c-4.09-.79-8.46.17-12.58.32a25.92,25.92,0,0,1-6.41-.23,9.12,9.12,0,0,1-2.55-.89c2.41-1.75,3.95-4.55,6.22-6.75a16.84,16.84,0,0,1,3.89-2.93c1.22-.63,3-1.39,4.33-.62a4.7,4.7,0,0,1,1.45,6.1c-.8,1.35-2.45,2.73-4.12,1.95a9.48,9.48,0,0,1-2.88-2.4.23.23,0,0,0-.37.26c1.07,1.67,3,3.77,5.21,3.13a6,6,0,0,0,4.15-5.31,6.45,6.45,0,0,0-.13-1.56c-1.31-1.33-2.67-2.74-4.05-4.23a6.55,6.55,0,0,0-3.15.4,20.22,20.22,0,0,0-5,2.87c-2,1.49-3.68,3.38-5.69,4.87-1.73,1.28-3.83,2.3-6.06,1.9a10.31,10.31,0,0,1-2.86-.93,5.78,5.78,0,0,1-1.27-.8,8.42,8.42,0,0,1-1.12-.85l0,0a39.7,39.7,0,0,0-3.86-6.51c-.32-.48-.72-1.07-1.12-1.71,2.49,1.94,6,2.85,8.53,1.28a4.22,4.22,0,0,0,1.33-6c-1.41-1.84-3.89-1.13-4.9.7-.16.28.24.49.45.29,2.26-2.13,4.69,1.45,2.45,3-2.09,1.46-5.22.17-6.92-1.33a6.25,6.25,0,0,1-1.11-1.27c3.13-1.17,5.36-3.76,8.36-5.16a10,10,0,0,1,4.8-1,2.72,2.72,0,0,1,2.12,1.12c.56,1,0,1.88-.8,2.53-.14.12-.08.38.12.36a2.77,2.77,0,0,0,2-3.85c-.87-2.09-3.1-2.55-5.17-2.28-5,.64-7.9,4.57-12,6.94a4.22,4.22,0,0,1,.16-2.59,4.91,4.91,0,0,0,1.52-2.4c2.71-3.06,7.13-4,10.84-5.64a15.25,15.25,0,0,0,3.46-2c-.66-.9-1.31-1.8-1.95-2.71-2.57,2.23-6.86,2.88-9.66,4.34a14.34,14.34,0,0,0-2.71,1.88,17.28,17.28,0,0,0-2.8-6.07c-3.17-4.32-8.35-6.89-11.16-11.47-1.47-2.41-2.48-5.44-1.28-8.18,1-2.28,3.2-4.2,5.77-2.84,1.9,1,4,3.32,2.11,5.36a3.59,3.59,0,0,1-2.23,1.15c-.94.13-1.5-.49-2.05-1.17a.18.18,0,0,0-.33.11,2.71,2.71,0,0,0,3.77,2,5,5,0,0,0,3.19-3.84c.36-2.45-1.51-4.86-3.66-5.87-5.56-2.61-9.62,4-8.88,8.86.9,6,5.87,9.94,9.93,14a17.88,17.88,0,0,1,4.48,6.34,11,11,0,0,1,.85,4.2,10.48,10.48,0,0,0-.75,1.24,13.13,13.13,0,0,0-6.18-5.66c-4.1-1.79-10.13-1.33-11.82,3.57a5.74,5.74,0,0,0,7.08,7.51,2.89,2.89,0,0,0,1.73-3.9c-.6-1.33-2-2.42-3.45-1.74a.16.16,0,0,0,0,.31c1.12.2,2.4,1.05,2.18,2.38-.26,1.57-2.08,1.74-3.37,1.35-3.68-1.11-3.63-5.92-.61-7.78,3.22-2,7.35-.91,10.13,1.38a10.45,10.45,0,0,1,3.43,4.91,7.41,7.41,0,0,0-.15,2.44c-1,1.76-.51,4.2.24,6.07,1.17,2.9,2.9,5.42,4.31,8.18a10,10,0,0,1,1,4.23,10.83,10.83,0,0,1-1,4.79,11,11,0,0,1-1.31,2h3.73a13,13,0,0,0,2.14-7.06,6.28,6.28,0,0,0,.52.38,9.28,9.28,0,0,0,6.37,1.25,8.44,8.44,0,0,0,1.5-.39c3.19,5,13.27,2.81,18.12,2.31a24,24,0,0,1,4.94-.21c1.79.18,4.36,1.49,4.28,3.61v.11Z" style="fill:#9c6427"/><path d="M421.72,380.13a1,1,0,0,0-.9,1,.94.94,0,0,0,.31.66,1.09,1.09,0,0,0,.68.25H422a.92.92,0,0,0,.67-.31,1,1,0,0,0,.25-.69,1,1,0,0,0-1-.92Z" style="fill:#9c6427"/><path d="M417.1,386.4a.92.92,0,0,0-1-.85.9.9,0,0,0-.85.94.9.9,0,0,0,1.8-.09Z" style="fill:#9c6427"/><path d="M413.76,391.48a1.36,1.36,0,1,0,1.39,1.33A1.37,1.37,0,0,0,413.76,391.48Z" style="fill:#9c6427"/><path d="M414.61,398.35a1,1,0,0,0-.45,0,1.2,1.2,0,0,0-1.42.87,1.21,1.21,0,0,0,.15.91,1.14,1.14,0,0,0,.73.52,1.73,1.73,0,0,0,1.22-.19,1.28,1.28,0,0,0,.49-1.46A1,1,0,0,0,414.61,398.35Z" style="fill:#9c6427"/><path d="M415,406.64l.08.07a1.13,1.13,0,0,0,1.36.13,1.12,1.12,0,0,0-.34-2,1.16,1.16,0,0,0-1.08.32.6.6,0,0,1-.08.08A1,1,0,0,0,415,406.64Z" style="fill:#9c6427"/><path d="M418,411.34a.85.85,0,0,0,.8-.88.87.87,0,0,0-.88-.8.84.84,0,0,0,.08,1.68Z" style="fill:#9c6427"/><path d="M417.12,418.33a.73.73,0,1,0,.95-1.06.64.64,0,0,0-.57,0,.76.76,0,0,0-.49.54A.75.75,0,0,0,417.12,418.33Z" style="fill:#9c6427"/><path d="M438.74,403c-.62,1.39,1.82,2.2,2.18.65A1.14,1.14,0,0,0,438.74,403Z" style="fill:#9c6427"/><path d="M434.8,406.66l-.12.08a.84.84,0,0,0,.07,1.42l.12.08C436.48,409.3,436.56,405.5,434.8,406.66Z" style="fill:#9c6427"/><path d="M431.75,409.25c1,0,.95-1.6-.08-1.6S430.72,409.25,431.75,409.25Z" style="fill:#9c6427"/><path d="M427.05,407.19a.51.51,0,0,0-.61.53.5.5,0,0,0,.54.47l.2,0a.49.49,0,0,0,.45-.52.48.48,0,0,0-.38-.44Z" style="fill:#9c6427"/><path d="M412.32,361.84a1,1,0,0,0-1-.95,1,1,0,0,0-.94,1,1,1,0,1,0,2-.08Z" style="fill:#9c6427"/><path d="M403.33,372.41a.62.62,0,0,0,.21.44l.12.09a.78.78,0,0,0,.93.07.77.77,0,0,0,.34-.68.76.76,0,0,0-1.18-.6l-.14.11A.64.64,0,0,0,403.33,372.41Z" style="fill:#9c6427"/><path d="M401.39,369.05a.78.78,0,1,0-.82-.73A.79.79,0,0,0,401.39,369.05Z" style="fill:#9c6427"/><path d="M399.53,363a.9.9,0,1,0,1.2-.39.86.86,0,0,0-.84,0l0,0h0l-.06,0A.84.84,0,0,0,399.53,363Z" style="fill:#9c6427"/><path d="M403.41,354.46a.81.81,0,0,0-.56-.19.63.63,0,0,0-.37.12.85.85,0,0,0,.19,1.69,1.11,1.11,0,0,0,.9-.53A.88.88,0,0,0,403.41,354.46Z" style="fill:#9c6427"/><path d="M408.28,408.69a8.3,8.3,0,0,0-2.9-3.73,13.28,13.28,0,0,0-1-1.77c-1.88-2.73-4.6-4.63-6.67-7.19a25.33,25.33,0,0,1-2.7-4.16A50.57,50.57,0,0,0,398,383.3a38,38,0,0,0,.4-17.39,36.66,36.66,0,0,0-2.79-8.19,37.86,37.86,0,0,0-2.05-4c.47-1,1-1.91,1.47-2.85,0-.08-.07-.14-.13-.09a16.21,16.21,0,0,0-1.81,2.21,16.29,16.29,0,0,0-1.82-2.21c-.06-.05-.17,0-.12.09.49.94,1,1.89,1.46,2.85a36,36,0,0,0-2,4,37.2,37.2,0,0,0-2.8,8.19,38.13,38.13,0,0,0,.4,17.39,51.5,51.5,0,0,0,3.07,8.54,26,26,0,0,1-2.7,4.16c-2.07,2.56-4.79,4.46-6.68,7.19a15.85,15.85,0,0,0-1,1.77,8.37,8.37,0,0,0-2.9,3.73,15.62,15.62,0,0,0-1.12,6.87,29,29,0,0,0,.72,5.65h2.39c0-.1,0-.2-.07-.3a26.68,26.68,0,0,1-.68-6.35,8.51,8.51,0,0,0,2.56,5.05,8.6,8.6,0,0,0,2.47,1.6h6.85a7.57,7.57,0,0,0,2.05-1.43,7.37,7.37,0,0,0,2,1.43H402a8.6,8.6,0,0,0,2.47-1.6,8.51,8.51,0,0,0,2.56-5.05,26.68,26.68,0,0,1-.68,6.35c0,.1-.05.2-.07.3h2.4a30.66,30.66,0,0,0,.72-5.65A15.77,15.77,0,0,0,408.28,408.69ZM390,369.26a42.83,42.83,0,0,1,1.32-9.69,29.66,29.66,0,0,1,1.84-4.83,29.62,29.62,0,0,1,1.83,4.83,42.83,42.83,0,0,1,1.32,9.69,49.21,49.21,0,0,1-.54,9.55,46.82,46.82,0,0,1-2.61,8.9,46.13,46.13,0,0,1-2.62-8.9A49.21,49.21,0,0,1,390,369.26Zm14.51,47.58a6.59,6.59,0,0,1-10.39,1.69,4,4,0,0,0,.43-3.18,4.53,4.53,0,0,0-.33-.82,3.79,3.79,0,0,1,1.63-.94c1.69-.44,2.41.75,2.55,2.3a.21.21,0,0,0,.42,0c.58-1.89,0-4.38-2.49-4.17a5.48,5.48,0,0,0-3.17,1.42,5.54,5.54,0,0,0-3.17-1.42c-2.47-.21-3.08,2.28-2.49,4.17a.21.21,0,0,0,.41,0c.14-1.55.86-2.74,2.55-2.3a3.82,3.82,0,0,1,1.64.94,4.56,4.56,0,0,0-.34.82,4.06,4.06,0,0,0,.43,3.18,6.64,6.64,0,0,1-4.16,1.82,6.57,6.57,0,0,1-6.22-3.51c-1.38-2.81-.42-6.84.87-9.5,1.5-3.1,4.35-4.92,6.7-7.28a26.46,26.46,0,0,0,3.78-4.8,26.41,26.41,0,0,0,3.77,4.8c2.36,2.36,5.21,4.18,6.71,7.28C404.88,410,405.84,414,404.47,416.84Z" style="fill:#9c6427"/><polygon points="406.9 326.36 419.31 305.41 365.77 305.41 378.18 326.36 406.9 326.36" style="fill:#f7b22b"/><polygon points="422.86 304.38 422.86 299.34 362.22 299.34 362.22 304.38 363.97 304.38 421.11 304.38 422.86 304.38" style="fill:#f7b22b"/><polygon points="473.11 422.23 310.35 422.23 304.79 422.23 304.79 433.28 311.31 433.28 473.77 433.28 480.29 433.28 480.29 422.23 474.73 422.23 473.11 422.23" style="fill:#f7b22b"/><path d="M318.35,448.76c3.62,6.8,9.77,14.9,18.48,14.9H448.25c8.71,0,14.86-8.1,18.48-14.9a75.43,75.43,0,0,0,5.72-14.46H312.63A75.43,75.43,0,0,0,318.35,448.76Z" style="fill:#f7b22b"/><rect x="338.69" y="464.69" width="107.7" height="10.91" style="fill:#f7b22b"/><g style="mix-blend-mode:multiply"><path d="M471.45,439.16c1.12-3.19,1.66-5.37,1.66-5.37H312s.53,2.18,1.66,5.37Z" style="fill:#f7b22b"/></g><g style="mix-blend-mode:multiply"><polygon points="446.9 469.55 446.9 464.18 392.54 464.18 392.54 464.18 338.18 464.18 338.18 469.55 446.9 469.55" style="fill:#f7b22b"/></g><g style="mix-blend-mode:multiply"><path d="M318.72,416.35c-4.18,3.57-6.75,5.37-6.75,5.37H473.11s-2.57-1.8-6.75-5.37H318.72Z" style="fill:#f7b22b"/></g><path d="M481.32,421.21h-8c-1.31-.94-12.38-9.1-25.44-23.92-12.74-14.45-30-38.39-40.09-70.36l12.75-21.52h3.39v-7.1h-62.7v7.1h3.39l12.75,21.52c-10.07,32-27.35,55.91-40.09,70.36-13.06,14.82-24.13,23-25.44,23.92h-8V434.3h7.81a75.84,75.84,0,0,0,5.86,14.92c5.39,10.12,12.1,15.47,19.4,15.47h.83v11.93H447.42V464.69h.83c7.3,0,14-5.35,19.39-15.47a76.12,76.12,0,0,0,5.87-14.92h7.81Zm-14.59,27.55c-3.62,6.8-9.77,14.9-18.48,14.9H336.83c-8.71,0-14.86-8.1-18.48-14.9a75.43,75.43,0,0,1-5.72-14.46H472.45A75.43,75.43,0,0,1,466.73,448.76ZM446.39,475.6H338.69V464.69h107.7Zm33.9-42.32H304.79v-11h175.5ZM362.22,304.39v-5.05h60.64v5.05H362.22Zm57.09,1L406.9,326.36H378.18l-12.41-20.95ZM338,398a204.34,204.34,0,0,0,21.8-29.75,191.7,191.7,0,0,0,18.48-40.86h28.54a191.7,191.7,0,0,0,18.48,40.86A204.34,204.34,0,0,0,447.09,398a176.37,176.37,0,0,0,24.47,23.22h-158A176.37,176.37,0,0,0,338,398Z" style="fill:#9c6427"/><path d="M701.41,416.19A175.46,175.46,0,0,1,676.94,393a203.69,203.69,0,0,1-21.8-29.76,191.62,191.62,0,0,1-18.48-40.85H608.11a191.58,191.58,0,0,1-18.47,40.85A203.76,203.76,0,0,1,567.83,393a176.2,176.2,0,0,1-24.46,23.21Z" style="fill:#5bc4c2"/><polygon points="636.75 321.34 649.16 300.39 595.61 300.39 608.03 321.34 636.75 321.34" style="fill:#5bc4c2"/><polygon points="652.71 299.37 652.71 294.32 592.07 294.32 592.07 299.37 593.82 299.37 650.96 299.37 652.71 299.37" style="fill:#5bc4c2"/><polygon points="702.96 417.22 540.19 417.22 534.63 417.22 534.63 428.26 541.16 428.26 703.62 428.26 710.14 428.26 710.14 417.22 704.58 417.22 702.96 417.22" style="fill:#5bc4c2"/><path d="M548.19,443.74c3.63,6.8,9.78,14.91,18.49,14.91H678.1c8.71,0,14.86-8.11,18.48-14.91a75.42,75.42,0,0,0,5.72-14.45H542.48A75.17,75.17,0,0,0,548.19,443.74Z" style="fill:#5bc4c2"/><rect x="568.54" y="459.67" width="107.7" height="10.91" style="fill:#5bc4c2"/><g style="mix-blend-mode:multiply"><path d="M701.3,434.15c1.12-3.2,1.66-5.38,1.66-5.38H541.81s.54,2.18,1.66,5.38Z" style="fill:#5bc4c2"/></g><g style="mix-blend-mode:multiply"><polygon points="676.75 464.53 676.75 459.16 622.39 459.16 622.39 459.16 568.02 459.16 568.02 464.53 676.75 464.53" style="fill:#5bc4c2"/></g><g style="mix-blend-mode:multiply"><path d="M548.57,411.33c-4.19,3.57-6.76,5.38-6.76,5.38H703s-2.57-1.81-6.75-5.38H548.57Z" style="fill:#5bc4c2"/></g><path d="M711.17,416.19h-8c-1.31-.94-12.38-9.09-25.44-23.91-12.74-14.46-30-38.39-40.09-70.36l12.75-21.53h3.38V293.3H591v7.09h3.38l12.76,21.53c-10.07,32-27.35,55.9-40.09,70.36-13.06,14.82-24.13,23-25.44,23.91h-8v13.1h7.81a76.09,76.09,0,0,0,5.86,14.92c5.39,10.11,12.1,15.46,19.4,15.46h.83v11.94H677.26V459.67h.84c7.3,0,14-5.35,19.39-15.46a77.05,77.05,0,0,0,5.87-14.92h7.81Zm-14.59,27.55c-3.62,6.8-9.77,14.91-18.48,14.91H566.68c-8.71,0-14.86-8.11-18.49-14.91a75.17,75.17,0,0,1-5.71-14.45H702.3A75.42,75.42,0,0,1,696.58,443.74Zm-20.34,26.85H568.54V459.67h107.7Zm33.9-42.33H534.63v-11H710.14ZM592.07,299.37v-5.05h60.64v5.05H592.07Zm57.09,1-12.41,20.95H608l-12.42-20.95ZM567.83,393a203.76,203.76,0,0,0,21.81-29.76,191.58,191.58,0,0,0,18.47-40.85h28.55a191.62,191.62,0,0,0,18.48,40.85A203.69,203.69,0,0,0,676.94,393a175.46,175.46,0,0,0,24.47,23.21h-158A176.2,176.2,0,0,0,567.83,393Z" style="fill:#1e5b5b"/><path d="M628.39,348.37a3.21,3.21,0,0,0,1,.12,1.42,1.42,0,0,0,1.5-1.26,1.39,1.39,0,0,0-1.44-1.32h-.35a2,2,0,0,0-.66.11,1.33,1.33,0,0,0-.62.3,1.11,1.11,0,0,0-.43.85A1.27,1.27,0,0,0,628.39,348.37Z" style="fill:#1e5b5b"/><path d="M609.57,345.88a1.17,1.17,0,0,0-1.2-1.13,1.2,1.2,0,0,0-1.28,1.06,1.16,1.16,0,0,0,1.2,1.13A1.2,1.2,0,0,0,609.57,345.88Z" style="fill:#1e5b5b"/><path d="M628.27,356.15A1.87,1.87,0,1,0,630.4,358,2,2,0,0,0,628.27,356.15Z" style="fill:#1e5b5b"/><path d="M610.35,360.74a1.4,1.4,0,0,0,0-1.59,1.72,1.72,0,0,0-.64-.58,2.14,2.14,0,0,0-.91-.22h0a2.71,2.71,0,0,0-.41,0h0a1.72,1.72,0,0,0-.82.41,1.58,1.58,0,0,0-.47.7,1.46,1.46,0,0,0,.46,1.54A2,2,0,0,0,610.35,360.74Z" style="fill:#1e5b5b"/><path d="M598.39,358a2,2,0,1,0-2,1.73A1.87,1.87,0,0,0,598.39,358Z" style="fill:#1e5b5b"/><path d="M606.25,373.09a2.72,2.72,0,0,0,1.76.6,2.31,2.31,0,0,0,2.39-2.22,2,2,0,0,0-.76-1.51,2.67,2.67,0,0,0-1.76-.6,2.31,2.31,0,0,0-2.39,2.22A2,2,0,0,0,606.25,373.09Z" style="fill:#1e5b5b"/><path d="M586.21,373.65a2.52,2.52,0,0,0,1.63.56,2.17,2.17,0,0,0,2.25-2,2,2,0,0,0-.7-1.42,2.52,2.52,0,0,0-1.63-.56,2.16,2.16,0,0,0-2.24,2A1.94,1.94,0,0,0,586.21,373.65Z" style="fill:#1e5b5b"/><path d="M642.63,370.53a2.11,2.11,0,0,0,2.22,1.91,2.09,2.09,0,0,0,2.17-1.95,2.11,2.11,0,0,0-2.22-1.91A2.09,2.09,0,0,0,642.63,370.53Z" style="fill:#1e5b5b"/><path d="M627.43,373.21a4.32,4.32,0,0,0-.5-.33,2.26,2.26,0,0,0-2,0,1.73,1.73,0,0,0-.92,2,2,2,0,0,0,2,1.29,2.25,2.25,0,0,0,1-.24l.41-.28a1.83,1.83,0,0,0,.51-.79s0-.06,0-.09A1.46,1.46,0,0,0,627.43,373.21Z" style="fill:#1e5b5b"/><path d="M660.88,373.91a2.16,2.16,0,0,0-2.24,2,1.92,1.92,0,0,0,.69,1.41,2.51,2.51,0,0,0,1.62.56,2.17,2.17,0,0,0,2.25-2,1.59,1.59,0,0,0-.06-.38l-.8-1.15A2.54,2.54,0,0,0,660.88,373.91Z" style="fill:#1e5b5b"/><path d="M673.62,390.44a2.58,2.58,0,0,0,1-.18c-.91-1.07-1.81-2.15-2.7-3.23A2.05,2.05,0,0,0,673.62,390.44Z" style="fill:#1e5b5b"/><path d="M654.55,386.07a2.16,2.16,0,1,0,2.12-1.91A2.06,2.06,0,0,0,654.55,386.07Z" style="fill:#1e5b5b"/><path d="M640.21,391.62a1.86,1.86,0,1,0-2.12-1.84A2,2,0,0,0,640.21,391.62Z" style="fill:#1e5b5b"/><path d="M622.86,383.77l-.13-.11c-1.07-.83-2.87-.34-2.89,1s1.78,1.92,2.87,1.08l.12-.09A1.23,1.23,0,0,0,622.86,383.77Z" style="fill:#1e5b5b"/><path d="M600.31,389.45l.45.29a2.31,2.31,0,0,0,1.1.25l.36,0a2.28,2.28,0,0,0,1.55-.59,1.82,1.82,0,0,0,.62-1.38,1.87,1.87,0,0,0-.66-1.36,2.32,2.32,0,0,0-1.57-.55l-.35,0a2.49,2.49,0,0,0-1.53.58,1.81,1.81,0,0,0-.62,1.36A1.84,1.84,0,0,0,600.31,389.45Z" style="fill:#1e5b5b"/><path d="M584.85,384.75h0a1.68,1.68,0,0,0,.59.95c.06.06.13.1.19.15l.14.08h0a2,2,0,0,0,.65.26,2.48,2.48,0,0,0,1.15,0,2,2,0,0,0,.67-.29h0a1.92,1.92,0,0,0,.73-.65,1.63,1.63,0,0,0,0-1.81,2,2,0,0,0-.68-.61l-.24-.14a2.43,2.43,0,0,0-1.1-.25l-.58.07a2.55,2.55,0,0,0-.63.27l0,0-.12.08c-.06.05-.13.09-.19.15a1.56,1.56,0,0,0-.31.37h0l0,0-.08.14,0,.09-.06.16,0,.09,0,.14a.22.22,0,0,1,0,.08,1.62,1.62,0,0,0,0,.22,1.09,1.09,0,0,0,0,.18.3.3,0,0,0,0,.1S584.85,384.72,584.85,384.75Z" style="fill:#1e5b5b"/><path d="M562,399.59a2.13,2.13,0,0,0,2.25,1.93,2.41,2.41,0,0,0,1.56-.59l.15-.16a1.64,1.64,0,0,0,.56-1.2,1.68,1.68,0,0,0-.55-1.21,2.41,2.41,0,0,0-1.78-.75,2.44,2.44,0,0,0-.62.09L562,399.33A1.14,1.14,0,0,0,562,399.59Z" style="fill:#1e5b5b"/><path d="M601.82,398.92l-.13-.09a2.26,2.26,0,0,0-1-.23,2.19,2.19,0,0,0-1.38.51l-.33.25a1.55,1.55,0,0,0-.3,2.06,2.09,2.09,0,0,0,2.65.61l.36-.21a1.66,1.66,0,0,0,.9-2A1.85,1.85,0,0,0,601.82,398.92Z" style="fill:#1e5b5b"/><path d="M580.67,403.44a.64.64,0,0,0-.32-.73,1.5,1.5,0,0,0-.46-.22l-.32,0a1.64,1.64,0,0,0-1,.07,1.82,1.82,0,0,0-.36.22,1.14,1.14,0,0,0-.47.9,1.24,1.24,0,0,0,.46.95,1.84,1.84,0,0,0,.69.37l.3.07a1.52,1.52,0,0,0,.67,0,1.27,1.27,0,0,0,.78-.5,1,1,0,0,0,.16-.86A.91.91,0,0,0,580.67,403.44Z" style="fill:#1e5b5b"/><path d="M621.48,403.42a2.46,2.46,0,0,0-1.14.6,1.33,1.33,0,0,0-.46.93,1.28,1.28,0,0,0,.42.94,1.63,1.63,0,0,0,1.05.4,1.58,1.58,0,0,0,1.14-.45h0l0,0,0,0a1.34,1.34,0,0,0,.54-.45,1.16,1.16,0,0,0,.17-1A1.5,1.5,0,0,0,621.48,403.42Z" style="fill:#1e5b5b"/><path d="M639.06,399.25a2.18,2.18,0,0,0-2.27,2.07,2.22,2.22,0,0,0,2.35,2,2.05,2.05,0,1,0-.08-4.07Z" style="fill:#1e5b5b"/><path d="M654.48,402.3a2,2,0,0,0-.59-.05,2.3,2.3,0,0,0-1.25.23,1.68,1.68,0,0,0-1,1.48,1.72,1.72,0,0,0,1,1.48,2.22,2.22,0,0,0,1,.23,2.17,2.17,0,0,0,1-.23,1.87,1.87,0,0,0,.86-.73,1.58,1.58,0,0,0-1-2.41Z" style="fill:#1e5b5b"/><path d="M674,402.49a1.92,1.92,0,1,0,0-3.82A1.92,1.92,0,1,0,674,402.49Z" style="fill:#1e5b5b"/><path d="M690.57,407q-3.57.15-7.14.19a30.07,30.07,0,0,0,3.56-3.6c-.64-.62-1.28-1.26-1.94-1.93a27.89,27.89,0,0,1-5.09,4.59,11.26,11.26,0,0,1-1.76,1c-2.17,0-4.34,0-6.51.06a20.41,20.41,0,0,1-6-4.38c-2-2-3.63-4.17-5.58-6.17l-.24-.23c5.17-.68,10.32-1.52,15.55-1.36a28.77,28.77,0,0,1,3.82.42c-.77-.84-1.55-1.7-2.33-2.59l-.32-.37h0a55.51,55.51,0,0,0-11.52.56l-1,.12c.83-1.09,1.42-2.36,2.11-3.46,1.13-1.76,2-3.86,3.66-5.34q-.72-.9-1.41-1.8a7,7,0,0,0-1.16,1,37.86,37.86,0,0,0-4.36,6.45,9,9,0,0,1-2,2.64c-.92.74-2.19.1-3-.42-2.18-1.38-3.77-3.5-5.63-5.18a55.3,55.3,0,0,0-6-5.15,13,13,0,0,0-1.36-.79c4.91.36,9.82.71,14.75.88,2.87.1,5.73.23,8.6.34-.73-.94-1.44-1.89-2.15-2.85-1.48-.09-2.95-.18-4.42-.25-4.78-.25-9.54-.53-14.31-.83,3.46-1.53,6.26-4.43,8.78-6.83.84-.8,1.75-1.65,2.72-2.47l-1.17-1.82c-1,.73-1.91,1.51-2.82,2.3-3.33,2.88-6.69,6.9-11.6,7.58-3.58.5-6-2.67-7.75-4.88-1.59-2-3.29-4.3-5.79-5.42,1.51-.08,3-.17,4.51-.28,4-.28,8-.75,12-.94,3.52-.17,7.05.06,10.57.22-.44-.7-.87-1.41-1.3-2.12-2.81-.18-5.61-.4-8.37-.38-3.88,0-7.78.49-11.66.74a58.64,58.64,0,0,0,5.76-3.67c2.52-1.79,4.92-3.71,7.34-5.6l.29-.23.89.07.61.07c-.57-1.06-1.12-2.13-1.67-3.2l-.77-.05c-.66,0-1.33-.05-2-.05a22,22,0,0,1-4.47-3.95,42.74,42.74,0,0,0-5.68-5.82,13.77,13.77,0,0,0-1.57-1c1.33-.14,2.66-.3,4-.49,1.59-.23,3.17-.54,4.76-.8L642,337c-1.12.15-2.25.33-3.37.49-2.48.35-5,.59-7.49.83.44-.4.85-.81,1.28-1.21,1-1,2.14-1.92,3.23-2.86,1.3-1.13,2.64-2.19,4-3.21q-.37-1-.72-2c-1.56,1.11-3.09,2.24-4.61,3.38-1.16.87-2.27,1.8-3.37,2.73a17.32,17.32,0,0,1-3.33,2.6c-2,1-4.23-.74-5.67-1.82a60.39,60.39,0,0,1-5-4.44l-.31-.27q2.75-.24,5.49-.63c4.41-.63,8.83-1.21,13.27-1.62,1.13-.1,2.26-.19,3.39-.26-.36-1-.71-2-1.06-3.05l-1.82.15c-4.46.37-8.89.94-13.32,1.55a121.83,121.83,0,0,1-12.8,1.23l-3.8.1c-.32.91-.66,1.83-1,2.74l.8,0c-.4.27-.77.57-1.14.87q-1,2.67-2.1,5.31a34.49,34.49,0,0,1,5.43-4.77,7.79,7.79,0,0,1,3-1.36l1,0a3.5,3.5,0,0,1,1.24.39c1.72.92,2.91,2.65,4.28,3.91a22.63,22.63,0,0,0,4.67,3.48c-4.71.63-9.41,1.26-14.15,1.71-2.4.22-4.8.41-7.2.59-.33.73-.65,1.46-1,2.19a157,157,0,0,0,22.49-1.7c-.94.66-1.81,1.38-2.6,2.05-3.34,2.8-8.79,9-14,5.92-2.21-1.3-3.83-4.24-6-5.94-.27.59-.54,1.19-.82,1.78.39.44.75.88,1.09,1.3a18.82,18.82,0,0,0,4.74,4.72l.58.31c-3.2,0-6.42,0-9.62.16l-1,1.87c3.53.26,7.08.33,10.62.42-.39.26-.75.55-1.06.79a37.6,37.6,0,0,0-3.63,3.38c-1.86,1.87-4.33,4.81-7.49,4.68a6.29,6.29,0,0,1-3-1.09l-.48.82-.49.8a10.28,10.28,0,0,0,.93.49l-1.21,0c-.75,1.23-1.52,2.46-2.3,3.67a7.73,7.73,0,0,1,1.38-.34,3.73,3.73,0,0,1,2.68,1c2.28,1.82,4,4.21,6.1,6.18a31.9,31.9,0,0,0,2.74,2.33l-11.25.19c-2.72,0-5.44.09-8.17.15-.56.78-1.13,1.55-1.7,2.32,2.62,0,5.24,0,7.86,0l15.88-.07c-2.85,1.48-5.14,4.37-7,6.44a36.85,36.85,0,0,1-5.22,5.15c-2.45,1.77-5,0-6.75-1.65a78.37,78.37,0,0,1-5.48-6.07c-.36-.4-.75-.84-1.17-1.28l-1.38,1.76.6.68a80.11,80.11,0,0,0,5.9,6.63,14.48,14.48,0,0,0,1.92,1.5l-5.36-.09q-5.15,0-10.28-.05c-.76.86-1.51,1.7-2.26,2.51,3.49.08,7,.16,10.47.26l1,0a42.47,42.47,0,0,0-5.3,6.23,18.34,18.34,0,0,1-4.75,4.75,3.87,3.87,0,0,1-4.55-.41,17.92,17.92,0,0,1-3.72-3.71c-.64.64-1.28,1.26-1.89,1.85l.23.3a17.82,17.82,0,0,0,3.66,3.53h-3.49c-1.47,0-2.94,0-4.42-.07-.88.81-1.73,1.56-2.53,2.26a96.65,96.65,0,0,0,11.28.6c8.36.06,16.68.77,25,1.14,16.7.73,33.35-1.05,50-1.25,6.91-.08,13.81.28,20.72.22s13.87-.3,20.8-.35c5.43,0,10.81-.18,16.21-.48Q692.59,408.86,690.57,407ZM645.4,384.44c2,1.57,3.79,3.44,5.64,5.16a45,45,0,0,0,5,4.62c-1.07.09-2.14.17-3.22.22-7.92.34-15.69-1.35-23.57-1.75h-.42a34.72,34.72,0,0,0,3-3c2.1-2.26,4-4.69,6.64-6.52C640.84,381.51,643.51,383,645.4,384.44ZM638,380.75c-2.42,1-4.32,3.2-5.92,4.94-2.1,2.28-4.09,4.93-7,6.47-2.67,1.4-4.56-1.3-5.95-2.94-1.64-1.93-3.27-3.89-5-5.74a17,17,0,0,0-4.23-3.36l0,0a4.26,4.26,0,0,0,.47-.15h.19c8.22,0,16.43.09,24.63.61Zm-6.35-9.19c1.16,1.29,2.16,2.68,3.3,4a14,14,0,0,0,2.59,2.35l-.34,0c-7.37-.5-14.78-.66-22.19-.67,1.54-1.28,2.9-2.76,4.2-4.07,2.12-2.14,5.28-5.34,8.92-4.25A8.18,8.18,0,0,1,631.62,371.56Zm13.88-16.83c-1.69,1.34-3.36,2.69-5.08,3.94a50,50,0,0,1-7.82,4.78,12.29,12.29,0,0,1-3.27,1.15l-1.49.07a6.36,6.36,0,0,1-1.25-.23,12.49,12.49,0,0,1-4.61-3c-1.53-1.37-3-2.82-4.49-4.18a20.47,20.47,0,0,0-3.29-2.44c3.12,0,6.25,0,9.36-.07,2.82-.1,5.64-.19,8.45-.16,2.53,0,5,.35,7.56.33C641.55,354.93,643.53,354.78,645.5,354.73ZM619,347.29c2.07-2,4.18-4.52,7-5.69h0c1.39-.16,2.79-.29,4.19-.42a10.64,10.64,0,0,1,4.77,2.6c2.69,2.35,4.68,5.54,7.39,7.94-.53,0-1.06.06-1.59.07-2.59.09-5.14-.2-7.73-.28-3-.1-6,0-8.95.1-3.86.13-7.71.29-11.57.41A23.77,23.77,0,0,0,619,347.29Zm-17.58,13.55c1.24-1.22,2.44-2.49,3.79-3.63a11.4,11.4,0,0,1,1.92-1.35,2.72,2.72,0,0,0,1.27-1,2.38,2.38,0,0,0,.83.27,4.86,4.86,0,0,1,1.14.13,8.87,8.87,0,0,1,2.65,1.21,27.61,27.61,0,0,1,4.59,3.86,34.55,34.55,0,0,0,5.21,4.55c-8.26.21-16.53,0-24.79-.14l-1.6,0A18.15,18.15,0,0,0,601.38,360.84ZM596,370.91a30.49,30.49,0,0,0-4-4l4.93.12c8.33.23,16.68.43,25,.27l.75,0a19.71,19.71,0,0,0-5,3.8c-2,2-3.92,4.64-6.56,6.14q-3.75,0-7.5.08l-.74-.41A33.14,33.14,0,0,1,596,370.91Zm-1.1,18.86c1.73-1.94,3.44-3.94,5.29-5.79s4.06-3.57,6.86-2.91c2.58.61,4.53,3.06,6,4.84,1.65,2,3.26,4,4.95,5.9.34.39.7.76,1.07,1.11-4.61.33-9.22.81-13.84.84s-9-.29-13.54-.42h-.47A21.66,21.66,0,0,0,594.93,389.77Zm-16.77,19q-4.44-.19-8.86-.3a20.65,20.65,0,0,0,3.82-3.7c1.54-1.79,2.89-3.7,4.43-5.49a9.21,9.21,0,0,1,5.08-3.3l1.5.05c1.71.44,3,2.19,3.87,3.37,1.51,2,2.91,4.16,4.25,6.27a20.35,20.35,0,0,0,2.58,3.5C589.27,409.17,583.72,409,578.16,408.74Zm19.36-1c-1.85-1.55-2.94-3.94-4.23-5.85a45,45,0,0,0-4.1-5.77q6.06.18,12.12.42A147,147,0,0,0,617,396a32.67,32.67,0,0,0-6.33,5c-2,1.88-4.15,3.67-6.31,5.42C602.44,408,599.87,409.73,597.52,407.77Zm22.08.28c-4.57.26-9.14.54-13.71.76a65.19,65.19,0,0,0,5.85-4.94,39.49,39.49,0,0,1,6.83-5.61c2.07-1.19,4.4-1.93,6.25-.14,1.63,1.57,2.42,3.83,3.54,5.69a16.17,16.17,0,0,0,3,3.68C627.42,407.62,623.5,407.82,619.6,408.05Zm22-1.56a8,8,0,0,1-2.56.87H637a6.29,6.29,0,0,1-2.75-1.13c-2.18-1.58-3.4-3.92-4.6-6.11a13.35,13.35,0,0,0-3.49-4.51c7.61,0,15.11,1.51,22.71,1.69.66,0,1.31,0,2,0a37.39,37.39,0,0,0-3.48,3.84C645.69,403.12,644.08,405.19,641.65,406.49Zm3.54,1a23.81,23.81,0,0,0,3.59-3.4c1.75-2,3.27-4.18,5.48-5.84a2.4,2.4,0,0,1,2.77-.45,10.11,10.11,0,0,1,2.55,2.67,40.33,40.33,0,0,0,6.83,7C659.33,407.54,652.26,407.64,645.19,407.45Z" style="fill:#1e5b5b"/><path d="M623.85,333.34a1.76,1.76,0,0,0,1.84,1.64,1.64,1.64,0,1,0-1.84-1.64Z" style="fill:#1e5b5b"/><path d="M609.46,336.83a1.47,1.47,0,1,0-1.63-1.47A1.59,1.59,0,0,0,609.46,336.83Z" style="fill:#1e5b5b"/><path d="M556.58,439.48a1.59,1.59,0,1,0,1.57,1.6A1.61,1.61,0,0,0,556.58,439.48Z" style="fill:#1e5b5b"/><path d="M563.82,435.84a1.3,1.3,0,0,0-1.94,1.43,1.29,1.29,0,0,0,1.23,1h.11l.31,0a1.2,1.2,0,0,0,.53-.29,1.27,1.27,0,0,0,.37-.82s0-.08,0-.12A1.32,1.32,0,0,0,563.82,435.84Z" style="fill:#1e5b5b"/><path d="M563.23,443.46a1.3,1.3,0,1,0,1.27,1.33A1.3,1.3,0,0,0,563.23,443.46Z" style="fill:#1e5b5b"/><path d="M570,439.89c-1.51,0-1.59,2.35-.07,2.35A1.18,1.18,0,0,0,570,439.89Z" style="fill:#1e5b5b"/><path d="M574.16,439.48a1.59,1.59,0,1,0,1.57,1.6A1.6,1.6,0,0,0,574.16,439.48Z" style="fill:#1e5b5b"/><path d="M581.4,435.84a1.3,1.3,0,0,0-1.94,1.43,1.29,1.29,0,0,0,1.23,1h.11l.31,0a1.2,1.2,0,0,0,.53-.29,1.27,1.27,0,0,0,.37-.82s0-.08,0-.12A1.32,1.32,0,0,0,581.4,435.84Z" style="fill:#1e5b5b"/><path d="M580.81,443.46a1.3,1.3,0,1,0,1.27,1.33A1.32,1.32,0,0,0,580.81,443.46Z" style="fill:#1e5b5b"/><path d="M587.53,439.89c-1.51,0-1.59,2.35-.07,2.35S589.05,439.89,587.53,439.89Z" style="fill:#1e5b5b"/><path d="M591.74,439.48a1.59,1.59,0,1,0,1.57,1.6A1.59,1.59,0,0,0,591.74,439.48Z" style="fill:#1e5b5b"/><path d="M599,435.84a1.33,1.33,0,0,0-1.58.17,1.3,1.3,0,0,0,.87,2.24h.1l.32,0a1.17,1.17,0,0,0,.52-.29,1.22,1.22,0,0,0,.37-.82.5.5,0,0,0,0-.12A1.32,1.32,0,0,0,599,435.84Z" style="fill:#1e5b5b"/><path d="M598.39,443.46a1.3,1.3,0,1,0,1.27,1.33A1.31,1.31,0,0,0,598.39,443.46Z" style="fill:#1e5b5b"/><path d="M605.11,439.89a1.18,1.18,0,0,0-.07,2.35C606.55,442.24,606.62,439.89,605.11,439.89Z" style="fill:#1e5b5b"/><path d="M609.32,439.48a1.59,1.59,0,1,0,1.57,1.6A1.61,1.61,0,0,0,609.32,439.48Z" style="fill:#1e5b5b"/><path d="M616.56,435.84a1.31,1.31,0,0,0-1.95,1.43,1.3,1.3,0,0,0,1.23,1H616l.32,0a1.17,1.17,0,0,0,.52-.29,1.22,1.22,0,0,0,.37-.82.49.49,0,0,0,0-.12A1.31,1.31,0,0,0,616.56,435.84Z" style="fill:#1e5b5b"/><path d="M616,443.46a1.3,1.3,0,1,0,1.27,1.33A1.3,1.3,0,0,0,616,443.46Z" style="fill:#1e5b5b"/><path d="M622.69,439.89a1.18,1.18,0,0,0-.07,2.35C624.13,442.24,624.2,439.89,622.69,439.89Z" style="fill:#1e5b5b"/><path d="M626.89,439.48a1.59,1.59,0,1,0,1.58,1.6A1.61,1.61,0,0,0,626.89,439.48Z" style="fill:#1e5b5b"/><path d="M634.13,435.84a1.3,1.3,0,0,0-1.94,1.43,1.29,1.29,0,0,0,1.23,1h.11l.31,0a1.2,1.2,0,0,0,.53-.29,1.27,1.27,0,0,0,.37-.82s0-.08,0-.12A1.29,1.29,0,0,0,634.13,435.84Z" style="fill:#1e5b5b"/><path d="M633.54,443.46a1.3,1.3,0,1,0,1.27,1.33A1.3,1.3,0,0,0,633.54,443.46Z" style="fill:#1e5b5b"/><path d="M640.26,439.89c-1.51,0-1.58,2.35-.07,2.35A1.18,1.18,0,0,0,640.26,439.89Z" style="fill:#1e5b5b"/><path d="M644.47,439.48a1.59,1.59,0,1,0,1.58,1.6A1.61,1.61,0,0,0,644.47,439.48Z" style="fill:#1e5b5b"/><path d="M651.71,435.84a1.3,1.3,0,0,0-1.94,1.43,1.29,1.29,0,0,0,1.23,1h.11l.31,0a1.2,1.2,0,0,0,.53-.29,1.27,1.27,0,0,0,.37-.82s0-.08,0-.12A1.32,1.32,0,0,0,651.71,435.84Z" style="fill:#1e5b5b"/><path d="M651.12,443.46a1.3,1.3,0,1,0,1.27,1.33A1.3,1.3,0,0,0,651.12,443.46Z" style="fill:#1e5b5b"/><path d="M657.84,439.89c-1.51,0-1.58,2.35-.07,2.35A1.18,1.18,0,0,0,657.84,439.89Z" style="fill:#1e5b5b"/><path d="M662.05,439.48a1.59,1.59,0,1,0,1.57,1.6A1.61,1.61,0,0,0,662.05,439.48Z" style="fill:#1e5b5b"/><path d="M669.29,435.84a1.3,1.3,0,0,0-1.94,1.43,1.29,1.29,0,0,0,1.23,1h.11l.31,0a1.2,1.2,0,0,0,.53-.29,1.27,1.27,0,0,0,.37-.82s0-.08,0-.12A1.32,1.32,0,0,0,669.29,435.84Z" style="fill:#1e5b5b"/><path d="M668.7,443.46a1.3,1.3,0,1,0,1.27,1.33A1.32,1.32,0,0,0,668.7,443.46Z" style="fill:#1e5b5b"/><path d="M675.42,439.89c-1.51,0-1.59,2.35-.07,2.35S676.94,439.89,675.42,439.89Z" style="fill:#1e5b5b"/><path d="M679.63,439.48a1.59,1.59,0,1,0,1.57,1.6A1.59,1.59,0,0,0,679.63,439.48Z" style="fill:#1e5b5b"/><path d="M686.87,435.84a1.33,1.33,0,0,0-1.58.17,1.3,1.3,0,0,0,.87,2.24h.1l.32,0a1.17,1.17,0,0,0,.89-1.11.5.5,0,0,0,0-.12A1.32,1.32,0,0,0,686.87,435.84Z" style="fill:#1e5b5b"/><path d="M686.28,443.46a1.3,1.3,0,1,0,1.27,1.33A1.31,1.31,0,0,0,686.28,443.46Z" style="fill:#1e5b5b"/><path d="M693,439.89a1.18,1.18,0,0,0-.07,2.35C694.44,442.24,694.51,439.89,693,439.89Z" style="fill:#1e5b5b"/></g></g></svg>