<svg xmlns="http://www.w3.org/2000/svg" viewBox="0 0 800 800"><title>play</title><g id="Background"><rect width="800" height="800" style="fill:#f8f8ff"/></g><g id="Object"><path d="M644.32,520.86V533h23.37V520.24A66,66,0,0,1,644.32,520.86Z" style="fill:none"/><path d="M667.69,520.24l1.45-.31h-1.45Z" style="fill:none"/><path d="M674.33,519.93h-5.19l-1.45.31V533H624.33v-9.3H561v7.56h56.71v9.3h56.59V527.49h44v-7.56Z" style="fill:#876341"/><path d="M667.69,520.24v-.31h1.45a58.73,58.73,0,0,0,29-15.78s2.73-28.37-10.94-50.8c0,0-10.37,5.13-42.87,2.59v64.92A66,66,0,0,0,667.69,520.24Z" style="fill:#eb6e24"/><path d="M684.8,449.06s-9-37.87-40.48-69.37v71.89S670.25,455.36,684.8,449.06Z" style="fill:#13344b"/><path d="M644.32,520.86v-164a1.81,1.81,0,0,0-.52-1.27,1.8,1.8,0,0,0-3.07,1.27V533h3.59Z" style="fill:#af8c6b"/><polygon points="611.34 372.96 640.73 383.6 640.73 358.2 611.34 372.96" style="fill:#d23136"/><path d="M632.31,397.85a1.8,1.8,0,0,0-3.6,0V533h3.6Z" style="fill:#af8c6b"/><path d="M559.25,494.73s28.8,24.24,65.25,26c1.39.08,2.8.11,4.21.11v-93.6Z" style="fill:#13344b"/><polygon points="596.54 412.64 628.71 422.88 628.71 399.05 596.54 412.64" style="fill:#eb6e24"/><path d="M674.33,533v7.56H617.74v-9.3H564.16v30.47s-.92,6.44,5.72,6.44h94.68s47.71,1.15,50.42-40.69H674.33Z" style="fill:#af8c6b"/><path d="M644.32,520.86V533h23.37V520.24A66,66,0,0,1,644.32,520.86Z" style="fill:none"/><path d="M667.69,520.24l1.45-.31h-1.45Z" style="fill:none"/><path d="M709.47,519.93a32.59,32.59,0,0,1,.48,7.56h8.34v-7.56Z" style="fill:#b58356"/><path d="M687.19,453.35a28.57,28.57,0,0,1-6.68,1.83q.88,2,1.77,4c6.72,15.35,9.74,33.46,9.09,50.8a57.75,57.75,0,0,0,6.76-5.79S700.86,475.78,687.19,453.35Z" style="fill:#f37428"/><path d="M644.32,379.69v8.17c7.32,2.61,12.31,11.22,15,18.28,5.94,15.27,12.6,29.83,19.37,44.89a36.9,36.9,0,0,0,6.15-2S675.83,411.19,644.32,379.69Z" style="fill:#1f5479"/><path d="M643.8,355.55a1.77,1.77,0,0,0-.53-.36L643,533h1.37V356.82A1.81,1.81,0,0,0,643.8,355.55Z" style="fill:#dcb086"/><polygon points="640.73 358.2 635.45 360.85 634.84 381.46 640.73 383.6 640.73 358.2" style="fill:#ee393d"/><path d="M632.31,397.85a1.78,1.78,0,0,0-1.8-1.79l-.22,0L630.6,533h1.71Z" style="fill:#dcb086"/><path d="M623.8,432l.47,88.71h.23c1.39.08,2.8.11,4.21.11v-93.6Z" style="fill:#1f5479"/><polygon points="628.71 399.05 623.64 401.19 623.75 421.3 628.71 422.88 628.71 399.05" style="fill:#f37428"/><path d="M710,527.49c-1,18.75-18.64,32.34-37.67,35.65-36.58,5.49-72.32,4.27-108,1,.4,1.84,1.68,4.07,5.59,4.07h94.68s47.71,1.15,50.42-40.69Z" style="fill:#dcb086"/><polygon points="258.16 489.08 258.16 489.23 303.06 494.05 258.16 489.08" style="fill:none"/><polygon points="394.41 583.83 417.49 573.61 417.49 550.07 394.41 559.71 394.41 583.83" style="fill:#a5a837"/><polygon points="395.1 546.5 395.1 557.48 416.07 549.84 416.08 549.84 417.49 524.81 395.1 531.21 395.1 546.5" style="fill:#5a4576"/><path d="M395.1,531.21l-45.18-5.33L303,520.36l-1.22-.14-.25,11.35-.19,8.54-.12,5.67,7.62,1L354,552.35l.68-.1a22.35,22.35,0,0,1,3.18-.22,23.49,23.49,0,0,1,9.5,2l22.58,2.82,5.19.64V531.21Z" style="fill:#8464ab"/><path d="M391.36,559.29,372,556.73a23.75,23.75,0,0,1,8.66,25.39l9.29,1.16,4.46.55V559.71Z" style="fill:#d7d924"/><path d="M395.1,557.48l-5.19-.64L367.33,554a23,23,0,0,1,4.67,2.71l19.36,2.56,3.05.42,23.08-9.64-1.42-.23Z" style="fill:#e7e87c"/><path d="M393.6,524.81c0-.39-.93-.73-2.43-1v2C392.67,525.55,393.6,525.2,393.6,524.81Z" style="fill:#40286d"/><path d="M385.79,486.3c3,0,5.38-.42,5.38-.93s-2.41-.92-5.38-.92-5.38.41-5.38.92S382.82,486.3,385.79,486.3Z" style="fill:#e7e87c"/><path d="M373.43,593.57A23.61,23.61,0,0,0,390,583.28l-9.29-1.16A23.59,23.59,0,0,1,373.43,593.57Z" style="fill:#785725"/><path d="M380.41,525.79a36.06,36.06,0,0,0,5.38.37,33.74,33.74,0,0,0,5.38-.37V485.37c0,.51-2.41.93-5.38.93s-5.38-.42-5.38-.93v40.42Z" style="fill:#d7d924"/><path d="M378,524.81c0,.39.94.74,2.44,1v-2C378.91,524.08,378,524.42,378,524.81Z" style="fill:#40286d"/><path d="M380.66,582.12A23.75,23.75,0,0,0,372,556.73a23,23,0,0,0-4.67-2.71,23.49,23.49,0,0,0-9.5-2,22.35,22.35,0,0,0-3.18.22l-.68.1a22.51,22.51,0,0,0-4.84,1.34,23.69,23.69,0,0,0-15,22c0,.2,0,.39,0,.59a23.7,23.7,0,0,0,46.52,5.8Zm-13,11.53a20.78,20.78,0,0,1-32.81-16.95c0-.1,0-.2,0-.3a20.77,20.77,0,0,1,16.05-19.94,20.48,20.48,0,0,1,4.73-.55,20.79,20.79,0,0,1,20.78,20.79,20.19,20.19,0,0,1-.56,4.82A20.74,20.74,0,0,1,367.62,593.65Z" style="fill:#d2b78d"/><polygon points="349.92 525.88 370.26 518.84 370.27 518.84 372.3 518.14 373 493.67 349.92 499.09 349.92 525.88" style="fill:#cc952b"/><polygon points="349.11 499 349.12 499 368 492.8 368.01 492.8 370.26 492.07 371.38 467.46 350.05 471.7 349.11 499" style="fill:#5483ae"/><path d="M349.92,525.88l45.18,5.33,22.39-6.4-26.32-3.32v2.34c1.5.25,2.43.59,2.43,1s-.93.74-2.43,1a33.74,33.74,0,0,1-5.38.37,36.06,36.06,0,0,1-5.38-.37c-1.5-.24-2.44-.59-2.44-1s.94-.73,2.44-1v-3.71l-10.14-1.28h0Z" style="fill:#b5a2cd"/><path d="M351.14,578.44a10.54,10.54,0,0,1-1-4,6.2,6.2,0,0,0-.82,3.09q0,.33,0,.66a6.2,6.2,0,0,0,11.57,2.38S353.85,583.8,351.14,578.44Z" style="fill:#d2b78d"/><path d="M355.51,571.34a6.2,6.2,0,0,0-5.38,3.12,10.54,10.54,0,0,0,1,4c2.71,5.36,9.77,2.15,9.77,2.15a4.42,4.42,0,0,0,.41-.88,6,6,0,0,0,.39-2.16A6.2,6.2,0,0,0,355.51,571.34Z" style="fill:#fdb714"/><polygon points="371.38 467.46 281.95 459 258.16 463.07 350.05 471.7 371.38 467.46" style="fill:#bbd7f0"/><polygon points="349.12 499 349.11 499 303.06 494.06 303.06 520.22 303.04 520.36 349.92 525.88 349.92 499.09 373 493.67 368.01 492.8 368 492.8 349.12 499" style="fill:#fdb714"/><path d="M376.38,576.7a20.79,20.79,0,0,0-20.78-20.79,20.48,20.48,0,0,0-4.73.55,20.77,20.77,0,0,0-16.05,19.94c0,.1,0,.2,0,.3a20.79,20.79,0,0,0,41,4.82A20.19,20.19,0,0,0,376.38,576.7Zm-15.47,3.89a6.2,6.2,0,0,1-11.57-2.38q0-.33,0-.66a6.2,6.2,0,1,1,12.4,0,6,6,0,0,1-.39,2.16A4.42,4.42,0,0,1,360.91,580.59Z" style="fill:#b58641"/><polygon points="303.06 494.05 303.06 494.06 349.11 499 350.05 471.7 258.16 463.07 256.7 489.08 258.16 489.23 258.16 489.08 303.06 494.05" style="fill:#8ebde5"/><path d="M349.13,553.69l-39.07-5.2L298.57,547h0l-9.46-1.27a23.67,23.67,0,0,1,9.95,26.24l10.86,1.36,24.23,3c0-.2,0-.39,0-.59A23.69,23.69,0,0,1,349.13,553.69Z" style="fill:#d7d924"/><path d="M290.55,584.48a23.58,23.58,0,0,0,19.36-11.18l-10.86-1.36A23.68,23.68,0,0,1,290.55,584.48Z" style="fill:#785725"/><path d="M301.26,545.78,298.57,547l11.49,1.52,39.07,5.2a22.51,22.51,0,0,1,4.84-1.34l-45.09-5.62Z" style="fill:#e7e87c"/><polygon points="301.38 540.11 301.57 531.57 301.82 520.22 303.04 520.36 303.06 520.22 299.86 519.81 299.31 531.2 298.95 538.92 298.56 546.97 298.57 546.97 301.26 545.78 301.38 540.11" style="fill:#5483ae"/><path d="M299.05,571.94a23.69,23.69,0,0,0-22.84-30c-.25,0-.52,0-.78,0A23.46,23.46,0,0,0,269,543,23.7,23.7,0,0,0,252.5,565.6c0,.11,0,.23,0,.35a23.7,23.7,0,0,0,46.54,6Zm-13.83,12.11A20.57,20.57,0,0,1,274,587.36a20.79,20.79,0,0,1-20.79-20.79c0-.13,0-.28,0-.41A20.76,20.76,0,0,1,271.29,546a18.22,18.22,0,0,1,2.69-.19,20.79,20.79,0,0,1,11.24,38.27Z" style="fill:#d2b78d"/><path d="M273.89,561.21a6.2,6.2,0,0,0-5.38,3.1,10.61,10.61,0,0,0,1,4c2.71,5.42,9.81,2.2,9.81,2.2a5.94,5.94,0,0,0,.43-.92,6.22,6.22,0,0,0-5.83-8.33Z" style="fill:#fdb714"/><path d="M269.48,568.26a10.61,10.61,0,0,1-1-4,6.14,6.14,0,0,0-.83,3.1q0,.33,0,.63a6.21,6.21,0,0,0,11.58,2.42S272.19,573.68,269.48,568.26Z" style="fill:#d2b78d"/><path d="M294.75,566.57A20.78,20.78,0,0,0,274,545.78a18.22,18.22,0,0,0-2.69.19,20.76,20.76,0,0,0-18.09,20.19c0,.13,0,.28,0,.41A20.79,20.79,0,0,0,274,587.36a20.57,20.57,0,0,0,11.24-3.31,20.75,20.75,0,0,0,9.53-17.48Zm-15.46,3.89A6.21,6.21,0,0,1,267.71,568q0-.3,0-.63a6.14,6.14,0,0,1,.83-3.1,6.21,6.21,0,0,1,11.21,5.23A5.94,5.94,0,0,1,279.29,570.46Z" style="fill:#b58641"/><polygon points="299.86 519.8 299.86 519.81 303.06 520.22 303.06 494.06 303.06 494.05 258.16 489.23 258.16 514.37 258.16 514.38 299.86 519.8" style="fill:#3e6db5"/><path d="M253.58,541,269,543a23.46,23.46,0,0,1,6.47-1.11c.26,0,.53,0,.78,0a23.67,23.67,0,0,1,12.89,3.8l9.46,1.27.39-8.05.36-7.72.55-11.39h0l-41.7-5.42h0l-2.08-.27-1.55,16.59-.51,5.49Z" style="fill:#8ebde5"/><polygon points="253.58 553.7 253.58 548.71 243.08 550.56 253.58 553.7" style="fill:#e7e87c"/><polygon points="232.58 540.52 232.58 552.42 243.08 550.56 253.58 548.71 253.58 540.99 254.02 536.18 232.58 540.52" style="fill:#30558c"/><path d="M253.48,533.28c0-.3-.36-.59-1-.84v1.67C253.12,533.87,253.48,533.58,253.48,533.28Z" style="fill:#a8ab37"/><path d="M240.64,534.28a21,21,0,0,0,5.69.66,19,19,0,0,0,6.17-.83v-9.62a5.93,5.93,0,1,0-11.86,0v9.79Z" style="fill:#d7d924"/><path d="M269,543l-15.38-2V553.7l-10.5-3.14-10.5,1.86v7.29L252.51,566c0-.12,0-.24,0-.35A23.7,23.7,0,0,1,269,543Z" style="fill:#d7d924"/><path d="M239.17,533.28c0,.38.55.72,1.47,1v-2C239.72,532.56,239.17,532.9,239.17,533.28Z" style="fill:#a8ab37"/><path d="M210.14,539.06a23.4,23.4,0,0,1,5.89,2.35l16.55-.89L254,536.18l.51-5.49-2-.08v1.83c.62.25,1,.54,1,.84s-.36.59-1,.83a19,19,0,0,1-6.17.83,21,21,0,0,1-5.69-.66c-.92-.28-1.47-.62-1.47-1s.55-.72,1.47-1v-2.09L219,529.41v9Z" style="fill:#648ac4"/><path d="M232.58,540.52l-16.55.89a23.67,23.67,0,0,1,12.1,20.66,22.06,22.06,0,0,1-.15,2.58l4.6-.31V540.52Z" style="fill:#3e6db5"/><path d="M216,541.41a23.4,23.4,0,0,0-5.89-2.35c-.54-.13-1.1-.24-1.67-.33a22.48,22.48,0,0,0-4-.36,23.64,23.64,0,0,0-9.24,1.87h0a23.19,23.19,0,0,0-4.51,2.53A23.7,23.7,0,1,0,228,564.65a22.06,22.06,0,0,0,.15-2.58A23.67,23.67,0,0,0,216,541.41Zm-9.37,42.42a20.79,20.79,0,1,1,0-41.58,21,21,0,0,1,4.44.48A20.8,20.8,0,0,1,227.44,563c0,.56,0,1.1-.07,1.65A20.77,20.77,0,0,1,206.66,583.83Z" style="fill:#d2b78d"/><path d="M169.73,478.23v64l25.45-2h0a23.64,23.64,0,0,1,9.24-1.87,22.48,22.48,0,0,1,4,.36c.57.09,1.13.2,1.67.33l8.81-.69V476.2l-49.22,1.93Zm24.61,13.56a8,8,0,1,1-8,8A8,8,0,0,1,194.34,491.79Z" style="fill:#fdb714"/><path d="M211.1,542.73a21,21,0,0,0-4.44-.48,20.79,20.79,0,1,0,20.71,22.44c0-.55.07-1.09.07-1.65A20.8,20.8,0,0,0,211.1,542.73Zm-3.95,27.34a2.82,2.82,0,0,1-.41,0,6.21,6.21,0,0,1-5.41-3.15c-.09-.17-.17-.34-.25-.52a6.11,6.11,0,0,1-.55-2.53,6.2,6.2,0,0,1,11.58-3.1,6,6,0,0,1,.34.67,6.18,6.18,0,0,1,.5,2.43,6.11,6.11,0,0,1-.26,1.77A6.19,6.19,0,0,1,207.15,570.07Z" style="fill:#b58641"/><path d="M212.45,561.46a6,6,0,0,0-.34-.67,11.73,11.73,0,0,1-.49,2.71,17.41,17.41,0,0,1-1.21,2.3,1.56,1.56,0,0,1-.16.28l0,0c-3.11,3.46-8.9.84-8.9.84a6.21,6.21,0,0,0,5.41,3.15,2.82,2.82,0,0,0,.41,0,6.19,6.19,0,0,0,5.54-4.41,6.11,6.11,0,0,0,.26-1.77A6.18,6.18,0,0,0,212.45,561.46Z" style="fill:#d2b78d"/><path d="M210.23,566.1l0,0a1.56,1.56,0,0,0,.16-.28,17.41,17.41,0,0,0,1.21-2.3,11.73,11.73,0,0,0,.49-2.71,6.2,6.2,0,0,0-11.58,3.1,6.11,6.11,0,0,0,.55,2.53c.08.18.16.35.25.52C201.33,566.94,207.12,569.56,210.23,566.1Z" style="fill:#fdb714"/><path d="M194.34,507.8a8,8,0,1,0-8-8A8,8,0,0,0,194.34,507.8Z" style="fill:#b5812c"/><path d="M180.71,562.07a23.62,23.62,0,0,1,10-19.29L168.42,544l-40.79,2.2a23.69,23.69,0,0,1,15.49,22.23c0,.63,0,1.24-.08,1.85l28.43-1.88,9.92-.66A23.73,23.73,0,0,1,180.71,562.07Z" style="fill:#3e6db5"/><path d="M171.47,568.37A23.64,23.64,0,0,0,186,577a23.68,23.68,0,0,1-4.62-9.29Z" style="fill:#785725"/><path d="M169.26,542.28,140,543.44l-18.72.75-10.74.43-28.61,1.15-2.83.11,2,1.46,1.66,1.24,26.17-1.41a23.56,23.56,0,0,1,10.54-2.47,22.06,22.06,0,0,1,2.31.11,23.33,23.33,0,0,1,5.91,1.36l40.79-2.2,22.25-1.19a23.19,23.19,0,0,1,4.51-2.53l-25.45,2Z" style="fill:#648ac4"/><path d="M161.94,478.44l7.79-.31L219,476.2l12.53-.49s-.17-26.11-10.51-30.95l-68.27,2.13C161.5,449.38,161.94,478.44,161.94,478.44Z" style="fill:#be1e2d"/><path d="M169.73,522.08v-44l-7.79.31-5.12-2.74h0v25.22l5.68-.18C167.15,504,169,513.17,169.73,522.08Z" style="fill:#fdc643"/><path d="M152.7,446.89c-4.62-1.33-6.28,19.16-6.56,23.08l10.68,5.73,5.12,2.74S161.5,449.38,152.7,446.89Z" style="fill:#c85248"/><path d="M140,543.44l29.27-1.16.47,0V522.08c-.69-8.91-2.58-18.09-7.23-21.33l-5.68.18-12.3.39-9.81.31S140,505.78,140,543.44Z" style="fill:#d7d924"/><path d="M144.52,501.32V485.94a6.39,6.39,0,0,0-12.78,0v15.78l3-.09Z" style="fill:#b58641"/><path d="M127.63,546.17a23.33,23.33,0,0,0-5.91-1.36,22.06,22.06,0,0,0-2.31-.11,23.69,23.69,0,0,0-23.7,23.7,24.25,24.25,0,0,0,.51,4.93A23.7,23.7,0,0,0,143,570.25c.05-.61.08-1.22.08-1.85A23.69,23.69,0,0,0,127.63,546.17Zm-6,44a20.79,20.79,0,0,1,0-41.58,20.17,20.17,0,0,1,2.21.13,20.77,20.77,0,0,1,18.57,20.66c0,.31,0,.61,0,.91A20.77,20.77,0,0,1,121.65,590.16Z" style="fill:#d2b78d"/><path d="M123.86,548.71a20.17,20.17,0,0,0-2.21-.13,20.79,20.79,0,1,0,20.75,21.7c0-.3,0-.6,0-.91A20.77,20.77,0,0,0,123.86,548.71Zm-2.13,27.71a6.13,6.13,0,0,1-3.36-1,6.21,6.21,0,0,1-2.05-2.15,6.23,6.23,0,0,1-.8-3.06,6.21,6.21,0,0,1,6.21-6.21,6.27,6.27,0,0,1,5.37,3.1,6.18,6.18,0,0,1,.83,3.11,5.8,5.8,0,0,1-.09,1A6.19,6.19,0,0,1,121.73,576.42Z" style="fill:#b58641"/><path d="M127.1,567.11a10.07,10.07,0,0,1-1.13,4.26c-1.51,2.69-4.18,3-6.32,2.76a12.3,12.3,0,0,1-3.32-.87v0a6.21,6.21,0,0,0,2.05,2.15,6.2,6.2,0,0,0,9.47-4.18,5.8,5.8,0,0,0,.09-1A6.18,6.18,0,0,0,127.1,567.11Z" style="fill:#d2b78d"/><path d="M119.65,574.13c2.14.27,4.81-.07,6.32-2.76a10.07,10.07,0,0,0,1.13-4.26,6.27,6.27,0,0,0-5.37-3.1,6.21,6.21,0,0,0-6.21,6.21,6.23,6.23,0,0,0,.8,3.06v0A12.3,12.3,0,0,0,119.65,574.13Z" style="fill:#fdb714"/><path d="M110.53,544.62l10.74-.43,18.72-.75c0-37.66-5.28-41.81-5.28-41.81l-3,.09-26.23.83s4,9.44,4.87,33.4C110.47,538.65,110.53,541.54,110.53,544.62Z" style="fill:#be1e2d"/><path d="M79.09,545.88l2.83-.11,28.61-1.15c0-3.08-.06-6-.15-8.67-.82-24-4.87-33.4-4.87-33.4l-.6,0-12.74.4-18.09.57C79.75,504.65,79.09,545.88,79.09,545.88Z" style="fill:#d7d924"/><path d="M113.55,482.79c.6-8.73-8.14-10.6-15-10.6s-15.59,1.87-15,10.6c.5,7.36,9.77,12.38,8.58,20.18l12.74-.4C104.1,495,113.05,490,113.55,482.79Z" style="fill:#b58641"/><path d="M84.55,574.1a23.71,23.71,0,0,0,15.28,7.66,23.68,23.68,0,0,1-3.61-8.43Z" style="fill:#785725"/><path d="M95.71,568.4a23.71,23.71,0,0,1,13.16-21.23L82.7,548.58v25.64l1.85-.12,11.67-.77A24.25,24.25,0,0,1,95.71,568.4Z" style="fill:#3e6db5"/><polygon points="82.7 548.58 81.04 547.34 79.09 545.88 69.97 539.04 69.07 538.37 69.07 563.04 82.7 574.22 82.7 571.76 82.7 548.58" style="fill:#30558c"/><path d="M74.08,503.54C65.81,501.92,70,539,70,539l9.12,6.84S79.75,504.65,74.08,503.54Z" style="fill:#e7e87c"/><polygon points="417.49 550.07 412.18 552.29 412.06 576.02 417.49 573.61 417.49 550.07" style="fill:#ced244"/><polygon points="412.32 526.29 412.19 551.25 416.07 549.84 416.08 549.84 417.49 524.81 412.32 526.29" style="fill:#7d5fa1"/><polygon points="416.07 549.84 412.19 551.25 412.18 552.29 417.49 550.07 416.07 549.84" style="fill:#f2ee8d"/><path d="M391.17,485.37c0-.31-.89-.58-2.25-.75.08.49.17,1,.24,1.47C390.37,485.92,391.17,485.66,391.17,485.37Z" style="fill:#f2ee8d"/><path d="M389.16,486.09c1.91,13.45.14,26.43-.16,39.95.8-.06,1.54-.14,2.17-.25V485.37C391.17,485.66,390.37,485.92,389.16,486.09Z" style="fill:#ece736"/><path d="M370,494.37c.63,8.17-1.87,17-2.17,25.31l2.43-.84h0l2-.7.7-24.47Z" style="fill:#efaf2f"/><polygon points="368.96 467.95 367.53 492.95 368 492.8 368.01 492.8 370.26 492.07 371.38 467.46 368.96 467.95" style="fill:#69a4d8"/><path d="M250.76,520.29a5.82,5.82,0,0,0-2.57-1.51c1.87,4,.69,11,.62,16.05a14.33,14.33,0,0,0,3.69-.72v-9.62A5.93,5.93,0,0,0,250.76,520.29Z" style="fill:#ece736"/><path d="M239.28,533.56a.45.45,0,0,1-.11-.28c0-.38.55-.72,1.47-1v-2.09L219,529.41v3.77A69.36,69.36,0,0,0,239.28,533.56Z" style="fill:#7091ca"/><path d="M212.34,476.46c2.9,21-.87,41.51-.75,62.49l7.36-.58V476.2Z" style="fill:#fdc351"/><path d="M221,444.76l-4.45.14c5.7,8.52,6.92,19.92,7.84,31.08l7.12-.27S231.31,449.6,221,444.76Z" style="fill:#e82537"/><path d="M169.73,507.7c-.82.18-1.65.35-2.47.51a59.34,59.34,0,0,1,2.47,13.87Z" style="fill:#ffc453"/><path d="M162.5,500.75l-5.68.18-12.3.39-9.81.31s1.77,1.41,3.27,9.93a194.92,194.92,0,0,0,29.28-3.35C166.14,504.9,164.6,502.22,162.5,500.75Z" style="fill:#ece736"/><path d="M144.52,485.94a6.37,6.37,0,0,0-5.49-6.32c2.66,6,.95,14.33.6,21.86l4.89-.16Z" style="fill:#e0a550"/><path d="M138,511.56c-1.5-8.52-3.27-9.93-3.27-9.93l-3,.09-26.23.83a50.12,50.12,0,0,1,2.43,9.22C118,511.93,128,512,138,511.56Z" style="fill:#e82537"/><path d="M104.91,502.57l-12.74.4-18.09.57c1.52.29,2.59,3.48,3.33,8,10.19-.15,20.38.08,30.53.24a50.12,50.12,0,0,0-2.43-9.22Z" style="fill:#ece736"/><path d="M110.05,475a9.36,9.36,0,0,1-2.1,6.69c-4.67,7-5.7,14-5.93,21l2.89-.09c-.81-7.58,8.14-12.54,8.64-19.78A8.23,8.23,0,0,0,110.05,475Z" style="fill:#e0a550"/><path d="M424.42,227.78v-31c0,.86-2.59,1.56-5.77,1.56s-5.78-.7-5.78-1.56v31C413.18,228,419.33,231,424.42,227.78Z" style="fill:#df2727"/><path d="M386.36,223.22V193.64c0,.86-2.58,1.55-5.78,1.55s-5.79-.69-5.79-1.55v29.57S381.11,226.49,386.36,223.22Z" style="fill:#3a62ae"/><path d="M398.62,262c0,.86,2.58,1.56,5.78,1.56s5.77-.7,5.77-1.56V243.24l-11.55-1Z" style="fill:#5d9d43"/><path d="M496.51,324.85c-1-.2-2.34,2.51-3.09,6s-.59,6.59.36,6.79,2.34-2.51,3.09-6.05S497.45,325.05,496.51,324.85Z" style="fill:#986d4a"/><path d="M490,235.49a1,1,0,0,0-.73.41,11,11,0,0,1,0,9.48,1,1,0,0,0,.73.41c1,0,1.87-2.31,1.87-5.15S491,235.49,490,235.49Z" style="fill:#98241f"/><path d="M321.5,257.29v-22L306,233.91v-10.7l15.54-6.54V198.14c0-.79,2.16-1.43,5-1.53l.8-29.29L322,170s0,17.12-5.12,19.62-5.42-16.87-5.42-16.87l-8.62,3.61a1,1,0,0,1,.54.89V296.45a1,1,0,0,1-.21.61l5.88-5.21s.29-3.25.89-7.18c.77-5,2.08-11.15,4-13,3.5-3.37,3.44,13,3.44,13l6.73-5.18.58-20.8C322.83,258.44,321.5,257.91,321.5,257.29Z" style="fill:#df2727"/><path d="M410.17,226.34V202.81c0,.86-2.59,1.56-5.77,1.56s-5.78-.7-5.78-1.56v23.52S404.92,229.6,410.17,226.34Z" style="fill:#5d9d43"/><polygon points="501.29 177.69 488.88 177.69 484.38 180.32 496.04 180.32 501.29 177.69" style="fill:#cf3e37"/><path d="M348.43,284.65c8.44.9,15.48.12,16-1.73l0-.15c.21-2-6.64-4.31-15.32-5.23s-15.85-.08-16.06,1.89S339.76,283.73,348.43,284.65Z" style="fill:#ba8d69"/><path d="M325.76,222.36a15.19,15.19,0,0,1-4.26-1.31v-4.38L306,223.21l15.54,1.43,4.2.39,7.38.68,4.41.41,11.56,1.07,10.67,1,11.56,1.07,3.51.32,11.57,1.07,12.26,1.13,11.55,1.07,2.7.25,11.55,1.07,12.94,1.19,11.57,1.07,2.68.25,11.57,1.06,3.75.35V225.13l-3.75-.28v3.66c-5.1,3.19-11.25.17-11.57,0V224l-2.68-.2v7.13c-5.25,3.27-11.57,0-11.57,0v-8l-12.94-1v5.77c-5.09,3.19-11.24.17-11.55,0v-6.63l-2.7-.19v5.37c-5.25,3.26-11.55,0-11.55,0v-6.21l-12.26-.9v4c-5.25,3.27-11.57,0-11.57,0v-4.84l-3.51-.26v4.37h-.49c-4.36,2.73-9.46.92-11.07.23v-5.44l-10.67-.79v1.8c-5.25,3.27-11.56,0-11.56,0v-2.63l-4.41-.33v5.74A10.71,10.71,0,0,1,325.76,222.36Z" style="fill:#ba8d69"/><polygon points="327.3 167.32 314.88 167.32 310.38 169.95 322.04 169.95 327.3 167.32" style="fill:#cf3e37"/><path d="M370.79,222.48h.49V199.7c0,.86-2.58,1.56-5.78,1.56s-5.78-.7-5.78-1.56v23C361.33,223.4,366.43,225.21,370.79,222.48Z" style="fill:#df2727"/><path d="M489.26,235.9a10.26,10.26,0,0,0,0,9.48A11,11,0,0,0,489.26,235.9Z" style="fill:#ba8d69"/><path d="M349.05,218.28v-26.2c0,.86-2.59,1.56-5.77,1.56s-5.79-.7-5.79-1.56v26.19S343.8,221.55,349.05,218.28Z" style="fill:#5d9d43"/><path d="M327.29,199.7l-.89,0c-2.78-.12-4.9-.76-4.9-1.54v22.91a15.19,15.19,0,0,0,4.26,1.31,10.71,10.71,0,0,0,7.32-1.31V198.14C333.08,199,330.49,199.7,327.29,199.7Z" style="fill:#fbcd0b"/><path d="M476.43,186.57a.94.94,0,0,1,.45.11l8.63-3.61H474.43l-6.92,3.5,0,.08a1.06,1.06,0,0,1,.4-.08Z" style="fill:#cf3e37"/><path d="M437.36,265.07c0,.86,2.58,1.56,5.79,1.56s5.78-.7,5.78-1.56V246.71l-11.57-1Z" style="fill:#3a62ae"/><path d="M404.4,204.37c3.18,0,5.77-.7,5.77-1.56s-2.59-1.55-5.77-1.55-5.78.69-5.78,1.55S401.2,204.37,404.4,204.37Z" style="fill:#457638"/><path d="M488,282c-1.95,1.89-3.27,8-4,13.05h7.48S491.51,278.62,488,282Z" style="fill:#98241f"/><path d="M443.15,207.48c3.19,0,5.78-.69,5.78-1.55s-2.59-1.56-5.78-1.56-5.79.7-5.79,1.56S439.94,207.48,443.15,207.48Z" style="fill:#2d4e89"/><path d="M463.18,228.51V196.75c0,.86-2.59,1.56-5.78,1.56s-5.79-.7-5.79-1.56v31.77C451.93,228.68,458.08,231.7,463.18,228.51Z" style="fill:#fbcd0b"/><path d="M418.65,198.31c3.18,0,5.77-.7,5.77-1.56s-2.59-1.56-5.77-1.56-5.78.7-5.78,1.56S415.45,198.31,418.65,198.31Z" style="fill:#b12125"/><path d="M457.4,198.31c3.19,0,5.78-.7,5.78-1.56s-2.59-1.56-5.78-1.56-5.79.7-5.79,1.56S454.19,198.31,457.4,198.31Z" style="fill:#d0aa2b"/><path d="M490.93,199.94c5.11-2.5,5.11-19.62,5.11-19.62H484.38v2.75h1.13S485.79,202.44,490.93,199.94Z" style="fill:#98241f"/><path d="M361.57,299l2.9-16c-.56,1.85-7.6,2.63-16,1.73-8.67-.92-15.52-3.26-15.31-5.22l-.12,1.06L328.4,321s11.69,10.92,30.09,3.88l1.58-12.93A10.6,10.6,0,0,1,361.57,299Z" style="fill:#986d4a"/><path d="M359.72,258.85c0,.86,2.6,1.55,5.78,1.55s5.78-.69,5.78-1.55V239.76l-11.56-1Z" style="fill:#df2727"/><path d="M374.79,252.78c0,.86,2.59,1.56,5.79,1.56s5.78-.7,5.78-1.56V241.11l-11.57-1Z" style="fill:#3a62ae"/><path d="M303.41,233.91V177.2a1,1,0,0,0-.54-.89,1,1,0,0,0-.46-.11h-8.5a1,1,0,0,0-1,1V296.45a1,1,0,0,0,1,1h8.5a1,1,0,0,0,.79-.38h0a1,1,0,0,0,.21-.61Z" style="fill:#98241f"/><path d="M343.28,193.64c3.18,0,5.77-.7,5.77-1.56s-2.59-1.55-5.77-1.55-5.79.69-5.79,1.55S340.08,193.64,343.28,193.64Z" style="fill:#457638"/><path d="M314,271.63c-2,1.89-3.27,8-4,13h7.48S317.51,268.26,314,271.63Z" style="fill:#98241f"/><path d="M316.91,189.57C322,187.07,322,170,322,170H310.38v2.75h1.11S311.79,192.07,316.91,189.57Z" style="fill:#98241f"/><path d="M477.43,187.57a1,1,0,0,0-.55-.89.94.94,0,0,0-.45-.11h-8.5a1.06,1.06,0,0,0-.4.08,1,1,0,0,0-.6.92V306.82a1,1,0,0,0,.79,1l.21,0h8.5a1,1,0,0,0,.77-.38h0a1,1,0,0,0,.22-.61Z" style="fill:#98241f"/><path d="M321.5,198.14c0,.78,2.12,1.42,4.9,1.54l.89,0c3.2,0,5.79-.7,5.79-1.56s-2.59-1.55-5.79-1.55l-.8,0C323.66,196.71,321.5,197.35,321.5,198.14Z" style="fill:#d0aa2b"/><path d="M365.5,201.26c3.2,0,5.78-.7,5.78-1.56s-2.58-1.56-5.78-1.56-5.78.7-5.78,1.56S362.32,201.26,365.5,201.26Z" style="fill:#b12125"/><path d="M337.49,251.23c0,.86,2.59,1.55,5.79,1.55s5.77-.69,5.77-1.55V237.77l-11.56-1Z" style="fill:#5d9d43"/><path d="M321.5,235.3v22c0,.62,1.33,1.15,3.26,1.4a18.05,18.05,0,0,0,2.53.16c3.2,0,5.79-.7,5.79-1.56v-21l-7.67-.69Z" style="fill:#fbcd0b"/><path d="M380.58,195.19c3.2,0,5.78-.69,5.78-1.55s-2.58-1.56-5.78-1.56-5.79.7-5.79,1.56S377.38,195.19,380.58,195.19Z" style="fill:#2d4e89"/><polygon points="463.18 237.72 451.62 236.66 448.93 236.41 437.37 235.34 424.43 234.15 412.87 233.08 410.18 232.83 398.62 231.76 386.36 230.63 374.8 229.56 371.29 229.24 359.72 228.17 349.06 227.19 337.5 226.12 333.07 225.71 325.69 225.03 321.5 224.64 305.96 223.21 305.96 233.91 321.5 235.3 325.4 235.65 333.07 236.34 337.5 236.73 349.06 237.77 359.72 238.72 371.29 239.76 374.8 240.07 386.36 241.11 398.62 242.2 410.18 243.24 412.87 243.48 424.43 244.52 437.37 245.67 448.93 246.71 451.62 246.95 463.18 247.98 466.93 248.32 466.93 238.07 463.18 237.72" style="fill:#986d4a"/><path d="M302.41,176.2a1,1,0,0,1,.46.11l8.62-3.61H300.41l-6.92,3.5,0,.08a1,1,0,0,1,.38-.08Z" style="fill:#cf3e37"/><path d="M493.42,330.9c.75-3.54,2.12-6.25,3.09-6l-30.91-5.93-104-20a10.6,10.6,0,0,0-1.5,13l133.71,25.78C492.83,337.49,492.66,334.45,493.42,330.9Z" style="fill:#ba8d69"/><path d="M448.93,230.94v-25c0,.86-2.59,1.55-5.78,1.55s-5.79-.69-5.79-1.55v25S443.68,234.21,448.93,230.94Z" style="fill:#3a62ae"/><path d="M496,180.32s0,17.12-5.11,19.62-5.42-16.87-5.42-16.87l-8.63,3.61a1,1,0,0,1,.55.89V306.82a1,1,0,0,1-.22.61l5.89-5.22s.27-3.24.87-7.17c.78-5,2.1-11.16,4-13.05,3.49-3.37,3.43,13.05,3.43,13.05l6.74-5.18,3.1-112.17ZM490,245.79a1,1,0,0,1-.73-.41,10.26,10.26,0,0,1,0-9.48,1,1,0,0,1,.73-.41c1,0,1.87,2.31,1.87,5.15S491,245.79,490,245.79Z" style="fill:#df2727"/><path d="M451.61,255.9c0,.86,2.58,1.55,5.79,1.55s5.78-.69,5.78-1.55V248l-11.57-1Z" style="fill:#fbcd0b"/><path d="M412.87,255.9c0,.86,2.58,1.55,5.78,1.55s5.77-.69,5.77-1.55V244.52l-11.55-1Z" style="fill:#df2727"/><path d="M493,334.29c-.09,1.91.2,3.27.82,3.4s1.53-1.11,2.24-3.06C495,334.53,494,334.41,493,334.29Z" style="fill:#c58c60"/><path d="M496.87,331.64c.75-3.55.58-6.59-.36-6.79s-2.34,2.51-3.09,6a19.52,19.52,0,0,0-.46,3.39c1,.12,2,.24,3.06.34A20.23,20.23,0,0,0,496.87,331.64Z" style="fill:#c58c60"/><path d="M325.76,196.65l.73,0,.8-29.29-3.13,1.57C325.3,178,326.19,187.42,325.76,196.65Z" style="fill:#e85e44"/><path d="M322.53,280.76l1.65-1.27.58-20.8c-1.93-.25-3.26-.78-3.26-1.4v-22l-.45,0C319.7,250.59,319.63,265.82,322.53,280.76Z" style="fill:#e85e44"/><path d="M497.64,177.69c0,.6.05,1.19.08,1.79l3.57-1.79Z" style="fill:#ec453f"/><path d="M328.88,316.66l-.48,4.3s11.69,10.92,30.09,3.88l.46-3.75C348.72,321.31,338.6,320.46,328.88,316.66Z" style="fill:#c58c60"/><path d="M493,334.29C447.39,329.21,403,319.67,358.64,308a12.2,12.2,0,0,0,1.43,3.92l133.71,25.78C493.16,337.56,492.87,336.2,493,334.29Z" style="fill:#e4ad80"/><path d="M501.29,177.69l-3.57,1.79c1.58,37.52-4.92,74.36-1.44,111.85l1.91-1.47Z" style="fill:#e85e44"/></g></svg>