<svg xmlns="http://www.w3.org/2000/svg" xmlns:xlink="http://www.w3.org/1999/xlink" viewBox="0 0 50 50"><defs><filter id="luminosity-noclip" x="23.42" y="-8245" width="0.46" height="32766" filterUnits="userSpaceOnUse" color-interpolation-filters="sRGB"><feFlood flood-color="#fff" result="bg"/><feBlend in="SourceGraphic" in2="bg"/></filter><mask id="mask" x="23.42" y="-8245" width="0.46" height="32766" maskUnits="userSpaceOnUse"><g style="filter:url(#luminosity-noclip)"/></mask><radialGradient id="radial-gradient" cx="0.76" cy="1089.2" r="0.99" gradientTransform="translate(-579.9 -884.96) rotate(-33.59)" gradientUnits="userSpaceOnUse"><stop offset="0" stop-color="#fff"/><stop offset="0.09" stop-color="#f4f4f4"/><stop offset="0.24" stop-color="#d8d8d8"/><stop offset="0.43" stop-color="#a9a9a9"/><stop offset="0.66" stop-color="#696969"/><stop offset="0.93" stop-color="#181818"/><stop offset="1"/></radialGradient><radialGradient id="radial-gradient-2" cx="28.14" cy="20.15" r="5.17" gradientUnits="userSpaceOnUse"><stop offset="0" stop-color="#e5322f"/><stop offset="0.25" stop-color="#e1312e"/><stop offset="0.47" stop-color="#d72f2c"/><stop offset="0.69" stop-color="#c42c29"/><stop offset="0.9" stop-color="#ab2724"/><stop offset="0.93" stop-color="#a62623"/></radialGradient><radialGradient id="radial-gradient-3" cx="28.14" cy="20.15" r="5.17" gradientUnits="userSpaceOnUse"><stop offset="0" stop-color="#e5322f"/><stop offset="1" stop-color="#a62623"/></radialGradient><linearGradient id="linear-gradient" x1="26.22" y1="43.32" x2="24.1" y2="37.3" gradientUnits="userSpaceOnUse"><stop offset="0" stop-color="#f8dbc3"/><stop offset="0.3" stop-color="#eed2be"/><stop offset="0.63" stop-color="#e9cdbc"/><stop offset="1" stop-color="#daad8d"/></linearGradient><radialGradient id="radial-gradient-4" cx="25.65" cy="41.2" r="4.01" gradientUnits="userSpaceOnUse"><stop offset="0" stop-color="#f8dbc3"/><stop offset="0.3" stop-color="#eed2be"/><stop offset="0.63" stop-color="#e9cdbc"/><stop offset="0.73" stop-color="#e6c5b3"/><stop offset="0.9" stop-color="#deb19a"/><stop offset="1" stop-color="#d9a289"/></radialGradient><linearGradient id="Gold" x1="27.09" y1="42.97" x2="29.44" y2="42.97" gradientUnits="userSpaceOnUse"><stop offset="0" stop-color="#ffeaa8"/><stop offset="0.5" stop-color="#fdcb00"/><stop offset="1" stop-color="#f7ad04"/></linearGradient><linearGradient id="linear-gradient-2" x1="31.35" y1="41.51" x2="29.23" y2="35.49" xlink:href="#linear-gradient"/><radialGradient id="radial-gradient-5" cx="30.79" cy="39.68" r="3.84" xlink:href="#radial-gradient-4"/><linearGradient id="linear-gradient-3" x1="28.37" y1="42.24" x2="30.36" y2="42.24" gradientUnits="userSpaceOnUse"><stop offset="0" stop-color="#f7ad04"/><stop offset="0.5" stop-color="#fdcb00"/><stop offset="1" stop-color="#ffeaa8"/></linearGradient><radialGradient id="radial-gradient-6" cx="29.82" cy="28.74" r="8.59" gradientUnits="userSpaceOnUse"><stop offset="0" stop-color="#e5322f"/><stop offset="0.27" stop-color="#e1312e"/><stop offset="0.51" stop-color="#d72f2c"/><stop offset="0.74" stop-color="#c42c29"/><stop offset="0.97" stop-color="#ab2724"/><stop offset="1" stop-color="#a62623"/></radialGradient><radialGradient id="radial-gradient-7" cx="29.82" cy="28.75" r="8.59" xlink:href="#radial-gradient-3"/><linearGradient id="linear-gradient-4" x1="26.05" y1="26.48" x2="24.99" y2="24.31" xlink:href="#linear-gradient"/><radialGradient id="radial-gradient-8" cx="20.85" cy="27.57" r="3.07" xlink:href="#radial-gradient-6"/><radialGradient id="radial-gradient-9" cx="20.85" cy="27.57" r="3.07" xlink:href="#radial-gradient-3"/><radialGradient id="radial-gradient-10" cx="235.87" cy="230.31" r="2.47" gradientTransform="matrix(0.96, 0.26, -0.26, 0.96, -151.48, -254.29)" gradientUnits="userSpaceOnUse"><stop offset="0" stop-color="#150905"/><stop offset="1" stop-color="#573115"/></radialGradient><radialGradient id="radial-gradient-11" cx="236.26" cy="229.83" r="3.16" xlink:href="#radial-gradient-10"/><radialGradient id="radial-gradient-12" cx="236.71" cy="229.55" r="4.3" xlink:href="#radial-gradient-10"/><radialGradient id="radial-gradient-13" cx="237.17" cy="229.02" r="5.41" xlink:href="#radial-gradient-10"/><radialGradient id="radial-gradient-14" cx="236.23" cy="229.49" r="2.81" xlink:href="#radial-gradient-10"/><radialGradient id="radial-gradient-15" cx="236.69" cy="228.36" r="1.54" gradientTransform="matrix(0.96, 0.26, -0.26, 0.96, -151.48, -254.29)" xlink:href="#radial-gradient-3"/><radialGradient id="radial-gradient-16" cx="2103.16" cy="-379.02" r="2.1" gradientTransform="matrix(1, 0.07, -0.07, 1, -2105.19, 258.01)" xlink:href="#radial-gradient-10"/><radialGradient id="radial-gradient-17" cx="2103.5" cy="-379.43" r="2.69" gradientTransform="matrix(1, 0.07, -0.07, 1, -2105.19, 258.01)" xlink:href="#radial-gradient-10"/><radialGradient id="radial-gradient-18" cx="2103.88" cy="-379.67" r="3.65" gradientTransform="matrix(1, 0.07, -0.07, 1, -2105.19, 258.01)" xlink:href="#radial-gradient-10"/><radialGradient id="radial-gradient-19" cx="2104.27" cy="-380.12" r="4.6" gradientTransform="matrix(1, 0.07, -0.07, 1, -2105.19, 258.01)" xlink:href="#radial-gradient-10"/><radialGradient id="radial-gradient-20" cx="2103.47" cy="-379.72" r="2.39" gradientTransform="matrix(1, 0.07, -0.07, 1, -2105.19, 258.01)" xlink:href="#radial-gradient-10"/><radialGradient id="radial-gradient-21" cx="2103.86" cy="-380.68" r="1.31" gradientTransform="matrix(1, 0.07, -0.07, 1, -2105.19, 258.01)" xlink:href="#radial-gradient-3"/><radialGradient id="radial-gradient-22" cx="49.88" cy="1129.62" r="13" gradientTransform="translate(-598.7 -918.54) rotate(-30.92)" xlink:href="#radial-gradient-10"/><radialGradient id="radial-gradient-23" cx="49.88" cy="1129.62" r="13" gradientTransform="translate(-598.7 -918.54) rotate(-30.92)" xlink:href="#radial-gradient-10"/><radialGradient id="radial-gradient-24" cx="-285.25" cy="1116.77" r="3.62" gradientTransform="translate(-624.41 -934.58) rotate(-48.98)" xlink:href="#radial-gradient-4"/><radialGradient id="radial-gradient-25" cx="-286.61" cy="1117.39" r="3" gradientTransform="translate(-624.41 -934.58) rotate(-48.98)" xlink:href="#radial-gradient-4"/><radialGradient id="radial-gradient-26" cx="-997.34" cy="885.97" r="3.62" gradientTransform="matrix(-0.97, 0.22, 0.22, 0.97, -1155.07, -617.1)" xlink:href="#radial-gradient-4"/><radialGradient id="radial-gradient-27" cx="-998.7" cy="886.59" r="3" gradientTransform="matrix(-0.97, 0.22, 0.22, 0.97, -1155.07, -617.1)" xlink:href="#radial-gradient-4"/><radialGradient id="radial-gradient-28" cx="50.93" cy="1123.85" r="6.95" gradientTransform="translate(-598.7 -918.54) rotate(-30.92)" xlink:href="#radial-gradient-4"/><radialGradient id="radial-gradient-29" cx="-12.34" cy="1183.95" r="2.48" gradientTransform="translate(-634.72 -965.46) rotate(-34.15)" xlink:href="#radial-gradient-10"/><radialGradient id="radial-gradient-30" cx="-4287.74" cy="1092.33" r="2.48" gradientTransform="matrix(-0.82, 0.57, 0.57, 0.82, -4125.65, 1551)" xlink:href="#radial-gradient-10"/><radialGradient id="radial-gradient-31" cx="-14.96" cy="1092.03" r="4.69" gradientTransform="translate(-582.95 -890.41) rotate(-34.57)" gradientUnits="userSpaceOnUse"><stop offset="0" stop-color="#fff"/><stop offset="0.21" stop-color="#f9eeea"/><stop offset="0.64" stop-color="#eac2b3"/><stop offset="0.75" stop-color="#e6b7a5"/><stop offset="0.82" stop-color="#e4b19f"/><stop offset="0.91" stop-color="#dda08e"/><stop offset="1" stop-color="#d48775"/></radialGradient><linearGradient id="linear-gradient-5" x1="-14.79" y1="1095.33" x2="-14.48" y2="1091.47" gradientTransform="translate(-582.95 -890.41) rotate(-34.57)" gradientUnits="userSpaceOnUse"><stop offset="0" stop-color="#fff"/><stop offset="0.78" stop-color="#ebebea"/><stop offset="1" stop-color="#e4e4e3"/></linearGradient><radialGradient id="radial-gradient-32" cx="-142.04" cy="710.33" r="3.17" gradientTransform="translate(-131.62 -687.43) rotate(-23.95)" gradientUnits="userSpaceOnUse"><stop offset="0.23" stop-color="#1e274a"/><stop offset="1" stop-color="#0e5198"/></radialGradient><radialGradient id="radial-gradient-33" cx="-142.36" cy="709.88" r="2.11" gradientTransform="translate(-131.62 -687.43) rotate(-23.95)" gradientUnits="userSpaceOnUse"><stop offset="0.25" stop-color="#064c57"/><stop offset="1" stop-color="#195f39"/></radialGradient><linearGradient id="linear-gradient-6" x1="-150.06" y1="629.17" x2="-150.98" y2="629.24" gradientTransform="matrix(0.92, -0.39, 0.39, 0.92, -83.19, -619.42)" xlink:href="#linear-gradient-5"/><radialGradient id="radial-gradient-34" cx="-165.86" cy="1236.85" r="3.89" gradientTransform="matrix(0.74, -0.67, 0.67, 0.74, -687.89, -1006.54)" xlink:href="#radial-gradient-31"/><linearGradient id="linear-gradient-7" x1="-166.19" y1="1239.18" x2="-165.73" y2="1235.35" gradientTransform="matrix(0.74, -0.67, 0.67, 0.74, -687.89, -1006.54)" xlink:href="#linear-gradient-5"/><radialGradient id="radial-gradient-35" cx="-205.41" cy="728.88" r="3.17" gradientTransform="translate(-127.75 -719.87) rotate(-27.13)" xlink:href="#radial-gradient-32"/><radialGradient id="radial-gradient-36" cx="-205.73" cy="728.44" r="2.11" gradientTransform="translate(-127.75 -719.87) rotate(-27.13)" xlink:href="#radial-gradient-33"/><linearGradient id="linear-gradient-8" x1="-213.55" y1="649.54" x2="-214.46" y2="649.61" gradientTransform="translate(-75.7 -655.59) rotate(-26.28)" xlink:href="#linear-gradient-5"/><radialGradient id="radial-gradient-37" cx="-1140.43" cy="2212.44" r="1.89" gradientTransform="translate(-1792.66 -1679.64) rotate(-74.16)" xlink:href="#radial-gradient-31"/><filter id="luminosity-noclip-2" x="23.42" y="21.73" width="0.46" height="0.46" filterUnits="userSpaceOnUse" color-interpolation-filters="sRGB"><feFlood flood-color="#fff" result="bg"/><feBlend in="SourceGraphic" in2="bg"/></filter><mask id="mask-2" x="23.42" y="21.73" width="0.46" height="0.46" maskUnits="userSpaceOnUse"><g style="mask:url(#mask);filter:url(#luminosity-noclip-2)"><path d="M23.84,21.84a.22.22,0,0,1-.07.31.22.22,0,0,1-.31-.06.24.24,0,0,1,.06-.32A.23.23,0,0,1,23.84,21.84Z" style="mix-blend-mode:multiply;fill:url(#radial-gradient)"/></g></mask><radialGradient id="radial-gradient-38" cx="0.76" cy="1089.2" r="0.99" gradientTransform="translate(-579.9 -884.96) rotate(-33.59)" gradientUnits="userSpaceOnUse"><stop offset="0" stop-color="#fff"/><stop offset="1" stop-color="#fff"/></radialGradient><radialGradient id="radial-gradient-39" cx="-109.88" cy="1191.87" r="14.94" gradientTransform="translate(-642.58 -970.24) rotate(-39.29)" xlink:href="#radial-gradient-10"/><radialGradient id="radial-gradient-40" cx="50.63" cy="1127.44" r="12.86" gradientTransform="translate(-598.7 -918.54) rotate(-30.92)" xlink:href="#radial-gradient-31"/><radialGradient id="radial-gradient-41" cx="49.88" cy="1129.61" r="13" gradientTransform="translate(-598.7 -918.54) rotate(-30.92)" xlink:href="#radial-gradient-10"/><radialGradient id="radial-gradient-42" cx="51.73" cy="1119.67" r="6.04" gradientTransform="translate(-598.7 -918.54) rotate(-30.92)" xlink:href="#radial-gradient-10"/><linearGradient id="linear-gradient-9" x1="23.91" y1="22.05" x2="25.89" y2="24.37" gradientUnits="userSpaceOnUse"><stop offset="0.11" stop-color="#e65667"/><stop offset="1" stop-color="#3e140d"/></linearGradient><linearGradient id="linear-gradient-10" x1="23.85" y1="22" x2="25.96" y2="24.46" gradientTransform="matrix(1, 0, 0, 1, 0, 0)" xlink:href="#linear-gradient-5"/><linearGradient id="linear-gradient-11" x1="25.58" y1="24.37" x2="27.76" y2="26.22" gradientUnits="userSpaceOnUse"><stop offset="0.11" stop-color="#e65667"/><stop offset="1" stop-color="#ca1c19"/></linearGradient><linearGradient id="linear-gradient-12" x1="-157.46" y1="1032.42" x2="-157.33" y2="1032.84" gradientTransform="matrix(0.97, -0.58, 0.67, 1.12, -511.21, -1218.29)" gradientUnits="userSpaceOnUse"><stop offset="0.1" stop-color="#f6baaf"/><stop offset="1" stop-color="#e84c5b"/></linearGradient><linearGradient id="linear-gradient-13" x1="29.33" y1="8.72" x2="29.91" y2="21.26" xlink:href="#linear-gradient"/><radialGradient id="radial-gradient-43" cx="30.24" cy="22.27" r="0.73" xlink:href="#radial-gradient-4"/><radialGradient id="radial-gradient-44" cx="30.53" cy="11.8" r="7.46" gradientTransform="matrix(1, 0, 0, 1, 0, 0)" xlink:href="#radial-gradient-31"/><linearGradient id="linear-gradient-14" x1="31.04" y1="33.72" x2="21.9" y2="28.84" xlink:href="#linear-gradient"/><radialGradient id="radial-gradient-45" cx="25.01" cy="30.53" r="3.6" xlink:href="#radial-gradient-4"/><radialGradient id="radial-gradient-46" cx="26.34" cy="26.91" r="9.31" gradientTransform="matrix(1, 0, 0, 1, 0, 0)" xlink:href="#radial-gradient-31"/><radialGradient id="radial-gradient-47" cx="51.9" cy="107.79" r="9.31" gradientTransform="translate(-30.82 -78.14) rotate(-2.75)" xlink:href="#radial-gradient-31"/></defs><title>top</title><g style="isolation:isolate"><g id="background"><path d="M16.75,45.41a.49.49,0,0,1-.35-.12c0-.07-1.28-1.69,1-4l2.12-2.09a85.58,85.58,0,0,0,6.06-6.29.55.55,0,0,1,.48-.11c.2,0,.31.14.24.23a85.19,85.19,0,0,1-6.11,6.34c-.79.78-1.55,1.52-2.11,2.09a3.53,3.53,0,0,0-1.27,2.63,1.9,1.9,0,0,0,.32,1c.07.1,0,.21-.22.24Z" style="fill:#228665"/><path d="M29.62,22l.05-.7a2.94,2.94,0,0,1,1.57,3h-.67A2.29,2.29,0,0,1,29.62,22Z" style="fill:#751611"/><path d="M27.28,25.11a3.5,3.5,0,0,1,.38.39,7.7,7.7,0,0,0,3.58-1.22,6.2,6.2,0,0,1-1.57-3,11.23,11.23,0,0,1-3.32,3.12A5.2,5.2,0,0,1,27.28,25.11Z" style="fill:url(#radial-gradient-2)"/><path d="M27.28,25.11a3.5,3.5,0,0,1,.38.39,7.7,7.7,0,0,0,3.58-1.22,3.73,3.73,0,0,1-.85-1.08,4.16,4.16,0,0,1-1.82,1.16,4.8,4.8,0,0,1-1.64.24,1.51,1.51,0,0,1-.57-.16h0A5.2,5.2,0,0,1,27.28,25.11Z" style="opacity:0.5;mix-blend-mode:multiply;fill:url(#radial-gradient-3)"/><path d="M31.93,34.69a4.44,4.44,0,0,1,.69.35s-.14.6-1.27,1.32S29,37.89,28.67,37.48C28,36.68,31.93,34.69,31.93,34.69Z" style="fill:#295529"/><path d="M25.36,37.67l.14.74A4.73,4.73,0,0,1,21.75,38a1.7,1.7,0,0,1,.85-.46C23,37.55,25.36,37.67,25.36,37.67Z" style="fill:#295529"/><path d="M22.22,37a10.24,10.24,0,0,0-.36,2.81c.08,1.22.56,2.09,5.23,2.31a8.16,8.16,0,0,0,.71,2.46c.59,1.23,2,1.18,1.57-.88s-.8-3.28-1.27-3.17a1.33,1.33,0,0,0-.74.55A23.26,23.26,0,0,1,25,40.47c-.91-.31-1.19-.52-.7-2.49l.19-.52A4.52,4.52,0,0,0,22.22,37Z" style="fill:url(#linear-gradient)"/><path d="M23.88,38.56l.28.12c0-.2.09-.43.15-.7l.19-.52A4.52,4.52,0,0,0,22.22,37s-.14.5-.25,1.16A4.8,4.8,0,0,1,23.88,38.56Z" style="opacity:0.5;mix-blend-mode:multiply;fill:url(#radial-gradient-4)"/><path d="M29.37,43.71c-.41-2.06-.8-3.28-1.27-3.17a1.33,1.33,0,0,0-.74.55S26.69,41,26,40.76a1.45,1.45,0,0,1-.26.93,1.34,1.34,0,0,1-.32.31c.49.06,1.05.1,1.69.13a8.16,8.16,0,0,0,.71,2.46C28.39,45.82,29.77,45.77,29.37,43.71Z" style="fill:#edecec"/><path d="M29.37,43.71c-.41-2.06-.8-3.28-1.27-3.17a1.25,1.25,0,0,0-.7.49,1,1,0,0,1,.34.91.1.1,0,0,1-.09.08,1,1,0,0,0-.39,0,.34.34,0,0,0-.17.14,8.23,8.23,0,0,0,.71,2.45C28.39,45.82,29.77,45.77,29.37,43.71Z" style="fill:url(#Gold)"/><path d="M29.81,35.82c.21.19,1.76,1.94,1.71,2.24a9.92,9.92,0,0,1-1.95,2c-.13,0-1.2-.57-1.2.94s.52,3.66,1.35,3.56.68-1.69.48-3.34c0,0,2.44-1.62,2.92-2.79s-.87-2.82-1.55-3.6Z" style="fill:url(#linear-gradient-2)"/><path d="M30.5,36.59a8.16,8.16,0,0,1,1.39-1l.25-.14-.57-.69-1.76,1C29.89,35.9,30.18,36.21,30.5,36.59Z" style="opacity:0.5;mix-blend-mode:multiply;fill:url(#radial-gradient-5)"/><path d="M30.94,40.67a1.57,1.57,0,0,1-.38-.43,2.26,2.26,0,0,1-.25-.82,4.3,4.3,0,0,1-.74.62c-.13,0-1.2-.57-1.2.94s.52,3.66,1.35,3.56.68-1.69.48-3.34C30.2,41.2,30.52,41,30.94,40.67Z" style="fill:#edecec"/><path d="M29.81,41.22c-.1,0-.26.09-.35,0-.26-.26-.06-.8.08-1.18-.21,0-1.17-.48-1.17.94s.52,3.66,1.35,3.56.69-1.64.49-3.26A.62.62,0,0,0,29.81,41.22Z" style="fill:url(#linear-gradient-3)"/><path d="M23.26,34.34l-.5.38s-.43.27-.16.54c0,0-.44.12-.85,2.78A5.29,5.29,0,0,1,24,38c1.29.25,1.42.47,1.56.33s.48-2,1.23-2.12,1.6,1,1.72,1.11.19.27.75-.32a10.92,10.92,0,0,1,3.37-2,6.63,6.63,0,0,0-2.16-2,.5.5,0,0,1-.17-.35c0-.25-2.59.13-2.64.16S23.26,34.34,23.26,34.34Z" style="fill:#008b3b"/><path d="M27.84,36.3c-.38-.23-.93-.45-1.31-.09a3.51,3.51,0,0,0-.77,1.57c.2-.61.52-1.46,1-1.53.76-.09,1.6,1,1.72,1.11s.17.22.5-.07A5.44,5.44,0,0,0,27.84,36.3Z" style="fill:#008b3b;opacity:0.5;mix-blend-mode:multiply"/><path d="M21.75,38a5.12,5.12,0,0,1,1.51-.1,6.65,6.65,0,0,1,.27-.61c.34-.68.85-1.65,1.64-1.86.54-.15,1.1-.22,1.63-.38a11.45,11.45,0,0,0,1.64-.6,3.82,3.82,0,0,0,1.88-1.64.24.24,0,0,1,0-.12c0-.25-2.59.13-2.64.16s-4.39,1.45-4.39,1.45l-.5.38s-.43.27-.16.54C22.6,35.26,22.16,35.38,21.75,38Z" style="fill:#008b3b;opacity:0.5;mix-blend-mode:multiply"/><path d="M29.66,33.33a.9.9,0,0,0,.79.35,1.48,1.48,0,0,0,.66-.18,5.19,5.19,0,0,0-.65-.42.5.5,0,0,1-.17-.35c0-.09-.35-.1-.79-.07A1.13,1.13,0,0,0,29.66,33.33Z" style="fill:#5cac34"/><path d="M22.22,35.92c.64,0,1.44-.43,1.46-1a2.16,2.16,0,0,0-.08-.67l-.34.11-.5.38s-.43.27-.16.54C22.6,35.26,22.44,35.3,22.22,35.92Z" style="fill:#5cac34"/><path d="M25.11,24.49s-1.59.65-2.05,3.46a42.52,42.52,0,0,0-.3,6.77,5.58,5.58,0,0,0,4.85,0c2.25-1,2.68-2,2.68-2s-.38-6.25-3.78-8.24C26.51,24.49,25.92,23.48,25.11,24.49Z" style="fill:url(#radial-gradient-6)"/><path d="M24.2,30a12.53,12.53,0,0,1,.56-2.84A2.36,2.36,0,0,1,25.4,26a2.11,2.11,0,0,1-.39-.45,2.46,2.46,0,0,1-.34-.81A4.89,4.89,0,0,0,23.06,28a42.52,42.52,0,0,0-.3,6.77,4.6,4.6,0,0,0,1.69.5A20.09,20.09,0,0,1,24.2,30Z" style="mix-blend-mode:multiply;fill:url(#radial-gradient-7)"/><path d="M24.32,24.74s.49,2.05,1.64,1.49c1-.48-.24-2.33-.24-2.33Z" style="fill:url(#linear-gradient-4)"/><path d="M22.49,29.27l.61,1.14s-.79.87-2.27,0A1.55,1.55,0,0,1,22.49,29.27Z" style="fill:#751611"/><path d="M23.81,25.77a13.36,13.36,0,0,0-.71,4.64s-1.35-1.42-2.27,0C20.83,30.41,21.56,26.86,23.81,25.77Z" style="fill:url(#radial-gradient-8)"/><path d="M22.53,28.52a2.94,2.94,0,0,1-.47,1.07,1.7,1.7,0,0,1-.19.19,2.14,2.14,0,0,1,1.23.63,13.57,13.57,0,0,1,.7-4.6A7.93,7.93,0,0,0,22.53,28.52Z" style="mix-blend-mode:multiply;fill:url(#radial-gradient-9)"/><path d="M16.06,29.12a1.26,1.26,0,0,0,.15-.5,4.07,4.07,0,0,0,.05-.49,4.86,4.86,0,0,0-.66.15.68.68,0,0,0-.46.36.89.89,0,0,0,0,.62,1.08,1.08,0,0,0,.63.07A.5.5,0,0,0,16.06,29.12Z" style="fill:url(#radial-gradient-10)"/><path d="M16.88,28.43a1.54,1.54,0,0,0,.19-.64c0-.21.05-.41.07-.62a7.52,7.52,0,0,0-.85.19.92.92,0,0,0-.59.46,1.08,1.08,0,0,0,.05.79,1.38,1.38,0,0,0,.8.09A.63.63,0,0,0,16.88,28.43Z" style="fill:url(#radial-gradient-11)"/><path d="M17.9,27.75a2.2,2.2,0,0,0,.26-.87c0-.28.07-.56.09-.85a11.48,11.48,0,0,0-1.16.27,1.22,1.22,0,0,0-.8.62A1.5,1.5,0,0,0,16.36,28a1.8,1.8,0,0,0,1.09.11A.86.86,0,0,0,17.9,27.75Z" style="fill:url(#radial-gradient-12)"/><path d="M19,26.83a2.9,2.9,0,0,0,.34-1.09c.05-.36.08-.71.1-1.06A13.84,13.84,0,0,0,18,25a1.59,1.59,0,0,0-1,.79A1.94,1.94,0,0,0,17,27.15a2.41,2.41,0,0,0,1.38.15A1.13,1.13,0,0,0,19,26.83Z" style="fill:url(#radial-gradient-13)"/><path d="M15.05,29.05a1.11,1.11,0,0,0-1,.15,2.82,2.82,0,0,0-.74.66c-.09.05.16.06.33,0a.79.79,0,0,0-.41.53l.54-.23a1.21,1.21,0,0,0-.56.59,1.58,1.58,0,0,0,1.36-.4,2.37,2.37,0,0,1-.33.35,1.24,1.24,0,0,0,1.11-1.2Z" style="fill:url(#radial-gradient-14)"/><path d="M15.49,29.47a.16.16,0,0,1-.21,0L15,29.1a.14.14,0,0,1,0-.2h0a.13.13,0,0,1,.2,0l.29.35a.14.14,0,0,1,0,.2Z" style="fill:url(#radial-gradient-15)"/><path d="M20.47,28.74a1.11,1.11,0,0,0,.05-.44c0-.14,0-.28,0-.42-.18.08-.36.15-.53.24a.6.6,0,0,0-.33.38.74.74,0,0,0,.14.51A.91.91,0,0,0,20.3,29,.46.46,0,0,0,20.47,28.74Z" style="fill:url(#radial-gradient-16)"/><path d="M21,28a1.36,1.36,0,0,0,.06-.57c0-.17,0-.35-.05-.52a5.85,5.85,0,0,0-.68.3.75.75,0,0,0-.41.48,1,1,0,0,0,.17.65,1.14,1.14,0,0,0,.68-.06A.52.52,0,0,0,21,28Z" style="fill:url(#radial-gradient-17)"/><path d="M21.78,27.29a1.8,1.8,0,0,0,.07-.77c0-.24,0-.47-.07-.71a8.34,8.34,0,0,0-.92.41,1,1,0,0,0-.56.65,1.36,1.36,0,0,0,.23.89,1.59,1.59,0,0,0,.94-.09A.76.76,0,0,0,21.78,27.29Z" style="fill:url(#radial-gradient-18)"/><path d="M22.53,26.35a2.43,2.43,0,0,0,.09-1c0-.3-.05-.6-.08-.9a9.31,9.31,0,0,0-1.16.52,1.31,1.31,0,0,0-.71.82A1.68,1.68,0,0,0,21,26.94a2,2,0,0,0,1.18-.11A1,1,0,0,0,22.53,26.35Z" style="fill:url(#radial-gradient-19)"/><path d="M19.62,28.85a1,1,0,0,0-.79.29,2.48,2.48,0,0,0-.51.67c-.07.06.14,0,.28-.06a.68.68,0,0,0-.26.51l.41-.28a1.06,1.06,0,0,0-.37.58A1.35,1.35,0,0,0,19.45,30a3.5,3.5,0,0,1-.21.35A1.06,1.06,0,0,0,20,29.17Z" style="fill:url(#radial-gradient-20)"/><path d="M20.05,29.13a.12.12,0,0,1-.17,0l-.3-.25a.12.12,0,0,1,0-.17h0a.12.12,0,0,1,.17,0L20,29a.12.12,0,0,1,0,.17Z" style="fill:url(#radial-gradient-21)"/><path d="M17.38,11.63a7.55,7.55,0,0,0-4.74,4.73c-1.23,3.74.21,10.17,7.35,9.79S32,18.82,30.7,14.81,23,6.31,17.38,11.63Z" style="fill:url(#radial-gradient-22)"/><g style="mix-blend-mode:multiply"><path d="M29.79,15l-13.35,9.4c.47.72,1.72.73,1.72.73a4.16,4.16,0,0,0,1.29,1l.54,0A12.18,12.18,0,0,0,30.33,18.9a5.26,5.26,0,0,0-.5-2A2,2,0,0,0,29.79,15Z" style="fill:url(#radial-gradient-23)"/></g><path d="M28.14,16.13s-.83-1.39.16-1.91,2.67,1.46.86,3.11Z" style="fill:url(#radial-gradient-24)"/><path d="M28.7,15.16c-.22.35.25,1.06.57,1.1l-.2-.21a.23.23,0,0,0,.17,0,.37.37,0,0,0,.09-.45s0,.49-.46.22a.5.5,0,0,1-.08-.4c.11-.35.35-.35.49-.31A.4.4,0,0,0,28.7,15.16Z" style="mix-blend-mode:multiply;fill:url(#radial-gradient-25)"/><path d="M17.94,23.3s-.84-1.39-1.76-.76,0,3.05,2.34,2.22Z" style="fill:url(#radial-gradient-26)"/><path d="M16.82,23.33c.41,0,.81.73.7,1a2.14,2.14,0,0,0-.09-.28.19.19,0,0,1-.12.13.35.35,0,0,1-.43-.13s.44.19.41-.3a.59.59,0,0,0-.32-.27c-.36-.06-.47.15-.5.29S16.41,23.36,16.82,23.33Z" style="mix-blend-mode:multiply;fill:url(#radial-gradient-27)"/><path d="M26.51,13.62a10.66,10.66,0,0,0,.7,1.35c.54.61,1.34.85,1.83,1.48,1.76,2.25.7,5.21-.74,6.76a9.61,9.61,0,0,1-6.54,3.09A3.89,3.89,0,0,1,17.39,23a6.42,6.42,0,0,0-1.88-2.65s-1.32-1.25.23-4.5S24.12,9.85,26.51,13.62Z" style="fill:url(#radial-gradient-28)"/><path d="M18.44,20.46A1.26,1.26,0,0,1,19.57,20a.63.63,0,0,0-.88-.13A.46.46,0,0,0,18.44,20.46Z" style="fill:url(#radial-gradient-29)"/><path d="M24.84,16.31a1.29,1.29,0,0,0-.86.88.64.64,0,0,1,.2-.87A.46.46,0,0,1,24.84,16.31Z" style="fill:url(#radial-gradient-30)"/><path d="M24.45,17.16s-.58.66.17,1.85,1.32,1,1.32,1a1,1,0,0,0-.07.38,11.89,11.89,0,0,1,1.38-1.19l-.49.23a1.71,1.71,0,0,0-.43-1.66C25.59,16.88,25,16.59,24.45,17.16Z" style="mix-blend-mode:multiply;fill:url(#radial-gradient-31)"/><path d="M26.3,18c.43.77.42,1.6,0,1.85s-1.16-.17-1.6-.94-.42-1.59,0-1.85S25.86,17.25,26.3,18Z" style="fill:url(#linear-gradient-5)"/><path d="M26.08,18.23c.33.56.34,1.17,0,1.36s-.86-.1-1.19-.66-.34-1.18,0-1.37S25.75,17.67,26.08,18.23Z" style="fill:url(#radial-gradient-32)"/><path d="M25.9,18.35c.22.37.22.78,0,.91s-.57-.08-.79-.45-.23-.78,0-.9S25.68,18,25.9,18.35Z" style="mix-blend-mode:multiply;fill:url(#radial-gradient-33)"/><path d="M25.39,18.29c.11.23.08.47-.05.53s-.33-.08-.43-.31S24.83,18,25,18,25.29,18.06,25.39,18.29Z" style="fill:url(#linear-gradient-6)"/><path d="M20.06,20.35a.76.76,0,0,0-1,.3,2.16,2.16,0,0,0,1.34,2.58,1.43,1.43,0,0,0,.3.1l-.45.48A6.45,6.45,0,0,1,21.66,23l-.2-.11a1.5,1.5,0,0,0-.21-1.46A2.61,2.61,0,0,0,20.06,20.35Z" style="mix-blend-mode:multiply;fill:url(#radial-gradient-34)"/><path d="M21,21.25c.5.73.55,1.56.12,1.84s-1.17-.08-1.66-.81-.54-1.56-.12-1.85S20.48,20.51,21,21.25Z" style="fill:url(#linear-gradient-7)"/><path d="M20.86,21.37c.36.55.4,1.16.09,1.37s-.86-.06-1.23-.6-.4-1.16-.09-1.37S20.5,20.83,20.86,21.37Z" style="fill:url(#radial-gradient-35)"/><path d="M20.69,21.51c.24.35.26.76,0,.9s-.57,0-.81-.4-.27-.76-.06-.9S20.44,21.15,20.69,21.51Z" style="mix-blend-mode:multiply;fill:url(#radial-gradient-36)"/><path d="M20.18,21.47c.11.23.1.46,0,.53s-.33-.06-.45-.28-.1-.46,0-.53S20.06,21.25,20.18,21.47Z" style="fill:url(#linear-gradient-8)"/><path d="M24.45,22c-.29.77-1.14.54-1.12,0a.44.44,0,0,1,.48-.46s-.09.05-.12.06a.57.57,0,0,0-.22.19c-.2.32.13.62.45.59a.48.48,0,0,0,.29-.15A2.67,2.67,0,0,0,24.45,22Z" style="mix-blend-mode:multiply;fill:url(#radial-gradient-37)"/><g style="mask:url(#mask-2)"><path d="M23.84,21.84a.22.22,0,0,1-.07.31.22.22,0,0,1-.31-.06.24.24,0,0,1,.06-.32A.23.23,0,0,1,23.84,21.84Z" style="opacity:0.7000000000000001;mix-blend-mode:screen;fill:url(#radial-gradient-38)"/></g><path d="M15.94,12.6a8.17,8.17,0,0,0-3.33,7.9,7.63,7.63,0,0,0,2.24,4S10.29,18.75,15.94,12.6Z" style="mix-blend-mode:screen;fill:url(#radial-gradient-39)"/><path d="M18.56,19.34a2.78,2.78,0,1,0,3.81,1A2.78,2.78,0,0,0,18.56,19.34Zm2.73,4.57a2.55,2.55,0,1,1,.88-3.49A2.54,2.54,0,0,1,21.29,23.91Z" style="fill:#60260c"/><path d="M24.33,15.69a2.78,2.78,0,1,0,3.81,1A2.77,2.77,0,0,0,24.33,15.69Zm2.74,4.57a2.55,2.55,0,1,1,.87-3.5A2.56,2.56,0,0,1,27.07,20.26Z" style="fill:#60260c"/><path d="M22,20a1.63,1.63,0,0,1,1.39-.74l.07.24a2.11,2.11,0,0,0-1.28.76Z" style="fill:#60260c"/><polygon points="17.27 21.91 16.25 22.44 16.84 22.41 17.33 22.38 17.27 21.91" style="fill:#60260c"/><polygon points="26.9 15.62 27.79 14.93 27.83 15.2 27.25 15.94 26.9 15.62" style="fill:#60260c"/><g style="mix-blend-mode:multiply"><path d="M19.61,15.12A9.06,9.06,0,0,0,27.24,15l0,0a10.66,10.66,0,0,1-.7-1.35c-2.39-3.77-9.23-1.06-10.77,2.18s-.23,4.5-.23,4.5a8.73,8.73,0,0,1,1.25,1.37C17.77,20.56,20,17.75,19.61,15.12Z" style="fill:url(#radial-gradient-40)"/></g><path d="M15.67,22.16s3.77-3.46,3.73-7.38c0,0,4.31,1.61,7.91-.21a5.79,5.79,0,0,0-4.57-3.81C19,10.28,11.05,17.14,15.67,22.16Z" style="fill:url(#radial-gradient-41)"/><path d="M19.4,14.78a13.48,13.48,0,0,0-2-3.15A10.68,10.68,0,0,0,19.4,14.78Z" style="fill:url(#radial-gradient-42)"/><path d="M25.72,23.13c.53-.47,1.27-1.57,1.55-1.67s.83,1.8-1.05,3.22-3.82.59-3.79.2S24.12,24.57,25.72,23.13Z" style="fill:url(#linear-gradient-9)"/><path d="M23.45,24.64a2.8,2.8,0,0,0,1-.18,4.45,4.45,0,0,0,1.71-1.16,2.24,2.24,0,0,0,.57-1,.92.92,0,0,0,0-.41,12.43,12.43,0,0,1-1.07,1.23A6.73,6.73,0,0,1,23,24.55,1.38,1.38,0,0,0,23.45,24.64Z" style="fill:url(#linear-gradient-10)"/><path d="M26.2,24a2.26,2.26,0,0,0-1.4,1.35,4,4,0,0,0,1.42-.7,3.8,3.8,0,0,0,.78-.77A1.74,1.74,0,0,0,26.2,24Z" style="fill:url(#linear-gradient-11)"/><path d="M25.13,24.87s-.2.43.08.3S25.4,24.53,25.13,24.87Z" style="fill:url(#linear-gradient-12)"/><path d="M28.79,4.75V15.47c-.22.24-1.14,1.49-1.19,5.13a28.38,28.38,0,0,0,.29,5.95l0,.28c.18,1.15-.73,2.79-1.6,3.7l.34,0,.39.05c.91-1,1.82-2.62,1.63-3.82l0-.28a27.24,27.24,0,0,1-.29-5.91c.05-3.92,1.13-5,1.14-5a.14.14,0,0,0,.05-.09V4.75Z" style="fill:#228665"/><path d="M30.52,12.57A3.25,3.25,0,0,0,29.2,9.84c-1.44-1-2.85.37-2.17.68,0,0-.84.43-.38.89,0,0-.73.39-.08.78,0,0-.19.34.45.78s.94.17.64-.34c0,0,.61-.12.8.27s.38.6.91.43c0,0,2.65,3,1.89,5.41a7.51,7.51,0,0,1-1.56,2.72,5.63,5.63,0,0,0,.66,1.68,6.65,6.65,0,0,0,2.48-4C33.35,16.22,31.58,13.21,30.52,12.57Z" style="fill:url(#linear-gradient-13)"/><path d="M29.77,21.39l-.07.07a5.63,5.63,0,0,0,.66,1.68l.43-.36A2.3,2.3,0,0,1,29.77,21.39Z" style="opacity:0.5;mix-blend-mode:multiply;fill:url(#radial-gradient-43)"/><path d="M28,10.61a1,1,0,0,0-1.19,0c-.25.15-.42.57-.21.8l-.11.07c-.1.08-.24.22-.21.36a.53.53,0,0,0,.26.4.78.78,0,0,0,.12.56s.1,0,.08,0c-.12-.26-.21-.68.16-.79a1.75,1.75,0,0,1,.85,0s0,0,0,0a1.14,1.14,0,0,0-1.06,0,.48.48,0,0,0-.11.15c-.37-.24-.07-.57.23-.68a1.16,1.16,0,0,1,.78,0,0,0,0,1,0,0,0,.9.9,0,0,0-.9-.06v0c-.32-.32.25-.71.5-.77a1.68,1.68,0,0,1,.77.11S28,10.62,28,10.61Z" style="mix-blend-mode:multiply;fill:url(#radial-gradient-44)"/><path d="M29.24,29.54c.16-.15,0-.43,0-.43a.88.88,0,0,0-.15-.62c-.28-1-1.13-.68-1.89-.24s-.41,1.38-.68,1.71-3.76,1.68-4.07,1.49-.11-.95,0-1.52a1.07,1.07,0,0,0-1.24.07,2.36,2.36,0,0,0-.35.41h0A3.6,3.6,0,0,0,21,32.73c.22.44.59.78,2.42.26a10.32,10.32,0,0,0,3.37-1.83A.87.87,0,0,0,28,30.8c.31-.53.42-.55.42-.55a.55.55,0,0,0,.81-.71Z" style="fill:url(#linear-gradient-14)"/><path d="M22.11,30.23l.26.05c0-.12,0-.24.05-.35a1.07,1.07,0,0,0-1.24.07,2.36,2.36,0,0,0-.35.41h0c0,.11,0,.22-.07.33A1.62,1.62,0,0,1,22.11,30.23Z" style="opacity:0.5;mix-blend-mode:multiply;fill:url(#radial-gradient-45)"/><path d="M28.86,30.13a.3.3,0,0,0-.15-.07.48.48,0,0,0-.23.05.64.64,0,0,0-.33.34s0,.06.05,0a1.9,1.9,0,0,1,.25-.24.57.57,0,0,1,.4-.09S28.87,30.14,28.86,30.13Z" style="mix-blend-mode:multiply;fill:url(#radial-gradient-46)"/><path d="M29.22,29.51a.47.47,0,0,0-.06-.49c.22-.61-.65-1-1.11-.73,0,0,0,.05,0,.05a1,1,0,0,1,.65.06.61.61,0,0,1,.37.54,1,1,0,0,0-1.14-.1s0,.08,0,.06a1,1,0,0,1,.77,0,.54.54,0,0,1,.42.58.69.69,0,0,0-.2-.13c-.26-.11-.74-.1-.84.22a0,0,0,0,0,.05,0,.64.64,0,0,1,.65-.15.41.41,0,0,1,.37.55s0,.06.05,0A.45.45,0,0,0,29.22,29.51Z" style="mix-blend-mode:multiply;fill:url(#radial-gradient-47)"/></g></g></svg>