<svg xmlns="http://www.w3.org/2000/svg" viewBox="0 0 900 900"><title>workshop</title><g style="isolation:isolate"><g id="Layer_1" data-name="Layer 1"><path d="M205.33,543.74c1.11,0,2.21.07,3.3.07,13.81,0,25.36-3.56,31.31-9.72a2.21,2.21,0,1,0-3.19-3.07c-5.46,5.67-17.44,8.85-31.24,8.3-11.7-.46-22.19-3.61-25.5-7.64a2.21,2.21,0,1,0-3.42,2.81C180.78,539.58,192.06,543.21,205.33,543.74Z" style="fill:#fff"/><path d="M213.63,509.68a4.11,4.11,0,1,0-4.11,4.1A4.11,4.11,0,0,0,213.63,509.68Z" style="fill:#fff"/><path d="M213.63,525.81a4.11,4.11,0,1,0-4.11,4.1A4.1,4.1,0,0,0,213.63,525.81Z" style="fill:#fff"/><rect x="93.02" y="705.42" width="719.24" height="95.75" style="fill:#afafaf"/><rect x="93.02" y="667.04" width="719.24" height="57.66" style="fill:#939292"/><polygon points="848.03 669.88 812.3 558.45 92.21 558.45 43.91 669.88 848.03 669.88" style="fill:#afafaf"/><rect x="43.91" y="669.72" width="804.11" height="36.96" style="fill:#939292"/><g style="opacity:0.5;mix-blend-mode:multiply"><path d="M218.6,611.54c7.62-5.27,10.92-11.74-4.42-17.15-15.76-5.56-37.65,4.29-37.64,10.56,0,3.31,6.45,11,19.17,11.81C207.19,617.46,213.74,614.89,218.6,611.54Z" style="fill:#893d30"/></g><g style="opacity:0.5;mix-blend-mode:multiply"><path d="M133.34,595.32c11.48.69,18-1.87,22.88-5.23,7.63-5.27,10.92-11.73-4.42-17.15-15.75-5.55-37.65,4.29-37.63,10.56C114.17,586.82,120.61,594.55,133.34,595.32Z" style="fill:#893d30"/></g><g style="opacity:0.5;mix-blend-mode:multiply"><path d="M267.68,608.09c7.63-5.27,10.92-11.73-4.42-17.14-15.75-5.56-37.65,4.28-37.63,10.55,0,3.32,6.44,11,19.17,11.82C256.28,614,262.83,611.45,267.68,608.09Z" style="fill:#893d30"/></g><g style="opacity:0.5;mix-blend-mode:multiply"><path d="M294.06,590.33c7.62-5.27,10.91-11.74-4.42-17.15-15.76-5.56-37.65,4.29-37.64,10.56,0,3.32,6.45,11,19.17,11.81C282.65,596.25,289.2,593.69,294.06,590.33Z" style="fill:#893d30"/></g><g style="opacity:0.5;mix-blend-mode:multiply"><path d="M469.92,618c8-4.74,11.68-11-3.25-17.41-15.35-6.61-37.86,1.73-38.27,8-.22,3.31,5.68,11.45,18.33,13.08C458.13,623.09,464.84,621,469.92,618Z" style="fill:#893d30"/></g><g style="opacity:0.5;mix-blend-mode:multiply"><path d="M606.37,614.16c7-4.42,6.68-11-6.43-18.06-13.46-7.28-29.09-.11-29.51,6.15-.22,3.31,4.92,11.72,16.05,13.89C596.51,618.1,601.88,617,606.37,614.16Z" style="fill:#893d30"/></g><g style="opacity:0.5;mix-blend-mode:multiply"><path d="M529.22,609.34c7-4.61,9.18-11.71-4.22-18.45-13.78-6.92-33.6,1-33.84,7.29-.12,3.32,3.36,10.7,14.63,12.58C516,612.44,524.78,612.27,529.22,609.34Z" style="fill:#893d30"/></g><g style="opacity:0.5;mix-blend-mode:multiply"><path d="M579.47,605.06c7.11-4.41,9.51-11.44-3.7-18.56-13.57-7.3-33.62.08-34,6.33-.22,3.31,3,10.79,14.27,13C566.12,607.79,574.94,607.87,579.47,605.06Z" style="fill:#893d30"/></g><g style="opacity:0.5;mix-blend-mode:multiply"><path d="M374.79,603.62c10.78-4.55,15.73-10.69-4.89-17.52-21.18-7-51.8.78-52.21,7-.21,3.31,8.07,11.62,25.43,13.57C358.78,608.46,367.91,606.52,374.79,603.62Z" style="fill:#893d30"/></g><g style="opacity:0.5;mix-blend-mode:multiply"><path d="M810.32,612.18c5.38-4.38,7.7-9.76-3.11-14.26-11.11-4.62-37.9,2-37.89,7.16,0,2.76.84,10.9,9.81,11.54C787.23,617.19,806.9,615,810.32,612.18Z" style="fill:#893d30"/></g><path d="M295.49,581.6c7.23-9.49,10.36-21.13-4.2-30.88-15-10-35.74,7.73-35.73,19,0,6,6.12,19.89,18.2,21.28C284.66,592.27,290.87,587.65,295.49,581.6Z" style="fill:#f93d38"/><path d="M291.14,578.9c5.55-6.86,9.19-14.33,2.79-17.75-6.58-3.51-20.94,10.51-22.79,17.25-1,3.57,3.12,9.1,6.5,9.71C282.5,589,287.61,583.27,291.14,578.9Z" style="fill:#ed1c24"/><path d="M785.89,609.78c9.27-.4,18.67,4,26.5-3.55,4-3.85-.68-19.3-3.4-22.62s-6.52-4.36-10.55-4.61c-8-.5-20,1.78-24.19,9.45-2.07,3.79-4.2,16.48-1.88,19.95C775.12,612.51,781.49,610,785.89,609.78Z" style="fill:#ed1c24"/><path d="M790.1,593.37c7.57-.9,12,.44,17-3.23,2.54-1.87-.25-8.07-3.15-9.2a22.83,22.83,0,0,0-9.63-1c-6.67.42-16.17,2.29-18.09,5.73-1,1.7-.18,7,2.43,8.24C781.75,595.32,786.51,593.79,790.1,593.37Z" style="fill:#f93d38"/><path d="M183.63,603.86c10.1,8.91,12.47,8.55,16.77,8.41,0,0,18.73-1.51,21.34-11,2.23-8.1-4.21-25.94-12.3-29.42-3.17-1.36-6.7-.46-9.9.31-5,1.21-10.41,1.44-15.24,2.79-7,2-7.21,7.12-6.63,13.54C178.34,595.84,178.13,599,183.63,603.86Z" style="fill:#ed1c24"/><path d="M217.25,600.87c1.26-2.72,1.3-5.85.92-9-.74-6.2-4.41-13-8.63-14.72-2.09-.84-7.42-2-8.81.5-1.65,2.91.37,7.3,1,10.64,1.34,7,.35,13.07,5,17.6C209.06,608.21,216,603.61,217.25,600.87Z" style="fill:#f93d38"/><path d="M238.82,607.45c6.14,3.16,20.61,3.79,24.29.37,7-6.45,5.11-30.92-10.25-35.5-15-4.46-20.2,4.35-21.59,14.77C230.38,593.73,230,602.92,238.82,607.45Z" style="fill:#fbd40f"/><path d="M248.2,602c3-5.13,2.82-23-3.38-25.57-6-2.46-8.4,4.32-9.22,12.07-.52,4.94-.89,11.73,2.63,14.58C240.68,605.1,246.61,604.76,248.2,602Z" style="fill:#f9ed32"/><path d="M133.59,591c10.9,1.25,17.12-3.37,21.73-9.42,7.24-9.49,10.37-21.13-4.19-30.88-15-10-35.75,7.73-35.74,19C115.4,575.71,121.51,589.63,133.59,591Z" style="fill:#1591bc"/><path d="M137.47,588.11c4.86.87,10-4.84,13.51-9.21,5.54-6.86,9.18-14.33,2.78-17.75-6.57-3.51-20.93,10.51-22.79,17.25C130,582,134.1,587.5,137.47,588.11Z" style="fill:#19b6e0"/><path d="M324.69,440.45s-21.24,65.94-17.89,117.36l43.59-6.7c-5.71-41.36,11.18-90.54,11.18-90.54Z" style="fill:#ff8a54"/><path d="M596.3,554.46C597.42,506.39,576.18,446,576.18,446l-35.77,23s14.1,46.48,13.42,82.1Z" style="fill:#ff8a54"/><polygon points="515.67 269.69 393.56 263.63 386.96 396.85 487.79 433.12 515.67 269.69" style="fill:#612100"/><path d="M505.31,472.39l18.08-160.08-17.09,4.28a582.88,582.88,0,0,1-16.15,61.79c-9.37,28.55-27.26,33.89-21.26,58.5C477.7,473,505.31,472.39,505.31,472.39Z" style="fill:#853304"/><path d="M446.06,372.46c11.19.55,39.62-11.29,52.17-30.2,13.07-19.66,16.16-46.61,17.44-72.57,2.53-50.94-24.92-79.92-60.47-81.69S389.48,212.37,387,263.31c-1.4,28.18.49,52.74,13.37,74.1C410.71,354.65,433.32,371.83,446.06,372.46Z" style="fill:#ffa969"/><path d="M438,221.12l3.94-30s-17.67-7.47-34.27-.14c-44.4,19.63-51.19,62.64-52.29,93.75-2.32,66.15,26.75,98.18,30.36,132.81,3,28.89-16.82,50.51-16.82,50.51s25.4,1.62,39.06-26.94c13.94-29.15-11-74.54-12.48-117.93-.61-17.94-6.5-48.19,7.76-71.42C416,231,438,221.12,438,221.12Z" style="fill:#893333"/><path d="M479.71,300.15c14.49-.34,18.77-5.2,19-10.5a17.9,17.9,0,0,0-1.92-7.36c-2.48-4-10.21-7.09-18.63-6.8-8,.28-13.72,2.49-16.32,6.7-2.31,3.76-2,9.35-1.06,13C462,300,469.46,300.39,479.71,300.15Z" style="fill:#ff8a54"/><path d="M497.15,282.58c-2.54-4.76-7.73-10.42-18.81-10-9.3.32-14.46,4.77-16.61,9.95,3.69-3.32,9.08-5.64,16.55-5.9C487.18,276.29,493.12,279,497.15,282.58Z" style="fill:#923b05"/><path d="M498.52,294.05s-8-6-18.22-5.73S462,298.61,462,298.61s8.49,7.19,18.75,6.95C495.2,305.21,498.52,294.05,498.52,294.05Z" style="fill:#fff"/><path d="M498.52,294.05c.52-3.92-7.66-11.69-17.93-11.72-13.74-.05-15.51,5.85-18.34,10.29-.41.66-1.31,5.27-.29,6,2.92-2.93,10.94-10.12,18.34-10.29C488.44,288.13,496.11,292.51,498.52,294.05Z" style="fill:#ffa969"/><path d="M463.09,299.49c13.3-17,33.81-4.75,34.68-4.22a1.44,1.44,0,0,0,2-.47,1.42,1.42,0,0,0-.47-2c-.23-.15-23.56-14.18-38.44,4.9a1.42,1.42,0,0,0,.25,2,1.45,1.45,0,0,0,.81.31A1.44,1.44,0,0,0,463.09,299.49Z" style="fill:#6d2418"/><path d="M486.25,299.75a6.2,6.2,0,1,0-6.49,5.88A6.2,6.2,0,0,0,486.25,299.75Z" style="fill:#762b0c"/><path d="M483.54,299.61a3.48,3.48,0,1,0-3.65,3.31A3.48,3.48,0,0,0,483.54,299.61Z" style="fill:#231f20"/><path d="M436,295.19c.92-3.65,1.26-9.24-1.05-13-2.6-4.21-8.34-6.42-16.33-6.7-8.41-.29-16.15,2.76-18.62,6.8a17.6,17.6,0,0,0-1.92,7.36c.26,5.3,4.54,10.16,19,10.5C427.39,300.39,434.83,300,436,295.19Z" style="fill:#ff8a54"/><path d="M435.12,282.5c-2.14-5.18-7.3-9.63-16.6-9.95-11.09-.39-16.28,5.27-18.81,10,4-3.57,10-6.29,18.87-6C426,276.86,431.43,279.18,435.12,282.5Z" style="fill:#923b05"/><path d="M434.9,298.61s-8.09-10.05-18.34-10.29-18.23,5.73-18.23,5.73,3.33,11.16,17.82,11.51C426.41,305.8,434.9,298.61,434.9,298.61Z" style="fill:#fff"/><path d="M434.6,292.62c-2.83-4.44-4.59-10.34-18.34-10.29-10.26,0-18.44,7.8-17.93,11.72,2.42-1.54,10.08-5.92,18.23-5.73,7.4.17,15.42,7.36,18.34,10.29C435.92,297.89,435,293.28,434.6,292.62Z" style="fill:#ffa969"/><path d="M399.09,295.27c.86-.53,21.38-12.82,34.67,4.22a1.46,1.46,0,0,0,1.21.56,1.48,1.48,0,0,0,.81-.31,1.43,1.43,0,0,0,.25-2c-14.88-19.08-38.21-5.05-38.44-4.9a1.43,1.43,0,0,0-.48,2A1.45,1.45,0,0,0,399.09,295.27Z" style="fill:#6d2418"/><path d="M423.45,299.13a6.2,6.2,0,1,0-5.89,6.5A6.2,6.2,0,0,0,423.45,299.13Z" style="fill:#762b0c"/><path d="M420.73,299.27a3.48,3.48,0,0,0-7,.34,3.48,3.48,0,1,0,7-.34Z" style="fill:#231f20"/><path d="M458.85,318.91s0,0,0-.06a19.41,19.41,0,0,1-20.19-1s0,.05,0,.07c-.22,4.3,4.13,8,9.71,8.29S458.63,323.21,458.85,318.91Z" style="fill:#ff8a54"/><path d="M446.42,339.24a67.2,67.2,0,0,0,25.49-3.66,1.44,1.44,0,0,0-1.05-2.68c-.22.09-22.41,8.48-43.89-1.09a1.43,1.43,0,0,0-1.16,2.62A57.34,57.34,0,0,0,446.42,339.24Z" style="fill:#d40813"/><path d="M541.23,250.63c-6.47-30.53-31.38-63.55-79.34-70-28.47-3.84-39.49,12.64-39.49,12.64s-3.47,17.71,2.41,27.54c11.61,19.43,67.21,43.61,77.05,64,12.14,25.13,9.42,81.74.74,111.62-6.55,22.61-27,34.41-14.28,61.72,16.79,36,37,30,37,30s-7.94-18.21-3.49-59.71C525.46,394,556.61,323.21,541.23,250.63Z" style="fill:#a03838"/><path d="M519.09,308.53c-6.41-25.31-21.73-30.26-21.73-30.26s10,17.35,11.91,38.81c2.29,25.54-5.81,76.23-5.81,76.23S525.89,335.33,519.09,308.53Z" style="fill:#762b0c"/><path d="M354.86,392.45c-24.64,19.94-35.76,54.7-35.76,54.7l49,23.13L385,560.05H514.71l18.79-89.77,49.39-23.13s-18.22-37.07-34.65-54.7c-6.33-6.79-25.42-7.21-47.33-10.13.26,4.11.39,7,.39,11.27,0,56.24-23,89.46-51.35,89.46s-51.35-33.22-51.35-89.46c0-4,.12-6.85.35-10.76C381,384.19,363,385.91,354.86,392.45Z" style="fill:#43c7dd"/><polygon points="368.15 459.34 320.91 435.72 315.74 450.51 366.04 472.86 368.15 459.34" style="fill:#3974b0"/><polygon points="579.54 433.74 532.59 457.21 535.94 473.98 585.03 447.64 579.54 433.74" style="fill:#3974b0"/><path d="M524,560.05s5.68-68.47,13.79-90.57c1.45-3.94,9.29-8.84,5.8-11.16-3.08-2.06-8.22-33.89-10.27-41.08-5.53-19.37-6.54,53.62-12.33,72.91-3.08,10.27-14,16.23-20.54,18.49-5.74,2-51-17.55-51-17.55s-42,19.44-47.41,17.55c-6.53-2.26-17.46-8.22-20.55-18.49-5.78-19.29-6.79-92.28-12.32-72.91-2.05,7.19-7.19,39-10.27,41.08-3.49,2.32,4.35,7.22,5.8,11.16,8.11,22.1,15.1,90.57,15.1,90.57Z" style="fill:#3974b0"/><path d="M450.31,456.71l9.37,17c18.88-10,32.93-35.76,32.93-81.32,0-3.67-.1-7.28-.28-10.84a397.56,397.56,0,0,0-84.89.47c-.16,3.41-.26,6.86-.26,10.37,0,48.12,15.68,75.62,36.16,82.73Z" style="fill:#ffa969"/><path d="M399,382.83c-.23,4-.35,8-.35,12.09,0,50.1,17.76,79.5,41.32,88.87a26.8,26.8,0,0,0,10,2,28.21,28.21,0,0,0,14.32-4.08c21.39-12.46,37-39.76,37-86.77q0-6.45-.39-12.7c-2.78-.38-5.66-.71-8.58-1,.18,3.56.28,7.17.28,10.84,0,45.56-14.05,71.35-32.93,81.32a20.89,20.89,0,0,1-9.78,2.53,20,20,0,0,1-6.56-1.12c-20.48-7.11-36.16-34.62-36.16-82.73,0-3.51.1-7,.26-10.37C404.55,382,401.71,382.4,399,382.83Z" style="fill:#fff"/><path d="M450.31,455.24l-7,18.38a20,20,0,0,0,6.56,1.13,20.78,20.78,0,0,0,9.78-2.54Z" style="fill:#ff8a54"/><path d="M449.81,404.19c7-1,28-18.57,28-18.57l-1.05-44.51-55.18,2,1.86,44.34S438.8,405.76,449.81,404.19Z" style="fill:#ffa969"/><path d="M477.54,390.23s1.07-23.8,1.07-29.44c0-.69-14.2,9.6-29.32,9.24s-25.51-7.51-25.49-7.18c.84,11,8.62,18.76,22.13,25.56C459.71,395.34,477.54,390.23,477.54,390.23Z" style="fill:#ff8a54"/><path d="M457.13,345.82c-1.08-1.07-5-.27-8.81-.87s-7.24-1.3-7.61,1.07c-.5,3.34,1.26,3.29,6.82,3.89C457.14,350.94,460.79,349.44,457.13,345.82Z" style="fill:#ff8a54"/><path d="M510.33,522c0-.24,0-.48,0-.72a59.93,59.93,0,1,0-119.85,0c0,.24,0,.48,0,.72h8.61c0-.24,0-.48,0-.72a51.32,51.32,0,1,1,102.63,0V522Z" style="fill:#ed1c24"/><path d="M501.73,522v-.72a51.32,51.32,0,1,0-102.63,0c0,.24,0,.48,0,.72h9.49c0-.24,0-.48,0-.72a41.83,41.83,0,1,1,83.66,0c0,.24,0,.48,0,.72Z" style="fill:#f9ed32"/><path d="M492.24,522c0-.24,0-.48,0-.72a41.83,41.83,0,1,0-83.66,0c0,.24,0,.48,0,.72h11c0-.24,0-.48,0-.72a30.79,30.79,0,1,1,61.57,0c0,.24,0,.48,0,.72Z" style="fill:#f24181"/><path d="M481.18,522c0-.24,0-.48,0-.72a30.79,30.79,0,1,0-61.57,0c0,.24,0,.48,0,.72h11c0-.15,0-.31,0-.46a19.75,19.75,0,1,1,39.49,0c0,.15,0,.31,0,.46Z" style="fill:#c6dd24"/><path d="M418.11,509.87c-12-2.67-37-5.87-47.24,0-4.58,2.64-10.27,17.46-10.27,17.46s-46.16,3-53.4,23.63c-3.75,10.67,6.66,10.37,6.66,10.37l51.88-2.16s13,3.89,17.46,3.49,16.43-6.57,16.43-6.57,10.16-8.32,10.27-12.32c0-1.29-3.08-4.11-3.08-4.11s3.5-4.08,3.44-5.76c0-1.06-2.42-3.49-2.42-3.49s5.11-1.72,6.17-3.08c4.47-5.75-1-8.21-1-8.21l5.13-1S420.12,510.32,418.11,509.87Z" style="fill:#ffa969"/><polygon points="418.11 516.99 377.03 520.07 377.03 523.15 412.98 520.07 418.11 519.04 418.11 516.99" style="fill:#ff8a54"/><polygon points="407.84 531.37 377.03 536.5 378.06 539.58 409.23 532.8 407.84 531.37" style="fill:#ff8a54"/><polygon points="407.84 541.64 406.82 540.61 394.49 547.8 381.14 550.88 382.17 552.93 396.55 549.85 407.84 541.64" style="fill:#ff8a54"/><path d="M492.6,544.72c.1,4,10.27,12.32,10.27,12.32s12,6.16,16.43,6.57,17.46-3.49,17.46-3.49l52.38,1s11.26-1.62,7.52-12.3c-7.25-20.65-54.76-20.58-54.76-20.58s-5.69-14.83-10.27-17.46c-10.25-5.88-35.28-2.68-47.24,0-2,.44,0,8.21,0,8.21l5.13,1s-5.5,2.46-1,8.22c1.06,1.36,6.17,3.08,6.17,3.08s-2.39,2.42-2.42,3.48c-.06,1.68,3.44,5.76,3.44,5.76S492.57,543.43,492.6,544.72Z" style="fill:#ffa969"/><polygon points="525.47 520.07 484.39 516.99 484.39 519.04 489.52 520.07 525.47 523.15 525.47 520.07" style="fill:#ff8a54"/><polygon points="494.66 531.37 493.27 532.8 524.44 539.58 525.47 536.5 494.66 531.37" style="fill:#ff8a54"/><polygon points="521.36 550.88 508.01 547.8 495.68 540.61 494.66 541.64 505.95 549.85 520.33 552.93 521.36 550.88" style="fill:#ff8a54"/><path d="M571,602.47c9.23-3.92,9.5-15.84,9.08-24.59-.66-13.73-5.32-26.22-20.72-23.72-15.82,2.57-19.45,33.7-12.89,43.52C549.89,602.88,564.53,605.2,571,602.47Z" style="fill:#1591bc"/><path d="M571.86,597c3.75-2.9,3.86-11.73,3.69-18.2-.27-10.16-2.16-19.41-8.43-17.56-6.44,1.9-7.91,25-5.24,32.22C563.29,597.31,569.24,599,571.86,597Z" style="fill:#19b6e0"/><path d="M533,560c-4.54-3.08-22.28-1.65-27.72.48-11,4.31-15.38,18.51-15.51,28.06-.06,4.84,1,9.5,5.29,13s25.15,10.51,30.88,6.06c11.17-8.69,6.1-20.31,7.59-31.34C534.22,571,538.37,563.61,533,560Z" style="fill:#733da8"/><path d="M508.38,600.37c5.56-5.61,4.17-11.06,6.17-20,1-4.26,3.55-9.8,1.86-13.62-1.42-3.22-8.67-4.6-11.12-3.62-4.94,2-8.49,13.17-9.75,21.1-.64,4-.8,8,.45,11.59S505.53,603.24,508.38,600.37Z" style="fill:#7a40b2"/><path d="M603.88,611.56c7-6.45,5.1-30.93-10.26-35.51-14.94-4.46-20.19,4.36-21.59,14.78-.89,6.64-1.27,15.83,7.56,20.36C585.73,614.34,600.2,615,603.88,611.56Z" style="fill:#8dc63f"/><path d="M589,605.78c3-5.14,2.82-23.06-3.38-25.58-6-2.45-8.41,4.33-9.22,12.08-.52,4.94-.9,11.72,2.63,14.57C581.45,608.83,587.38,608.5,589,605.78Z" style="fill:#a3df23"/><path d="M448.51,618.73c11,1.26,17.24-3.39,21.89-9.48,7.29-9.57,10.44-21.3-4.23-31.12-15.07-10.09-36,7.79-36,19.16C430.18,603.31,436.34,617.33,448.51,618.73Z" style="fill:#0dd3c0"/><path d="M466,607.62c5.59-6.91,9.26-14.43,2.81-17.88-6.63-3.54-21.09,10.59-23,17.38-1,3.59,3.15,9.17,6.55,9.78C457.31,617.78,462.46,612,466,607.62Z" style="fill:#11b3bf"/><path d="M321.28,576.57c-1-3-3.51-19.4-10.15-12-4,14.68,4.72,27,19.35,34,8.79,4.2,17.51,5.31,27.74,3.93,6.46-.87,13.72-2.43,19.66-5.77,11.06-6.2,15.36-19.42,19.51-30.82,3.82-10.49,6.43-24-1.52-33.38-9-10.67-20.29-14.32-31.38-2.69-10.41,10.93-5.75,20,1.19,30.18C379.67,580.55,331.71,606.13,321.28,576.57Z" style="fill:#f9ed32"/><path d="M397.28,492.37c-4.51-3.1-6.1-.26-9.16,4.64-5,8-8.15,19.35-5.76,28.86,1.9,7.6,7.09,16.46,11.21,5.06l.53-.28c-.84-10.28,7.44-19,7.06-28.56C401.06,499.49,399.92,494.18,397.28,492.37Z" style="fill:#f9ed32"/><path d="M382.5,544.51a14.38,14.38,0,0,0,2.42-7.26l-.56,2.51c-10.81-10.9-15.92-25.52-18.88-42-2.63-14.72-11.67-10.5-13.56-10.09-3.65.77-4.29,10.82-4,13.92C349.87,519.42,365.88,538.86,382.5,544.51Z" style="fill:#f9ed32"/><path d="M364.34,585.29a6.19,6.19,0,0,0,1.14,0Z" style="fill:#f9b332"/><path d="M364.18,585.29h.16l-.15,0Z" style="fill:#f9b332"/><path d="M362,502.63c4.38.78,10.61-4.9,8-11.93-2.57-6.85-7.35-6.32-11.64-3.89-2.73,1.55-6.27,4-5.47,8.6C353.44,498.59,359.7,502.23,362,502.63Z" style="fill:#f1f2f2"/><path d="M366.16,488.87c-.79-3-4-1.92-7.12,0-2,1.21-4.64,3-4.7,5.12,0,1.47,1.76,3.59,3.22,3.42C360.33,497.05,367,491.9,366.16,488.87Z" style="fill:#fff"/><path d="M369.6,496.49c2.93-.85,3-3.41,2.88-5.29-.21-2.95-1.69-5.64-6.56-5.1s-6.16,7.24-4.08,9.36C362.94,496.57,367.57,497.07,369.6,496.49Z" style="fill:#006895"/><path d="M369.89,495.31c1.19-.62,1.22-2.52,1.17-3.91-.08-2.19-.68-4.18-2.67-3.78s-2.5,5.37-1.66,6.93A2.91,2.91,0,0,0,369.89,495.31Z" style="fill:#0c6ec6"/><path d="M402.45,507.31c4.38.77,10.61-4.91,8-11.94-2.57-6.85-7.35-6.32-11.64-3.89-2.73,1.55-6.27,4-5.46,8.6C393.88,503.26,400.13,506.9,402.45,507.31Z" style="fill:#f1f2f2"/><path d="M406.59,493.54c-.79-3-4-1.91-7.12,0-2,1.21-4.63,3-4.7,5.12,0,1.47,1.76,3.59,3.23,3.42C400.77,501.72,407.41,496.57,406.59,493.54Z" style="fill:#fff"/><path d="M410,501.16c2.92-.85,3-3.41,2.87-5.29-.21-2.95-1.68-5.64-6.56-5.1s-6.15,7.24-4.08,9.36C403.37,501.24,408,501.75,410,501.16Z" style="fill:#006895"/><path d="M410.32,500c1.19-.62,1.23-2.52,1.17-3.91-.08-2.19-.68-4.18-2.67-3.78s-2.5,5.37-1.66,6.93A2.91,2.91,0,0,0,410.32,500Z" style="fill:#0c6ec6"/><path d="M334.65,591.45c5.81,2.91,25.93-2.87,29.78-6.05s4.8-7.33,4.75-11.67c-.11-8.56-4-21.29-13.91-25.16-4.88-1.91-20.78-3.19-24.86-.43-4.83,3.27-12.42,15.93-11.78,20.63C320,578.66,321.3,584.78,334.65,591.45Z" style="fill:#f53854"/><path d="M343.1,583.44c-2.17,1.17-5.53,2.55-5.89,5.7-.24,2.09,2.56,3.24,4.52,3.5,7.35,1,13.91-5.46,17.53-11.25A25.45,25.45,0,0,0,363,570.78c1-2.61,1.17-5.86.15-7.22-1.7-2.26-4.43-3.65-7.39-4.69-5.84-2-15-3.63-18.73-.74-1.87,1.43-4.59,7.29-3.19,9.55,1.66,2.67,6.6,2.84,9.87,3.74,3.91,1.07,6.54,2.52,9.26,3.22.18,1.25-.36,2.39-1.83,3.78C348.94,580.5,345.8,582,343.1,583.44Z" style="fill:#f96480"/><path d="M391.74,546.83c1.74-1.19,1.57-5.25,1.26-7.73-.26,0-1-.2-1-.2-4.54.42-8.89-.21-13.46-.35-1.66,0-3,.07-3.77,1.71-1.77,3.68,3.59,7.74,6.86,7.9C383.83,548.27,389.93,548.06,391.74,546.83Z" style="fill:#f9b332"/><path d="M735.41,564.15C730.58,558,720.49,558,713,555.88c-14.14-4-32.36-1.14-40.33,12.28-1.59,2.66-2.18,7.31-4.45,9.45s-9.55,3.73-13,4.89c-6,2-12.1,1.55-12.42,9.43-.14,3.52,1.57,5.84,3.27,8.79,1.25,2.15,2,4.39,3.5,6.49,2.77,3.82,9.1,8,14,8.79,2.75.44,5.75-.26,8.52,0a79.33,79.33,0,0,0,21.1-.9c10-1.74,21.59-.38,31.66-.38,5.61,0,10.81-.13,16.24-1.64,2.85-.79,5.21-2,8.07-2.58,4.94-1.05,12.34-1.23,15.62-5.22,3.07-3.76-.56-5.17.66-9.09h1c.93-4.46-4.15-9.59-7.09-12.43-4.15-4-16.11-1.4-21.12-4C732.66,576.77,739.21,569,735.41,564.15Z" style="fill:#ed1c24"/><path d="M665.1,617.55a60.3,60.3,0,0,0,28,.57c6.89-1.44,13.22,0,20.1,1.15a87.1,87.1,0,0,0,14.2.88c5.18,0,10-1.24,15.16-1.3,3.36,0,16.55,0,19.77-1,2.62-.79,3.27-2,4.22-4.87,1.3-4,.5-8.57.3-12.69-.22-4.38.78-6.39-3.89-8.2-3.36-1.3-18.66-5.8-18.66-5.8-3.32-.55-4.54-11.35-5.85-16.12-3.5-12.7-12.66-4.6-24.44-8.22-9-2.76-29.38,2.21-31.09,7.45-1.61,4.94-.79,10.14-2.25,14.9-5.32,1.15-10.23,3.89-15.61,4.85-2.69.48-10.91,1-12.59,4.26-.75,1.45.69,7.19,1,8.8a36,36,0,0,0,3,9.78C658.38,615.69,661,616.56,665.1,617.55Z" style="fill:#f93d38"/><path d="M729.78,627.14c7.25,6.39,10.89,3.44,14,3.34,0,0,11.52-3,13.4-9.81,1.6-5.82-3-18.63-8.84-21.13-2.28-1-4.82-.33-7.11.22-3.6.87-6.36,2.32-9.83,3.29-5,1.4-6.29,8.42-5.88,13C726,621.37,725.83,623.65,729.78,627.14Z" style="fill:#414042"/><path d="M736,621.64c3.77,3.33,5.66,1.79,7.26,1.74,0,0,6-1.55,7-5.1.83-3-1.57-9.68-4.59-11a5.86,5.86,0,0,0-3.7.11c-1.87.45-3.3,1.21-5.11,1.71-2.61.73-3.27,4.38-3,6.78C734,618.64,733.93,619.83,736,621.64Z" style="fill:#f9ed32"/><path d="M675.56,627.14c7.25,6.39,10.88,3.44,14,3.34,0,0,11.52-3,13.4-9.81,1.6-5.82-3-18.63-8.84-21.13-2.27-1-4.81-.33-7.11.22-3.59.87-6.35,2.32-9.83,3.29-5,1.4-6.29,8.42-5.87,13C671.76,621.37,671.61,623.65,675.56,627.14Z" style="fill:#414042"/><path d="M681.76,621.64c3.77,3.33,5.65,1.79,7.26,1.74,0,0,6-1.55,7-5.1.83-3-1.58-9.68-4.6-11a5.87,5.87,0,0,0-3.7.11c-1.86.45-3.3,1.21-5.1,1.71-2.61.73-3.27,4.38-3.06,6.78C679.78,618.64,679.7,619.83,681.76,621.64Z" style="fill:#f9ed32"/><path d="M701.64,590.44c6.14,0,12.05-.89,18.12-.88a36.58,36.58,0,0,0,8-1.24c.92-.2,1.93-.26,2.79-.54s1-7.68.75-10.8c-.29-3.29.42-5.87-2.89-7.22-7.82-3.19-15.74-2.93-23.71-1.1-2.3.53-4.68,1.5-7.13,1.73-2.26.21-4.14.22-6,1.63-2.63,2-3,5.8-3.2,9-.1,1.91-.46,4.69.71,6.23C692,591.16,697.45,590.44,701.64,590.44Z" style="fill:#fff"/><path d="M695.17,586.78c6.77,2.17,13.59,1.9,20.45.52a56.36,56.36,0,0,1,6.13-1.3c2-.17,3.57-.2,5.14-1.22,2.25-1.45,2.55-4.13,2.68-6.39.07-1.35.36-3.32-.66-4.39-2.6-2.73-7.25-2.17-10.87-2.13-5.29.07-10.38.77-15.62.83a37.92,37.92,0,0,0-6.86,1c-.79.15-1.65.2-2.39.41s-.83,5.44-.56,7.64S692.3,585.86,695.17,586.78Z" style="fill:#18d3c1"/><path d="M657.81,598.05c0-3.55-.85-5.36-3.22-5.36s-4.71,2.45-4.71,6,3.42,4.71,5.79,4.71S657.81,601.59,657.81,598.05Z" style="fill:#f99e32"/><path d="M648.16,589.48c0-3.55-.85-5.36-3.21-5.36s-4.71,2.45-4.71,6,3.42,4.71,5.78,4.71S648.16,593,648.16,589.48Z" style="fill:#f99e32"/><path d="M179.78,521.65c-.15-.09-14.1-9.1-36.45,14.27l14.26,10.49S164.16,530,179.78,521.65Z" style="fill:#95e1bf"/><path d="M152.2,542.46l5.39,3.95s6.44-16,21.62-24.44C168.68,526.33,159.88,533.74,152.2,542.46Z" style="fill:#95e1bf"/><path d="M246.83,531.05c-22.76-5.08-67.05-9.4-67.05-9.4h0c-15.62,8.35-22.19,24.76-22.19,24.76l0,16.89,95.9-.11V552.05l.77,1.22h0C250.69,547.57,246.83,531.05,246.83,531.05Z" style="fill:#95e1bf"/><path d="M157.6,560.93v2.37l95.9-.11V560.6C221.54,560.66,189.58,560.83,157.6,560.93Z" style="fill:#95e1bf"/><path d="M277.72,550.52s-5.25-11.24-22.48-17.21a79.79,79.79,0,0,0-8.41-2.26s3.86,16.52,7.45,22.22h0l4.71,7.51S271.49,557.76,277.72,550.52Z" style="fill:#95e1bf"/><path d="M247.78,534.87c1.37,5.26,4,14.46,6.5,18.4h0l4.71,7.51a50.67,50.67,0,0,0,5-1.59C259.07,550.71,254.78,541.7,247.78,534.87Z" style="fill:#95e1bf"/><path d="M209.88,581.92c-3.94-.54-11.32-1.3-11.32-1.3s11.14-3.56,12.16-5.61-1.4-1.9-4.79-.78-9.35,2.84-9.35,2.84,3.36-3.74,3-6.38-8.25,5.64-8.8,6-3.76-1.12-6-.74c0,0-24.26-7.51-34.11-12.65-6.35,0-13.94.17-20.29.24,6.11,7.84,53.47,20.11,53.47,20.11a9.12,9.12,0,0,0,6.57,6s4.3,3.92,5.62,6.7,5.25,2.64,4.49,0-4.11-6.55-4.11-6.55a44.41,44.41,0,0,1,9.18,4.48c3.37,2.44,6,1.3,4.31-2.45s-11.35-6.17-11.35-6.17,9.47.2,12.18.38S213.82,582.47,209.88,581.92Z" style="fill:#c6c6c6;mix-blend-mode:multiply"/><path d="M266.67,562.8l1.82,4.27-31.83,9.38L232,574.23s-1.88-4.86-4.49-4.88-.2,3,.92,5.64,1.89,5,1.89,5-9.56-6.36-12.56-7.1-2.05,2.05,0,3.18,8.61,5.44,8.61,5.44-10.5-1.49-11.62,0,8.62,2.07,10.31,2.22-11.79,5.08-9.53,6.58,14-4.89,12.72-2.27-7.49,10.13-4.11,9.37S232,589.2,232,589.2s5.06-.74,6.19-3.94c0,0,39.38-7.66,40.56-15.4a17.17,17.17,0,0,0-.63-7.11C274.28,562.76,270.48,562.72,266.67,562.8Z" style="fill:#c6c6c6;mix-blend-mode:multiply"/><path d="M198.27,535.88s-4.72,16.48,9.28,16.21,14.3-14,14.3-14Z" style="fill:#efcaa6"/><path d="M319.78,418c6-3.4-15.34-4.88-15.34-4.88a22,22,0,0,0,0-12c-1.88-6.37-6.36,8.27-6.36,8.27C282.28,364.44,204.71,358.9,174.39,393s-15.64,78.68-15.64,78.68,11.2-29,35.91-49c0,0-10,13.68-6.22,14.33s13.48-4.59,55.68-11.62c0,0-8.49,10.41-3,11.58s26.48-5.37,26.48-5.37-5.23,26.75,3.52,22.48,11.54-10.85,11.54-10.85,12.2,26.55,5,60.15c59.13-54,19.78-82.2,19.78-82.2A26.83,26.83,0,0,0,319.78,418Z" style="fill:#decc62"/><path d="M282.67,443.27s-2.8,6.58-11.54,10.85-3.52-22.48-3.52-22.48-21,6.51-26.48,5.37,3-11.58,3-11.58c-42.2,7-52,12.28-55.68,11.62s6.22-14.33,6.22-14.33c-24.71,20-35.91,49-35.91,49a42.4,42.4,0,0,0-.3,39.62C172.31,538,201.91,544.87,230,544.82c36.36,0,57.67-41.4,57.67-41.4C294.87,469.82,282.67,443.27,282.67,443.27Z" style="fill:#f4d9bf"/><path d="M165.17,458.61s1.43-10.5-8.06-9.37-10.4,21.62.88,23.91A161.05,161.05,0,0,1,165.17,458.61Z" style="fill:#efcaa6"/><path d="M287.86,502.49s4.47-10.67,13.85-6.75,1,18.91-9.9,21.56-10.55-3.79-10.55-3.79Z" style="fill:#efcaa6"/><path d="M195.87,449.51a5,5,0,0,1,1.41-1.43,7.75,7.75,0,0,1,4-1.44,6.86,6.86,0,0,1,2.39.24,5.78,5.78,0,0,1,1.9,1,4.35,4.35,0,0,1,.61.6,5.37,5.37,0,0,1,.37.57,1.91,1.91,0,0,1,.2.54l-.56,0a10.5,10.5,0,0,0-1.28-.09l-1.63,0c-.59.05-1.18.06-1.8.12a33.48,33.48,0,0,1-3.7.08A12.31,12.31,0,0,1,195.87,449.51Z" style="fill:#a95a16"/><path d="M248,459.27a8.83,8.83,0,0,1,2.55-1.25,13.35,13.35,0,0,1,6.18-.56,8.48,8.48,0,0,1,1.73.38,8,8,0,0,1,1.6.64c.51.25,1,.59,1.4.86a11.23,11.23,0,0,1,1,1.07,8.58,8.58,0,0,1,.67,1.06,3.16,3.16,0,0,1,.3.9,6.88,6.88,0,0,1,.15.78l-.65-.45a6.7,6.7,0,0,0-.69-.48l-.89-.49c-.35-.12-.7-.28-1.06-.44s-.81-.24-1.23-.34-.87-.24-1.34-.3-1-.18-1.43-.24c-1-.16-2-.24-2.93-.37s-1.88-.19-2.66-.31C249.18,459.52,248,459.27,248,459.27Z" style="fill:#a95a16"/><path d="M210.6,495s-5.92,6.88-2,8.55,8.81,0,8.81,0-7.19,1.25-7.77-2.63S210.6,495,210.6,495Z" style="fill:#c39368"/><path d="M153.13,461.15a4.12,4.12,0,0,1,1.5-.62,6.58,6.58,0,0,1,1.72-.13,4.76,4.76,0,0,1,2,.55,4,4,0,0,1,.87.61,3.25,3.25,0,0,1,.7.74,4,4,0,0,1,.46.86,2.3,2.3,0,0,1,.23.79,3.53,3.53,0,0,1,.08,1.21c0,.29,0,.45,0,.45l-.25-.41a4.21,4.21,0,0,1-.24-.4,3.38,3.38,0,0,0-.35-.52,2.42,2.42,0,0,0-.4-.55,6.94,6.94,0,0,0-.49-.57,5.2,5.2,0,0,0-1.26-.89,3.7,3.7,0,0,0-.73-.33,6.54,6.54,0,0,0-.75-.24c-.52-.15-1-.22-1.47-.31Z" style="fill:#c39368"/><path d="M297.16,507.31a2.3,2.3,0,0,0-.45-.25,5.39,5.39,0,0,0-1.16-.47c-.25-.07-.51-.11-.78-.19a3.48,3.48,0,0,0-.89-.12,8.41,8.41,0,0,0-.93-.07c-.3,0-.63.06-1,.08a3.24,3.24,0,0,0-1,.1c-.32.09-.65.11-1,.17a5.24,5.24,0,0,0-.91.18c-.28.08-.55.17-.81.22a9.92,9.92,0,0,1-1.78.33,9.35,9.35,0,0,1,1.44-1.11,7,7,0,0,1,.78-.51,5,5,0,0,1,.93-.36,7.31,7.31,0,0,1,1-.34,3.68,3.68,0,0,1,1.15-.17c.38,0,.77,0,1.16,0a4.25,4.25,0,0,1,1.1.24,3.14,3.14,0,0,1,1,.33c.31.17.58.35.84.49a5.57,5.57,0,0,1,.95,1A2,2,0,0,1,297.16,507.31Z" style="fill:#c39368"/><path d="M249.56,483.26c-1.42,3.79-3.95,6.38-5.61,5.74s-1.87-4.22-.43-8,3.93-6.4,5.61-5.78S251,479.43,249.56,483.26Z" style="fill:#3d1a0b"/><path d="M247.18,479.05c-.51,1.13-1.34,1.84-1.84,1.6s-.45-1.31.07-2.43,1.35-1.83,1.84-1.59S247.72,478,247.18,479.05Z" style="fill:#fff"/><path d="M201.52,469.91c-1.42,3.8-3.94,6.39-5.61,5.78s-1.84-4.24-.43-8,3.92-6.4,5.61-5.75S203,466.09,201.52,469.91Z" style="fill:#3d1a0b"/><path d="M199.15,465.72c-.52,1.11-1.35,1.83-1.85,1.62s-.44-1.34.09-2.45,1.33-1.84,1.84-1.6S199.68,464.6,199.15,465.72Z" style="fill:#fff"/><path d="M263.47,505.67c-.49,2.57-5.94,3.69-12.16,2.47s-10.86-4.29-10.36-6.86,6-3.72,12.18-2.5S264,503.07,263.47,505.67Z" style="fill:#f9cbc0"/><path d="M192.88,484.38c-.5,2.57-5.95,3.7-12.16,2.48s-10.84-4.29-10.36-6.86,6-3.72,12.18-2.5S193.39,481.79,192.88,484.38Z" style="fill:#f9cbc0"/><path d="M144.21,536.57s-19.1,19.07-14.39,26.84,53,20.88,53,20.88a9.07,9.07,0,0,0,6.54,6s4.33,3.93,5.64,6.74,5.23,2.63,4.49,0-4.11-6.55-4.11-6.55a45.85,45.85,0,0,1,9.17,4.47c3.37,2.44,6,1.33,4.3-2.42s-11.33-6.16-11.33-6.16,9.45.16,12.19.35,3.07-3.56-.86-4.11-11.34-1.31-11.34-1.31,11.14-3.56,12.17-5.64-1.42-1.88-4.78-.74-9.37,2.83-9.37,2.83,3.38-3.77,3-6.37-8.24,5.61-8.8,6-3.75-1.14-6-.76c0,0-36.37-11.37-38.44-15.68s8.77-17,8.77-17Z" style="fill:#f4d9bf"/><path d="M263.86,559.23l3.65,8.47-31.85,9.41L231,574.86S229.1,570,226.48,570s-.18,3,1,5.62,1.87,5.06,1.87,5.06-9.57-6.36-12.55-7.12-2.07,2.08,0,3.2,8.63,5.41,8.63,5.41-10.48-1.48-11.64,0,8.64,2,10.33,2.24-11.81,5.06-9.55,6.56,14-4.88,12.74-2.25-7.5,10.12-4.11,9.36,7.86-8.25,7.86-8.25,5.06-.74,6.17-3.94c0,0,39.4-7.69,40.57-15.39s-4.7-15.91-4.7-15.91A58,58,0,0,1,263.86,559.23Z" style="fill:#f4d9bf"/><g style="opacity:0.4;mix-blend-mode:multiply"><path d="M165.17,458.61h0c5.73-10.18,15.41-24.49,29.49-35.89l8-7C173.94,428.5,165.17,458.61,165.17,458.61Z" style="fill:#d7711f"/><path d="M188.44,437.05c3.72.66,13.48-4.59,55.68-11.62,0,0-.11.14-.29.34a78.26,78.26,0,0,1,11.95-8.36C226.49,419.94,188.44,437.05,188.44,437.05Z" style="fill:#d7711f"/><path d="M239.63,436.09a2.33,2.33,0,0,0,1.5.92c5.51,1.14,26.48-5.37,26.48-5.37s0,.22-.1.61c3-5,6.58-10.62,6.58-10.62C255.5,434.81,239.84,436.07,239.63,436.09Z" style="fill:#d7711f"/><path d="M280.08,431.38c1.77,15.65-10.81,23.1-10.93,23.16a3.49,3.49,0,0,0,2-.42c8.74-4.27,11.54-10.85,11.54-10.85s12,26.08,5.17,59.25c0,0,0,0,0,0C304.75,469.2,280.08,431.38,280.08,431.38Z" style="fill:#d7711f"/></g><path d="M196.74,517.65a188.25,188.25,0,0,0,27.86,2.13c-.25,8.71-7.07,14.91-16.27,13.78S196,523.12,196.74,517.65Z" style="fill:#96172d"/><path d="M205.88,533a12.36,12.36,0,0,0,2.45.54,15.21,15.21,0,0,0,8.57-1.3C213,528.86,208.2,531.39,205.88,533Z" style="fill:#ed776f"/><path d="M207.88,525.85c7.93.88,12.13-1.13,16.44-3.61a16.53,16.53,0,0,0,.28-2.46,182.6,182.6,0,0,1-25.1-1.73C199.75,520.69,201.16,525.11,207.88,525.85Z" style="fill:#fff"/><path d="M193.22,516.44s.55.14,1.51.32c.49.11,1.07.23,1.74.32l2.26.4c.84.12,1.73.24,2.68.39s2,.24,3,.36,2.11.25,3.2.35l3.34.27c1.11.08,2.22.22,3.32.26l3.24.15c1,0,2,.12,3,.16s1.87,0,2.72.06c1.67,0,3.08.08,4.07.11l1.54.06-1.53.12c-1,.06-2.39.17-4.08.25l-2.72.11-3,0-3.27-.06c-1.1,0-2.21-.15-3.34-.23s-2.24-.21-3.35-.29l-3.22-.46c-1.05-.13-2.06-.3-3-.51l-2.68-.54c-.82-.17-1.56-.38-2.23-.56l-1.71-.49C193.74,516.66,193.22,516.44,193.22,516.44Z" style="fill:#c39368"/><path d="M631,521.35s-23.88,26-18,36.56,66.31,28.45,66.31,28.45a12,12,0,0,0,8.19,8.14s5.41,5.35,7,9.18,6.55,3.58,5.62,0-5.15-8.92-5.15-8.92,7.24,2.8,11.47,6.09,7.48,1.82,5.38-3.29-14.17-8.39-14.17-8.39,11.82.22,15.24.48,3.85-4.85-1.08-5.6-14.16-1.79-14.16-1.79,13.92-4.85,15.21-7.67-1.78-2.56-6-1-11.71,3.84-11.71,3.84,4.21-5.12,3.74-8.67-10.3,7.64-11,8.17-4.69-1.55-7.47-1c0,0-45.47-15.5-48.07-21.36s11-23.2,11-23.2Z" style="fill:#f4d9bf"/><path d="M689.15,499.78s2.14,24.18,12.41,26.32,21-18.09,20.87-23.41Z" style="fill:#efcaa6"/><path d="M664.36,448.14s-11.19-.15-9.82,13.34c1.23,8.47,8.55,10.28,13.38,9.28C666.19,464.84,666,452.84,664.36,448.14Z" style="fill:#f4d9bf"/><ellipse cx="713.65" cy="451.82" rx="49.52" ry="61.07" style="fill:#f4d9bf"/><path d="M730.7,456.16c-.14,3.3,1.27,6,3.15,6s3.53-2.56,3.66-5.86-1.26-6-3.15-6S730.84,452.89,730.7,456.16Z" style="fill:#673121"/><path d="M734.71,453.76c.06,1,.58,1.8,1.16,1.75s1-.85.92-1.83-.61-1.77-1.18-1.77S734.64,452.78,734.71,453.76Z" style="fill:#fff"/><path d="M699.39,456.16c.14,3.3-1.26,6-3.15,6s-3.52-2.56-3.66-5.86,1.27-6,3.15-6S699.26,452.89,699.39,456.16Z" style="fill:#673121"/><path d="M695.39,453.76c-.07,1-.58,1.8-1.16,1.75s-1-.85-.93-1.83.62-1.77,1.18-1.77S695.46,452.78,695.39,453.76Z" style="fill:#fff"/><path d="M698.44,488a182.54,182.54,0,0,0,27.1.34c.29,8.45-5.92,14.87-14.9,14.34S698.09,493.32,698.44,488Z" style="fill:#96172d"/><path d="M708.24,502.28a11.36,11.36,0,0,0,2.4.38,14.81,14.81,0,0,0,8.22-1.78C714.89,497.82,710.38,500.57,708.24,502.28Z" style="fill:#ed776f"/><path d="M709.73,495.23c7.73.36,11.67-1.84,15.69-4.51a17.3,17.3,0,0,0,.12-2.4,177.43,177.43,0,0,1-24.4-.13C701.54,490.73,703.18,494.92,709.73,495.23Z" style="fill:#fff"/><path d="M695,487s.54.1,1.48.21c.48.08,1,.16,1.7.21s1.4.14,2.22.24l2.61.21c.94.08,1.93.12,2.94.16s2.06.12,3.12.15l3.24.05c1.09,0,2.17.08,3.24.05l3.14-.05,2.93,0c.93,0,1.81-.09,2.63-.12,1.62-.09,3-.11,3.94-.14l1.5,0s-.54.09-1.47.21-2.31.31-3.94.49c-.8.08-1.69.19-2.62.27l-3,.15-3.16.15c-1.07,0-2.15,0-3.25,0L709,489.1l-3.15-.24c-1-.07-2-.17-2.94-.31l-2.62-.36c-.81-.11-1.54-.27-2.2-.4s-1.22-.26-1.69-.37C695.48,487.21,695,487,695,487Z" style="fill:#c39368"/><path d="M688.32,447.35c.82-2.06,4.72-2.81,7.54-2.27A13.33,13.33,0,0,1,703.7,450c.15.25-.07.44-.37.49a.37.37,0,0,1-.45.15c-2.6-.86-5-1.92-7.85-2.16a7.36,7.36,0,0,0-4.52,1.31,2.59,2.59,0,0,1-2.4.55,1.15,1.15,0,0,1-1-1.13A2.76,2.76,0,0,1,688.32,447.35Z" style="fill:#873300"/><path d="M742.21,447.35c-.83-2.06-4.73-2.81-7.55-2.27a13.36,13.36,0,0,0-7.84,4.95c-.14.25.08.44.37.49a.39.39,0,0,0,.46.15c2.6-.86,5-1.92,7.84-2.16a7.34,7.34,0,0,1,4.52,1.31,2.59,2.59,0,0,0,2.4.55,1.14,1.14,0,0,0,1-1.13A2.74,2.74,0,0,0,742.21,447.35Z" style="fill:#873300"/><circle cx="678.99" cy="465.02" r="4.95" style="fill:#f9cbc0"/><circle cx="748.32" cy="465.02" r="4.95" style="fill:#f9cbc0"/><path d="M680.64,417.15c-5.07,9.61-4.89,23.22-4.89,23.22l19.89,1.46s1.75-15.57,8.11-21.38c-5.85,13-3.89,21-3.89,21l29.31,2.15a51.59,51.59,0,0,0,4.29-19.87c4,10-.37,21.38-.37,21.38l21.71-1.68s2.9-7.7,1.77-19.7c3.36,13.7,1.46,18,1.46,18l2.56-.67s-.58,41.14-17.23,65.21c10.09,3,40.32-27.24,42.81-67.13s-22.41-79.8-53-67.86c-10.49-15.89-43.17-14.89-64.78,10.38,0,0-33.15,32.67-24.21,89.34,7.73,33.29,27.33,37.09,37.34,34.63,0,0-16.92-8.08-14.12-32.38s3.3-33,3.3-33C674,430.36,680.64,417.15,680.64,417.15Z" style="fill:#ca8342"/><path d="M672.72,502.24c-.19-.12-17.63-12.4-45.58,19.43L645,536S653.19,513.62,672.72,502.24Z" style="fill:#fa7598"/><path d="M638.24,530.59,645,536s8-21.81,27-33.29C658.84,508.62,647.84,518.71,638.24,530.59Z" style="fill:#fa7598"/><path d="M756.54,515.05c-9.73-2.37-34.21.14-43.77-.22-9.06-.34-40-12.59-40-12.59h0C653.19,513.62,645,536,645,536l0,23,119.9-.14V543.66l1,1.66h0C761.37,537.56,756.54,515.05,756.54,515.05Z" style="fill:#fa7598"/><path d="M645,555.74V559l119.9-.14,0-3.53C724.93,555.38,685,555.61,645,555.74Z" style="fill:#fa7598"/><path d="M795.18,541.57s-6.58-15.31-28.12-23.44a92.69,92.69,0,0,0-10.52-3.08s4.83,22.51,9.33,30.27h0l5.89,10.23S787.38,551.43,795.18,541.57Z" style="fill:#fa7598"/><path d="M757.73,520.26c1.72,7.15,5,19.69,8.14,25.06h0l5.89,10.23a59,59,0,0,0,6.21-2.17C771.85,541.83,766.49,529.55,757.73,520.26Z" style="fill:#fa7598"/><path d="M777.84,553.44,782.41,565l-39.82,12.81-5.85-3.07s-2.35-6.63-5.63-6.62-.23,4.09,1.19,7.66,2.33,6.88,2.33,6.88-12-8.65-15.69-9.69-2.58,2.82,0,4.35,10.8,7.38,10.8,7.38-13.11-2-14.55,0,10.79,2.78,12.91,3-14.77,6.9-12,8.94,17.56-6.65,15.93-3.07-9.37,13.79-5.14,12.76,9.83-11.25,9.83-11.25,6.33-1,7.72-5.36c0,0,49.26-10.47,50.72-21s-5.88-21.67-5.88-21.67S782.49,551.75,777.84,553.44Z" style="fill:#f4d9bf"/></g></g></svg>