<svg xmlns="http://www.w3.org/2000/svg" viewBox="0 0 1447.14 880.39"><title>Asset 3</title><g id="Layer_2" data-name="Layer 2"><g id="Layer_1-2" data-name="Layer 1"><rect x="1.2" width="1440.46" height="780.76" style="fill:#5a59f3"/><path d="M1341.79,160.75c-62.93,3.55-134.19,5.86-144.5,6.27-87,3.49-174.21,4.77-261.17.36-138.57-7-272.81-35-409-54.36C357.57,88.9,171.17,79.91,1.2,105.59V778.28H1441.67V149.6C1441.67,153.92,1394.67,157.77,1341.79,160.75Z" style="fill:#7b7af5"/><path d="M326.44,196c71,27.73,142.81,52.49,220.76,55.45,145.44,5.52,298.3-12.76,431.53-66.45,75.55-30.44,152.16-62.14,234.46-74.07a460.75,460.75,0,0,1,116.5-2.33c12.22,1.37,112,15.93,112,28.33V767.24H1.2V110.68c31,.48,62.19,2.81,94.24,9.26C176,133.53,250.82,166.42,326.44,196Z" style="fill:#9c9bf8"/><path d="M1412,722.17a53.89,53.89,0,0,0-7.42-.85c-1.44-17.23-18-32.87-43.36-39.43a26.6,26.6,0,0,0,7.24-9.47c6.51-15.06-6.87-30.73-29.89-35l-1.13-.19c11.63-5.25,20.64-13.08,24.79-22.67,9.47-21.89-10-44.66-43.45-50.85-23-4.26-46.59.41-62.19,10.84,2.7-30.13-26.76-58.5-73-67.06-50.17-9.29-102.23,8.07-120.88,39.18-4.55-7.91-14.58-14.36-28-16.83-22.38-4.15-45.66,4.36-52,19a18.35,18.35,0,0,0-.6,13.48,97.59,97.59,0,0,0-12.34-3.1c-36.88-6.83-75.17,6.31-87.95,29.55-6.08-7.83-16.94-14-30.87-16.61-26.5-4.91-54.06,5.17-61.56,22.5s7.9,35.37,34.4,40.28a74.5,74.5,0,0,0,9.91,1.15c-.58,19.31,18.67,37.2,48.41,42.71,28,5.18,56.87-2.18,72.65-17-5.77,31.56,24.22,62.06,72.45,71,43.65,8.08,88.73-4,112-27.78,12,8.2,27.34,14.48,45.23,17.8,29.83,5.52,60.33,1.62,84.08-9-8,23.2,13,46.72,48.45,53.27,20.38,3.78,41.21,1.13,57.46-6.08a42.14,42.14,0,0,0,17.55,7.24c19.48,3.61,39.74-3.8,45.25-16.54S1431.46,725.77,1412,722.17Z" style="fill:#d0d0fc"/><path d="M36.49,688.06a56,56,0,0,1,7.2-.1C48.86,671.81,68,658.6,93.4,654.79a21.22,21.22,0,0,1-4.75-9.64c-2.83-14.85,13.28-28.4,36-30.25l1.12-.07c-9.84-6.06-16.62-14.32-18.42-23.78-4.12-21.59,19.31-41.28,52.32-44,22.66-1.85,44,4.8,56.39,16.13,4.11-28.73,38.24-52.77,83.83-56.48,49.49-4,94.87,17.31,105.62,48.48,6.05-7.05,17-12.19,30.16-13.27,22.08-1.8,42.21,8.45,44.95,22.89a18,18,0,0,1-2.41,12.8,101.71,101.71,0,0,1,12.35-1.75c36.38-3,69.67,13.07,76.61,36.26,7.48-6.82,19.12-11.67,32.86-12.79,26.14-2.13,50,10,53.22,27.11S638,659.16,611.81,661.29a73.85,73.85,0,0,1-9.62.15c-3.73,18.31-25.88,33.4-55.21,35.79-27.62,2.25-53.29-7.45-64.93-22.9-1.53,30.38-36.63,56.37-84.2,60.25-43.06,3.51-83-12.19-99.74-36.86-13.13,6.61-29.06,11.1-46.7,12.54-29.42,2.39-57.39-4.18-77.5-16.46,2.45,22.7-22.66,42.94-57.58,45.78-20.11,1.64-39.21-2.83-53-11.19a45.66,45.66,0,0,1-18.2,5.19C25.94,735.15,8.42,726.22,6,713.66S17.27,689.63,36.49,688.06Z" style="fill:#d0d0fc"/><path d="M966.05,722.55a57,57,0,0,0-7.49.5c-8.56-16.32-31-28.41-58.13-30.21a20,20,0,0,0,3-10.4c0-15.66-19.4-28.35-43.33-28.35l-1.16,0c9-7.12,14.41-16.26,14.41-26.22,0-22.76-28.19-41.2-63-41.2-23.88,0-44.66,8.7-55.33,21.51-9.94-29.47-50.1-51.52-98.14-51.52-52.14,0-95,26-100,59.23-7.67-6.8-20-11.21-33.91-11.21-23.26,0-42.12,12.33-42.12,27.55a20.47,20.47,0,0,0,5,13.08,111,111,0,0,0-13.16-.78c-38.34,0-69.72,19.46-72.33,44.1-9.11-6.45-22.14-10.49-36.62-10.49-27.55,0-49.87,14.61-49.87,32.62s22.32,32.63,49.87,32.63a75.93,75.93,0,0,0,10-.66c7.48,18.68,33.45,32.47,64.36,32.47C467.29,775.22,492,763,501,746c7.59,31.39,49.14,55.4,99.26,55.4,45.37,0,83.71-19.67,96.21-46.68a142.52,142.52,0,0,0,50.93,9.06c31,0,58.72-9.19,77.16-23.63,1.94,23.76,32,42.63,68.79,42.63,21.18,0,40.12-6.25,52.76-16.09a51.31,51.31,0,0,0,19.91,3.85c20.24,0,36.65-10.74,36.65-24S986.29,722.55,966.05,722.55Z" style="fill:#d0d0fc"/><path d="M1402.86,742.48a50.78,50.78,0,0,0-8.06,1.35c-12.16-20.7-38.69-34.57-68.49-34.45a30.06,30.06,0,0,0,1.46-14c-2.75-20.61-26.06-35.54-52.07-33.35l-1.27.14c8.54-10.21,12.82-22.75,11.07-35.87-4-30-37.88-51.67-75.69-48.47-26,2.19-47,15.55-56.37,33.41-16-37.9-63.5-63.25-115.73-58.84-56.68,4.79-98.73,43-98.33,87.2-9.53-8.25-23.71-12.93-38.84-11.65-25.29,2.13-43.62,20.11-40.95,40.16a32,32,0,0,0,7.77,16.76,98.45,98.45,0,0,0-14.45.18c-41.67,3.52-72.37,32-70.89,64.73-11-7.66-25.91-11.78-41.65-10.45-29.94,2.53-51.65,23.81-48.49,47.55s30,40.91,59.93,38.38a66.32,66.32,0,0,0,10.77-1.79c11.41,23.92,42.07,39.69,75.66,36.85,31.64-2.67,56.36-21,63.19-44.3,13.76,40.65,63.14,68.45,117.63,63.85,49.32-4.17,87.55-33.59,96.4-70.32a135.15,135.15,0,0,0,57,7.26c33.7-2.85,62.23-17.5,79.74-38.21,6.28,31.11,42.26,53.21,82.26,49.83,23-2,42.52-11.93,54.54-26a49.09,49.09,0,0,0,22.31,3.24c22-1.86,38-17.51,35.64-34.95S1424.86,740.62,1402.86,742.48Z" style="fill:#ebebff"/><path d="M695,737.74a51.41,51.41,0,0,0-7.91,1.18c-11.09-19.63-36.44-33-65.5-33.18a27.69,27.69,0,0,0,1.94-13.15c-1.91-19.44-24.09-33.75-49.53-32-.42,0-.82.07-1.24.11,8.7-9.53,13.34-21.28,12.12-33.66-2.78-28.26-35-49.07-72-46.46-25.39,1.78-46.42,14.14-56.2,30.85-14.17-35.86-59.57-60.25-110.65-56.66-55.44,3.9-97.84,39.38-99.1,81.06-9-7.88-22.64-12.44-37.43-11.4-24.73,1.74-43.28,18.47-41.42,37.38a28.84,28.84,0,0,0,7,15.86,102,102,0,0,0-14.09,0c-40.76,2.86-71.75,29.38-71.52,60.19-10.47-7.33-24.82-11.37-40.22-10.29C19.9,729.69-2,749.5.15,771.88s27.73,38.86,57,36.8a68.79,68.79,0,0,0,10.57-1.57c10.24,22.65,39.54,37.83,72.4,35.52,30.94-2.17,55.73-19.21,63.25-41,11.9,38.43,59,65.14,112.31,61.39,48.24-3.39,86.61-30.69,96.59-65.18a134.44,134.44,0,0,0,55.26,7.45c33-2.32,61.32-15.8,79.16-35.11,5,29.36,39.24,50.56,78.36,47.81,22.52-1.59,41.89-10.78,54.13-23.94a48.71,48.71,0,0,0,21.64,3.29c21.52-1.51,37.66-16.07,36-32.52S716.49,736.23,695,737.74Z" style="fill:#ebebff"/></g></g></svg>